<svg width="119" height="119" viewBox="0 0 119 119" fill="none" xmlns="http://www.w3.org/2000/svg">
<path d="M59.5 119C92.3609 119 119 92.3609 119 59.5C119 26.6391 92.3609 0 59.5 0C26.6391 0 0 26.6391 0 59.5C0 92.3609 26.6391 119 59.5 119Z" fill="#7DE2D1"/>
<path d="M18.7542 85.0135C18.5638 85.7751 19.3254 86.8223 20.087 87.0127C20.9438 87.2031 21.8006 86.7271 21.8958 86.0607V85.9655H21.991C22.5622 85.8703 23.0382 85.2039 22.943 84.7279C22.8478 84.2519 22.0862 83.8711 21.7054 84.0615C21.6102 84.0615 21.6102 84.1567 21.515 84.1567C21.3246 83.9663 21.1342 83.7759 20.8486 83.6807C20.087 83.4903 18.8494 84.2519 18.7542 85.0135Z" fill="#42D4C6"/>
<path d="M46.553 104.625C45.5058 104.815 45.2202 105.672 45.2202 106.338C45.2202 107.005 45.7914 108.147 47.029 107.957C48.2666 107.671 48.8378 106.91 48.7426 106.148C48.6474 105.386 47.4098 104.53 46.553 104.625Z" fill="#42D4C6"/>
<path d="M36.6519 87.5841C37.2231 87.3937 37.4135 86.5369 37.1279 85.7753C36.9375 85.2993 36.5567 85.2041 36.1759 85.2993C35.5095 85.4897 35.0335 86.1561 35.2239 86.6321C35.4143 87.2985 36.2711 87.7745 36.6519 87.5841Z" fill="#42D4C6"/>
<path d="M5.1408 71.2096C4.284 71.4952 3.1416 72.352 3.1416 73.8752C3.1416 74.8272 3.5224 75.3984 4.0936 75.7792C4.76 76.2552 5.5216 75.5888 6.2832 75.7792C6.4736 75.7792 6.5688 75.8744 6.664 75.8744C6.5688 76.16 6.4736 76.4456 6.7592 76.7312C7.0448 77.112 7.4256 77.3976 7.8064 77.112C8.092 76.9216 8.4728 76.5408 8.4728 76.2552C8.4728 75.8744 8.2824 75.684 8.092 75.5888C8.568 75.1128 8.7584 74.3512 8.8536 73.6848C8.8536 73.2088 8.7584 72.828 8.4728 72.4472C8.1872 71.9712 7.616 71.7808 6.9496 71.6856C6.188 71.4952 5.8072 71.0192 5.1408 71.2096Z" fill="#42D4C6"/>
<path d="M43.5066 99.6744C43.221 99.008 42.6498 98.8176 41.8882 99.008C41.1266 99.2936 40.9362 99.6744 41.2218 100.531C41.5074 101.293 41.9834 101.674 42.5546 101.483C42.5546 101.483 42.6498 101.483 42.6498 101.388C42.8402 101.674 43.1258 101.864 43.4114 101.959C43.8874 102.054 44.3634 101.769 44.4586 101.293C44.5538 100.817 44.3634 100.341 43.8874 100.246C43.7922 100.246 43.6018 100.246 43.5066 100.246C43.5066 99.96 43.5066 99.7696 43.5066 99.6744Z" fill="#42D4C6"/>
<path d="M7.23504 66.6399C7.13984 67.1159 7.42544 67.6871 7.90144 67.7823C8.37744 67.8775 8.75824 67.6871 8.94864 67.2111C9.13904 66.6399 8.85344 66.1639 8.37744 66.0687C7.90144 65.8783 7.33024 66.1639 7.23504 66.6399Z" fill="#42D4C6"/>
<path d="M8.56781 54.4543C8.47261 54.4543 8.28221 54.4543 8.18701 54.6447C8.18701 54.8351 8.28221 54.9303 8.37741 54.9303C8.47261 54.9303 8.66301 54.8351 8.66301 54.7399C8.75821 54.6447 8.66301 54.4543 8.56781 54.4543Z" fill="#42D4C6"/>
<path d="M7.99704 60.3568C7.90184 60.928 8.18744 61.404 8.75864 61.4992C9.23464 61.5944 9.80584 61.1184 9.90104 60.6424C9.99624 60.1664 9.61545 59.6904 9.13945 59.5952C8.56824 59.5 8.18744 59.7856 7.99704 60.3568Z" fill="#42D4C6"/>
<path d="M6.66375 69.496C6.66375 69.4008 6.56855 69.02 6.47335 69.02C6.28295 69.02 5.99735 69.1152 5.90215 69.2104C5.80695 69.3056 5.80695 69.7816 6.09255 69.8768C6.47335 70.0672 6.56855 69.6864 6.66375 69.496Z" fill="#42D4C6"/>
<path d="M24.7518 84.4425C24.6566 85.2041 25.323 86.2513 25.9894 86.3465H26.0846C25.6086 86.7273 25.5134 87.2985 25.799 87.8697C26.0846 88.5361 26.8462 88.9169 27.3222 88.7265C28.0838 88.3457 28.5598 87.2985 28.2742 86.5369C28.0838 86.0609 27.4174 85.8705 26.8462 85.9657C27.0366 85.7753 27.227 85.4897 27.227 85.2041C27.4174 84.4425 27.0366 83.8713 26.1798 83.6809C25.5134 83.5857 24.847 83.8713 24.7518 84.4425Z" fill="#42D4C6"/>
<path d="M26.2751 78.6352C26.4655 78.54 26.5607 78.2544 26.5607 78.064C26.5607 77.8736 26.1799 77.4928 25.9895 77.588C25.7991 77.6832 25.7039 78.1592 25.7991 78.3496C25.7991 78.54 26.0847 78.7304 26.2751 78.6352Z" fill="#42D4C6"/>
<path d="M21.325 65.5929C21.4202 65.1169 21.2298 64.7361 20.7538 64.7361C20.4682 64.7361 20.1826 64.9265 19.897 65.0217C19.8018 65.5929 20.1826 66.0689 20.6586 66.1641C21.1346 66.2593 21.2298 65.9737 21.325 65.5929Z" fill="#42D4C6"/>
<path d="M27.7984 80.7297C28.084 80.6345 27.9888 80.1585 27.9888 80.0633C27.9888 79.9681 27.7032 79.7777 27.5128 79.8729C27.3224 79.9681 27.3224 80.2537 27.3224 80.4441C27.2272 80.4441 27.5128 80.8249 27.7984 80.7297Z" fill="#42D4C6"/>
<path d="M32.5583 86.156C32.7487 85.9656 32.4631 85.1088 32.0823 85.0136C31.6063 84.9184 31.2255 85.204 31.0351 85.68C30.9399 86.0608 31.2255 86.5368 31.6063 86.5368C32.0823 86.4416 32.3679 86.3464 32.5583 86.156Z" fill="#42D4C6"/>
<path d="M29.1311 91.0111C29.1311 91.1063 29.1311 91.1063 29.1311 91.0111C28.6551 90.7255 27.9887 90.6304 27.2271 90.8208C26.3703 91.1064 25.9895 91.868 26.1799 92.7247C26.4655 93.6767 27.6079 94.3431 28.4647 94.0575C28.5599 94.0575 28.6551 93.9623 28.7503 93.9623C28.9407 94.1527 29.2263 94.3431 29.6071 94.1527C30.8447 93.3911 29.8927 92.4391 30.1783 92.0583C30.3687 91.8679 30.8447 91.6775 31.3207 91.4871C31.6063 92.1535 32.1775 92.4392 32.9391 92.1536C33.8911 91.868 34.2719 91.1063 33.8911 90.0591C33.7007 89.3927 33.0343 88.9168 32.3679 89.012C32.2727 88.9168 32.1775 88.8215 32.0823 88.7263C31.2255 87.9647 30.2735 88.1552 29.6071 88.8216C28.7503 89.8688 29.8927 90.6303 29.1311 91.0111Z" fill="#42D4C6"/>
<path d="M10.0913 88.536C9.71053 88.8216 9.52013 89.2976 9.90093 89.6784C10.2817 90.0592 10.3769 90.44 10.4721 91.0112C10.6625 92.1536 11.6145 92.7248 12.6617 92.4392C12.9473 92.4392 13.2329 92.4392 13.2329 92.4392C13.4233 92.5344 13.5185 92.6296 13.7089 92.6296C13.1377 93.0104 12.7569 93.772 12.9473 94.3432C13.1377 94.8192 14.0897 95.2 14.7561 94.9144C15.4225 94.724 15.8033 94.0576 15.5177 93.4864C15.3273 92.9152 14.7561 92.5344 14.2801 92.4392C14.3753 92.4392 14.3753 92.344 14.4705 92.344C14.8513 91.9632 14.6609 91.5824 14.4705 91.2016C14.2801 90.8208 13.9945 90.3448 13.8041 89.964C13.7089 89.7736 13.5185 89.5832 13.4233 89.3928C13.7089 89.2024 14.0897 88.9168 13.9945 88.6312C13.8993 88.1552 13.1377 88.1552 12.7569 87.8696C12.6617 87.9648 12.5665 87.9648 12.4713 88.06C12.1857 88.536 12.2809 88.7264 12.3761 89.012C12.2809 88.9168 12.1857 88.9168 12.0905 88.8216C11.4241 87.7744 11.0433 87.7744 10.0913 88.536Z" fill="#42D4C6"/>
<path d="M33.3201 93.1056C33.1297 93.772 33.4153 94.4384 34.0817 94.5336C34.8433 94.724 35.7001 94.3432 35.8905 93.772C35.8905 94.1528 36.6521 94.6288 37.1281 94.5336C37.5089 94.5336 37.7945 94.1528 37.6993 93.6768C37.6041 92.9152 37.2233 92.4392 36.8425 92.5344C36.5569 92.5344 36.0809 93.1056 35.9857 93.4864C35.9857 92.82 35.5097 92.1536 34.9385 91.9632C34.3673 91.7728 33.5105 92.4392 33.3201 93.1056Z" fill="#42D4C6"/>
<path d="M47.9809 99.1033C47.9809 98.8177 47.7905 98.7225 47.5049 98.8177C47.2193 98.9129 47.1241 99.0081 47.2193 99.2937C47.3145 99.5793 47.4097 99.6745 47.6953 99.5793C47.9809 99.5793 48.0761 99.3889 47.9809 99.1033Z" fill="#42D4C6"/>
<path d="M34.2718 111.574C34.5574 112.336 35.5094 112.907 36.1758 112.717C36.9374 112.526 37.6038 111.003 37.3182 110.242C37.223 109.956 36.9374 109.766 36.6518 109.575C36.8422 109.29 36.8422 108.909 36.747 108.623C36.5566 108.147 35.9854 107.862 35.6046 108.052C35.1286 108.242 34.9382 108.909 35.1286 109.385C35.1286 109.48 35.2238 109.48 35.2238 109.575C34.4622 109.956 33.9862 110.908 34.2718 111.574Z" fill="#42D4C6"/>
<path d="M42.1734 105.862C41.6022 104.625 41.1262 104.625 39.8886 105.005C39.127 105.196 38.7462 106.243 39.0318 107.005C39.3174 107.766 40.4598 108.052 41.507 107.671C42.2686 107.385 42.5542 106.624 42.1734 105.862Z" fill="#42D4C6"/>
<path d="M42.7446 114.811C42.8398 113.859 42.3638 113.479 41.2214 113.288C40.9358 112.812 40.7454 112.336 40.3646 111.955C39.9838 111.575 39.3174 111.575 39.0318 111.86C38.9366 111.765 38.8414 111.575 38.651 111.479C38.5558 111.384 38.175 111.479 38.0798 111.765C37.9846 112.051 38.4606 112.241 38.5558 112.241C38.5558 112.241 38.5558 112.241 38.651 112.241C38.2702 112.622 37.9846 113.098 37.6038 113.574C36.747 113.479 36.6518 113.574 36.5566 114.335C38.2702 115.097 40.079 115.668 41.8878 116.239C42.3638 116.049 42.6494 115.478 42.7446 114.811Z" fill="#42D4C6"/>
<path d="M35.4144 101.769C35.7952 101.959 36.3664 101.483 36.3664 101.102C36.3664 100.817 36.0808 100.626 36.0808 100.436C35.4144 100.341 34.9384 100.626 35.0336 101.007C35.0336 101.293 35.224 101.674 35.4144 101.769Z" fill="#42D4C6"/>
<path d="M33.7009 105.577C34.0817 106.624 35.1289 107.1 36.0809 106.719C36.7473 106.434 37.0329 105.958 37.0329 105.291C37.1281 105.386 37.2233 105.482 37.4137 105.577C37.8897 105.767 38.5561 105.386 38.6513 104.91C38.7465 104.625 38.4609 104.244 38.0801 103.958C38.0801 103.673 38.0801 103.387 37.9849 103.102C37.6993 102.34 36.5569 101.769 35.8905 102.054C35.6049 102.15 35.4145 102.34 35.2241 102.53C35.1289 102.435 35.0337 102.34 34.8433 102.34C34.3673 102.34 34.0817 102.911 33.8913 103.197C33.7961 103.482 33.9865 103.768 34.2721 103.863C33.7009 104.244 33.4153 105.006 33.7009 105.577Z" fill="#42D4C6"/>
<path d="M10.9482 93.8672C11.6146 94.724 12.1858 95.5808 12.8522 96.4376C12.9474 95.7712 12.8522 95.2952 12.5666 94.8192C12.281 94.3432 11.6146 93.9624 10.9482 93.8672Z" fill="#42D4C6"/>
<path d="M41.1265 111.384C40.9361 111.384 40.6505 111.479 40.5553 111.67C40.4601 111.86 40.7457 112.146 40.8409 112.241C41.0313 112.336 41.5073 112.241 41.6025 112.05C41.6025 111.765 41.2217 111.384 41.1265 111.384Z" fill="#42D4C6"/>
<path d="M5.42659 84.4423C5.52179 84.3471 5.52179 84.3471 5.61699 84.2519C5.90259 83.7759 5.99779 83.2047 5.80739 82.7287C6.56899 82.6335 7.521 81.9671 7.7114 81.3007C7.9018 80.6343 7.14019 79.3967 6.37859 79.1111C5.61699 78.8255 4.85539 79.3015 4.66499 80.1583C4.47459 80.8247 4.47459 81.3959 4.56979 81.7767C4.47459 81.7767 4.47459 81.7767 4.37939 81.7767C4.76019 82.7287 5.04579 83.5855 5.42659 84.4423Z" fill="#42D4C6"/>
<path d="M31.2255 101.578V101.674C31.4159 102.15 31.7967 102.34 32.2727 102.245C32.7487 102.054 33.0343 101.578 32.9391 101.102C32.8439 100.817 32.5583 100.626 32.2727 100.531C32.1775 99.96 31.7015 99.2936 31.2255 99.1984C30.7495 99.1032 29.8927 99.6745 29.7975 100.246C29.7023 100.722 30.0831 101.293 30.4639 101.388C30.7495 101.578 31.0351 101.674 31.2255 101.578Z" fill="#42D4C6"/>
<path d="M33.7963 97.9607C34.1771 98.0559 34.5579 97.7703 34.6531 97.2943C34.7483 96.8183 34.3675 96.6279 34.0819 96.5327C33.7963 96.5327 33.0347 96.5327 32.9395 97.0087C32.9395 97.4847 33.5107 97.9607 33.7963 97.9607Z" fill="#42D4C6"/>
<path d="M27.3224 102.34C27.608 103.006 28.8456 103.482 29.6072 103.197C30.0832 103.006 30.2736 102.245 29.988 101.483C29.6072 100.626 29.1312 100.436 28.1792 100.817C27.608 101.102 27.132 101.864 27.3224 102.34Z" fill="#42D4C6"/>
<path d="M17.5167 94.7241C16.9455 95.3905 17.7071 95.7713 17.8023 96.2473C17.8975 96.7233 18.3735 97.2945 19.0399 97.1993C19.7063 97.1041 20.3727 96.7233 20.6583 96.8185C20.7535 96.8185 20.7535 96.8185 20.8487 96.9137C20.7535 97.1041 20.7535 97.3897 20.8487 97.6753C20.9439 97.8657 21.0391 98.1513 21.2295 98.3417C21.3247 98.7225 21.7055 99.1033 22.3719 99.2937C23.4191 99.6745 24.4663 98.8177 24.2759 98.0561C24.0855 97.2945 23.6095 97.1993 23.7047 97.0089C23.7999 96.7233 24.3711 96.3425 24.1807 95.8665C23.9903 95.3905 22.4671 95.2953 22.1815 95.4857C21.8959 95.6761 21.4199 96.1521 21.1343 95.7713C20.7535 95.3905 20.6583 94.7241 20.0871 94.5337C19.3255 94.4385 18.0879 94.0577 17.5167 94.7241Z" fill="#42D4C6"/>
<path d="M19.8017 88.0599C19.6113 88.2503 19.5161 88.5359 19.4209 88.6311C19.7065 89.2023 20.1825 89.3927 20.4681 89.2023C20.6585 89.0119 20.8489 88.6311 20.8489 88.4407C20.8489 88.0599 20.0873 87.7743 19.8017 88.0599Z" fill="#42D4C6"/>
<path d="M19.6113 92.4392C19.6113 92.7248 19.5161 93.296 19.9921 93.3912C20.3729 93.4864 20.7537 93.2008 21.0393 92.9152C21.3249 92.6296 20.9441 92.1536 20.5633 92.0584C19.9921 91.7728 19.6113 92.0584 19.6113 92.4392Z" fill="#42D4C6"/>
<path d="M30.0834 98.1511C30.5594 97.8655 30.7498 97.3895 30.5594 96.9135C30.369 96.4375 29.9882 96.4375 29.5122 96.5327C29.0362 96.7231 28.7506 97.2943 28.941 97.6751C29.1314 98.1511 29.6074 98.3415 30.0834 98.1511Z" fill="#42D4C6"/>
<path d="M34.2721 98.4369C33.8913 98.0561 33.5105 97.5801 32.9393 98.0561C32.4633 98.4369 32.6537 99.0081 32.9393 99.3889C33.7009 99.4841 34.1769 99.2937 34.2721 98.4369Z" fill="#42D4C6"/>
<path d="M15.7082 83.3001C15.5178 82.8241 15.0418 82.6337 14.661 82.7289C13.9946 82.8241 13.9946 83.4905 13.8042 84.1569C14.185 84.4425 14.5658 84.6329 14.8514 84.7281C14.661 84.9185 14.4706 85.1089 14.4706 85.3945C14.2802 86.1561 14.9466 87.2985 15.7082 87.4889C16.4698 87.6793 17.3266 87.2033 17.517 86.4417C17.8026 85.2993 17.3266 84.3473 16.4698 84.1569C16.2794 84.1569 15.9938 84.1569 15.7082 84.1569C15.8034 83.8713 15.8034 83.5857 15.7082 83.3001Z" fill="#42D4C6"/>
<path d="M13.1378 39.6985C13.1378 39.8889 13.0426 40.2697 13.3282 40.3649C13.6138 40.4601 13.8994 40.1745 13.8994 40.0793C13.8994 39.8889 13.8042 39.6985 13.709 39.5081C13.5186 39.5081 13.1378 39.6033 13.1378 39.6985Z" fill="#42D4C6"/>
<path d="M57.9766 106.338C57.9766 106.433 58.2622 106.624 58.4526 106.529C58.643 106.433 58.7382 106.148 58.7382 105.957C58.7382 105.862 58.3574 105.481 58.167 105.577C57.9766 105.672 57.9766 106.148 57.9766 106.338Z" fill="#42D4C6"/>
<path d="M56.4534 104.625C56.3582 105.196 56.3582 105.672 56.9294 105.957C57.4054 106.148 57.8814 105.957 58.0718 105.577C58.167 105.291 58.167 104.815 57.9766 104.625C57.5006 104.053 56.9294 104.244 56.4534 104.625Z" fill="#42D4C6"/>
<path d="M54.6449 112.812C53.7881 113.098 53.2169 114.05 53.5025 114.811C53.7881 115.573 55.2161 116.239 55.9777 116.049C56.3585 115.954 56.6441 115.573 56.8345 115.192C56.9297 115.192 57.0249 115.192 57.1201 115.097C57.5009 114.906 57.7865 114.335 57.6913 113.859C57.5009 113.383 57.0249 113.193 56.5489 113.383C56.0729 112.907 55.2161 112.622 54.6449 112.812Z" fill="#42D4C6"/>
<path d="M59.024 98.4368C59.2144 97.9608 59.024 97.7704 58.072 97.3896C57.4056 97.6752 57.596 98.6272 57.9768 98.8176C58.3576 99.008 58.9288 98.7224 59.024 98.4368Z" fill="#42D4C6"/>
<path d="M65.8785 96.6279C66.0689 96.1519 65.6881 95.4855 64.9265 95.5807C64.2601 95.8663 64.4505 96.8183 64.8313 97.0087C65.2121 97.1991 65.7833 97.0087 65.8785 96.6279Z" fill="#42D4C6"/>
<path d="M45.6008 88.6312C45.696 88.6312 46.0768 88.4408 46.0768 88.2504C46.0768 88.06 45.8864 87.7744 45.7912 87.7744C45.6008 87.7744 45.22 87.7744 45.1248 88.1552C45.0296 88.536 45.5056 88.6312 45.6008 88.6312Z" fill="#42D4C6"/>
<path d="M58.2624 116.62C58.548 117.477 59.6904 117.953 60.5472 117.572C61.2136 117.286 61.6896 116.049 61.404 115.097C61.1184 114.335 60.2616 113.954 59.4048 114.24C58.2624 114.811 57.8816 115.478 58.2624 116.62Z" fill="#42D4C6"/>
<path d="M63.7842 99.4839C63.213 98.9127 62.3562 98.7223 61.785 99.0079C61.1186 99.3887 60.7378 100.055 60.7378 100.817C60.7378 101.102 60.833 101.388 61.0234 101.578C61.6898 102.245 62.6418 102.34 63.4034 101.674C63.5938 101.578 63.689 101.388 63.8794 101.293C64.165 101.578 64.3554 101.864 64.5458 102.15C65.0218 102.626 65.4026 102.721 65.9738 102.34C66.4498 101.959 66.7354 101.483 66.545 100.817C66.4498 100.246 65.9738 99.9599 65.4026 99.8647C65.0218 99.7695 64.641 99.8647 64.165 99.9599C64.0698 99.7695 63.8794 99.5791 63.7842 99.4839Z" fill="#42D4C6"/>
<path d="M60.6423 112.717C60.9279 112.526 61.4991 111.955 61.3087 111.574C61.1183 111.194 60.4519 111.289 60.1663 111.384C59.7855 111.479 59.4999 111.67 59.5951 112.146C59.6903 112.526 60.2615 112.907 60.6423 112.717Z" fill="#42D4C6"/>
<path d="M2.38018 49.1233C3.23698 49.3137 4.18898 48.7425 4.37938 47.9809C4.56978 47.1241 4.09378 46.1721 3.33218 45.8865C2.66578 45.6961 1.90418 45.8865 1.42818 46.2673C1.33298 46.6481 1.23778 47.1241 1.14258 47.5049C1.33298 48.2665 1.80898 49.0281 2.38018 49.1233Z" fill="#42D4C6"/>
<path d="M19.5162 53.2168C19.0402 53.0264 18.1834 53.0264 18.0882 53.9784C17.993 54.9304 18.945 55.692 19.7066 55.8824C20.5634 56.0728 21.8962 54.9304 21.801 53.8832C21.801 53.5024 21.5154 53.312 21.2298 53.2168C21.1346 53.0264 20.849 52.9312 20.7538 52.9312C20.6586 52.9312 20.373 53.0264 20.2778 53.2168C20.2778 53.312 20.2778 53.312 20.373 53.4072C19.897 53.6928 19.9922 53.5024 19.5162 53.2168Z" fill="#42D4C6"/>
<path d="M10.0912 49.028C10.8528 49.2184 11.424 48.7424 11.6144 47.8856C11.8048 47.0288 11.424 46.3624 10.5672 46.2672C9.80564 46.0768 9.04404 46.648 8.85364 47.5048C8.75844 47.9808 9.32964 48.8376 10.0912 49.028Z" fill="#42D4C6"/>
<path d="M14.6605 73.304C13.9941 73.4944 13.7085 73.9704 13.9941 74.4464C13.4229 74.8272 12.8517 75.0176 12.4709 75.3984C12.0901 75.684 11.9949 76.5408 12.0901 77.112C11.8045 76.8264 11.5189 76.7312 11.0429 76.636C10.0909 76.5408 9.61493 76.636 9.23413 77.112C8.94853 77.2072 8.66293 77.3976 8.56773 77.6832C8.47253 78.064 8.66293 78.4448 8.94853 78.6352C9.13893 79.2064 9.61493 79.6824 10.4717 79.8728C10.5669 79.8728 10.6621 79.8728 10.6621 79.8728C10.1861 80.0632 9.80533 80.5392 9.61493 80.92C9.51973 81.396 9.99573 82.0624 10.5669 82.2528C11.3285 82.4432 11.8997 82.0624 12.1853 81.2056C12.3757 80.5392 12.0901 79.7775 11.5189 79.6824C11.4237 79.6824 11.4237 79.6824 11.3285 79.6824C11.8045 79.3967 12.1853 79.016 12.2805 78.4448C12.2805 78.2544 12.2805 78.064 12.2805 77.8736C12.8517 78.2544 13.9941 78.3496 14.5653 78.064C15.1365 77.6832 15.4221 76.7312 15.0413 75.9696C14.8509 75.3984 14.5653 75.0176 14.9461 74.4464C15.5173 73.9704 15.1365 73.5896 14.6605 73.304Z" fill="#42D4C6"/>
<path d="M65.7833 106.053C66.5449 105.672 66.9257 103.958 66.2593 103.102C65.7833 102.53 64.9265 103.102 64.7361 103.578C64.5457 104.054 64.5457 103.863 63.9745 104.054C63.4033 104.149 62.7369 104.72 63.3081 105.577C63.8793 106.434 65.0217 106.434 65.7833 106.053Z" fill="#42D4C6"/>
<path d="M23.6095 68.0679C23.5143 68.6391 23.9903 69.6863 24.3711 69.7815C25.0375 69.9719 25.7039 69.5911 25.8943 68.8295C26.0847 68.2583 25.6087 67.6871 24.8471 67.4967C24.2759 67.3063 23.7047 67.4967 23.6095 68.0679Z" fill="#42D4C6"/>
<path d="M24.7522 54.6447C24.8474 54.6447 25.133 54.5495 25.2282 54.3591C25.2282 54.1687 25.0378 53.9783 24.8474 53.8831C24.7522 53.7879 24.3714 53.8831 24.2762 54.1687C24.181 54.4543 24.657 54.6447 24.7522 54.6447Z" fill="#42D4C6"/>
<path d="M22.3721 73.0183C22.4673 72.9231 22.4673 72.8279 22.5625 72.7327C22.6577 72.3519 22.1817 71.8759 21.6105 71.7807C20.9441 71.6855 20.3729 71.9711 20.2777 72.5423C20.1825 73.0183 20.5633 73.4943 21.0393 73.5895C20.9441 73.7799 20.8489 74.0655 20.7537 74.4463C20.7537 74.9223 20.7537 75.3031 20.3729 75.6839C19.8969 76.2551 20.0873 76.9215 20.1825 77.5879C20.2777 78.1591 21.0393 78.6351 21.7057 78.6351C21.8009 78.6351 21.8009 78.6351 21.8961 78.6351C21.5153 78.8255 21.2297 79.2063 21.2297 79.5871C21.1345 80.1583 21.6105 80.6343 22.3721 80.9199C22.9433 81.1103 23.8001 80.7295 23.8953 80.2535C24.0857 79.5871 23.5145 78.6351 22.9433 78.4447C22.8481 78.4447 22.7529 78.4447 22.6577 78.4447C22.8481 78.2543 23.0385 78.0639 23.1337 77.7783C23.4193 77.1119 23.3241 76.4455 23.2289 75.7791C23.1337 75.5887 23.1337 75.2079 23.2289 75.0175C23.6097 73.8751 23.3241 73.3039 22.3721 73.0183Z" fill="#42D4C6"/>
<path d="M45.1248 103.482C45.3152 103.673 45.7912 103.768 46.0768 103.768C47.0288 103.578 47.6 103.006 47.6 101.769C47.3144 101.578 47.0288 101.293 46.648 101.102C45.9816 100.817 45.3152 101.102 45.0296 101.483C44.6488 102.245 44.6488 103.006 45.1248 103.482Z" fill="#42D4C6"/>
<path d="M9.80577 28.9408C10.1866 29.036 10.7578 28.8456 10.853 28.3696C11.0434 27.8936 10.7578 27.3224 10.377 27.3224C9.90097 27.2272 9.52017 27.4176 9.32977 27.8936C9.04417 28.2744 9.32977 28.8456 9.80577 28.9408Z" fill="#42D4C6"/>
<path d="M2.18963 53.6928C2.66563 53.1216 2.57043 52.6456 1.42803 51.5984C1.80883 51.1224 2.28483 50.6464 1.61843 50.0752C1.33283 49.7896 1.04723 49.6944 0.76163 49.7896C0.57123 51.2176 0.38083 52.6456 0.19043 54.1688C0.85683 54.3592 1.80883 54.1688 2.18963 53.6928Z" fill="#42D4C6"/>
<path d="M86.3463 107.1C85.5847 107.481 85.2991 108.338 85.5847 109.099C85.9655 110.051 87.0127 110.432 87.8695 110.051C88.6311 109.67 89.0119 108.909 88.7263 108.242C88.3455 107.29 87.0127 106.719 86.3463 107.1Z" fill="#42D4C6"/>
<path d="M88.5358 103.102C88.631 102.911 88.5358 102.53 88.4406 102.435C88.3454 102.34 87.7742 102.245 87.5838 102.435C87.3934 102.626 87.679 103.197 87.8694 103.292C87.9646 103.387 88.4406 103.292 88.5358 103.102Z" fill="#42D4C6"/>
<path d="M76.9214 112.145C76.3502 112.336 76.0646 112.907 76.255 113.383C76.4454 113.859 77.4926 114.43 77.9686 114.335C78.635 114.145 78.9206 113.383 78.635 112.621C78.4446 111.955 77.683 111.765 76.9214 112.145Z" fill="#42D4C6"/>
<path d="M80.2536 111.669C80.3488 111.955 80.5392 112.241 80.8248 112.336C81.3008 112.526 81.6816 112.336 82.1576 111.479C81.872 111.003 81.6816 110.432 80.92 110.622C80.444 110.813 80.1584 111.193 80.2536 111.669Z" fill="#42D4C6"/>
<path d="M6.56885 86.6321C7.04485 87.4889 7.42565 88.3457 7.90165 89.2025C7.99685 89.1073 8.18725 88.9169 8.28245 88.4409C8.56805 87.3937 7.52085 86.2513 6.56885 86.6321Z" fill="#42D4C6"/>
<path d="M12.1854 64.8312C11.3286 64.736 10.4718 65.212 10.2814 65.9736C10.091 66.7352 10.2814 67.4016 10.7574 67.7824C10.3766 67.8776 10.091 68.068 9.8054 68.4488C9.139 69.496 9.3294 70.448 9.9006 70.924C10.2814 71.2096 11.1382 71.2096 11.7094 71.0192C11.7094 71.4952 11.8998 71.7808 12.3758 71.9712C12.8518 72.0664 13.3278 71.7808 13.423 71.2096C13.5182 70.7336 13.2326 70.1624 12.7566 70.0672C12.6614 70.0672 12.6614 70.0672 12.5662 70.0672C12.7566 69.3056 12.471 68.7344 11.995 68.3536L11.8998 68.2584C12.471 68.1632 12.8518 67.6872 13.0422 66.9256C13.1374 66.64 13.1374 66.3544 13.1374 66.164C13.3278 66.2592 13.5182 66.2592 13.8038 66.164C14.1846 66.0688 14.375 65.688 14.375 65.3072C14.4702 65.4976 14.5654 65.7832 14.6606 65.7832C14.9462 65.8784 15.4222 65.3072 15.6126 65.1168C15.803 64.736 15.6126 64.3552 15.1366 64.26C14.6606 64.0696 14.375 64.3552 14.375 64.736C14.375 64.736 14.375 64.6408 14.2798 64.6408C13.9942 64.1648 13.3278 63.784 12.7566 63.8792C12.3758 63.8792 12.1854 64.6408 12.1854 64.8312Z" fill="#42D4C6"/>
<path d="M13.3281 51.408C13.3281 51.5032 13.3281 51.7888 13.5185 51.884C13.7089 51.884 13.9945 51.7888 14.0897 51.6936C14.1849 51.5984 14.0897 51.1224 13.8993 51.0272C13.7089 50.8368 13.4233 51.2176 13.3281 51.408Z" fill="#42D4C6"/>
<path d="M68.7344 117.286C68.9248 117.858 69.496 118.048 69.972 117.858C70.3528 117.667 70.5432 117.096 70.3528 116.62C70.1624 116.144 69.6864 115.954 69.3056 116.144C68.8296 116.334 68.544 116.81 68.7344 117.286Z" fill="#42D4C6"/>
<path d="M66.5446 110.146C67.1158 109.956 67.4966 109.099 67.3062 108.433C67.1158 107.766 66.5446 107.576 65.6878 107.862C65.2118 108.052 64.7358 108.528 64.7358 109.004C64.6406 109.004 64.6407 109.004 64.5455 109.004C64.0695 109.194 63.7838 109.67 63.879 110.242C63.9742 110.527 63.9742 110.908 63.879 111.289C63.6886 111.86 63.7838 112.431 64.2598 112.812C64.6406 113.098 65.783 112.907 66.1638 112.431C66.4494 112.05 66.8303 111.574 66.4495 111.003C66.2591 110.718 66.0686 110.432 65.8782 110.146C66.1638 110.146 66.3542 110.146 66.5446 110.146Z" fill="#42D4C6"/>
<path d="M71.8763 109.575C72.0667 109.48 72.0667 109.385 72.1619 109.29H72.2571C72.8283 109.099 73.3043 108.433 73.2091 107.862C73.0187 107.195 72.2571 106.719 71.6859 106.814C71.2099 106.91 70.9243 107.671 71.0195 108.433C70.8291 108.623 70.7339 108.909 70.6387 109.099C70.8291 109.67 71.4003 109.766 71.8763 109.575Z" fill="#42D4C6"/>
<path d="M68.7344 101.293C68.6392 101.293 68.3536 101.578 68.4488 101.864C68.544 102.15 69.02 102.054 69.2104 101.959C69.3056 101.959 69.496 101.674 69.4008 101.483C69.2104 101.388 68.9248 101.293 68.7344 101.293Z" fill="#42D4C6"/>
<path d="M79.3968 99.7696C78.7304 100.15 78.064 101.578 78.3496 102.34C78.6352 103.102 79.7776 103.482 80.6344 103.102C81.396 102.721 81.872 101.578 81.4912 100.817C81.1104 99.8648 80.0632 99.3888 79.3968 99.7696Z" fill="#42D4C6"/>
<path d="M67.1158 117.953C67.3062 117.953 67.4966 117.858 67.687 117.572C67.8774 117.191 67.7822 116.715 67.5918 116.43C68.0678 116.049 68.2582 115.287 67.9726 114.716C67.687 113.954 66.6398 113.669 65.6878 114.05C65.0214 114.335 64.7358 115.002 65.0214 115.763C65.1166 115.954 65.2118 116.239 65.4022 116.334C65.0214 116.906 65.307 117.572 65.4022 117.762C65.0214 117.953 64.7358 118.334 64.6406 118.81C65.5926 118.714 66.5446 118.619 67.4966 118.524C67.3062 118.238 67.211 118.048 67.1158 117.953Z" fill="#42D4C6"/>
<path d="M73.3992 116.334C73.78 116.049 73.8752 115.573 73.5896 115.192C73.3992 115.002 73.1136 114.716 72.828 114.716C72.0664 114.716 71.876 115.287 71.876 116.049C72.352 116.43 72.828 116.81 73.3992 116.334Z" fill="#42D4C6"/>
<path d="M74.4461 107.195C74.6365 107.195 75.0173 106.814 74.9221 106.624C74.8269 106.434 74.3509 106.338 74.1605 106.434C73.9701 106.529 73.7797 106.814 73.8749 107.005C73.9701 107.195 74.3509 107.195 74.4461 107.195Z" fill="#42D4C6"/>
<path d="M72.8279 113.669C73.2087 113.478 73.1135 113.193 73.0183 112.812C72.8279 112.336 72.3519 112.241 72.0663 112.526C71.8759 112.717 71.6855 113.098 71.5903 113.288C71.8759 113.764 72.4471 113.859 72.8279 113.669Z" fill="#42D4C6"/>
<path d="M42.1736 82.0624C41.7928 82.1576 41.6024 82.5384 41.6976 82.9192C41.7928 83.3952 42.1736 83.5856 42.5544 83.4904C43.0304 83.3952 43.316 82.824 43.1256 82.4432C42.9352 81.9672 42.5544 81.872 42.1736 82.0624Z" fill="#42D4C6"/>
<path d="M35.4143 69.1151C34.6527 69.0199 33.7959 69.4959 33.6055 70.2575C33.3199 71.2095 33.8911 72.1615 34.8431 72.3519C35.6999 72.5423 36.3663 72.1615 36.5567 71.3999C36.8423 70.5431 36.1759 69.3055 35.4143 69.1151Z" fill="#42D4C6"/>
<path d="M39.1275 66.2592C38.8419 66.3544 38.7467 66.9256 38.8419 67.116C38.9371 67.3064 39.3179 67.4016 39.5083 67.4016C39.6987 67.3064 39.889 66.9256 39.7939 66.7352C39.7939 66.5448 39.4131 66.164 39.1275 66.2592Z" fill="#42D4C6"/>
<path d="M39.3175 87.6791C39.5079 87.6791 39.8887 87.6792 39.9839 87.3935C40.0791 87.0127 39.7935 86.8223 39.6031 86.7271C39.4127 86.6319 38.8415 86.5367 38.7463 87.0127C38.6511 87.4887 39.1271 87.5839 39.3175 87.6791Z" fill="#42D4C6"/>
<path d="M34.2719 59.1192C33.5103 58.9288 32.0823 59.7856 31.8919 60.5472C31.7015 61.3088 32.3679 62.356 33.3199 62.5464C34.1767 62.7368 35.2239 62.0704 35.4143 61.3088C35.6047 60.2616 35.0335 59.2144 34.2719 59.1192Z" fill="#42D4C6"/>
<path d="M37.6992 77.9688C37.604 77.9688 37.5088 78.1592 37.4136 78.2544C37.4136 78.1592 37.3184 78.1592 37.3184 78.1592C36.8424 77.8736 35.7952 78.6352 35.8904 79.016C35.9856 79.3968 36.9376 79.6824 37.4136 79.3968C37.6992 79.7776 38.4608 79.7776 38.7464 79.3016C38.8416 79.016 38.4608 78.54 38.2704 78.1592C38.1752 78.064 38.08 77.8736 37.6992 77.9688Z" fill="#42D4C6"/>
<path d="M54.5495 86.2513C53.7879 86.3465 53.5975 86.6321 53.5023 87.5841C53.0263 87.9649 52.5503 88.3457 52.1695 88.7265C51.7887 89.1073 52.0743 89.7737 52.6455 89.7737C53.3119 89.6785 53.9783 89.8689 54.5495 89.2977C54.5495 89.0121 54.5495 88.7265 54.6447 88.3457C55.4063 87.8697 55.7871 87.2033 55.5967 86.7273C55.3111 86.3465 54.9303 86.1561 54.5495 86.2513Z" fill="#42D4C6"/>
<path d="M26.8466 75.0175C26.1802 75.2079 26.085 76.1599 26.3706 76.6359C26.6562 77.1119 27.513 77.1119 27.8938 76.4455C28.0842 76.1599 27.989 75.5887 27.7986 75.3983C27.7034 75.0175 27.1322 74.9223 26.8466 75.0175Z" fill="#42D4C6"/>
<path d="M28.8456 68.6391C28.3696 68.4487 27.8936 68.6391 27.7032 69.0199C27.608 69.2103 27.608 69.6864 27.7032 69.8768C27.9888 70.3528 28.3696 70.3527 29.3216 69.9719C29.4168 69.5911 29.6072 68.9247 28.8456 68.6391Z" fill="#42D4C6"/>
<path d="M3.23682 78.7305C3.33202 79.1113 3.42722 79.3969 3.61762 79.7777C3.61762 79.3017 3.42722 79.0161 3.23682 78.7305Z" fill="#42D4C6"/>
<path d="M49.2184 92.6295C48.7424 92.4391 48.3616 91.9631 47.8856 92.1535C47.5048 92.2487 47.4096 92.4391 47.3144 92.7247C47.2192 92.9151 47.0288 93.1055 47.0288 93.5815C47.0288 93.9623 47.3144 94.7239 47.7904 95.1047C48.3616 95.3903 48.8376 95.3903 49.3136 95.1047C49.7896 94.8191 49.8848 94.3431 49.8848 93.9623C49.7896 93.4863 49.5992 92.9151 49.2184 92.6295Z" fill="#42D4C6"/>
<path d="M26.5607 72.352C26.0847 72.2568 25.6087 72.5424 25.4183 73.0184C25.3231 73.5896 25.5135 74.0656 25.9895 74.1608C26.4655 74.256 27.0367 74.0656 27.1319 73.5896C27.3223 73.1136 27.0367 72.5424 26.5607 72.352Z" fill="#42D4C6"/>
<path d="M40.1744 84.4423C40.0792 84.4423 39.8888 84.4423 39.7936 84.5375C39.3176 84.7279 39.1272 85.2991 39.3176 85.7751C39.508 86.2511 40.0792 86.5367 40.46 86.4415C40.7456 86.3463 41.1264 85.8703 41.2216 85.4895C41.412 85.3943 41.6024 85.2991 41.6024 85.1087C41.7928 84.4423 41.6976 83.9663 40.936 83.8711C40.5552 83.8711 40.2696 84.1567 40.1744 84.4423Z" fill="#42D4C6"/>
<path d="M49.4086 103.673C49.6942 103.768 50.075 103.863 50.3606 103.863C50.7414 103.768 50.9318 103.387 50.7414 103.006C50.6462 102.626 50.4558 102.34 49.9798 102.435C49.599 102.626 49.3134 103.102 49.4086 103.673Z" fill="#42D4C6"/>
<path d="M51.5032 82.824C50.932 83.0144 50.456 83.6808 50.7416 84.0616C50.932 84.4424 52.4552 84.4424 52.7408 83.9664C53.0264 83.5856 52.0744 82.7288 51.5032 82.824Z" fill="#42D4C6"/>
<path d="M50.1707 85.4896C49.8851 85.5848 49.8851 85.8704 49.9803 85.9656C50.0755 86.156 50.2659 86.4416 50.5515 86.3464C50.8371 86.2512 50.7419 85.7752 50.7419 85.68C50.6467 85.5848 50.4563 85.3944 50.1707 85.4896Z" fill="#42D4C6"/>
<path d="M41.9834 76.1599C41.793 76.1599 41.4122 76.3503 41.2218 76.5407C41.0314 76.9215 41.317 77.3023 41.6026 77.3975C41.8882 77.3975 42.5546 77.3975 42.6498 76.9215C42.8402 76.3503 42.1738 76.1599 41.9834 76.1599Z" fill="#42D4C6"/>
<path d="M43.9822 96.8184C43.7918 97.0088 43.7918 97.2944 43.9822 97.3896C44.0774 97.58 44.5534 97.58 44.7438 97.4848C44.9342 97.3896 44.839 97.0088 44.6486 96.8184C44.4582 96.7232 44.0774 96.628 43.9822 96.8184Z" fill="#42D4C6"/>
<path d="M42.6494 86.3463C41.983 86.6319 41.7926 87.1079 42.0782 87.9647C42.3638 88.6311 42.935 88.8215 43.6966 88.4407C44.2678 88.2503 44.5534 87.7743 44.363 87.2983C44.2678 86.8223 43.1254 86.1559 42.6494 86.3463Z" fill="#42D4C6"/>
<path d="M31.6062 76.4455C31.511 76.8263 32.2726 77.3023 32.939 77.2071C33.6054 77.1119 33.6054 76.1599 33.415 75.7791C33.2246 75.4935 31.7014 76.0647 31.6062 76.4455Z" fill="#42D4C6"/>
<path d="M61.2138 107.195C61.9754 107.005 62.4514 106.053 62.261 105.386C62.0706 104.72 61.0234 104.244 60.2618 104.53C59.6906 104.72 59.405 105.291 59.5954 106.053C59.7858 106.719 60.6426 107.386 61.2138 107.195Z" fill="#42D4C6"/>
<path d="M3.14142 53.0263C2.95102 53.5975 3.61742 54.2639 4.28382 54.3591C5.04542 54.4543 5.61662 54.0735 5.80702 53.3119C5.99742 52.5503 5.61662 51.8839 5.04542 51.7887C4.28382 51.6935 3.33182 52.2647 3.14142 53.0263Z" fill="#42D4C6"/>
<path d="M5.42643 50.6464C5.23603 51.2176 5.71203 52.0744 6.28323 52.36C6.75923 52.5504 7.42563 52.2648 7.52083 51.6936C7.71123 51.1224 7.33043 50.3608 6.66403 50.1704C6.09283 49.98 5.61683 50.1704 5.42643 50.6464Z" fill="#42D4C6"/>
<path d="M58.6434 109.861C58.3578 109.67 57.977 109.67 57.6914 109.861C57.1202 110.242 57.3106 110.718 57.4058 111.384C57.977 111.479 58.5482 111.765 58.929 111.098C58.929 111.003 59.0242 111.003 59.0242 110.908C59.5002 111.194 60.2618 111.289 60.6426 111.098C61.1186 110.908 61.309 110.432 61.0234 109.861C60.7378 109.099 59.9762 108.718 59.405 108.909C59.1194 109.194 58.8338 109.48 58.6434 109.861Z" fill="#42D4C6"/>
<path d="M2.76067 43.792C2.95107 43.792 3.33187 43.5064 3.42707 43.2208C3.52227 42.9352 3.42707 42.5544 3.04627 42.5544C2.95107 42.5544 2.76067 42.5544 2.57027 42.6496C2.47507 42.9352 2.37987 43.2208 2.28467 43.5064C2.37987 43.6016 2.66547 43.792 2.76067 43.792Z" fill="#42D4C6"/>
<path d="M8.09199 35.0336C7.61599 34.9384 7.04479 35.224 6.85439 35.6048C6.75919 35.9856 7.04479 36.5568 7.42559 36.652C7.80639 36.7472 8.47279 36.4616 8.66319 36.0808C8.75839 35.7 8.47279 35.1288 8.09199 35.0336Z" fill="#42D4C6"/>
<path d="M58.8333 93.7721C58.6429 93.8673 58.2621 94.0577 58.3573 94.2481C58.4525 94.5337 58.8333 94.5337 58.9285 94.4385C59.1189 94.3433 59.4045 94.2481 59.3093 93.9625C59.2141 93.6769 58.9285 93.7721 58.8333 93.7721Z" fill="#42D4C6"/>
<path d="M16.7554 41.6025C16.3746 41.8881 16.2794 42.3641 16.565 42.8401C16.7554 43.2209 17.041 43.4113 17.4218 43.3161C18.0882 43.1257 18.1834 42.6497 18.2786 41.9833C17.7074 41.6025 17.3266 41.1265 16.7554 41.6025Z" fill="#42D4C6"/>
<path d="M17.4217 78.4449C16.9457 78.3497 16.2793 78.7305 16.2793 79.2065C16.1841 79.6825 16.6601 80.2537 17.1361 80.3489C17.6121 80.4441 18.1833 80.0633 18.2785 79.6825C18.2785 79.1113 17.9929 78.5401 17.4217 78.4449Z" fill="#42D4C6"/>
<path d="M26.1802 61.2136C25.9898 61.2136 25.7042 61.3088 25.609 61.4992C25.5138 61.6896 25.7994 61.9752 25.8946 62.0704C26.085 62.1656 26.561 62.0704 26.6562 61.88C26.6562 61.5944 26.2754 61.2136 26.1802 61.2136Z" fill="#42D4C6"/>
<path d="M17.0409 69.4959C16.3745 69.4007 15.4225 70.0671 15.2321 70.8287C15.0417 71.3999 15.4225 71.9711 16.1841 72.1615C17.0409 72.3519 17.6121 72.0663 17.8025 71.1143C17.8977 70.3527 17.6121 69.5911 17.0409 69.4959Z" fill="#42D4C6"/>
<path d="M22.4672 60.928C22.1816 60.928 21.896 61.1184 21.6104 61.2136C21.5152 61.7848 21.896 62.2608 22.372 62.356C22.848 62.4512 22.9432 62.1656 23.0384 61.7848C23.1336 61.3088 22.848 60.928 22.4672 60.928Z" fill="#42D4C6"/>
<path d="M16.9456 57.4056C16.4696 57.2152 15.9936 57.4056 15.708 57.9768C15.5176 58.2624 15.4224 58.6432 15.1368 58.8336C14.6608 59.2144 14.3752 59.6904 14.4704 60.2616C14.5656 60.7376 15.708 61.2136 16.184 61.1184C16.66 61.0232 17.2312 60.928 17.2312 60.1664C17.2312 59.5952 17.3264 59.1192 17.3264 58.548C17.7072 58.072 17.4216 57.596 16.9456 57.4056Z" fill="#42D4C6"/>
<path d="M8.2826 40.0792C7.9018 39.984 7.521 40.1744 7.521 40.5552C7.521 40.936 7.6162 41.6976 7.997 41.7928C8.3778 41.888 8.8538 41.2216 8.949 40.936C9.0442 40.5552 8.6634 40.0792 8.2826 40.0792Z" fill="#42D4C6"/>
<path d="M14.9466 56.5488C14.7562 56.4536 14.2802 56.5488 14.185 56.7392C14.0897 56.9296 14.4706 57.3104 14.661 57.3104C14.8514 57.3104 15.137 57.3104 15.2322 57.0248C15.3274 56.9296 15.0418 56.644 14.9466 56.5488Z" fill="#42D4C6"/>
<path d="M11.043 56.9296C10.8526 57.3104 11.1382 57.9768 11.519 57.9768C11.8046 57.9768 12.6614 57.8816 12.7566 57.5008C12.8518 57.0248 12.2806 56.7392 11.995 56.644C11.7094 56.4536 11.2334 56.5488 11.043 56.9296Z" fill="#42D4C6"/>
<path d="M13.3282 31.2256C12.6618 31.1304 12.6618 31.7968 12.4714 31.9872C11.805 32.5584 11.805 33.796 12.3762 34.1768C12.9474 34.5576 13.4234 34.4624 13.9946 34.0816C14.5658 33.7008 14.5658 33.2248 14.3754 32.6536C14.185 32.2728 13.9946 31.2256 13.3282 31.2256Z" fill="#42D4C6"/>
<path d="M29.6073 79.3967C28.9409 79.3967 28.1793 80.1583 27.9889 80.8247C27.8937 81.2055 27.9889 81.5863 28.3697 81.7767C29.3217 82.1575 30.3689 82.3479 31.4161 82.0623C31.6065 81.9671 31.7969 81.8719 31.7969 81.7767C32.5585 81.0151 32.3681 80.0631 31.4161 79.6823C30.9401 79.4919 30.2737 79.3967 29.6073 79.3967Z" fill="#42D4C6"/>
<path d="M36.7472 97.9607C36.0808 98.3415 35.7952 98.8175 35.9856 99.1983C36.176 99.5791 37.128 99.7695 37.5088 99.5791C37.7944 99.3887 37.9848 98.5319 37.7944 98.1511C37.604 97.7703 37.128 97.6751 36.7472 97.9607Z" fill="#42D4C6"/>
<path d="M44.0775 108.718C43.5063 108.433 42.7447 108.909 42.5543 109.48C42.4591 109.766 42.4591 110.146 42.5543 110.432C41.9831 110.622 41.6975 111.194 41.9831 111.67C42.0783 111.955 42.4591 112.146 42.8399 112.241C43.0303 112.336 43.3159 112.431 43.6015 112.336C43.7919 112.241 43.9823 111.955 43.9823 111.67C43.9823 111.574 43.8871 111.384 43.7919 111.289C44.1727 111.289 44.4583 111.098 44.5535 111.003C44.9343 110.622 44.8391 110.242 44.6487 109.766C44.4583 109.385 44.5535 108.909 44.0775 108.718Z" fill="#42D4C6"/>
<path d="M51.6934 111.669C51.5982 111.669 51.5982 111.765 51.503 111.765C51.4078 111.384 51.1222 110.908 50.8366 110.527C50.3606 110.051 49.123 110.051 48.647 110.622C48.2662 111.193 48.3614 112.526 49.2182 112.907C49.8846 113.193 50.3606 113.193 50.8366 113.002C50.8366 113.288 50.8366 113.478 50.9318 113.764C51.1222 114.24 52.0742 114.43 52.6454 114.145C53.407 113.764 53.5974 113.097 53.2166 112.431C52.931 111.765 52.2646 111.384 51.6934 111.669Z" fill="#42D4C6"/>
<path d="M43.8871 91.6775C43.6015 91.1063 42.6495 90.9159 41.8879 91.2015C41.2215 91.4871 41.0311 92.0583 41.4119 92.9151C41.6023 93.3911 42.3639 93.6767 42.8399 93.5815C43.4111 93.2959 44.0775 92.0583 43.8871 91.6775Z" fill="#42D4C6"/>
<path d="M48.0762 114.621C47.981 114.621 47.981 114.906 47.981 114.906C47.981 115.002 48.1714 115.097 48.2666 115.002C48.3618 114.906 48.457 114.811 48.457 114.621C48.3618 114.621 48.1714 114.621 48.0762 114.621Z" fill="#42D4C6"/>
<path d="M37.7944 94.248C37.8896 94.1528 38.08 94.1528 38.08 94.0576L37.9848 93.772C37.8896 93.772 37.6992 93.772 37.604 93.8672C37.604 94.0576 37.6992 94.1528 37.7944 94.248Z" fill="#42D4C6"/>
<path d="M40.841 94.6287C40.5554 94.7239 40.365 94.8191 40.1746 95.0095C39.889 94.5335 39.7938 94.5335 39.3178 94.4383C38.937 94.3431 38.6514 94.5335 38.5562 94.5335C38.6514 94.9143 38.461 95.7711 38.937 95.9615C39.2226 96.0567 39.5082 95.8663 39.6986 95.6759C39.6986 95.8663 39.6986 95.9615 39.6986 96.1519C39.889 96.6279 40.9362 97.0087 41.5074 96.7231C41.8882 96.5327 42.1738 95.4855 41.9834 95.1047C41.8882 94.7239 41.317 94.4383 40.841 94.6287Z" fill="#42D4C6"/>
<path d="M40.0794 88.536C39.6034 88.6312 39.2226 88.536 38.8418 88.3456C38.6514 88.2504 38.1754 88.536 38.0802 88.8216C37.985 89.012 37.985 89.488 38.0802 89.6784C38.1754 89.8688 38.5562 89.964 38.8418 89.8688C39.3178 89.7736 39.7938 89.5832 40.1746 89.488C40.5554 89.3928 40.6506 89.1072 40.4602 88.6312C40.365 88.6312 40.1746 88.536 40.0794 88.536Z" fill="#42D4C6"/>
<path d="M43.8874 113.954C43.6018 114.621 43.697 115.097 44.2682 115.668C44.9346 116.334 45.6962 116.334 46.4578 116.239C46.6482 116.62 46.6482 117.001 46.8386 117.286C46.9338 117.382 47.029 117.477 47.1242 117.572C47.505 117.667 47.8858 117.762 48.2666 117.762C48.457 117.667 48.6474 117.477 48.8378 117.096C49.3138 116.239 48.933 115.478 48.0762 115.192C47.7906 115.097 47.505 115.097 46.9338 115.002C47.1242 114.621 47.2194 114.24 47.4098 114.145C48.0762 113.669 48.1714 113.098 47.7906 112.431C47.6954 112.241 47.6954 112.05 47.6954 111.86C47.6002 111.194 47.3146 110.813 46.8386 110.908C46.2674 111.003 45.9818 111.479 46.2674 112.241C46.2674 112.336 46.3626 112.336 46.3626 112.431C46.4578 112.812 46.3626 113.098 45.8866 113.002C45.6962 113.002 45.601 112.907 45.4106 112.907C44.7442 113.002 44.173 113.383 43.8874 113.954Z" fill="#42D4C6"/>
<path d="M9.32983 85.2991C9.04423 85.7751 9.42503 86.4415 10.0914 86.5367C10.377 86.5367 10.7578 86.0607 10.6626 85.5847C10.5674 85.1087 9.61543 84.8231 9.32983 85.2991Z" fill="#42D4C6"/>
<path d="M21.7056 105.386C21.9912 105.577 22.2768 105.862 22.5624 106.053V105.958C22.372 105.672 21.9912 105.482 21.7056 105.386Z" fill="#42D4C6"/>
<path d="M15.9938 98.056C15.9938 97.6752 15.8034 97.2944 15.4226 97.1992C15.137 97.1992 14.661 97.1992 14.4706 97.3896C14.3754 97.2944 14.185 97.2944 14.0898 97.1992C13.8994 97.1992 13.709 97.104 13.6138 97.104C14.7562 98.532 15.9938 99.8648 17.3266 101.198C17.7074 101.293 18.1834 101.198 18.469 101.007C18.5642 101.483 19.0402 101.864 19.6114 101.959C20.4682 102.15 20.9442 101.769 21.1346 100.817C21.325 100.055 20.9442 99.2936 20.373 99.1984C19.897 99.1032 19.3258 99.3888 18.8498 99.7696C18.6594 99.008 18.0882 98.8176 18.0882 98.6272C18.0882 98.4368 18.5642 97.58 17.8978 97.2944C16.7554 96.9136 16.3746 97.7704 15.9938 98.056Z" fill="#42D4C6"/>
<path d="M0 59.2145C0.1904 59.0241 0.2856 58.7385 0.2856 58.3577C0.2856 57.8817 0.1904 57.3105 0.0952 56.8345C0 57.5961 0 58.4529 0 59.2145Z" fill="#42D4C6"/>
<path d="M29.3218 109.956C29.1314 110.051 28.941 110.146 28.7506 110.337C28.6554 109.67 28.0842 109.004 27.2274 108.718C26.8466 108.623 26.561 108.623 26.2754 108.813C28.2746 110.146 30.369 111.384 32.4634 112.431C32.5586 111.955 32.6538 111.289 32.3682 110.717C31.7018 109.765 29.9882 109.575 29.3218 109.956Z" fill="#42D4C6"/>
<path d="M0.0953258 61.4992C0.571326 61.3088 0.666526 60.8328 0.761726 60.1664C0.476126 60.0712 0.285726 59.8808 0.0953258 59.7856C0.000125784 60.3568 0.000125784 60.928 0.0953258 61.4992Z" fill="#42D4C6"/>
<path d="M8.66329 82.2529C8.18729 82.1577 7.71129 82.4433 7.61609 83.0145C7.52089 83.4905 7.71129 83.9665 8.18729 84.0617C8.66329 84.1569 9.32969 83.6809 9.32969 83.2049C9.42489 82.8241 9.13929 82.3481 8.66329 82.2529Z" fill="#42D4C6"/>
<path d="M3.42729 65.1168C2.85609 65.3072 2.57049 65.5928 2.38009 65.9736C2.28489 65.9736 2.18969 65.8784 2.18969 65.8784C1.42809 65.688 0.952089 65.9736 0.571289 66.5448C0.761689 68.1632 1.04729 69.6864 1.33289 71.3048C1.42809 71.4 1.61849 71.4 1.80889 71.4C2.28489 71.3048 2.57049 70.7336 2.57049 70.0672C3.14169 69.8768 3.71289 69.4008 3.90329 68.8296C3.99849 68.544 3.90329 68.2584 3.80809 67.8776C3.90329 67.8776 3.99849 67.8776 4.09369 67.8776C4.76009 67.8776 5.61689 66.9256 5.52169 66.2592C5.33129 65.688 4.28409 64.8312 3.42729 65.1168Z" fill="#42D4C6"/>
<path d="M17.612 88.7264C16.7552 88.536 15.6128 89.1072 15.5176 89.964C15.3272 90.916 15.8984 91.9632 16.7552 92.1536C16.9456 92.1536 17.0408 92.2488 17.2312 92.2488C17.2312 92.344 17.3264 92.4392 17.3264 92.5344C17.5168 92.82 17.8976 93.3912 18.2784 93.2008C18.6592 93.0104 18.6592 92.2488 18.564 91.9632C18.564 91.868 18.4688 91.7728 18.2784 91.6776C18.3736 91.4872 18.564 91.2016 18.564 90.916C18.9448 89.6784 18.564 88.9168 17.612 88.7264Z" fill="#42D4C6"/>
<path d="M4.18865 61.4993C3.99825 62.1657 4.47425 62.7369 5.33105 62.8321C5.80705 62.9273 6.56865 62.4513 6.66385 61.9753C6.75905 61.4041 6.18785 60.1665 5.71185 60.0713C5.04545 60.0713 4.37905 60.7377 4.18865 61.4993Z" fill="#42D4C6"/>
<path d="M6.66389 56.6439C6.56869 56.6439 6.56869 56.5487 6.47349 56.5487C5.99749 56.4535 5.42629 56.8343 5.33109 57.2151C5.23589 57.6911 5.61669 58.2623 6.09269 58.4527C6.56869 58.5479 6.94949 58.2623 7.04469 57.8815C7.04469 57.8815 7.13989 57.8815 7.13989 57.9767C7.61589 58.0719 8.18709 57.7863 8.37749 57.4055C8.56789 56.9295 8.18709 56.4535 7.71109 56.2631C7.33029 55.9775 6.85429 56.1679 6.66389 56.6439Z" fill="#42D4C6"/>
<path d="M8.75818 48.4568C8.37738 48.3616 7.99658 49.2184 7.99658 49.3136C8.09178 49.6944 8.18698 50.2656 8.66298 50.3608C9.13898 50.456 9.32938 49.98 9.32938 49.7896C9.23418 49.504 9.04378 48.552 8.75818 48.4568Z" fill="#42D4C6"/>
<path d="M3.71263 64.26C3.90303 64.4504 4.28383 64.4504 4.37903 64.3552C4.56943 64.1648 4.85503 63.784 4.85503 63.4984C4.75983 62.9272 4.28383 62.9272 3.80783 62.9272C3.42703 63.4032 3.33183 63.8792 3.71263 64.26Z" fill="#42D4C6"/>
<path d="M9.90075 57.9768C9.51994 57.9768 9.13915 57.9768 9.04395 58.4528C9.04395 58.7384 9.13915 59.5952 9.51995 59.6904C9.90075 59.7856 10.2815 59.024 10.3767 58.7384C10.5671 58.3576 10.3767 58.072 9.90075 57.9768Z" fill="#42D4C6"/>
<path d="M54.1687 104.625C53.1215 103.006 51.7887 103.482 50.8367 104.434C50.4559 104.72 50.2655 105.101 50.2655 105.577C50.1703 106.148 50.3607 106.624 50.7415 107.195C51.1223 107.766 51.0271 108.433 51.6935 108.718C52.4551 109.099 53.8831 109.385 55.0255 108.338C55.6919 107.671 55.8823 107.005 55.7871 106.338C55.5967 105.482 54.6447 105.386 54.1687 104.625Z" fill="#42D4C6"/>
<path d="M3.04637 59.4049C2.76077 59.4049 2.47517 59.6905 2.37997 59.9761C2.37997 60.0713 2.37997 60.3569 2.47517 60.5473C2.37997 60.4521 2.18957 60.4521 2.09437 60.4521C1.61837 60.5473 1.33277 61.6897 1.71357 61.8801C2.09437 62.0705 3.04637 61.6897 2.95117 61.1185C2.95117 61.0233 2.85597 60.9281 2.85597 60.8329C3.14157 60.8329 3.61757 60.2617 3.61757 60.1665C3.52237 59.8809 3.23677 59.3097 3.04637 59.4049Z" fill="#42D4C6"/>
<path d="M56.1679 118.048C55.8823 118.143 55.6919 118.524 55.5967 118.81C56.2631 118.81 56.8343 118.905 57.5007 118.905V118.81C57.3103 118.429 56.4535 117.953 56.1679 118.048Z" fill="#42D4C6"/>
<path d="M17.4218 80.6344C16.4698 80.444 15.8034 80.6344 15.613 81.2056C15.5178 81.2056 15.5178 81.2056 15.4226 81.2056C14.9466 81.396 14.7562 81.7768 14.8514 82.2528C15.0418 82.824 15.8034 83.3 16.1842 83.1096C16.2794 83.1096 16.3746 82.9192 16.4698 82.7288C16.9458 82.824 17.8026 82.1576 17.993 81.5864C18.1834 81.1104 17.8978 80.7296 17.4218 80.6344Z" fill="#42D4C6"/>
<path d="M23.2289 89.6784C22.7529 89.5832 22.1817 90.1544 21.9913 90.8208C21.8961 91.1064 21.8961 91.2968 21.9913 91.4872H21.8961C21.3249 91.6776 20.9441 92.7248 21.1345 93.296C21.3249 93.772 22.2769 94.1528 22.8481 93.8672C23.2289 93.6768 23.6097 93.0104 23.4193 92.6296C23.3241 92.5344 23.3241 92.344 23.2289 92.2488C23.7049 92.1536 24.0857 91.868 24.2761 91.4872C24.5617 90.916 23.9905 89.8688 23.2289 89.6784Z" fill="#42D4C6"/>
<path d="M23.5145 101.007C23.2289 101.007 22.6577 100.817 22.2769 101.198C21.9913 101.578 22.8481 103.006 23.0385 103.102C23.2289 103.197 23.9905 103.292 23.8953 103.863C23.8953 103.958 23.8953 103.958 23.8001 104.054C23.7049 103.673 23.5145 103.387 23.1337 103.387C22.6577 103.292 22.2769 103.673 22.1817 104.149C22.0865 104.625 22.4673 105.196 22.9433 105.196C23.1337 105.196 23.2289 105.196 23.4193 105.101C23.4193 105.196 23.4193 105.291 23.4193 105.386C23.6097 105.958 23.9905 107.195 24.9425 107.29C25.7993 107.386 25.7041 106.624 26.0849 106.243C26.2753 106.053 26.3705 105.862 26.3705 105.672C26.4657 106.338 27.0369 107.1 27.7033 107.29C27.7985 107.29 27.9889 107.386 28.0841 107.386C28.0841 107.481 28.0841 107.671 28.1793 107.766C28.3697 108.052 28.6553 108.433 29.0361 108.528C29.7025 108.623 30.1785 107.957 30.1785 107.481C30.3689 107.766 30.5593 108.052 30.6545 108.433C30.7497 108.623 31.1305 108.909 31.4161 109.004C31.8921 109.099 32.2729 109.29 32.6537 109.385C33.2249 109.575 33.8913 109.29 34.0817 108.814C34.1769 108.528 34.1769 108.338 34.1769 108.052C34.3673 107.195 33.9865 106.529 33.1297 106.338C32.7489 106.243 32.4633 106.338 32.1777 106.434C32.1777 106.338 32.1777 106.338 32.1777 106.243C32.0825 105.767 31.7969 105.482 31.4161 105.482C30.8449 105.386 30.4641 105.767 30.1785 106.148C29.9881 106.434 29.8929 106.624 29.9881 106.91C29.8929 106.814 29.7025 106.719 29.5121 106.719C29.7025 106.434 29.8929 106.148 29.9881 105.767C30.2737 104.91 29.7977 104.149 28.9409 103.863C28.0841 103.578 26.8465 104.149 26.5609 105.101V105.196C26.5609 105.006 26.4657 104.91 26.3705 104.72C25.9897 104.149 25.3233 103.863 25.2281 103.578C25.1329 103.292 25.1329 102.816 25.6089 102.721C25.8945 102.626 26.1801 102.435 26.2753 102.054C26.6561 102.054 27.0369 101.769 27.1321 101.388C27.2273 100.912 26.9417 100.341 26.4657 100.246C26.2753 100.246 26.1801 100.246 25.9897 100.341C25.5137 99.7696 24.5617 99.5792 24.1809 100.055C23.6097 100.531 23.8001 100.912 23.5145 101.007Z" fill="#42D4C6"/>
<path d="M24.5617 96.8183C24.7521 97.1991 25.2281 97.3895 25.7041 97.2943C25.8945 97.1991 26.0849 97.1039 26.1801 96.9135C26.1801 96.9135 26.1801 96.9135 26.1801 97.0087C25.7993 97.9607 26.6561 98.5319 27.1321 98.8175C27.6081 99.1031 28.4649 98.3415 28.5601 97.4847C28.5601 96.9135 28.2745 96.6279 27.8937 96.5327C27.3225 96.3423 26.5609 96.5327 26.3705 96.9135C26.4657 96.7231 26.4657 96.5327 26.3705 96.3423C26.1801 95.8663 25.7041 95.5807 25.2281 95.7711C24.6569 95.8663 24.3713 96.4375 24.5617 96.8183Z" fill="#42D4C6"/>
<path d="M33.4155 80.0633C33.2251 80.2537 33.4155 80.6345 33.5107 80.7297C33.6059 80.8249 33.9867 80.9201 34.1771 80.8249C34.3675 80.7297 34.2723 80.3489 34.1771 80.1585C34.0819 80.1585 33.6059 79.9681 33.4155 80.0633Z" fill="#42D4C6"/>
<path d="M54.0734 96.0567C53.9782 95.3903 53.6926 95.1047 53.0262 95.1047C52.2646 95.1047 51.6934 95.7711 51.6934 96.6279C51.6934 97.4847 52.1694 97.4847 52.1694 98.0559C52.1694 98.5319 52.455 98.7223 52.931 98.9127C53.407 99.1031 54.2638 99.2935 54.4542 98.5319C54.6446 97.7703 54.1686 97.5799 53.9782 97.5799C53.7878 97.5799 53.5022 97.1991 53.6926 97.1039C53.883 97.0087 54.1686 96.7231 54.0734 96.0567Z" fill="#42D4C6"/>
<path d="M33.7008 84.9185C33.7008 85.2993 33.8912 85.6801 34.1768 85.8705C34.4624 86.0609 35.1288 85.6801 35.1288 85.2041C35.1288 84.9185 34.9384 84.6329 34.8432 84.4425C34.1768 84.3473 33.6056 84.5377 33.7008 84.9185Z" fill="#42D4C6"/>
<path d="M22.1818 87.6791C21.9914 87.8695 21.4202 88.2503 21.6106 88.7263C21.8962 89.2023 22.5626 89.1071 22.8482 89.0119C23.229 88.9167 23.229 88.4407 23.1338 88.1551C23.0386 87.6791 22.4674 87.3935 22.1818 87.6791Z" fill="#42D4C6"/>
<path d="M15.2322 66.6399C15.0418 67.2111 15.4226 67.7823 15.8986 67.8775C16.3746 67.9727 16.8506 67.5919 16.9458 67.1159C17.041 66.6399 16.8506 66.1639 16.3746 66.0687C15.8034 65.8783 15.3274 66.1639 15.2322 66.6399Z" fill="#42D4C6"/>
</svg>
