<?xml version="1.0" encoding="UTF-8"?>
<svg width="32px" height="32px" viewBox="0 0 32 32" version="1.1" xmlns="http://www.w3.org/2000/svg" xmlns:xlink="http://www.w3.org/1999/xlink">
    <!-- Generator: Sketch 55.1 (78136) - https://sketchapp.com -->
    <title>icon-lightbulb-32-color</title>
    <desc>Created with Sketch.</desc>
    <g id="icon-lightbulb-32-color" stroke="none" stroke-width="1" fill="none" fill-rule="evenodd">
        <path d="M11.3780391,24.2154815 L12.4131103,29.3920712 C12.6010652,30.3278486 13.4212079,31 14.3747,31 L18.7347,31 C19.6881921,31 20.5083348,30.3278486 20.6961192,29.3929218 L21.5352897,25.1960712 L21.7313609,24.2154815 L19.7701815,23.8233391 L18.7351103,28.9999288 L14.3747,29 L13.5352897,24.8039288 L13.3392185,23.8233391 L11.3780391,24.2154815 Z" id="Stroke-1" fill="#535966" fill-rule="nonzero"></path>
        <path d="M14.4951,26 C12.449383,26 10.7429351,24.4532057 10.5227727,22.4143635 C10.3912737,21.1850604 9.84678397,20.0348231 8.97537756,19.1524608 C7.90633633,18.0693247 7.05862103,16.7929085 6.4814225,15.4109138 C5.87373596,14.0264258 5.5551,12.533985 5.5551,11 C5.5551,4.92471525 10.4798153,0 16.5551,0 C22.6303847,0 27.5551,4.92471525 27.5551,11 C27.5551,12.5330101 27.2359222,14.0253819 26.6348114,15.3944915 C26.0497429,16.7949097 25.2022593,18.0711171 24.1342852,19.1509917 C23.262742,20.0351903 22.7178142,21.1861078 22.5863894,22.4147169 C22.3676556,24.4526757 20.6602218,26 18.6141,26 L14.4951,26 Z M14.4951,24 L18.6141,24 C19.6345332,24 20.4877422,23.2267981 20.5977727,22.2016365 C20.7772233,20.5240626 21.5209801,18.9532074 22.7110857,17.7458225 C23.598837,16.8481773 24.3029251,15.7879062 24.7964225,14.6070862 C25.294394,13.4725611 25.5551,12.2535845 25.5551,11 C25.5551,6.02928475 21.5258153,2 16.5551,2 C11.5843847,2 7.5551,6.02928475 7.5551,11 C7.5551,12.2548106 7.81535823,13.4738193 8.31981137,14.6235085 C8.80555702,15.7861878 9.51024573,16.847247 10.3986102,17.7473242 C11.5882481,18.9519189 12.3318367,20.5227535 12.5113202,22.2006398 C12.6221484,23.2269765 13.4749601,24 14.4951,24 Z" id="Stroke-3" fill="#535966" fill-rule="nonzero"></path>
        <polygon id="Stroke-5" fill="#00BFB3" fill-rule="nonzero" points="1.9999998 2.83205029 4.9999998 4.83205029 6.1094002 3.16794971 3.1094002 1.16794971"></polygon>
        <polygon id="Stroke-7" fill="#00BFB3" fill-rule="nonzero" points="3.1094002 20.8320503 6.1094002 18.8320503 4.9999998 17.1679497 1.9999998 19.1679497"></polygon>
        <polygon id="Stroke-9" fill="#00BFB3" fill-rule="nonzero" points="29.9999998 1.16794971 26.9999998 3.16794971 28.1094002 4.83205029 31.1094002 2.83205029"></polygon>
        <polygon id="Stroke-11" fill="#00BFB3" fill-rule="nonzero" points="31.1094002 19.1679497 28.1094002 17.1679497 26.9999998 18.8320503 29.9999998 20.8320503"></polygon>
        <path d="M19.5547,12 L19.5547,11 C19.5547,10.4482847 20.0029847,10 20.5547,10 C21.1064153,10 21.5547,10.4482847 21.5547,11 C21.5547,11.5517153 21.1064153,12 20.5547,12 L19.5547,12 Z M17.5547,12 L15.5547,12 L15.5547,11 C15.5547,9.34371525 14.2109847,8 12.5547,8 C10.8984153,8 9.5547,9.34371525 9.5547,11 C9.5547,12.6562847 10.8984153,14 12.5547,14 L13.5547,14 L13.5547,20 L15.5547,20 L15.5547,14 L17.5547,14 L17.5547,20 L19.5547,20 L19.5547,14 L20.5547,14 C22.2109847,14 23.5547,12.6562847 23.5547,11 C23.5547,9.34371525 22.2109847,8 20.5547,8 C18.8984153,8 17.5547,9.34371525 17.5547,11 L17.5547,12 Z M13.5547,12 L12.5547,12 C12.0029847,12 11.5547,11.5517153 11.5547,11 C11.5547,10.4482847 12.0029847,10 12.5547,10 C13.1064153,10 13.5547,10.4482847 13.5547,11 L13.5547,12 Z" id="Stroke-13" fill="#00BFB3" fill-rule="nonzero"></path>
    </g>
</svg>