<svg width="145" height="250" viewBox="0 0 145 250" fill="none" xmlns="http://www.w3.org/2000/svg">
<mask id="mask0" mask-type="alpha" maskUnits="userSpaceOnUse" x="0" y="0" width="145" height="250">
<rect width="145" height="250" fill="#C4C4C4"/>
</mask>
<g mask="url(#mask0)">
<path d="M0 230.5L143 318L286 230.5L143 143L0 230.5Z" fill="#FEC514"/>
<path d="M18.1941 128.288L142.719 204.125L267.244 128.288L142.719 52.4504L18.1941 128.288Z" fill="#20377D"/>
<path d="M56.8492 65.9228C56.7089 65.8526 56.779 65.6422 56.8492 65.572C56.9193 65.5019 57.0596 65.5019 57.1298 65.572C57.1999 65.6422 57.2701 65.7825 57.1999 65.8527C57.1298 65.993 56.9895 66.0631 56.8492 65.9228Z" fill="#1BA9F5"/>
<path d="M55.3767 76.3743C55.0961 76.0937 55.0259 75.6026 55.3066 75.2518C55.5872 74.9011 56.0081 74.9011 56.429 75.1817C56.85 75.4623 56.9201 76.0235 56.5694 76.3743C56.3589 76.6549 55.6573 76.6549 55.3767 76.3743Z" fill="#1BA9F5"/>
<path d="M55.2353 61.6423C55.0248 61.5721 54.7442 61.3616 54.7442 61.1512C54.674 60.6601 55.3054 60.3795 55.586 60.4496C55.8667 60.5198 56.1473 61.081 55.8667 61.502C55.7264 61.5721 55.3756 61.6423 55.2353 61.6423Z" fill="#1BA9F5"/>
<path d="M54.1139 69.5001C53.6228 69.0792 53.4124 68.4478 53.7632 68.097C54.1841 67.606 55.0961 67.4656 55.6573 67.8866C56.0081 68.1672 56.0081 68.9389 55.6573 69.3598C55.1662 69.8509 54.605 69.9211 54.1139 69.5001Z" fill="#1BA9F5"/>
<path d="M59.7248 61.5037C59.374 61.223 59.3039 60.732 59.5845 60.311C59.8651 59.9603 60.3562 59.8901 60.7771 60.1707C61.0577 60.3812 61.1279 60.9424 60.9174 61.2932C60.5666 61.7141 60.0756 61.7843 59.7248 61.5037Z" fill="#1BA9F5"/>
<path d="M64.8462 66.9055C64.7059 66.7652 64.3551 66.3443 64.4954 66.1338C64.6357 65.9234 65.1969 65.9935 65.4074 66.0637C65.688 66.204 65.8283 66.7652 65.5477 66.9055C65.3373 67.0459 64.9865 67.0459 64.8462 66.9055Z" fill="#1BA9F5"/>
<path d="M65.3382 72.3764C64.9173 72.8675 64.356 72.9377 63.7948 72.5167C63.3037 72.0958 63.0932 71.3241 63.3739 70.9733C63.6545 70.5524 64.7068 70.4822 65.0576 70.7629C65.689 71.2539 65.7591 71.8152 65.3382 72.3764Z" fill="#1BA9F5"/>
<path d="M42.046 85.1438C41.9759 85.4946 41.555 85.7752 41.134 85.6349C40.7833 85.4946 40.5728 85.0736 40.6429 84.7228C40.7131 84.3019 41.2042 84.0915 41.4848 84.2318C41.9057 84.3721 42.1162 84.7229 42.046 85.1438Z" fill="#1BA9F5"/>
<path d="M62.1804 69.4295C61.8296 70.2713 60.9877 70.4116 60.4265 69.7802C60.0757 69.3593 59.7951 68.8682 59.5846 68.3771C59.3741 67.8159 59.7249 66.974 60.216 66.6934C60.4966 66.483 61.3385 66.3427 61.5489 67.0442C61.2683 68.2368 62.1803 68.0965 62.2505 69.0085C62.2505 69.219 62.1804 69.3593 62.1804 69.4295Z" fill="#1BA9F5"/>
<path d="M41.9766 80.6548C41.8363 80.5846 41.9065 80.304 41.9766 80.1637C41.9766 80.0935 42.3274 79.8831 42.4677 80.0234C42.6782 80.1637 42.4677 80.5145 42.3975 80.6548C42.3975 80.6548 42.1169 80.7249 41.9766 80.6548Z" fill="#1BA9F5"/>
<path d="M47.7294 72.7989C47.5891 72.7287 47.3786 72.3779 47.5189 72.2376C47.6592 72.0973 48.01 72.1675 48.1503 72.2376C48.2205 72.3078 48.3608 72.5182 48.2205 72.6586C48.0802 72.7989 47.8697 72.869 47.7294 72.7989Z" fill="#1BA9F5"/>
<path d="M43.9414 78.4811C43.5906 77.99 44.1519 77.3586 44.643 77.3586C45.134 77.3586 44.9236 77.2885 45.134 76.8676C45.3445 76.4466 45.9057 75.9555 46.5371 76.5869C47.1685 77.1482 46.8879 78.1303 46.467 78.6916C45.9759 79.1827 44.4325 79.1827 43.9414 78.4811Z" fill="#1BA9F5"/>
<path d="M47.7292 80.6564C47.8695 80.7266 48.0098 80.9371 48.0098 81.0774C48.0098 81.2177 47.7993 81.4983 47.5187 81.4282C47.2381 81.358 47.3082 81.0072 47.3784 80.7968C47.3784 80.7266 47.659 80.5863 47.7292 80.6564Z" fill="#1BA9F5"/>
<path d="M66.11 58.1361C65.689 57.8555 65.6189 57.2942 65.8995 56.9435C66.11 56.6628 66.7414 56.5927 67.022 56.8032C67.3026 57.0838 67.3728 57.645 67.1623 57.9256C66.8817 58.2764 66.4607 58.3466 66.11 58.1361Z" fill="#1BA9F5"/>
<path d="M51.7991 75.9552C51.5185 75.6746 51.7289 75.1835 51.7991 74.9731C51.9394 74.6924 52.22 74.482 52.5708 74.6924C52.9216 74.9029 53.132 75.394 52.8514 75.6044C52.6409 75.8149 52.1499 76.1657 51.7991 75.9552Z" fill="#1BA9F5"/>
<path d="M52.218 78.6915C52.4284 79.0423 51.9373 79.9543 51.5164 80.1648C51.0955 80.3752 50.7447 80.5857 50.3238 80.0946C50.0432 79.7439 49.6924 79.4632 49.4118 79.1125C48.9207 78.902 48.8505 78.4811 49.061 78.1303C49.2715 77.7094 49.6924 77.6392 50.1835 77.8497C50.4641 77.9198 50.7447 78.0601 51.0253 78.0601C51.5164 78.0601 51.9373 78.2004 52.218 78.6915Z" fill="#1BA9F5"/>
<path d="M49.9738 69.0089C49.7633 68.7984 49.4126 68.0969 49.5529 67.8864C49.6932 67.6058 50.4649 67.8864 50.5351 68.0267C50.6754 68.3074 50.8858 68.7283 50.6754 69.0791C50.4649 69.3597 50.044 69.1492 49.9738 69.0089Z" fill="#1BA9F5"/>
<path d="M48.2198 84.232C48.1496 84.232 48.1496 84.232 48.2198 84.232C47.9392 84.5126 47.7287 84.4424 47.4481 84.232C47.0973 84.0215 47.0973 83.6006 47.378 83.3901C47.5884 83.2498 47.869 83.1797 48.0795 83.1095C48.1497 83.1797 48.2198 83.2498 48.29 83.3901C48.3601 83.32 48.4303 83.32 48.5706 83.3901C48.8512 83.4603 48.9915 83.7409 48.8512 84.0215C48.7109 84.3021 48.4303 84.3723 48.2198 84.232Z" fill="#1BA9F5"/>
<path d="M61.1996 77.0055C61.2698 76.5144 61.5504 76.0233 62.0415 75.8129C62.5326 75.6726 62.8834 75.6726 63.2341 75.8129L61.1996 77.0055Z" fill="#1BA9F5"/>
<path d="M81.9651 52.6643C82.0352 53.0151 81.8248 53.5062 81.474 53.5763C81.1232 53.7166 80.562 53.436 80.4217 53.0852C80.2814 52.7345 80.562 52.3135 80.9127 52.1732C81.3337 52.1031 81.8248 52.3135 81.9651 52.6643Z" fill="#1BA9F5"/>
<path d="M66.5302 62.416C66.1093 62.2056 66.0391 61.8548 66.3198 61.4339C66.6004 61.0129 67.0213 60.9428 67.3721 61.1533C67.7229 61.3637 67.793 61.8548 67.6527 62.1354C67.4422 62.5564 66.9512 62.6265 66.5302 62.416Z" fill="#1BA9F5"/>
<path d="M81.1927 56.1015C81.0524 56.0314 81.1225 55.8209 81.1927 55.7507C81.2628 55.6806 81.4032 55.6806 81.4733 55.7507C81.5435 55.8209 81.6136 55.9612 81.5434 56.0314C81.4733 56.1015 81.333 56.2418 81.1927 56.1015Z" fill="#1BA9F5"/>
<path d="M81.4041 56.9438C81.4041 57.0841 81.4041 57.2244 81.334 57.4349C81.7549 57.7155 81.825 58.1364 81.6146 58.3469C81.3339 58.6275 80.5622 58.7678 80.2816 58.5573C80.001 58.3469 79.9308 57.7856 80.2115 57.4349C80.2115 57.4349 80.2816 57.4349 80.2816 57.3647C80.2115 57.2945 80.2115 57.2244 80.2115 57.2244C80.0712 56.9438 80.4219 56.5228 80.7727 56.5228C81.0533 56.4527 81.4041 56.5228 81.4041 56.9438Z" fill="#1BA9F5"/>
<path d="M82.1753 39.9642C81.8947 40.1045 81.7544 39.6836 81.6842 39.5433C81.6141 39.4731 81.8245 39.1925 81.8947 39.1925C82.035 39.1925 82.3156 39.2627 82.3858 39.403C82.3858 39.4731 82.4559 39.8239 82.1753 39.9642Z" fill="#1BA9F5"/>
<path d="M85.3319 48.0326C84.6303 48.2431 83.7884 47.8923 83.7183 47.331C83.6481 46.9101 84.0691 46.2787 84.6303 46.1384C85.1214 45.9981 85.6826 46.419 85.8229 46.9803C85.9633 47.5415 85.823 47.8923 85.3319 48.0326Z" fill="#1BA9F5"/>
<path d="M84.3502 41.7887C84.0696 41.7887 83.9293 41.5081 83.8591 41.4379C83.8591 41.2976 83.8591 41.017 84.1397 40.9468C84.4203 40.8767 84.7009 41.017 84.7009 41.2976C84.8413 41.5782 84.6308 41.7887 84.3502 41.7887Z" fill="#1BA9F5"/>
<path d="M83.7185 55.399C83.5782 55.4692 83.3677 55.6095 83.2274 55.5393C83.0871 55.4692 82.9468 55.0483 83.017 54.9781C83.0871 54.8378 83.508 54.9079 83.6483 54.9781C83.7185 55.0483 83.7185 55.399 83.7185 55.399Z" fill="#1BA9F5"/>
<path d="M83.0874 59.2562C83.0172 59.3965 82.6665 59.607 82.5262 59.5369C82.3859 59.3965 82.456 59.0458 82.5262 58.9756C82.6665 58.8353 82.8769 58.6248 83.0172 58.7651C83.0874 58.8353 83.1576 59.1159 83.0874 59.2562Z" fill="#1BA9F5"/>
<path d="M79.4386 47.0502C79.0879 47.1905 78.6669 46.9099 78.5266 46.5591C78.3863 46.2084 78.5968 45.7173 78.9476 45.6471C79.3685 45.577 79.7193 45.7173 79.8596 46.1382C80.07 46.489 79.8596 46.9801 79.4386 47.0502Z" fill="#1BA9F5"/>
<path d="M70.8104 62.6945C71.3015 63.0452 71.4418 63.7468 71.1612 64.0274C70.7402 64.5185 69.8282 64.5886 69.267 64.2379C68.9162 64.0274 68.9162 63.3258 69.267 62.9049C69.7581 62.4138 70.3193 62.3437 70.8104 62.6945Z" fill="#1BA9F5"/>
<path d="M86.245 52.5906C85.9644 52.5906 85.333 52.0294 85.4733 51.398C85.5434 51.0472 85.8241 50.7666 86.3151 50.7666C86.7361 50.7666 87.0868 50.9771 87.157 51.398C87.157 52.0294 86.4554 52.5906 86.245 52.5906Z" fill="#1BA9F5"/>
<path d="M66.8109 67.2574C66.39 66.9066 66.2497 66.4857 66.4601 66.0648C66.7407 65.6438 67.7931 65.4334 68.1439 65.6438C68.6349 65.9946 68.7051 66.626 68.2842 67.1873C67.9334 67.6783 67.4423 67.6783 66.8109 67.2574Z" fill="#1BA9F5"/>
<path d="M70.2495 54.4872C70.039 54.417 69.6181 53.5752 69.8286 53.2244C70.039 52.8736 70.951 53.2244 71.2317 53.4348C71.4421 53.5752 71.5824 54.1364 71.372 54.417C71.2316 54.7678 70.6003 54.6275 70.2495 54.4872Z" fill="#1BA9F5"/>
<path d="M72.0738 67.6765C71.6529 67.3959 71.5828 66.4137 71.9335 65.9928C72.2142 65.642 73.056 65.5719 73.4769 65.8525C73.8277 66.0629 73.968 66.7645 73.7576 67.0451C73.2665 67.6765 72.4948 67.9571 72.0738 67.6765Z" fill="#1BA9F5"/>
<path d="M80.2112 62.6971C80.3515 63.2583 79.7903 63.9599 79.1589 64.03C78.8081 64.1002 78.4573 64.03 78.2469 63.7494C77.9662 63.8195 77.6856 63.7494 77.5453 63.6091C77.1244 63.1882 76.9841 62.5568 77.2647 62.206C77.4752 61.9254 78.0364 61.7149 78.4573 61.7149C78.5976 61.6447 78.6678 61.6447 78.8081 61.5746C79.4395 61.5044 80.0007 61.9254 80.2112 62.6971Z" fill="#1BA9F5"/>
<path d="M72.9846 59.1884C72.7039 59.3287 72.4935 59.3988 72.2128 59.2585C71.9322 59.0481 71.9322 58.2764 72.1427 58.1361C72.1427 58.1361 72.2129 58.1361 72.283 58.1361C72.7039 57.8554 73.0547 57.5047 73.5458 57.9256C73.8264 58.2062 73.8966 58.557 73.7563 58.9779C73.5458 59.1182 73.3353 59.2585 72.9846 59.1884Z" fill="#1BA9F5"/>
<path d="M77.2635 51.471C76.7724 51.7516 76.3515 51.6814 75.9306 51.4008C75.5096 51.1202 75.4395 50.6291 75.6499 50.2082C75.7903 49.8574 75.9306 49.0155 76.4918 48.9454C77.0531 48.8752 77.0531 49.4365 77.2635 49.5768C77.7546 50.138 77.7546 51.1202 77.2635 51.471Z" fill="#1BA9F5"/>
<path d="M73.4058 61.0845C73.8268 61.3652 73.8969 61.8562 73.6163 62.2772C73.3357 62.5578 72.7744 62.6981 72.4938 62.4175C72.143 62.1369 72.0729 61.5756 72.3535 61.2248C72.7043 60.9442 73.1252 60.8741 73.4058 61.0845Z" fill="#1BA9F5"/>
<path d="M69.2673 69.4308C68.9867 69.7114 68.4956 69.7114 68.1448 69.4308C67.7941 69.1501 67.794 68.7994 68.0747 68.4486C68.3553 68.168 68.8464 68.0978 69.1972 68.3083C69.5479 68.5188 69.5479 69.1501 69.2673 69.4308Z" fill="#1BA9F5"/>
<path d="M93.3296 56.5215C93.3998 56.9424 93.2595 57.1529 92.9087 57.3634C92.4878 57.5037 92.137 57.4335 91.8564 57.1529C91.5056 56.6618 91.7862 56.0304 92.137 55.82C92.4878 55.6095 93.1893 55.8901 93.3296 56.5215Z" fill="#1BA9F5"/>
<path d="M93.891 55.7515C93.7507 55.962 93.1895 55.8918 93.1193 55.8217C92.979 55.6814 92.7685 55.3306 92.8387 55.1903C92.9089 55.05 93.3298 54.9798 93.5403 55.05C93.6806 55.05 93.9612 55.5411 93.891 55.7515Z" fill="#1BA9F5"/>
<path d="M89.0504 55.6098C89.4012 55.8904 89.5415 56.3113 89.2609 56.6621C89.0504 56.9427 88.5593 57.0831 88.2787 56.8726C87.9279 56.6621 87.8578 56.171 88.1384 55.7501C88.3489 55.3993 88.6996 55.3292 89.0504 55.6098Z" fill="#1BA9F5"/>
<path d="M94.8724 44.8059C95.153 44.8059 95.7844 44.6656 95.9247 45.0865C96.065 45.5776 95.4336 45.7881 95.2231 45.9985C94.9425 46.209 94.5917 45.9284 94.4514 45.5776C94.3111 45.1567 94.4514 44.8059 94.8724 44.8059Z" fill="#1BA9F5"/>
<path d="M89.261 58.3472C89.4715 59.1189 89.261 59.5399 88.6998 59.6802C88.1385 59.8205 87.2967 59.3996 87.2265 58.9085C87.0862 58.4174 87.5773 57.5755 88.1385 57.4352C88.5595 57.2949 89.1207 57.786 89.261 58.3472Z" fill="#1BA9F5"/>
<path d="M83.9994 63.1162C83.7889 62.4146 84.2099 61.5728 84.9114 61.3623C85.4727 61.222 86.0339 61.2922 86.4548 61.6429L83.9994 63.1162Z" fill="#1BA9F5"/>
<path d="M93.6107 52.0306C93.0495 52.1709 92.5584 51.9604 92.4181 51.5395C92.3479 51.1185 92.839 50.0662 93.1898 49.9961C93.751 49.8558 94.3824 50.2065 94.5227 50.9081C94.663 51.4693 94.3123 51.8201 93.6107 52.0306Z" fill="#1BA9F5"/>
<path d="M84.9114 59.1875C84.7711 58.9068 84.9114 58.6262 85.2622 58.6262C85.5428 58.6262 86.1742 58.6964 86.2443 58.977C86.3145 59.2576 85.6831 59.6084 85.4726 59.6785C85.2622 59.6785 84.9816 59.3278 84.9114 59.1875Z" fill="#1BA9F5"/>
<path d="M87.2264 60.8009C87.4369 60.5202 87.6474 60.5202 87.928 60.7307L87.016 61.292C87.016 61.1516 87.0861 60.9412 87.2264 60.8009Z" fill="#1BA9F5"/>
<path d="M77.0538 53.7146C77.1239 53.7848 77.1941 54.0654 77.1941 54.2057C77.1239 54.346 76.7731 54.6266 76.6328 54.4162C76.4925 54.2758 76.4925 53.9251 76.6328 53.7848C76.6328 53.7146 76.9135 53.6445 77.0538 53.7146Z" fill="#1BA9F5"/>
<path d="M100.906 47.8223C101.257 47.7521 101.959 48.0328 102.029 48.3134C102.099 48.6642 101.748 49.2956 101.397 49.3657C100.906 49.506 100.485 49.2956 100.345 48.8045C100.275 48.3835 100.556 47.8925 100.906 47.8223Z" fill="#1BA9F5"/>
<path d="M101.539 43.3322C102.24 43.1218 102.872 43.6129 103.082 44.3144C103.363 45.2966 103.012 45.928 102.03 46.2086C101.258 46.4191 100.416 45.8578 100.206 45.016C100.066 44.4547 100.767 43.5427 101.539 43.3322Z" fill="#1BA9F5"/>
<path d="M41.4155 89.0734L39.0303 90.5467C38.469 90.0556 38.2586 89.1436 38.6795 88.5823C39.1004 88.0912 40.4334 87.8808 40.9946 88.2316C41.2051 88.442 41.3454 88.7226 41.4155 89.0734Z" fill="#1BA9F5"/>
<path d="M103.502 47.5436C103.292 46.9122 103.853 46.0703 104.555 45.93C105.256 45.7897 106.239 46.2808 106.379 46.9122C106.589 47.6839 106.168 48.5257 105.537 48.666C104.906 48.8063 103.643 48.1048 103.502 47.5436Z" fill="#1BA9F5"/>
<path d="M108.413 45.8606C108.343 45.8606 108.202 45.5799 108.273 45.4396C108.343 45.2993 108.623 45.2993 108.764 45.2993C108.834 45.2993 109.114 45.5799 109.044 45.7904C108.904 46.0009 108.553 45.9307 108.413 45.8606Z" fill="#1BA9F5"/>
<path d="M115.569 42.4902C115.218 42.3499 115.078 41.8588 115.288 41.6483C115.499 41.508 115.849 41.0169 116.2 41.2975C116.551 41.5782 116.411 42.0692 116.341 42.3499C116.2 42.7006 115.849 42.6305 115.569 42.4902Z" fill="#1BA9F5"/>
<path d="M131.635 33.652C131.775 33.7222 131.916 33.7923 131.986 33.9326L130.092 35.1253C130.022 34.8446 130.022 34.4237 130.162 34.1431C130.442 33.4415 131.004 33.3012 131.635 33.652Z" fill="#1BA9F5"/>
<path d="M127.215 36.7369C127.286 36.7369 127.286 36.7369 127.356 36.7369L126.865 37.0175C126.794 36.807 127.145 36.6667 127.215 36.7369Z" fill="#1BA9F5"/>
<path d="M137.948 29.7921C138.089 29.6518 138.299 29.4413 138.369 29.301C138.65 28.5293 139.141 28.2487 139.913 28.5995C139.913 28.4591 139.913 28.389 139.983 28.3188C140.193 28.0382 140.684 27.9681 141.105 28.1785C141.175 28.1785 141.246 28.2487 141.316 28.3188L137.106 30.8444C137.247 30.4235 137.597 30.0727 137.948 29.7921Z" fill="#1BA9F5"/>
<path d="M82.6662 63.3955C82.7364 63.4657 82.8767 63.606 82.8767 63.8165L81.9647 64.3777C81.7542 64.1672 81.7542 63.8165 81.9647 63.6761C82.1751 63.5358 82.3856 63.3254 82.6662 63.3955Z" fill="#1BA9F5"/>
<path d="M29.6292 91.8102C29.3486 91.9505 29.068 91.9505 28.7874 91.6699C28.3665 91.2489 28.5769 90.828 28.8575 90.3369C29.3486 90.4071 29.9099 90.2668 30.0502 90.8982C30.1905 91.2489 30.0502 91.5997 29.6292 91.8102Z" fill="#1BA9F5"/>
<path d="M33.0664 91.8098C32.7858 91.7396 32.7858 91.3889 32.856 91.3187C32.9261 91.1784 33.1366 91.1082 33.2769 91.0381C33.347 91.0381 33.5575 91.3187 33.4873 91.3889C33.4172 91.5292 33.2769 91.8098 33.0664 91.8098Z" fill="#1BA9F5"/>
<path d="M76.493 56.8033C76.2825 56.9436 76.0721 56.5928 76.0019 56.5227C76.0019 56.3823 76.0721 56.1719 76.2124 56.0316C76.2825 55.9614 76.5631 56.1017 76.6333 56.1719C76.6333 56.3823 76.7035 56.663 76.493 56.8033Z" fill="#1BA9F5"/>
<path d="M78.1066 65.8518C78.3873 65.9921 78.5977 66.1324 78.738 66.2727L77.5454 66.9743L77.4753 66.9041C77.2648 66.413 77.7559 66.2026 78.1066 65.8518Z" fill="#1BA9F5"/>
<path d="M37.767 86.4083C37.9073 87.1098 37.3461 87.9517 36.7147 87.8815C36.1534 87.8815 35.8027 87.5307 35.6624 87.0397C35.4519 86.5486 35.7325 86.1276 36.0833 85.9172C36.4341 85.7067 36.9953 85.1455 37.4864 85.4261C38.0476 85.7067 37.767 86.1277 37.767 86.4083Z" fill="#1BA9F5"/>
<path d="M45.1339 86.2664C44.9936 86.1261 45.0637 85.7051 45.1339 85.635C45.204 85.4947 45.4847 85.4245 45.625 85.4947C45.7653 85.5648 45.7653 85.9156 45.6951 85.9858C45.625 86.1261 45.2742 86.3365 45.1339 86.2664Z" fill="#1BA9F5"/>
<path d="M60.1458 72.9382C60.0055 72.6576 60.0757 72.1665 60.3563 72.0262C60.7071 71.8157 61.4788 72.4471 61.4086 72.7277C61.2683 73.0785 60.3563 73.289 60.1458 72.9382Z" fill="#1BA9F5"/>
<path d="M60.9177 75.954C60.6371 75.954 60.2863 75.8137 60.146 75.6734C59.8654 75.2524 60.2161 74.9718 60.4968 74.7614C60.9878 74.7614 61.3386 74.9718 61.2685 75.5331C61.3386 75.6734 61.058 75.954 60.9177 75.954Z" fill="#1BA9F5"/>
<path d="M69.6874 67.7477C69.6173 67.5373 69.968 67.3268 70.1083 67.3268C70.1785 67.3268 70.4591 67.3969 70.5293 67.5372C70.5994 67.6776 70.389 67.888 70.2487 67.9582C70.1084 68.0283 69.7576 67.9582 69.6874 67.7477Z" fill="#1BA9F5"/>
<path d="M38.5389 90.8272C38.609 90.757 38.7493 90.6869 38.8896 90.6167L38.5389 90.8272Z" fill="#1BA9F5"/>
<path d="M54.4641 73.4315C54.1133 73.2211 54.0432 72.73 54.3238 72.3792C54.6044 71.9583 55.0253 71.8881 55.3761 72.1687C55.7269 72.4494 55.8672 72.8703 55.5866 73.2211C55.3761 73.5017 54.8149 73.642 54.4641 73.4315Z" fill="#1BA9F5"/>
<path d="M72.3542 70.273L70.7407 71.2551C70.7407 71.0447 70.8108 70.9043 70.9511 70.6939C71.2318 70.2729 71.8632 70.1326 72.3542 70.273Z" fill="#1BA9F5"/>
<path d="M64.3557 75.1125L63.1631 75.8141C63.1631 75.7439 63.2332 75.6738 63.3034 75.6738C63.584 75.1827 64.0049 75.0424 64.3557 75.1125Z" fill="#1BA9F5"/>
<path d="M55.9375 80.2344L54.3941 81.2166C54.3941 80.7956 54.6046 80.3747 54.9553 80.2344C55.3061 80.0239 55.6569 80.0941 55.9375 80.2344Z" fill="#1BA9F5"/>
<path d="M138.228 15.9022C137.597 15.5514 137.246 14.5692 137.527 13.9378C137.877 13.1661 138.789 12.8154 139.421 13.096C139.982 13.4468 140.473 14.7096 140.193 15.2708C139.912 15.9723 138.93 16.253 138.228 15.9022Z" fill="#1BA9F5"/>
<path d="M135.353 28.8117C134.932 28.952 134.301 28.4609 134.441 27.8295C134.511 27.5489 134.862 27.2682 135.072 27.1981C135.283 27.1279 135.704 27.3384 135.844 27.5489C136.195 28.0399 135.774 28.7415 135.353 28.8117Z" fill="#1BA9F5"/>
<path d="M137.458 26.0043C137.809 26.1446 138.019 26.6357 137.809 27.0566C137.598 27.4776 137.177 27.688 136.826 27.5477C136.406 27.4074 136.195 26.9163 136.406 26.4954C136.546 26.0745 137.107 25.7938 137.458 26.0043Z" fill="#1BA9F5"/>
<path d="M131.985 21.5849C131.353 21.2341 131.073 20.6027 131.353 20.0415C131.704 19.2698 132.827 18.7787 133.388 19.1295C133.949 19.4802 134.23 20.1818 133.949 20.8132C133.598 21.655 132.686 21.9357 131.985 21.5849Z" fill="#1BA9F5"/>
<path d="M137.879 22.2859C138.3 22.4262 138.51 22.777 138.44 23.1979C138.37 23.4084 138.159 23.689 137.949 23.7592C137.528 23.9696 137.247 23.7592 136.826 22.9875C137.107 22.6367 137.247 22.0755 137.879 22.2859Z" fill="#1BA9F5"/>
<path d="M143.351 19.4804C143.21 19.4103 142.93 19.1297 143 18.9894C143.07 18.8491 143.491 18.7789 143.631 18.8491C143.772 18.9192 143.912 19.1297 143.842 19.3401C143.772 19.4804 143.491 19.5506 143.351 19.4804Z" fill="#1BA9F5"/>
<path d="M144.614 25.0212C144.333 24.8108 144.403 24.6003 144.473 24.3197C144.614 23.9689 145.035 23.8286 145.315 24.0391C145.526 24.2495 145.596 24.5302 145.666 24.6705C145.456 25.0914 144.964 25.2317 144.614 25.0212Z" fill="#1BA9F5"/>
<path d="M132.125 15.9725C131.985 16.0426 131.634 15.9023 131.564 15.762C131.494 15.6217 131.564 15.2709 131.705 15.2008C131.775 15.1306 132.266 15.0605 132.406 15.2709C132.546 15.4112 132.266 15.9023 132.125 15.9725Z" fill="#1BA9F5"/>
<path d="M140.264 25.4441C139.702 25.2336 139.492 24.6022 139.773 23.9708C139.983 23.4798 140.544 23.3395 141.176 23.6201C141.667 23.8305 141.877 24.2515 141.667 24.6724C141.456 25.0933 140.614 25.5844 140.264 25.4441Z" fill="#1BA9F5"/>
<path d="M99.4334 41.0886C98.6617 41.299 97.89 40.808 97.7497 39.9661C97.6094 39.3347 98.1005 38.6332 98.7319 38.4928C99.3633 38.3525 100.135 38.9138 100.275 39.8258C100.486 40.4572 100.135 40.9483 99.4334 41.0886Z" fill="#1BA9F5"/>
<path d="M109.536 38.9828C109.676 39.4739 109.396 39.965 108.764 40.1053C108.203 40.3158 107.291 40.0351 107.151 39.5441C106.94 38.9127 107.361 38.141 107.922 37.9305C108.554 37.7902 109.325 38.2813 109.536 38.9828Z" fill="#1BA9F5"/>
<path d="M110.588 46.9112C109.957 46.4903 109.185 45.7186 109.466 44.4558C109.606 43.6841 110.027 43.193 110.518 42.9825C111.15 42.7019 111.711 43.3333 112.342 43.3333C113.535 43.2632 114.026 43.9647 114.096 44.7364C114.166 44.6663 114.307 44.6663 114.377 44.5961L110.588 46.9112Z" fill="#1BA9F5"/>
<path d="M107.362 44.4544C107.292 44.6649 107.011 44.6649 106.871 44.6649C106.73 44.5947 106.45 44.3141 106.52 44.1738C106.59 44.0335 107.011 43.9633 107.151 44.0335C107.292 44.0335 107.502 44.244 107.362 44.4544Z" fill="#1BA9F5"/>
<path d="M104.134 38.0728C103.643 38.2832 102.731 37.7922 102.59 37.3011C102.45 36.81 102.871 36.1084 103.432 35.898C103.993 35.6875 104.414 35.9681 104.625 36.7398C104.765 37.2309 104.484 38.0026 104.134 38.0728Z" fill="#1BA9F5"/>
<path d="M112.553 32.2485C112.272 32.1082 112.202 31.6171 112.342 31.3364C112.553 30.9857 113.254 30.9155 113.465 31.4768C113.605 32.1082 112.903 32.3888 112.553 32.2485Z" fill="#1BA9F5"/>
<path d="M111.921 36.9481C111.781 37.0884 111.43 37.1586 111.22 37.0884C110.378 36.9481 109.957 36.3167 110.027 35.4749C110.027 35.3346 110.027 35.1241 110.097 34.9838C109.746 34.9838 109.466 34.9838 109.185 34.9136C108.624 34.8435 108.413 34.5629 108.413 34.0016C108.413 33.4404 108.694 33.0896 109.185 32.8791C109.676 32.6687 110.097 32.8791 110.378 33.2299C110.588 33.4404 110.729 33.7911 110.939 34.1419C111.079 34.1419 111.29 34.1419 111.43 34.2121C112.061 34.3524 112.623 34.8435 112.693 35.4047C112.693 35.966 112.412 36.5272 111.921 36.9481Z" fill="#1BA9F5"/>
<path d="M112.763 42.0698C112.342 41.9294 112.131 41.298 112.272 40.9473C112.412 40.5965 113.113 40.4562 113.745 40.7368C113.815 40.8771 113.955 41.1577 113.885 41.3682C113.745 41.9294 113.184 42.2101 112.763 42.0698Z" fill="#1BA9F5"/>
<path d="M101.539 33.4405C101.188 33.5808 100.627 33.3002 100.557 32.9494C100.417 32.4583 100.697 31.7568 101.048 31.6165C101.539 31.4761 102.311 31.7568 102.451 32.1777C102.662 32.6688 102.241 33.23 101.539 33.4405Z" fill="#1BA9F5"/>
<path d="M110.588 40.6684C111.149 40.7385 111.29 41.2296 111.29 41.7909C110.939 42.0715 110.588 42.3521 110.097 42.0715C109.746 41.861 109.606 41.4401 109.886 41.0893C110.027 40.8087 110.378 40.5982 110.588 40.6684Z" fill="#1BA9F5"/>
<path d="M106.94 43.4031C106.94 43.9643 106.519 44.1046 106.028 44.3151C105.677 43.9643 105.186 43.6837 105.467 43.1225C105.467 43.0523 105.537 43.0523 105.537 42.9821C105.116 42.7717 104.695 42.2806 104.625 41.9298C104.555 41.5089 104.836 41.1581 105.256 41.0178C105.958 40.8775 106.589 41.1581 106.66 41.6492C106.73 42.0701 106.66 42.4209 106.449 42.7015C106.8 42.7717 106.94 43.0523 106.94 43.4031Z" fill="#1BA9F5"/>
<path d="M89.8931 51.8926C90.314 51.8225 90.8051 52.1031 90.8752 52.5942C90.9454 53.0151 90.6648 53.436 90.2438 53.5062C89.8931 53.5763 89.402 53.2256 89.3318 52.8748C89.1915 52.3837 89.4721 51.9628 89.8931 51.8926Z" fill="#1BA9F5"/>
<path d="M87.5062 41.6503C87.3659 41.6503 87.0151 41.7204 86.945 41.5099C86.945 41.2995 87.0853 41.089 87.2256 41.0189C87.3659 40.9487 87.7868 41.0189 87.857 41.2293C87.9271 41.4398 87.5764 41.6503 87.5062 41.6503Z" fill="#1BA9F5"/>
<path d="M92.4183 47.9631C92.6288 48.6646 92.278 49.296 91.5765 49.4364C90.8048 49.6468 89.8928 49.0856 89.7525 48.3139C89.6121 47.7526 90.1734 46.9108 90.8048 46.7003C91.5765 46.4898 92.2079 47.0511 92.4183 47.9631Z" fill="#1BA9F5"/>
<path d="M88.4892 55.3984C88.0683 55.6089 87.5772 55.1879 87.507 54.6969C87.4369 54.3461 87.7175 53.9252 88.1384 53.9252C88.5594 53.855 88.9803 54.2058 89.1206 54.767C88.9101 54.9073 88.7698 55.2581 88.4892 55.3984Z" fill="#1BA9F5"/>
<path d="M89.6115 39.4727C89.5414 39.192 89.6115 38.7711 89.9623 38.7711C90.2429 38.7711 90.6639 38.9114 90.6639 39.1219C90.734 39.3324 90.5235 39.6831 90.4534 39.8936C89.9623 40.0339 89.7518 39.7533 89.6115 39.4727Z" fill="#1BA9F5"/>
<path d="M93.7512 42.8423C92.4884 43.5439 91.7869 43.123 91.7869 41.5094C91.7167 41.4392 91.6466 41.3691 91.5063 41.3691C91.0853 41.2288 91.0152 40.9482 91.0152 40.5974C91.0152 40.2466 91.2256 40.0361 91.5063 39.8958C92.278 39.5451 92.6287 39.6854 92.9094 40.4571C93.1198 41.0183 93.4004 41.6497 93.6109 42.2109C94.7334 41.8602 94.8737 41.9303 94.9438 42.9125C94.5931 43.3334 94.1721 43.2633 93.7512 42.8423Z" fill="#1BA9F5"/>
<path d="M97.7509 52.3827C97.821 52.523 97.7509 52.8738 97.6106 53.1544C98.0315 53.1544 98.3121 53.2947 98.4524 53.6455C98.5928 54.1366 98.242 54.6277 97.6106 54.6277C97.0493 54.6277 96.909 54.9784 96.6284 55.259L96.6986 55.3292L94.9447 56.4517C94.8745 56.0308 95.0149 55.68 95.5761 55.3292C95.1552 55.259 94.9447 55.1187 94.7342 55.1889C94.3133 55.259 94.0327 55.0486 93.8924 54.6277C93.7521 54.2067 93.6819 53.7858 94.0327 53.3649C95.2253 52.2424 95.6463 52.2424 96.9792 53.2246C96.9792 53.2246 97.0493 53.2246 97.1195 53.2947C96.9792 53.1544 96.7687 52.9439 96.6986 52.8036C96.5583 52.523 96.6284 52.1722 96.9792 52.0319C97.33 51.8916 97.6807 52.0319 97.7509 52.3827Z" fill="#1BA9F5"/>
<path d="M98.1009 46.5593C98.5218 46.4892 99.3636 47.1907 99.504 47.7519C99.5741 48.1027 99.2233 48.664 98.8024 48.8043C98.171 48.9446 97.5396 48.664 97.3993 48.1729C97.259 47.4713 97.6098 46.6996 98.1009 46.5593Z" fill="#1BA9F5"/>
<path d="M95.8557 36.3868C95.4347 36.1763 94.9437 36.1061 94.9437 35.4747C94.9437 35.124 95.2243 34.8433 95.6452 34.7732C95.8557 34.7732 96.2064 34.9135 96.3468 35.0538C96.6975 35.6852 96.4169 36.036 95.8557 36.3868Z" fill="#1BA9F5"/>
<path d="M119.568 39.615C119.918 40.1061 119.708 40.8778 119.147 41.2286C119.077 41.2286 119.077 41.2987 119.006 41.2987C119.287 41.1584 119.708 41.0883 119.989 41.2286L118.445 42.1406C118.445 42.0003 118.445 41.86 118.515 41.7197C118.585 41.5793 118.796 41.439 118.936 41.2987C118.445 41.5092 118.235 41.2987 117.884 41.5793C117.533 41.86 117.252 41.7197 116.902 41.439C116.621 41.2286 116.27 40.9479 116.27 40.5972C116.13 40.6673 115.99 40.6673 115.92 40.6673C115.569 40.5972 115.428 39.9658 115.709 39.7553C115.849 39.615 116.13 39.5448 116.27 39.5448C116.551 39.6852 116.691 39.8956 116.761 40.1061C117.042 39.8956 117.323 40.1061 117.463 40.1762C117.603 40.3165 118.024 40.3166 117.884 40.1061C117.814 39.8956 117.884 39.6852 118.375 39.4045C118.866 39.0538 119.287 39.1239 119.568 39.615Z" fill="#1BA9F5"/>
<path d="M124.83 21.2338C124.619 21.0935 124.198 20.7427 124.409 20.3218C124.619 19.9009 125.11 20.1113 125.251 20.2516C125.391 20.3218 125.531 20.6726 125.531 20.883C125.461 21.304 125.11 21.3741 124.83 21.2338Z" fill="#1BA9F5"/>
<path d="M127.144 31.3374C127.495 31.4777 127.635 31.9688 127.425 32.3195C127.284 32.6703 126.864 32.8106 126.583 32.53C126.372 32.3195 126.162 32.0389 126.232 31.8285C126.232 31.618 126.793 31.1971 127.144 31.3374Z" fill="#1BA9F5"/>
<path d="M114.587 37.8606C114.307 37.7203 114.237 37.2292 114.377 36.9486C114.587 36.5978 114.868 36.668 115.499 37.0889C115.64 37.7905 114.868 38.0711 114.587 37.8606Z" fill="#1BA9F5"/>
<path d="M124.689 33.9298C124.829 33.8596 124.97 33.8596 125.11 33.8596C126.092 33.8596 126.583 34.4209 126.654 35.1926C126.724 36.315 125.531 36.1747 125.882 36.8763C126.022 37.1569 126.233 37.2271 126.373 37.2972L123.917 38.7705L123.847 38.7003C123.637 38.0689 123.847 37.7883 124.058 37.5077C123.847 37.5778 123.637 37.5077 123.497 37.2972C123.216 36.8061 122.795 36.3852 122.935 35.7538C123.146 35.6135 123.356 35.403 123.567 35.2627C123.567 34.5612 123.847 33.9298 124.268 33.8596C124.409 33.8596 124.549 33.8596 124.689 33.9298ZM124.549 37.0166C124.549 36.9464 124.549 36.8763 124.479 36.8061C124.479 36.9464 124.479 37.0166 124.409 37.1569C124.409 37.2271 124.409 37.2271 124.338 37.2972C124.479 37.2271 124.549 37.1569 124.549 37.0166Z" fill="#1BA9F5"/>
<path d="M126.513 24.7422C126.583 24.3915 127.004 24.0407 127.285 24.1108C127.776 24.181 127.986 25.2333 127.706 25.4438C127.495 25.6542 126.513 25.2333 126.513 24.7422Z" fill="#1BA9F5"/>
<path d="M128.337 35.9673C127.916 35.9673 127.215 34.9149 127.425 34.494C127.636 34.0731 128.688 34.2835 128.828 34.7746C128.969 35.2657 128.688 35.8971 128.337 35.9673Z" fill="#1BA9F5"/>
<path d="M131.985 30.7738C131.775 31.0544 131.564 31.2649 131.213 31.1246C130.371 30.844 129.6 30.4231 129.039 29.7215C128.968 29.5812 128.898 29.3707 128.898 29.3006C128.758 28.3886 129.459 27.8273 130.301 28.1781C130.792 28.3886 131.283 28.6692 131.704 28.9498C132.196 29.3006 132.266 30.2126 131.985 30.7738Z" fill="#1BA9F5"/>
<path d="M128.407 27.8297C128.267 27.8297 127.986 27.6894 127.986 27.549C127.916 27.4087 128.196 27.1983 128.337 27.1281C128.477 27.058 128.828 27.1983 128.898 27.4087C128.898 27.6192 128.477 27.8297 128.407 27.8297Z" fill="#1BA9F5"/>
<path d="M121.603 27.2679C121.252 27.2679 120.621 26.7066 120.761 26.2857C120.971 25.7245 121.252 25.4438 121.883 25.8648C122.445 26.2857 121.954 27.2679 121.603 27.2679Z" fill="#1BA9F5"/>
<path d="M125.25 30.8447C124.97 30.8447 124.759 30.2133 124.97 29.9327C125.11 29.7222 125.391 29.6521 125.531 29.5819C126.092 29.7924 126.303 30.2133 126.092 30.4238C125.882 30.7044 125.531 30.8447 125.25 30.8447Z" fill="#1BA9F5"/>
<path d="M131.985 26.0068C131.844 26.3576 131.073 26.2874 130.722 25.7963C130.301 25.3754 130.862 24.744 131.143 24.6037C131.423 24.4634 132.125 25.656 131.985 26.0068Z" fill="#1BA9F5"/>
<path d="M116.762 34.9145C116.341 34.7742 116.412 34.1428 116.271 33.792C116.341 33.7219 116.412 33.6517 116.412 33.5815C116.832 33.3711 116.973 33.4412 117.253 33.6517C117.534 33.8622 117.674 34.0726 117.674 34.1428C117.394 34.4234 117.113 35.0548 116.762 34.9145Z" fill="#1BA9F5"/>
<path d="M117.603 35.5466C117.393 35.6167 117.182 35.3361 117.182 35.1958C117.182 35.0555 117.112 34.7749 117.322 34.7047C117.533 34.6345 117.673 34.7748 117.673 34.9152C117.743 35.0555 117.814 35.4764 117.603 35.5466Z" fill="#1BA9F5"/>
<path d="M116.271 26.5681C116.201 26.4979 116.13 26.2173 116.13 26.077C116.201 25.9367 116.481 25.8665 116.622 25.9367C116.762 26.0069 117.043 26.2173 116.832 26.4979C116.692 26.7786 116.411 26.6383 116.271 26.5681Z" fill="#1BA9F5"/>
<path d="M120.13 38.8423C119.919 39.1229 119.288 39.1229 119.077 38.9826C118.726 38.8423 118.656 38.4213 118.867 38.0706C119.077 37.7198 119.428 37.7198 119.638 37.9303C119.849 38.0706 120.34 38.5617 120.13 38.8423Z" fill="#1BA9F5"/>
<path d="M121.602 34.4933C122.023 34.6336 122.234 35.4755 121.953 36.0367C121.743 36.598 121.181 36.8084 120.69 36.598C120.129 36.3174 119.708 35.5457 119.989 35.0546C120.269 34.5635 121.111 34.2127 121.602 34.4933Z" fill="#1BA9F5"/>
<path d="M121.252 28.4594C121.392 28.5295 121.813 28.74 121.673 29.0907C121.603 29.4415 121.042 29.3012 120.901 29.2311C120.761 29.1609 120.48 28.9504 120.621 28.6698C120.761 28.4594 121.112 28.4594 121.252 28.4594Z" fill="#1BA9F5"/>
<path d="M118.445 34.424C118.375 34.2837 118.305 34.2135 118.305 34.1434C118.305 34.0732 118.516 34.0031 118.516 34.0031C118.586 34.0732 118.726 34.1434 118.656 34.2837C118.656 34.424 118.516 34.3538 118.445 34.424Z" fill="#1BA9F5"/>
<path d="M192.458 173.822L142.718 204.129L93.0482 173.822L142.718 143.515L192.458 173.822Z" fill="#00BFB3"/>
<path d="M134.72 57.6463C134.58 57.6463 134.44 57.5761 134.299 57.506L135.632 56.7343C135.702 57.1552 135.281 57.5761 134.72 57.6463Z" fill="#0077CC"/>
<path d="M141.596 53.155C142.157 52.9445 142.438 53.155 142.718 53.5759C142.999 53.9968 142.859 54.3476 142.648 54.7685C142.017 55.8208 141.526 55.9612 140.614 55.3999C140.123 55.1193 139.702 54.8387 139.211 54.5581L141.456 53.2251C141.526 53.2251 141.596 53.155 141.596 53.155Z" fill="#0077CC"/>
<path d="M138.578 61.0838C138.368 61.0137 138.227 60.5927 138.157 60.4524C138.368 59.9613 138.718 59.9613 138.999 60.0315C139.28 60.1718 139.56 60.4524 139.35 60.733C139.139 60.9435 138.789 61.154 138.578 61.0838Z" fill="#0077CC"/>
<path d="M138.789 57.5739C138.648 57.5038 138.648 57.153 138.648 57.0828C138.718 56.9425 138.859 56.7321 139.069 56.7321C139.139 56.5918 139.21 56.3813 139.35 56.1708C139.771 56.1708 140.051 56.1007 140.402 56.1007C140.963 56.0305 141.525 56.4514 141.665 57.0127C141.735 57.3635 141.454 57.9948 141.104 57.9247C140.613 57.9247 140.051 57.9948 139.56 57.5739C139.42 57.5038 139.35 57.3635 139.28 57.2933C139.139 57.5038 138.929 57.6441 138.789 57.5739Z" fill="#0077CC"/>
<path d="M137.947 58.4864C138.017 58.767 137.386 59.3282 136.824 59.1177C136.614 59.0476 136.403 58.767 136.403 58.5565C136.333 58.1356 136.614 57.7848 137.035 57.7146C137.596 57.6445 137.877 58.1356 137.947 58.4864Z" fill="#0077CC"/>
<path d="M127.916 62.3458C127.495 62.4861 126.934 62.4861 126.653 62.3458C126.653 62.3458 126.583 62.3458 126.583 62.2756L128.337 61.2233C128.337 61.2934 128.407 61.2934 128.407 61.3636C128.477 61.2934 128.617 61.2233 128.758 61.2233C129.178 61.1531 129.389 61.3636 129.529 61.7144C129.67 62.1353 129.529 62.4861 129.178 62.6965C128.687 62.9772 128.056 62.6264 127.916 62.3458Z" fill="#0077CC"/>
<path d="M127.003 67.1165C126.722 66.9762 126.511 66.8358 126.371 66.6254C126.02 66.6254 125.74 66.3448 125.67 65.9238C125.67 65.6432 125.88 65.2924 126.231 65.1521V65.082C126.511 64.3804 127.494 64.0998 128.195 64.4506C128.756 64.7312 128.967 65.7835 128.686 66.5552C128.476 67.2568 127.704 67.4672 127.003 67.1165Z" fill="#0077CC"/>
<path d="M118.865 75.0415C119.216 75.1116 119.286 75.4624 119.145 75.743C119.005 76.0237 118.865 76.3043 118.444 76.164C118.093 76.0237 117.883 75.6027 118.093 75.1117C118.304 75.1117 118.584 74.9713 118.865 75.0415Z" fill="#0077CC"/>
<path d="M117.251 68.1676C117.111 68.7288 116.83 69.0094 116.479 68.8691C116.269 68.799 116.199 68.7288 116.129 68.5885L117.321 67.887C117.321 68.0273 117.321 68.0974 117.251 68.1676Z" fill="#0077CC"/>
<path d="M117.953 69.2902C117.883 69.1499 117.813 68.8693 117.813 68.6588C117.813 68.5886 117.813 68.5185 117.743 68.5185C117.672 68.0274 118.023 67.6065 118.514 67.4662C119.286 67.1855 119.847 67.396 120.198 67.8169C120.549 68.2379 120.198 69.0797 119.637 69.5708C119.286 69.9216 118.234 69.7813 117.953 69.2902Z" fill="#0077CC"/>
<path d="M129.108 66.3422C129.038 65.9213 129.529 65.36 130.09 65.2899C130.862 65.2197 131.212 65.4302 131.353 65.9914C131.423 66.5527 131.002 67.3244 130.441 67.3945C129.879 67.3945 129.178 66.8333 129.108 66.3422Z" fill="#0077CC"/>
<path d="M138.158 56.3834C137.807 56.8745 137.457 57.2954 136.895 57.0148C136.615 56.8745 136.404 56.5939 136.474 56.3132L137.597 55.6117C137.807 55.752 137.948 56.1028 138.158 56.3834Z" fill="#0077CC"/>
<path d="M104.413 75.8156C104.554 75.8857 104.694 76.026 104.764 76.1663C105.045 76.5873 105.115 77.1485 104.975 77.6396C105.115 77.7799 105.185 77.9904 105.255 78.271C104.904 78.5516 104.554 78.9024 104.133 78.4814C103.642 78.5516 103.15 78.4113 102.87 77.9904C102.659 77.6396 102.519 77.2888 102.589 76.938L104.413 75.8156C104.343 75.8156 104.413 75.8156 104.413 75.8156Z" fill="#0077CC"/>
<path d="M115.779 74.1321C114.937 73.8514 114.797 73.1499 114.797 72.5886C114.867 72.0274 115.358 71.1154 116.34 71.396C117.322 71.6766 117.743 72.3782 117.603 73.0096V73.0797C117.884 73.1499 118.094 73.3603 118.164 73.641C118.234 73.9917 117.954 74.3425 117.603 74.4828C117.252 74.553 116.761 74.3425 116.761 73.9917C116.41 74.132 116.06 74.2022 115.779 74.1321Z" fill="#0077CC"/>
<path d="M108.693 78.8314C108.693 78.9718 108.553 79.3927 108.272 79.3927C108.132 79.3927 107.922 79.1822 107.852 78.9718C107.641 79.0419 107.431 79.0419 107.22 78.9016C106.729 78.4807 106.519 78.1299 106.729 77.8493C106.939 77.5686 107.711 77.4283 107.992 77.6388C108.202 77.7791 108.272 78.1299 108.202 78.4807H108.272C108.413 78.4105 108.693 78.621 108.693 78.8314Z" fill="#0077CC"/>
<path d="M130.932 69.1484C130.932 69.2887 130.651 69.5693 130.441 69.6395C130.16 69.7096 129.879 69.5693 129.949 69.2185C130.02 69.0081 130.09 68.3767 130.37 68.3065C130.651 68.3065 130.932 68.9379 130.932 69.1484Z" fill="#0077CC"/>
<path d="M125.74 63.3285C125.67 63.4688 125.53 63.6091 125.39 63.6793C125.39 63.7494 125.46 63.8196 125.46 63.8897C125.46 64.2405 125.109 64.6614 124.758 64.7316C124.337 64.8017 123.916 64.451 123.916 64.1002C123.916 64.03 123.916 64.03 123.916 63.9599L125.74 62.8374C125.811 62.9777 125.811 63.1882 125.74 63.3285Z" fill="#0077CC"/>
<path d="M124.338 65.4334C124.969 65.6438 125.25 66.626 124.899 67.2574C124.759 67.6082 124.338 67.8888 123.917 68.0291C123.707 68.2395 123.286 68.3799 122.935 68.3097C122.654 68.2396 122.444 67.9589 122.444 67.6082C122.163 67.1872 122.023 66.6961 122.233 66.3454C122.514 65.714 123.777 65.2229 124.338 65.4334Z" fill="#0077CC"/>
<path d="M116.129 78.9733C115.919 78.9031 115.849 78.7628 115.919 78.6225C115.989 78.4121 116.059 78.3419 116.34 78.412C116.55 78.4822 116.621 78.6225 116.55 78.833C116.48 78.9733 116.34 79.0434 116.129 78.9733Z" fill="#0077CC"/>
<path d="M145.594 73.9916C145.103 74.0618 144.12 73.4304 144.12 73.0095C144.12 72.5184 144.682 71.9571 145.383 71.887C146.015 71.8168 146.365 72.2378 146.436 72.9393C146.436 73.3602 146.015 73.9215 145.594 73.9916Z" fill="#0077CC"/>
<path d="M134.228 70.9045C133.527 71.0448 132.755 70.5538 132.615 69.8522C132.474 69.0805 132.895 68.2387 133.457 68.1685C134.158 68.0282 135.281 68.7297 135.351 69.3611C135.421 70.0627 134.93 70.7642 134.228 70.9045Z" fill="#0077CC"/>
<path d="M134.439 64.2378C134.579 64.0975 134.93 64.0975 135.071 64.1677C135.491 64.4483 135.421 64.7991 135.211 65.2901C134.79 65.3603 134.369 65.4305 134.229 64.9394C134.088 64.6588 134.299 64.3781 134.439 64.2378Z" fill="#0077CC"/>
<path d="M133.948 62.2064C133.878 62.2064 133.878 62.2766 133.808 62.2766C133.177 62.5572 132.475 62.6975 131.914 62.2064C131.563 61.9258 131.423 61.5049 131.423 61.0839C131.282 61.2242 131.072 61.2944 130.861 61.2242C130.441 61.0138 130.651 60.4525 130.651 60.1018C130.651 59.751 131.072 59.6808 131.493 59.8211C131.563 59.8211 131.633 59.8913 131.703 59.9615C131.844 59.751 131.984 59.5405 132.194 59.4002C132.475 59.1196 132.475 58.9793 132.475 58.6987L133.808 57.8568C133.948 57.9971 133.948 58.1374 133.948 58.418C133.948 58.6987 133.948 59.0494 134.018 59.2599C134.159 59.4704 134.299 59.751 134.439 59.9615C134.86 59.6808 135.422 59.8211 136.123 60.3824C136.193 60.3122 136.334 60.3122 136.404 60.2421C136.755 60.0316 137.035 60.1018 137.316 60.3824C137.596 60.5929 137.596 60.8735 137.526 61.2242C137.386 61.7153 137.246 61.9258 136.965 61.996C136.965 62.0661 136.965 62.2064 136.965 62.2766C136.895 63.0483 136.263 63.5394 135.492 63.2587C135.001 63.0483 134.58 62.6274 133.948 62.2064Z" fill="#0077CC"/>
<path d="M138.789 64.3088C138.93 65.0805 138.719 65.7119 138.228 65.8522C137.737 65.9224 137.106 65.5014 136.965 64.9402C136.825 64.5193 137.246 63.8879 137.807 63.7476C138.088 63.6072 138.719 63.8879 138.789 64.3088Z" fill="#0077CC"/>
<path d="M133.457 76.7968C132.756 76.867 132.265 76.5162 132.195 75.8146C132.124 75.1832 132.615 74.622 133.317 74.5518C133.878 74.4817 134.439 75.0429 134.51 75.6743C134.65 76.3057 134.229 76.7266 133.457 76.7968Z" fill="#0077CC"/>
<path d="M132.124 67.8869C131.563 67.6063 131.423 67.0451 131.703 66.4137C132.054 65.7121 132.896 65.4315 133.597 65.8524C134.159 66.1331 134.369 66.9749 134.088 67.5361C133.738 68.0974 132.826 68.2377 132.124 67.8869Z" fill="#0077CC"/>
<path d="M126.582 73.9923C126.722 73.6415 127.073 73.2907 127.424 73.1504C127.494 72.8698 127.634 72.7295 127.915 72.7295C128.196 72.7295 128.897 72.94 128.897 73.2206C128.897 73.3609 128.757 73.5012 128.617 73.6415C128.827 73.9923 128.897 74.343 128.757 74.6938C128.546 75.2551 127.705 75.5357 127.003 75.2551C126.512 75.1148 126.372 74.5535 126.582 73.9923Z" fill="#0077CC"/>
<path d="M125.319 70.6223C124.898 70.2715 125.038 69.8506 125.179 69.3595C125.67 69.2894 126.161 69.149 126.441 69.7103C126.441 69.7804 126.441 69.7804 126.512 69.8506C126.933 69.6401 127.564 69.6401 127.915 69.8506C128.265 70.0611 128.406 70.482 128.195 70.9029C127.915 71.5343 127.283 71.8149 126.792 71.5343C126.441 71.3238 126.231 71.0432 126.161 70.6925C125.88 70.8328 125.529 70.7626 125.319 70.6223Z" fill="#0077CC"/>
<path d="M131.073 71.8175C131.284 71.3264 132.126 70.9756 132.617 71.1861C133.108 71.3966 133.388 72.0981 133.178 72.6593C132.967 73.2206 132.546 73.2907 131.845 73.0101C131.284 72.7997 130.933 72.1683 131.073 71.8175Z" fill="#0077CC"/>
<path d="M106.027 74.764L108.413 73.2908C108.693 73.7117 108.763 74.2729 108.553 74.764C108.272 75.3253 107.29 75.7462 106.729 75.4656C106.378 75.3954 106.168 75.1148 106.027 74.764Z" fill="#0077CC"/>
<path d="M126.512 77.7109C126.442 77.6407 126.582 77.3601 126.723 77.3601C126.863 77.3601 127.214 77.2899 127.284 77.5706C127.354 77.8512 127.074 77.9915 127.003 77.9915C126.793 77.9213 126.653 77.8512 126.512 77.7109Z" fill="#0077CC"/>
<path d="M143.84 53.9955C143.91 53.9955 144.051 54.3463 143.981 54.3463C143.91 54.4866 143.7 54.6269 143.56 54.5568C143.419 54.5568 143.139 54.3463 143.209 54.0657C143.349 53.8552 143.7 53.9955 143.84 53.9955Z" fill="#0077CC"/>
<path d="M145.804 57.0141C145.594 57.1544 145.454 57.435 145.243 57.435C144.963 57.435 144.542 57.3649 144.331 57.1544C144.051 56.8738 144.191 56.523 144.472 56.2424C144.682 56.0319 144.892 55.8214 145.033 55.611C145.524 55.1199 147.278 55.2602 147.558 55.8916C147.558 55.9618 147.628 56.0319 147.628 56.1021C147.418 56.7335 147.909 57.0141 148.19 57.3649C148.611 57.8559 148.47 58.2769 147.979 58.6276C147.909 58.6276 147.909 58.6978 147.839 58.6978C147.909 58.768 147.979 58.9083 147.979 59.0486C148.049 59.3292 147.909 59.6098 147.909 59.8904H147.979C147.628 59.9606 147.278 60.0307 146.857 60.0307C146.716 59.7501 146.646 59.6098 146.576 59.3292C146.506 59.0486 146.576 58.768 146.787 58.5575C146.576 58.4172 146.436 58.2067 146.366 57.8559C146.296 57.5753 146.366 57.2245 145.804 57.0141Z" fill="#0077CC"/>
<path d="M98.6594 80.6567C98.5191 80.5164 98.3788 80.2358 98.3788 79.9552C98.4489 79.5342 98.7295 79.3939 99.5714 79.3939C99.7117 79.8149 100.062 80.1656 99.6416 80.6567C99.3609 80.8672 99.0102 80.9373 98.6594 80.6567Z" fill="#0077CC"/>
<path d="M97.6078 79.8842L98.5198 79.323V79.3932C98.3093 79.8141 97.9585 80.0245 97.6078 79.8842Z" fill="#0077CC"/>
<path d="M145.454 67.6064C145.735 67.8169 145.875 68.0274 145.735 68.3781C145.524 68.9394 145.103 68.9394 144.542 68.9394C144.332 68.4483 143.981 68.0975 144.402 67.6766C144.753 67.396 145.103 67.396 145.454 67.6064Z" fill="#0077CC"/>
<path d="M124.337 73.8506C124.688 73.7103 125.109 73.9207 125.249 74.2715C125.319 74.482 125.249 74.9029 125.109 75.0432C124.688 75.394 124.267 75.2537 123.846 74.9029C123.846 74.482 123.846 73.9909 124.337 73.8506Z" fill="#0077CC"/>
<path d="M143.069 60.1005C142.578 60.1706 142.087 59.6796 141.946 58.978C141.876 58.3466 142.087 58.066 142.858 57.9257C143.42 57.8555 143.911 58.2063 143.911 58.6974C144.051 59.1183 143.42 60.0303 143.069 60.1005Z" fill="#0077CC"/>
<path d="M142.017 74.0609C141.525 74.131 141.105 73.8504 141.034 73.4295C140.964 73.0086 141.315 72.5876 141.666 72.5175C142.087 72.4473 142.508 72.8682 142.578 73.2892C142.648 73.6399 142.437 73.9907 142.017 74.0609Z" fill="#0077CC"/>
<path d="M143.701 70.7648C143.701 70.5543 144.052 70.2737 144.192 70.2737C144.402 70.2737 144.894 70.4841 144.894 70.7648C144.894 70.9752 144.402 71.3962 144.262 71.326C144.052 71.1857 143.631 70.9752 143.701 70.7648Z" fill="#0077CC"/>
<path d="M142.789 68.028C142.157 68.0982 141.596 67.8175 141.596 67.2563C141.596 66.9055 142.227 66.204 142.578 66.1338C142.999 66.0637 143.28 66.3443 143.35 66.9757C143.42 67.6772 143.28 68.028 142.789 68.028Z" fill="#0077CC"/>
<path d="M61.4788 108.646C61.8296 108.085 62.3908 108.015 62.952 108.366C63.5133 108.716 63.7238 109.348 63.4431 109.698C63.0924 110.19 62.1803 110.4 61.6191 110.049C61.2683 109.909 61.1982 109.137 61.4788 108.646Z" fill="#0077CC"/>
<path d="M55.6554 105.912C55.7255 105.561 56.5674 105.281 56.848 105.631C57.0585 105.912 56.9883 106.403 56.7779 106.543C56.3569 106.754 55.5852 106.193 55.6554 105.912Z" fill="#0077CC"/>
<path d="M55.095 109.56C55.095 109.42 55.095 109.209 55.095 109.139C55.3756 108.297 56.1473 108.087 56.7787 108.648C57.1294 108.999 57.4802 109.49 57.7608 109.911C58.0415 110.402 57.7608 111.244 57.2698 111.594C56.9891 111.805 56.2174 112.015 55.9368 111.314C56.1473 110.261 55.3054 110.472 55.095 109.56Z" fill="#0077CC"/>
<path d="M58.2518 116.645C58.6026 116.856 58.7429 117.347 58.4623 117.768C58.2518 118.189 57.7607 118.259 57.3398 117.978C56.989 117.768 56.9189 117.277 57.1293 116.926C57.41 116.505 57.9011 116.365 58.2518 116.645Z" fill="#0077CC"/>
<path d="M62.6007 116.153C62.8112 116.223 63.0918 116.434 63.1619 116.574C63.2321 117.065 62.6709 117.346 62.4604 117.346C62.1798 117.346 61.829 116.784 62.1096 116.363C62.1096 116.223 62.4604 116.083 62.6007 116.153Z" fill="#0077CC"/>
<path d="M93.4689 98.1948C93.5391 98.2649 93.6794 98.6859 93.5391 98.756C93.3988 98.8963 93.048 98.6859 92.9779 98.5456C92.9077 98.4754 92.9077 98.1948 93.048 98.1246C93.1182 98.1246 93.3988 98.1246 93.4689 98.1948Z" fill="#0077CC"/>
<path d="M75.8606 98.4032C76.0009 98.5435 76.1412 99.1047 75.9308 99.245C75.7203 99.3853 75.2292 99.1749 75.0889 99.0346C74.8083 98.8241 74.9486 98.2628 75.2292 98.1927C75.4397 98.1225 75.7203 98.1927 75.8606 98.4032Z" fill="#0077CC"/>
<path d="M92.066 92.3039C91.5749 92.1636 91.2241 91.883 91.154 91.3919C91.0838 91.0411 91.7854 90.2694 92.2063 90.1992C92.6272 90.1291 93.0481 90.0589 93.3288 90.6202C93.4691 91.0411 93.6795 91.3919 93.89 91.8128C94.2408 92.1636 94.2408 92.5845 93.89 92.8651C93.5392 93.1457 93.1183 93.1457 92.6974 92.795C92.5571 92.5845 92.3466 92.374 92.066 92.3039Z" fill="#0077CC"/>
<path d="M49.3416 109.699C49.6923 109.91 49.7625 110.331 49.4819 110.681C49.2714 111.032 48.7803 111.102 48.4296 110.892C48.2191 110.751 48.0788 110.401 48.1489 110.05L48.9908 109.559C49.0609 109.559 49.2012 109.629 49.3416 109.699Z" fill="#0077CC"/>
<path d="M89.6103 93.9852C89.8909 93.915 90.4522 93.7046 90.6626 93.9852C90.8731 94.336 90.5223 94.6868 90.382 94.8972C90.1715 95.1077 89.8909 95.248 89.6103 94.8972C89.3297 94.6868 89.2595 94.1255 89.6103 93.9852Z" fill="#0077CC"/>
<path d="M90.2421 101.002C90.3123 101.283 90.4526 101.984 90.2421 102.195C90.0316 102.405 89.4003 101.914 89.4003 101.774C89.4003 101.423 89.2599 101.002 89.5406 100.792C89.8913 100.511 90.2421 100.862 90.2421 101.002Z" fill="#0077CC"/>
<path d="M46.8862 115.172C47.237 114.68 48.149 114.47 48.7102 114.821C49.061 115.031 49.1311 115.663 48.8505 116.084C48.4296 116.645 47.8684 116.785 47.3773 116.505C46.8862 116.154 46.6056 115.522 46.8862 115.172Z" fill="#0077CC"/>
<path d="M39.6609 117.977C39.3101 117.766 39.3101 116.924 39.5907 116.363C39.8012 116.012 40.4326 115.942 40.7834 116.153C41.2043 116.503 41.4148 117.135 41.2043 117.486C40.8535 117.907 40.0117 118.187 39.6609 117.977Z" fill="#0077CC"/>
<path d="M38.4683 129.904C37.907 129.974 37.9772 129.412 37.7667 129.272C37.2756 128.781 37.2055 127.799 37.6965 127.518C38.1175 127.238 38.6086 127.308 39.0295 127.588C39.4504 127.869 39.5206 128.36 39.3101 128.781C39.1698 128.991 39.0295 129.833 38.4683 129.904Z" fill="#0077CC"/>
<path d="M42.4671 124.994C42.6776 125.135 42.6074 125.486 42.5373 125.626C42.4671 125.766 42.1865 125.836 42.0462 125.766C41.976 125.696 41.8357 125.415 41.9059 125.345C42.0462 125.205 42.3268 124.854 42.4671 124.994Z" fill="#0077CC"/>
<path d="M41.4145 121.347C41.1338 121.066 41.0637 120.715 41.2741 120.365C41.4145 120.084 41.6951 119.944 41.9757 120.014C42.5369 120.154 42.6071 120.575 42.6772 121.136C42.1862 121.347 41.8354 121.697 41.4145 121.347Z" fill="#0077CC"/>
<path d="M23.7356 129.344C24.5073 129.134 25.3492 129.695 25.4895 130.467C25.6298 131.028 25.0686 131.87 24.4372 132.01C24.367 132.01 24.367 132.01 24.2969 132.01L23.1042 131.308C23.0341 131.168 22.9639 130.958 22.8938 130.817C22.7535 130.046 23.1042 129.484 23.7356 129.344Z" fill="#0077CC"/>
<path d="M37.2753 121.696C37.4857 121.345 38.2574 121.204 38.5381 121.345C38.8187 121.485 38.8888 121.906 38.7485 122.257C38.8888 122.327 38.959 122.467 38.959 122.537C38.959 122.678 38.8888 122.888 38.7485 122.958C38.6784 123.029 38.3977 122.888 38.3977 122.818C38.3977 122.748 38.3977 122.748 38.3977 122.678C38.1873 122.748 37.9067 122.748 37.626 122.608C37.2051 122.327 37.0648 121.906 37.2753 121.696Z" fill="#0077CC"/>
<path d="M45.6935 111.805C46.1144 112.086 46.2547 112.998 45.9741 113.419C45.7637 113.769 44.9218 113.91 44.5009 113.699C44.1501 113.489 43.9396 112.857 44.1501 112.577L44.2202 112.507L45.483 111.735C45.5532 111.735 45.6234 111.735 45.6935 111.805Z" fill="#0077CC"/>
<path d="M93.8195 89.1448C93.4687 89.0045 93.3284 88.3731 93.6091 87.7417C93.7494 87.6715 94.03 87.5312 94.2404 87.6014C94.7315 87.7417 95.0122 88.3029 94.8718 88.7239C94.7315 89.0045 94.1703 89.2851 93.8195 89.1448Z" fill="#0077CC"/>
<path d="M48.6402 124.361C48.8507 124.431 49.3417 125.203 49.1313 125.554C48.9208 125.905 48.0088 125.624 47.7282 125.484C47.5177 125.343 47.3072 124.852 47.5177 124.502C47.658 124.151 48.2894 124.221 48.6402 124.361Z" fill="#0077CC"/>
<path d="M37.6257 124.081C37.5555 124.011 37.4854 123.941 37.5555 123.801C37.6257 123.73 37.766 123.66 37.8361 123.73C37.9764 123.801 37.9063 124.011 37.9063 124.011C37.9063 124.011 37.6958 124.151 37.6257 124.081Z" fill="#0077CC"/>
<path d="M136.474 74.2004C136.194 74.1302 136.054 73.7794 135.983 73.4287C135.843 73.2883 135.773 73.148 135.773 73.0077C135.703 72.5166 135.843 72.1659 136.264 72.0256C136.615 71.9554 137.106 72.1659 137.386 72.4465C137.737 72.7271 137.878 73.148 137.807 73.4988C137.597 73.9899 136.966 74.3407 136.474 74.2004Z" fill="#0077CC"/>
<path d="M141.034 80.1636C141.034 80.3039 140.964 80.5846 140.754 80.5846C140.543 80.5846 140.403 80.4442 140.333 80.3039C140.263 80.1636 140.403 79.7427 140.543 79.7427C140.824 79.6725 141.034 80.0233 141.034 80.1636Z" fill="#0077CC"/>
<path d="M139.491 63.89C139.281 63.89 139.07 63.7497 138.86 63.6795C138.649 63.6094 138.439 63.4691 138.228 63.3287C137.597 62.9078 137.387 62.4869 137.597 61.9256C137.878 61.2943 138.439 61.0838 139.14 61.2943C139.842 61.5047 140.543 61.7853 141.315 61.9256C141.947 61.9958 142.578 62.557 142.508 62.978C142.438 63.3989 141.736 63.6094 141.596 63.5392C141.105 63.3287 140.894 63.6795 140.543 63.8198C140.193 63.89 139.842 63.89 139.491 63.89Z" fill="#0077CC"/>
<path d="M139.561 74.8308C139.561 74.901 139.42 75.0413 139.35 75.0413C139.28 75.0413 139.14 74.9711 139.14 74.901C139.14 74.8308 139.21 74.6204 139.35 74.6204C139.49 74.6204 139.561 74.7607 139.561 74.8308Z" fill="#0077CC"/>
<path d="M137.455 84.7259C137.525 84.7961 137.385 85.1469 137.175 85.217C136.964 85.2872 136.824 84.9364 136.824 84.7961C136.824 84.7259 136.964 84.4453 137.104 84.4453C137.245 84.4453 137.385 84.5856 137.455 84.7259Z" fill="#0077CC"/>
<path d="M94.3822 86.0592C94.2419 86.0592 94.0314 86.0592 93.9613 86.0592C93.6807 85.6382 93.8911 85.1471 94.1717 85.0068C94.4524 84.8665 94.5927 84.9367 94.733 85.1471C94.8733 85.1471 95.0838 85.2173 95.1539 85.2173C95.5047 85.3576 95.4345 85.7084 95.2942 85.989C95.1539 86.3398 94.733 86.4801 94.4524 86.2696C94.4524 86.1995 94.3822 86.1293 94.3822 86.0592Z" fill="#0077CC"/>
<path d="M145.663 66.2047C144.962 66.4853 144.12 66.345 144.05 65.6434C143.98 64.9419 144.33 64.5209 144.681 63.9597C144.962 63.5388 145.523 63.7492 145.383 63.188C145.242 62.6268 145.032 61.4341 146.084 61.2938C146.575 61.2237 147.207 61.6446 147.417 62.1357C147.628 61.7849 148.049 61.5043 148.54 61.4341C149.171 61.364 149.943 62.0655 149.943 62.6969C150.013 63.3283 149.522 63.9597 148.961 64.0298C148.399 64.1 147.698 63.5388 147.417 63.0477C147.347 63.2581 147.207 63.4686 147.066 63.5388C146.645 63.7492 147.347 64.5209 146.856 64.8016C146.225 65.1523 146.295 65.924 145.663 66.2047Z" fill="#0077CC"/>
<path d="M137.456 68.7296C137.035 69.0103 136.614 69.2909 136.193 68.7998C135.912 68.449 135.912 68.0982 136.123 67.8176C136.193 67.6773 136.403 67.537 136.544 67.6072C136.895 67.6773 137.245 67.8176 137.666 67.9579C137.736 67.8878 137.807 67.8878 137.877 67.8176C137.386 67.6773 137.315 67.2564 137.386 66.6951C137.807 66.4847 138.227 66.2041 138.648 66.5548C138.929 66.8355 138.999 67.1862 138.719 67.4669C138.719 67.4669 138.719 67.4668 138.648 67.537C138.999 67.4668 139.35 67.6072 139.49 67.8176C139.771 68.3087 139.56 69.2909 139.069 69.6416C138.578 69.9924 138.227 69.782 137.456 68.7296Z" fill="#0077CC"/>
<path d="M102.66 85.7766C102.099 85.5661 101.818 84.5839 102.169 83.8122C102.449 83.251 103.011 83.0405 103.572 83.3211C104.203 83.6018 104.484 84.0928 104.343 84.7242C104.484 84.4436 104.624 84.163 104.905 84.0227C105.466 83.6719 106.518 83.8122 106.869 84.3735C107.29 85.075 107.22 85.987 106.659 86.3378C106.097 86.6886 104.835 86.4781 104.414 85.987C104.203 85.7064 104.133 85.3556 104.273 85.0049V85.075C103.993 85.6363 103.291 85.987 102.66 85.7766Z" fill="#0077CC"/>
<path d="M113.674 79.886C113.814 80.0263 113.674 80.3069 113.604 80.4472C113.463 80.5174 113.183 80.5875 113.042 80.3771C112.902 80.2368 112.972 80.0263 113.042 79.886C113.183 79.7457 113.534 79.7457 113.674 79.886Z" fill="#0077CC"/>
<path d="M92.5569 85.7074C92.4166 85.5671 92.3464 85.2865 92.3464 85.1461C92.627 84.6551 93.048 84.5147 93.2584 84.7954C93.3987 84.9357 93.539 85.2865 93.4689 85.4969C93.3987 85.8477 92.7673 85.988 92.5569 85.7074Z" fill="#0077CC"/>
<path d="M95.7141 81.4279C95.7843 81.2876 95.7843 81.2174 95.8545 81.1472C96.2754 80.7965 96.9068 80.9368 97.3277 81.4279C97.6083 81.7786 97.468 82.41 96.9068 82.7608C96.4858 83.1116 95.9948 83.0414 95.7843 82.6907C95.7141 82.6205 95.7141 82.5503 95.7141 82.4802C95.3634 82.9713 94.8723 83.2519 94.4514 83.0414C94.1707 82.9011 93.9603 82.4802 93.9603 82.1294L95.5037 81.2174C95.644 81.2174 95.7141 81.2876 95.7141 81.4279Z" fill="#0077CC"/>
<path d="M131.002 82.2019C131.142 82.5527 130.721 83.1841 130.16 82.9736C129.599 82.693 129.879 81.9213 130.23 81.781C130.511 81.6407 130.931 81.8512 131.002 82.2019Z" fill="#0077CC"/>
<path d="M114.516 69.7813C114.375 70.0619 114.375 70.4127 113.955 70.6231C113.674 70.6933 113.393 70.6231 113.183 70.4127L114.586 69.5708C114.586 69.641 114.586 69.7111 114.516 69.7813Z" fill="#0077CC"/>
<path d="M128.898 80.4462C129.178 80.6567 129.319 80.8671 129.178 81.2179C128.968 81.7792 128.547 81.7792 127.986 81.7792C127.775 81.2881 127.424 80.9373 127.845 80.5164C128.196 80.2358 128.547 80.1656 128.898 80.4462Z" fill="#0077CC"/>
<path d="M127.074 78.3403C127.074 78.1298 127.214 77.8492 127.354 77.7089C127.986 77.2178 128.687 77.2178 129.319 77.779C129.459 77.9193 129.529 77.9895 129.67 78.1298C129.88 77.9193 130.09 77.6387 130.301 77.4282C130.722 77.0775 131.002 77.0775 131.423 77.4282C131.844 77.779 131.985 78.1999 131.774 78.691C131.634 79.1821 131.213 79.3224 130.792 79.3926C130.441 79.3926 130.161 79.3224 129.81 79.2523C129.67 79.3926 129.599 79.4627 129.459 79.603C128.968 80.024 128.196 80.1643 127.775 79.8135C127.284 79.5329 127.074 78.9717 127.074 78.3403Z" fill="#0077CC"/>
<path d="M125.109 83.3221C125.249 83.3923 125.46 83.5326 125.39 83.743C125.319 83.9535 125.109 83.9535 125.039 83.8833C124.899 83.8132 124.548 83.6027 124.688 83.3923C124.688 83.252 125.039 83.3221 125.109 83.3221Z" fill="#0077CC"/>
<path d="M124.758 79.7436C125.039 79.6033 125.46 79.8839 125.6 80.1645C125.74 80.5153 125.53 80.7258 124.758 80.9363C124.127 80.6556 124.407 79.8839 124.758 79.7436Z" fill="#0077CC"/>
<path d="M111.148 88.8657C110.657 88.5851 110.517 88.1641 110.798 87.5327C111.078 87.0416 111.499 86.9013 112.131 87.2521C112.552 87.4626 112.762 87.8835 112.622 88.2343C112.481 88.585 111.569 89.0761 111.148 88.8657Z" fill="#0077CC"/>
<path d="M44.9917 118.259C44.5708 117.979 44.4304 117.558 44.6409 117.137C44.8514 116.786 45.4126 116.646 45.6932 116.856C46.044 117.067 46.1843 117.698 45.9037 118.049C45.6932 118.329 45.3425 118.47 44.9917 118.259Z" fill="#0077CC"/>
<path d="M45.6938 121.065C45.4132 120.925 45.2729 120.644 45.4833 120.364C45.6938 120.083 45.9043 119.873 46.3252 120.083C46.6058 120.223 46.676 121.065 46.4655 121.206C46.255 121.276 45.9043 121.136 45.6938 121.065Z" fill="#0077CC"/>
<path d="M49.6223 113.347C49.1312 113.067 48.9909 112.435 49.4118 111.874C49.6924 111.383 50.2537 111.383 50.8149 111.734C51.306 112.014 51.4463 112.435 51.2359 112.856C51.0254 113.207 50.0432 113.558 49.6223 113.347Z" fill="#0077CC"/>
<path d="M52.3584 112.717C52.0777 112.646 51.8673 112.085 52.1479 111.875C52.2882 111.734 52.639 111.734 52.8494 111.805C52.9897 111.875 53.3405 112.296 53.2704 112.576C53.1301 112.787 52.5688 112.787 52.3584 112.717Z" fill="#0077CC"/>
<path d="M51.5872 121.836C51.3066 121.626 51.1663 121.064 51.3767 120.784C51.5872 120.433 52.0082 120.363 52.3589 120.503C52.7799 120.714 52.9202 121.275 52.7097 121.626C52.4992 121.906 51.938 122.047 51.5872 121.836Z" fill="#0077CC"/>
<path d="M50.8158 117.627C50.465 117.487 50.3247 116.996 50.465 116.715C50.6754 116.364 51.0964 116.224 51.5173 116.364C51.9382 116.575 52.0084 116.855 51.7979 117.276C51.5875 117.697 51.2367 117.837 50.8158 117.627Z" fill="#0077CC"/>
<path d="M68.5641 105.21C68.494 105.21 68.3537 104.93 68.4238 104.86C68.494 104.719 68.7746 104.649 68.9149 104.649C69.0552 104.649 69.2657 105 69.1955 105.21C69.0552 105.351 68.7044 105.281 68.5641 105.21Z" fill="#0077CC"/>
<path d="M65.2667 99.8084C65.1965 99.8084 65.0562 99.8084 64.9861 99.8084L66.8802 98.6859C67.231 98.8964 67.3713 99.177 67.1608 99.5278C67.0907 99.6681 66.9504 99.8084 66.8101 99.8785C67.0205 99.8785 67.231 100.019 67.3713 100.159C67.5818 100.51 67.4415 101.071 67.0907 101.282C66.7399 101.492 66.3891 101.422 66.1085 101.071C65.8279 100.65 65.8981 100.159 66.2488 99.9487C66.1787 99.9487 66.1085 99.9487 66.0384 99.8785C65.7578 99.8785 65.4771 99.7382 65.2667 99.8084Z" fill="#0077CC"/>
<path d="M67.0205 108.227C67.0906 108.297 67.1608 108.437 67.1608 108.648C67.3712 108.928 67.6519 109.349 67.5115 109.56C67.3712 109.84 66.5995 109.63 66.5995 109.489V109.419C66.3189 109.279 65.9681 108.998 65.8278 108.858C65.6875 108.648 65.6875 108.086 65.9682 107.876C66.2488 107.665 66.81 107.946 67.0205 108.227Z" fill="#0077CC"/>
<path d="M65.7581 103.248C66.0387 103.108 66.3895 102.967 66.6701 103.318C66.8806 103.599 66.5999 104.37 66.3895 104.37C66.1089 104.441 65.8984 104.23 65.6879 104.02C65.4073 103.739 65.4073 103.388 65.7581 103.248Z" fill="#0077CC"/>
<path d="M73.5449 95.0394C73.7554 95.3902 73.6853 95.741 73.3345 95.9514C72.9837 96.1619 72.4926 96.0216 72.2822 95.741C72.212 95.6708 72.212 95.5305 72.212 95.4603L73.3345 94.7588C73.3345 94.8289 73.4748 94.8991 73.5449 95.0394Z" fill="#0077CC"/>
<path d="M64.0044 103.244C63.6537 103.104 63.4432 102.613 63.6537 102.332C63.8641 102.121 64.3552 101.701 64.6358 101.911C64.9165 102.121 64.7761 102.613 64.706 102.823C64.5657 103.174 64.3552 103.384 64.0044 103.244Z" fill="#0077CC"/>
<path d="M61.1976 104.93C61.408 104.579 61.8991 104.439 62.2499 104.579C62.6007 104.79 62.741 105.211 62.5305 105.632C62.32 106.053 61.8991 106.193 61.5483 105.983C61.1274 105.702 60.9871 105.281 61.1976 104.93Z" fill="#0077CC"/>
<path d="M52.2184 108.159C52.0781 108.088 51.9378 107.948 51.8676 107.808L53.6917 106.685C53.9723 107.036 54.0424 107.527 53.832 107.808C53.6215 108.229 52.6393 108.439 52.2184 108.159Z" fill="#0077CC"/>
<path d="M60.0053 102.823L61.3382 101.981C61.4786 102.261 61.4786 102.612 61.2681 102.823C61.0576 103.173 60.6367 103.244 60.2158 102.963C60.1456 102.963 60.0755 102.893 60.0053 102.823Z" fill="#0077CC"/>
<path d="M60.3569 112.437C60.2867 112.367 60.2166 112.297 60.2867 112.156C60.3569 112.016 60.4972 112.016 60.5673 112.086C60.7076 112.156 60.6375 112.367 60.6375 112.367C60.6375 112.437 60.427 112.437 60.3569 112.437Z" fill="#0077CC"/>
<path d="M60.4966 106.823C60.4265 106.753 60.4265 106.402 60.5668 106.332C60.7071 106.262 61.0579 106.122 61.1982 106.262C61.3385 106.473 61.128 106.753 61.0579 106.823C60.8474 107.034 60.5668 106.964 60.4966 106.823Z" fill="#0077CC"/>
<path d="M30.4703 132.57C29.9792 132.711 29.4179 132.29 29.2776 131.729C29.1373 131.167 29.3478 130.817 29.7687 130.746C30.4001 130.536 31.242 130.957 31.3823 131.448C31.5226 131.869 31.0315 132.5 30.4703 132.57Z" fill="#0077CC"/>
<path d="M30.26 124.994C29.9092 124.784 29.7689 124.363 29.9794 123.942C30.1898 123.662 30.6108 123.451 30.9616 123.662C31.3123 123.872 31.4526 124.293 31.2422 124.714C31.0317 125.065 30.6809 125.205 30.26 124.994Z" fill="#0077CC"/>
<path d="M34.6789 125.836C34.8192 126.186 34.5386 126.607 34.1878 126.678C33.7669 126.818 33.2758 126.537 33.2057 126.186C33.1355 125.836 33.346 125.415 33.6968 125.274C34.0475 125.274 34.5386 125.555 34.6789 125.836Z" fill="#0077CC"/>
<path d="M36.0122 133.06C35.5912 133.13 35.3106 132.99 35.1002 132.569C34.9599 132.218 35.1703 131.797 35.5211 131.727C35.8719 131.657 36.2928 131.867 36.4331 132.218C36.5734 132.569 36.3629 133.06 36.0122 133.06Z" fill="#0077CC"/>
<path d="M34.1178 121.064C34.3984 120.994 34.7492 121.556 34.8895 121.836C35.0298 122.117 34.679 122.468 34.3282 122.538C33.9775 122.608 33.6968 122.468 33.6968 122.117C33.6968 121.836 33.8372 121.135 34.1178 121.064Z" fill="#0077CC"/>
<path d="M28.9261 128.011C28.5052 128.011 28.2246 127.8 28.1545 127.38C28.0843 126.748 28.7157 126.257 28.9963 126.257C29.2769 126.257 29.9083 126.818 29.768 127.38C29.6979 127.8 29.4172 128.081 28.9261 128.011Z" fill="#0077CC"/>
<path d="M21.841 126.818C22.4022 126.678 22.8933 126.888 22.9635 127.309C23.0336 127.73 22.5425 128.712 22.1918 128.853C21.6305 128.993 21.0693 128.642 20.8588 127.941C20.7887 127.379 21.1394 126.958 21.841 126.818Z" fill="#0077CC"/>
<path d="M36.3631 117.487C36.2228 117.487 36.0825 117.487 35.9422 117.487L37.2751 116.715C37.1348 117.136 36.8542 117.417 36.3631 117.487Z" fill="#0077CC"/>
<path d="M26.8219 123.519C27.1726 123.309 27.6637 123.73 27.7339 124.151C27.804 124.502 27.5234 124.852 27.1025 124.922C26.7517 124.993 26.2606 124.642 26.1905 124.081C26.4009 124.01 26.5412 123.66 26.8219 123.519Z" fill="#0077CC"/>
<path d="M25.6293 125.275C25.6995 125.065 26.2607 125.065 26.401 125.135C26.5413 125.275 26.7518 125.626 26.6816 125.766C26.6115 125.906 26.1905 126.047 26.0502 125.977C26.0502 125.977 25.9801 125.906 25.9099 125.906C25.9099 125.977 25.9801 125.977 25.9801 126.047C26.0502 126.468 25.8397 126.889 25.4188 126.959C24.9979 127.029 24.5068 126.748 24.5068 126.327C24.4367 125.906 24.7173 125.486 25.1382 125.415C25.3487 125.345 25.5591 125.486 25.7696 125.626C25.6293 125.486 25.5591 125.345 25.6293 125.275Z" fill="#0077CC"/>
<path d="M36.3625 120.644C36.5028 120.784 36.5028 121.065 36.4327 121.205C36.3625 121.346 36.0819 121.556 35.9416 121.486C35.8013 121.346 35.7311 121.135 35.8013 120.995C35.8013 120.784 36.1521 120.504 36.3625 120.644Z" fill="#0077CC"/>
<path d="M36.2224 124.994C36.1522 125.134 35.7313 125.064 35.591 125.064C35.5208 125.064 35.4507 124.713 35.4507 124.713C35.591 124.573 35.8014 124.502 35.9418 124.502C36.0821 124.502 36.2925 124.923 36.2224 124.994Z" fill="#0077CC"/>
<path d="M141.946 76.307C141.946 75.9563 142.086 75.6757 142.437 75.6757C142.718 75.6757 143.349 75.8861 143.419 76.1667C143.489 76.4474 142.788 76.728 142.507 76.7981C142.227 76.8683 141.946 76.6578 141.946 76.307Z" fill="#0077CC"/>
<path d="M82.384 89.4965C82.5243 90.0577 81.963 90.9697 81.1913 91.0399C80.7002 91.0399 80.3495 90.8996 80.0688 90.6891C79.9987 90.7593 79.9987 90.7593 79.9285 90.8294C79.7181 90.9697 79.5076 91.0399 79.2971 91.11L82.2436 89.286C82.3839 89.286 82.384 89.3562 82.384 89.4965Z" fill="#0077CC"/>
<path d="M106.447 95.3183C106.167 95.178 105.956 94.4764 106.237 94.1958C106.517 93.9152 107.149 93.845 107.359 94.3361C107.429 94.5466 107.079 94.8973 106.868 95.2481C106.868 95.2481 106.728 95.4586 106.447 95.3183Z" fill="#0077CC"/>
<path d="M107.57 86.4808C107.5 86.2704 107.57 85.9196 107.64 85.7793C107.711 85.639 108.061 85.5688 108.272 85.639C108.623 85.7091 109.044 85.9196 109.394 86.0599C109.675 86.2002 109.745 86.4107 109.535 86.7615C109.464 86.7615 109.324 86.9018 109.184 86.8316C108.833 86.6913 108.482 86.7615 108.132 86.9018C107.991 86.9719 107.64 86.6913 107.57 86.4808Z" fill="#0077CC"/>
<path d="M106.798 83.3917C106.447 83.3215 106.026 82.6199 106.097 82.2692C106.167 81.9886 106.798 81.6378 107.149 81.7079C107.5 81.7781 107.64 82.1289 107.57 82.4796C107.43 83.111 107.079 83.4618 106.798 83.3917Z" fill="#0077CC"/>
<path d="M109.604 80.5845C109.815 80.1636 110.727 79.9531 111.148 80.2337C111.498 80.4442 111.639 81.2861 111.428 81.6368C111.218 81.9876 110.657 82.1279 110.376 81.9876C109.674 81.4965 109.324 81.0054 109.604 80.5845Z" fill="#0077CC"/>
<path d="M110.447 92.3717C110.166 92.2314 110.026 91.9508 110.166 91.6C110.306 91.2492 110.587 91.0388 110.938 91.1791C111.289 91.3194 111.499 91.7403 111.289 92.0911C111.078 92.4419 110.727 92.512 110.447 92.3717Z" fill="#0077CC"/>
<path d="M108.693 90.1275C108.342 89.9171 108.202 89.4962 108.412 89.0752C108.623 88.7245 109.114 88.514 109.394 88.6543C109.745 88.7946 110.026 89.4962 109.885 89.7768C109.745 90.1275 109.044 90.338 108.693 90.1275Z" fill="#0077CC"/>
<path d="M100.555 93.1447C100.414 93.0044 100.695 92.7237 100.765 92.5834C100.835 92.5133 101.116 92.5133 101.186 92.6536C101.256 92.7939 101.186 93.0044 101.046 93.1447C100.976 93.2148 100.695 93.285 100.555 93.1447Z" fill="#0077CC"/>
<path d="M98.8014 83.9541C98.17 83.6735 97.8192 82.972 98.0998 82.3406C98.3805 81.639 99.3626 81.1479 100.134 81.4286C100.766 81.7092 101.187 82.7615 100.906 83.3929C100.625 84.0944 99.7836 84.3049 98.8014 83.9541Z" fill="#0077CC"/>
<path d="M101.187 79.4625C100.766 79.252 100.626 78.8311 100.836 78.4803C101.047 78.1296 101.468 78.0594 101.818 78.2699C102.169 78.4803 102.31 78.9714 102.099 79.3222C101.818 79.673 101.538 79.673 101.187 79.4625Z" fill="#0077CC"/>
<path d="M105.817 89.1452C105.325 88.9348 104.975 88.3034 105.115 87.9526C105.325 87.5317 106.027 87.1809 106.378 87.3212C106.799 87.5317 106.939 88.2332 106.658 88.7945C106.448 89.2154 106.167 89.2856 105.817 89.1452Z" fill="#0077CC"/>
<path d="M115.919 84.5153C115.638 84.375 115.568 84.2347 115.498 84.0242C115.428 83.8138 115.288 83.6734 115.288 83.3227C115.358 82.9719 115.568 82.4107 116.059 82.2002C116.55 81.9897 116.971 82.0599 117.322 82.2703C117.673 82.4808 117.743 82.9719 117.673 83.2525C117.603 83.5331 117.462 84.0944 117.041 84.2347C116.62 84.3048 116.2 84.6556 115.919 84.5153Z" fill="#0077CC"/>
<path d="M120.9 89.8475C120.269 89.7072 120.128 89.4266 120.128 88.725C119.778 88.3742 119.357 88.0235 119.076 87.6727C118.795 87.3219 119.076 86.7607 119.497 86.8308C119.988 86.901 120.62 86.901 121.04 87.3921C121.04 87.6025 121.04 87.8832 121.04 88.1638C121.602 88.5847 121.882 89.2161 121.672 89.5669C121.532 89.7773 121.251 89.9176 120.9 89.8475Z" fill="#0077CC"/>
<path d="M118.233 92.3706C117.742 92.2303 117.461 91.5989 117.672 91.2481C117.882 90.8974 119.145 91.1078 119.356 91.4586C119.496 91.8795 118.654 92.5811 118.233 92.3706Z" fill="#0077CC"/>
<path d="M112.551 84.5855C112.271 85.0064 111.499 85.1467 110.938 84.7959C110.377 84.5153 110.306 84.0242 110.657 83.3227C110.868 82.9719 111.499 82.7614 111.85 82.9017C112.341 83.1824 112.762 84.2347 112.551 84.5855Z" fill="#0077CC"/>
<path d="M120.83 77.7111C120.479 77.5007 119.707 77.2902 119.707 76.729C119.707 76.1677 120.198 76.2379 120.409 76.0976C120.97 75.6065 121.882 75.7468 122.163 76.2379C122.373 76.729 122.303 77.1499 121.952 77.5708C121.672 77.9918 121.18 77.9216 120.83 77.7111Z" fill="#0077CC"/>
<path d="M121.04 80.9371C121.251 81.0073 121.391 81.2178 121.251 81.7088C121.11 82.1999 120.83 82.4806 120.339 82.4104C119.777 82.3402 119.286 81.7089 119.356 81.0775C119.426 80.4461 119.847 80.3759 119.847 79.955C119.847 79.534 120.128 79.3937 120.549 79.3236C120.97 79.2534 121.671 79.1131 121.742 79.7445C121.812 80.3759 121.461 80.5162 121.251 80.5162C121.04 80.5162 120.83 80.867 121.04 80.9371Z" fill="#0077CC"/>
<path d="M117.251 90.1269C117.041 89.9866 117.111 89.7761 117.111 89.7059C117.181 89.5656 117.391 89.3552 117.672 89.4253C117.953 89.4955 117.812 89.9164 117.742 89.9866C117.672 90.1269 117.461 90.2672 117.251 90.1269Z" fill="#0077CC"/>
<path d="M111.499 78.4099C110.867 78.1293 110.797 77.7785 111.078 77.1471C111.358 76.5157 111.779 76.3052 112.2 76.5157C112.621 76.7262 112.972 77.7083 112.832 78.0591C112.621 78.48 112.06 78.6203 111.499 78.4099Z" fill="#0077CC"/>
<path d="M112.27 72.7998C111.709 73.7118 111.358 73.7118 110.306 73.361C109.955 73.2207 109.744 72.9401 109.674 72.5893L111.779 71.2563C112.41 71.537 112.621 72.2385 112.27 72.7998Z" fill="#0077CC"/>
<path d="M114.235 76.5169C113.955 75.9557 114.025 75.3243 114.516 74.9735C114.726 74.8332 115.077 74.763 115.288 74.8332C116.059 75.0437 116.41 75.6049 116.34 76.5871C116.059 76.7274 115.779 76.9378 115.498 77.008C115.007 77.1483 114.446 76.9378 114.235 76.5169Z" fill="#0077CC"/>
<path d="M99.5015 87.1809C99.5015 87.3212 99.4314 87.4615 99.4314 87.5317C99.2209 87.8825 98.5194 88.0929 98.0984 87.8825C97.3969 87.5317 97.1864 86.9003 97.5372 86.3391C97.8178 85.7778 98.4492 85.4972 98.8701 85.7778C99.1508 85.9883 99.4314 86.2689 99.5015 86.6197C99.5717 86.5495 99.9926 86.4092 100.133 86.5495C100.273 86.6898 100.063 87.0406 99.9225 87.1108C99.7822 87.1809 99.6418 87.2511 99.5015 87.1809Z" fill="#0077CC"/>
<path d="M87.2255 93.5648C86.8747 93.7753 86.4538 93.7051 86.1732 93.2842C85.8925 92.8633 85.9627 92.3722 86.3836 92.1617C86.7344 91.9513 87.2956 92.1617 87.5061 92.5125C87.7166 92.8633 87.5763 93.3544 87.2255 93.5648Z" fill="#0077CC"/>
<path d="M80.0699 100.018C79.7192 100.088 78.9474 99.9477 78.9474 99.2462C79.5788 98.1939 78.737 98.0536 78.8773 97.2117C78.8773 97.0714 79.0176 96.9311 79.0877 96.8609C79.649 96.1594 80.4908 96.2997 80.8416 97.1415C81.0521 97.6326 81.1222 98.1939 81.1924 98.685C81.2625 99.2462 80.6312 99.8776 80.0699 100.018Z" fill="#0077CC"/>
<path d="M76.8433 94.757C76.4224 94.1256 76.5627 93.5644 77.1239 93.2136C77.6852 92.8628 78.2464 93.0031 78.5972 93.5644C78.948 94.0554 78.8778 94.8271 78.4569 95.1078C78.0359 95.3884 77.0538 95.1779 76.8433 94.757Z" fill="#0077CC"/>
<path d="M77.5448 105.842C77.3343 105.561 77.4746 105 77.7552 104.79C78.1762 104.509 78.6672 104.579 78.8777 104.93C79.0882 105.281 79.018 105.772 78.6672 106.052C78.3165 106.333 77.8254 106.263 77.5448 105.842Z" fill="#0077CC"/>
<path d="M81.6133 95.0375C81.1924 95.1077 80.6311 94.336 80.8416 94.0553C81.0521 93.7747 81.9641 93.8449 82.0343 94.2658C82.1044 94.5464 81.8939 94.9673 81.6133 95.0375Z" fill="#0077CC"/>
<path d="M81.6831 91.5314C81.7532 91.3911 82.0339 91.1806 82.1742 91.2508C82.3846 91.3209 82.7354 91.5314 82.8056 91.7418C82.9459 92.1628 82.5249 92.3031 82.1742 92.4434C81.7532 92.3031 81.5428 92.0225 81.6831 91.5314Z" fill="#0077CC"/>
<path d="M123.425 73.5003C123.285 74.1317 122.443 74.1317 122.022 74.693C121.04 75.9558 119.987 75.3945 119.286 74.6228C119.005 74.3422 118.935 73.9914 118.865 73.6406C118.795 73.1496 119.005 72.7286 119.426 72.3779C119.777 71.9569 119.777 71.3957 120.268 71.1852C120.969 70.9046 122.162 70.7643 122.934 71.7465C123.074 71.9569 123.214 72.1674 123.285 72.3779C123.355 72.0972 123.565 71.8166 123.846 71.8166C124.197 71.7465 124.618 72.0972 124.688 72.3779C124.758 72.7286 124.407 73.2197 124.126 73.2899C123.916 73.36 123.635 73.2197 123.495 73.0093C123.425 73.2197 123.425 73.36 123.425 73.5003Z" fill="#0077CC"/>
<path d="M71.7207 102.895C71.5103 102.614 71.5103 102.123 71.7909 101.912C72.0715 101.632 72.5626 101.702 72.8432 101.983C73.1238 102.333 73.1238 102.684 72.7731 102.965C72.4223 103.245 72.0014 103.245 71.7207 102.895Z" fill="#0077CC"/>
<path d="M82.455 107.245C82.2445 107.104 82.1042 106.543 82.5252 106.192C82.6655 106.122 83.0162 106.052 83.1565 106.192C83.2969 106.333 83.5073 106.613 83.5073 106.824C83.367 107.315 82.7356 107.385 82.455 107.245Z" fill="#0077CC"/>
<path d="M70.809 107.034C70.5985 106.683 70.7388 106.192 71.0195 105.981C71.3702 105.771 71.7912 105.841 72.0017 106.122C72.2823 106.472 72.2121 107.034 71.8613 107.314C71.5106 107.455 70.9493 107.384 70.809 107.034Z" fill="#0077CC"/>
<path d="M72.3519 98.5471C72.0011 98.0561 72.1414 97.4948 72.7027 97.0739C72.843 96.9336 72.9833 96.9336 73.1937 96.9336C73.1937 96.7933 73.2639 96.7231 73.2639 96.653C73.3341 96.5828 73.5445 96.4425 73.6848 96.5127C73.8251 96.5828 73.8252 96.8634 73.755 97.0037L73.6848 97.0739C73.8251 97.144 73.9655 97.2844 74.0356 97.4948C74.3162 97.9157 74.3162 98.4068 73.9655 98.6875C73.6848 98.9681 72.6325 98.8278 72.3519 98.5471Z" fill="#0077CC"/>
<path d="M69.7568 100.93C69.7568 100.93 69.7568 100.86 69.7568 100.93C69.4761 100.86 69.1955 100.72 69.0552 100.439C68.7746 99.9479 68.7746 99.3165 69.1254 99.106C69.2657 99.0359 69.4761 98.9657 69.6164 98.9657V98.8956C70.0374 98.3343 71.4405 98.194 72.0719 98.8254C72.4928 99.3165 71.9316 99.8777 71.5106 99.9479C71.0897 100.018 71.23 100.018 71.0195 100.509C70.8091 101 70.3882 101.421 69.7568 100.93Z" fill="#0077CC"/>
<path d="M82.8058 101.984C82.7357 102.054 82.5954 101.984 82.5252 101.913C82.5252 101.843 82.4551 101.703 82.5252 101.633C82.5954 101.563 82.7357 101.563 82.876 101.703C83.0163 101.843 82.876 101.984 82.8058 101.984Z" fill="#0077CC"/>
<path d="M88.4888 90.9699C88.0678 90.7594 87.9275 90.4086 88.138 90.0578C88.3484 89.6369 88.9798 89.2861 89.2605 89.4264C89.5411 89.5668 89.6814 90.2683 89.4709 90.6191C89.3306 91.04 88.8395 91.1803 88.4888 90.9699Z" fill="#0077CC"/>
<path d="M86.2424 88.233C85.9618 87.8121 85.8916 87.3912 85.9618 87.0404L87.5753 86.0582C87.8559 86.1284 88.1366 86.3388 88.347 86.6896C88.4873 86.9001 88.5575 87.1105 88.6276 87.2509C88.7679 87.1105 88.9083 87.0404 89.1187 87.0404C89.6098 87.0404 90.0307 87.6718 89.9606 88.1629C89.8904 88.5838 89.4695 89.145 89.0486 89.2152C88.4172 89.2854 88.0664 88.7943 87.9962 88.5838C87.435 88.8644 86.5931 88.7241 86.2424 88.233Z" fill="#0077CC"/>
<path d="M98.5203 92.3727C98.7308 92.4429 98.6606 92.7937 98.5905 92.934C98.5905 93.0041 98.3099 93.1444 98.1696 93.0743C98.0292 93.0041 98.0293 92.7235 98.0293 92.5832C98.0994 92.513 98.3099 92.2324 98.5203 92.3727Z" fill="#0077CC"/>
<path d="M97.749 94.9678C97.3281 94.8275 97.4684 94.9678 97.1176 95.2484C96.7668 95.529 96.1354 95.8096 95.7847 95.1081C95.4339 94.4065 95.925 93.5647 96.4862 93.2139C97.1176 92.793 98.4506 93.284 98.7312 94.1259C98.9416 94.6871 98.1699 95.0379 97.749 94.9678Z" fill="#0077CC"/>
<path d="M89.822 86.2679C89.5413 85.9171 89.6115 85.3559 89.9623 85.1454C90.313 84.9349 90.734 85.0752 91.0146 85.426C91.2251 85.7768 91.1549 86.1977 90.8743 86.4082C90.5235 86.6888 90.1026 86.6186 89.822 86.2679Z" fill="#0077CC"/>
<path d="M84.6297 100.367C84.3491 100.017 84.6297 99.3151 85.1208 98.9643C85.682 98.6135 86.2432 98.7538 86.594 99.3151C86.9448 99.8763 86.8746 100.508 86.4537 100.718C85.8925 101.069 85.0506 100.858 84.6297 100.367Z" fill="#0077CC"/>
<path d="M83.6473 88.7242C83.5771 88.6541 83.5771 88.5839 83.5771 88.5138L84.7697 87.7421C85.0504 88.0928 85.0504 88.5839 84.6996 88.7944C84.419 89.075 83.8577 89.0049 83.6473 88.7242Z" fill="#0077CC"/>
<path d="M86.243 96.4403C85.9623 96.0895 86.0325 95.5985 86.3833 95.388C86.6639 95.1775 87.2251 95.2477 87.5057 95.5283C87.7864 95.8089 87.6461 96.3 87.2953 96.5806C86.8744 96.8613 86.4534 96.7911 86.243 96.4403Z" fill="#0077CC"/>
<path d="M97.1182 88.5148C96.9077 88.585 96.5569 88.5148 96.4166 88.5148C96.136 88.0939 96.3465 87.6028 96.6271 87.4625C96.9077 87.3222 97.1182 87.4625 97.2585 87.6729C97.4689 88.0237 97.3988 88.3745 97.1182 88.5148Z" fill="#0077CC"/>
</g>
</svg>
