<?xml version="1.0" encoding="utf-8"?>
<!-- Generator: Adobe Illustrator 25.1.0, SVG Export Plug-In . SVG Version: 6.00 Build 0)  -->
<svg version="1.1" id="Layer_1" xmlns="http://www.w3.org/2000/svg" xmlns:xlink="http://www.w3.org/1999/xlink" x="0px" y="0px"
	 viewBox="0 0 560 300" style="enable-background:new 0 0 560 300;" xml:space="preserve">
<style type="text/css">
	.st0{clip-path:url(#SVGID_2_);}
	.st1{clip-path:url(#SVGID_4_);}
	.st2{fill:#7DE2D1;}
	.st3{fill:#42D4C6;}
	.st4{clip-path:url(#SVGID_6_);}
	.st5{fill:#E6EBF2;}
	.st6{clip-path:url(#SVGID_8_);}
	.st7{fill:none;}
</style>
<g>
	<g>
		<defs>
			<rect id="SVGID_1_" x="293" width="267" height="219"/>
		</defs>
		<clipPath id="SVGID_2_">
			<use xlink:href="#SVGID_1_"  style="overflow:visible;"/>
		</clipPath>
		<g class="st0">
			<g>
				<g>
					<defs>
						<rect id="SVGID_3_" x="293" y="-29" width="266.6" height="174"/>
					</defs>
					<clipPath id="SVGID_4_">
						<use xlink:href="#SVGID_3_"  style="overflow:visible;"/>
					</clipPath>
					<g class="st1">
						<path class="st2" d="M348.1,34.7c30.3,0,126,0,156.3,0c30.4,0,55.1,24.7,55.1,55.1S534.9,145,504.4,145
							c-16.1,0-140.2,0-156.3,0c-30.4,0-55.1-24.7-55.1-55.1C293,59.4,317.7,34.7,348.1,34.7z"/>
						<path class="st2" d="M427,127.4c43.2,0,78.2-35,78.2-78.2S470.2-29,427-29s-78.2,35-78.2,78.2S383.8,127.4,427,127.4z"/>
						<path class="st3" d="M497.8,19.6c0.6-0.3,0.7-1.3,0.3-2.1c-0.5-0.9-1.2-1.1-2.2-0.6c-0.8,0.4-1.2,1.3-0.9,1.9
							C495.4,19.7,496.9,20.1,497.8,19.6z"/>
						<path class="st3" d="M493.8,30.7c-0.1-0.9-0.5-1.1-1.1-1.1s-0.9,0.4-1,0.9c-0.2,0.5-0.4,1.1-0.6,1.6c-0.2,0.6-0.5,1.2,0.1,1.8
							c0.1,0.1,0.1,0.4,0.1,0.6c-0.1,0.8-0.1,1.3,0.1,1.6c0,0.1-0.1,0.2-0.1,0.2v0.1c0.9-0.2,1.8-0.4,2.7-0.6
							c0.1-0.5,0.4-0.9,0.7-1.3c0.9-1,0.7-2.3-0.4-3.2C494.1,31,493.9,30.8,493.8,30.7z"/>
						<path class="st3" d="M496.6,13.5c-0.1-0.3-0.3-0.5-0.4-0.8c0,0.2,0,0.3,0.1,0.5C496.4,13.3,496.5,13.4,496.6,13.5z"/>
						<path class="st3" d="M487,6.6c-0.6,0.3-1,1.6-0.6,2.2c0.3,0.6,1.5,0.8,2.1,0.5c0.5-0.3,0.8-1.1,0.6-1.5
							C488.6,6.8,487.7,6.3,487,6.6z"/>
						<path class="st3" d="M486.8,12.7c-0.5,0.4-0.6,0.9-0.4,1.4c0.3,0.7,1.1,1.3,1.7,1.1c1.1-0.4,1.1-1.6,1-2.3
							C489.1,12.4,487.6,12.1,486.8,12.7z"/>
						<path class="st3" d="M492.3,13.1c0.6-0.3,0.8-0.8,0.6-1.3c-0.3-0.6-0.9-0.9-1.5-0.6c-0.5,0.3-0.8,1-0.5,1.5
							C491.2,13.2,491.8,13.3,492.3,13.1z"/>
						<path class="st3" d="M494.1,9c-0.6-0.9-1.2-1.9-1.8-2.8c-0.2,0.4-0.2,0.9,0,1.4C492.6,8.3,493.3,8.8,494.1,9z"/>
						<path class="st3" d="M488.8,18.2c-0.3,0.6,0.9,2,1.1,2.2c0.3,0.1,1.2,0.1,1.1,0.8c-0.1,0.6-0.6,1.2-0.3,1.9
							c0.3,0.7,1,2.1,2,2.1s0.8-0.9,1.2-1.4s0.5-1.3-0.1-1.9s-1.4-0.9-1.6-1.2c-0.2-0.4-0.2-0.9,0.4-1.1s1.1-1,0.7-2.3
							c-0.5-1.2-2.1-1.6-2.6-0.8c-0.5,0.8-0.2,1.3-0.6,1.4S489.1,17.6,488.8,18.2z"/>
						<path class="st3" d="M449.5,94.6c-0.1-1.4-0.2-2.8-0.2-4.2c-1.2,0.6-1.4,1.9-1,3C448.4,93.8,448.9,94.2,449.5,94.6z"/>
						<path class="st3" d="M447.2,107.7c1,0.1,1.6-0.3,1.7-0.8c0.1-0.7-0.4-1.4-1.1-1.4c-0.6,0-1.1,0.4-1.1,1.1
							C446.6,107,446.6,107.6,447.2,107.7z"/>
						<path class="st3" d="M450.3,100.5c-0.2-1.1-0.4-2.3-0.5-3.4c-0.4,0.2-0.6,0.7-0.7,1.3C448.9,99.3,449.4,100.1,450.3,100.5z"/>
						<path class="st3" d="M498.2,27.8c-0.8,0.5-1.4,1-1.6,1.8c-0.3,0.9,0,2.3,0.9,2.8s2.4,0.3,2.6,0.6c0.2,0.2-0.2,1.1-0.1,2
							c1.3-0.1,2.5-0.2,3.8-0.2c-0.2-1.1-0.4-2.2-0.7-3.3c-0.4,0-0.8,0-0.9-0.1c-0.2-0.2,0.4-1.9-0.3-3
							C501.2,27.3,499,27.2,498.2,27.8z"/>
						<path class="st3" d="M451.3,104.7c-0.2-0.6-0.3-1.2-0.5-1.8c-0.2,0.2-0.3,0.5-0.4,0.8C450.4,104.2,450.8,104.5,451.3,104.7z"
							/>
						<path class="st3" d="M497,23.8c-0.5,0.3-0.7,0.8-0.4,1.3c0.2,0.4,0.7,0.8,1.1,0.8c0.9,0,1.3-0.8,1.2-1.4
							c0.3,0.3,0.5,0.6,0.7,1.1c0.1,0.3,0.6,0.5,0.9,0.5c0.4,0,0.8,0.1,1.2,0.2c-0.4-1.5-0.9-2.9-1.5-4.3c-0.1,0-0.2,0-0.3-0.1
							c-0.7,0-1.1,0.4-1.4,1c-0.2,0.3-0.3,0.7-0.2,0.9C498.1,23.6,497.5,23.6,497,23.8z"/>
						<path class="st3" d="M457.5,119.2c0.1,0,0.2,0,0.3-0.1c-0.3-0.5-0.6-1-0.9-1.5c-0.1,0.1-0.2,0.2-0.3,0.3
							C456.5,118.6,456.7,119.2,457.5,119.2z"/>
						<path class="st3" d="M476.5,7c0.2-0.1,0.1-0.2,0.1-0.4c-0.2-0.1-0.3-0.2-0.4-0.2s-0.2,0.3-0.1,0.3C476.2,6.8,476.4,7,476.5,7z
							"/>
						<path class="st3" d="M471.2,17.6c0.3-0.3,0.5-0.8,0.5-1.2s-0.9-0.7-1.3-0.4c-0.3,0.2-0.4,0.6-0.4,0.8
							C470.3,17.6,470.9,17.9,471.2,17.6z"/>
						<path class="st3" d="M473.8,19.4c0.5-0.2,0.7-0.8,0.3-1.2c-0.3-0.3-0.7-0.5-1-0.5s-0.9,0.9-0.7,1.3
							C472.7,19.5,473.3,19.7,473.8,19.4z"/>
						<path class="st3" d="M469.2,11.4c0.5-0.2,0.3-0.9,0.2-1.1s-0.4-0.6-0.8-0.4c-0.4,0.2-0.4,0.6-0.3,0.8
							C468.3,11,468.7,11.5,469.2,11.4z"/>
						<path class="st3" d="M473.2,32.7c0,0.1,0.1,0.2,0.2,0.3c-0.3-0.1-0.6,0-0.9,0.1c-0.9,0.2-1.4,0.8-1.9,1.5
							c-0.2,0.2-0.4,0.5-0.7,0.6c-1.1,0.4-1.5,1.1-1,2.2c-0.2,0-0.3,0-0.4,0.1c-0.4,0.3-0.5,1-0.2,1.6c0.4,0.7,1.1,1,1.7,0.7
							c0.5-0.3,0.7-1,0.4-1.5c0.3,0,0.7-0.2,1-0.5c0.4-0.3,0.8-0.6,1.4-0.6c0.9,0,1.4-0.7,1.9-1.3c0.4-0.6,0.3-1.6-0.2-2.2
							c0-0.1-0.1-0.1-0.1-0.2c0.5,0.1,1,0.1,1.4-0.1c0.6-0.3,0.7-1.2,0.3-2.1c-0.3-0.7-1.3-1.2-1.8-0.9
							C473.4,30.8,472.9,32,473.2,32.7z"/>
						<path class="st3" d="M466.9,21.6c0.3,0.1,0.6-0.5,0.6-0.6c0-0.2-0.2-0.6-0.4-0.6c-0.2-0.1-0.5,0.3-0.6,0.5
							C466.4,20.9,466.6,21.5,466.9,21.6z"/>
						<path class="st3" d="M476.3,5.6c0.3-0.4,1.2-0.8,1-1.4s-1.1-0.5-1.6-0.7c-0.1,0.1-0.2,0.2-0.3,0.2c-0.3,0.6-0.2,0.8,0.1,1.2
							C475.9,5.4,476.2,5.5,476.3,5.6z"/>
						<path class="st3" d="M466.7,30.5c-0.1,0.3,0.2,0.9,0.5,1.1c0.7,0.5,1.7-0.1,1.8-0.8c0.1-0.6-0.5-1.5-1.4-1.3
							C467.2,29.6,466.8,30.1,466.7,30.5z"/>
						<path class="st3" d="M469.1,25.7c0.5,0.7,1.8,0.8,2.6,0.3c0.4-0.3,0.7-0.6,0.5-1.1c-0.5-1.2-1-2.3-2.1-3.1
							c-0.2-0.1-0.5-0.2-0.6-0.2c-1.3-0.1-2.1,0.8-1.6,2C468.3,24.4,468.7,25,469.1,25.7z"/>
						<path class="st3" d="M476,16.1c0,1.4,0.9,2.1,2,2.2c1.6,0.1,1.4-1.6,2.4-1.1s0.2,1.1,1.6,1.7s2.7-0.4,2.5-1.4
							s-1.1-1.2-1.1-1.5c0-0.3,0.4-1.3-0.4-1.6c-1.7-0.6-1.8,1.1-2.4,1c-0.6,0-1.4-0.7-2.3-0.8C477.1,14.3,476,14.8,476,16.1z"/>
						<path class="st3" d="M486.5,0c0.3-0.1,0.6-0.3,0.8-0.6c-0.5-0.6-1-1.1-1.5-1.7c-0.5,0.2-0.7,1.2-0.3,2.1
							C485.8-0.1,486.2,0.1,486.5,0z"/>
						<path class="st3" d="M483,8.9c0.4-0.3,0.4-1.2,0.2-1.5c-0.2-0.5-0.8-0.6-1.3-0.3c-0.5,0.3-0.5,0.8-0.2,1.1
							C481.9,8.5,482.6,9.2,483,8.9z"/>
						<path class="st3" d="M485.1,4c0.2-0.2,0.4-0.7,0.3-1c-0.1-0.5-1-0.7-1.4-0.3c-0.2,0.2-0.3,0.6-0.3,0.8
							C484.1,4.2,484.8,4.4,485.1,4z"/>
						<path class="st3" d="M477.6,8.8c-0.8,0.4-1.2,1.5-0.8,2.3c0.3,0.6,1.4,0.8,2.2,0.5s1.1-1.1,0.8-1.8
							C479.4,9,478.3,8.5,477.6,8.8z"/>
						<path class="st3" d="M447.1,81.6c0,0.8-0.6,1.4-0.3,2.1c0.4,0.9,1.3,2,2.7,2.1c0.2-2.3,0.5-4.5,0.9-6.7
							c-0.4-0.1-0.7-0.1-1.1-0.1c-0.6,0-1,0.3-1.4,0.6C447.3,80.1,447.1,80.8,447.1,81.6z"/>
						<path class="st3" d="M486.9,1.9c-0.2,0.3-0.9,0.8-0.5,1.3s1.1,0.3,1.5,0.2c0.5-0.2,0.4-0.7,0.2-1.1
							C487.9,1.8,487.2,1.6,486.9,1.9z"/>
						<path class="st3" d="M462.9,40.9c0-0.2,0-0.7-0.4-0.8s-0.7,0.3-0.7,0.5c-0.1,0.2-0.1,0.9,0.4,1
							C462.6,41.8,462.9,41.2,462.9,40.9z"/>
						<path class="st3" d="M465.3,4.5c0.4-0.2,0.2-0.7,0.1-0.9c-0.1-0.1-0.5-0.2-0.7-0.1c-0.2,0.1-0.3,0.5-0.2,0.7
							C464.6,4.4,464.9,4.8,465.3,4.5z"/>
						<path class="st3" d="M485,31.6c-1.2,0.6-1.8,1.8-1.3,2.7c0.1,0.2,0.3,0.5,0.6,0.6c-0.3,0.1-0.5,0.3-0.7,0.6
							c-0.3,0.6-0.1,1.1,0.3,1.5c0.6,0.6,1.3,0.1,2-0.3c0-0.6-0.1-1.1-0.3-1.4c0.3,0,0.6,0,0.9-0.1c0.9-0.4,1.4-1.9,1-2.8
							C486.9,31.5,485.8,31.2,485,31.6z"/>
						<path class="st3" d="M467.4,49.1c-0.8-0.4-1.7-0.4-2.3,0.4c-0.5,0.8-0.6,1.5-0.3,2.1C465.6,50.7,466.5,49.9,467.4,49.1z"/>
						<path class="st3" d="M463.3,45.7c0.6-0.4,0.7-1.1,0.5-1.5c-0.3-0.4-0.6-0.3-1-0.2c-0.5,0.2-0.7,0.8-0.4,1.2
							C462.7,45.4,463.1,45.5,463.3,45.7z"/>
						<path class="st3" d="M481.3,27.6c-1.1,0.6-1.8,1.9-1.4,2.8s2,1.5,2.9,1s1.3-1.9,0.8-2.8C483.2,27.6,482.1,27.2,481.3,27.6z"/>
						<path class="st3" d="M484.5,21.2c-0.8,0.3-1.3,1.6-0.9,2.4c0.3,0.5,1.2,0.7,2,0.3c0.8-0.3,1.2-1.2,0.9-1.8
							C486.2,21.4,485.2,20.9,484.5,21.2z"/>
						<path class="st3" d="M479.7,36c0.5,1.1,1.3,1.6,2,1.2c0.5-0.3,1-1.5,0.8-2c-0.3-0.5-1.5-0.8-2.3-0.5
							C479.7,34.9,479.5,35.4,479.7,36z"/>
						<path class="st3" d="M489,24.9c0.3-0.2,0.8-0.6,0.6-1c-0.2-0.4-0.8-0.5-1.2-0.6c-0.5,0-0.7,0.7-0.5,1.1
							C488.1,25,488.6,25.1,489,24.9z"/>
						<path class="st3" d="M441,81.7c0.6,0.1,1.2-0.4,1.3-0.9c0.1-0.6-0.2-1-0.8-1.2c-0.7-0.2-1.2,0.2-1.4,0.8
							C440.1,81,440.5,81.6,441,81.7z"/>
						<path class="st3" d="M443.4,95.2c-0.1,0.6,0.2,1,0.9,1.2c0.8,0.2,1.6-0.3,1.7-1c0.2-0.6-0.3-1.4-0.9-1.5
							C444.4,93.8,443.5,94.5,443.4,95.2z"/>
						<path class="st3" d="M447.4,87.7c-0.2-0.6-1-0.9-1.9-0.7c-0.3,0.1-0.6,0.1-0.9,0.2c-0.5-0.5-1-1.1-1.6-1.3c0-0.2,0-0.3,0-0.5
							c0-0.8-1.3-1.7-2.1-1.5c-0.8,0.2-1.7,1.5-1.2,2.6c0.3,0.6,0.7,1,1.1,1.2c0,0.1,0,0.2-0.1,0.3c-0.2,1.2,0.5,1.7,1.4,2.1
							c-0.2,0.6-0.7,1.2,0.1,1.7c0.5,0.3,1,0.3,1.4-0.1c0.7-0.6,0.2-1.2-0.1-1.8c0.3-0.3,0.5-0.6,0.8-0.9c0.4,0.4,0.8,0.7,1.2,1
							c0.4-0.1,0.8-0.2,1.1-0.4C447,89.3,447.5,88.1,447.4,87.7z"/>
						<path class="st3" d="M441.5,104.8c-0.7-0.1-1.8,0.8-1.9,1.5c-0.1,0.6,0.7,1.5,1.4,1.7c0.6,0.1,1.4-0.4,1.5-0.9
							C442.7,105.9,442.3,104.9,441.5,104.8z"/>
						<path class="st3" d="M470.7,42.2c0.2,0,0.2-0.1,0.3-0.2c-0.1-0.1-0.1-0.3-0.2-0.3s-0.3,0.1-0.3,0.2
							C470.5,42,470.6,42.2,470.7,42.2z"/>
						<path class="st3" d="M487.1,29.6c0.5,1,1.9,1.5,2.7,1c1.1-0.6,1.5-1.9,1.1-2.9c-0.5-1.1-1.6-1.4-2.7-0.8
							C486.9,27.6,486.5,28.5,487.1,29.6z"/>
						<path class="st3" d="M469.5,44.6c-0.5,0.3-0.9,0.7-1,1.2s0.3,1.1,0.9,1.4c1.1-0.9,2.3-1.8,3.4-2.6c0-0.3,0-0.6-0.2-0.9
							c-0.4-1-1.2-1.2-2.2-0.7C469.9,43.4,469.5,44.1,469.5,44.6z"/>
						<path class="st3" d="M478.2,36c-0.6,0.3-0.8,1.1-0.5,1.6c0.3,0.6,1.1,0.8,1.6,0.5s0.7-1.2,0.4-1.7
							C479.4,35.9,478.7,35.7,478.2,36z"/>
						<path class="st3" d="M467.6,46.9c-0.5,0.3-0.7,0.8-0.5,1.3c0.1,0.3,0.3,0.5,0.6,0.6c0.5-0.5,1-0.9,1.6-1.4
							c0-0.1,0-0.2-0.1-0.3C468.9,46.7,468.2,46.6,467.6,46.9z"/>
						<path class="st3" d="M460.5,49.8c-0.1,0.5,0.3,1,0.9,1.1c0.5,0.1,1-0.3,1-0.8c0-0.4-0.2-0.8-0.5-1
							C461.6,49,460.6,49.4,460.5,49.8z"/>
						<path class="st3" d="M460.5,46.2c-0.3,0-0.7,0.3-0.8,0.4c-0.2,0.8,0.2,1.4,0.6,1.3c0.4-0.1,0.9-0.3,1.1-0.7
							C461.6,46.9,461,46.2,460.5,46.2z"/>
						<path class="st3" d="M462.4,33.1c0,0.2,0,0.7,0.5,0.7s0.5-0.5,0.6-0.7c0-0.2-0.3-0.5-0.5-0.5
							C462.8,32.7,462.4,32.9,462.4,33.1z"/>
						<path class="st3" d="M461.8,39.2c0.3,0.7,0.9,1,1.5,0.7s1.2-1.6,1-2.1c-0.3-0.8-1.2-1.1-2.1-0.7
							C461.5,37.5,461.4,38.3,461.8,39.2z"/>
						<path class="st3" d="M458.5,54.3c0.2,0.6,0.8,0.9,1.5,0.7c0.4-0.1,0.8-0.2,1.2-0.1c0.2,0,0.3,0.1,0.4,0.1
							c0.5-0.6,1-1.1,1.5-1.7c-0.1-0.5-0.3-0.9-0.6-1.2c-0.5-0.4-1-0.8-1.7-0.2c-0.5,0.4-1.1,0.7-1.6,1.1
							C458.6,53.2,458.3,53.7,458.5,54.3z"/>
						<path class="st3" d="M459.6,57c0,0.3,0,0.5,0,0.7c0.5-0.7,1-1.4,1.6-2.1C460.3,55.6,459.7,56,459.6,57z"/>
						<path class="st3" d="M457.9,45.4c-0.5,0.2-0.7,0.8-0.4,1.2c0.3,0.3,0.7,0.4,0.9,0.5c0.6-0.4,0.7-1.1,0.5-1.5
							C458.6,45.1,458.3,45.2,457.9,45.4z"/>
						<path class="st3" d="M451.4,71c-0.6,0.3-1.1,0.7-1.9,0.3c-0.6-0.3-1,0.2-1.2,0.7c0.3,0.8,0.9,1,1.5,0.7
							c0.5,0.7,0.8,1.3,1.2,1.7c0.1,0.1,0.3,0.2,0.4,0.2c0.4-1.3,0.8-2.6,1.3-3.9C452.3,70.7,451.8,70.8,451.4,71z"/>
						<path class="st3" d="M475.2,43.2c0.1-0.1,0.3-0.2,0.4-0.3C475.4,42.9,475.3,43,475.2,43.2z"/>
						<path class="st3" d="M479.3,40.4c-0.8-0.2-1.8,0.2-2.3,1.2c-0.1,0.2-0.2,0.5-0.3,0.7c1-0.6,2-1.1,3-1.6
							C479.6,40.5,479.4,40.5,479.3,40.4z"/>
						<path class="st3" d="M462.9,24.9c-0.2,0.4,1.5,1.4,2,1.2c0.5-0.2,0.3-1.3-0.3-1.8C463.9,23.8,463.1,24.5,462.9,24.9z"/>
						<path class="st3" d="M476.4,23.3c-0.9,0.5-1.1,1.2-0.6,2.1c0.4,0.8,1.2,1.1,1.8,0.8c0.8-0.5,1.2-1.9,0.8-2.6
							C478.1,23.1,477.1,22.9,476.4,23.3z"/>
						<path class="st3" d="M465.7,32.3c-0.6,0.2-0.9,1-0.7,1.6c0.2,0.5,0.9,0.7,1.5,0.5c0.6-0.3,0.9-0.9,0.7-1.4
							C466.9,32.4,466.3,32.1,465.7,32.3z"/>
						<path class="st3" d="M478.7,33.3c-0.6-0.1-1.1,0.2-1.2,0.8c-0.1,0.7,0.4,1.6,0.9,1.7c0.4,0,1.2-0.7,1.3-1.3
							C479.8,33.9,479.3,33.4,478.7,33.3z"/>
						<path class="st3" d="M471.7,39c-0.6,0.4-0.6,0.6-0.6,1.1s0.2,0.8,0.2,0.9c0.5-0.2,1.5,0,1.6-0.6c0.2-0.6-0.7-1.1-0.9-1.5
							C472,38.9,471.8,38.9,471.7,39z"/>
						<path class="st3" d="M434.1,88.5c0.2,0.6,1.6,0.8,1.8,0.4c0.2-0.4-0.4-1.6-1-1.5C434.4,87.5,434,88.1,434.1,88.5z"/>
						<path class="st3" d="M430.6,104.5c-0.6-0.2-1.1,0.1-1.2,0.7c-0.1,0.7,0.2,1.2,0.8,1.4c0.5,0.1,1.1-0.2,1.3-0.7
							C431.6,105.2,431.2,104.6,430.6,104.5z"/>
						<path class="st3" d="M425.4,110.5c0.5,0,1.2-0.5,1.3-1c0.1-0.6-0.3-1.1-0.8-1.2c-0.7-0.1-1.3,0.3-1.4,0.9
							C424.3,109.8,424.9,110.5,425.4,110.5z"/>
						<path class="st3" d="M436.7,110.5c-0.6-0.1-1.3,0.5-1.3,1.1c-0.1,0.6,0.3,1,0.9,1.1c0.7,0.1,1.3-0.3,1.4-0.9
							C437.7,111.2,437.2,110.6,436.7,110.5z"/>
						<path class="st3" d="M426.3,116.2c-0.3-0.1-1.6,0.3-1.7,0.8c-0.1,0.6,1.1,1.1,1.6,1.2c0.4,0,1.1-0.3,1.2-0.9
							C427.6,116.8,426.8,116.3,426.3,116.2z"/>
						<path class="st3" d="M429.2,83.4c0.6,0.1,1.2-0.3,1.3-0.9c0.1-0.5-0.4-1.2-0.9-1.4c-0.6-0.1-1.2,0.3-1.3,0.9
							C428.3,82.8,428.6,83.3,429.2,83.4z"/>
						<path class="st3" d="M432.6,122.7c-0.3,0-0.6,0.4-0.7,0.6c0,0.2,0.2,0.5,0.4,0.6c0.2,0,0.5-0.2,0.6-0.4
							S432.9,122.7,432.6,122.7z"/>
						<path class="st3" d="M437,107.5c0.1-0.9-0.8-2-1.7-2.1c-0.6-0.1-1.3,0.5-1.3,1.3c-0.1,1,0.4,1.7,1.3,1.8
							C436,108.6,436.9,108.1,437,107.5z"/>
						<path class="st3" d="M433.1,113.5c-0.5-0.1-1.3,0.7-1.2,1.1s0.5,0.6,0.9,0.7s0.9,0,0.9-0.6
							C433.7,114.1,433.7,113.6,433.1,113.5z"/>
						<path class="st3" d="M430.3,94.8c1-1.5,1.7-0.5,2.7-1.3c0.2-0.1,0.3-0.4,0.4-0.5c0.5-1.2-0.2-2.2-1.5-2.1
							c-0.8,0.1-1.5,0.3-2.3,0.5c-0.8,0.3-1.3,1.6-1,2.4C428.7,94.3,429.4,95.2,430.3,94.8z"/>
						<path class="st3" d="M424.3,62.5c0.3,0.1,0.5-0.4,0.6-0.7c0-0.1-0.2-0.5-0.4-0.5s-0.5,0.3-0.6,0.5
							C423.9,61.9,424,62.4,424.3,62.5z"/>
						<path class="st3" d="M422.1,76c0.1,0,0.5-0.1,0.5-0.3c0-0.2-0.2-0.6-0.3-0.6c-0.2-0.1-0.7,0.1-0.8,0.3
							C421.4,75.6,421.9,75.9,422.1,76z"/>
						<path class="st3" d="M424.8,91.5c0-0.1-0.1-0.4-0.3-0.4s-0.3,0.2-0.3,0.3s0.2,0.3,0.3,0.3S424.8,91.7,424.8,91.5z"/>
						<path class="st3" d="M423.7,68.3c-0.2,0.6-0.1,1.7,1.1,1.7s1.9-1.2,2.1-2.2c0.1-1-1.4-2.5-2.7-2.4c-0.9,0.1-0.9,1.3-0.4,1.8
							S423.9,67.7,423.7,68.3z"/>
						<path class="st3" d="M422.8,98.5c-0.6-0.1-1.2,0.4-1.3,1.1c-0.1,0.7,0.3,1.2,1,1.3c0.6,0.1,1.1-0.4,1.2-1
							C423.9,99.1,423.5,98.5,422.8,98.5z"/>
						<path class="st3" d="M418.4,93.8c-0.3-0.1-0.8-0.2-1,0c-0.6,0.5-0.2,1.3,0.1,1.5c0.3,0.2,1.2,0,1.3-0.7
							C418.9,94.4,418.7,93.9,418.4,93.8z"/>
						<path class="st3" d="M420.7,81c-0.4,0-1.5,0.3-1.6,0.8c-0.1,0.4,0.9,0.9,1.1,0.8c0.4-0.2,1.1-0.3,1.2-0.9
							C421.6,81.2,420.9,81,420.7,81z"/>
						<path class="st3" d="M423.5,85.8c-0.1,0.9,0.7,2,1.7,2.1c0.6,0.1,1.4-0.7,1.5-1.5c0.1-1-0.4-1.6-1.4-1.7
							S423.5,85.1,423.5,85.8z"/>
						<path class="st3" d="M452.9,109.6c0,0.1,0,0.1,0,0.2c-0.1,0.4,0.1,0.8,0.5,1C453.2,110.4,453.1,110,452.9,109.6z"/>
						<path class="st3" d="M451.6,120.3c-0.5-0.1-0.9,0.2-1.1,0.7c-0.2,0.4,0.6,1.4,1,1.3s0.6-0.4,0.8-0.8
							C452.6,121,452.2,120.4,451.6,120.3z"/>
						<path class="st3" d="M451.3,109.3c-0.2-0.5-0.6-0.8-1.1-0.8c-0.6,0-1.2,0.4-1.3,1c-0.1,0.9,0.6,1.2,1.2,1.6
							C451.3,110.4,451.6,110,451.3,109.3z"/>
						<path class="st3" d="M455.3,122.1c0.7-0.3,1.5-0.6,2.2-0.9c-0.1,0-0.1,0-0.2-0.1C456.4,121,455.7,121.4,455.3,122.1z"/>
						<path class="st3" d="M448.3,118.1c-0.6-0.1-1,0.3-1,0.8c0.1,0.4,0.1,0.8,0.4,0.9s1.2-0.4,1.2-1
							C449.1,118.2,448.7,118.1,448.3,118.1z"/>
						<path class="st3" d="M439.4,93.2c0.1-0.9-0.5-1.6-1.4-1.7s-1.9,0.5-2,1.2s0.8,1.8,1.5,1.9C438.7,94.7,439.4,94.2,439.4,93.2z"
							/>
						<path class="st3" d="M453.7,117.6c-0.3,0.2-0.3,0.5-0.3,0.9c0,0.3-0.1,0.6,0.1,0.9c0.2,0.4,0.7,0.2,1-0.2
							c0.2-0.3,0.3-1,0.1-1.3C454.3,117.4,453.8,117.5,453.7,117.6z"/>
						<path class="st3" d="M454.4,112.9c-0.2,0.3-0.2,0.6-0.1,0.9c0.2,0.4,0.5,0.7,0.9,0.7C454.9,114,454.6,113.5,454.4,112.9z"/>
						<path class="st3" d="M440.5,100.2c0-0.6-0.4-1.1-1.1-1.1c-0.6,0-1,0.3-1.1,0.9c0,0.6,0.4,1.2,1,1.3
							C439.8,101.3,440.4,100.8,440.5,100.2z"/>
						<path class="st3" d="M440.5,122.3c-0.6-0.1-1.1,0.4-1.2,1.1c-0.1,0.6,0.4,1.1,1.1,1.2s1.2-0.2,1.3-0.7
							C441.7,123.3,441,122.4,440.5,122.3z"/>
						<path class="st3" d="M439,125.6c-0.2,0-0.3,0.2-0.3,0.3s0.2,0.3,0.3,0.3s0.3-0.1,0.3-0.2S439.2,125.6,439,125.6z"/>
						<path class="st3" d="M443.6,123.5c-0.3,0-0.6,0.4-0.6,0.5c0,0.2,0,0.7,0.3,0.7s0.6-0.2,0.6-0.4
							C444,124.2,443.9,123.6,443.6,123.5z"/>
						<path class="st3" d="M444,115.7c0.1-0.6-0.5-1.3-1.1-1.3c-0.8,0-1.6,0.5-1.7,1.1c-0.1,0.8,0.6,1.9,1.3,2
							C443,117.5,443.9,116.6,444,115.7z"/>
						<path class="st3" d="M446.8,101.3c0.1-0.8-0.9-2.1-1.6-2.2c-0.8-0.1-1.6,0.6-1.8,1.4c-0.1,0.8,0.6,1.9,1.3,2
							C445.6,102.7,446.7,102.1,446.8,101.3z"/>
						<path class="st3" d="M447.7,112.4c0.1-0.3,0.1-0.9-0.1-1c-0.3-0.3-0.9-0.5-1.3-0.4c-0.8,0.2-0.6,1-0.5,1.7
							C446.5,113,447.2,113.2,447.7,112.4z"/>
						<path class="st3" d="M429.8,72.4c0.4,0.2,0.8,0.3,1.1,0.6c0.5,0.6,1.1,0.8,1.8,0.6c0.5-0.2,1.1-1.5,0.8-2.2
							c-0.2-0.6-0.4-1.2-1.2-1.2c-0.6,0.1-1.3,0-1.9,0c-0.7-0.3-1.2,0-1.4,0.6C428.8,71.6,429.1,72.1,429.8,72.4z"/>
						<path class="st3" d="M450.5,55.7c-0.4-0.1-1,0-1.3,0.3c-0.2,0.2-0.3,0.8-0.2,1.2c0.3,0.8,1.5,0.8,2,0.4
							C451.5,57.1,451.4,56.1,450.5,55.7z"/>
						<path class="st3" d="M443.4,69.5c-0.1,0.8,0.9,1.9,1.8,2c0.7,0.1,1.3-0.4,1.5-1.2c0.2-1-0.3-1.6-1.4-1.8
							C444.4,68.4,443.5,68.9,443.4,69.5z"/>
						<path class="st3" d="M453,45.9c0.5-0.2,0.7-1.7,0.2-2c-0.5-0.2-1.2,0-1.4,0.4C451.5,45,452.5,46.1,453,45.9z"/>
						<path class="st3" d="M452.1,54.3c0.6,0.2,0.4,0.2,0.6,0.9s0.8,1.5,1.8,0.8c0.4-0.2,0.6-0.6,0.7-1c0.2,0.1,0.4,0.2,0.6,0.2
							c0.5,0,0.9-0.1,1-0.6c0.3-1.2,0.5-2.5,0-3.7c-0.1-0.2-0.3-0.4-0.3-0.5c-1-0.9-2.2-0.5-2.5,0.7c-0.1,0.4-0.1,0.8-0.2,1.2
							c-0.8-0.3-1.9-0.2-2.5,0.3C450.8,53.2,451.5,54.2,452.1,54.3z"/>
						<path class="st3" d="M449.9,49.1c-0.1-0.1-0.4-0.2-0.5-0.1c-0.2,0.1-0.2,0.5-0.2,0.7c0,0,0,0.1,0.1,0.1c0.1,0.6,0.6,1.5,1,1.6
							c0.5,0.1,1-0.8,0.8-1.7C450.9,49.2,450.3,49,449.9,49.1z"/>
						<path class="st3" d="M446.6,65.4c0.6,0.1,1.1-0.4,1.2-1.1c0.3,0.1,0.7,0.2,1.1,0.2c0.6,0,1-0.1,1.5,0.3c0.7,0.5,1.5,0.3,2.2,0
							c0.7-0.2,1.1-1.2,1.1-1.9c0-0.1,0-0.1,0-0.2c0.3,0.4,0.8,0.7,1.2,0.7c0.7,0.1,1.3-0.5,1.4-1.5c0.1-0.8-0.4-1.7-1-1.8
							c-0.8-0.1-1.9,0.6-2.1,1.3c0,0.1,0,0.2,0,0.3c-0.2-0.2-0.5-0.4-0.8-0.5c-0.9-0.3-1.6-0.1-2.4,0.1c-0.3,0.1-0.6,0.1-0.9,0.1
							c-1.1-0.3-1.8,0.1-2.1,1.2c-0.1-0.1-0.3-0.1-0.4-0.2c-0.5,0-1,0.5-1.1,1.2C445.5,64.6,446,65.3,446.6,65.4z"/>
						<path class="st3" d="M449.1,38.2c-0.2,0.2-0.2,0.6-0.2,0.7c0,0.3,0.3,0.7,0.5,0.8c0.5,0.2,0.9-0.2,1-0.6c0-0.3,0-0.8-0.4-1.1
							c0.9-0.4,1.3-1.8,0.7-2.8c-0.5-0.9-2-1.4-2.8-1c-1.1,0.5-1.6,1.9-1.1,2.7C447.1,37.6,448.2,38.1,449.1,38.2z"/>
						<path class="st3" d="M446.9,59.1c0.7,0.1,1.3-0.3,1.4-0.8c0.1-0.6-0.3-1.2-0.8-1.3c-0.6-0.1-1.4,0.3-1.5,0.9
							C445.8,58.4,446.3,59,446.9,59.1z"/>
						<path class="st3" d="M450.7,26.5c0.1-0.2-0.1-0.7-0.3-0.8c-0.2-0.1-0.7,0-0.8,0.2c-0.1,0.1-0.2,0.8,0.1,1
							C449.9,27.1,450.6,26.7,450.7,26.5z"/>
						<path class="st3" d="M455.3,48.6c0.1-0.2,0.2-0.6,0-0.8s-0.6-0.1-0.8,0.1c-0.1,0.1-0.3,0.7-0.1,0.9
							C454.7,49,455.2,48.7,455.3,48.6z"/>
						<path class="st3" d="M458.2,39.3c0,1,1.5,1.2,1.8,0.8s0.1-1.6-0.5-1.8C458.8,38.2,458.2,38.3,458.2,39.3z"/>
						<path class="st3" d="M464,20.1c0.3-0.4-0.3-1.8-1-1.7c-0.5,0.1-1,0.7-0.9,1.1C462.3,20.1,463.7,20.5,464,20.1z"/>
						<path class="st3" d="M461.1,35.3c0.3-0.1,0.7-0.4,0.8-0.7c0.3-0.6-0.1-1-1.1-1.6c-0.5,0.4-1.2,0.7-0.9,1.5
							C460,35.1,460.5,35.5,461.1,35.3z"/>
						<path class="st3" d="M455.7,43.2c0.3-0.1,0.3-0.5,0.2-0.7s-0.5-0.6-0.8-0.5c-0.2,0.1-0.3,0.7-0.2,0.9
							C455.1,43,455.4,43.3,455.7,43.2z"/>
						<path class="st3" d="M457.5,17c0.5-0.1,0.7-0.7,0.4-1c-0.2-0.3-0.7-0.9-1.3-0.6c-0.6,0.3-0.2,1-0.1,1.2
							C456.8,16.9,457.3,17.1,457.5,17z"/>
						<path class="st3" d="M457.6,29c1.1-0.5,1.6-1.8,1-2.8c-0.5-0.9-1.4-1.3-2.2-0.9c-1,0.5-1.7,2.1-1.3,3
							C455.7,29.1,456.8,29.4,457.6,29z"/>
						<path class="st3" d="M466.5,11.3c0-0.5-0.9-1.4-1.4-1.2c-0.8,0.3-1.2,0.7-0.6,1.6C465.2,12.5,466.5,11.8,466.5,11.3z"/>
						<path class="st3" d="M432.4,80.2c-0.1,0.6,0.4,1.1,1,1.2c0.7,0.1,1.3-0.3,1.3-1c0-0.6-0.6-1.2-1.2-1.2
							C433,79.1,432.4,79.6,432.4,80.2z"/>
						<path class="st3" d="M433.5,98.2c-0.3-0.1-1,0.1-1.1,0.5c-0.1,0.3,0.5,0.9,0.8,1c0.4,0.2,1.1-0.3,1-0.7
							C434.1,98.6,433.7,98.3,433.5,98.2z"/>
						<path class="st3" d="M432.6,64c0.1,0.4,0.3,0.7,0.4,0.9c0.7,0.1,1.2-0.4,1.2-1c0-0.5-0.3-0.6-0.7-0.7
							C433,63.1,432.5,63.5,432.6,64z"/>
						<path class="st3" d="M431.1,52.6c1,0.2,2.1-0.7,2.2-1.9c0.1-1-0.8-2.3-1.7-2.4c-1.2-0.2-2.4,0.6-2.5,1.6
							C429.1,50.9,430.2,52.5,431.1,52.6z"/>
						<path class="st3" d="M432.6,59.5c0,0.2,0.1,0.6,0.4,0.7c0.3,0.1,0.5-0.3,0.6-0.4c0.1-0.2-0.1-0.8-0.3-0.8
							C433,58.8,432.6,59.3,432.6,59.5z"/>
						<path class="st3" d="M429,78c0.5,0.2,1.3-0.2,1.2-0.7c0-0.4-0.2-1.3-0.7-1.4s-0.8,0.7-1,1C428.4,77.4,428.5,77.9,429,78z"/>
						<path class="st3" d="M434.3,100.8c-0.1,0.7,0.7,2,1.3,2.1c0.9,0.1,1.5-0.4,1.7-1.4c0.1-0.8-0.4-1.3-1.5-1.5
							C435,99.8,434.4,100.2,434.3,100.8z"/>
						<path class="st3" d="M441,61.8c0.7,0.1,1.9-0.6,2-1.1c0.2-0.8-0.4-1.6-1.3-1.8c-0.7-0.1-1.3,0.4-1.5,1.4
							C440,61.1,440.4,61.7,441,61.8z"/>
						<path class="st3" d="M440.2,72.1c0.7,0.1,1.3-0.3,1.4-0.9s-0.4-1.1-1.1-1.2c-0.6-0.1-1.1,0.3-1.2,0.8
							C439.3,71.4,439.6,71.9,440.2,72.1z"/>
						<path class="st3" d="M442.7,49.6c1.2,0.2,2.3-0.6,2.4-1.8c0.1-1-0.4-1.9-1.3-2c-1.2-0.2-2.6,0.8-2.7,1.7
							C441,48.6,441.7,49.5,442.7,49.6z"/>
						<path class="st3" d="M441.2,55.4c-0.2,0.6,0.1,1.1,0.6,1.3c0.3,0.1,0.8,0.1,1-0.1c0.6-0.3,0.5-0.9,0-2
							C442.2,54.7,441.5,54.5,441.2,55.4z"/>
						<path class="st3" d="M437.4,65.6c0.1,0.4,0.3,0.7,0.4,0.9c0.7,0.1,1.2-0.4,1.2-1c0-0.5-0.3-0.6-0.7-0.7
							C437.8,64.7,437.3,65.1,437.4,65.6z"/>
						<path class="st3" d="M438.4,75.9c0,1,0.7,2,1.6,2.1s1.7-0.2,2.1-0.8c0.1,0.4,0.4,0.8,0.9,1c1.3,0.7,2.5,0.4,3-0.4
							c0.3-0.5,0.2-1.5-0.1-2.2c0.5,0,0.9-0.3,1-0.8s-0.4-1.1-1-1.2s-1.2,0.3-1.3,0.9c0,0.1,0,0.1,0,0.2c-0.9-0.2-1.6,0.3-2,0.8
							l-0.1,0.1c-0.2-0.7-0.8-1.1-1.7-1.3c-0.4-0.1-0.7-0.1-1,0c0.1-0.2,0.1-0.5,0-0.8c-0.3-0.7-1.4-0.8-2-0.4
							c-0.5,0.4-1,1.3-0.8,1.9C437.2,75.7,438.1,75.9,438.4,75.9z"/>
						<path class="st3" d="M437.1,86.1c0.5,0.5,1.1,0.6,1.5,0c0.2-0.2,0.2-0.7,0.1-0.9c-0.3-0.3-0.7-0.5-1.1-0.5
							C437,84.9,437,85.5,437.1,86.1z"/>
						<path class="st3" d="M438.3,43.6c0.2-0.1,0.3-0.6,0.2-0.8s-0.6-0.4-0.8-0.3c-0.2,0-0.6,0.6-0.5,0.9
							C437.3,43.7,438.1,43.7,438.3,43.6z"/>
					</g>
				</g>
			</g>
			<g>
				<g>
					<defs>
						<rect id="SVGID_5_" x="369" y="184" width="70.2" height="35.1"/>
					</defs>
					<clipPath id="SVGID_6_">
						<use xlink:href="#SVGID_5_"  style="overflow:visible;"/>
					</clipPath>
					<g class="st4">
						<path class="st5" d="M404,201.4c9.8,0,17.8,7.9,17.8,17.7h17.3c0.1-19.4-15.6-35.1-35-35.1S369,199.7,369,219.1h17.2
							C386.3,209.3,394.2,201.4,404,201.4z"/>
					</g>
				</g>
			</g>
			<g>
				<g>
					<defs>
						<rect id="SVGID_7_" x="437" y="184" width="70.2" height="35.1"/>
					</defs>
					<clipPath id="SVGID_8_">
						<use xlink:href="#SVGID_7_"  style="overflow:visible;"/>
					</clipPath>
					<g class="st6">
						<path class="st5" d="M472,201.4c9.8,0,17.8,7.9,17.8,17.7h17.3c0.1-19.4-15.6-35.1-35-35.1S437,199.7,437,219.1h17.2
							C454.3,209.3,462.2,201.4,472,201.4z"/>
					</g>
				</g>
			</g>
		</g>
	</g>
</g>
<rect class="st7" width="560" height="300"/>
</svg>
