<svg id="Layer_1" data-name="Layer 1" xmlns="http://www.w3.org/2000/svg" viewBox="0 0 128 128"><defs><style>.cls-1{fill:#ecf0f6;}.cls-2{fill:#fff;}.cls-3{fill:#7de2d1;}.cls-4{fill:#343741;}.cls-5{fill:#42d4c6;}.cls-6{fill:#00bfb3;}.cls-7{fill:#01ada1;}.cls-8{fill:#cfd6e2;}</style></defs><title>illustration-servers-and-cloud-128-white-bg</title><circle class="cls-1" cx="64.13" cy="63.98" r="60"/><path class="cls-2" d="M90.73,10.56h0a.64.64,0,0,0,.72.46s0,0,.08,0a.87.87,0,0,0,.63-.07c-.6-.32-1.22-.64-1.84-.94A1.19,1.19,0,0,0,90.73,10.56Z"/><path class="cls-2" d="M93.79,14.56c-.54-.52-1.12-.6-1.48-.2a.84.84,0,0,0-.13.21.4.4,0,0,0-.33-.17c-.35,0-.28.46-.28.64s.29.3.36.27l.13-.08a1.5,1.5,0,0,0,.23,1,1.1,1.1,0,0,0,1.6-.16C94.42,15.57,94.39,15.15,93.79,14.56Z"/><path class="cls-2" d="M93.08,18.77a.46.46,0,0,0-.24-.5.63.63,0,0,0-.63.25c-.09.18.14.45.33.51A.46.46,0,0,0,93.08,18.77Z"/><path class="cls-2" d="M93.48,25.94c.35-.13.65-.36.49-.73s-.58-.91-.91-.85-.37.89-.34,1.19S93.07,26.09,93.48,25.94Z"/><path class="cls-2" d="M85,9.14a.83.83,0,0,0,1,.72A.88.88,0,0,0,86.7,9a.85.85,0,0,0-1-.68A.67.67,0,0,0,85,9.14Z"/><path class="cls-2" d="M92,30.24c-.23.19.06.55.14.58s.39.16.57,0a.3.3,0,0,0,0-.46C92.49,30.23,92.19,30.05,92,30.24Z"/><path class="cls-2" d="M90.23,15.29a1.39,1.39,0,0,0-.92-1.51,1.21,1.21,0,0,0-.91.17A1.64,1.64,0,0,0,88,16.21a5.49,5.49,0,0,0,1.08.1A1.27,1.27,0,0,0,90.23,15.29Z"/><path class="cls-2" d="M82.92,7a2.31,2.31,0,0,0,.35.35,2.11,2.11,0,0,1,.33.44c.36.52.77.68,1.11.45a.68.68,0,0,0,.3-.52C84.32,7.46,83.62,7.23,82.92,7Z"/><path class="cls-2" d="M88.83,18.05a.31.31,0,0,0-.07.51.32.32,0,0,0,.52.05.3.3,0,0,0,.06-.48A.31.31,0,0,0,88.83,18.05Z"/><path class="cls-2" d="M100.48,43.93a.59.59,0,0,0-.21.52.54.54,0,0,0,.49.22c.14-.05.51-.34.38-.56A.63.63,0,0,0,100.48,43.93Z"/><path class="cls-2" d="M111.25,56c-.35,0-.28.46-.28.64s.29.3.36.27.36-.26.37-.42S111.6,55.94,111.25,56Z"/><path class="cls-2" d="M112.72,40.52l.08-.05a.7.7,0,0,0,.45.05.94.94,0,0,0,.65-1.13,1,1,0,0,0-.43-.51,1.89,1.89,0,0,0-.09-.34,1,1,0,0,0-1.39-.31,1.15,1.15,0,0,0-.64,1.59C111.63,40.39,112.31,40.74,112.72,40.52Z"/><path class="cls-2" d="M121.88,61c.62-.18,1.85-.71,1.38-1.81a1.46,1.46,0,0,0-1.61-.7h0a1.63,1.63,0,0,0,0-1.46,1.65,1.65,0,0,0-2.09-.56,1.38,1.38,0,0,0-.63,1.74,2.17,2.17,0,0,0,1.89.85.85.85,0,0,0-.22.64c.06.49-1.09.3-1.06,1s-.73,1-.59,1.84.81,1.55,1.47,1.18a3,3,0,0,0,1.18-1.6C121.8,61.6,121.25,61.16,121.88,61Z"/><path class="cls-2" d="M110.67,41.59a1,1,0,0,0-1.26-.4A.77.77,0,0,0,109,42a1.24,1.24,0,0,0,.07,1.12.84.84,0,0,0,1.12.22.82.82,0,0,0,.51-1s0,0,0,0A.82.82,0,0,0,110.67,41.59Z"/><path class="cls-2" d="M99,21.3c0-.2-.53-.65-.76-.59s-.45.76-.37.86.59.57.79.46A.91.91,0,0,0,99,21.3Z"/><path class="cls-2" d="M96.67,26.85a1.81,1.81,0,0,0,1.87.1c.44-.47.37-1-.22-1.55a.89.89,0,0,0-.79-.25.71.71,0,0,0,0-.38,1,1,0,0,0-1.13-.68.78.78,0,0,0-.59.93.86.86,0,0,0,.85.78A.8.8,0,0,0,96.67,26.85Z"/><path class="cls-2" d="M84.8,16.5c.24.23.54.42.88.13a.9.9,0,0,0,0-1.25,2.44,2.44,0,0,0-.87.25A.52.52,0,0,0,84.8,16.5Z"/><path class="cls-2" d="M111.1,38.07a2.62,2.62,0,0,0-.93-.36c-.48,0-.77.61-.63,1.13a.77.77,0,0,0,1,.5A1,1,0,0,0,111.1,38.07Z"/><path class="cls-2" d="M103.55,29.22a.88.88,0,0,0,1.09-.33.63.63,0,0,0,.11-.53,11.36,11.36,0,0,0-.77-1.07c.26-1,0-1.82-.58-2a1.79,1.79,0,0,0-1.69,1,.76.76,0,0,0-.18-.22,1,1,0,0,0-1.24,0,1.27,1.27,0,0,0-.06,1.36,1.22,1.22,0,0,0,1.45-.12.2.2,0,0,0,0-.08,2.9,2.9,0,0,0,1.41.71C103,28.43,102.82,29,103.55,29.22Z"/><path class="cls-2" d="M115.72,52.49c.16,0,.59-.27.53-.47a.56.56,0,0,0-.54-.27c-.18,0-.53.18-.46.38A.59.59,0,0,0,115.72,52.49Z"/><path class="cls-2" d="M117.65,50.49a.84.84,0,0,0,0-1,1,1,0,0,0-1.17-.4c-.59.33-.51.91-.49,1.44C116.92,50.93,117.33,50.93,117.65,50.49Z"/><path class="cls-2" d="M119,39.63c-.22-.5-.44-1-.67-1.49l-.17.06a.85.85,0,0,0-.37.44,1.65,1.65,0,0,0-.9,0c-.65.13-1,.57-.92,1s1.11,1.25,1.49,1.19a1.13,1.13,0,0,0,.91-1.08.8.8,0,0,0,.57-.07S118.94,39.65,119,39.63Z"/><path class="cls-2" d="M78,6.65a1,1,0,0,0,1.24.49.8.8,0,0,0,.43-1L79.64,6l-1.31-.33A1,1,0,0,0,78,6.65Z"/><path class="cls-2" d="M124.11,63.41a.41.41,0,0,0-.11.07,1,1,0,0,0,0,1.21l.06,0c0-.26,0-.51,0-.76S124.11,63.6,124.11,63.41Z"/><path class="cls-2" d="M64.76,12.81a1.66,1.66,0,0,0,.67.76,1.28,1.28,0,0,0,.32.45A1.64,1.64,0,0,0,68,13.6a1.16,1.16,0,0,0-.17-1.71,1.51,1.51,0,0,0-1.08-.41,1.06,1.06,0,0,0-1.32-.26A1.14,1.14,0,0,0,64.76,12.81Z"/><path class="cls-2" d="M72.54,5.73a.71.71,0,0,0,.18.5,1.36,1.36,0,0,0,1.38.1s0-.09.07-.14a1.47,1.47,0,0,0,.61-1.25c-.7-.13-1.41-.25-2.12-.35a.93.93,0,0,0-.26.93A.85.85,0,0,0,72.54,5.73Z"/><path class="cls-2" d="M120.74,44.25a.82.82,0,0,0,0,.35.63.63,0,0,0,.38.56c-.38-1.15-.8-2.28-1.24-3.4a1.45,1.45,0,0,0-.69,1.67A1.46,1.46,0,0,0,120.74,44.25Z"/><path class="cls-2" d="M114.8,43.88a2,2,0,0,0,0,.24,1.71,1.71,0,0,0,1.79,1.06c.79-.15,1.2-1,1-2a1.25,1.25,0,0,0-1.37-1.09,1.7,1.7,0,0,0-1.66-.38,1.47,1.47,0,0,0-.48,1.6A1.1,1.1,0,0,0,114.8,43.88Z"/><path class="cls-2" d="M65.34,5.9c.27.16.82.63,1.18.26s-.07-.94-.22-1.24-.66-.28-1,0S65,5.66,65.34,5.9Z"/><path class="cls-2" d="M118.18,47.84a.92.92,0,0,0,.45-1.3.79.79,0,0,0-1.16-.25c-.34.22-.71.46-.54.85C117.27,47.79,117.76,48,118.18,47.84Z"/><path class="cls-2" d="M74.62,13.2a.68.68,0,0,0,0,.19,2,2,0,0,0-1.46.54.84.84,0,0,0,.16,1.19,1.21,1.21,0,0,0,1.71.12,1.43,1.43,0,0,0,.34-1.13.8.8,0,0,0,.77-.42c.31-.51,0-.91-.39-1.34C75.24,12.48,74.64,12.51,74.62,13.2Z"/><path class="cls-2" d="M67.22,5.15a1.33,1.33,0,0,0,1.63.67,1,1,0,0,0,.36-.22,1,1,0,0,0,.2.33c.33.31,1.56.07,1.94-.39a1.2,1.2,0,0,0,0-1.11c-1.32-.16-2.65-.29-4-.36A1.53,1.53,0,0,0,67.22,5.15Z"/><path class="cls-2" d="M76.27,17.75a1.59,1.59,0,0,0-1.84-.34,1.52,1.52,0,0,0-.11,2,1.14,1.14,0,0,0,.84.32.78.78,0,0,0-.07.74.93.93,0,0,0,1.21.5.85.85,0,0,0,.49-1.19.84.84,0,0,0-.49-.45l.08,0A1.07,1.07,0,0,0,76.27,17.75Z"/><path class="cls-2" d="M122.25,49.06c-.17-.66-.36-1.32-.55-2a1.06,1.06,0,0,0-.28.39,1.23,1.23,0,0,0-.51.12s0,0-.07,0c-1.18.08-1.46.86-.84,2.23a1.5,1.5,0,0,1-.19.25.75.75,0,0,0-.11,1,.81.81,0,0,0,.84.43c.92,0,1.21-.32,1.14-1.24,0-.28,0-.54,0-.82a.58.58,0,0,0,.19,0A1,1,0,0,0,122.25,49.06Z"/><path class="cls-2" d="M116.18,34.74a.47.47,0,0,0,.19.28.79.79,0,0,0-.54.9.64.64,0,0,0,0,.07,1.82,1.82,0,0,0-.72,1.66,1.11,1.11,0,0,0,1.63.47.85.85,0,0,0,.51-.86,2.93,2.93,0,0,0,.62.08c-.53-1.06-1.08-2.1-1.67-3.11A2,2,0,0,0,116.18,34.74Z"/><path class="cls-2" d="M102.82,21c-.74.15-1,.48-.93,1,.15.73.68,1.15,1.26,1a1.85,1.85,0,0,0,.83-1.47C103.91,21,103.49,20.84,102.82,21Z"/><path class="cls-2" d="M113.64,33.71a.89.89,0,0,0-.91.71,1,1,0,0,0,.88,1.18,1.09,1.09,0,0,0,.85-1.3A.71.71,0,0,0,113.64,33.71Z"/><path class="cls-2" d="M100.31,20.4c.56.05,1.1.25,1.36-.34a.86.86,0,0,0-.29-1.1,1,1,0,0,0-.25-.15,1.36,1.36,0,0,0,0-.89,1.21,1.21,0,0,0-1.34-.12.64.64,0,0,0-.09,1,2.49,2.49,0,0,0,.53.51A1.43,1.43,0,0,0,100.31,20.4Z"/><path class="cls-2" d="M103.28,25.05a.64.64,0,0,0,1-.05,1.16,1.16,0,0,0,.21-1.52,1.35,1.35,0,0,0-1.55-.11C102.56,23.74,102.73,24.53,103.28,25.05Z"/><path class="cls-2" d="M52.93,6.91l-.35.17a.76.76,0,0,0-.52-.65c-.38-.16-.8-.11-1,.29a1.33,1.33,0,0,0,0,1,.66.66,0,0,0,.68.32,2.48,2.48,0,0,0,.46,1.87,1.72,1.72,0,0,0,.92.73,1.86,1.86,0,0,0,1.55-.21c.54-.29,1.15-.1,1.53-.59a2.59,2.59,0,0,0,.16-3.11,2.13,2.13,0,0,0-1.72-1C53.91,5.74,53.64,6.63,52.93,6.91Z"/><path class="cls-2" d="M71.17,12.66a.84.84,0,0,0-.23.74c.07.2.47.66.74.6s.37-.68.36-.92S71.43,12.44,71.17,12.66Z"/><path class="cls-2" d="M72.37,11.89a1.82,1.82,0,0,0,.94-1.62,1.45,1.45,0,0,0-.37-1.93,1.67,1.67,0,0,0-2.13,0,.9.9,0,0,0-1.12-.37.84.84,0,0,0-.34,1.16.71.71,0,0,0,1,.38A2.29,2.29,0,0,0,71,10.89a1.21,1.21,0,0,0,.26.2.54.54,0,0,1,0,.1C71.47,11.76,71.92,12,72.37,11.89Z"/><path class="cls-2" d="M75,28.13a.72.72,0,0,0,1.19.45.76.76,0,0,0-.52-1.21A.79.79,0,0,0,75,28.13Z"/><path class="cls-2" d="M77.54,22.51A1,1,0,0,0,77,22a1.57,1.57,0,0,0-2,.9c-.08.17-.15.34-.23.52-.33-.16-.63-.33-.94-.45a.83.83,0,0,0-1.21.46,1.3,1.3,0,0,0,.13,1.49,1,1,0,0,0,.93.38.74.74,0,0,0,.34.52c.52.21,1-.34,1-.64a.52.52,0,0,0-.16-.37,1.64,1.64,0,0,1,.22-.14c.16.07.33.16.5.22a1.72,1.72,0,0,0,1.85-.45A2,2,0,0,0,77.54,22.51Z"/><path class="cls-2" d="M70.68,17.27a1.24,1.24,0,0,0-.73-.33,1.74,1.74,0,0,0-.14-.12c-1.34-.1-.94-1-1.87-1.36a1.39,1.39,0,0,0-.45-.06,1.09,1.09,0,0,0-.88,1.77,7.33,7.33,0,0,0,1.22,1.33,1.3,1.3,0,0,0,.89.23.88.88,0,0,0,.14.23q.66.7,1.56-.15A1.33,1.33,0,0,0,70.68,17.27Z"/><path class="cls-2" d="M52.41,20a1.46,1.46,0,0,0,1.55-.2,1.13,1.13,0,0,0,.1-1.36,1.59,1.59,0,0,0,.84-1.85,1.64,1.64,0,0,0-1.34-1.13,1.23,1.23,0,0,0,.37-1c0-1.15-.68-1.82-1.4-1.84a1.91,1.91,0,0,0-1.44.92.8.8,0,0,0-1-.38.91.91,0,0,0-.46,1.12.86.86,0,0,0,1.07.56l.15-.07a1.58,1.58,0,0,0,1.3,1.06h.12a1.45,1.45,0,0,0-.22,1.63,1.88,1.88,0,0,0,.36.64.78.78,0,0,0-.53.32A1.13,1.13,0,0,0,52.41,20Z"/><path class="cls-2" d="M50.84,18.61A.92.92,0,0,0,49.68,18a.86.86,0,0,0-.39,1.15.81.81,0,0,0,1,.51A.77.77,0,0,0,50.84,18.61Z"/><path class="cls-2" d="M49.71,32.79a.44.44,0,0,0-.21.44c0,.15.36.2.54.19s.4-.26.33-.49S49.87,32.75,49.71,32.79Z"/><path class="cls-2" d="M24.9,24.12c-.22.1-.73.47-.53.94s.76.26.94.16a.82.82,0,0,0,.35-.68A.54.54,0,0,0,24.9,24.12Z"/><path class="cls-2" d="M77.5,10a1.56,1.56,0,0,0,.12-2.15,2.49,2.49,0,0,0-2.58,0A1.59,1.59,0,0,0,75.21,10,1.85,1.85,0,0,0,77.5,10Z"/><path class="cls-2" d="M79.9,23.79c0,.43.3.54,1.2.44a.76.76,0,0,0-.52-1.2A.78.78,0,0,0,79.9,23.79Z"/><path class="cls-2" d="M100.62,52a.64.64,0,0,0,.26-.49c0-.13-.42-.43-.55-.37s-.17.5-.13.68S100.56,52,100.62,52Z"/><path class="cls-2" d="M101.53,49.61v0c0,.07.17.17.28.12a.27.27,0,0,0,.13-.34.25.25,0,0,0-.24-.11,5.51,5.51,0,0,1,0-.61c.29-.74-.16-1.74-.81-1.82a1.26,1.26,0,0,0-1.31.7,1,1,0,0,0,.27,1.32c.33.28.84,1,1.43.81A.62.62,0,0,0,101.53,49.61Z"/><path class="cls-2" d="M95.3,23a1.47,1.47,0,0,0,1.82-.42c.42-.48.32-1-.22-1.53a2,2,0,0,0,0-.42c-.16-.65-.7-.9-1.53-.68a1.18,1.18,0,0,0-.77,1.21,1.59,1.59,0,0,0,.52.71A1.56,1.56,0,0,0,95.3,23Z"/><path class="cls-2" d="M99.57,57.75a.83.83,0,0,0,1.11.47.88.88,0,0,0,.46-1,.84.84,0,0,0-1.14-.42A.67.67,0,0,0,99.57,57.75Z"/><path class="cls-2" d="M86.86,22.53a.67.67,0,0,0,0-.24c-.09-.26-.51-.85-.74-.79,0,0,0,0,0,0a.72.72,0,0,1-.23-.28c-.19-.43-.5-.46-1-.38s-1.24.25-1.1.94.62.68.82.61.59.15.4.29-.23.44.11.93a.88.88,0,0,0,1.27.36A1.26,1.26,0,0,0,86.86,22.53Z"/><path class="cls-2" d="M86.18,33.92c-.1,0-.44.2-.4.43s.46.26.63.24a.45.45,0,0,0,.28-.4C86.66,34,86.36,33.93,86.18,33.92Z"/><path class="cls-2" d="M84.2,15.36a1.84,1.84,0,0,0,0-1.18,1.75,1.75,0,0,0-.92-1c-.1-.23-.33-.52-.51-.51a.24.24,0,0,0-.14.06,1.39,1.39,0,0,0-.93-.53,2.56,2.56,0,0,0-2.57,1.73,2.07,2.07,0,0,0,.21,2c.43.58,1.3.27,2,.66C82.87,17.51,83.77,16.49,84.2,15.36Z"/><path class="cls-2" d="M81.64,26.93c-.1.14-.28.34-.09.55a.31.31,0,0,0,.47,0c.11-.13.37-.46.2-.65S81.69,26.84,81.64,26.93Z"/><path class="cls-2" d="M89.84,29.11c.15,0,.56-.26.52-.46s-.48-.35-.63-.31l-.13.06a.52.52,0,0,0-.7-.15c-.5.31-1.15.5-1.39,1.19l.32.78c-.4.69-.46,1.45-.09,1.73a.8.8,0,0,0,1,0c.58-.42.64-.72.33-1.52.21-.49.43-.91.58-1.36A.54.54,0,0,0,89.84,29.11Z"/><path class="cls-2" d="M69.69,21.74a.25.25,0,0,0-.15.32.28.28,0,0,0,.33.12c.08,0,.12-.24.09-.31A.26.26,0,0,0,69.69,21.74Z"/><path class="cls-2" d="M32.13,21c.3.15,1.17-1.06,1.07-1.42s-1-.36-1.42.1S31.83,20.88,32.13,21Z"/><path class="cls-2" d="M40.11,34.31A2.38,2.38,0,0,0,41.18,32a1.63,1.63,0,0,0-2.09-.82,1.84,1.84,0,0,0-1,2.06A1.65,1.65,0,0,0,40.11,34.31Z"/><path class="cls-2" d="M38.17,23.32c.26.42.42,1,1.11.83a.81.81,0,0,0,.67-.91,1.1,1.1,0,0,0-.46-.67C39,22.33,38.71,22.54,38.17,23.32Z"/><path class="cls-2" d="M33.61,14.38c-.17-.36-.43-.58-.8-.48a4.87,4.87,0,0,0-2.5,1.37,1.5,1.5,0,0,0-.2.41c-.2,1,.48,1.65,1.41,1.39a7.11,7.11,0,0,0,1.64-.74A1.7,1.7,0,0,0,33.61,14.38Z"/><path class="cls-2" d="M38.59,18.38A.89.89,0,0,0,38,19.45a1,1,0,0,0,1.16.64.91.91,0,0,0-.58-1.71Z"/><path class="cls-2" d="M27.11,20.44a.85.85,0,0,0,.79.78c.52,0,.88-1.15.6-1.41S27.09,19.93,27.11,20.44Z"/><path class="cls-2" d="M28.88,17.52c-.08.19.18.44.33.5s.56,0,.63-.27-.3-.48-.44-.5A.6.6,0,0,0,28.88,17.52Z"/><path class="cls-2" d="M34.07,27.18a1.45,1.45,0,0,0,.76-1.8,1.55,1.55,0,0,0-2.08-1A1.26,1.26,0,0,0,31.89,26,2,2,0,0,0,34.07,27.18Z"/><path class="cls-2" d="M32.66,31.36c.18-.18-.09-.73-.23-.82a.69.69,0,0,0-.64.16.67.67,0,0,0,.09.65A.75.75,0,0,0,32.66,31.36Z"/><path class="cls-2" d="M42.15,21a1.17,1.17,0,0,0-.68,1.56c.16.52.79.72,1.52.49.57-.19.84-.64.66-1.11S42.55,20.84,42.15,21Z"/><path class="cls-2" d="M53.81,31.51c.18-.48.18-.3.7-.39s1.17-.53.73-1.35A1.73,1.73,0,0,0,53,29.21a2,2,0,0,0-.59,2.68C52.84,32.45,53.64,32,53.81,31.51Z"/><path class="cls-2" d="M56.69,5.63A.59.59,0,0,0,56.6,5c-.15-.11-.46-.32-.59-.15a.57.57,0,0,0,0,.59C56.1,5.6,56.56,5.8,56.69,5.63Z"/><path class="cls-2" d="M46.69,6.74l.17-.09a1.71,1.71,0,0,0-.07,1.47,1.51,1.51,0,0,0,.3.47,2.25,2.25,0,0,0-1.85,1.06A1.63,1.63,0,0,0,46,11.51c.45.29.88.47.87,1.15,0,.49.48.6,1,.56.41-.51.37-1-.08-1.28a8.74,8.74,0,0,0,.66-1.46A2,2,0,0,0,47.79,9a1.79,1.79,0,0,0,1.09-.2c1.09-.53,1.29-1,.95-1.95a1.51,1.51,0,0,0-.9-.9q-1.38.36-2.73.78A.65.65,0,0,0,46.69,6.74Z"/><path class="cls-2" d="M54.71,23.11a1.75,1.75,0,0,0-1.78.24c-.32.36-.69.71-.31,1.28.27.41.48.86.73,1.29a.72.72,0,0,0,.93.69A1,1,0,0,0,55,25.49a2.28,2.28,0,0,1,0-.94A1.25,1.25,0,0,0,54.71,23.11Z"/><path class="cls-2" d="M56.44,15.55A.89.89,0,0,0,57,14.46a.94.94,0,0,0-1.12-.53.74.74,0,0,0-.5,1A.83.83,0,0,0,56.44,15.55Z"/><path class="cls-2" d="M44,16.8a.85.85,0,0,0-1.15-.4h0a1.59,1.59,0,0,0-.27-.8,1.64,1.64,0,0,1-.37-1.13A1.76,1.76,0,0,0,41.33,13a1.52,1.52,0,0,0-1.7,0L39.5,13a1.45,1.45,0,0,0,0-1.08c-.2-.49-.83-.65-1.55-.38-.55.2-1,.88-.83,1.29a1.59,1.59,0,0,0,1.66.9.57.57,0,0,0,.23-.12,1.47,1.47,0,0,0,0,.73A2.76,2.76,0,0,0,40,16a1.19,1.19,0,0,1,.37.59,1.1,1.1,0,0,0,1.61.91.61.61,0,0,0,.05.33,1,1,0,0,0,1.22.28A1,1,0,0,0,44,16.8Z"/><path class="cls-2" d="M48.26,26.76a2.47,2.47,0,0,0,.48-.65.85.85,0,0,0-1.14-.46c-.36.18-.31.47-.21.76S48,27,48.26,26.76Z"/><path class="cls-2" d="M47.55,22.93a2.47,2.47,0,0,0,.48-.65.85.85,0,0,0-1.14-.46c-.36.18-.31.47-.21.76S47.24,23.18,47.55,22.93Z"/><path class="cls-2" d="M48,17.41a1.76,1.76,0,0,0,.71-1.95,1,1,0,0,0-1.38-.53,1.07,1.07,0,0,0-.69,1.6C46.84,17.19,47.49,17.61,48,17.41Z"/><path class="cls-2" d="M107.46,27a1.28,1.28,0,0,0,1-1.34,1.09,1.09,0,0,0-1-.89c-.87.11-1.48.63-1.39,1.2A1.43,1.43,0,0,0,107.46,27Z"/><path class="cls-2" d="M104.19,50.41a1.39,1.39,0,0,0,.52-1.39.87.87,0,0,0-1.18-.31.82.82,0,0,0-.3,1.17C103.47,50.39,103.86,50.6,104.19,50.41Z"/><path class="cls-2" d="M103.3,43.79a.84.84,0,0,0,.93.65.94.94,0,0,0,.77-1,.92.92,0,0,0-.92-.66A1.06,1.06,0,0,0,103.3,43.79Z"/><path class="cls-2" d="M103.79,33.44a1.63,1.63,0,0,0,1.49-1.55,1.74,1.74,0,0,0-.14-.4c.15.11.33.21.47.31a.34.34,0,0,0,.51-.06,1,1,0,0,0-.26-1.29.77.77,0,0,0-1.1.54,1.82,1.82,0,0,0-1.44-.65,1.64,1.64,0,0,0-1.23,1.78A1.6,1.6,0,0,0,103.79,33.44Z"/><path class="cls-2" d="M104.05,70.94a.51.51,0,0,0,.29-.81c-.15-.24-.7-.71-.91-.61s-.3.79-.28,1.08S103.61,71.1,104.05,70.94Z"/><path class="cls-2" d="M105.48,36.08c.24-.13.85-.5.77-.82s-.85-.35-1.09-.29-.32.47-.31.71A.43.43,0,0,0,105.48,36.08Z"/><path class="cls-2" d="M104.85,52.15a.9.9,0,0,0,.36-.35.37.37,0,0,0,.18,0,.89.89,0,0,0,.69-.92.76.76,0,0,0-.87-.68.86.86,0,0,0-.67.91.76.76,0,0,0,.11.33c-.16.1-.45.3-.35.48A.58.58,0,0,0,104.85,52.15Z"/><path class="cls-2" d="M107.7,62.16a.65.65,0,0,0,.26-.49c0-.13-.22-.47-.55-.38s-.17.51-.13.68S107.64,62.21,107.7,62.16Z"/><path class="cls-2" d="M94.29,42.42a.88.88,0,0,0-.3-1.1.66.66,0,0,0-.91,0c-.52.41-.39.9-.16,1.47C93.49,42.81,94,43,94.29,42.42Z"/><path class="cls-2" d="M106.24,58.1a.92.92,0,0,0,.46-1c-.13-.28-.67-.34-1.11-.13a.48.48,0,0,0-.25.73C105.53,58,105.8,58.27,106.24,58.1Z"/><path class="cls-2" d="M99.3,31.22a.85.85,0,0,0,.82-.72.75.75,0,0,0,.63-.24.62.62,0,0,0,0-.9.65.65,0,0,0-1-.12.71.71,0,0,0-.18.27,1.34,1.34,0,0,0-.84-.29A1,1,0,0,0,98,30.28,1.23,1.23,0,0,0,99.3,31.22Z"/><path class="cls-2" d="M96,28.38a.24.24,0,0,0,.2-.3.27.27,0,0,0-.31-.16c-.08,0-.15.22-.13.29S95.9,28.41,96,28.38Z"/><path class="cls-2" d="M95,17.83a1.49,1.49,0,0,0,.28,1.57,1,1,0,0,0,1.24-.11c.56-.67.66-1.35.24-1.71A1.49,1.49,0,0,0,95,17.83Z"/><path class="cls-2" d="M96.13,15.71a1.33,1.33,0,0,0,1.11-1.12,1.21,1.21,0,0,0,.37.54.63.63,0,0,0,.93-.28h0c-1.09-.76-2.2-1.51-3.34-2.2a1.78,1.78,0,0,0-1,1.8A1.86,1.86,0,0,0,96.13,15.71Z"/><path class="cls-2" d="M97.63,36.1a1.36,1.36,0,0,0,.93-1.68,1.42,1.42,0,0,0-1.65-.87,1.33,1.33,0,0,0,.72,2.55Z"/><path class="cls-2" d="M102.48,39.54c-.13-.28-.58-.94-.88-.86s-.44.83-.46,1.15.5.58.88.46S102.65,39.9,102.48,39.54Z"/><path class="cls-2" d="M102.68,37.34c-.05-.24-.84-.87-1.24-.7s-.26,1.21-.1,1.54a1,1,0,0,0,1,.4C102.78,38.41,102.77,37.71,102.68,37.34Z"/><path class="cls-2" d="M108.87,35.87a1.24,1.24,0,0,0,.73-1.45c-.17-.83-.55-1.17-1.17-1.06a1.48,1.48,0,0,0-.85.57.87.87,0,0,0,0-.22.86.86,0,1,0-1.6.63,1,1,0,0,0,1.19.39,1.77,1.77,0,0,0,.17-.12.79.79,0,0,0,0,.22A1.57,1.57,0,0,0,108.87,35.87Z"/><path class="cls-2" d="M97.75,42.83c.07,0,.34-.24.32-.32S98,42,97.67,42s-.36.4-.33.48A.78.78,0,0,0,97.75,42.83Z"/><path class="cls-2" d="M98.62,62.92c.22-.09.32-.69.24-.81s-.46-.48-.65-.43-.37.49-.33.69S98.4,63,98.62,62.92Z"/><path class="cls-2" d="M107.25,40.52c-.13-.35-1-.53-1.21-.32a1,1,0,0,0,0,.89.52.52,0,0,0,.8.33C107.13,41.22,107.42,41,107.25,40.52Z"/><path class="cls-2" d="M123.87,69.32h0l.06-.67A.79.79,0,0,0,123.87,69.32Z"/><path class="cls-2" d="M121.49,71.79c0,.57,0,1.16.72,1.22a.89.89,0,0,0,1-.58.64.64,0,0,0,0-.53,10.73,10.73,0,0,0-1-.86c0-1.06-.39-1.79-1-1.81a1.77,1.77,0,0,0-1.45,1.5C119.68,71.46,120,71.68,121.49,71.79Z"/><path class="cls-2" d="M120.38,67a1.83,1.83,0,0,0,.47-1.62c-.17-.45-.63-.54-1.25-.25s-.9.71-.67,1.2C119.24,67,119.86,67.32,120.38,67Z"/><path class="cls-2" d="M119.16,74.89a1.41,1.41,0,0,0-1.6-.77,1,1,0,0,0-.55,1.21,1.23,1.23,0,0,0,1.53.61A.85.85,0,0,0,119.16,74.89Z"/><path class="cls-2" d="M81.63,10.26a1.55,1.55,0,0,0,1.74-1,1.61,1.61,0,0,0-.67-1.38,1.83,1.83,0,0,0,0-.4.51.51,0,0,0-.76-.39c-.27.13-.51.3-.54.58a1.49,1.49,0,0,0-1,1C80.09,9.24,80.81,10,81.63,10.26Z"/><path class="cls-2" d="M119.43,86.78c-.28.06-.25.47-.2.54a.5.5,0,0,0,.13.12c.09-.22.17-.43.26-.64A.3.3,0,0,0,119.43,86.78Z"/><path class="cls-2" d="M122.25,74.15a1.65,1.65,0,0,0-.79,2,1.69,1.69,0,0,0,1.2,1c.22-1,.41-2,.58-2.93A1.37,1.37,0,0,0,122.25,74.15Z"/><path class="cls-2" d="M107,81.74c-.06-.15-.38-.18-.55-.15s-.39.29-.3.52.51.14.67.08A.42.42,0,0,0,107,81.74Z"/><path class="cls-2" d="M118,81.07a1.35,1.35,0,0,0,.52-1.85,1.43,1.43,0,0,0-1.81-.47A1.33,1.33,0,0,0,118,81.07Z"/><path class="cls-2" d="M114.93,71.21a1,1,0,0,0,.43-1.15,1,1,0,0,0-1.26-.4.79.79,0,0,0-.36,1A.86.86,0,0,0,114.93,71.21Z"/><path class="cls-2" d="M116.25,88a.88.88,0,0,0-.55-1,.65.65,0,0,0-.89.18c-.41.52-.17,1,.18,1.47C115.56,88.55,116.13,88.63,116.25,88Z"/><path class="cls-2" d="M110.24,56.3a.69.69,0,0,0,.45-1,.76.76,0,0,0-.93-.42c-.35.09-.63,1-.37,1.21A1,1,0,0,0,110.24,56.3Z"/><path class="cls-2" d="M111.87,61.58c.79-.3,1-1.22.64-2.21a1.41,1.41,0,0,0-1.92-.78,1.76,1.76,0,0,0-.86,2.19A1.85,1.85,0,0,0,111.87,61.58Z"/><path class="cls-2" d="M110,48.6a1.29,1.29,0,0,0,.77.07,1.2,1.2,0,0,0,.8-1.41c-.13-.61-.47-.88-1-.79a1.77,1.77,0,0,0-.42.15.91.91,0,0,0-.77,0,1.56,1.56,0,0,0-.72,1.65C108.82,48.55,109.45,48.7,110,48.6Z"/><path class="cls-2" d="M109.85,52c-.22.19-.47.41-.43.68s.81.59,1.17.38.27-.49.15-.77S110.14,51.7,109.85,52Z"/><path class="cls-2" d="M108.85,76.07c.14,0,.48-.38.39-.58s-.55-.22-.68-.15a.48.48,0,0,0-.25.52A.5.5,0,0,0,108.85,76.07Z"/><path class="cls-2" d="M111.66,72.14c.31-.2.55-.5.3-.82s-.77-.75-1.07-.62-.16,1-.06,1.24S111.29,72.39,111.66,72.14Z"/><path class="cls-2" d="M114.68,73.94a.25.25,0,0,0,.13-.34.28.28,0,0,0-.34-.09c-.07,0-.1.25-.06.31A.26.26,0,0,0,114.68,73.94Z"/><path class="cls-2" d="M113.43,68.08a1.47,1.47,0,0,0,.3-1.84c-.31-.61-.89-.72-1.64-.32a1.18,1.18,0,0,0-.48,1.36C111.85,67.77,113.05,68.29,113.43,68.08Z"/><path class="cls-2" d="M65.27,29.18c.31-.09.24-1,.14-1.05-.29-.23-.62-.61-1-.49s-.3.63-.2.77S65,29.28,65.27,29.18Z"/><path class="cls-2" d="M115.83,67.13a.87.87,0,0,0,.16-.79c-.08-.18-.66-.51-.87-.4s-.26.84-.16.93S115.66,67.29,115.83,67.13Z"/><path class="cls-2" d="M118.11,60.64a1.6,1.6,0,0,0-.63-1.83c-.51-.34-1.38.19-1.88.9a1.54,1.54,0,0,0,.54,1.93A1.61,1.61,0,0,0,118.11,60.64Z"/><path class="cls-2" d="M114.51,58.9a.93.93,0,0,0,.59-.55c.11-.59-.39-.71-.82-.85-.45.3-.7.66-.41,1.14A.7.7,0,0,0,114.51,58.9Z"/><path class="cls-2" d="M114.7,49a1.27,1.27,0,0,0-.3-1c-.5-.44-.86.06-1.31.37.15.64.35,1.14,1,1.11C114.32,49.46,114.69,49.17,114.7,49Z"/><path class="cls-2" d="M118.44,55.36a14.48,14.48,0,0,0-1.37-1.22.76.76,0,0,0-1.11.19.8.8,0,0,0,.1,1.12,2.51,2.51,0,0,1,.46.61,1.25,1.25,0,0,0,1.46.75C118.61,56.68,118.84,56.22,118.44,55.36Z"/><path class="cls-2" d="M122.61,51.28a1.46,1.46,0,0,1-1.34.85,1.36,1.36,0,0,0-.88,1.3,1.8,1.8,0,0,0,1.52,1c.4,0,1-.06,1-.57a1.53,1.53,0,0,1,.23-.69c-.13-.68-.26-1.35-.4-2A.3.3,0,0,0,122.61,51.28Z"/><path class="cls-2" d="M119.2,53.65a.68.68,0,0,0,.24-.21h.1c.25-.1.58-.49.55-.7s-.19-.32-.34-.45a.6.6,0,0,0-.08-.2,1.57,1.57,0,0,0-1.65-.37.8.8,0,0,0-.31,1.16C118.13,53.69,118.6,53.94,119.2,53.65Z"/><path class="cls-2" d="M112.57,56.64a1.31,1.31,0,0,0,.91-.49.4.4,0,0,0-.17-.61.91.91,0,0,0-.72.15c-.22.12-.47.18-.58.43S112.2,56.66,112.57,56.64Z"/><path class="cls-2" d="M118.27,64.53a.89.89,0,0,0-.54-1,.67.67,0,0,0-.9.19c-.4.52-.16,1,.19,1.47C117.58,65.09,118.15,65.17,118.27,64.53Z"/><path class="cls-2" d="M112.54,53.07a.54.54,0,0,0-.28.6.46.46,0,0,0,.51.37.5.5,0,1,0-.23-1Z"/><path class="cls-2" d="M99.74,24a1.78,1.78,0,0,1,1.12-.39c.19,0,.43-.44.44-.68a1,1,0,0,0-.4-.73.82.82,0,0,0-.71.12,7.45,7.45,0,0,0-1,.9c-.26.27-.19.54.12.81C99.46,24,99.66,24.09,99.74,24Z"/><path class="cls-2" d="M105.42,20.47c-.85-.81-1.72-1.59-2.62-2.35a.68.68,0,0,0,0,.14c-.06.83.42,1.67,1.13,1.49a2,2,0,0,0,.27.34A1.46,1.46,0,0,0,105.42,20.47Z"/><path class="cls-2" d="M101.35,16.94c-.49-.39-1-.79-1.49-1.16a1.33,1.33,0,0,0,.41,1A1.51,1.51,0,0,0,101.35,16.94Z"/><path class="cls-2" d="M88,9h.07l-.72-.32A.79.79,0,0,0,88,9Z"/><path class="cls-2" d="M123.63,56.42l-.12.11,0,0,.21.47C123.68,56.78,123.66,56.6,123.63,56.42Z"/><path class="cls-2" d="M111.41,29.17a2.06,2.06,0,0,0,.76,2.17,2,2,0,0,0,2.13-.26,60.92,60.92,0,0,0-3.82-5.2l-.29.11a1.17,1.17,0,0,0-.48,1.89A9.64,9.64,0,0,0,111.41,29.17Z"/><path class="cls-2" d="M111.52,36.27a.87.87,0,0,0,.51-1.11.67.67,0,0,0-1-.46.82.82,0,1,0,.46,1.57Z"/><path class="cls-2" d="M108.51,29.93c.22,0,.5-.32.6-.55a.73.73,0,0,0-.18-.66c-.44-.33-.84-.14-1.2.29C107.84,29.45,107.92,30,108.51,29.93Z"/><path class="cls-2" d="M110.07,25.4c-.86-1-1.75-2-2.67-3a3,3,0,0,0-.08.32,2.68,2.68,0,0,0,.26,1.16,2.31,2.31,0,0,0,.47.62,7.43,7.43,0,0,0,.59.53A1.28,1.28,0,0,0,110.07,25.4Z"/><path class="cls-2" d="M45.25,28.46c.14-.06.35-.3.29-.5a.5.5,0,0,0-.52-.25c-.15,0-.51.35-.44.55S45.11,28.52,45.25,28.46Z"/><path class="cls-2" d="M64.2,16.59c.33-.33-.06-1.34-.43-1.33s-.9.88-.59,1.23A.81.81,0,0,0,64.2,16.59Z"/><path class="cls-2" d="M66.37,24.72a1.66,1.66,0,0,0,.8-1.93,1.2,1.2,0,0,0-1.57-.45A1.12,1.12,0,0,0,65,23.93C65.24,24.61,65.86,25,66.37,24.72Z"/><path class="cls-2" d="M62,22.82a.81.81,0,0,0,.57-1.05.84.84,0,0,0-1.07-.55,1,1,0,0,0-.59,1.09A.84.84,0,0,0,62,22.82Z"/><path class="cls-2" d="M63.37,9.91A.8.8,0,0,0,62.82,9c-.67-.23-.91.3-1.16.77l-.88-.22c0-.08,0-.16,0-.24a1.84,1.84,0,0,0,.38-.26c.54-.45,1.09-.87,1.63-1.3.87.93,1,.93,1.64,0a1.21,1.21,0,0,0,.77,0,.76.76,0,0,0,.45-1A1.15,1.15,0,0,0,64.38,6a.94.94,0,0,0-.66,1.13,1.23,1.23,0,0,0-.52.07c-.82-1.37-1.74-1.27-2.58.2a1.82,1.82,0,0,1-.33,0,.65.65,0,0,0-.75.27,1.47,1.47,0,0,0-.85.28,1.26,1.26,0,0,0,.23,1.55c.14.18.3.33.45.5a3,3,0,0,0-.26,1.57,3.9,3.9,0,0,0-.35.19,1.56,1.56,0,0,0-.25,2,1.6,1.6,0,0,0,2.2-.16,1.71,1.71,0,0,0,.39-1.23l.22-.06c.87-.27,1-.95.92-1.73C62.72,10.5,63.31,10.63,63.37,9.91Z"/><path class="cls-2" d="M66,22.06c.4-.34.29-1.14-.23-1.72a1,1,0,0,0-1.25,0,1.21,1.21,0,0,0-.19,1.53A1.4,1.4,0,0,0,66,22.06Z"/><path class="cls-2" d="M91.77,24.3a.82.82,0,0,0,.28-.7,1.33,1.33,0,0,0-.09-.81,1.76,1.76,0,0,0-1.28-.89,1.32,1.32,0,0,0-1.26.62,1.14,1.14,0,0,0,0,1.16,1.38,1.38,0,0,0,1,.74C91,24.4,91.49,24.59,91.77,24.3Z"/><path class="cls-2" d="M88,11.39a1.68,1.68,0,0,0-1-.81.93.93,0,0,0-.91-.32c-.25.08-.35.39-.38.7a1.61,1.61,0,0,0-.49,2.09,2,2,0,0,0,2.4.34A1.52,1.52,0,0,0,88,11.39Z"/><path class="cls-2" d="M78.23,18.25c.59.22,1-.16,1.26-.69-.17-.47-.38-.94-1-.91a.76.76,0,0,0-.75.83A1,1,0,0,0,78.23,18.25Z"/><path class="cls-2" d="M77.77,12.45a.84.84,0,0,0-1-.56A.86.86,0,0,0,76.21,13a.67.67,0,0,0,.93.54A.83.83,0,0,0,77.77,12.45Z"/><path class="cls-2" d="M60.06,30c.21-.06.2-.49.18-.67s-.25-.28-.4-.21a.6.6,0,0,0-.31.47C59.55,29.75,59.85,30.1,60.06,30Z"/><path class="cls-2" d="M59.73,5.69a1.79,1.79,0,0,0,2.41-.42A1.94,1.94,0,0,0,62.49,4c-1.14,0-2.28.09-3.4.18A1.9,1.9,0,0,0,59.73,5.69Z"/><path class="cls-2" d="M41.86,9C42.6,8.75,43,8.29,43,7.81c-.69.26-1.38.53-2.06.81A.7.7,0,0,0,41.86,9Z"/><path class="cls-2" d="M92.63,33.53c.41-.37.48-1.15.12-1.39s-1.61.42-1.64.92S92.22,33.9,92.63,33.53Z"/><path class="cls-2" d="M43,10.71a1,1,0,0,0,.51-1.19,1,1,0,0,0-1.24-.44.88.88,0,0,0-.48,1.11A1,1,0,0,0,43,10.71Z"/><path class="cls-2" d="M58.52,24.61a.57.57,0,0,0,.53-.71c-.09-.4-.59-.78-.9-.58s-.82.62-.65,1S58.26,24.64,58.52,24.61Z"/><path class="cls-2" d="M36.67,18.56a1,1,0,0,0,.86-.29,1,1,0,0,0-.46-1.47.88.88,0,0,0-1.07,1A1.16,1.16,0,0,0,36.67,18.56Z"/><path class="cls-2" d="M58.35,9.17c.19-.19.15-.62.18-.84-.46-.44-.79-.32-1-.08s-.39.65,0,.88A1,1,0,0,0,58.35,9.17Z"/><path class="cls-2" d="M59.65,19.71a.85.85,0,0,0-1.17-.52,1,1,0,0,0-.39,1.27.93.93,0,0,0,1.16.39A.84.84,0,0,0,59.65,19.71Z"/><path class="cls-2" d="M60.71,15.81a.54.54,0,0,0,.12.09,1,1,0,0,0,.82.09c.59-.32.51-.85.22-1.48a2.9,2.9,0,0,0-.88,0l-.11,0a.69.69,0,0,0-.6.27,1.08,1.08,0,0,0,.08.89A.5.5,0,0,0,60.71,15.81Z"/><rect class="cls-3" x="14.27" y="69.51" width="92.27" height="30.88" rx="6.92"/><rect class="cls-4" x="85.84" y="74.88" width="4.05" height="19.56"/><rect class="cls-4" x="77.74" y="74.88" width="4.05" height="19.56"/><circle class="cls-4" cx="31.55" cy="85.37" r="6.01"/><path class="cls-5" d="M25.54,84.48l.08,0a6,6,0,0,1,.63-1.91,1.51,1.51,0,0,0-.42-.45.56.56,0,0,0-.27-.56.49.49,0,0,0-.71.1.6.6,0,0,0-.16.42,2,2,0,0,0-.77,1.65A1.31,1.31,0,0,0,25.54,84.48Z"/><path class="cls-5" d="M24.09,78c.2,0,.34-.5.47-.78,0-.07,0-.2-.11-.39-.31.11-.89,0-1,.36S23.65,78.11,24.09,78Z"/><path class="cls-5" d="M21.75,86.26c.3-.12.27-.35.21-.59s-.41-.52-.67-.34a1.81,1.81,0,0,0-.42.48A.67.67,0,0,0,21.75,86.26Z"/><path class="cls-5" d="M18.58,87a1.21,1.21,0,0,0,1.2-.42.79.79,0,0,0-.23-1,1.66,1.66,0,0,0-.41-.19.63.63,0,0,0-.53-.14.61.61,0,0,0-.53.69h0s0,.07,0,.1,0,0,0,0A1.23,1.23,0,0,0,18.58,87Z"/><path class="cls-5" d="M31.12,91.36a.42.42,0,0,0,.09.29c.1.07.46.18.55,0a.34.34,0,0,0,0-.28h-.19Z"/><path class="cls-5" d="M17.75,89.87a.8.8,0,0,0,1.07.51,1.3,1.3,0,0,0,.44-.22,1,1,0,0,0,.36.26.92.92,0,0,0,.92-.15,1.09,1.09,0,0,0,.45-.92c-.07-.38,0-.82-.25-1a.66.66,0,0,0-.59-.13,1,1,0,0,0-.63.17,1.88,1.88,0,0,0-.29.32.78.78,0,0,0-.78-.35A1.42,1.42,0,0,0,17.75,89.87Z"/><path class="cls-5" d="M37.4,91.09c-.09-.49-.46-.56-.9-.51a1,1,0,0,0,0,1.23C37.18,91.66,37.46,91.44,37.4,91.09Z"/><path class="cls-5" d="M32.2,95.7a1.07,1.07,0,0,0,.51-.64.42.42,0,0,0-.18-.44l.1-.16c-.13-.49-.43-.67-.72-.59a.65.65,0,0,0-.41.8.67.67,0,0,0,.06.12.62.62,0,0,0,0,.73A.63.63,0,0,0,32.2,95.7Z"/><path class="cls-5" d="M34,94.34c.15,0,.29-.13.36-.32a.73.73,0,0,0,.16.14.77.77,0,0,0,1-.23.79.79,0,0,0-.3-1,.64.64,0,0,0-.86.23,1.45,1.45,0,0,0-.11.26c-.1-.08-.22-.14-.28-.19-.5.13-.75.44-.59.68A1.12,1.12,0,0,0,34,94.34Z"/><path class="cls-5" d="M33.68,91.13a.41.41,0,0,0,.14.68c.28.14.57.21.79-.1a.83.83,0,0,0-.32-.95l-.14,0-.21.1A1.24,1.24,0,0,0,33.68,91.13Z"/><path class="cls-5" d="M22.4,85.23a.7.7,0,0,0,1-.06,1.49,1.49,0,0,0-.15-1.49c-.43-.29-.86-.16-1.2.37S21.87,84.9,22.4,85.23Z"/><path class="cls-5" d="M18.74,80.26a1.16,1.16,0,0,0-1.18,0,1,1,0,0,0,.06,1.08.48.48,0,0,0,.33.15H17.8c-.42,0-1,.35-.67,1a.62.62,0,0,0-.57.13.54.54,0,0,0-.56-.21.75.75,0,0,0-.62.84,1.87,1.87,0,0,1-.07.75,1,1,0,0,0,.11,1.17,1.39,1.39,0,0,0,1.44-.08c.28-.26.6-.52.34-1-.06-.1-.1-.21-.15-.31a1,1,0,0,0,.85-.48.61.61,0,0,0,.05-.18,1.72,1.72,0,0,0,.93,0,.92.92,0,0,0,.39-.28.27.27,0,0,0,.09.12,5.35,5.35,0,0,0,.83.66c.25.17.45.09.63-.2,0-.08,0-.25-.08-.3a1.52,1.52,0,0,1-.44-.85c-.05-.14-.4-.28-.6-.26l-.06,0a1.38,1.38,0,0,0-.11-1,.57.57,0,0,0-.84-.11C18.83,80.63,18.86,80.4,18.74,80.26ZM18,81.47a.55.55,0,0,0,.28-.13C18.24,81.47,18.18,81.47,18,81.47Z"/><path class="cls-5" d="M21.12,80.16a.52.52,0,0,0-.16-.78.94.94,0,0,0-1.23,0,1.09,1.09,0,0,0,.11,1.24C20.18,80.89,20.78,80.67,21.12,80.16Z"/><path class="cls-5" d="M16.88,85.73c-.48-.36-.81-.29-1.2.26s-.34,1,0,1.2A1.56,1.56,0,0,0,17.2,87,.87.87,0,0,0,16.88,85.73Z"/><path class="cls-5" d="M20.78,75.24c0-.07,0-.25-.07-.39a1.19,1.19,0,0,0-.44.13c-.06,0-.12.37,0,.47S20.69,75.34,20.78,75.24Z"/><path class="cls-5" d="M17.19,88.51c.16,0,.34-.16.37-.32s-.09-.38-.27-.39a.35.35,0,0,0-.37.25A.48.48,0,0,0,17.19,88.51Z"/><path class="cls-5" d="M21.34,73.61c.08-.09.15-.44,0-.56s-.47.08-.53.18-.07.39,0,.46A.44.44,0,0,0,21.34,73.61Z"/><path class="cls-5" d="M30.19,98a.81.81,0,0,0,1-.33,1.12,1.12,0,0,0,.1-.5,1.09,1.09,0,0,0,.24-1,.87.87,0,0,0-1.21-.6c-.54.18-.83.6-.68,1l0,.07s-.1.07-.13.12C29.39,97,29.73,97.72,30.19,98Z"/><path class="cls-5" d="M23.33,82.29a1,1,0,0,0-.27-1.13.69.69,0,0,0-.94.27.77.77,0,0,0,.12,1A1,1,0,0,0,23.33,82.29Z"/><path class="cls-5" d="M22,87.26a.76.76,0,0,0,.24.35l.12,0a1,1,0,0,0,.67.27.75.75,0,0,0,.47-.32.5.5,0,0,0,.32-.21A1.17,1.17,0,0,0,23.27,86c-.46-.29-.91-.13-1.26.46l0,.07a.62.62,0,0,0-.09.53A.87.87,0,0,0,22,87.26Z"/><path class="cls-5" d="M22.06,83.2c.3-.12.27-.35.21-.59s-.41-.52-.67-.34a1.81,1.81,0,0,0-.42.48A.68.68,0,0,0,22.06,83.2Z"/><path class="cls-5" d="M42.94,93.9a.71.71,0,0,0,.58-.23c.09-.14.18-.62,0-.76s-.61.1-.76.23A.49.49,0,0,0,42.94,93.9Z"/><path class="cls-5" d="M48.39,92.71A1,1,0,0,0,49.51,91a1.35,1.35,0,0,0-1.62.45A1,1,0,0,0,48.39,92.71Z"/><path class="cls-5" d="M47.79,89.22a.21.21,0,0,0-.1-.26s-.21,0-.23.09,0,.19,0,.24A.21.21,0,0,0,47.79,89.22Z"/><path class="cls-5" d="M45.14,89.93a.71.71,0,0,0,.25-.58.65.65,0,0,0-.9-.32.62.62,0,0,0,.11.93A.57.57,0,0,0,45.14,89.93Z"/><path class="cls-5" d="M44.93,92.72c.61.9-.15,1.08.07,1.86a1.19,1.19,0,0,0,.19.31.87.87,0,0,0,1.55-.33A5.62,5.62,0,0,0,47,93.14,1.34,1.34,0,0,0,45.87,92C45.56,91.93,44.87,92.08,44.93,92.72Z"/><path class="cls-5" d="M50,96.25c0,.11.25.17.46.29.07-.22.19-.39.15-.51a.39.39,0,0,0-.38-.17A.46.46,0,0,0,50,96.25Z"/><path class="cls-5" d="M65.74,93.54c.1-.17-.15-.58-.27-.86,0-.08-.19-.1-.37-.18-.12.31-.59.67-.38,1A.63.63,0,0,0,65.74,93.54Z"/><path class="cls-5" d="M69.53,95.86a.62.62,0,0,0,.49-.73.54.54,0,0,0-.7-.38.48.48,0,0,0-.39.6A.53.53,0,0,0,69.53,95.86Z"/><path class="cls-5" d="M17.47,91.19a.25.25,0,0,0,0-.41.25.25,0,0,0-.4,0,.26.26,0,0,0,0,.42A.26.26,0,0,0,17.47,91.19Z"/><path class="cls-5" d="M51.74,91.12c.08-.07.15-.43,0-.54s-.41.12-.51.23a.29.29,0,0,0,.07.35A.43.43,0,0,0,51.74,91.12Z"/><path class="cls-5" d="M60.36,93.07a.48.48,0,0,0,.24-.4c0-.12-.23-.4-.39-.4s-.26.41-.23.52S60.23,93.1,60.36,93.07Z"/><path class="cls-5" d="M61.28,94.69c.17,0,.18-.38.16-.52s-.21-.14-.32-.2a1.14,1.14,0,0,0-.21.41C60.91,94.46,61.11,94.72,61.28,94.69Z"/><path class="cls-5" d="M39.34,92.62c-.07.09-.13.26-.22.42.22.07.4.18.52.14a.4.4,0,0,0,.16-.39s0,0,0,0a.71.71,0,0,0,.54-.27.53.53,0,0,0-.13-.85.65.65,0,0,0-1,.11A.67.67,0,0,0,39.34,92.62Z"/><path class="cls-5" d="M25.52,89a.7.7,0,0,0,.81.55.71.71,0,0,0,.5-.48,5.59,5.59,0,0,1-.6-.92.53.53,0,0,0-.25,0A.68.68,0,0,0,25.52,89Z"/><path class="cls-5" d="M26.41,92.51a.41.41,0,0,0,.07.36.5.5,0,0,0,.44-.05c.08-.07.1-.47,0-.53S26.51,92.41,26.41,92.51Z"/><path class="cls-5" d="M27.44,90.93a.68.68,0,0,0,.87-.51,6.42,6.42,0,0,1-1-.83,2.1,2.1,0,0,0-.43.19,12.43,12.43,0,0,0-1.27-.32.45.45,0,0,0-.44.72c.31.36.54.85,1.12.95l.58-.35a2.1,2.1,0,0,0,.58.13Z"/><path class="cls-5" d="M41.3,89.86a.69.69,0,0,0,1-.2.75.75,0,0,0-.28-1,.7.7,0,0,0-1,.28A.72.72,0,0,0,41.3,89.86Z"/><path class="cls-5" d="M28.81,95.77c.07-.15-.09-.41-.17-.45s-.41-.17-.49,0a.44.44,0,0,0,.1.46C28.34,95.84,28.74,95.93,28.81,95.77Z"/><path class="cls-5" d="M28.48,90.79c0,.06,0,.19,0,.23A.2.2,0,0,0,28.8,91a.22.22,0,0,0-.09-.27C28.65,90.66,28.5,90.74,28.48,90.79Z"/><path class="cls-5" d="M37.21,90.06a.82.82,0,0,0,.28,1,.61.61,0,0,0,.86-.18.75.75,0,0,0-.19-1A.77.77,0,0,0,37.21,90.06Z"/><path class="cls-5" d="M29.89,94.2a3.85,3.85,0,0,0,1.32-1.87,1.33,1.33,0,0,0,0-.36,1.11,1.11,0,0,0-.42-.65,4.21,4.21,0,0,1-.6-.11,1.09,1.09,0,0,0-.48.26,5.24,5.24,0,0,0-.92,1.12,1.35,1.35,0,0,0,.37,1.55A.53.53,0,0,0,29.89,94.2Z"/><path class="cls-5" d="M40.49,96.38c.1,0,.13-.15.13-.22s-.13-.14-.15-.12a1,1,0,0,0-.19.21C40.34,96.29,40.38,96.4,40.49,96.38Z"/><path class="cls-5" d="M39.55,88.82c.07-.07.14-.43,0-.53s-.41.11-.51.22a.3.3,0,0,0,.06.36A.48.48,0,0,0,39.55,88.82Z"/><path class="cls-5" d="M54.25,100.34l0,0H55a.53.53,0,0,0-.15-.08A2.2,2.2,0,0,0,54.25,100.34Z"/><path class="cls-5" d="M53.63,95.13a.56.56,0,0,0-.2-.67.76.76,0,0,0-1,.12,1.82,1.82,0,0,1-.59.46,1,1,0,0,0-.79.88c0,.35.63,1,1,1s.79.08,1-.43.3-.74.45-1.1l0-.06.14.13c0-.06.16-.1.14-.2S53.69,95.15,53.63,95.13Z"/><path class="cls-5" d="M52.94,92.85l-.19.12,0,1.09.25.14c.23-.21.85-.29.8-.72S53.2,93,52.94,92.85Z"/><path class="cls-5" d="M59.28,100.25a1,1,0,0,0-.36.14H60.5A1.81,1.81,0,0,0,59.28,100.25Z"/><path class="cls-5" d="M57.35,98.45a2.16,2.16,0,0,0-.64,0,.68.68,0,0,0,.27,1c.29.13.44,0,.57-.25S57.66,98.53,57.35,98.45Z"/><path class="cls-5" d="M44.92,99.74c-.06-.18-.49-.58-.7-.5s-.27.58-.21.73a.66.66,0,0,0,.51.34A.43.43,0,0,0,44.92,99.74Z"/><path class="cls-5" d="M56.42,96.7a1.37,1.37,0,0,0,.45-.63c.14-.55-.55-.82-.94-.69s-.27,0-.59-.24a.7.7,0,0,0-1.21.2,1.27,1.27,0,0,0,.44,1.46.89.89,0,0,0,0,.48c.08.38.77.69,1.28.58a.84.84,0,0,0,.71-1A1.11,1.11,0,0,0,56.42,96.7Z"/><path class="cls-5" d="M50.16,95.19c.16-.3-.18-.63-.33-.78a.45.45,0,0,0-.71,0c-.21.26-.2.77.08.86S50,95.49,50.16,95.19Z"/><path class="cls-5" d="M49.14,98.43a1.18,1.18,0,0,0-.89-.88.93.93,0,0,0-.92.61,1.29,1.29,0,0,0-1.58.39,1.31,1.31,0,0,0,0,1.4,1,1,0,0,0-.79.24l-.21.2h2.51a1.49,1.49,0,0,0,.51-.52,1.7,1.7,0,0,0,.23-.55.59.59,0,0,0,.45.18.68.68,0,0,0,.48-.27,1.27,1.27,0,0,0,.23-.12,1.21,1.21,0,0,1,0-.18A1,1,0,0,0,49.14,98.43Z"/><path class="cls-5" d="M51.12,98.44c-.1.16-.3.32-.29.47s.12.58.47.5.3-.49.26-.63S51.28,98.55,51.12,98.44Z"/><path class="cls-5" d="M49.69,100.39h1.16a.43.43,0,0,0-.1-.09A1.26,1.26,0,0,0,49.69,100.39Z"/><path class="cls-5" d="M52.2,98.45a.74.74,0,0,0,.18,1,.69.69,0,0,0,.92-.31.65.65,0,0,0-.17-.88A.61.61,0,0,0,52.2,98.45Z"/><path class="cls-5" d="M59.88,97.74a1.41,1.41,0,0,0,.85-1.53,1,1,0,0,0-1.91.78C59,97.52,59.48,97.87,59.88,97.74Z"/><path class="cls-5" d="M74.07,97.47s-.21.25-.18.32.25.37.43.35.19-.4.15-.46A.63.63,0,0,0,74.07,97.47Z"/><path class="cls-5" d="M69.39,97.94c-.51.12-.69.53-.52,1.14s.54.67,1.14.49c.42-.12.66-.43.59-.76S69.74,97.85,69.39,97.94Z"/><path class="cls-5" d="M71.17,99.45a.75.75,0,0,0-.54.94H72.5a.64.64,0,0,0,.08-.44A1.17,1.17,0,0,0,71.17,99.45Z"/><path class="cls-5" d="M76.11,96.6c.24-.32-.39-1-.83-1s-.82.57-.68.89S75.87,96.92,76.11,96.6Z"/><path class="cls-5" d="M77.9,98.81a.63.63,0,0,0-.66-.43c-.58,0-.75.21-.88.88a12.63,12.63,0,0,0-1.08.74.48.48,0,0,0-.15.39H77c0-.15,0-.3.08-.46C77.66,99.64,78,99.16,77.9,98.81Z"/><path class="cls-5" d="M64.68,96.78c-.49.1-.89.58-.8.94a1.08,1.08,0,0,0,1,.74c.42-.09.65-.7.49-1.29A.51.51,0,0,0,64.68,96.78Z"/><path class="cls-5" d="M61.47,97.87c-.55.1-.93.92-.75,1.65a.9.9,0,0,0,1.17.7,1.11,1.11,0,0,0,.87-1.44A1.19,1.19,0,0,0,61.47,97.87Z"/><path class="cls-5" d="M63.86,99a1.15,1.15,0,0,0-.8.87c0,.16.18.35.39.49h.83a.68.68,0,0,0,.12-.44C64.35,99.38,64.14,99,63.86,99Z"/><path class="cls-5" d="M67.31,99.4a1.49,1.49,0,0,1-.92-.22c-.14-.06-.49.11-.6.27a.82.82,0,0,0,0,.67.66.66,0,0,0,.53.22,6.14,6.14,0,0,0,1-.19c.3-.07.37-.28.27-.6C67.51,99.51,67.4,99.38,67.31,99.4Z"/><path class="cls-5" d="M67.39,96.39a.7.7,0,0,0-.42.87.77.77,0,0,0,.82.56c.32-.08.71-.63.63-.89A1,1,0,0,0,67.39,96.39Z"/><path class="cls-5" d="M16.54,79.57a1.11,1.11,0,0,0,1.66-.3A1.19,1.19,0,0,0,18,77.71a1.34,1.34,0,0,0-1.73.52A.9.9,0,0,0,16.54,79.57Z"/><path class="cls-5" d="M17.67,97.08a.86.86,0,0,0-.05-.27,1.24,1.24,0,0,0-1.09-.87c-.47,0-1,.51-1.2.43s-.26-.84-.81-1.07a6.94,6.94,0,0,0,4,4.57,1.85,1.85,0,0,1,.08-.77A1.36,1.36,0,0,0,17.67,97.08Z"/><path class="cls-5" d="M19.54,98.54a.67.67,0,0,0-.39.89.65.65,0,0,0,.75.49.86.86,0,0,0,.45-1A.65.65,0,0,0,19.54,98.54Z"/><path class="cls-5" d="M21.57,96.54c-.11-.47-.6-.86-1-.75a.84.84,0,0,0-.14.06,1.41,1.41,0,0,0,.16-1.17,1.22,1.22,0,0,0-.21-.39A1.87,1.87,0,0,0,21.55,94,.46.46,0,0,0,22,94c.53-.2.46-.57.39-.72s0-.49.18-.35.37.13.72-.2a.72.72,0,0,0,.12-1.06A1,1,0,0,0,22,91.56a1.16,1.16,0,0,0-.4.54s0,0-.07-.07c-.34-.26-.67-.43-.62-1,0-.39-.34-.51-.72-.51-.37.38-.36.74,0,1a7,7,0,0,0-.62,1.13,1.57,1.57,0,0,0,.35,1.25A1.38,1.38,0,0,0,19,94c-.91.35-1.1.71-.89,1.5a1.29,1.29,0,0,0,1.76.8l.17-.07a1.38,1.38,0,0,0-.27,1.07.65.65,0,0,0,.17.27h0a1,1,0,0,0,.94.21A.93.93,0,0,0,21.57,96.54Z"/><path class="cls-5" d="M45.26,97.43a1.11,1.11,0,0,0-.19-1.4,1.34,1.34,0,0,0-1.45.41,1,1,0,1,0,1.64,1Z"/><path class="cls-5" d="M14.56,93.41a1.09,1.09,0,0,0,.84.7,1.53,1.53,0,0,0,1.21-.63.64.64,0,0,0,.74.36.65.65,0,0,0,.4-.38.72.72,0,0,0,.11.19c.22.23.51.13.68-.12s.27-.49,0-.72a.69.69,0,0,0-.81,0,.66.66,0,0,0-.75-.37l-.13.05a1,1,0,0,0-.29-.54.84.84,0,0,0-.2-.29,1.22,1.22,0,0,0-.44-.27,1.22,1.22,0,0,0,.17-1.07,2,2,0,0,0,.2-.11c0-.22,0-.47,0-.7,0,0,0,0,0,0A.89.89,0,0,0,16,88.26a1.16,1.16,0,0,0-1.24,0,.85.85,0,0,0-.28.66,1.17,1.17,0,0,0-.19.3v2.29a1.09,1.09,0,0,0,.33.19,1.41,1.41,0,0,0-.33.53V93a1,1,0,0,0,.28.4Z"/><path class="cls-5" d="M14.72,83.77a1.49,1.49,0,0,0-.45-.19V86a1.38,1.38,0,0,0,.75-.5A1.41,1.41,0,0,0,14.72,83.77Z"/><path class="cls-5" d="M15,81a.76.76,0,0,0,1.14.37c.09-.42.15-.84-.35-1S15.14,80.61,15,81Z"/><path class="cls-5" d="M18.78,76.06a1,1,0,0,0-.37-1.19,1,1,0,0,0-1.48.27.94.94,0,0,0,.14,1.28A1.42,1.42,0,0,0,18.78,76.06Z"/><path class="cls-5" d="M15.63,72.32a7.23,7.23,0,0,0-.77,1.32.73.73,0,0,0,.61-.31A1.25,1.25,0,0,0,15.63,72.32Z"/><path class="cls-5" d="M21.39,99.92a.28.28,0,0,0-.09-.13c-.21-.18-.41.12-.51.22a.44.44,0,0,0,.06.36h1.29A.73.73,0,0,0,22,100,.55.55,0,0,0,21.39,99.92Z"/><path class="cls-5" d="M14.79,77.64a1.06,1.06,0,0,0-.52-.21V80a1.57,1.57,0,0,0,1-.49C15.73,79,15.51,78.18,14.79,77.64Z"/><path class="cls-5" d="M22.82,93.66a.76.76,0,0,0-.49.91.83.83,0,0,0,1,.44.71.71,0,0,0,.45-.86A.76.76,0,0,0,22.82,93.66Z"/><path class="cls-5" d="M40.78,96.9a.77.77,0,0,0-1,.27.72.72,0,0,0,.31.92.68.68,0,0,0,.9-.36A.58.58,0,0,0,40.78,96.9Z"/><path class="cls-5" d="M39.31,99.07,39.19,99a1,1,0,0,0,.59-1.08,1.19,1.19,0,0,0-.51-.6s.06,0,.08-.07a1.29,1.29,0,0,0-.43-1.44,1.18,1.18,0,0,0-1.28.4.87.87,0,0,0,.17,1,1.74,1.74,0,0,0,.34.16,1.39,1.39,0,0,0-.22,1,1.07,1.07,0,0,0,.3.49,1.13,1.13,0,0,0-.69.45,1.53,1.53,0,0,0-.19,1h2.54A1.37,1.37,0,0,0,39.31,99.07Z"/><path class="cls-5" d="M25.63,98.78a1.21,1.21,0,0,0-1.1-.69A1.19,1.19,0,0,0,24,97.2a1,1,0,0,0-.16,0,.76.76,0,0,0-.16-.29.32.32,0,0,0,.14,0c.29-.07.55-.58.58-1a.93.93,0,0,0,0-.66.68.68,0,0,0,.25.33.7.7,0,0,0,.89-.15.64.64,0,0,0-.07-.79,1.38,1.38,0,0,0,.54-.13l.11-.07a1.19,1.19,0,0,0-.11.86c.13.41.62.58,1.22.41s.84-.63.74-1a1.27,1.27,0,0,0-1.16-.82.89.89,0,0,0-.24-.12,1.62,1.62,0,0,0,0-.39,2.14,2.14,0,0,0-.7-1.32,1,1,0,0,1-.26-.5.89.89,0,0,0-1.22-.84.57.57,0,0,0,0-.26.78.78,0,0,0-.95-.31.81.81,0,0,0-.63,1,.69.69,0,0,0,.9.4h0a1.33,1.33,0,0,0,.16.66,1.3,1.3,0,0,1,.22.92,1.45,1.45,0,0,0,.56,1.27l.06,0a.68.68,0,0,0-.35.66v0a.57.57,0,0,0-.72.12h0c-.71.2-1.09.62-1,1.08a.89.89,0,0,0,.36.43.4.4,0,0,0-.21.2.87.87,0,0,0-.11.41,1.23,1.23,0,0,0-.26.12.81.81,0,0,0-.33.51,1.23,1.23,0,0,0,.49,1.26v0h.06a2,2,0,0,0,.41.19l.38.1s0,.09,0,.14a5.76,5.76,0,0,0-.19.68.77.77,0,0,0,0,.15h2.09a1,1,0,0,0,.51-1l.06.06a.53.53,0,0,0,.84-.13.59.59,0,0,0-.14-.8C26.38,98.31,25.68,98.51,25.63,98.78Z"/><path class="cls-5" d="M42.51,98a.93.93,0,0,0,.15,1.23.77.77,0,0,0,1.05-.15,1.11,1.11,0,0,0-.34-1.3A.61.61,0,0,0,42.51,98Z"/><path class="cls-5" d="M41.93,100a.86.86,0,0,0-.54.41h1.42A.85.85,0,0,0,41.93,100Z"/><path class="cls-5" d="M42.26,96.38c.43-.06.43-.63.61-.9l-.12-.19-.39,0a.76.76,0,0,0-.19-.21,1.46,1.46,0,0,0-1.5.23.89.89,0,0,0,.42,1.29.75.75,0,0,0,1-.24A.38.38,0,0,0,42.26,96.38Z"/><path class="cls-5" d="M35.11,98.76a.76.76,0,0,0-.26-1,.66.66,0,0,0-.4-.07,1.5,1.5,0,0,1,.11-.22.73.73,0,0,0,1-.3.64.64,0,0,0-.36-.88l-.06,0A1,1,0,0,0,34.4,95a1.22,1.22,0,0,0-1.54,1c-.23,1,.8,1,.42,1.58s-.71,0-1.18.77a1.42,1.42,0,0,0-.2.82s0,0,0,0a.58.58,0,0,0-.62,0,1.25,1.25,0,0,0-1.26-.6.68.68,0,0,0-.4.52.59.59,0,0,0-.38-.14.65.65,0,0,0-.7.57,1.74,1.74,0,0,1-.2.58,2.45,2.45,0,0,0-.12.31h1.56c0-.08,0-.16,0-.25a.89.89,0,0,0,.3.25h.58l.1,0a.08.08,0,0,0,0,0h1.59a.73.73,0,0,0,0-.46.62.62,0,0,0,.33.08c.66,0,.89-.55,1-.51s.76.39,1-.07a1.32,1.32,0,0,0,.15-.36A.73.73,0,0,0,35.11,98.76Z"/><path class="cls-5" d="M28.51,98.23A.62.62,0,0,0,28.8,98c.18-.3.1-.65-.21-.73h0a1.42,1.42,0,0,0-1.43-.94A1.51,1.51,0,0,0,26.18,98a1.42,1.42,0,0,0,1.63.81A1.26,1.26,0,0,0,28.51,98.23Z"/><path class="cls-5" d="M38.72,94.36a.84.84,0,0,0-.42-1.06.92.92,0,0,0-1.34.29h0a.32.32,0,0,0-.2-.07c-.14,0-.57.13-.48.48s.36.3.54.27a.63.63,0,0,0,.29.54A1.34,1.34,0,0,0,38.72,94.36Z"/><path class="cls-5" d="M35.9,99.21a.59.59,0,0,0-.82.32,1.22,1.22,0,0,0-.22.86H36.3l0,0C36.54,100.07,36.28,99.42,35.9,99.21Z"/><rect class="cls-6" x="35.08" y="45.15" width="92.27" height="30.88" rx="6.92"/><path class="cls-7" d="M42.69,60.59c.06.3.74.35,1.15,0a.52.52,0,0,0,.17-.28.46.46,0,0,0,.56.14c.52-.2.46-.57.39-.72s0-.49.17-.36.38.13.72-.2a.71.71,0,0,0,.13-1A1,1,0,0,0,44.51,58c-.46.36-.33.68-.64.89a.51.51,0,0,0-.23.64h0C43.41,59.38,42.64,60.29,42.69,60.59Z"/><path class="cls-7" d="M41.89,69.51a.66.66,0,0,0,.61.18A1.15,1.15,0,0,0,43,69.2a1.23,1.23,0,0,0,1.19-.33,1.25,1.25,0,0,0-.35-1.62.74.74,0,0,0-.81,0A.85.85,0,0,0,42,67c-.54.18-.82.6-.67,1a1.34,1.34,0,0,0,.63.66A.67.67,0,0,0,41.89,69.51Z"/><path class="cls-7" d="M46,62a.62.62,0,0,0,.68.44c.33-.07.38-.3.22-.93a.64.64,0,0,0,0-.07A.6.6,0,0,0,46,62Z"/><path class="cls-7" d="M46.85,58.71h0a1.6,1.6,0,0,1,0-.21A.53.53,0,0,0,46.85,58.71Z"/><path class="cls-7" d="M41.52,65.67l0,0c.13.07.43.16.51,0a.43.43,0,0,0-.08-.4,3.24,3.24,0,0,0,.86-1.42,1.13,1.13,0,0,0,0-.37.87.87,0,0,0-1.51-.5,5,5,0,0,0-.67.78,2.81,2.81,0,0,0-.81-.3,1.43,1.43,0,0,0-.94.12,1.47,1.47,0,0,0-.74,1l0,0a2.36,2.36,0,0,0-.65-1.12.9.9,0,0,1-.26-.5A.89.89,0,0,0,36,62.12a.46.46,0,0,0,0-.26.76.76,0,0,0-.92-.31V63a.93.93,0,0,0,.23,0h0a1.39,1.39,0,0,0,.12.53,1.61,1.61,0,0,0-.35.34v1.41s0,.07.07.1l-.07,0v1.14a.67.67,0,0,0,.3-.77.64.64,0,0,0-.1-.18,1.15,1.15,0,0,0,.59.3.55.55,0,0,0,.33,0l.06.07a1.22,1.22,0,0,0,1.35.13l0,0a.36.36,0,0,1,0,.1,1.13,1.13,0,0,0-.06.72.73.73,0,0,0,.77.47,1.91,1.91,0,0,0,1,.44h.17a.85.85,0,0,0,.23,0,1.54,1.54,0,0,0,1.14-.44c.36-.35.14-.89.22-1.39A.45.45,0,0,0,41.52,65.67Z"/><path class="cls-7" d="M37.63,70.83c.31.22.61.2.75-.13a2.56,2.56,0,0,0,.2-.54,1.36,1.36,0,0,0,.86.07,1.14,1.14,0,0,0,.84-1.31c-.21-.75-1-1.32-1.52-1.17a1.54,1.54,0,0,0-.95,1.67.85.85,0,0,0,.17.29,3,3,0,0,0-.49.35C37.25,70.23,37.35,70.61,37.63,70.83Z"/><path class="cls-7" d="M35.36,57.28c.39-.75.3-1.06-.18-1.51h-.1v1.81A.9.9,0,0,0,35.36,57.28Z"/><path class="cls-7" d="M36.72,66.5c-.06.06,0,.34.06.35a.5.5,0,0,0,.45,0c.07-.07.1-.47,0-.53S36.81,66.39,36.72,66.5Z"/><path class="cls-7" d="M44.72,57a.44.44,0,0,0,.27-.35c0-.1-.21-.4-.39-.37s-.19.39-.18.53S44.59,57,44.72,57Z"/><path class="cls-7" d="M36.74,56a.92.92,0,0,0,.24.62,1.28,1.28,0,0,0,.53.32.58.58,0,0,0,0,.19.78.78,0,0,0,.32.57.61.61,0,0,0,.23.09,1.52,1.52,0,0,0-.77.28,1.14,1.14,0,0,0-.19,1.76.81.81,0,0,0,.14.12.74.74,0,0,0-.06.53A.69.69,0,0,0,38,61a.72.72,0,0,0,.54-.74,1,1,0,0,0,.42-.23,1.58,1.58,0,0,0,0-1.94,1.16,1.16,0,0,0-.82-.33c.24,0,.49-.18.84-.6-.08-.15-.14-.31-.23-.45l.14-.07a4.18,4.18,0,0,0,0-.86.05.05,0,0,0,0,0H36A1.49,1.49,0,0,0,36.74,56Z"/><path class="cls-7" d="M40,57.63a.24.24,0,0,0,0-.41.24.24,0,0,0-.39,0,.25.25,0,0,0,0,.41C39.73,57.78,39.86,57.79,40,57.63Z"/><path class="cls-7" d="M44.62,62c.21.27,1.13,0,1.16-.41a.7.7,0,0,0-.59-.68C44.78,60.89,44.41,61.71,44.62,62Z"/><path class="cls-7" d="M35.08,57.87v1.28a1,1,0,0,0,.23-.95A.59.59,0,0,0,35.08,57.87Z"/><path class="cls-7" d="M35.08,60.9l.16,0c.29-.08.59-.06.77-.42a.89.89,0,0,0-.59-1.14.76.76,0,0,0-.34,0Z"/><path class="cls-7" d="M43.13,63.16a.76.76,0,0,0,.2.88c.29.19.75-.13,1-.35s.21-1-.08-1.14S43.27,62.91,43.13,63.16Z"/><path class="cls-7" d="M38.8,61.19a.82.82,0,0,0,.27,1.21.7.7,0,0,0,.92-.72.94.94,0,0,0-.48-.67A.8.8,0,0,0,38.8,61.19Z"/><path class="cls-7" d="M42.6,61.46a2,2,0,0,0-.36-.17c-.34.19-.69.42-.59.88a.6.6,0,0,0,.74.49A.83.83,0,0,0,43,62.2a.48.48,0,0,0,0-.24.33.33,0,0,0,.13-.28c0-.18-.28-.25-.41-.24Z"/><path class="cls-7" d="M40.68,57.22A1.16,1.16,0,0,0,40,58.61a1.41,1.41,0,0,0,.36.62.85.85,0,0,0-.23.2,2,2,0,0,0,.31.66c.22.23.51.13.68-.13a.84.84,0,0,0,.16-.38,1.25,1.25,0,0,0,.32,0,1,1,0,0,0,.79-1.22C42.14,57.62,41.24,57,40.68,57.22Z"/><path class="cls-7" d="M60.85,69.8c.07-.22.19-.39.15-.51a.4.4,0,0,0-.39-.17.45.45,0,0,0-.22.39C60.41,69.62,60.64,69.68,60.85,69.8Z"/><path class="cls-7" d="M77.83,69.65a.69.69,0,0,0-.42.87.77.77,0,0,0,.82.56c.32-.08.71-.63.63-.88A1,1,0,0,0,77.83,69.65Z"/><path class="cls-7" d="M46.83,67.62a1,1,0,0,0,.62-.33.9.9,0,0,0,.07-1.1,4.53,4.53,0,0,0-.56-.72,3.25,3.25,0,0,0,.11-.42,1.36,1.36,0,0,0-.58-1.41,1.59,1.59,0,0,0-1.55.12.79.79,0,0,0-.33.5,1.4,1.4,0,0,0,0,.5h0c-.23,0-.45.18-.61.37a.66.66,0,0,0-.11.26.42.42,0,0,0-.33,0,.64.64,0,0,0-.41.79.49.49,0,0,0,.71.33,1.85,1.85,0,0,0,.43-.54.79.79,0,0,1,0-.09.51.51,0,0,0,.69-.14.45.45,0,0,0,0-.31l.2.17a1,1,0,0,0,.48.25l.06,0,.31.09c-.06.21-.13.41-.19.61a1.16,1.16,0,0,0-1.19.63h0l0,0-.06.14a1,1,0,0,0,0,.16h0c-.24,1,.79,1,.42,1.58s-.71,0-1.18.77-.07,1.69.59,1.66a.89.89,0,0,0,.38-.09s.06.08.1.1a.74.74,0,0,0,1.07-.28s0-.06,0-.08a.48.48,0,0,0,.48-.22c.55-1-.44-1.23-.36-1.56s.59-.8.74-1.29A2.13,2.13,0,0,0,46.83,67.62Z"/><path class="cls-7" d="M63.37,66.11l-.19.12,0,1.09.25.14c.24-.21.86-.29.8-.72S63.63,66.3,63.37,66.11Z"/><path class="cls-7" d="M61.54,64.79a.28.28,0,0,0,.06.36.48.48,0,0,0,.45,0c.07-.07.14-.44,0-.54S61.63,64.69,61.54,64.79Z"/><path class="cls-7" d="M75.11,70c-.49.1-.89.58-.8.94a1.07,1.07,0,0,0,1,.74c.41-.09.64-.7.49-1.29A.52.52,0,0,0,75.11,70Z"/><path class="cls-7" d="M71.55,67.23a1.29,1.29,0,0,0-.2.41c0,.08.2.34.37.31s.18-.38.16-.52S71.67,67.3,71.55,67.23Z"/><path class="cls-7" d="M70.8,66.33a.45.45,0,0,0,.23-.4c0-.12-.23-.4-.39-.39s-.25.4-.22.51S70.67,66.36,70.8,66.33Z"/><path class="cls-7" d="M59.5,69.27c.24.07.8.21,1-.09s-.18-.63-.33-.78a.44.44,0,0,0-.7,0C59.21,68.67,59.22,69.17,59.5,69.27Z"/><path class="cls-7" d="M70,69a1,1,0,0,0-.78,1.29c.16.53.66.88,1,.75a1.41,1.41,0,0,0,.86-1.52A1,1,0,0,0,70,69Z"/><path class="cls-7" d="M66.29,69.36a.74.74,0,0,0-.51-.1l-.14-.14a.71.71,0,0,0-1.21.21A1.38,1.38,0,0,0,65.19,71a.86.86,0,0,0,.54.09,1.1,1.1,0,0,0,.51,0,.91.91,0,0,0,.71-.66,1,1,0,0,0,.22-.4C67.3,69.54,66.68,69.27,66.29,69.36Z"/><path class="cls-7" d="M53.16,67.07l-.09.06c-.21.19-.1.7.17.75a.6.6,0,0,0,.4-.08.36.36,0,0,0,.26.06c.43-.07.43-.64.61-.91l-.12-.19-1.09.06Z"/><path class="cls-7" d="M55.3,68.56a1.12,1.12,0,0,0,.19.32A.87.87,0,0,0,57,68.55a5.62,5.62,0,0,0,.23-1.42A1.37,1.37,0,0,0,56.17,66c-.31,0-1,.11-.94.75C55.84,67.61,55.08,67.78,55.3,68.56Z"/><path class="cls-7" d="M52.58,70.14a.74.74,0,0,0-.11-1,1.52,1.52,0,0,0-1.22,0,1.21,1.21,0,0,0-1.13-.47c-.38.09-.67.78-.55,1.3a.83.83,0,0,0,1,.68,1.18,1.18,0,0,0,.49-.3,1.21,1.21,0,0,0,.34.29C51.81,70.87,52.26,70.69,52.58,70.14Z"/><path class="cls-7" d="M51.08,70.89a.78.78,0,0,0-.95.26.72.72,0,0,0,.31.93.68.68,0,0,0,.9-.36A.58.58,0,0,0,51.08,70.89Z"/><path class="cls-7" d="M75.91,65.94c0-.08-.2-.1-.37-.18-.13.31-.59.67-.38,1a.62.62,0,0,0,1,.06C76.28,66.63,76,66.22,75.91,65.94Z"/><path class="cls-7" d="M60,66.31A.89.89,0,0,0,59.81,65a1.34,1.34,0,0,0-1.62.45,1,1,0,0,0,.5,1.22A.9.9,0,0,0,60,66.31Z"/><path class="cls-7" d="M79.76,68a.49.49,0,0,0-.4.6.54.54,0,0,0,.61.51.62.62,0,0,0,.49-.73A.54.54,0,0,0,79.76,68Z"/><path class="cls-7" d="M58,63c0,.1-.12.2-.18.3l0,0a.21.21,0,0,0,.28-.07.23.23,0,0,0-.09-.27Z"/><path class="cls-7" d="M64,68.38s-.14.13-.13.15a1,1,0,0,0,.21.19c0-.06.15-.1.13-.2S64.06,68.38,64,68.38Z"/><path class="cls-7" d="M61.27,74.56a.57.57,0,0,0-.22-.28,1.42,1.42,0,0,0-1.58.53.78.78,0,0,0,.35,1.12A1.07,1.07,0,0,0,60,76h.66a1.11,1.11,0,0,0,.47-.45,0,0,0,0,0,0,0,.29.29,0,0,0,.37,0A1,1,0,0,0,62,75C62.06,74.69,61.56,74.42,61.27,74.56Z"/><path class="cls-7" d="M73.19,72a1.17,1.17,0,0,0-1.28-.9c-.55.09-.93.92-.76,1.64a.91.91,0,0,0,1.17.7A1.1,1.1,0,0,0,73.19,72Z"/><path class="cls-7" d="M69.71,73.51a1.11,1.11,0,0,0-.89,1.17,1.22,1.22,0,0,0-.63.43,1.09,1.09,0,0,0-.09.92h2.52s0-.08,0-.13a1.62,1.62,0,0,0,.79-1.54C71.34,73.69,70.6,73.33,69.71,73.51Z"/><path class="cls-7" d="M43.55,74a.58.58,0,0,0,.75-.35.86.86,0,0,0,0-.67c-.33-.42-.74-.3-1.2,0C43.12,73.46,43.05,73.9,43.55,74Z"/><path class="cls-7" d="M72.47,74.56c-.41.27-.3.65-.08,1a.75.75,0,0,0,1-.61C73.17,74.6,72.89,74.28,72.47,74.56Z"/><path class="cls-7" d="M67.13,74.33c-.95-.57-1.24.41-1.57.33l-.07,0a.38.38,0,0,0-.29-.32.89.89,0,0,0-.23,0,2.58,2.58,0,0,0-.67-.4c-.68-.23-1.41-.06-1.57.68A1.2,1.2,0,0,0,63.38,76h4.2c-.14-.38-.45-.56-.42-.68S67.58,74.6,67.13,74.33Zm-2.08,1.34a.43.43,0,0,1,.19.08h0A.88.88,0,0,0,65.05,75.67Z"/><path class="cls-7" d="M63.3,70.47c.13-.37.3-.73.46-1.1a.57.57,0,0,0,0-.92.75.75,0,0,0-1,.12,1.93,1.93,0,0,1-.6.45,1,1,0,0,0-.78.89c0,.35.62,1,1,1S63.13,71,63.3,70.47Z"/><path class="cls-7" d="M61.56,71.7c-.11.16-.31.32-.3.47s.13.58.47.5S62,72.18,62,72,61.71,71.81,61.56,71.7Z"/><path class="cls-7" d="M63.61,73.15a.64.64,0,0,0-.17-.87.62.62,0,0,0-.94.16.73.73,0,0,0,.19,1A.69.69,0,0,0,63.61,73.15Z"/><path class="cls-7" d="M67.65,72.44a2.18,2.18,0,0,0-.64,0,.66.66,0,0,0,.27.94c.29.14.44,0,.58-.24S68,72.52,67.65,72.44Z"/><path class="cls-7" d="M84.5,70.73s-.2.25-.17.33.25.37.42.34.2-.4.16-.46A.68.68,0,0,0,84.5,70.73Z"/><path class="cls-7" d="M87.67,71.64c-.57,0-.74.21-.87.88a12.87,12.87,0,0,0-1.09.74.46.46,0,0,0,.25.81c.47,0,1,.16,1.46-.21,0-.21.07-.44.11-.67.57-.28.94-.77.81-1.12A.65.65,0,0,0,87.67,71.64Z"/><path class="cls-7" d="M75.28,74.73c-.5.26-.75.59-.64.84a1.13,1.13,0,0,0,1.1.41c.26-.1.43-.72.3-1A.52.52,0,0,0,75.28,74.73Z"/><path class="cls-7" d="M89.8,75.23c-.13,0-.45.15-.42.35s.36.23.43.2.34-.11.3-.34A.24.24,0,0,0,89.8,75.23Z"/><path class="cls-7" d="M86.54,69.86c.24-.32-.39-1-.82-1s-.83.57-.68.89S86.31,70.18,86.54,69.86Z"/><path class="cls-7" d="M78,72.81c-.08,0-.2-.17-.28-.15a1.45,1.45,0,0,1-.93-.22c-.14-.06-.48.11-.59.27a.82.82,0,0,0,0,.67c0,.13.34.23.52.22a6.44,6.44,0,0,0,1.05-.19C78.06,73.34,78.13,73.13,78,72.81Z"/><path class="cls-7" d="M78.81,75.2c-.56.17-.88.49-.91.83h1.79a.66.66,0,0,0,0-.37A.79.79,0,0,0,78.81,75.2Z"/><path class="cls-7" d="M79.82,71.2c-.5.12-.69.53-.52,1.14s.54.68,1.15.49c.42-.12.66-.43.59-.76A1.45,1.45,0,0,0,79.82,71.2Z"/><path class="cls-7" d="M81.61,72.71c-.52.15-.7.6-.49,1.25a1,1,0,0,0,1,.57c.42-.12,1-1,.9-1.32A1.18,1.18,0,0,0,81.61,72.71Z"/><path class="cls-7" d="M74.83,73.21c0-.57-.26-.92-.54-.92a1.15,1.15,0,0,0-.79.87c0,.28.5.67.85.67A.52.52,0,0,0,74.83,73.21Z"/><path class="cls-7" d="M41.5,55.94a1.06,1.06,0,0,0,.65.92.92.92,0,0,0,.92-.15,1.1,1.1,0,0,0,.45-.92v0h-2S41.5,55.88,41.5,55.94Z"/><path class="cls-7" d="M52.26,67.63s-.14-.13-.16-.12a1.29,1.29,0,0,0-.19.21c.07,0,.11.15.21.13S52.26,67.7,52.26,67.63Z"/><path class="cls-7" d="M37.47,73.39,37,73.31s0,0,0,0a.59.59,0,0,0-.13-.8h0a1.19,1.19,0,0,0-.12-.51,1.07,1.07,0,0,0,.7-1.28c-.24-.81-.9-1.29-1.51-1.1a1.38,1.38,0,0,0-.45.29.52.52,0,0,0-.12-.31.64.64,0,0,0,.43-.24.63.63,0,0,0,.1-.29,1.08,1.08,0,0,0,1.24-.24c.21-.3-.14-1.24-.55-1.48a.79.79,0,0,0-.61,0,.74.74,0,0,0,0-.3.57.57,0,0,0-.73-.45,1,1,0,0,1-.16.06v2.5a6.93,6.93,0,0,0,2.69,5.47.64.64,0,0,0,.35-.67C38.08,73.56,37.79,73.44,37.47,73.39Z"/><path class="cls-7" d="M50.62,66.48a.52.52,0,0,0-.11-.83l-.35-.16a.63.63,0,0,0-.63.25.67.67,0,0,0,.13.89A.7.7,0,0,0,50.62,66.48Z"/><path class="cls-7" d="M59.55,72.38c-.13-.67-.34-1-.7-.9a.78.78,0,0,0-.23.08l-.07,0a.9.9,0,0,0-.91.61,1.27,1.27,0,0,0-1.58.39,1.32,1.32,0,0,0-.05,1.4,1,1,0,0,0-.77.23c-.06-.14-.39-.21-.5-.18s-.3.26-.27.39a.47.47,0,0,0,.37.22A1.15,1.15,0,0,0,54.76,76l.05,0h2.26l0,0a.34.34,0,0,0-.12-.06,1.07,1.07,0,0,0,.19-.56c.12.36.8.67,1,.48s0-1.13-.38-1.16a.69.69,0,0,0-.66.48,1.57,1.57,0,0,0-.18-.59.59.59,0,0,1,0-.08A1.17,1.17,0,0,0,58,73.86a1.7,1.7,0,0,0,.23-.55.6.6,0,0,0,.46.17.9.9,0,0,0,.72-1Z"/><path class="cls-7" d="M47.79,65a.62.62,0,0,0,.29.09.34.34,0,0,0-.17.37c.09.35.5.29.63.25s.23-.29.34-.45a2.27,2.27,0,0,0-.4-.26.77.77,0,0,0,.18-.18.84.84,0,0,0,.09-.25,6.87,6.87,0,0,1-.78-.84.69.69,0,0,0-.45.31A.8.8,0,0,0,47.79,65Z"/><path class="cls-7" d="M49.65,71.25a1.29,1.29,0,0,0-.43-1.44,1.18,1.18,0,0,0-1.28.4.87.87,0,0,0,.17,1.05C48.74,71.66,49.41,71.65,49.65,71.25Z"/><path class="cls-7" d="M48.32,56l-.22-.05a.45.45,0,0,0-.44.71l.06.09A5.48,5.48,0,0,1,48.32,56Z"/><path class="cls-7" d="M39.1,72c.18-.3.1-.65-.21-.73s-.48-.12-.64,0,0,.8.27.94S39,72.15,39.1,72Z"/><path class="cls-7" d="M49,68.35a.84.84,0,0,0-.42-1.07.93.93,0,0,0-1.34.29,1,1,0,0,0,.15,1.23A1.34,1.34,0,0,0,49,68.35Z"/><path class="cls-7" d="M42.06,74.79a.93.93,0,0,0,.61-.41,1.27,1.27,0,0,0-.51-1.26.73.73,0,0,0-.19-.07c0-.22-.14-.43-.43-.68L41.12,72a.66.66,0,0,0,.36-.29.7.7,0,0,0,.68.24,1.11,1.11,0,0,0,.8-1.09A1.22,1.22,0,0,0,41.61,70a.63.63,0,0,0-.36.4,1.14,1.14,0,0,0-.53-.08,1.38,1.38,0,0,0-.59-.41c-.48.25-.53.62-.29,1.1-.82.68-.81,1.28-.06,1.75a1.62,1.62,0,0,0-.1.18.53.53,0,0,0-.18,0,.65.65,0,0,0-.7.57,2,2,0,0,1-.19.58,1,1,0,0,0-.1.94.13.13,0,0,1,0,.06,6.69,6.69,0,0,0,.93.46,1.1,1.1,0,0,0,.5-.49c0-.16.06-.37.1-.6a1.32,1.32,0,0,0,1.17.28h0a.48.48,0,0,0,.14.69c.22.16.56.23.69-.07A.86.86,0,0,0,42.06,74.79Z"/><path class="cls-7" d="M55.56,71.41A1.1,1.1,0,0,0,55.37,70a1.34,1.34,0,0,0-1.45.41.92.92,0,0,0,.34,1.38A.9.9,0,0,0,55.56,71.41Z"/><path class="cls-7" d="M55,73.57a.42.42,0,0,0,.4-.57c-.06-.18-.49-.58-.69-.5s-.28.58-.22.73A.66.66,0,0,0,55,73.57Z"/><path class="cls-7" d="M53.23,74.63a.87.87,0,0,0-1-.66.77.77,0,0,0-.43.28,1,1,0,0,0,0-.57,1,1,0,0,0-1.31-.74,1.2,1.2,0,0,0-.58.42,1.47,1.47,0,0,0-.31-.3,1.42,1.42,0,0,0-1.78.34,1.52,1.52,0,0,0,0,1.56A.88.88,0,0,0,47.36,76h2.32a1,1,0,0,0,0-.42.78.78,0,0,0-.28-.44,1.29,1.29,0,0,0,.68-.45.88.88,0,0,0,.07-.23,1.38,1.38,0,0,0,1.17.34.62.62,0,0,0,.26-.17.86.86,0,0,0,0,.32.79.79,0,0,0,.75.54,1.47,1.47,0,0,0-.51.08,1.11,1.11,0,0,0-.47.43h1.87a1,1,0,0,0-.11-.17.24.24,0,0,0,.06-.21.5.5,0,0,0-.15-.19.94.94,0,0,0,.36,0c.09,0,.14-.22.2-.34a2.72,2.72,0,0,0-.35-.16A.88.88,0,0,0,53.23,74.63Zm-.67.91-.12,0,.15,0Zm.36-.13h0a0,0,0,0,1,0,0Z"/><path class="cls-7" d="M52.81,72A.92.92,0,0,0,53,73.19a.76.76,0,0,0,1-.14,1.1,1.1,0,0,0-.33-1.3A.62.62,0,0,0,52.81,72Z"/><path class="cls-7" d="M44.23,76a.72.72,0,0,0,.24-.76.61.61,0,0,0-.76-.44.57.57,0,0,0-.49.63,1,1,0,0,0-1.13.06,1,1,0,0,0-.18.56h2.85a.37.37,0,0,0-.25,0Z"/><path class="cls-7" d="M45.62,76H46A.61.61,0,0,0,45.62,76Z"/><path class="cls-7" d="M45.91,72.6a1.27,1.27,0,0,0-.59.32.91.91,0,0,0,.09-.17.77.77,0,0,0-.25-1c-.49-.25-.84.06-1.18.32.11.8.29,1.07.73,1.08a.71.71,0,0,0,.44-.11,1.41,1.41,0,0,0-.34,1.16,1.56,1.56,0,0,0,1.65,1c.66-.14,1-.89.81-1.77A1.14,1.14,0,0,0,45.91,72.6Z"/><circle class="cls-4" cx="52.71" cy="60.05" r="6.01"/><rect class="cls-4" x="106.96" y="50.82" width="4.05" height="19.56"/><rect class="cls-4" x="98.86" y="50.82" width="4.05" height="19.56"/><path class="cls-8" d="M40.7,12.57l-.12-.05-.14-.07c-.11,0,.14.13.12.11a3.34,3.34,0,0,0-.69-.32,10.28,10.28,0,0,0-1.67-.18c-1.8-.2-3.65-.15-5.46-.18-2.28-.05-5-.36-7.17.22s-4.48.2-6.64.12c-2.95-.12-6.41-.63-9.18.6a8.92,8.92,0,0,0-5,7.76c-.07,1.14-.11,2.28-.15,3.42-.1,2.55-.17,5.15-.11,7.7,0,1,.16,2.09.27,3.13a3.47,3.47,0,0,0,.6,2.11L5,36.05v0a1.27,1.27,0,0,0,2.53,0v0l-.37.89c.87-.94.69-3,.78-4.16.17-2.16,0-4.35,0-6.52,0-1.72-.09-3.43-.17-5.14a5.75,5.75,0,0,1,2.3-5.2c2.29-1.66,5.78-1.2,8.47-1.3a32.37,32.37,0,0,1,6.3-.1A21.23,21.23,0,0,0,28.3,15h3.4c2,0,4.12,0,6.14-.16.6-.05,1.21-.1,1.8-.19a2.6,2.6,0,0,0,.92-.36c-.15.08-.15.17,0,.06s.1,0,.15-.07a1,1,0,0,0,0-1.67Z"/><path class="cls-8" d="M84.44,111.85l.12.05.14.07c.11,0-.14-.13-.12-.11a3.6,3.6,0,0,0,.69.32,10.4,10.4,0,0,0,1.67.18c1.81.2,3.65.15,5.47.18,2.28,0,4.94.36,7.16-.22s4.48-.2,6.65-.12c2.94.12,6.41.63,9.18-.6a8.93,8.93,0,0,0,5-7.76c.08-1.14.11-2.28.16-3.42.1-2.55.17-5.15.1-7.7,0-1-.16-2.09-.26-3.13a3.47,3.47,0,0,0-.6-2.11l.37.89v0a1.27,1.27,0,0,0-2.53,0v0l.37-.89c-.87.94-.7,3-.79,4.16-.17,2.16,0,4.35,0,6.52,0,1.72.09,3.43.17,5.14a5.74,5.74,0,0,1-2.3,5.2c-2.29,1.66-5.78,1.2-8.46,1.3a32.39,32.39,0,0,1-6.3.1,21.49,21.49,0,0,0-3.49-.44h-3.4c-2,0-4.11,0-6.14.16-.59,0-1.21.1-1.8.19a2.6,2.6,0,0,0-.92.36c.16-.08.16-.17,0-.06s-.1,0-.15.07a1,1,0,0,0,0,1.67Z"/><path class="cls-3" d="M13.22,46.11a23.45,23.45,0,0,1,46.89,0v10H13.22Z"/><path class="cls-3" d="M78.11,56.11a14.79,14.79,0,0,0-29.58,0"/><path class="cls-3" d="M17.41,41.32A14.79,14.79,0,0,0,2.62,56.11H32.2A14.79,14.79,0,0,0,17.41,41.32Z"/><polygon class="cls-4" points="44.44 38.37 39.31 38.37 39.31 33.03 35.04 33.03 35.04 38.37 29.91 38.37 29.91 42.64 35.04 42.64 35.04 47.98 39.31 47.98 39.31 42.64 44.44 42.64 44.44 38.37"/><path class="cls-5" d="M31.68,38a.4.4,0,0,0,.16-.39.47.47,0,0,0-.39-.21c-.11,0-.17.26-.29.47C31.39,37.93,31.56,38.05,31.68,38Z"/><path class="cls-5" d="M32,38.37H33.7a.85.85,0,0,0-.06-.17,1,1,0,0,0-.24-.28A.85.85,0,0,0,32,38.37Z"/><path class="cls-5" d="M32.34,35.1c.1-.52-.58-.74-.84-.69s-.28,1.23,0,1.42S32.24,35.63,32.34,35.1Z"/><path class="cls-5" d="M32,36.51c-.08.07-.21.42,0,.55s.46-.07.51-.17a.41.41,0,0,0,0-.47C32.31,36.31,32.07,36.41,32,36.51Z"/><path class="cls-5" d="M34.12,31.65c.1-.17.12-.76-.08-.86s-.62.18-.69.33a.65.65,0,0,0,.08.6A.43.43,0,0,0,34.12,31.65Z"/><path class="cls-5" d="M44,38.37A1.12,1.12,0,0,0,43.81,37a1.19,1.19,0,0,0-1.48.25c-.2.26-.06.8.23,1.16Z"/><path class="cls-5" d="M40.64,33.42a.41.41,0,0,0-.12-.41.47.47,0,0,0-.45.1c-.06.09,0,.3.09.53C40.37,33.55,40.58,33.53,40.64,33.42Z"/><path class="cls-5" d="M33.57,34.45c-.32.27-.07,1.13.26,1.2s.86-.73.62-1A.69.69,0,0,0,33.57,34.45Z"/><path class="cls-5" d="M22,32.88a1,1,0,0,0,.79-1.22c-.19-.69-1.1-1.29-1.65-1.09A1.17,1.17,0,0,0,20.35,32,1.26,1.26,0,0,0,22,32.88Z"/><path class="cls-5" d="M25.26,35.64a.64.64,0,0,0,0,.9.8.8,0,0,0,.61.22c.4,0,.52-.34.51-1.09C26,35.52,25.64,35.21,25.26,35.64Z"/><path class="cls-5" d="M25.13,30.34A.46.46,0,0,0,25.4,30c0-.1-.22-.4-.39-.37s-.2.39-.19.53S25,30.39,25.13,30.34Z"/><path class="cls-5" d="M43.35,35.32c.07-.09,0-.21,0-.26s-.19,0-.2,0a.88.88,0,0,0,0,.28C43.18,35.34,43.28,35.4,43.35,35.32Z"/><path class="cls-5" d="M22.44,28.65a.56.56,0,0,0,0-.53.57.57,0,0,0-.62-.05c-.21.14,0,.58.13.66A.52.52,0,0,0,22.44,28.65Z"/><path class="cls-5" d="M27.75,34.55a1.16,1.16,0,0,0,.33,1.53,1.08,1.08,0,0,0,.29.13,1.3,1.3,0,0,0,.19.42c.47-.1.74-.25.84-.44a1.28,1.28,0,0,0,.5-.43,1,1,0,0,0-.18-1.44A1.57,1.57,0,0,0,27.75,34.55Z"/><path class="cls-5" d="M30.7,31.77a.46.46,0,0,0,0-.44c-.07-.08-.43-.17-.54,0s.1.42.2.52A.28.28,0,0,0,30.7,31.77Z"/><path class="cls-5" d="M27,38.36a.73.73,0,0,0,1.17.86.71.71,0,0,0-.11-1A.81.81,0,0,0,27,38.36Z"/><path class="cls-5" d="M27.2,32.61a.48.48,0,0,0,.25-.19.46.46,0,0,0,.38,0c.18-.06.58-.5.49-.71s-.59-.25-.74-.19a.59.59,0,0,0-.28.33l-.11-.06a.6.6,0,0,0-.52.36C26.61,32.42,27.07,32.62,27.2,32.61Z"/><path class="cls-5" d="M26,38c-.49.12-.75.44-.59.67a1.1,1.1,0,0,0,.66.45c.27,0,.53-.48.38-.76A1.29,1.29,0,0,0,26,38Z"/><path class="cls-5" d="M25,35.33c.21.27,1.13,0,1.16-.41a.71.71,0,0,0-.59-.68C25.19,34.24,24.82,35.06,25,35.33Z"/><path class="cls-5" d="M47.24,41.16a1,1,0,0,0-1.85-.91.94.94,0,0,0,.14,1.28A1.41,1.41,0,0,0,47.24,41.16Z"/><path class="cls-5" d="M45,44.68a1.1,1.1,0,0,0,1.66-.31,1.17,1.17,0,0,0-.18-1.55c-.43-.35-1.3-.09-1.73.52A.9.9,0,0,0,45,44.68Z"/><path class="cls-5" d="M29.3,38.21a.54.54,0,0,0-.27.22.37.37,0,0,0-.22-.09c-.15,0-.58.14-.49.48s.45.3.61.26a.84.84,0,0,0,.92.47l.06,0V38.37H30A.93.93,0,0,0,29.3,38.21Z"/><path class="cls-5" d="M48.65,48.71c.25.17.46.08.63-.2,0-.09,0-.25-.07-.31a1.45,1.45,0,0,1-.45-.84c0-.14-.4-.29-.6-.26a.78.78,0,0,0-.52.41.63.63,0,0,0,.18.54A6,6,0,0,0,48.65,48.71Z"/><path class="cls-5" d="M49.24,40.34c0-.06,0-.25-.06-.38a1.41,1.41,0,0,0-.45.12c-.06.05-.12.38,0,.48S49.15,40.45,49.24,40.34Z"/><path class="cls-5" d="M55.23,52.43a.67.67,0,0,0-.1-.45s-.33,0-.36.09-.12.43,0,.54S55.22,52.5,55.23,52.43Z"/><path class="cls-5" d="M51.79,47.4a1,1,0,0,0-.27-1.13.7.7,0,0,0-.94.26.78.78,0,0,0,.13,1A1,1,0,0,0,51.79,47.4Z"/><path class="cls-5" d="M33.41,45.73A1.42,1.42,0,0,0,35,45.44V43.83s0,0-.06-.07a1.51,1.51,0,0,0-1.92.08A1.54,1.54,0,0,0,33.41,45.73Z"/><path class="cls-5" d="M39,48H37.72A1.43,1.43,0,0,0,39,48Z"/><path class="cls-5" d="M42.45,46.83a.67.67,0,0,0-.21-.94.6.6,0,0,0-.87.15.58.58,0,0,0,.11.87A.7.7,0,0,0,42.45,46.83Z"/><path class="cls-5" d="M43.25,42.74a1.24,1.24,0,0,0-.2-.1H42a1.26,1.26,0,0,0-.38.31,1.49,1.49,0,0,0,.21,2,1.54,1.54,0,0,0,1.9-.31C44.19,44.09,44,43.29,43.25,42.74Z"/><path class="cls-5" d="M44.63,46.47c.09-.41.15-.84-.34-1s-.69.21-.8.6A.76.76,0,0,0,44.63,46.47Z"/><path class="cls-5" d="M45.66,52.08a.88.88,0,0,0-.32-1.25c-.47-.35-.8-.28-1.19.27s-.34,1,0,1.2A1.54,1.54,0,0,0,45.66,52.08Z"/><path class="cls-5" d="M44.71,34.18c.29-.33-.08-.77-.11-1.09L44.38,33l-.8.74.06.29C44,34.09,44.43,34.5,44.71,34.18Z"/><path class="cls-5" d="M35,47.89v-.47c-.1.08-.19.22-.16.31A.31.31,0,0,0,35,47.89Z"/><path class="cls-5" d="M39.31,46.18V47.7a.48.48,0,0,0,.11-.09A1.1,1.1,0,0,0,39.31,46.18Z"/><path class="cls-5" d="M40,42.64h-.72v.65a.71.71,0,0,0,.41-.17A1.09,1.09,0,0,0,40,42.64Z"/><path class="cls-5" d="M47.2,45.37a1.14,1.14,0,0,0-1.18,0,1,1,0,0,0,.06,1.08.52.52,0,0,0,.78,0C47.26,46,47.39,45.58,47.2,45.37Z"/><path class="cls-5" d="M45.66,53.62c.15.05.33-.17.36-.32s-.09-.39-.27-.4a.35.35,0,0,0-.37.26A.48.48,0,0,0,45.66,53.62Z"/><path class="cls-5" d="M45.52,55.9a.31.31,0,0,0-.11.21H46a.29.29,0,0,0-.12-.22A.24.24,0,0,0,45.52,55.9Z"/><path class="cls-5" d="M46,47.72c-.53-.2-.94-.17-1.06.08a1.14,1.14,0,0,0,.42,1.1c.25.12.82-.16,1-.47A.52.52,0,0,0,46,47.72Z"/><path class="cls-5" d="M48.25,51.64a.8.8,0,0,0-.24-1c-.6-.37-1.16-.36-1.38,0a.94.94,0,1,0,1.62.94Z"/><path class="cls-5" d="M39.54,52.34a.69.69,0,0,0-.19-.94.82.82,0,0,0-1,.31l0,.12a1.22,1.22,0,0,0-1.43,2,1.68,1.68,0,0,0,2-.38,1,1,0,0,0,.1-.69A.78.78,0,0,0,39.54,52.34Z"/><path class="cls-5" d="M40.84,54.18a1.13,1.13,0,0,0-1.58.37,1.37,1.37,0,0,0,.39,1.56h1.51a1.83,1.83,0,0,0,.13-.16C41.76,55.06,41.57,54.8,40.84,54.18Z"/><path class="cls-5" d="M43.74,53.67a1.11,1.11,0,0,0-1.07.92.94.94,0,0,0,.24.7,1.31,1.31,0,0,0,1.84.05,4.18,4.18,0,0,0,0-.86A1,1,0,0,0,43.74,53.67Z"/><path class="cls-5" d="M43.18,48.88a1.38,1.38,0,0,0-1.46-.07,1.34,1.34,0,0,0-1.63.34,1.31,1.31,0,0,0,.32,1.91,1,1,0,0,0,1.33-.1l.12.1a1.33,1.33,0,0,0,1.62-.46A1.4,1.4,0,0,0,43.18,48.88Z"/><path class="cls-5" d="M48.61,53.31a1.2,1.2,0,0,0-.63.17,1.45,1.45,0,0,0-.55,1.13,1.07,1.07,0,0,0,.65.92.93.93,0,0,0,.92-.15,1.11,1.11,0,0,0,.46-.92c-.07-.38,0-.83-.26-1A.69.69,0,0,0,48.61,53.31Z"/><path class="cls-5" d="M55.3,54.89A10.27,10.27,0,0,0,54,54.57a.45.45,0,0,0-.44.71,3.37,3.37,0,0,0,.77.83h.57l.36-.22c.59.23,1.2.18,1.37-.14a.62.62,0,0,0-.12-.78C56.14,54.55,55.89,54.55,55.3,54.89Z"/><path class="cls-5" d="M54.2,47.4a.53.53,0,0,0-.18-.77.49.49,0,0,0-.71.1.54.54,0,0,0,0,.79A.61.61,0,0,0,54.2,47.4Z"/><path class="cls-5" d="M51.93,42.34c-.1.36.18.88.63.8.19,0,.33-.49.46-.77,0-.07-.05-.21-.11-.4C52.6,42.09,52,42,51.93,42.34Z"/><path class="cls-5" d="M57.31,51.68c-.34-.28-1-.24-1.11.08s.53,1.21.93,1.18S57.65,52,57.31,51.68Z"/><path class="cls-5" d="M49.42,44.49a.94.94,0,0,0-1.23,0,1.09,1.09,0,0,0,.11,1.24c.34.25.94,0,1.28-.48A.52.52,0,0,0,49.42,44.49Z"/><path class="cls-5" d="M20.54,36.51a.45.45,0,0,0-.73.17,2,2,0,0,0,0,.64.67.67,0,0,0,1-.22C20.91,36.81,20.74,36.65,20.54,36.51Z"/><path class="cls-5" d="M51.73,51.12c-.46-.28-.91-.12-1.26.47a.93.93,0,0,0,.24,1.12,1.59,1.59,0,0,0,1.58-.2A1.19,1.19,0,0,0,51.73,51.12Z"/><path class="cls-5" d="M50.86,50.34a.71.71,0,0,0,1-.06,1.46,1.46,0,0,0-.15-1.49c-.43-.3-.86-.16-1.2.37S50.33,50,50.86,50.34Z"/><path class="cls-5" d="M49.31,38.33a.31.31,0,1,0,.49.38.54.54,0,0,0,0-.55C49.73,38,49.37,38.23,49.31,38.33Z"/><path class="cls-5" d="M19.24,40.44c.46-.12.84-.63.75-1a1.28,1.28,0,0,0-1.27-.82.52.52,0,0,0-.19.08,1.21,1.21,0,0,0,.07-.58,2.17,2.17,0,0,0-.7-1.33,1,1,0,0,1-.26-.5.89.89,0,0,0-1.22-.84.46.46,0,0,0,0-.26.56.56,0,0,0-.34-.29c-.24.45-.47.91-.68,1.37a.67.67,0,0,0,.34,0h0a1.31,1.31,0,0,0,.16.66,1.28,1.28,0,0,1,.22.93,1,1,0,0,0,.18.79.68.68,0,0,0,.26,1.1,1.33,1.33,0,0,0,1.56-.44A1.11,1.11,0,0,0,18,40C18.15,40.44,18.65,40.61,19.24,40.44Z"/><path class="cls-5" d="M17.62,40.92c-.36-.14-.71-.33-1.07-.51a1,1,0,0,0-.21-.16.55.55,0,0,0-.7-.34c-.71.19-1.08.61-1,1.07a.94.94,0,0,0,.49.52,15.15,15.15,0,0,1,2.24-.18c.21,0,.41,0,.61,0A.55.55,0,0,0,17.62,40.92Z"/><path class="cls-5" d="M22.49,39.64c.16-.28,0-.45-.21-.59A.6.6,0,0,0,22,39a3.8,3.8,0,0,0,1.24-1.79,1.5,1.5,0,0,0,0-.37,1.7,1.7,0,0,0-.16-.36,1.36,1.36,0,0,0,1.16-.6A1.5,1.5,0,0,0,24,34.1a1,1,0,0,0,.26-.15c.42-.33,0-.94-.19-1.08s-.85.59-.94,1a1.14,1.14,0,0,0-1,.44A2,2,0,0,0,22.29,36a1,1,0,0,0-.55.26,5.84,5.84,0,0,0-.92,1.12A1.36,1.36,0,0,0,21.19,39a.77.77,0,0,0,.4.17.35.35,0,0,0-.05.08,2,2,0,0,0,0,.65A.68.68,0,0,0,22.49,39.64Z"/><path class="cls-5" d="M20.32,40.75a.67.67,0,0,0-.89.13,1.06,1.06,0,0,0-.11.21h-.15a1.2,1.2,0,0,0-.47.28,16.72,16.72,0,0,1,1.9.29A.69.69,0,0,0,20.32,40.75Z"/><path class="cls-5" d="M15.34,39.83a.7.7,0,0,0,.45-.86.75.75,0,0,0-.92-.49.76.76,0,0,0-.5.92A.83.83,0,0,0,15.34,39.83Z"/><path class="cls-5" d="M19.48,35.75A.7.7,0,0,0,20.4,35a.93.93,0,0,0-.48-.66.75.75,0,0,0-.71.17A.81.81,0,0,0,19.48,35.75Z"/><path class="cls-5" d="M18.37,34.39a.73.73,0,0,0,.54-.82A.8.8,0,0,0,18,33a.68.68,0,0,0-.45.85A.7.7,0,0,0,18.37,34.39Z"/><path class="cls-5" d="M19.31,30.54s0-.08,0-.13c-.21.23-.41.46-.61.7A1.73,1.73,0,0,0,19.31,30.54Z"/><path class="cls-5" d="M36.19,55a1.63,1.63,0,0,0-1.81.13,2.74,2.74,0,0,0-.49,1H37A1.89,1.89,0,0,0,36.19,55Z"/><path class="cls-5" d="M32,50.62c.12-.21-.19-.58-.49-.63a.54.54,0,0,0-.52.32c.09.22.17.45.25.68A.71.71,0,0,0,32,50.62Z"/><path class="cls-5" d="M32.07,48.34a1,1,0,0,0,.35.44,1.34,1.34,0,0,0,1.18.06h.2s.08-.07.11-.14a1.1,1.1,0,0,0,.3-.26A1.08,1.08,0,0,0,34,46.93a1.33,1.33,0,0,0-1.76,0,1,1,0,0,0-1.28-.68h0a1.36,1.36,0,0,0-.45-1.24.58.58,0,0,0-.86.14c-.41.6-.43,1.17,0,1.45a1.11,1.11,0,0,0,.8.05.69.69,0,0,0-.15.66,1.28,1.28,0,0,0,.49.57s0,0,0,0c-.1.51.35.69.73,1A1.79,1.79,0,0,0,32.07,48.34Z"/><path class="cls-5" d="M31.89,52.75l-.08,0a15,15,0,0,1,.35,2.62,1.21,1.21,0,0,0,.83-1A1.26,1.26,0,0,0,31.89,52.75Z"/><path class="cls-5" d="M34.54,53.12c.17.1.57-.16.85-.29.08,0,.1-.2.18-.38a2.2,2.2,0,0,1-.46-.27l.45-.13a1.32,1.32,0,0,0,1.07-1.67,3.11,3.11,0,0,1,0-.45c.27-.46.17-.74-.06-1a.65.65,0,0,0-.84,0c-.3.18-.62.34-.92.53s-.68.4-.66.89a.52.52,0,0,1-.19.35c-.74.64-.78.92-.19,1.6a.66.66,0,0,0,.56.27A.5.5,0,0,0,34.54,53.12Z"/><path class="cls-5" d="M29.11,44.39a.77.77,0,0,0-1,.22.75.75,0,0,0,.22,1,.8.8,0,0,0,1-.28A.71.71,0,0,0,29.11,44.39Z"/><path class="cls-5" d="M22.38,40.34c-.54.18-.83.6-.68,1a1.38,1.38,0,0,0,1.48.79A1,1,0,0,0,23.59,41,.87.87,0,0,0,22.38,40.34Z"/><path class="cls-5" d="M24.66,39.3h0c-.11-.41-.33-.59-.56-.6a1,1,0,0,0-1.06.46.68.68,0,0,0,.08,1,1.45,1.45,0,0,0,1.42-.07A.8.8,0,0,0,24.66,39.3Z"/><path class="cls-5" d="M27.31,42.36h0a1.25,1.25,0,0,0,.55.4,1.31,1.31,0,0,1,.76.57,1.41,1.41,0,0,0,1.24.6.89.89,0,0,0,.47-.1A.73.73,0,0,0,31,44a1.19,1.19,0,0,0,.46-.27s0,0,.07.06c.36.23.85,0,1.19-.47a1.12,1.12,0,0,0,.18-.65h-3V41.49a5,5,0,0,0-.58-.12,1,1,0,0,1-.52-.21.89.89,0,0,0-1.48.15.44.44,0,0,0-.13-.14,1,1,0,0,0-.76-1.3,1.21,1.21,0,0,0-1.54,1c-.23,1,.8,1,.42,1.58s-.65.07-1.06.61a14.67,14.67,0,0,1,3.11,2.19.49.49,0,0,0,0-.12,1.13,1.13,0,0,0-.66-.72l.09-.1c.54-1-.44-1.23-.37-1.56,0,0,0,0,0,0A.7.7,0,0,0,27.31,42.36Z"/></svg>