<svg width="172" height="90" viewBox="0 0 172 90" fill="none" xmlns="http://www.w3.org/2000/svg">
<g clip-path="url(#clip0)">
<path d="M425 47.5L78 47.5C73 47.5 69 43.5 69 38.5C69 33.5 73 29.5 78 29.5L425 29.5C430 29.5 434 33.5 434 38.5C434 43.5 430 47.5 425 47.5Z" fill="#1BA9F5"/>
<path d="M39 29.5C34.0294 29.5 30 33.5294 30 38.5C30 43.4706 34.0294 47.5 39 47.5C43.9706 47.5 48 43.4706 48 38.5C48 33.5294 43.9706 29.5 39 29.5Z" fill="#1BA9F5"/>
</g>
<defs>
<clipPath id="clip0">
<rect width="172" height="90" fill="white"/>
</clipPath>
</defs>
</svg>
