<svg id="Layer_1" data-name="Layer 1" xmlns="http://www.w3.org/2000/svg" viewBox="0 0 128 128"><defs><style>.cls-1{fill:#ecf0f6;}.cls-2{fill:#fff;}.cls-3{fill:#fa744e;}.cls-4{fill:#e1553d;}.cls-5{fill:#ff927d;}.cls-6{fill:#343741;}.cls-7{fill:#ced5e1;}</style></defs><title>illustration-relevance-128-white-bg-red</title><circle class="cls-1" cx="64" cy="64" r="60"/><path class="cls-2" d="M115.17,49.54c.16-.26-.07-.47-.33-.58s-.66,0-.67.29-.11.69.25.78S115.05,49.74,115.17,49.54Z"/><path class="cls-2" d="M114.1,50.86a.73.73,0,0,0-.22-.57c-.22-.18-.7.06-.73.36a1,1,0,0,0,.14.48C113.71,51.29,114.08,51.14,114.1,50.86Z"/><path class="cls-2" d="M116.16,47.55a.87.87,0,0,0,1.11-.35,1.32,1.32,0,0,0-.61-1.55.87.87,0,0,0-.92.33,1.32,1.32,0,0,0-1.07-.19,1.26,1.26,0,0,0-.64,1.53,1.23,1.23,0,0,0,1.48.73A1.48,1.48,0,0,0,116.16,47.55Z"/><path class="cls-2" d="M106.14,21.46s.06,0,.1-.07c-.31-.31-.64-.6-.95-.9a.61.61,0,0,0-.05.56A.65.65,0,0,0,106.14,21.46Z"/><path class="cls-2" d="M112.1,47.71c-.14.29.13.78.66,1,.12,0,.39-.1.5-.26a.71.71,0,1,0-1.16-.79Z"/><path class="cls-2" d="M114.67,44.92a.69.69,0,0,0,.77-.43.49.49,0,0,0,0-.41c-.22-.24-.48-.44-.74-.68,0-.81-.27-1.38-.75-1.4a1.21,1.21,0,0,0-.9.53.32.32,0,0,0-.24.13.26.26,0,0,0,0,.23.86.86,0,0,0-.06.23c0,.56.23.73,1.35.84C114.15,44.4,114.09,44.85,114.67,44.92Z"/><path class="cls-2" d="M112.84,38.84c-.53.23-.71.53-.54.91a.82.82,0,0,0,1.09.55,1.41,1.41,0,0,0,.4-1.24C113.67,38.71,113.32,38.63,112.84,38.84Z"/><path class="cls-2" d="M110,31.35a.7.7,0,0,0,.32,0,2.43,2.43,0,0,1,.33.46,1,1,0,0,0,1.1.61c.49-.08.68-.43.39-1.1-.22-.21-.55-.57-.93-.88a.19.19,0,0,0,0-.07.81.81,0,0,0-.73-.89c-.51-.11-1.22.22-1.3.6A1.15,1.15,0,0,0,110,31.35Z"/><path class="cls-2" d="M112.77,30a.76.76,0,0,0,.35-.44c-.45-.65-.91-1.29-1.39-1.91a.52.52,0,0,0-.29.12.58.58,0,0,0-.11.85.79.79,0,0,0,.27.2.72.72,0,0,0,.05.55C112,30,112.31,30.22,112.77,30Z"/><path class="cls-2" d="M117.06,36.6a.78.78,0,0,0,.5.87.43.43,0,0,0,.25,0c-.17-.35-.35-.69-.53-1A.24.24,0,0,0,117.06,36.6Z"/><path class="cls-2" d="M120.44,43.6c-.29-.8-.6-1.58-.92-2.36a3.71,3.71,0,0,0-.37.21.91.91,0,0,0-.07,1.5A6.91,6.91,0,0,0,120.44,43.6Z"/><path class="cls-2" d="M116.87,40.31a1.52,1.52,0,0,0,.45.38,4.46,4.46,0,0,0,.52.31c.59.31,1,.26,1.32-.16a1.2,1.2,0,0,0,.11-.23c-.22-.52-.46-1-.7-1.54a8.38,8.38,0,0,1-1-1c-.33-.41-1-.66-1.28-.41a.78.78,0,0,0,0,.93c.39.28.2.58.24.9A2,2,0,0,0,116.87,40.31Z"/><path class="cls-2" d="M110.4,27.52c.68.36,1,.37,1.25,0-.28-.38-.57-.74-.87-1.11C110.35,26.69,110.39,27.12,110.4,27.52Z"/><path class="cls-2" d="M109,26.71a.66.66,0,0,0,.48-.37,1.09,1.09,0,0,0-.21-.76c-.38-.35-.67,0-1,.25C108.31,26.33,108.45,26.72,109,26.71Z"/><path class="cls-2" d="M45.27,18.14a.85.85,0,0,0,.09-1c-.49-.51-1.11-.66-1.43-.34A1.24,1.24,0,0,0,44,18.21,1.14,1.14,0,0,0,45.27,18.14Z"/><path class="cls-2" d="M67.16,4.65c-.32.56-.21.94.37,1.29a.93.93,0,0,0,1.24-.11,1.41,1.41,0,0,0-.47-1.66l-.51,0A1.13,1.13,0,0,0,67.16,4.65Z"/><path class="cls-2" d="M115.25,53.46c.25-.14.41-.39.23-.64s-.58-.61-.8-.5-.19.55-.17.83l0,0a.5.5,0,0,0-.69.34.42.42,0,0,0,.32.6c.21,0,.76.13.84-.15a.59.59,0,0,0-.1-.41A.53.53,0,0,0,115.25,53.46Z"/><path class="cls-2" d="M61.37,10.81c-.11.1-.2.61-.06.73s.67,0,.71-.13.12-.61,0-.69A.68.68,0,0,0,61.37,10.81Z"/><path class="cls-2" d="M64.57,4.59a1.11,1.11,0,0,0-.12-.27.81.81,0,0,0,.19-.3L64,4h-.42s0,.07,0,.1a.27.27,0,0,0-.08.07,6.83,6.83,0,0,0-.36.94c-.77.26-1.19.74-1,1.21A1.33,1.33,0,0,0,63.57,7c.54-.17.61-.48.3-1.56C64.28,5.26,64.72,5.15,64.57,4.59Z"/><path class="cls-2" d="M71.25,7.09c.32-.08.69-.06.88-.35s.76-1.11.42-1.66-.73-.12-1.09-.17a.87.87,0,0,0-.83.37,1.2,1.2,0,0,0-.64.33A1.07,1.07,0,0,0,70,6.91a.42.42,0,0,1-.33-.11c-.27-.25-.86-.25-1.33.35s-.16,1.53.4,1.56.71-.27.85-.13.27.6.64.59S71,8.11,71,7.93s-.21-.5-.06-.7A1.28,1.28,0,0,0,71.25,7.09Z"/><path class="cls-2" d="M82.05,7a1.19,1.19,0,0,0-1.26.23,1.23,1.23,0,0,0,.43,1.3A.56.56,0,0,0,82,8.35C82.42,7.76,82.43,7.22,82.05,7Z"/><path class="cls-2" d="M72.9,7c-.16.24,0,.57.1.79s.54.14.71-.09.14-.59-.1-.7S73.07,6.79,72.9,7Z"/><path class="cls-2" d="M62.08,13.73a.91.91,0,0,0,1.11,0,1.52,1.52,0,0,0,.1-1.52,1.12,1.12,0,0,0-1.4.27C61.53,12.84,61.6,13.3,62.08,13.73Z"/><path class="cls-2" d="M44.15,13.06a1.48,1.48,0,0,0-1.58,0,1,1,0,0,0,0,1.35,1.11,1.11,0,0,0,1.41.08A1.08,1.08,0,0,0,44.15,13.06Z"/><path class="cls-2" d="M82.52,9.11a.7.7,0,1,0,.75-1.19.77.77,0,0,0-1,.29A.68.68,0,0,0,82.52,9.11Z"/><path class="cls-2" d="M117.27,42.66a1,1,0,0,0,.51-1.15.84.84,0,0,0-.9-.51c-.63.22-1,.71-.86,1.12A1.1,1.1,0,0,0,117.27,42.66Z"/><path class="cls-2" d="M60.88,8.27l0,0A.86.86,0,0,0,60.63,7a1.06,1.06,0,0,0-1.58.32,1.13,1.13,0,0,0,.2,1.49.94.94,0,0,0,.87.06.5.5,0,0,0,.5-.17A1.09,1.09,0,0,0,60.88,8.27Z"/><path class="cls-2" d="M59.47,9.63a.68.68,0,0,0-.58.66.5.5,0,0,0,.36.59c.49.16.74-.13,1-.51C60.06,10,60,9.55,59.47,9.63Z"/><path class="cls-2" d="M57.16,4.4l0,0A1.46,1.46,0,0,0,57,4.9a.74.74,0,0,0-.17-.3l-.16-.14-1,.14a1.78,1.78,0,0,1,.32.68.68.68,0,0,0,.58.23A.72.72,0,0,0,57,5.16a.69.69,0,0,0,.26.62.79.79,0,0,0,.86-.36c.12-.47.46-.4.75-.55a1,1,0,0,0,.28-.23s0,0,0,0a1.12,1.12,0,0,0,1.13,0,.65.65,0,0,0,.12-.47c.38.31.82.39,1.08.15a.64.64,0,0,0,.19-.29C60.15,4.12,58.64,4.23,57.16,4.4Z"/><path class="cls-2" d="M45.26,9.25a1,1,0,0,0-1.6.06,1,1,0,0,0-.12,1.59,1.17,1.17,0,0,0,1.77-.07A1.2,1.2,0,0,0,45.26,9.25Z"/><path class="cls-2" d="M116.78,49c-.12.06-.17.4-.12.58a.32.32,0,0,0,.53.2c.16-.14.56-.51.45-.73S117,48.89,116.78,49Z"/><path class="cls-2" d="M93.39,16.53a.42.42,0,0,0,.69-.17,2.14,2.14,0,0,0,0-.62.64.64,0,0,0-.91.24C93,16.25,93.19,16.4,93.39,16.53Z"/><path class="cls-2" d="M92.83,12.62a.72.72,0,0,0,.57-.24.51.51,0,0,0,0-.52c-.23-.35-.57-.32-.94-.09C92.47,12.11,92.39,12.5,92.83,12.62Z"/><path class="cls-2" d="M67.63,6.48a.65.65,0,0,0-.92-.18,1.1,1.1,0,0,0-.14,1.36.75.75,0,0,0,1,.08A.94.94,0,0,0,67.63,6.48Z"/><path class="cls-2" d="M88.52,14A1.25,1.25,0,0,0,90,13.24a1.61,1.61,0,0,0-1-1.62,1.27,1.27,0,0,0-1.33,1A1.23,1.23,0,0,0,88.52,14Z"/><path class="cls-2" d="M88.07,9.52a.82.82,0,0,0,.31,1.3,1,1,0,0,0,1.07.07.66.66,0,0,0,.84,0,.55.55,0,0,0,.21-.35,3.74,3.74,0,0,0-.12-.45q-1-.47-1.95-.9A1.07,1.07,0,0,0,88.07,9.52Z"/><path class="cls-2" d="M95.1,18a.84.84,0,0,0,1-.72.55.55,0,0,0-.45-.64.7.7,0,0,0-.84.29A.78.78,0,0,0,95.1,18Z"/><path class="cls-2" d="M91.23,11.19a.61.61,0,0,0,.84-.13s0-.05,0-.07c-.39-.21-.79-.41-1.19-.61A.68.68,0,0,0,91.23,11.19Z"/><path class="cls-2" d="M103,19.43a.76.76,0,0,0,0,.68.39.39,0,0,0,.6.27c.26-.15.48-.33.37-.68S103.13,19.27,103,19.43Z"/><path class="cls-2" d="M103.19,23.83a1,1,0,0,0,.9-.54.89.89,0,0,0-.62-.83.66.66,0,0,0-.8.58A.73.73,0,0,0,103.19,23.83Z"/><path class="cls-2" d="M104.45,20.11a.77.77,0,0,0,.39-.05l-1.07-1v0A1.19,1.19,0,0,0,104.45,20.11Z"/><path class="cls-2" d="M67.18,10a.19.19,0,0,0,0-.23.2.2,0,0,0-.28,0,.2.2,0,0,0,0,.27C67,10.09,67.14,10.05,67.18,10Z"/><path class="cls-2" d="M97.62,14.3c-.87-.59-1.75-1.15-2.65-1.69a1.73,1.73,0,0,1,.15.2,1.57,1.57,0,0,0,0,1.75,1.65,1.65,0,0,0,2.45-.22Z"/><path class="cls-2" d="M96.55,22.77a.94.94,0,0,0,1-.92c.06-.46-.26-.76-.88-.85s-.9.15-.93.53A1.69,1.69,0,0,0,96.55,22.77Z"/><path class="cls-2" d="M91.9,14.32a1.76,1.76,0,0,0,0-.61.64.64,0,0,0-.91.23c-.14.28,0,.43.22.56A.44.44,0,0,0,91.9,14.32Z"/><path class="cls-2" d="M65.93,9.94a.69.69,0,0,0,.92-.2.63.63,0,0,0-.23-.83.57.57,0,0,0-.84.12A.63.63,0,0,0,65.93,9.94Z"/><path class="cls-2" d="M118.48,55a1,1,0,0,0,1.21-.12c.36-.6-.13-1.15-.4-1.42s-1,.17-1.17.75A.65.65,0,0,0,118.48,55Z"/><path class="cls-2" d="M121.49,51.42a.79.79,0,0,0,.23-1.05,2.15,2.15,0,0,0-.75-.12c-.36.07-.49.58-.3,1A.59.59,0,0,0,121.49,51.42Z"/><path class="cls-2" d="M119.84,45c-.26.47.12,1.25.76,1.56a.88.88,0,0,0,.82,0c-.21-.69-.44-1.37-.68-2.05A1.09,1.09,0,0,0,119.84,45Z"/><path class="cls-2" d="M116.48,52.6a1.07,1.07,0,0,0,1.15-.56.83.83,0,0,0-.3-.92c-.59-.28-1.21-.18-1.38.22A1.19,1.19,0,0,0,116.48,52.6Z"/><path class="cls-2" d="M118.5,44.67a.73.73,0,0,0,.37-.51.55.55,0,0,0-.24-.46c-.38-.18-.65,0-.85.41C117.93,44.41,118.07,44.78,118.5,44.67Z"/><path class="cls-2" d="M117.56,56.23a.72.72,0,0,0,.43-.84.71.71,0,0,0-.8-.36.83.83,0,0,0-.43.86A.65.65,0,0,0,117.56,56.23Z"/><path class="cls-2" d="M120.58,49.31a1.49,1.49,0,0,0-.59-1.74l-.17-.07a.64.64,0,0,0-.84-.24,1.17,1.17,0,0,0-.65,1l0,.05a1.1,1.1,0,0,0,.45,1.48A1.44,1.44,0,0,0,120.58,49.31Z"/><path class="cls-2" d="M64.56,7.06a.64.64,0,0,0,.91-.18.58.58,0,0,0-.26-.81.67.67,0,0,0-.9.26A.51.51,0,0,0,64.56,7.06Z"/><path class="cls-2" d="M122.53,50.84c-.06-.29-.13-.58-.2-.87,0,0,0,0,0,.05A.65.65,0,0,0,122.53,50.84Z"/><path class="cls-2" d="M55,4.72l0,0-.89.15A1.32,1.32,0,0,0,55,4.72Z"/><path class="cls-2" d="M67,4.31a1.53,1.53,0,0,0,.16-.22c-.65,0-1.31,0-2-.06a.8.8,0,0,0,.14.24A1.27,1.27,0,0,0,67,4.31Z"/><path class="cls-2" d="M54.21,6.1a.74.74,0,0,0-.14-.93c-.27-.17-.91-.09-1,.13a.92.92,0,0,0,.28,1.08A.66.66,0,0,0,54.21,6.1Z"/><path class="cls-2" d="M123.9,60.65a1.17,1.17,0,0,0,0,.59Z"/><path class="cls-2" d="M96.52,35.72a.59.59,0,0,0-.27.53c0,.14.39.49.56.43s.25-.52.2-.62S96.66,35.69,96.52,35.72Z"/><path class="cls-2" d="M79.58,17.67a5.71,5.71,0,0,0,.44-.85,1.31,1.31,0,0,0-.61-1.4.53.53,0,0,0-.72.07,3.76,3.76,0,0,0-.91,2,1.23,1.23,0,0,0,.06.34.83.83,0,0,0,1.23.46.49.49,0,0,0,.32-.17A.61.61,0,0,0,79.58,17.67Z"/><path class="cls-2" d="M78.62,19.22c-.05-.18-.41-.16-.49-.11a.44.44,0,0,0-.2.41c0,.15.3.18.43.15S78.68,19.39,78.62,19.22Z"/><path class="cls-2" d="M84,8.18c0,.07,0,.18.13.19a.18.18,0,0,0,.22-.16c0-.13-.12-.19-.18-.2S84,8.13,84,8.18Z"/><path class="cls-2" d="M60.08,17.81a.38.38,0,0,0-.12.5c.15.22.41,0,.52-.09a.35.35,0,0,0,0-.34A.52.52,0,0,0,60.08,17.81Z"/><path class="cls-2" d="M61.21,12.86a.9.9,0,0,0-.16-1.22,1.34,1.34,0,0,0-1.63.39,1,1,0,0,0,1.79.83Z"/><path class="cls-2" d="M59,15a1.19,1.19,0,0,0-1.75.11,1.08,1.08,0,0,0-.06,1.6,1.36,1.36,0,0,0,1.8.05A1.43,1.43,0,0,0,59,15Z"/><path class="cls-2" d="M73.58,14.6c-.44-.85-1.22-.24-1.3-.87s.53-.42.37-1.3-1-1.25-1.48-.82-.28,1-.41,1-.79.2-.7.69c-.12-.06-.26-.09-.33,0s0,.45.06.53a.39.39,0,0,0,.45.05.3.3,0,0,0,0-.08c.34.39.9.19,1,.41s.08.95.28,1.39c.27.62.87,1,1.49.66A1.16,1.16,0,0,0,73.58,14.6Z"/><path class="cls-2" d="M69,11.56a1,1,0,0,0,0-1.21c-.54-.44-1.15,0-1.45.19s0,1,.57,1.26A.63.63,0,0,0,69,11.56Z"/><path class="cls-2" d="M68.08,18.8c0,.11,0,.2,0,.25a.24.24,0,0,0,.19,0c0-.09.08-.21,0-.27S68.17,18.79,68.08,18.8Z"/><path class="cls-2" d="M89.12,16.45a1.09,1.09,0,0,0,.08-.15c.24-.05.63-.16.65-.38s-.52-.46-.72-.48a.16.16,0,0,0-.1,0h0a1.38,1.38,0,0,0-1.35.1A.89.89,0,0,0,88,16.85C88.3,17.09,88.78,16.93,89.12,16.45Z"/><path class="cls-2" d="M115.11,85c.08-.16-.17-.36-.28-.43a.36.36,0,0,0-.36.12c0,.11.09.31.19.4S115,85.21,115.11,85Z"/><path class="cls-2" d="M116.16,65.91c.1-.28.08-.55-.18-.69a3.7,3.7,0,0,0-2.09-.63.88.88,0,0,0-.33.12.83.83,0,0,0,0,1.51,5.38,5.38,0,0,0,1.3.5A1.32,1.32,0,0,0,116.16,65.91Z"/><path class="cls-2" d="M115.21,79.73a.38.38,0,0,0-.15-.41c-.1-.07-.47-.09-.54.05s.15.43.25.47A.38.38,0,0,0,115.21,79.73Z"/><path class="cls-2" d="M120.72,70.61a1.38,1.38,0,0,0,.38-1.27,1.17,1.17,0,0,0-.91-.93l-.12,0a1.11,1.11,0,0,0,.61-.55c.16-.38-.09-.81-.63-1.06a.94.94,0,0,0-1.15.25,1.22,1.22,0,0,0,.41,1.39.55.55,0,0,0,.18.06,1.21,1.21,0,0,0-.41.38,2.05,2.05,0,0,0-.31,1.4.93.93,0,0,1-.12.52.85.85,0,0,0,.37,1.37.41.41,0,0,0-.15.2c-.1.28.14.66.5.82a.78.78,0,0,0,1-.31A.66.66,0,0,0,120,72h0a1.27,1.27,0,0,0,.29-.58A1.23,1.23,0,0,1,120.72,70.61Z"/><path class="cls-2" d="M123.71,67.74a.69.69,0,0,0-.87.35.72.72,0,0,0,.37.93.71.71,0,0,0,.57,0c0-.39.06-.77.08-1.16Z"/><path class="cls-2" d="M122,77a.61.61,0,0,0,.26.81l.08,0c.11-.42.21-.85.3-1.28A.69.69,0,0,0,122,77Z"/><path class="cls-2" d="M114.87,73.53c-.11-.37-.4-.44-1.12-.31-.08.37-.31.76.15,1a.6.6,0,0,0,.85-.13A.78.78,0,0,0,114.87,73.53Z"/><path class="cls-2" d="M104.15,27.53a1,1,0,0,0,1.18-1,1.76,1.76,0,0,0,0-.61,1.41,1.41,0,0,0,.84-.06.76.76,0,0,0,.37-.76,1.43,1.43,0,0,0,1.33-1A1.18,1.18,0,0,0,107,22.7a1.89,1.89,0,0,0-1.61,1.13.83.83,0,0,0,.09.55h-.06a1.27,1.27,0,0,0-.59.84,1.62,1.62,0,0,0-.55-.17,1.28,1.28,0,0,0-1.39,1.14C102.82,26.74,103.47,27.42,104.15,27.53Z"/><path class="cls-2" d="M97.68,28.69c-.69-.3-1.15-.24-1.37.14a23.16,23.16,0,0,1-.18,2.51c.65.22.94.07,1.12-.62.14-.51.3-1,.45-1.53,1,.19,1,.12,1-.72C98.32,28.17,98,28.29,97.68,28.69Z"/><path class="cls-2" d="M103.12,32.37c-.09-.22-.5-.28-.84-.13a.38.38,0,0,0-.22.56c.14.27.34.47.69.35A.69.69,0,0,0,103.12,32.37Z"/><path class="cls-2" d="M102.61,29.57a1.14,1.14,0,0,0-1.31,1.08,1.15,1.15,0,0,0,1,1.15c.56.07,1.11-.51,1.19-1.24A.88.88,0,0,0,102.61,29.57Z"/><path class="cls-2" d="M116.81,58.62c.61-.16.5.46,1.34.17s1.1-1.18.6-1.57-1-.15-1.07-.27-.31-.76-.78-.59c-1,.36-.44,1.17-.71,1.36s-.92.22-1.33.48c-.57.36-.89,1-.44,1.57a1.47,1.47,0,0,0,.35.32.66.66,0,0,0,.23.17c.3.16.8.65,1.21.39s.12-.6.15-.82v0C116.76,59.31,116.28,58.76,116.81,58.62Z"/><path class="cls-2" d="M33.62,14.48c.33.14.92-.45.8-.71s-.9-.36-1.05,0A.61.61,0,0,0,33.62,14.48Z"/><path class="cls-2" d="M25.33,18.16c-.13.22-.36.81-.2,1s.76-.13.78-.22c.08-.28.24-.63,0-.88S25.4,18,25.33,18.16Z"/><path class="cls-2" d="M123,59.17a.42.42,0,0,0,.68-.19c.06-.2.15-.58-.11-.7a.35.35,0,0,0-.2-.05.89.89,0,0,0,.21-.91l.09.08c-.06-.59-.14-1.18-.22-1.76a.36.36,0,0,1-.1-.55s0-.05,0-.07c0-.28-.1-.56-.14-.85a1.69,1.69,0,0,0-.42-.36,1.17,1.17,0,0,0-.68-.13.32.32,0,0,0,0-.09,1,1,0,0,0-1.16-.33,1,1,0,0,0,.06,1.19.61.61,0,0,0,.35.15c.1.4.33.52.22.66s-.56.35-.49.71,1.15.62,1.33.57.6-.38.8,0a1.76,1.76,0,0,1,.17.42.59.59,0,0,0-.7-.15c-.55.23-.92.89-.73,1.3a.91.91,0,0,0,.87.41h0C122.55,58.64,122.7,59,123,59.17Z"/><path class="cls-2" d="M118.92,63.8a1.31,1.31,0,0,0-.58-1.49,1,1,0,0,0-1,.61.84.84,0,0,0,.51,1.19C118.31,64.31,118.78,64.19,118.92,63.8Z"/><path class="cls-2" d="M117.57,79.61c-.29-.1-.42.08-.52.3a.43.43,0,0,0,.28.66,2.18,2.18,0,0,0,.61-.09A.65.65,0,0,0,117.57,79.61Z"/><path class="cls-2" d="M85.09,10.23a.93.93,0,0,0,.74,1,.63.63,0,0,0,.83-.42,1.08,1.08,0,0,0-.72-1.16A.75.75,0,0,0,85.09,10.23Z"/><path class="cls-2" d="M91.34,19.34a.59.59,0,0,0,.59.61.78.78,0,0,0,.73-.78c-.14-.12-.33-.4-.58-.49S91.37,18.93,91.34,19.34Z"/><path class="cls-2" d="M85.54,8l-.8-.32A1.37,1.37,0,0,0,85.54,8Z"/><path class="cls-2" d="M91.91,15.09a1.13,1.13,0,0,0-1.19.78A1.2,1.2,0,0,0,91.6,17c.37.06.83-.38.9-.87S92.39,15.17,91.91,15.09Z"/><path class="cls-2" d="M100.24,23.9a1.12,1.12,0,0,0,.74,1.22c.35.05,1-.66,1-1.1a.9.9,0,0,0-1.78-.12Z"/><path class="cls-2" d="M101.68,28c-.13.07-.37.22-.29.36a.44.44,0,0,0,.42.19c.11,0,.4-.29.32-.43A.43.43,0,0,0,101.68,28Z"/><path class="cls-2" d="M46.4,14.05a.61.61,0,0,0,.12.9c.25.18.52.39.75.17.39-.42.43-.83.19-1.08A.7.7,0,0,0,46.4,14.05Z"/><path class="cls-2" d="M44.46,8.27a1.41,1.41,0,0,0,2-.08,1.32,1.32,0,0,0,.22-1.65c-.86.26-1.72.54-2.56.84A1.06,1.06,0,0,0,44.46,8.27Z"/><path class="cls-2" d="M47.71,11a1.06,1.06,0,0,0-1.28,0,.94.94,0,0,0,.14,1.17.57.57,0,0,0,.84-.11C47.83,11.59,47.94,11.21,47.71,11Z"/><path class="cls-2" d="M37.75,13.64a.88.88,0,0,0-1.31.06A1.05,1.05,0,0,0,36.29,15a1.27,1.27,0,0,0,1.44,0A.87.87,0,0,0,37.75,13.64Z"/><path class="cls-2" d="M35.71,11.14c.46.52,1,.39,1.49.1.22.31.32.76.84.58a.6.6,0,0,0,.44-.66c0-.54-.49-.54-.9-.57,0-.15,0-.29-.08-.43l-1.83.94S35.69,11.13,35.71,11.14Z"/><path class="cls-2" d="M54,11.85c-.26-.42-.65-.47-1.17,0a13.2,13.2,0,0,0-.52,1.31.59.59,0,0,0,.42.75.62.62,0,0,0,.79-.36,1.8,1.8,0,0,1,.32-.49A1,1,0,0,0,54,11.85Z"/><path class="cls-2" d="M35.48,16.42A.83.83,0,0,0,34,16.36a4.79,4.79,0,0,0-.55,1.27A1.29,1.29,0,0,0,34.16,19c.28.12,1,.14,1.05-.47-.35-1,.39-1,.37-1.74A1,1,0,0,0,35.48,16.42Z"/><path class="cls-2" d="M38.52,18.88a.47.47,0,0,0,0-.74.65.65,0,0,0-.59.07c-.13.11-.32.54-.19.7S38.36,19,38.52,18.88Z"/><path class="cls-2" d="M40.81,17.58c-.32-.33-.78-.27-1.21.16a.71.71,0,0,0-.14,1,1.4,1.4,0,0,0,1.44.13A.85.85,0,0,0,40.81,17.58Z"/><path class="cls-2" d="M31.45,19.94a.19.19,0,0,0,0,.26c0,.05.2,0,.24,0a.18.18,0,1,0-.27-.23Z"/><path class="cls-2" d="M82.64,15.33a.67.67,0,0,0-.21,1.1.94.94,0,0,0,.77.17.75.75,0,0,0,.39-.57A.77.77,0,0,0,82.64,15.33Z"/><path class="cls-2" d="M81.53,20.19c.19,0,.23-.67.14-1.07a.7.7,0,0,0,.13.16s.31-.09.31-.16,0-.4-.16-.48-.36.2-.36.26h0l-.06-.08c-.23-.18-.75.21-.83.71S81.28,20.24,81.53,20.19Z"/><path class="cls-2" d="M98.57,28.32a.48.48,0,0,0,.21-.37c0-.09-.31-.34-.41-.3s-.14.39-.11.52S98.52,28.36,98.57,28.32Z"/><path class="cls-2" d="M85.22,15.5a.65.65,0,0,0-.92.11.68.68,0,0,0,.13.93.75.75,0,0,0,1-.14A.65.65,0,0,0,85.22,15.5Z"/><path class="cls-2" d="M98.48,33.12a.66.66,0,0,0,.38-.77A.65.65,0,0,0,98,32a.53.53,0,0,0-.36.75A.63.63,0,0,0,98.48,33.12Z"/><path class="cls-2" d="M93,18.34a.36.36,0,0,0-.43.09c-.08.08-.16.44,0,.53s.45-.08.51-.18S93.08,18.43,93,18.34Z"/><path class="cls-2" d="M87.36,18.85a.62.62,0,0,0,0-.87.83.83,0,0,0-.59-.2c-.38,0-.49.34-.46,1.06C86.65,19,87,19.27,87.36,18.85Z"/><path class="cls-2" d="M75.45,16.33a.47.47,0,0,0-.72.21.83.83,0,0,0,0,.66c.11.15.73.21.89,0A.61.61,0,0,0,75.45,16.33Z"/><path class="cls-2" d="M74.13,9A.84.84,0,0,0,73,9.1a1.06,1.06,0,0,0,.12,1.29,1.16,1.16,0,0,0,1.48-.26C74.75,9.84,74.53,9.3,74.13,9Z"/><path class="cls-2" d="M74.77,19.11a1.23,1.23,0,0,0,.55,0c.28-.4.26-.79,0-.86a1,1,0,0,0-.76.1C74.34,18.47,74.48,19,74.77,19.11Z"/><path class="cls-2" d="M99.28,26.54c.06-.4-.47-.55-.69-.67s-.54.11-.6.45.09.61.43.58S99.22,26.94,99.28,26.54Z"/><path class="cls-2" d="M70.34,17.36c.22-.3,0-1-.42-1.28a.8.8,0,0,0-1.15.14,1.08,1.08,0,0,0,.16,1.41A1.14,1.14,0,0,0,70.34,17.36Z"/><path class="cls-2" d="M75.31,13.84c.14-.12,0-.4-.11-.5a.33.33,0,0,0-.37,0c-.09.08,0,.32,0,.44S75.17,14,75.31,13.84Z"/><path class="cls-2" d="M76.61,13.86a.84.84,0,0,0,1.25-.33c.27-.47.22-.95-.14-1.15a1.32,1.32,0,0,0-1.56.37A1,1,0,0,0,76.61,13.86Z"/><path class="cls-2" d="M80.13,6.38a.65.65,0,0,0,.54.17.76.76,0,0,0,.31-.1c-1-.3-2-.56-3.06-.81A1,1,0,0,0,78.22,7a1.56,1.56,0,0,0,1.15.24.29.29,0,0,0,.14.08c.11,0,.46,0,.49-.2a.26.26,0,0,0-.1-.2A.73.73,0,0,0,80,6.87,1.12,1.12,0,0,0,80.13,6.38Z"/><path class="cls-2" d="M82.33,12.66a.56.56,0,0,0,.09-.17,1,1,0,0,0,.22.35,1.3,1.3,0,0,0-.11.46.89.89,0,0,0,.86,1.07,1,1,0,0,0,1-.8.74.74,0,0,1,.13.08A.85.85,0,0,0,86,13.48a.52.52,0,0,0,.18.18.77.77,0,0,0,.88-.38.79.79,0,0,0-.16-1.09.64.64,0,0,0-.89.28h0a1.23,1.23,0,0,0-.54-.37,1.27,1.27,0,0,1-.74-.53,1.36,1.36,0,0,0-1.2-.55,1.19,1.19,0,0,0-1.06.76l0,.12a1.08,1.08,0,0,0-.46-.68c-.35-.22-.81,0-1.13.47a.93.93,0,0,0,.08,1.17A1.21,1.21,0,0,0,82.33,12.66Z"/><path class="cls-2" d="M85.52,18.51c.29,0,.56-.13.53-.43s-.18-.83-.42-.85-.53.5-.62.72S85.22,18.5,85.52,18.51Z"/><path class="cls-2" d="M76,10.25c0-.13-.18-.28-.3-.33s-.37,0-.4.21.27.3.39.33A.34.34,0,0,0,76,10.25Z"/><path class="cls-2" d="M77.31,10.08A1.42,1.42,0,0,0,79.14,10a1.47,1.47,0,0,0-.38-1.8,1.37,1.37,0,0,0-1.68.44A1.07,1.07,0,0,0,77.31,10.08Z"/><path class="cls-2" d="M76.56,6.58a1,1,0,0,0,.13-.34h0c.48.16.74-.13,1-.52l-.07-.15c-1-.23-1.93-.43-2.91-.6a.88.88,0,0,0-.24.23,1.09,1.09,0,0,0,.41,1.62A1.1,1.1,0,0,0,76.56,6.58Z"/><path class="cls-2" d="M116.05,72a.7.7,0,0,0,.62-1.24.68.68,0,0,0-.9.26A.76.76,0,0,0,116.05,72Z"/><path class="cls-2" d="M67.79,18.22a.39.39,0,0,0-.66,0c-.13.17-.33.68-.2.81s.64,0,.85-.08S68,18.5,67.79,18.22Z"/><path class="cls-2" d="M116.15,70.14a.77.77,0,0,0,.56-1,.67.67,0,0,0-1.12,0,.88.88,0,0,0-.06.78A.72.72,0,0,0,116.15,70.14Z"/><path class="cls-2" d="M116.53,75.67a.64.64,0,0,0,1-.24,1.4,1.4,0,0,0-.29-1.32.89.89,0,0,0-1.22.47C115.77,75,116,75.4,116.53,75.67Z"/><path class="cls-2" d="M113.09,68.51c.14-.26-.32-.71-.83-.72s-.6.66-.52.9S113,68.76,113.09,68.51Z"/><path class="cls-2" d="M117.74,86.15c.36-.16.26-.06.59.17a.67.67,0,0,0,1.13-.33,1.33,1.33,0,0,0-.91-1.52,1.55,1.55,0,0,0-1.77,1.13C116.7,86.14,117.39,86.32,117.74,86.15Z"/><path class="cls-2" d="M98.83,22.74c.11,0,.4-.25.3-.42a.48.48,0,0,0-.5-.15.42.42,0,0,0-.16.39A.4.4,0,0,0,98.83,22.74Z"/><path class="cls-2" d="M110.24,70.85a1,1,0,0,0-1.33.4,1.5,1.5,0,0,0,.52,1.82,1.12,1.12,0,0,0,1.4-.56A1.2,1.2,0,0,0,110.24,70.85Z"/><path class="cls-2" d="M122,74.13c-.22.5-.1,1.07.26,1.22a1,1,0,0,0,.67,0c.11-.55.21-1.1.3-1.66A.82.82,0,0,0,122,74.13Z"/><path class="cls-2" d="M106.72,74a.52.52,0,0,0-.43-.26.54.54,0,0,0-.31.4c0,.11.23.43.42.43S106.75,74.12,106.72,74Z"/><path class="cls-2" d="M120.84,81.79c-.08.37-.2.73-.31,1.09a.54.54,0,0,0,.13.87c.28-.81.55-1.63.8-2.47A.6.6,0,0,0,120.84,81.79Z"/><path class="cls-2" d="M121.52,64.86a1.45,1.45,0,0,0,1.72-.62,1.37,1.37,0,0,0-.68-1.61,1.08,1.08,0,0,0-1.42.44A1.41,1.41,0,0,0,121.52,64.86Z"/><path class="cls-2" d="M64.22,15.3a.78.78,0,0,0-.6.14c-.21.19,0,.71.25.78a1.08,1.08,0,0,0,.5-.07C64.59,15.75,64.5,15.36,64.22,15.3Z"/><path class="cls-2" d="M119.27,77.15c-.29-.1-.42.09-.52.3a.44.44,0,0,0,.28.67,1.85,1.85,0,0,0,.61-.1A.65.65,0,0,0,119.27,77.15Z"/><path class="cls-2" d="M108.82,80.21a1.84,1.84,0,0,0,1.84-.67A1.26,1.26,0,0,0,110,78a1.41,1.41,0,0,0-1.64.6A1.26,1.26,0,0,0,108.82,80.21Z"/><path class="cls-2" d="M103.78,36.29a.49.49,0,0,0,.21-.37.36.36,0,0,0-.41-.3c-.26.06-.14.39-.12.52A.42.42,0,0,0,103.78,36.29Z"/><path class="cls-2" d="M100,35.16a.77.77,0,0,0,.55-.31c.23-.46,0-.76-.51-1-.35.22-.76.35-.67.84A.57.57,0,0,0,100,35.16Z"/><path class="cls-2" d="M100.15,20.31a1.21,1.21,0,0,0-.18-.62.59.59,0,0,0,.64-.5.68.68,0,0,0-.82-.75c-.45.07-.61-.2-.89-.46a3.25,3.25,0,0,0,.25-.34.47.47,0,0,0,.21-.06.52.52,0,0,0,.06.2.73.73,0,0,0,.79.33c.31-.12.31-.66.25-.94a1.17,1.17,0,0,0-.83-.59c0-.17.06-.16.29-.39L100,16c-.43-.32-.87-.63-1.31-.94a1.9,1.9,0,0,0-.62.61.89.89,0,0,0-.09.38c-.33,0-.52.22-.6.66A1,1,0,0,0,98,18.06a2.86,2.86,0,0,1-.69.21.63.63,0,0,0-.68.53.92.92,0,0,0,.26,1c1.09.82,1.49.8,2.45-.14l.09-.06h0a1.54,1.54,0,0,0-.28.45.42.42,0,0,0,.31.6A.51.51,0,0,0,100.15,20.31Z"/><path class="cls-2" d="M99.54,26.67a.19.19,0,0,0,.1-.26.21.21,0,0,0-.26-.07c-.06,0-.08.19,0,.23S99.45,26.71,99.54,26.67Z"/><path class="cls-2" d="M101.34,27.21a1.07,1.07,0,0,0,.43-1.05.68.68,0,0,0-.9-.27.63.63,0,0,0-.26.89C100.79,27.18,101.08,27.35,101.34,27.21Z"/><path class="cls-2" d="M108.05,41a1.13,1.13,0,0,0,.26-1.41c-.22-.46-.67-.56-1.25-.27a.89.89,0,0,0-.39,1C106.84,40.68,107.75,41.11,108.05,41Z"/><path class="cls-2" d="M106.85,43.4c-.14-.19-.57-.59-.81-.49s-.14.72-.07.94.34.35.63.18S107,43.65,106.85,43.4Z"/><path class="cls-2" d="M106,36.74c.1-.4-.32-.85-.91-1a.75.75,0,0,0-.79.53.93.93,0,0,0,.56,1.05A1.09,1.09,0,0,0,106,36.74Z"/><path class="cls-2" d="M110.05,39.67c-.07-.14-.5-.41-.66-.32s-.22.64-.15.7.53.34.66.23A.68.68,0,0,0,110.05,39.67Z"/><path class="cls-2" d="M119.58,61.57a.68.68,0,0,0,.37-.79.57.57,0,0,0-.75-.38.66.66,0,0,0-.37.79A.56.56,0,0,0,119.58,61.57Z"/><path class="cls-2" d="M120.77,52.33a.57.57,0,0,0-.24-.82.63.63,0,0,0-.88.28.69.69,0,0,0,.33.88A.63.63,0,0,0,120.77,52.33Z"/><path class="cls-2" d="M111.83,38.33a.68.68,0,0,0-.39-.78.5.5,0,0,0-.69.12c-.32.39-.15.74.11,1.13C111.29,38.75,111.73,38.82,111.83,38.33Z"/><path class="cls-2" d="M111.53,42.26c-.09-.06-.46-.09-.53.06s.15.43.25.47a.37.37,0,0,0,.43-.11C111.76,42.53,111.63,42.33,111.53,42.26Z"/><path class="cls-2" d="M120.71,60.37c.3.13.81-.16,1-.59a.84.84,0,0,0-.25-1.14,1.06,1.06,0,0,0-1.26.3A1.17,1.17,0,0,0,120.71,60.37Z"/><path class="cls-2" d="M40.92,12.49a.89.89,0,0,0,.15-1.17.74.74,0,0,0-1-.11,1,1,0,0,0,0,1.28A.57.57,0,0,0,40.92,12.49Z"/><path class="cls-2" d="M29.48,15a.1.1,0,0,0,0-.05l-.26.19A.59.59,0,0,0,29.48,15Z"/><path class="cls-2" d="M110.26,36.07a1.25,1.25,0,0,0,1.43-.51,1,1,0,0,0,.76-.43,5.25,5.25,0,0,0,.37-.79c.13,0,.28,0,.41-.08l.23-.11a1.57,1.57,0,0,0,.42,0,.72.72,0,0,0-.18.48c0,.38-.84.21-.83.74s-.58.76-.49,1.4.59,1.2,1.1.93a2.19,2.19,0,0,0,.92-1.15.55.55,0,0,0,.86-.31.56.56,0,0,0-.58-.59c.49-.12,1.42-.5,1.09-1.35a1.14,1.14,0,0,0-1.22-.58h0a1.26,1.26,0,0,0,0-1.12,1.12,1.12,0,0,0-.85-.55,1.58,1.58,0,0,0-.29-.22.75.75,0,0,0-.57-.07,1.19,1.19,0,0,0-.86,1.46c0,.14.05.28.08.43a7.82,7.82,0,0,0-.78.14l-.08,0c-.4-.12-1,.23-1.32.71A1.17,1.17,0,0,0,110.26,36.07Z"/><path class="cls-2" d="M41.39,15.63a.66.66,0,0,0-.92.12.55.55,0,0,0,.05.83.71.71,0,0,0,.94,0A.68.68,0,0,0,41.39,15.63Z"/><path class="cls-2" d="M123.53,67.5a1.82,1.82,0,0,0,.35.12c0-.48.05-1,.07-1.45a1.3,1.3,0,0,0-.68.55A.54.54,0,0,0,123.53,67.5Z"/><path class="cls-2" d="M30.21,18.5A.93.93,0,0,0,30,17.26a.87.87,0,0,0-1.31,0,.86.86,0,0,0-.12,1.23A1.28,1.28,0,0,0,30.21,18.5Z"/><path class="cls-2" d="M110.44,66.06c0-.29-.83-.7-1.09-.42a.67.67,0,0,0,0,.86C109.65,66.75,110.45,66.35,110.44,66.06Z"/><path class="cls-2" d="M108.64,28.43a1.09,1.09,0,0,0-.28-.86.6.6,0,0,0,.29-.6c0-.45-.43-.54-.84-.66-.27.31-.64.6-.34,1a.44.44,0,0,0,.09.11,1.52,1.52,0,0,0-.66,1,.65.65,0,0,0,.63.68C108.11,29.18,108.61,28.87,108.64,28.43Z"/><path class="cls-2" d="M109.07,33.94a.73.73,0,0,0,.46-.41c.1-.45-.28-.56-.61-.67-.35.22-.55.49-.34.86A.57.57,0,0,0,109.07,33.94Z"/><path class="cls-2" d="M108.34,31.81a.31.31,0,0,0-.12-.48.72.72,0,0,0-.56.11c-.17.08-.36.13-.45.31s.13.43.42.42A1,1,0,0,0,108.34,31.81Z"/><path class="cls-2" d="M105.64,28.52c-.17.15-.36.31-.34.52s.6.47.89.31.22-.37.13-.58A.44.44,0,0,0,105.64,28.52Z"/><path class="cls-2" d="M107,35.93c.61-.21.83-.91.54-1.67a1.07,1.07,0,0,0-1.46-.64,1.36,1.36,0,0,0-.71,1.66A1.43,1.43,0,0,0,107,35.93Z"/><path class="cls-2" d="M108.23,43a.65.65,0,0,0,.9.41.72.72,0,0,0,.35-.87.76.76,0,0,0-1-.34A.61.61,0,0,0,108.23,43Z"/><path class="cls-2" d="M105.85,31.85a.52.52,0,0,0,.37-.73.58.58,0,0,0-.71-.34c-.26.06-.5.73-.31.92A.74.74,0,0,0,105.85,31.85Z"/><path class="cls-2" d="M67,20.28a.62.62,0,0,0,.59-.44.88.88,0,0,0,.1-.56c-.31,0-.8-.37-1-.1s.1.73.14,1Z"/><path class="cls-2" d="M43.05,8.36a.72.72,0,0,0,0-.58c-1,.37-2,.77-2.92,1.19a1.76,1.76,0,0,0,.81.54A2.26,2.26,0,0,0,43.05,8.36Z"/><path class="cls-2" d="M105.61,32.44a1,1,0,0,0,.81,1.07c.48.1.79-.17.91-.79.08-.42-.2-1-.52-1.07A1.15,1.15,0,0,0,105.61,32.44Z"/><path class="cls-2" d="M57.94,11.92a1.21,1.21,0,0,0-2.39-.23c-.11.46.49,1,1.14,1.12A1.18,1.18,0,0,0,57.94,11.92Z"/><path class="cls-2" d="M62,16.33c0-.12-.05-.4-.19-.54a.71.71,0,1,0-.95,1C61.08,17,61.6,16.82,62,16.33Z"/><path class="cls-2" d="M56.34,15.28a.36.36,0,0,0,0-.45c-.15-.11-.38.12-.46.22a.32.32,0,0,0,.07.36C56,15.48,56.24,15.37,56.34,15.28Z"/><path class="cls-2" d="M55.77,16.53c-.13-.1-.35,0-.43.09s-.15.44,0,.53.45-.08.5-.18S55.91,16.62,55.77,16.53Z"/><path class="cls-2" d="M56.39,13.81a.71.71,0,0,0-.55-.28c-.45.07-.41.46-.4.81.33.24.66.33.93,0A.56.56,0,0,0,56.39,13.81Z"/><path class="cls-2" d="M66,13.41a1.67,1.67,0,0,0,.71-.33c.22-.18.2-.45-.07-.65a.57.57,0,0,0-.52-.15.72.72,0,0,0-.27-.3.79.79,0,0,0-1,.17c-.37.54-.36,1.17,0,1.4A1.15,1.15,0,0,0,66,13.41Z"/><path class="cls-2" d="M65.11,11.3a.66.66,0,0,0,0-1,.71.71,0,0,0-.94,0,.75.75,0,0,0,0,1A.61.61,0,0,0,65.11,11.3Z"/><path class="cls-2" d="M66.76,16a.41.41,0,0,0,.63-.24c.08-.2.25-.73,0-.85s-.73.18-.86.36S66.46,15.8,66.76,16Z"/><path class="cls-2" d="M63.07,14.06c-.24-.2-.48,0-.63.24s-.08.65.19.71.67.21.81-.14S63.24,14.2,63.07,14.06Z"/><path class="cls-2" d="M63.61,8.67A1.5,1.5,0,0,0,61.8,9c-.39.51-.16,1.27.54,1.78a1.07,1.07,0,0,0,1.52-.24A1.43,1.43,0,0,0,63.61,8.67Z"/><path class="cls-2" d="M55.71,18.23a.73.73,0,0,0-.09-.66.51.51,0,0,0-.81-.08.57.57,0,0,0-.06.78C54.9,18.5,55.61,18.47,55.71,18.23Z"/><path class="cls-2" d="M48.75,14a.72.72,0,0,0,0,.94c.39.34.78.14,1.16,0,.08-.77,0-1.06-.42-1.18A.65.65,0,0,0,48.75,14Z"/><path class="cls-2" d="M51.21,13.07c.48-.52.54-.92.18-1.28a1.08,1.08,0,0,0-1.27.07,1.21,1.21,0,0,0,.17,1.29A.62.62,0,0,0,51.21,13.07Z"/><path class="cls-2" d="M49.16,17.57c.42-.28.74-.55.54-1a.64.64,0,0,0-.52-.3,1,1,0,0,0-.63.47C48.37,17.2,48.82,17.33,49.16,17.57Z"/><path class="cls-2" d="M48.79,10a1.11,1.11,0,0,1,1,.74,1,1,0,0,0,1.16.3,1.24,1.24,0,0,0,.39-.81.54.54,0,0,0,.16-.21A.58.58,0,0,0,51,9.24a.39.39,0,0,0-.45-.18,1.56,1.56,0,0,1-1.28-.29.53.53,0,0,0-.81.23C48.3,9.35,48.42,9.91,48.79,10Z"/><path class="cls-2" d="M53.17,18.16c-.24-.2-.42-.07-.59.09a.43.43,0,0,0,0,.72c.19.11.42.23.6.13A.77.77,0,0,0,53.17,18.16Z"/><path class="cls-2" d="M54.87,9.23a.69.69,0,0,0,.51,0c.34-.17.5.71,1,.5s.92.27,1.49-.05.9-1,.46-1.36a2.22,2.22,0,0,0-1.46-.44.59.59,0,0,0-.32.08,1,1,0,0,0-.13-1.16c-.33-.22-.88,0-1.2.47a.77.77,0,0,0-.89.15,1.14,1.14,0,0,0-.09,1.35h0a1.25,1.25,0,0,0-1.06.38,1.27,1.27,0,0,0,.14,1.65,1.07,1.07,0,0,0,1.43,0A1.73,1.73,0,0,0,54.87,9.23Z"/><path class="cls-2" d="M52.34,7.93l0,0,.7-.67a5.18,5.18,0,0,0-.31-.54.71.71,0,0,0-.64-.26.9.9,0,0,0-.26-.64l-.09-.09a.46.46,0,0,0-.11-.47l-1.79.41a.13.13,0,0,0,.07.06c.54.16.48.63.57,1a.66.66,0,0,0,1,.51l.13-.06a.6.6,0,0,0,.14.29A2.85,2.85,0,0,0,52.34,7.93Z"/><path class="cls-2" d="M55,16.33c.25,0,.35-.27.23-.54a1,1,0,0,0-.59-.53.32.32,0,0,0-.4.29c0,.2.15.33.31.48S54.82,16.32,55,16.33Z"/><rect class="cls-3" x="19.01" y="18.08" width="79.83" height="29.67"/><path class="cls-4" d="M29,47.21a.73.73,0,0,0,.38.46c.25.09.61-.27.55-.55s-.21-.31-.27-.39C29.2,46.71,28.91,47,29,47.21Z"/><path class="cls-4" d="M32.1,42a1,1,0,0,0-.92.51.83.83,0,0,0-.26.11,2,2,0,0,1,.06.3,2.1,2.1,0,0,0-.06.24.84.84,0,0,0,.78,1,1,1,0,0,0,1.21-1A1.07,1.07,0,0,0,32.1,42Z"/><path class="cls-4" d="M32.62,46.83a1.43,1.43,0,0,0-.43-.39c-.56-.26-1.23.1-1.56.86a1,1,0,0,0-.09.44h3a.59.59,0,0,0,.07-.24.73.73,0,0,0-.61-.68A1.9,1.9,0,0,0,32.62,46.83Z"/><path class="cls-4" d="M28.18,46.83a.66.66,0,0,0,.66-.61c0-.34-.21-.49-.53-.52a.61.61,0,0,0-.7.55A.55.55,0,0,0,28.18,46.83Z"/><path class="cls-4" d="M28.81,41.61a1,1,0,0,0-.67-.52c-.35-.06-.84.43-.92.91a.89.89,0,0,0,.17.65,1.38,1.38,0,0,0,1,1.27,1.43,1.43,0,0,0,1.4-1.07C29.94,42.3,29.51,41.79,28.81,41.61Z"/><path class="cls-4" d="M19.94,42.34A1,1,0,0,0,21,41.69a1.1,1.1,0,0,0-.86-1.16c-.31,0-.69.38-.76.85A.81.81,0,0,0,19.94,42.34Z"/><path class="cls-4" d="M37.5,46.17c-.5,0-.79.29-.82.91a.88.88,0,0,0,.35.66h.84c.34-.18.67-.48.67-.69C38.56,46.64,38.05,46.21,37.5,46.17Z"/><path class="cls-4" d="M47.07,41.84c.09-.16.07-.28-.1-.36s-.27-.06-.36.1a.23.23,0,0,0,.09.35A.23.23,0,0,0,47.07,41.84Z"/><path class="cls-4" d="M19,47.74h.59s0,0,0,0a1,1,0,0,0-.09-.49l.07,0c.71.16,1.38-.51,1.17-1s-.54-.5-.47-.68.36-.46.24-.75a.56.56,0,0,0,.17-.09,1,1,0,0,0-.08.26,1.34,1.34,0,0,0,.6,1.19,1.19,1.19,0,0,0,.27.29,1.93,1.93,0,0,0,.46-.19,1.29,1.29,0,0,0,.82-.51,1.59,1.59,0,0,0,.71.62l.1,0c-.11.12-.16.21-.26.18s-.49-.4-.8-.23-.21,1.23-.11,1.38h2.4a1.26,1.26,0,0,0,.2-.47c.14-.68-.45-1.3-.93-1.19a1.13,1.13,0,0,0,.24-.73.62.62,0,0,0-.56-.61.66.66,0,0,0-.14,0,1.56,1.56,0,0,0,.64-.73c.16-.33-.46-.88-1-.84a.62.62,0,0,0-.61.57,1.24,1.24,0,0,0,.08.66,1.2,1.2,0,0,0-.76-.34,1.22,1.22,0,0,0-1,.31l0-.11a.56.56,0,0,0-.49-.64.61.61,0,0,0-.47.12h0c.09-.11.6-.51.3-.88-.51-.65-1-.27-1.28-.21Zm4.09-3h.07a1.39,1.39,0,0,0-.21.11.73.73,0,0,0-.08-.25A.42.42,0,0,0,23.1,44.79Z"/><path class="cls-4" d="M39.42,43.43c-.46,0-.74.23-.81.78a.13.13,0,0,0-.06,0,1,1,0,0,0,.23,1.05.89.89,0,0,0,.95-.28v0a.57.57,0,0,0,.45-.44A1.34,1.34,0,0,0,39.42,43.43Z"/><path class="cls-4" d="M25.2,44.39a.59.59,0,0,0,.55.61.54.54,0,0,0,.67-.46.62.62,0,0,0-.52-.72A.68.68,0,0,0,25.2,44.39Z"/><path class="cls-4" d="M19,39.21v.46a1.25,1.25,0,0,0,.85.62.77.77,0,0,0,.92-.61A1,1,0,0,0,20,38.54,1.12,1.12,0,0,0,19,39.21Z"/><path class="cls-4" d="M20,37.07c0,.09,0,.21.12.24s.11-.09.18-.14-.08-.16-.14-.19A.25.25,0,0,0,20,37.07Z"/><path class="cls-4" d="M19.93,35.89a.53.53,0,0,0-.47-.64,1.69,1.69,0,0,0-.45,0V36.8l.11,0A.52.52,0,0,0,19,37v.33a.32.32,0,0,0,.23.26c.28.07.42-.32.43-.45s0-.41-.26-.44h-.05A1.36,1.36,0,0,0,19.93,35.89Z"/><path class="cls-4" d="M46.08,39.88a.87.87,0,0,0,.39.91.64.64,0,0,0,.88-.37.7.7,0,0,0-.31-.85A1,1,0,0,0,46.08,39.88Z"/><path class="cls-4" d="M22.6,39a.4.4,0,0,0-.44.48c0,.2.11.73.39.71s.55-.47.58-.67S22.93,39,22.6,39Z"/><path class="cls-4" d="M27.08,46.07a1.11,1.11,0,0,0-.86-1c-.34-.05-.85.45-.88.85a.79.79,0,0,0,.55.74h.27c-.5,0-1,.26-1,.62a.88.88,0,0,0,.1.44H27a.53.53,0,0,0,0-.12c0-.61-.23-.89-.87-.94C26.67,46.66,27.05,46.42,27.08,46.07Z"/><path class="cls-4" d="M24.57,37.85c0,.44.23.73.49.66a.76.76,0,0,0,.46-.38c.09-.25-.27-.61-.55-.55S24.66,37.79,24.57,37.85Z"/><path class="cls-4" d="M28.47,44.75a.39.39,0,0,0-.47-.44c-.2,0-.73.1-.71.38s.46.55.66.58S28.45,45.08,28.47,44.75Z"/><path class="cls-4" d="M30,47.7l-.1,0h.45A.44.44,0,0,0,30,47.7Z"/><path class="cls-4" d="M26.79,43.46a.34.34,0,0,0-.17-.39c-.09,0-.44-.06-.5.08s.16.41.27.44S26.73,43.6,26.79,43.46Z"/><path class="cls-4" d="M50.61,35.51a.56.56,0,0,0,.69.67.57.57,0,0,0,.25-.7C51.41,35.19,51.2,35.2,50.61,35.51Z"/><path class="cls-4" d="M44,32.1a.58.58,0,0,0-.67.27c-.28.45-.24.67.2,1.12a8.12,8.12,0,0,0,0,1.2.4.4,0,0,0,.72.24c.26-.35.65-.66.62-1.19l-.43-.44C44.47,32.72,44.3,32.19,44,32.1Z"/><path class="cls-4" d="M48.1,37a.65.65,0,0,0-1,.11,1,1,0,0,0,.19,1.33c.42.34.67.16.92.4s.47.17.78,0,.77-.52.48-.94-.6-.29-.72-.19-.44.06-.35-.09S48.47,37.23,48.1,37Z"/><path class="cls-4" d="M35.44,37.69c0-.12-.16-.31-.26-.32s-.39,0-.4.3.27.29.39.3S35.45,37.78,35.44,37.69Z"/><path class="cls-4" d="M38,38.47c-.17.45,0,.8.58,1s.79,0,1-.59,0-.73-.25-.85a.56.56,0,0,0-.23,0h0c.15-.12.06-.54,0-.83a.24.24,0,0,0-.26-.27.75.75,0,0,0-.64.72.55.55,0,0,0,.45.44A1.14,1.14,0,0,0,38,38.47Z"/><path class="cls-4" d="M49.5,33.83c0-.13.1-.32-.09-.41a.22.22,0,0,0-.32.12c-.05.12-.13.42,0,.5S49.49,33.9,49.5,33.83Z"/><path class="cls-4" d="M51.88,38.94a.56.56,0,0,0,.71-.4.65.65,0,0,0-.42-.8.5.5,0,0,0-.64.38A.62.62,0,0,0,51.88,38.94Z"/><path class="cls-4" d="M19,25.4v1.42a.61.61,0,0,0,.26.17.84.84,0,0,0,1-.79c.08-.39-.27-.74-.83-.83A1,1,0,0,0,19,25.4Z"/><path class="cls-4" d="M34.93,42.47A1,1,0,0,0,36,42.12s0-.07,0-.1a1.28,1.28,0,0,0,.19-.54c0-.34-.15-.5-.46-.56a1.09,1.09,0,0,0-.64.12.48.48,0,0,0-.46.34A.85.85,0,0,0,34.93,42.47Z"/><path class="cls-4" d="M31.76,33.84c.16,0,.3-.15.33-.26s-.06-.45-.21-.47-.35.26-.35.37A.35.35,0,0,0,31.76,33.84Z"/><path class="cls-4" d="M31.19,36.18c.23.18.93,0,1-.3a.89.89,0,0,0,0-.43.8.8,0,0,0,.15-.31.33.33,0,0,0-.21-.29c-.12,0-.26.18-.31.3h0a.68.68,0,0,0-.21,0C31,35.16,31,36,31.19,36.18Z"/><path class="cls-4" d="M19.66,21.62c.1,0,.45-.05.47-.2s-.26-.35-.37-.36a.35.35,0,0,0-.36.23C19.37,21.45,19.55,21.59,19.66,21.62Z"/><path class="cls-4" d="M50.12,39.38c-1.3-.21-1.63.73-1.61,1.62a1.38,1.38,0,0,0,.3.81,1.23,1.23,0,0,0,.75.42.72.72,0,0,0,.41.55,2.41,2.41,0,0,0,.46-.36.81.81,0,0,0,.63,0,1.89,1.89,0,0,0,1.27-1.89,1.54,1.54,0,0,0-.69-1.29C51.18,39,50.67,39.47,50.12,39.38Z"/><path class="cls-4" d="M25.92,38.54c0,.36.45.49.66.54s.41-.21.43-.47-.2-.6-.46-.53S25.88,38.19,25.92,38.54Z"/><path class="cls-4" d="M25.83,30.3c-.15-.2-1.12.3-1.17.57s.49.55,1,.41S26,30.5,25.83,30.3Z"/><path class="cls-4" d="M29.72,44.78a.91.91,0,0,0,.56,1.27.86.86,0,0,0,1.11-.39,1.29,1.29,0,0,0-.68-1.45A.92.92,0,0,0,29.72,44.78Z"/><path class="cls-4" d="M30.53,42.28s-.07-.16-.09-.16-.21,0-.23.11.08.12.13.19S30.5,42.33,30.53,42.28Z"/><path class="cls-4" d="M34,45.42a1,1,0,0,0-1,.49c-.09.23.21.73.51.84a.44.44,0,0,0,.51-.16,1.09,1.09,0,0,0,.69.55.6.6,0,0,0,.67-.57s0,0,0,0l.18.09a.83.83,0,0,0,1.14-.5,1,1,0,0,0-.62-1.42,1.08,1.08,0,0,0-1.35.48.87.87,0,0,0,.08.76,1.06,1.06,0,0,0-.63.24C34.23,45.78,34.17,45.49,34,45.42Z"/><path class="cls-4" d="M26.78,33.67c.11-.09,0-.34-.05-.43a.46.46,0,0,0-.51,0c-.12.13,0,.42.13.47A.39.39,0,0,0,26.78,33.67Z"/><path class="cls-4" d="M20.77,35.41l-.2,0a.59.59,0,0,0-.32.63.86.86,0,0,0,.16.52,3.42,3.42,0,0,1,.53-.09.5.5,0,0,0-.19.38,1.26,1.26,0,0,0,1,1.18.93.93,0,0,0,.76-.86.79.79,0,0,0-.81-.93,1.26,1.26,0,0,0-.4,0s.05,0,.06-.08C21.41,35.9,20.93,35.65,20.77,35.41Z"/><path class="cls-4" d="M22.22,31.12a.83.83,0,0,0-.18-.73.72.72,0,0,0-.66-.1.75.75,0,0,0-.19,1.12A.65.65,0,0,0,22.22,31.12Z"/><path class="cls-4" d="M22.86,42.82c.56.2.94-.17,1.05-.08s.51.6.89.3a.78.78,0,0,0,.31-1,.77.77,0,0,0,.69-.54,1.28,1.28,0,0,0,0-.48,1.69,1.69,0,0,0,.32-.27A1,1,0,0,0,26,39.21a1.12,1.12,0,0,0-1.64.27c-.54.74.31,1.16-.2,1.48s-.58-.27-1.26.24S22.29,42.61,22.86,42.82Z"/><path class="cls-4" d="M23.9,36.21c0-.12-.24-.28-.39-.21a.32.32,0,0,0-.19.36.45.45,0,0,0,.42.26C23.89,36.6,23.94,36.34,23.9,36.21Z"/><path class="cls-4" d="M25.1,37.15a.44.44,0,0,0,.48.52.77.77,0,0,0,.55-.3c.08-.15-.13-.72-.41-.75A.58.58,0,0,0,25.1,37.15Z"/><path class="cls-4" d="M33.79,43.24a.24.24,0,0,0-.33.18.76.76,0,0,0,.53.8.56.56,0,0,0,.58-.73C34.5,43.33,34.07,43.3,33.79,43.24Z"/><path class="cls-4" d="M60.82,39.42c-.56-.08-1.19.3-1.22.73s.41.81.86.85a.88.88,0,0,0,.88-.81C61.39,39.74,61.21,39.47,60.82,39.42Z"/><path class="cls-4" d="M62.69,32.5a1,1,0,0,0-1.19.3c-.18.35.11.86.63,1.11a.73.73,0,0,0,.86-.32A.88.88,0,0,0,62.69,32.5Z"/><path class="cls-4" d="M56.56,36.93a1.15,1.15,0,0,0-1.37.65.79.79,0,0,0,.49,1A1.15,1.15,0,0,0,57,38.3,1.12,1.12,0,0,0,56.56,36.93Z"/><path class="cls-4" d="M60.38,35.71c-.42-.2-.77,0-1,.54a1,1,0,0,0,.26,1.11,1.1,1.1,0,0,0,1.28-.47A1,1,0,0,0,60.38,35.71Z"/><path class="cls-4" d="M19.87,32.75h-.19a1,1,0,0,0,.26-.46,2,2,0,0,0-.13-1.37.89.89,0,0,1,0-.51A.81.81,0,0,0,19,29.28a.43.43,0,0,0,.08-.23A.4.4,0,0,0,19,28.8V33h.06l.11,0c-.06.06-.11.14-.17.21v1a1.2,1.2,0,0,0,.67.26c.43,0,.93-.24,1-.57A1.18,1.18,0,0,0,19.87,32.75Z"/><path class="cls-4" d="M20.24,29.12a.65.65,0,0,0,.49.75.66.66,0,0,0,.74-.51.75.75,0,0,0-.55-.81A.64.64,0,0,0,20.24,29.12Z"/><path class="cls-4" d="M64.52,39.49a1.1,1.1,0,0,0-.66-1.28,1.21,1.21,0,0,0-1.38.9.85.85,0,0,0,.59,1.11A1.09,1.09,0,0,0,64.52,39.49Z"/><path class="cls-4" d="M56.87,41.31c-.07.43.29.6.64.8.32-.23.72-.42.55-.9A.26.26,0,0,0,58,41.1a1.47,1.47,0,0,0,.84-.78.61.61,0,0,0-.44-.76A.88.88,0,0,0,57.2,40a1,1,0,0,0,.08.86A.61.61,0,0,0,56.87,41.31Z"/><path class="cls-4" d="M73,41.73a.4.4,0,0,0-.16-.4c-.1-.06-.47-.07-.51.08a.4.4,0,0,0,.23.38C72.69,41.83,73,41.88,73,41.73Z"/><path class="cls-4" d="M71.06,39.85c.09-.23.08-.55-.21-.6s-.56.07-.62.21.07.46.1.62C70.77,40.26,71,40.08,71.06,39.85Z"/><path class="cls-4" d="M75.45,42a.34.34,0,0,0-.17-.43.37.37,0,1,0-.24.69A.38.38,0,0,0,75.45,42Z"/><path class="cls-4" d="M77.28,40.34a.49.49,0,0,0-.4.11.35.35,0,0,0,.09.48c.22.13.35-.17.42-.28S77.33,40.35,77.28,40.34Z"/><path class="cls-4" d="M54.46,40a.56.56,0,0,0,.28-.77c-.09-.18-.35-.41-.53-.4-.45,0-.61.38-.66.82C53.79,39.87,54.07,40.13,54.46,40Z"/><path class="cls-4" d="M52.76,31.2c-.16.49.41.78.69.67a.59.59,0,0,0,.25-.7A.54.54,0,0,0,52.76,31.2Z"/><path class="cls-4" d="M56.12,32.72a.82.82,0,0,0-1,.17,3.63,3.63,0,0,0-.52.64c-.13,0-.27,0-.41,0a1.28,1.28,0,0,0-1.13.82,1.47,1.47,0,0,0,.43,1.36.71.71,0,0,0,.52.18,1.14,1.14,0,0,0,1.13-1.17c0-.13,0-.27,0-.41.27,0,.52.05.76,0,.47,0,.65-.19.7-.64A1,1,0,0,0,56.12,32.72Z"/><path class="cls-4" d="M69.51,40c-.58-.35-.88-.28-1.2.32s-.5.9-.75,1.33c-.86-.39-1-.34-1.13.45.32.37.66.33,1,0,.93.71,1.53.39,1.69-.84a2.18,2.18,0,0,1,.23-.09c.34,0,.44-.29.47-.59A.62.62,0,0,0,69.51,40Z"/><path class="cls-4" d="M66.69,35.57a.79.79,0,0,0-.59.17c-.31.38-.11.72.26,1.07.37-.13.78-.16.8-.64A.55.55,0,0,0,66.69,35.57Z"/><path class="cls-4" d="M30.35,37.4c-.07.27.32.42.45.43s.41,0,.44-.26a.4.4,0,0,0-.31-.41C30.8,37.13,30.43,37.13,30.35,37.4Z"/><path class="cls-4" d="M39.43,35a.6.6,0,0,0-.46.33.4.4,0,0,0,.36.53c.17,0,.63-.06.66-.44S39.58,35,39.43,35Z"/><path class="cls-4" d="M37.35,41.37c-.12.07-.17.42-.11.59a.77.77,0,0,0,.35.34.67.67,0,0,0,.5.52c.3,0,.81-.31.82-.56a.89.89,0,0,0-.48-.72c0-.12.1-.24.14-.35s0-.43-.3-.52c-.08,0-.23,0-.26.13A1.31,1.31,0,0,1,37.35,41.37Z"/><path class="cls-4" d="M39.93,39.4a.47.47,0,0,0,.35.62h.07a1.17,1.17,0,0,0,.57.36.88.88,0,0,0,.95-.45,1.47,1.47,0,0,0-.51-1.37,1,1,0,0,0-.93.45A.45.45,0,0,0,39.93,39.4Z"/><path class="cls-4" d="M21.58,23a.7.7,0,0,0-.74.6.77.77,0,0,0,.67.71.65.65,0,0,0,.68-.57A.69.69,0,0,0,21.58,23Z"/><path class="cls-4" d="M36.75,38.67a.89.89,0,0,0-1,.47.63.63,0,0,0,.43.78.71.71,0,0,0,.85-.31C37.19,39.32,37,38.74,36.75,38.67Z"/><path class="cls-4" d="M36.45,43.53c-.1-.1-.45-.06-.6,0a.81.81,0,0,0-.25.56c0,.13.23.31.38.36a5.22,5.22,0,0,0,1,.17c.28,0,.4-.12.42-.42,0-.07-.11-.21-.19-.22A1.39,1.39,0,0,1,36.45,43.53Z"/><path class="cls-4" d="M42.44,36a.74.74,0,0,0-.81.42c-.19.61-.07,1.1.31,1.22A1.1,1.1,0,0,0,43.07,37,1.09,1.09,0,0,0,42.44,36Z"/><path class="cls-4" d="M44.19,38c-.32.14-.74.16-.85.44a.61.61,0,0,0,0,.55c.07.16.06.35.28.53a1.34,1.34,0,0,0,1.12.25,1,1,0,0,0,.68-.77.82.82,0,0,0-.32-.78A1,1,0,0,0,44.19,38Z"/><path class="cls-4" d="M40.39,37.19a.32.32,0,0,0,.3.27.48.48,0,0,0,.36-.34c0-.15-.22-.26-.37-.26S40.36,37,40.39,37.19Z"/><path class="cls-4" d="M42.07,40.49a1.11,1.11,0,0,0,.3,1.45A1,1,0,0,0,44,41.75a1.21,1.21,0,0,0-.18-1.69A1.45,1.45,0,0,0,42.07,40.49Z"/><path class="cls-4" d="M36.25,36.52a.48.48,0,0,0-.65.32.44.44,0,0,0,.24.61.47.47,0,0,0,.69-.18A.55.55,0,0,0,36.25,36.52Z"/><path class="cls-4" d="M41.32,34.07c-.13,0-.31,0-.38.18a.23.23,0,0,0,.16.31c.12,0,.37.06.48-.14S41.39,34.07,41.32,34.07Z"/><path class="cls-4" d="M40.21,32.37c-.18.37,0,.92.31,1s1-.73.85-1.08S40.39,32,40.21,32.37Z"/><path class="cls-4" d="M25.06,19a1.75,1.75,0,0,0-1.47,1.15,1.2,1.2,0,0,0,1.1,1.23,1.34,1.34,0,0,0,1.31-1A1.21,1.21,0,0,0,25.06,19Z"/><path class="cls-4" d="M23.32,29.36a.45.45,0,0,0,.42.26c.15,0,.2-.28.16-.42s-.24-.27-.39-.2A.32.32,0,0,0,23.32,29.36Z"/><path class="cls-4" d="M22.21,25.87a.59.59,0,0,0-.74.37.76.76,0,0,0,.08.59c.2.31.49.28,1.1,0C22.62,26.42,22.71,26,22.21,25.87Z"/><path class="cls-4" d="M22.64,34.14c0,.29.09.52.36.58a3.55,3.55,0,0,0,2.09-.06,1.1,1.1,0,0,0,.27-.2.79.79,0,0,0-.46-1.37h-.08a.74.74,0,0,0,.13-.31.58.58,0,0,0-.57-.66.55.55,0,0,0-.65.48,1.09,1.09,0,0,0,.08.43h-.23A1.24,1.24,0,0,0,22.64,34.14Z"/><path class="cls-4" d="M26.62,25.64a1.07,1.07,0,0,0-1.1.92,1.15,1.15,0,0,0,1,1.33.91.91,0,0,0,1.09-.75C27.72,26.48,27.16,25.66,26.62,25.64Z"/><path class="cls-4" d="M27.79,32.31c.1.26,1,.39,1.12,0a.63.63,0,0,0-.26-.78C28.3,31.44,27.69,32.05,27.79,32.31Z"/><path class="cls-4" d="M29.77,38.45a.91.91,0,0,0-1.09.85c0,.5.29,1,.66,1a1.28,1.28,0,0,0,1.23-1C30.61,38.91,30.18,38.48,29.77,38.45Z"/><path class="cls-4" d="M45.67,36.32a.65.65,0,0,0-.78.29.55.55,0,0,0,.26.77.64.64,0,0,0,.78-.3A.53.53,0,0,0,45.67,36.32Z"/><path class="cls-4" d="M28.94,23.38c-.18.06-.18.5-.12.61a.49.49,0,0,0,.47.11.5.5,0,0,0,.16-.46A.56.56,0,0,0,28.94,23.38Z"/><path class="cls-4" d="M27.32,35.74c-.3,0-.67.35-.76.92.09.09.22.32.4.37a.75.75,0,0,0,.21,0h0c.12.07.29,0,.42-.15a.61.61,0,0,0,.28-.36A.77.77,0,0,0,27.32,35.74Z"/><path class="cls-4" d="M32.32,39.74a.92.92,0,0,0-.51,1,1,1,0,0,0,1,.77.89.89,0,0,0,.57-.37,1.19,1.19,0,0,0-.34-1.65A4.4,4.4,0,0,0,32.32,39.74Z"/><rect class="cls-3" x="9.01" y="65.08" width="79.83" height="29.67"/><path class="cls-4" d="M19,94.21a.73.73,0,0,0,.38.46c.25.09.61-.27.55-.55s-.21-.31-.27-.39C19.2,93.71,18.91,94,19,94.21Z"/><path class="cls-4" d="M22.1,89a1,1,0,0,0-.92.51.83.83,0,0,0-.26.11,2,2,0,0,1,.06.3,2.1,2.1,0,0,0-.06.24.84.84,0,0,0,.78,1,1,1,0,0,0,1.21-1A1.07,1.07,0,0,0,22.1,89Z"/><path class="cls-4" d="M22.62,93.83a1.43,1.43,0,0,0-.43-.39c-.56-.26-1.23.1-1.56.86a1,1,0,0,0-.09.44h3a.59.59,0,0,0,.07-.24.73.73,0,0,0-.61-.68A1.9,1.9,0,0,0,22.62,93.83Z"/><path class="cls-4" d="M18.18,93.83a.66.66,0,0,0,.66-.61c0-.34-.21-.49-.53-.52a.61.61,0,0,0-.7.55A.55.55,0,0,0,18.18,93.83Z"/><path class="cls-4" d="M18.81,88.61a1.07,1.07,0,0,0-.67-.52c-.35-.06-.84.43-.92.91a.89.89,0,0,0,.17.65,1.38,1.38,0,0,0,1,1.27,1.43,1.43,0,0,0,1.4-1.07C19.94,89.3,19.51,88.79,18.81,88.61Z"/><path class="cls-4" d="M9.94,89.34A1,1,0,0,0,11,88.69a1.1,1.1,0,0,0-.86-1.16c-.31,0-.69.38-.76.85A.81.81,0,0,0,9.94,89.34Z"/><path class="cls-4" d="M27.5,93.17c-.5,0-.79.29-.82.91a.88.88,0,0,0,.35.66h.84c.34-.18.67-.48.67-.69C28.56,93.64,28.05,93.21,27.5,93.17Z"/><path class="cls-4" d="M37.07,88.84c.09-.16.07-.28-.1-.36s-.27-.06-.36.1a.23.23,0,0,0,.09.35A.23.23,0,0,0,37.07,88.84Z"/><path class="cls-4" d="M9,94.74H9.6s0,0,0,0a1,1,0,0,0-.09-.49l.07,0c.71.16,1.38-.51,1.17-1s-.54-.5-.47-.68.36-.46.24-.75a.56.56,0,0,0,.17-.09,1,1,0,0,0-.08.26,1.34,1.34,0,0,0,.6,1.19,1.19,1.19,0,0,0,.27.29,1.93,1.93,0,0,0,.46-.19,1.29,1.29,0,0,0,.82-.51,1.59,1.59,0,0,0,.71.62l.1,0c-.11.12-.16.21-.26.18s-.49-.4-.8-.23-.21,1.23-.11,1.38h2.4a1.26,1.26,0,0,0,.2-.47c.14-.68-.45-1.3-.93-1.19a1.13,1.13,0,0,0,.24-.73.63.63,0,0,0-.56-.61h-.14a1.56,1.56,0,0,0,.64-.73c.16-.33-.46-.88-1-.84a.62.62,0,0,0-.61.57,1.24,1.24,0,0,0,.08.66,1.36,1.36,0,0,0-1.78,0l0-.11a.54.54,0,0,0-.49-.63.57.57,0,0,0-.47.11h0c.08-.11.59-.51.3-.88-.51-.65-1-.27-1.28-.21Zm4.09-2.95h.07a1.39,1.39,0,0,0-.21.11,1,1,0,0,0-.08-.25A.42.42,0,0,0,13.1,91.79Z"/><path class="cls-4" d="M29.42,90.43c-.46-.05-.74.23-.81.78a.13.13,0,0,0-.06.05,1,1,0,0,0,.23,1,.89.89,0,0,0,.95-.28v0a.57.57,0,0,0,.45-.44A1.34,1.34,0,0,0,29.42,90.43Z"/><path class="cls-4" d="M15.2,91.39a.59.59,0,0,0,.55.61.54.54,0,0,0,.67-.46.6.6,0,0,0-.52-.71A.66.66,0,0,0,15.2,91.39Z"/><path class="cls-4" d="M9,86.21v.46a1.25,1.25,0,0,0,.85.62.77.77,0,0,0,.92-.61A1,1,0,0,0,10,85.54,1.12,1.12,0,0,0,9,86.21Z"/><path class="cls-4" d="M10,84.07c0,.09,0,.21.12.24s.11-.09.18-.14-.08-.16-.14-.19A.25.25,0,0,0,10,84.07Z"/><path class="cls-4" d="M9.93,82.89a.53.53,0,0,0-.47-.64,1.69,1.69,0,0,0-.45,0V83.8l.11,0A.52.52,0,0,0,9,84v.34a.32.32,0,0,0,.23.25c.28.07.42-.32.43-.45s0-.41-.26-.44H9.36A1.33,1.33,0,0,0,9.93,82.89Z"/><path class="cls-4" d="M36.08,86.88a.87.87,0,0,0,.39.91.64.64,0,0,0,.88-.37.7.7,0,0,0-.31-.85A1,1,0,0,0,36.08,86.88Z"/><path class="cls-4" d="M40.32,94.74h0Z"/><path class="cls-4" d="M12.6,86a.4.4,0,0,0-.44.48c0,.2.11.73.39.71s.55-.47.58-.67S12.93,86,12.6,86Z"/><path class="cls-4" d="M17.08,93.07a1.11,1.11,0,0,0-.86-1c-.34,0-.85.45-.88.85a.79.79,0,0,0,.55.74h.27c-.5,0-1,.26-1,.63a.85.85,0,0,0,.1.43H17a.53.53,0,0,0,0-.12c0-.61-.23-.89-.87-.94C16.67,93.66,17.05,93.42,17.08,93.07Z"/><path class="cls-4" d="M14.57,84.85c0,.44.23.73.49.66a.76.76,0,0,0,.46-.38c.09-.25-.27-.61-.55-.55S14.66,84.79,14.57,84.85Z"/><path class="cls-4" d="M18.47,91.75a.39.39,0,0,0-.47-.44c-.2,0-.73.1-.71.38s.46.55.66.58S18.45,92.08,18.47,91.75Z"/><path class="cls-4" d="M20,94.7l-.1,0h.45A.44.44,0,0,0,20,94.7Z"/><path class="cls-4" d="M16.79,90.46c.07-.15-.07-.33-.17-.39s-.44-.06-.5.08.16.41.27.44S16.73,90.6,16.79,90.46Z"/><path class="cls-4" d="M35.25,94.74l.14-.24a1.6,1.6,0,0,0,.33-.07h0a.62.62,0,0,0-.06.3h2.17a.87.87,0,0,0-.64-1.08,1.42,1.42,0,0,0-.77,0,.58.58,0,0,0-.41-.39c-.5-.16-.7-.06-1,.47a10.6,10.6,0,0,0-1.17.28.43.43,0,0,0-.25.57,1.47,1.47,0,0,0-.8.2Z"/><path class="cls-4" d="M40.61,82.51a.56.56,0,0,0,.69.67.57.57,0,0,0,.25-.7C41.41,82.2,41.2,82.2,40.61,82.51Z"/><path class="cls-4" d="M34,79.1a.58.58,0,0,0-.67.27c-.28.45-.24.67.2,1.12a8.12,8.12,0,0,0,0,1.2.4.4,0,0,0,.72.24c.26-.35.65-.66.62-1.19l-.43-.44C34.47,79.72,34.3,79.19,34,79.1Z"/><path class="cls-4" d="M38.1,84a.65.65,0,0,0-1,.11,1,1,0,0,0,.19,1.34c.42.33.67.15.92.39s.47.17.78,0,.77-.52.48-.94-.6-.29-.72-.19-.44.06-.35-.09S38.47,84.23,38.1,84Z"/><path class="cls-4" d="M25.44,84.69c0-.12-.16-.31-.26-.32s-.39,0-.4.3.27.29.39.3S25.45,84.78,25.44,84.69Z"/><path class="cls-4" d="M28,85.47c-.17.45,0,.8.58,1s.79,0,1-.59c.13-.39,0-.73-.25-.85a.56.56,0,0,0-.23,0h0c.15-.11.06-.54.05-.82a.25.25,0,0,0-.26-.28.75.75,0,0,0-.64.72.55.55,0,0,0,.45.44A1.14,1.14,0,0,0,28,85.47Z"/><path class="cls-4" d="M39.5,80.83c0-.13.1-.32-.09-.41a.22.22,0,0,0-.32.12c-.05.12-.13.42,0,.5S39.49,80.9,39.5,80.83Z"/><path class="cls-4" d="M35.34,91.12a.31.31,0,0,0-.13-.1.81.81,0,0,0-1,.55.66.66,0,0,0,0,.64.23.23,0,0,0-.16.22c0,.12,0,.38.25.43s.3-.28.28-.34v0a.71.71,0,0,0,.15.08c.51.21.93.1,1.06-.27a.56.56,0,0,0,0-.2.67.67,0,0,0,.52,0c.31-.2,0-1-.39-1.1A.8.8,0,0,0,35.34,91.12Z"/><path class="cls-4" d="M32.53,94c.06-.25-.31-.7-.62-.77a.48.48,0,0,0-.56.45c-.07.51,0,.87.29.93A1,1,0,0,0,32.53,94Z"/><path class="cls-4" d="M41.88,85.94a.56.56,0,0,0,.71-.4.65.65,0,0,0-.42-.8.5.5,0,0,0-.64.38A.62.62,0,0,0,41.88,85.94Z"/><path class="cls-4" d="M9,72.4v1.42a.61.61,0,0,0,.26.17.84.84,0,0,0,1-.79c.07-.39-.27-.74-.83-.83A1,1,0,0,0,9,72.4Z"/><path class="cls-4" d="M24.93,89.47A1,1,0,0,0,26,89.12s0-.07,0-.1a1.28,1.28,0,0,0,.19-.54c0-.34-.15-.5-.46-.56a1.09,1.09,0,0,0-.64.12.48.48,0,0,0-.46.34A.85.85,0,0,0,24.93,89.47Z"/><path class="cls-4" d="M21.76,80.84c.16,0,.3-.15.33-.26s-.06-.45-.21-.47-.35.26-.35.37S21.6,80.82,21.76,80.84Z"/><path class="cls-4" d="M21.19,83.18c.23.18.93,0,1-.3a.89.89,0,0,0,0-.43.8.8,0,0,0,.15-.31.33.33,0,0,0-.21-.29c-.12,0-.26.18-.31.3h0a.68.68,0,0,0-.21,0C21,82.16,21,83,21.19,83.18Z"/><path class="cls-4" d="M9.66,68.62c.1,0,.45-.05.47-.2s-.26-.35-.37-.36a.35.35,0,0,0-.36.23C9.37,68.45,9.55,68.59,9.66,68.62Z"/><path class="cls-4" d="M40.12,86.38c-1.3-.21-1.63.73-1.61,1.62a1.38,1.38,0,0,0,.3.81,1.23,1.23,0,0,0,.75.42.72.72,0,0,0,.41.55,2.41,2.41,0,0,0,.46-.36.81.81,0,0,0,.63,0,1.89,1.89,0,0,0,1.27-1.89,1.54,1.54,0,0,0-.69-1.29C41.18,86,40.67,86.47,40.12,86.38Z"/><path class="cls-4" d="M15.92,85.54c0,.36.45.49.66.54s.41-.21.43-.47-.2-.6-.46-.53S15.88,85.19,15.92,85.54Z"/><path class="cls-4" d="M15.83,77.3c-.15-.2-1.12.3-1.17.57s.49.55,1,.41S16,77.5,15.83,77.3Z"/><path class="cls-4" d="M19.72,91.78a.91.91,0,0,0,.56,1.27.86.86,0,0,0,1.11-.39,1.29,1.29,0,0,0-.69-1.45A.91.91,0,0,0,19.72,91.78Z"/><path class="cls-4" d="M20.53,89.28s-.07-.16-.09-.16-.21,0-.23.11.08.12.13.19S20.5,89.33,20.53,89.28Z"/><path class="cls-4" d="M24,92.42a1,1,0,0,0-1,.49c-.09.23.21.73.51.84a.44.44,0,0,0,.51-.16,1.09,1.09,0,0,0,.69.55.6.6,0,0,0,.67-.57s0,0,0,0a1.51,1.51,0,0,0,.18.09.83.83,0,0,0,1.14-.5,1,1,0,0,0-.62-1.42,1.08,1.08,0,0,0-1.35.48.87.87,0,0,0,.08.76,1.06,1.06,0,0,0-.63.24C24.23,92.78,24.17,92.49,24,92.42Z"/><path class="cls-4" d="M16.78,80.67c.11-.09,0-.34-.05-.43a.46.46,0,0,0-.51,0c-.12.13,0,.42.13.47A.39.39,0,0,0,16.78,80.67Z"/><path class="cls-4" d="M10.77,82.41l-.2,0a.59.59,0,0,0-.32.63.86.86,0,0,0,.16.52,3.42,3.42,0,0,1,.53-.09.5.5,0,0,0-.19.38,1.26,1.26,0,0,0,1,1.18.93.93,0,0,0,.76-.86.79.79,0,0,0-.81-.93,1.26,1.26,0,0,0-.4,0s.05,0,.06-.08C11.41,82.9,10.93,82.65,10.77,82.41Z"/><path class="cls-4" d="M12.22,78.12a.83.83,0,0,0-.18-.73.72.72,0,0,0-.66-.1.75.75,0,0,0-.19,1.12A.65.65,0,0,0,12.22,78.12Z"/><path class="cls-4" d="M12.86,89.82c.56.2.94-.17,1.05-.08s.51.6.89.3a.78.78,0,0,0,.31-1,.77.77,0,0,0,.69-.54,1.28,1.28,0,0,0,0-.48,1.69,1.69,0,0,0,.32-.27A1,1,0,0,0,16,86.21a1.12,1.12,0,0,0-1.64.27c-.54.74.31,1.16-.2,1.49s-.58-.28-1.26.23S12.29,89.61,12.86,89.82Z"/><path class="cls-4" d="M13.9,83.21c0-.12-.24-.28-.39-.21a.32.32,0,0,0-.19.37.46.46,0,0,0,.42.25C13.89,83.6,13.94,83.34,13.9,83.21Z"/><path class="cls-4" d="M15.1,84.15a.44.44,0,0,0,.48.52.77.77,0,0,0,.55-.3c.08-.15-.13-.72-.41-.75A.58.58,0,0,0,15.1,84.15Z"/><path class="cls-4" d="M23.79,90.24a.24.24,0,0,0-.33.18.76.76,0,0,0,.53.8.56.56,0,0,0,.58-.73C24.5,90.33,24.07,90.3,23.79,90.24Z"/><path class="cls-4" d="M50.82,86.42c-.56-.08-1.19.3-1.22.73s.41.81.86.85a.88.88,0,0,0,.88-.81C51.39,86.74,51.21,86.47,50.82,86.42Z"/><path class="cls-4" d="M49.87,89.44a1.1,1.1,0,0,0,.67,1.61,1.23,1.23,0,0,0,1.55-.75,1.5,1.5,0,0,0-.9-1.53A1,1,0,0,0,49.87,89.44Z"/><path class="cls-4" d="M52.69,79.5a1,1,0,0,0-1.19.3c-.18.35.11.86.63,1.11a.73.73,0,0,0,.86-.32A.88.88,0,0,0,52.69,79.5Z"/><path class="cls-4" d="M43.2,93.3a1.17,1.17,0,0,0,1.44.73,1.14,1.14,0,0,0,.81-1.15c0-.46-.7-.74-1.34-.73A1.13,1.13,0,0,0,43.2,93.3Z"/><path class="cls-4" d="M48.53,90.53a1.36,1.36,0,0,0-1.55.63,1.14,1.14,0,0,0,.51,1.5A1.81,1.81,0,0,0,49.24,92,1.17,1.17,0,0,0,48.53,90.53Z"/><path class="cls-4" d="M46.56,83.93a1.15,1.15,0,0,0-1.37.65.79.79,0,0,0,.49,1A1.15,1.15,0,0,0,47,85.3,1.12,1.12,0,0,0,46.56,83.93Z"/><path class="cls-4" d="M50.38,82.71c-.42-.2-.77,0-1,.54a1,1,0,0,0,.26,1.11,1.1,1.1,0,0,0,1.28-.47A1,1,0,0,0,50.38,82.71Z"/><path class="cls-4" d="M43.45,94.37c-.38-.25-.71-.25-.87,0a.46.46,0,0,0-.08.37h1.65a1.42,1.42,0,0,0-.35-.16A1.8,1.8,0,0,1,43.45,94.37Z"/><path class="cls-4" d="M52.4,92.51A.86.86,0,0,0,54,93a1.06,1.06,0,0,0-.42-1.29C53.29,91.6,52.53,92.1,52.4,92.51Z"/><path class="cls-4" d="M9.87,79.75a.62.62,0,0,0-.19,0,1.07,1.07,0,0,0,.26-.47,2,2,0,0,0-.13-1.36.93.93,0,0,1,0-.52A.81.81,0,0,0,9,76.28a.43.43,0,0,0,.08-.23A.4.4,0,0,0,9,75.8V80h.06l.11,0c-.06.06-.11.14-.17.21v1a1.2,1.2,0,0,0,.67.26.89.89,0,0,0,1-.57A1.18,1.18,0,0,0,9.87,79.75Z"/><path class="cls-4" d="M10.24,76.12a.65.65,0,0,0,.49.75.66.66,0,0,0,.74-.51.75.75,0,0,0-.55-.81A.64.64,0,0,0,10.24,76.12Z"/><path class="cls-4" d="M54.52,86.49a1.1,1.1,0,0,0-.66-1.28,1.21,1.21,0,0,0-1.38.9.85.85,0,0,0,.59,1.11A1.09,1.09,0,0,0,54.52,86.49Z"/><path class="cls-4" d="M46.87,88.31c-.07.43.29.6.64.8.32-.23.72-.42.55-.9A.26.26,0,0,0,48,88.1a1.47,1.47,0,0,0,.84-.78.62.62,0,0,0-.44-.76A.88.88,0,0,0,47.2,87a1,1,0,0,0,.08.86A.61.61,0,0,0,46.87,88.31Z"/><path class="cls-4" d="M63,88.73a.4.4,0,0,0-.16-.4c-.1-.06-.47-.07-.51.08a.4.4,0,0,0,.23.38C62.69,88.83,63,88.88,63,88.73Z"/><path class="cls-4" d="M64.41,92.63a.87.87,0,0,0-1,.56c-.16.43-.06.73.31.88A1.07,1.07,0,0,0,65,93.66,1,1,0,0,0,64.41,92.63Z"/><path class="cls-4" d="M61.06,86.85c.09-.23.08-.55-.21-.6s-.56.07-.62.21.07.46.1.62C60.77,87.26,61,87.08,61.06,86.85Z"/><path class="cls-4" d="M65.45,89a.34.34,0,0,0-.17-.43.37.37,0,1,0-.24.69A.38.38,0,0,0,65.45,89Z"/><path class="cls-4" d="M67.28,87.34a.49.49,0,0,0-.4.11c0,.08-.13.36.09.48s.35-.17.42-.28S67.33,87.35,67.28,87.34Z"/><path class="cls-4" d="M44.46,87a.56.56,0,0,0,.28-.77c-.09-.18-.35-.41-.53-.4-.45,0-.61.38-.66.82C43.79,86.87,44.07,87.13,44.46,87Z"/><path class="cls-4" d="M55.51,90.77c-.15.35.31.61.49.77s.52,0,.65-.29.06-.58-.27-.64S55.65,90.41,55.51,90.77Z"/><path class="cls-4" d="M42.76,78.2c-.16.49.41.78.69.67a.59.59,0,0,0,.25-.7A.54.54,0,0,0,42.76,78.2Z"/><path class="cls-4" d="M46.12,79.72a.82.82,0,0,0-1,.17,3.63,3.63,0,0,0-.52.64c-.13,0-.27,0-.41,0a1.28,1.28,0,0,0-1.13.82,1.47,1.47,0,0,0,.43,1.36.71.71,0,0,0,.52.18,1.14,1.14,0,0,0,1.13-1.17c0-.13,0-.27,0-.41.27,0,.52,0,.76,0,.47,0,.65-.19.7-.64A1,1,0,0,0,46.12,79.72Z"/><path class="cls-4" d="M59.51,87c-.58-.35-.88-.28-1.2.32s-.5.9-.75,1.34c-.86-.4-1-.35-1.13.44.32.37.66.33,1,0,.93.7,1.53.38,1.69-.85a2.18,2.18,0,0,1,.23-.09c.34-.05.44-.29.47-.59A.62.62,0,0,0,59.51,87Z"/><path class="cls-4" d="M58,93.33a.94.94,0,0,0,.53,1.28,1.26,1.26,0,0,0,1.56-.75,1.28,1.28,0,0,0-.7-1.37C58.87,92.28,58.29,92.63,58,93.33Z"/><path class="cls-4" d="M56.69,82.57a.79.79,0,0,0-.59.17c-.31.38-.11.72.26,1.07.37-.13.78-.16.8-.64A.55.55,0,0,0,56.69,82.57Z"/><path class="cls-4" d="M20.35,84.4c-.07.28.32.42.45.43s.41,0,.44-.26a.4.4,0,0,0-.31-.41C20.8,84.13,20.43,84.13,20.35,84.4Z"/><path class="cls-4" d="M29.43,82a.6.6,0,0,0-.46.33.4.4,0,0,0,.36.53c.17,0,.63-.06.66-.44S29.58,82,29.43,82Z"/><path class="cls-4" d="M27.35,88.37c-.12.07-.17.42-.11.59a.77.77,0,0,0,.35.34.67.67,0,0,0,.5.52c.3,0,.81-.31.82-.55a.89.89,0,0,0-.48-.73c.05-.12.1-.24.14-.35s0-.43-.3-.52c-.08,0-.23.06-.26.13A1.31,1.31,0,0,1,27.35,88.37Z"/><path class="cls-4" d="M29.93,86.4a.47.47,0,0,0,.35.62.16.16,0,0,0,.07,0,1.17,1.17,0,0,0,.57.36.88.88,0,0,0,.95-.45,1.47,1.47,0,0,0-.51-1.37,1,1,0,0,0-.93.45A.45.45,0,0,0,29.93,86.4Z"/><path class="cls-4" d="M11.58,70a.7.7,0,0,0-.74.6.77.77,0,0,0,.67.71.65.65,0,0,0,.68-.57A.69.69,0,0,0,11.58,70Z"/><path class="cls-4" d="M26.75,85.67a.89.89,0,0,0-.95.48.63.63,0,0,0,.43.77.71.71,0,0,0,.85-.31C27.19,86.32,27,85.74,26.75,85.67Z"/><path class="cls-4" d="M26.45,90.53c-.1-.1-.45-.06-.6,0a.81.81,0,0,0-.25.56c0,.13.23.31.38.36a5.22,5.22,0,0,0,1,.17c.28,0,.4-.12.42-.42-.05-.07-.11-.21-.19-.22A1.39,1.39,0,0,1,26.45,90.53Z"/><path class="cls-4" d="M32.44,83a.74.74,0,0,0-.81.42c-.19.61-.07,1.1.31,1.22a.86.86,0,1,0,.5-1.64Z"/><path class="cls-4" d="M34.19,85c-.32.14-.74.16-.85.44a.61.61,0,0,0,0,.55c.07.16.06.35.28.53a1.34,1.34,0,0,0,1.12.25,1,1,0,0,0,.68-.77.82.82,0,0,0-.32-.78A1,1,0,0,0,34.19,85Z"/><path class="cls-4" d="M30.39,84.19a.32.32,0,0,0,.3.27.46.46,0,0,0,.36-.34c0-.15-.22-.26-.37-.26S30.36,84,30.39,84.19Z"/><path class="cls-4" d="M32.07,87.49a1.11,1.11,0,0,0,.3,1.45A1,1,0,0,0,34,88.75a1.21,1.21,0,0,0-.18-1.69A1.45,1.45,0,0,0,32.07,87.49Z"/><path class="cls-4" d="M26.25,83.52a.48.48,0,0,0-.65.32.44.44,0,0,0,.24.61.47.47,0,0,0,.69-.18A.55.55,0,0,0,26.25,83.52Z"/><path class="cls-4" d="M31.32,81.07c-.13,0-.31,0-.38.18a.23.23,0,0,0,.16.31c.12,0,.37.06.48-.14S31.39,81.07,31.32,81.07Z"/><path class="cls-4" d="M30.21,79.37c-.18.37,0,.92.31,1s1-.73.85-1.08S30.39,79,30.21,79.37Z"/><path class="cls-4" d="M15.06,66a1.77,1.77,0,0,0-1.47,1.15,1.2,1.2,0,0,0,1.1,1.23,1.34,1.34,0,0,0,1.31-1A1.21,1.21,0,0,0,15.06,66Z"/><path class="cls-4" d="M13.32,76.37a.46.46,0,0,0,.42.25c.15,0,.2-.28.16-.41s-.24-.28-.39-.21A.32.32,0,0,0,13.32,76.37Z"/><path class="cls-4" d="M12.21,72.87a.59.59,0,0,0-.74.37.76.76,0,0,0,.08.59c.2.31.49.28,1.1,0C12.62,73.42,12.71,73,12.21,72.87Z"/><path class="cls-4" d="M12.64,81.14c0,.29.09.52.36.58a3.55,3.55,0,0,0,2.09-.06,1.1,1.1,0,0,0,.27-.2.79.79,0,0,0-.46-1.37h-.08a.74.74,0,0,0,.13-.31.58.58,0,0,0-.57-.66.55.55,0,0,0-.65.48,1.09,1.09,0,0,0,.08.43h-.23A1.24,1.24,0,0,0,12.64,81.14Z"/><path class="cls-4" d="M16.62,72.64a1.07,1.07,0,0,0-1.1.92,1.15,1.15,0,0,0,1,1.33.91.91,0,0,0,1.09-.75C17.72,73.48,17.16,72.66,16.62,72.64Z"/><path class="cls-4" d="M17.79,79.31c.1.26,1,.39,1.12,0a.61.61,0,0,0-.26-.77C18.3,78.44,17.69,79.05,17.79,79.31Z"/><path class="cls-4" d="M19.77,85.45a.91.91,0,0,0-1.09.85c0,.5.29,1,.66,1a1.28,1.28,0,0,0,1.23-1C20.61,85.91,20.18,85.48,19.77,85.45Z"/><path class="cls-4" d="M35.67,83.32a.64.64,0,0,0-.78.3.54.54,0,0,0,.26.76.64.64,0,0,0,.78-.3A.53.53,0,0,0,35.67,83.32Z"/><path class="cls-4" d="M18.94,70.38c-.18.06-.18.5-.12.61a.49.49,0,0,0,.47.11.5.5,0,0,0,.16-.46A.56.56,0,0,0,18.94,70.38Z"/><path class="cls-4" d="M17.32,82.74c-.3,0-.67.35-.76.92.09.09.22.32.4.37a.5.5,0,0,0,.21,0h0c.12.07.29,0,.42-.15a.61.61,0,0,0,.28-.36A.77.77,0,0,0,17.32,82.74Z"/><path class="cls-4" d="M22.32,86.74a.92.92,0,0,0-.51,1,1,1,0,0,0,1,.77.89.89,0,0,0,.57-.37,1.19,1.19,0,0,0-.34-1.65A4.4,4.4,0,0,0,22.32,86.74Z"/><rect class="cls-5" x="37.09" y="40.78" width="80.79" height="29.67"/><polygon class="cls-6" points="50.39 50.25 43.01 62.1 57.77 62.1 50.39 50.25"/><path class="cls-7" d="M96.37,92.4c3.46,1.13,5.9-3.39,7.54-5.49,2.34-3,4.4-8.33,2.66-11.94a1.47,1.47,0,0,0-2.51,0c-1.56,3.42-.51,7.34-2.71,10.67-1.34,2-4.6,2.86-5.64,5.13a1.13,1.13,0,0,0,.66,1.63Z"/><path class="cls-7" d="M97,103.58c6.2-.35,11.22-7.18,14.46-11.85,2.82-4.07,7-11,5-16.13a1.47,1.47,0,0,0-2.8,0c-1.48,4.87-2,9.46-4.66,14a24.16,24.16,0,0,1-6.33,7.29c-2.11,1.64-4.58,3-6.5,4.82a1.12,1.12,0,0,0,.78,1.89Z"/><path class="cls-7" d="M42.37,114.4c1.64.59,3.81-.48,5.14-1.46.82-.6,1.33-1.36,2.14-1.92,1-.66,2-1.21,2.84-2,2.34-1.93,6.65-5.82,4.64-9.21a1.47,1.47,0,0,0-2.51,0,23.29,23.29,0,0,0-1.69,3.39,17.17,17.17,0,0,1-3.51,4.36,14.63,14.63,0,0,1-4.2,2.59c-1.27.65-2.79,1.29-3.51,2.57a1.12,1.12,0,0,0,.66,1.63Z"/><path class="cls-7" d="M54.09,117.29c1.7.52,3.41-.58,4.77-1.54,1.81-1.28,3.32-3.24,5-4.78A59.63,59.63,0,0,0,68.43,106c1.17-1.39,2.34-2.82,2.38-4.71a1.47,1.47,0,0,0-2.18-1.25,8.51,8.51,0,0,0-3,3.31c-1.25,1.88-2.53,3.64-4,5.39a14.65,14.65,0,0,1-2.12,2.56c-.72.54-1.68.85-2.44,1.35-1.24.82-2.88,1.66-3.64,3a1.12,1.12,0,0,0,.66,1.63Z"/><path class="cls-6" d="M91.47,53.11a2.11,2.11,0,0,0-2.58,1.49L86,64.43l-1.8-.52L88,51a2.06,2.06,0,1,0-4-1.16L80.26,62.75l-1.8-.52L83,46.86a2.06,2.06,0,1,0-4-1.16L74.51,61.07l-1.8-.52L76.5,47.61a2.06,2.06,0,1,0-4-1.16L68.47,60.39,67.26,64.5l-.15.52-1.5-5a2,2,0,0,0-2.56-1.41,2.23,2.23,0,0,0-1.42,2.7l2.6,11.75c.82,3.26,5.47,7.33,9.23,8.43,6,1.76,11.92-1.28,13.51-6.71l3-9.23,2.88-9.83A2.11,2.11,0,0,0,91.47,53.11Z"/><rect class="cls-6" x="25.21" y="26.6" width="12.96" height="12.96" rx="6.48"/><rect class="cls-6" x="17.44" y="75.03" width="10.87" height="10.87"/></svg>