<svg width="16" height="16" viewBox="0 0 16 16" fill="none" xmlns="http://www.w3.org/2000/svg">
<circle cx="8" cy="8" r="8" fill="#0077CC"/>
<path d="M8 14C4.68629 14 2 11.3137 2 8C2 4.68629 4.68629 2 8 2C11.3137 2 14 4.68629 14 8C14 11.3137 11.3137 14 8 14ZM8 13C10.7614 13 13 10.7614 13 8C13 5.23858 10.7614 3 8 3C5.23858 3 3 5.23858 3 8C3 10.7614 5.23858 13 8 13ZM7.81445 11.9348C7.33984 11.9348 7 11.5949 7 11.1203C7 10.6398 7.33984 10.3 7.81445 10.3C8.28906 10.3 8.62305 10.6398 8.62305 11.1203C8.62305 11.5949 8.28906 11.9348 7.81445 11.9348ZM5.90013 6.31719C5.95863 5.16847 6.75455 4.4 8.04771 4.4C9.26601 4.4 10.1391 5.15879 10.1391 6.20016C10.1391 6.93632 9.77832 7.50355 9.10833 7.90659C8.54865 8.23711 8.39193 8.46706 8.39193 8.92888V9.23416L8.29193 9.33416H7.47003L7.37003 9.23416L7.37003 8.80283C7.36514 8.1569 7.67181 7.69921 8.35714 7.28902C8.88377 6.96669 9.0655 6.6985 9.0655 6.24243C9.0655 5.70645 8.64897 5.33267 8.01483 5.33267C7.3625 5.33267 6.95082 5.70597 6.90282 6.32994L6.80312 6.42227H6L5.90013 6.31719Z" fill="white"/>
</svg>
