<svg width="236" height="253" viewBox="0 0 236 253" fill="none" xmlns="http://www.w3.org/2000/svg">
<g clip-path="url(#clip0)">
<path d="M38.7315 160.911C39.514 161.434 39.2532 161.958 39.2532 162.613C39.3836 163.137 39.7748 163.661 40.0356 164.185C40.2964 164.447 40.5573 164.709 40.9485 164.84C40.9485 164.84 40.9485 164.84 41.0789 164.84C40.2964 162.875 39.514 160.911 38.7315 158.946C38.6011 158.946 38.6011 159.077 38.6011 159.077C38.2099 159.601 38.4707 160.78 38.7315 160.911Z" fill="#1BA9F5"/>
<path d="M31.0374 144.8C31.6894 144.407 32.0806 143.097 31.6894 142.442C31.2982 141.918 29.8637 141.656 29.2116 142.049C28.5596 142.442 28.4292 143.097 28.8204 143.752C29.4725 144.931 30.2549 145.193 31.0374 144.8Z" fill="#1BA9F5"/>
<path d="M29.9942 147.289C29.4725 146.896 28.8205 146.11 27.9076 145.586C27.386 145.193 26.6035 145.324 26.2123 145.979C25.8211 146.503 25.8211 147.158 26.4731 147.681C26.7339 147.943 26.9948 148.205 27.1252 148.598C27.6468 149.515 28.2989 149.908 29.3421 149.646C30.3854 149.253 30.6462 148.598 29.9942 147.289Z" fill="#1BA9F5"/>
<path d="M41.8611 182.391C42.1219 182.13 42.9044 181.344 42.6436 180.951C42.3828 180.558 41.3395 180.82 40.9482 180.951C40.6874 181.082 40.6874 181.737 40.8178 182.13C40.9482 182.522 41.4699 182.784 41.8611 182.391Z" fill="#1BA9F5"/>
<path d="M43.8173 172.437C44.0782 172.306 44.2086 172.044 44.339 171.782C44.0782 171.389 43.9478 170.996 43.6869 170.603C43.0349 170.472 42.6437 170.865 42.2524 171.52C42.6437 172.044 43.0349 172.699 43.8173 172.437Z" fill="#1BA9F5"/>
<path d="M51.6422 183.963C51.6422 184.094 51.6422 184.094 51.6422 183.963C51.5118 183.701 51.251 183.439 51.1206 183.177C51.251 183.57 51.5118 183.963 51.6422 183.963Z" fill="#1BA9F5"/>
<path d="M119.455 14.3429C119.846 14.212 120.107 14.212 120.498 14.212C120.498 14.081 120.498 13.95 120.498 13.95C120.498 13.688 119.977 13.1641 119.716 13.2951C119.455 13.4261 119.325 14.081 119.455 14.3429C119.455 14.212 119.325 14.212 119.455 14.3429Z" fill="#1BA9F5"/>
<path d="M30.255 160.911C30.3854 160.256 29.9942 159.732 29.3422 159.47C28.8205 159.208 28.4293 159.339 28.0381 159.732C27.5164 160.518 27.9077 161.173 28.4293 161.958C29.2118 161.827 30.1246 161.958 30.255 160.911Z" fill="#1BA9F5"/>
<path d="M41.2092 168.638C41.7308 168.507 42.1221 167.721 42.1221 167.066C41.9916 166.674 41.7308 166.15 41.6004 165.757C41.2092 165.495 40.6875 165.233 40.2963 165.495C39.1226 166.019 38.4706 166.936 38.7314 167.721C39.1226 168.507 40.2963 169.031 41.2092 168.638Z" fill="#1BA9F5"/>
<path d="M27.2557 91.0978C26.082 91.6217 25.4299 93.1935 25.9516 94.3723C26.3428 95.4202 28.0381 95.9441 29.0814 95.5511C30.2551 95.1582 30.6463 93.7174 30.1247 92.2766C29.603 91.0978 28.4293 90.7049 27.2557 91.0978Z" fill="#1BA9F5"/>
<path d="M29.7332 60.9722C28.69 61.4961 28.2987 62.413 28.8204 63.3299C29.2116 64.2467 30.2549 64.7707 30.7765 64.3777C31.6894 63.9848 32.211 62.413 31.8198 61.4961C31.559 60.8412 30.5157 60.5793 29.7332 60.9722Z" fill="#1BA9F5"/>
<path d="M31.1677 76.0349C31.4285 76.9518 31.6894 77.7377 32.6022 77.7377C32.9935 77.7377 33.5151 77.3447 33.5151 76.9518C33.5151 76.4279 33.3847 75.773 33.1239 75.511C32.3414 74.8561 31.8198 75.511 31.1677 76.0349Z" fill="#1BA9F5"/>
<path d="M26.2123 81.2742C25.9515 81.5362 25.5603 81.9291 25.5603 82.3221C25.5603 82.715 26.734 83.2389 27.2556 82.977C27.7773 82.715 27.6469 82.3221 27.5164 81.7981C27.386 81.1432 26.734 80.8813 26.2123 81.2742Z" fill="#1BA9F5"/>
<path d="M26.7341 164.971C26.9949 164.709 27.1253 164.054 26.9949 163.792C26.8645 163.53 25.9516 163.006 25.6908 163.268C25.43 163.399 25.2996 164.578 25.5604 164.709C25.8212 164.84 26.4732 165.233 26.7341 164.971Z" fill="#1BA9F5"/>
<path d="M25.5601 87.4302C25.9514 87.8231 26.3426 87.8231 26.8642 87.6921C27.5163 87.5611 27.7771 86.9062 27.5163 86.2513C27.2555 85.5964 26.7338 85.4654 26.2122 85.5964C25.5601 85.7274 25.1689 87.0372 25.5601 87.4302Z" fill="#1BA9F5"/>
<path d="M29.8636 155.147C30.1244 153.837 29.6028 152.921 28.8203 152.528C28.0379 152.004 26.7338 152.921 26.0817 153.968C25.5601 154.754 26.0817 156.457 26.9946 156.85C27.7771 157.112 29.4724 156.457 29.8636 155.147Z" fill="#1BA9F5"/>
<path d="M24.2559 121.223C24.6471 122.14 25.6904 122.402 26.7337 121.878C27.5161 121.485 27.6465 120.568 27.1249 119.521C26.7337 118.735 25.9512 118.342 25.2992 118.604C24.6471 118.997 23.9951 120.568 24.2559 121.223Z" fill="#1BA9F5"/>
<path d="M67.2912 24.6903C67.4216 24.6903 67.6824 24.2974 67.552 24.0354C67.4216 23.7734 67.0303 23.7734 66.7695 23.7734C66.6391 23.7734 66.2479 24.1664 66.3783 24.5593C66.5087 24.9523 67.1607 24.8213 67.2912 24.6903Z" fill="#1BA9F5"/>
<path d="M50.8595 42.8968C51.3812 42.6348 51.9028 41.8489 51.642 41.194C51.3812 40.5391 50.5987 40.2771 49.9467 40.5391C49.1642 40.8011 48.9034 41.456 49.1642 42.1109C49.5554 42.8968 50.3379 43.1587 50.8595 42.8968Z" fill="#1BA9F5"/>
<path d="M48.1212 51.9343C48.6428 51.9343 49.4253 50.4936 48.9036 50.1006C48.5124 49.7077 47.73 49.7077 47.3387 50.1006C46.8171 50.4936 47.4691 51.9343 48.1212 51.9343Z" fill="#1BA9F5"/>
<path d="M51.5118 51.4105C51.3813 52.1964 51.6422 52.8513 52.4246 52.9823C52.6854 52.9823 53.2071 52.7203 53.3375 52.4584C53.4679 52.0654 53.3375 51.4105 53.0767 51.1486C52.555 50.4937 52.0334 51.0176 51.5118 51.4105Z" fill="#1BA9F5"/>
<path d="M55.5547 45.6473C56.0763 45.3854 56.3371 44.3375 56.0763 43.6826C55.6851 43.1587 54.9026 42.8967 54.381 43.1587C53.7289 43.4206 53.5985 44.2065 53.8593 44.8614C54.1202 45.6473 54.9026 46.0403 55.5547 45.6473Z" fill="#1BA9F5"/>
<path d="M52.6853 30.9776C52.9461 30.8466 53.0765 30.4537 53.0765 30.1917C53.0765 30.0608 52.5548 29.5368 52.294 29.6678C52.0332 29.7988 52.0332 30.4537 52.0332 30.7157C52.1636 30.8466 52.4244 31.1086 52.6853 30.9776Z" fill="#1BA9F5"/>
<path d="M45.9041 64.5086C46.165 65.2945 46.9474 65.6875 47.5995 65.5565C47.9907 64.9016 48.3819 64.3777 48.7731 63.7227C48.5123 63.0678 47.2082 62.5439 46.5562 62.9369C45.9041 63.3298 45.6433 63.8537 45.9041 64.5086Z" fill="#1BA9F5"/>
<path d="M46.1645 33.5972C46.8166 33.3352 46.5558 32.6803 46.4254 32.4184C46.1645 32.0254 45.2517 31.2395 44.73 31.3705C44.2084 31.5015 44.4692 32.8113 44.5996 32.9423C44.9909 33.3352 45.5125 33.8591 46.1645 33.5972Z" fill="#1BA9F5"/>
<path d="M44.4695 54.4231C43.687 54.8161 43.1654 56.2569 43.5566 57.0428C44.0783 58.0906 44.9911 58.4835 46.0344 57.9596C46.9473 57.4357 47.3385 56.5188 46.8169 55.602C46.4256 54.6851 45.2519 54.1612 44.4695 54.4231Z" fill="#1BA9F5"/>
<path d="M83.2014 26.2622C84.2447 25.7383 84.8967 24.1665 84.3751 23.1187C83.8534 21.9398 82.2885 21.1539 81.3757 21.6779C80.4628 22.2018 79.5499 24.1665 79.9412 25.2143C80.4628 26.2622 82.0277 26.7861 83.2014 26.2622Z" fill="#1BA9F5"/>
<path d="M74.7244 31.8944C74.9852 31.8944 75.5068 31.3705 75.3764 31.1085C75.246 30.8466 74.594 30.7156 74.3331 30.8466C74.0723 30.9775 73.8115 31.3705 73.9419 31.6324C74.0723 31.8944 74.4635 31.8944 74.7244 31.8944Z" fill="#1BA9F5"/>
<path d="M71.0733 35.169C71.5949 34.9071 71.4645 34.5141 71.3341 33.9902C71.0733 33.3353 70.4212 33.2043 70.03 33.5973C69.7692 33.8592 69.5083 34.3831 69.3779 34.6451C69.7692 35.3 70.5516 35.431 71.0733 35.169Z" fill="#1BA9F5"/>
<path d="M32.7327 89.657C32.0807 90.0499 31.6894 90.5738 32.0807 91.3597C32.2111 91.6217 32.7327 91.8837 32.9935 91.7527C33.3847 91.6217 33.776 91.2288 33.9064 90.9668C34.0368 90.0499 33.3847 89.788 32.7327 89.657Z" fill="#1BA9F5"/>
<path d="M105.892 18.0105C105.632 18.0105 105.371 18.0105 105.11 18.0105C104.849 18.1415 104.719 18.2725 104.588 18.4034C105.11 18.2725 105.501 18.1415 105.892 18.0105Z" fill="#1BA9F5"/>
<path d="M62.727 30.3227C63.7702 29.7987 64.2919 27.4411 63.379 26.2623C62.727 25.4764 61.5533 26.2623 61.2925 26.9172C61.0316 27.703 61.0316 27.4411 60.2492 27.5721C59.4667 27.703 58.5539 28.4889 59.3363 29.6678C60.1188 30.8466 61.6837 30.8466 62.727 30.3227Z" fill="#1BA9F5"/>
<path d="M55.6849 39.4912C56.0761 39.2292 56.8586 38.4433 56.5977 37.9194C56.3369 37.3955 55.4241 37.5265 55.0328 37.6574C54.5112 37.7884 54.12 38.0504 54.2504 38.7053C54.5112 39.3602 55.2936 39.8841 55.6849 39.4912Z" fill="#1BA9F5"/>
<path d="M62.5964 35.2999C62.4659 34.514 61.8139 34.1211 61.1619 34.3831C60.3794 34.645 60.1186 35.2999 60.249 36.0858C60.3794 36.6097 60.3794 37.0027 60.249 37.5266C59.9882 38.3125 60.1186 39.0984 60.7706 39.6223C61.2923 40.0152 62.8572 39.7533 63.3788 39.0984C63.77 38.5745 64.2917 37.9195 63.77 37.1337C63.2484 36.4788 62.9876 35.8239 62.5964 35.2999Z" fill="#1BA9F5"/>
<path d="M62.2051 44.3376C61.5531 45.1235 61.9443 46.1714 62.2051 46.4333C61.8139 46.6953 61.4226 47.0882 61.2922 47.4812C62.3355 46.3024 63.5092 45.1235 64.5525 43.9447C63.77 43.6827 62.5963 43.8137 62.2051 44.3376Z" fill="#1BA9F5"/>
<path d="M44.7305 41.587C45.7738 41.063 46.0346 40.1462 45.513 39.2293C44.9913 38.1814 44.0785 37.7885 43.4264 38.1814C42.5135 38.7054 41.9919 40.1462 42.3831 41.063C42.644 41.7179 43.948 41.9799 44.7305 41.587Z" fill="#1BA9F5"/>
<path d="M24.2563 138.12C24.2563 137.596 24.1259 136.941 23.7347 136.679C22.9522 136.024 22.4306 136.81 21.7786 137.334C22.0394 138.251 22.3002 139.037 23.3435 138.906C23.6043 138.775 24.1259 138.382 24.2563 138.12Z" fill="#1BA9F5"/>
<path d="M24.3863 152.79C24.7775 152.659 25.1688 152.266 25.1688 152.004C25.2992 151.087 24.5167 150.956 23.8647 150.825C23.2126 151.349 22.8214 151.873 23.343 152.528C23.6039 152.659 24.1255 152.921 24.3863 152.79Z" fill="#1BA9F5"/>
<path d="M22.8217 96.337C23.0826 96.206 23.213 95.8131 23.213 95.5511C23.213 95.4201 22.9522 94.8962 22.4305 95.0272C21.9089 95.1582 22.1697 95.8131 22.1697 96.075C22.3001 96.206 22.8217 96.468 22.8217 96.337Z" fill="#1BA9F5"/>
<path d="M20.9959 100.135C21.2567 100.004 21.5175 99.4805 21.5175 99.2186C21.5175 98.8256 21.1263 98.3017 20.8655 98.3017C20.083 98.0397 19.5614 98.9566 19.431 99.3496C19.3006 99.7425 20.2134 100.528 20.9959 100.135Z" fill="#1BA9F5"/>
<path d="M21.3872 149.515C21.7785 149.515 22.5609 149.122 22.6913 148.729C22.9521 148.205 22.5609 147.944 22.4305 147.813C22.0393 147.682 21.7785 147.944 21.3872 148.075C21.1264 148.205 20.7352 148.336 20.6048 148.729C20.344 149.253 20.8656 149.646 21.3872 149.515Z" fill="#1BA9F5"/>
<path d="M26.8641 138.12C25.9513 138.644 26.0817 139.43 26.2121 140.216C27.5162 140.87 28.1682 140.87 28.6899 140.085C29.0811 139.561 29.0811 139.037 28.6899 138.513C28.1682 137.989 27.3858 137.727 26.8641 138.12Z" fill="#1BA9F5"/>
<path d="M26.3428 128.034C25.9516 127.379 24.5171 126.855 23.7347 127.248C23.0826 127.51 22.8218 128.951 23.0826 129.606C23.3434 130.261 24.3867 130.654 24.9083 130.392C26.082 129.868 26.7341 128.82 26.3428 128.034Z" fill="#1BA9F5"/>
<path d="M32.9933 137.334C33.1237 137.727 33.3845 137.858 33.5149 138.12C33.2541 136.548 33.1237 134.976 32.8629 133.536C32.7325 133.536 32.7325 133.667 32.6021 133.798C31.95 134.583 32.3412 135.238 32.8629 136.024H32.9933C32.7325 136.155 32.7325 136.679 32.9933 137.334Z" fill="#1BA9F5"/>
<path d="M29.8636 134.19C29.4723 133.666 28.6899 133.404 28.1682 133.928C27.6466 134.321 27.125 134.714 27.3858 135.238C27.9074 136.155 28.6899 136.548 29.2115 136.155C29.994 135.762 30.2548 134.845 29.8636 134.19Z" fill="#1BA9F5"/>
<path d="M32.2113 161.827C31.168 162.351 30.9072 162.875 31.2984 163.661C31.8201 164.578 32.7329 165.102 33.5154 164.578C34.037 164.316 34.4282 162.744 34.1674 162.089C33.7762 161.434 33.1241 161.304 32.2113 161.827Z" fill="#1BA9F5"/>
<path d="M16.6926 148.86C17.0839 149.122 17.4751 149.122 17.9967 149.122C18.6488 148.991 18.9096 148.205 18.6488 147.681C18.3879 147.157 17.8663 146.895 17.2143 147.157C16.6926 147.288 16.3014 148.598 16.6926 148.86Z" fill="#1BA9F5"/>
<path d="M18.3877 144.276C18.9094 144.014 18.779 143.49 18.5182 143.097C18.2573 142.573 17.6053 142.311 17.2141 142.704C16.9532 142.966 16.562 143.359 16.562 143.752C16.562 144.145 17.7357 144.669 18.3877 144.276Z" fill="#1BA9F5"/>
<path d="M35.3409 155.54C35.8626 155.409 36.7754 155.017 37.1667 154.362C36.9058 153.576 36.7754 152.79 36.5146 152.135C35.993 151.873 35.3409 151.742 34.8193 151.873C35.0801 151.218 35.0801 150.432 34.6889 149.646C34.1673 148.729 32.6023 148.336 31.5591 148.86C30.6462 149.384 30.255 150.694 30.7766 151.48C31.1678 152.266 32.6023 152.79 33.6456 152.659C33.3848 152.921 33.2544 153.314 33.3848 153.576C33.5152 154.362 31.8199 154.1 31.8199 155.147C31.9503 156.064 30.7766 156.719 31.0374 157.898C31.2982 159.077 32.3415 160.125 33.2544 159.601C34.1673 159.077 34.5585 158.16 34.9497 157.112C35.3409 156.457 34.4281 155.802 35.3409 155.54Z" fill="#1BA9F5"/>
<path d="M18.9095 119.39C19.5616 119.128 19.8224 118.342 19.5616 117.687C19.3008 117.032 18.7791 116.77 18.1271 117.032C17.3446 117.294 17.0838 117.949 17.3446 118.604C17.6055 119.259 18.2575 119.521 18.9095 119.39Z" fill="#1BA9F5"/>
<path d="M19.9523 125.677C19.9523 125.808 19.9523 125.808 19.9523 125.939C20.0827 126.331 20.7348 126.2 20.9956 126.07C21.126 126.07 21.3868 125.677 21.2564 125.415C21.9085 124.76 22.1693 123.581 21.7781 122.664C21.5172 122.009 20.474 121.878 19.6915 122.271C18.6482 122.795 18.3874 123.712 18.7786 124.629C19.0395 125.153 19.5611 125.546 19.9523 125.677Z" fill="#1BA9F5"/>
<path d="M16.0402 126.725C15.5186 126.987 15.2578 127.641 15.5186 128.296C15.9098 129.082 16.6923 129.344 17.3443 128.951C17.8659 128.689 18.2572 127.772 17.8659 127.249C17.6051 126.725 16.5619 126.463 16.0402 126.725Z" fill="#1BA9F5"/>
<path d="M18.1268 105.898C17.4748 106.291 17.214 106.946 17.6052 107.732C17.866 108.256 18.7789 108.518 19.3005 108.256C20.083 107.863 20.3438 107.077 19.9526 106.422C19.6918 105.767 18.9093 105.637 18.1268 105.898Z" fill="#1BA9F5"/>
<path d="M38.3402 81.1433C37.6882 81.4052 37.5578 82.1911 37.8186 82.846C38.0794 83.5009 38.4706 83.8939 38.8618 84.1558C39.2531 83.239 39.6443 82.1911 40.0355 81.2742C39.5139 80.8813 38.8618 80.8813 38.3402 81.1433Z" fill="#1BA9F5"/>
<path d="M42.2526 76.166C42.383 75.7731 42.5134 75.3801 42.7742 75.1182C42.2526 75.3801 42.1222 75.6421 42.2526 76.166Z" fill="#1BA9F5"/>
<path d="M28.4294 111.269C28.5598 111.138 28.6902 111.138 28.8206 111.007C30.2551 111.138 29.9943 112.317 31.2984 112.71C31.5592 112.841 31.82 112.71 31.9504 112.71C32.2112 112.579 32.472 112.579 32.7329 112.448C32.8633 110.876 32.9937 109.304 33.2545 107.732C32.8633 107.601 32.472 107.601 32.0808 107.732C31.6896 107.863 31.4288 108.256 31.4288 108.649C31.2984 108.518 31.1679 108.387 30.9071 108.256C30.1247 107.732 28.6902 108.125 28.0381 108.78C27.9077 108.911 27.9077 109.042 27.7773 109.173C27.6469 109.042 27.3861 109.042 27.2557 109.042C26.734 109.173 26.9948 110.483 27.1253 110.876C27.3861 111.4 27.9077 111.662 28.4294 111.269Z" fill="#1BA9F5"/>
<path d="M41.34 66.3424C40.4271 66.7353 39.9055 68.0451 40.2967 68.831C40.6879 69.7479 41.992 70.4028 42.7745 70.0099C43.5569 69.6169 44.209 67.9142 43.9482 67.1283C43.4265 66.3424 42.2528 65.9494 41.34 66.3424Z" fill="#1BA9F5"/>
<path d="M35.08 145.848C34.8192 144.669 34.5584 143.621 34.428 142.442C34.2976 142.442 34.2976 142.442 34.1672 142.442C33.3847 142.835 32.7327 143.752 32.9935 144.407C32.9935 145.062 34.1672 145.848 35.08 145.848Z" fill="#1BA9F5"/>
<path d="M37.6885 73.0223C37.1669 73.2843 36.6452 73.6772 36.906 74.3321C37.4277 75.249 38.0797 75.6419 38.7318 75.38C39.5142 74.987 39.7751 74.2011 39.3838 73.4152C38.9926 72.7603 38.3405 72.6294 37.6885 73.0223Z" fill="#1BA9F5"/>
<path d="M35.3408 86.6443C35.6017 86.9062 35.8625 87.1682 35.9929 87.5611C36.3841 88.216 36.7753 88.609 37.297 88.7399C37.5578 87.8231 37.949 86.9062 38.2098 85.9893C37.8186 85.5964 37.297 85.0725 36.7753 84.6795C36.2537 84.2866 35.6017 84.2866 35.08 84.9415C34.9496 85.4654 34.8192 86.1203 35.3408 86.6443Z" fill="#1BA9F5"/>
<path d="M32.7329 130.785C32.6025 129.475 32.4721 128.165 32.4721 126.855C32.2113 126.855 31.82 126.855 31.5592 126.986C30.6464 127.379 30.1247 128.689 30.5159 129.475C30.9072 130.392 31.9504 130.916 32.7329 130.785Z" fill="#1BA9F5"/>
<path d="M36.1234 77.0829C35.2105 77.6068 35.3409 78.3927 35.3409 79.1786C36.645 79.8335 37.2971 79.8335 37.8187 79.1786C38.2099 78.6546 38.2099 78.1307 37.8187 77.6068C37.5579 77.2139 36.7754 76.8209 36.1234 77.0829Z" fill="#1BA9F5"/>
<path d="M33.1239 92.0146C32.7326 92.1456 32.8631 93.4554 33.1239 93.5864C33.5151 93.8484 33.9063 94.2413 34.428 94.2413C34.5584 94.8962 34.9496 95.5511 35.3408 95.8131C35.3408 95.8131 35.3408 95.8131 35.4712 95.8131C35.8625 94.3723 36.2537 92.9315 36.6449 91.4907C35.9929 91.6217 35.2104 92.1456 34.6888 92.8005C34.2976 92.4076 33.5151 91.8837 33.1239 92.0146Z" fill="#1BA9F5"/>
<path d="M30.2548 122.271C29.8636 121.616 29.3419 121.485 28.6899 121.878C28.1682 122.271 27.9074 123.057 28.1682 123.581C28.4291 124.105 29.3419 124.367 29.8636 123.974C30.5156 123.712 30.646 122.926 30.2548 122.271Z" fill="#1BA9F5"/>
<path d="M27.777 103.672C27.9074 103.541 28.0378 103.41 27.9074 103.148C27.777 102.886 27.5162 103.017 27.3858 103.017C27.2554 103.017 27.2554 103.41 27.2554 103.541C27.3858 103.672 27.6466 103.803 27.777 103.672Z" fill="#1BA9F5"/>
<path d="M33.7761 102.1C33.5153 102.231 33.3849 103.279 33.5153 103.41C33.6457 103.541 33.7761 103.541 33.9065 103.672C34.0369 103.148 34.0369 102.624 34.1673 102.1C33.9065 102.1 33.7761 102.1 33.7761 102.1Z" fill="#1BA9F5"/>
<path d="M26.0819 115.46C25.6907 115.591 25.6907 116.508 25.6907 116.901C25.8211 117.425 26.734 117.687 26.9948 117.425C27.2556 117.163 27.386 116.639 27.2556 116.246C27.1252 115.853 26.4731 115.329 26.0819 115.46Z" fill="#1BA9F5"/>
<path d="M32.6021 113.365C32.4717 113.365 32.4717 113.757 32.4717 113.757L32.6021 113.888C32.6021 113.757 32.7325 113.495 32.6021 113.365Z" fill="#1BA9F5"/>
<path d="M32.2109 98.8257C31.298 99.3496 30.9068 100.79 31.298 101.838C31.5589 102.493 32.863 102.755 33.6454 102.231C33.9062 102.1 34.0366 101.969 34.167 101.838C34.2975 101.314 34.2975 100.659 34.4279 100.135C34.4279 100.004 34.4279 99.8735 34.2975 99.8735C33.9062 98.8257 32.863 98.3017 32.2109 98.8257Z" fill="#1BA9F5"/>
<path d="M28.5597 104.065C28.9509 104.851 30.6462 105.637 31.1678 105.244C31.9503 104.851 32.0807 103.541 31.6895 102.493C31.2983 101.576 30.3854 101.445 29.2117 101.969C28.5597 102.362 28.1684 103.41 28.5597 104.065Z" fill="#1BA9F5"/>
<path d="M31.2982 86.6444C30.907 86.5134 30.6462 86.6444 30.2549 86.9064C29.8637 87.0373 29.6029 87.1683 29.3421 87.5613C29.0813 87.9542 29.6029 88.3471 30.1245 88.3471C30.5158 88.3471 31.2982 87.9542 31.4286 87.6922C31.8199 87.0373 31.4286 86.7754 31.2982 86.6444Z" fill="#1BA9F5"/>
<path d="M49.947 61.1031C50.2079 61.1031 50.3383 61.1031 50.4687 61.1031C52.164 58.4834 53.9897 55.9948 55.8155 53.6372C55.1634 52.9823 53.3377 52.9823 52.5552 54.0301C52.164 54.685 52.0336 55.3399 52.0336 55.8638C51.9032 55.8638 51.7728 55.9948 51.7728 55.9948C50.4687 56.5187 50.3383 57.4356 50.5991 58.6144C49.947 58.7454 49.0342 58.6144 49.0342 59.7933C49.0342 60.4482 49.4254 60.9721 49.947 61.1031Z" fill="#1BA9F5"/>
<path d="M27.5165 194.442C26.9948 194.18 26.6036 194.311 26.2124 194.704C25.6908 195.49 26.082 196.144 26.6036 196.93C27.3861 196.799 28.2989 196.799 28.4294 195.883C28.5598 195.228 28.1685 194.704 27.5165 194.442Z" fill="#1BA9F5"/>
<path d="M35.3407 171.52C35.3407 172.306 35.3407 173.223 36.5144 173.354C37.1664 173.354 37.6881 173.092 37.9489 172.437C38.0793 172.175 38.0793 171.782 37.9489 171.651C37.5576 171.258 37.036 170.865 36.384 170.472C36.384 168.9 35.7319 167.853 34.819 167.853C33.9062 167.853 32.7325 169.162 32.7325 170.21C32.6021 171.127 33.2541 171.52 35.3407 171.52Z" fill="#1BA9F5"/>
<path d="M29.6032 175.188C28.9511 175.449 28.5599 176.366 28.8207 177.021C29.0815 177.807 30.2552 178.2 31.1681 177.807C31.9505 177.414 32.2114 176.89 32.0809 176.235C31.6897 175.449 30.516 174.926 29.6032 175.188Z" fill="#1BA9F5"/>
<path d="M47.0777 178.462C46.556 177.414 45.7736 177.021 44.9911 177.414C44.0782 177.807 43.5566 179.117 43.9478 179.903C44.3391 180.689 45.7736 181.213 46.556 180.82C47.3385 180.427 47.5993 179.248 47.0777 178.462Z" fill="#1BA9F5"/>
<path d="M32.9936 193.918C32.6024 194.049 32.6024 194.573 32.7328 194.704C32.8632 194.966 33.2544 195.096 33.5152 195.096C33.6456 195.096 33.9065 194.573 33.9065 194.573C33.7761 194.311 33.5152 193.787 32.9936 193.918Z" fill="#1BA9F5"/>
<path d="M39.6444 199.681C38.7315 199.812 38.2099 200.336 38.0795 201.253C37.8187 202.17 38.2099 202.693 38.9924 203.086C39.514 203.348 40.5573 204.265 41.3397 203.741C42.1222 203.217 41.4701 202.562 41.6005 202.17C41.6005 200.729 40.5573 199.55 39.6444 199.681Z" fill="#1BA9F5"/>
<path d="M42.5133 192.608C41.9917 192.87 41.6004 193.787 41.7308 194.311C41.9917 194.835 42.7741 195.097 43.2958 194.835C43.9478 194.573 44.339 193.656 44.0782 193.132C43.8174 192.739 43.0349 192.346 42.5133 192.608Z" fill="#1BA9F5"/>
<path d="M38.4709 179.248C39.6445 178.724 40.427 177.414 40.0358 176.497C39.6445 175.449 37.558 174.533 36.6451 175.056C35.6019 175.58 35.0802 177.021 35.6019 178.069C35.9931 179.117 37.4276 179.772 38.4709 179.248Z" fill="#1BA9F5"/>
<path d="M38.6011 189.857C39.1228 189.595 39.3836 189.071 38.9923 188.547C38.7315 188.154 37.8187 187.369 37.4274 187.63C37.0362 187.892 37.1666 188.94 37.1666 189.464C37.297 189.988 38.0795 190.119 38.6011 189.857Z" fill="#1BA9F5"/>
<path d="M28.6898 182.129C27.7769 182.653 27.5161 183.701 28.1681 184.749C28.8202 185.797 29.733 186.059 30.6459 185.535C31.5588 185.011 31.8196 183.832 31.2979 182.784C31.0371 181.998 29.6026 181.606 28.6898 182.129Z" fill="#1BA9F5"/>
<path d="M16.4313 177.414C16.1705 177.545 15.9096 177.938 16.0401 178.2C16.1705 178.462 16.6921 178.593 16.8225 178.462C17.0833 178.331 17.4746 177.938 17.3442 177.545C17.3442 177.414 16.5617 177.414 16.4313 177.414Z" fill="#1BA9F5"/>
<path d="M17.8662 137.596C18.5182 137.334 18.7791 136.286 18.3878 135.631C17.8662 134.845 16.9533 134.452 16.3013 134.845C15.5188 135.238 14.9972 136.679 15.3884 137.334C15.5188 137.858 16.9533 137.989 17.8662 137.596Z" fill="#1BA9F5"/>
<path d="M26.2124 169.293C25.9516 168.638 24.9083 168.376 24.3867 168.769C23.865 169.031 23.6042 169.686 23.865 170.341C24.2562 171.127 25.0387 171.389 25.6907 170.996C26.2124 170.734 26.4732 169.817 26.2124 169.293Z" fill="#1BA9F5"/>
<path d="M14.4755 77.8686C14.6059 77.7376 14.7363 77.6066 14.7363 77.3446C14.7363 77.0827 14.345 77.2137 14.2146 77.2137C14.0842 77.2137 14.0842 77.6066 14.0842 77.6066C14.0842 77.7376 14.345 77.8686 14.4755 77.8686Z" fill="#1BA9F5"/>
<path d="M20.6048 156.85C21.7785 156.326 22.0393 155.016 21.3872 153.576C20.8656 152.397 19.6919 152.004 18.5182 152.528C17.3445 153.052 16.8229 154.754 17.3445 155.802C17.9966 156.85 19.5615 157.374 20.6048 156.85Z" fill="#1BA9F5"/>
<path d="M19.6915 170.472C19.3003 170.734 19.5611 171.913 19.6915 172.306C19.9523 172.83 20.3435 172.961 20.8652 172.568C21.2564 172.306 21.6476 171.782 21.2564 171.389C20.9956 170.996 20.0827 170.21 19.6915 170.472Z" fill="#1BA9F5"/>
<path d="M25.0386 174.402C24.9082 174.402 24.9082 174.795 24.9082 174.926C24.9082 175.057 25.169 175.187 25.2994 175.057C25.4298 174.926 25.5602 174.795 25.4298 174.533C25.4298 174.402 25.169 174.402 25.0386 174.402Z" fill="#1BA9F5"/>
<path d="M23.6043 163.661C23.0826 162.744 22.3002 162.613 21.1265 163.268C20.4745 163.661 20.2136 164.709 20.4745 165.364C20.8657 166.019 22.6914 166.805 23.2131 166.412C23.9955 166.019 24.1259 164.709 23.6043 163.661Z" fill="#1BA9F5"/>
<path d="M16.0406 59.4003C15.9102 59.0074 14.8669 58.0905 14.2149 58.3525C13.5629 58.6144 13.8237 60.1862 14.0845 60.5792C14.2149 60.9721 14.9974 61.496 15.6494 61.2341C16.171 60.9721 16.171 59.9243 16.0406 59.4003Z" fill="#1BA9F5"/>
<path d="M89.3305 221.948C88.6785 221.948 88.1568 222.34 88.0264 223.126C87.896 223.912 88.2872 224.305 89.0697 224.305C89.8522 224.305 90.3738 223.912 90.3738 223.126C90.5042 222.602 89.9826 221.948 89.3305 221.948Z" fill="#1BA9F5"/>
<path d="M80.0714 212.255C79.941 212.517 79.8105 212.779 79.8105 213.041C79.8105 213.696 80.3322 214.22 81.1146 214.22C81.6363 214.22 82.1579 214.089 82.2883 213.827C81.5059 213.303 80.8538 212.779 80.0714 212.255Z" fill="#1BA9F5"/>
<path d="M72.1164 213.172C71.7252 213.172 71.4644 213.696 71.4644 213.958C71.4644 214.22 71.7252 214.482 71.986 214.613C72.1164 214.613 72.638 214.351 72.638 214.089C72.638 213.827 72.5076 213.172 72.1164 213.172Z" fill="#1BA9F5"/>
<path d="M79.68 215.661C79.4192 215.661 79.2888 215.923 79.2888 216.054C79.2888 216.185 79.5496 216.316 79.68 216.316C79.8105 216.316 80.0713 216.185 80.0713 216.054C80.0713 215.923 79.9409 215.661 79.68 215.661Z" fill="#1BA9F5"/>
<path d="M81.636 218.411C81.5056 218.411 80.7231 218.673 80.7231 218.935C80.7231 219.197 81.2448 219.459 81.5056 219.59C81.636 219.59 82.0273 219.328 82.0273 219.197C82.0273 218.804 81.8968 218.542 81.636 218.411Z" fill="#1BA9F5"/>
<path d="M125.584 230.723C125.323 230.723 125.062 231.116 125.062 231.378C125.062 231.509 125.193 232.033 125.584 232.164C125.975 232.164 126.106 231.64 126.106 231.378C126.106 231.116 125.845 230.723 125.584 230.723Z" fill="#1BA9F5"/>
<path d="M94.2857 228.235C93.8945 228.235 93.3728 228.497 93.2424 228.759C93.2424 229.021 93.6337 229.544 93.8945 229.675C94.1553 229.806 95.0682 229.413 95.0682 229.021C95.329 228.759 94.5465 228.235 94.2857 228.235Z" fill="#1BA9F5"/>
<path d="M108.501 226.401C108.109 226.401 107.066 226.794 107.066 227.187C107.066 227.58 107.849 228.104 108.24 228.235C108.761 228.497 109.153 227.973 109.283 227.318C109.544 226.663 109.022 226.401 108.501 226.401Z" fill="#1BA9F5"/>
<path d="M63.77 198.895C63.77 198.764 63.77 198.633 63.77 198.633C63.5092 198.371 63.2484 198.109 62.9876 197.716C62.8571 197.716 62.8571 197.716 62.7267 197.716C61.9443 197.716 61.2922 198.24 61.2922 198.895C61.2922 199.55 61.9443 200.205 62.5963 200.205C63.118 200.205 63.77 199.55 63.77 198.895Z" fill="#1BA9F5"/>
<path d="M51.7724 189.202C51.2508 188.286 49.8163 188.417 49.5555 188.679C49.1643 188.941 49.0338 190.381 49.8163 191.036C50.3379 191.429 50.99 191.429 51.5116 190.905C51.9028 190.381 52.0333 189.857 51.7724 189.202Z" fill="#1BA9F5"/>
<path d="M53.2069 195.358C52.1637 195.882 51.5116 197.192 51.9028 197.978C52.2941 198.633 53.4678 198.895 54.2502 198.502C55.0327 198.109 55.2935 197.061 54.7719 196.144C54.511 195.227 53.859 194.966 53.2069 195.358Z" fill="#1BA9F5"/>
<path d="M50.3381 185.142C50.8598 184.749 51.1206 183.832 50.5989 183.046C50.2077 183.046 49.6861 182.784 49.1644 182.915C48.5124 183.046 48.2516 184.094 48.6428 184.749C49.034 185.273 49.8165 185.404 50.3381 185.142Z" fill="#1BA9F5"/>
<path d="M64.2915 206.492C63.9003 206.361 62.5962 207.016 62.5962 207.671C62.5962 208.326 64.0307 208.85 64.5523 208.85C64.9436 208.85 65.726 208.326 65.726 207.671C65.726 207.147 64.8132 206.623 64.2915 206.492Z" fill="#1BA9F5"/>
<path d="M57.9019 208.587C57.3803 208.718 57.6411 209.373 57.7715 209.635C57.7715 209.766 58.2931 209.897 58.4235 209.897C58.6844 209.766 58.8148 209.373 58.8148 209.111C58.6844 208.98 58.2931 208.457 57.9019 208.587Z" fill="#1BA9F5"/>
<path d="M62.8572 201.908C63.118 201.777 63.6397 201.253 63.3789 200.991C63.2484 200.729 62.5964 200.729 62.466 200.86C62.2052 200.991 61.814 201.384 61.9444 201.646C62.0748 201.908 62.7268 202.039 62.8572 201.908Z" fill="#1BA9F5"/>
<path d="M46.9472 202.693C46.4256 202.955 46.1648 203.61 46.2952 204.265C46.556 204.92 47.3385 205.313 47.7297 204.92C48.2513 204.527 48.5121 204.003 48.3817 203.348C48.2513 202.824 47.5993 202.432 46.9472 202.693Z" fill="#1BA9F5"/>
<path d="M58.5538 204.003C58.1626 204.265 58.293 204.789 58.4234 204.92C58.5538 205.182 58.8146 205.444 59.3362 205.313C59.7275 205.182 59.9883 204.658 59.7275 204.265C59.3362 203.741 58.945 203.741 58.5538 204.003Z" fill="#1BA9F5"/>
<path d="M37.4277 56.3877C37.6885 56.1258 37.8189 55.6018 37.6885 55.3399C37.5581 55.0779 36.9061 54.423 36.5148 54.554C36.1236 54.685 35.9932 55.6018 36.1236 55.9948C36.1236 56.3877 37.0365 56.7807 37.4277 56.3877Z" fill="#1BA9F5"/>
<path d="M22.0392 65.5564C22.5609 65.2944 22.9521 64.9015 22.6913 64.2466C22.5609 63.7226 21.2568 63.4607 20.8656 63.7226C20.4743 63.9846 20.6047 64.6395 20.7351 65.0325C20.996 65.5564 21.3872 65.8183 22.0392 65.5564Z" fill="#1BA9F5"/>
<path d="M15.9099 108.78C15.9099 109.304 16.562 109.566 17.214 109.304C17.8661 109.042 17.8661 108.518 17.6052 108.125C17.3444 107.732 16.562 107.077 16.3011 107.208C16.0403 107.339 15.9099 108.387 15.9099 108.78Z" fill="#1BA9F5"/>
<path d="M22.6912 55.6019C23.3433 55.3399 23.6041 54.685 23.3433 54.0301C23.0824 53.2442 22.1696 52.9823 21.5175 53.2442C20.9959 53.5062 20.6047 54.4231 20.8655 54.947C21.2567 55.6019 22.0392 55.8639 22.6912 55.6019Z" fill="#1BA9F5"/>
<path d="M27.2554 76.166C27.9075 75.904 28.1683 74.8562 27.777 74.3322C27.2554 73.5463 26.3425 73.0224 25.6905 73.4154C24.908 73.8083 24.256 75.1181 24.6472 75.904C24.908 76.2969 26.3425 76.5589 27.2554 76.166Z" fill="#1BA9F5"/>
<path d="M17.9962 78.7856C18.5179 78.5237 19.0395 77.2139 18.7787 76.6899C18.5179 76.166 17.7354 75.904 17.0834 76.166C16.4313 76.428 16.3009 77.2139 16.5617 77.8688C16.953 78.7856 17.4746 79.0476 17.9962 78.7856Z" fill="#1BA9F5"/>
<path d="M27.125 67.6521C27.7771 67.3902 28.0379 66.4733 27.7771 65.9494C27.5163 65.2945 26.6034 65.0325 25.9514 65.2945C25.4297 65.5564 25.1689 66.2113 25.4297 66.8662C25.6905 67.6521 26.3426 67.9141 27.125 67.6521Z" fill="#1BA9F5"/>
<path d="M19.431 89.6569C19.6919 90.1808 20.0831 90.5738 20.7351 90.3118C21.2568 90.1808 21.648 89.264 21.3872 88.74C21.2568 88.3471 20.3439 88.2161 19.6919 88.4781C19.431 88.74 19.1702 89.133 19.431 89.6569Z" fill="#1BA9F5"/>
<path d="M18.6484 80.3573C18.3876 80.4883 17.9963 80.7502 18.1267 81.0122C18.2571 81.2742 18.6484 81.4052 18.9092 81.4052C19.17 81.4052 19.6916 80.8812 19.5612 80.6193C19.4308 80.3573 18.7788 80.2263 18.6484 80.3573Z" fill="#1BA9F5"/>
<path d="M24.2564 117.032C24.5172 117.032 25.0388 116.508 24.9084 116.246C24.778 115.984 24.1259 115.853 23.8651 115.984C23.6043 116.115 23.3435 116.508 23.4739 116.77C23.4739 117.032 23.9955 117.032 24.2564 117.032Z" fill="#1BA9F5"/>
<path d="M39.9051 63.3297C40.5571 63.0678 40.6875 62.2819 40.2963 61.627C39.9051 60.9721 39.3835 60.8411 38.7314 61.1031C38.2098 61.365 37.8185 62.2819 38.0794 62.8058C38.4706 63.3297 39.3834 63.5917 39.9051 63.3297Z" fill="#1BA9F5"/>
<path d="M38.9925 50.1006C40.9487 50.1006 40.427 51.4104 41.8616 51.9343C42.1224 52.0653 42.3832 51.9343 42.5136 51.9343C43.9481 51.6724 44.4697 50.3626 43.6873 49.1837C43.1656 48.5288 42.5136 47.8739 41.7311 47.35C40.9487 46.8261 39.5142 47.088 38.8621 47.7429C38.4709 48.2669 37.9493 49.5767 38.9925 50.1006Z" fill="#1BA9F5"/>
<path d="M29.0811 57.9596C29.7332 57.6977 30.1244 57.0428 29.8636 56.3879C29.6028 55.733 29.0811 55.471 28.4291 55.733C27.6466 55.9949 27.3858 56.6498 27.6466 57.3047C27.9075 57.8287 28.5595 58.2216 29.0811 57.9596Z" fill="#1BA9F5"/>
<path d="M36.7752 60.8412C37.5576 60.4482 37.8184 59.6624 37.2968 58.4835C36.9056 57.6976 36.2535 57.3047 35.6015 57.5667C34.819 57.8286 34.167 59.4004 34.4278 60.0553C34.819 61.1031 35.7319 61.3651 36.7752 60.8412Z" fill="#1BA9F5"/>
<path d="M38.7316 42.7658C38.862 42.6348 38.9924 42.5038 38.9924 42.2419C38.862 41.9799 38.6012 42.1109 38.4707 42.1109C38.3403 42.1109 38.3403 42.5038 38.3403 42.5038C38.4707 42.7658 38.6012 42.8968 38.7316 42.7658Z" fill="#1BA9F5"/>
<path d="M30.1246 46.9571C30.9071 46.5641 31.1679 45.9092 30.9071 45.2543C30.6463 44.5994 29.8638 44.3374 29.0813 44.5994C28.4293 44.8614 28.1685 45.6473 28.4293 46.4331C28.6901 46.9571 29.603 47.219 30.1246 46.9571Z" fill="#1BA9F5"/>
<path d="M32.7331 68.5691C32.9939 69.224 33.9067 69.6169 34.5588 69.486C35.8629 68.962 36.5149 67.9142 36.1237 67.1283C35.7325 66.3424 34.298 65.9495 33.5155 66.2114C32.8635 66.4734 32.4722 67.7832 32.7331 68.5691Z" fill="#1BA9F5"/>
<path d="M32.2109 38.9674C32.4717 38.8365 32.7325 38.4435 32.7325 38.0506C32.7325 37.6576 32.4717 37.1337 32.0805 37.0027C31.298 36.7408 30.646 37.5266 30.646 38.0506C30.646 38.5745 31.4285 39.2294 32.2109 38.9674Z" fill="#1BA9F5"/>
<path d="M8.73709 140.739C9.25873 140.346 9.64995 139.168 9.38913 138.644C9.12832 138.12 8.21545 137.858 7.69381 138.251C7.04177 138.644 6.91136 139.299 7.30259 139.953C7.69381 140.739 8.21545 141.001 8.73709 140.739Z" fill="#1BA9F5"/>
<path d="M9.51971 142.18C9.25889 142.311 8.86766 142.704 8.99807 142.966C9.12848 143.228 9.65012 143.359 9.78053 143.228C10.0413 143.097 10.563 142.573 10.3022 142.311C10.1718 142.18 9.65012 142.049 9.51971 142.18Z" fill="#1BA9F5"/>
<path d="M11.0851 150.301C10.5635 150.563 10.4331 150.956 10.6939 151.349C10.9547 151.873 11.3459 152.266 11.998 152.004C12.5196 151.742 12.9108 150.956 12.65 150.432C12.5196 150.039 11.7372 150.039 11.0851 150.301Z" fill="#1BA9F5"/>
<path d="M13.0406 70.2717C13.3014 70.1407 13.8231 69.7478 13.5623 69.4858C13.4318 69.0929 12.7798 69.0929 12.6494 69.2238C12.519 69.3548 12.2582 69.7478 12.3886 70.0097C12.3886 70.0097 12.7798 70.2717 13.0406 70.2717Z" fill="#1BA9F5"/>
<path d="M14.084 156.719C13.5624 156.85 13.8232 157.505 13.9536 157.767C13.9536 157.898 14.4753 158.029 14.6057 158.029C14.8665 157.898 14.9969 157.505 14.9969 157.243C14.8665 156.981 14.4753 156.588 14.084 156.719Z" fill="#1BA9F5"/>
<path d="M4.04271 120.437C3.52107 120.699 3.65148 122.271 3.9123 122.664C4.04271 123.057 4.95557 123.45 5.47721 123.188C5.99885 122.926 5.99885 121.878 5.86844 121.354C5.73803 121.092 4.56435 120.175 4.04271 120.437Z" fill="#1BA9F5"/>
<path d="M10.9543 125.415C10.6935 125.808 10.8239 126.332 10.9543 126.725C11.0847 127.249 11.6063 127.51 12.128 127.118C12.6496 126.856 13.0408 126.463 12.78 125.808C12.5192 125.415 11.2151 125.153 10.9543 125.415Z" fill="#1BA9F5"/>
<path d="M13.5625 186.845C13.4321 186.845 13.0409 187.238 13.1713 187.631C13.3017 188.024 13.9537 187.762 14.2145 187.762C14.3449 187.762 14.6058 187.238 14.4754 187.107C14.345 186.976 13.8233 186.845 13.5625 186.845Z" fill="#1BA9F5"/>
<path d="M11.0844 115.067C10.4323 115.329 10.1715 116.246 10.5627 116.77C10.8235 117.294 11.7364 117.556 12.3885 117.294C13.0405 117.032 13.1709 116.377 12.9101 115.722C12.5189 115.067 11.606 114.674 11.0844 115.067Z" fill="#1BA9F5"/>
<path d="M8.60705 169.162C8.34623 169.293 8.21582 170.341 8.21582 170.734C8.34623 171.258 8.86787 171.52 9.51991 171.258C10.172 170.996 10.172 170.472 9.91114 170.079C9.65032 169.555 8.86787 168.9 8.60705 169.162Z" fill="#1BA9F5"/>
<path d="M3.39037 132.357C3.65119 132.226 4.17282 131.833 3.912 131.44C3.65119 131.178 3.12955 131.178 2.99914 131.178C2.73832 131.44 2.60791 131.833 2.60791 132.095C2.73832 132.226 3.25996 132.488 3.39037 132.357Z" fill="#1BA9F5"/>
<path d="M12.5194 90.3119C13.041 90.05 13.4323 89.2641 13.1714 88.7402C12.9106 88.0852 12.2586 87.8233 11.4761 88.0852C10.8241 88.3472 10.5632 88.8711 10.8241 89.526C11.2153 90.3119 11.8673 90.5739 12.5194 90.3119Z" fill="#1BA9F5"/>
<path d="M9.38947 97.2538C9.65029 97.1228 9.9111 96.206 9.78069 96.075C9.65029 95.813 9.12865 95.2891 8.86783 95.4201C8.60701 95.5511 8.34619 96.206 8.34619 96.4679C8.34619 96.7299 9.12865 97.3848 9.38947 97.2538Z" fill="#1BA9F5"/>
<path d="M12.6498 81.0123C12.9107 80.8813 13.0411 80.4884 13.0411 80.2264C13.0411 80.0954 12.389 79.5715 12.2586 79.7025C11.9978 79.8335 11.9978 80.4884 11.9978 80.7503C11.9978 80.8813 12.5194 81.1433 12.6498 81.0123Z" fill="#1BA9F5"/>
<path d="M0.521618 157.767C0.2608 157.898 -1.91256e-05 158.553 0.13039 158.815C0.2608 159.077 0.912846 159.732 1.30407 159.601C1.56489 159.47 1.6953 158.553 1.56489 158.422C1.30407 158.029 0.782437 157.636 0.521618 157.767Z" fill="#1BA9F5"/>
<path d="M3.12974 141.918C2.99933 142.049 2.86892 142.704 2.99933 142.966C2.99933 143.097 3.52097 143.228 3.65138 143.228C3.78179 142.966 3.9122 142.704 3.9122 142.442C3.9122 142.311 3.26015 141.787 3.12974 141.918Z" fill="#1BA9F5"/>
<path d="M2.86918 150.301C2.21713 150.563 1.95632 151.087 2.21713 151.742C2.47795 152.397 3.26041 152.659 3.91246 152.397C4.43409 152.135 4.82532 151.349 4.5645 150.825C4.30368 150.301 3.65164 150.039 2.86918 150.301Z" fill="#1BA9F5"/>
<path d="M4.82523 139.299C4.69482 139.299 4.69482 139.692 4.69482 139.823C4.69482 139.954 4.95564 140.085 5.08605 139.954C5.21646 139.823 5.34687 139.692 5.21646 139.43C5.21646 139.168 4.95564 139.168 4.82523 139.299Z" fill="#1BA9F5"/>
<path d="M141.494 203.61C186.509 203.61 223 166.959 223 121.747C223 76.5356 186.509 39.8843 141.494 39.8843C96.4797 39.8843 59.9883 76.5356 59.9883 121.747C59.9883 166.959 96.4797 203.61 141.494 203.61Z" fill="#36B9FF"/>
<path d="M66.5086 102.755C65.987 102.624 65.335 103.803 65.335 104.065C65.4654 104.589 65.5958 105.506 66.2478 105.637C66.8999 105.899 67.2911 105.113 67.2911 104.72C67.2911 104.327 67.0303 103.017 66.5086 102.755Z" fill="#1BA9F5"/>
<path d="M69.3779 99.2186C68.2042 98.9567 67.1609 99.7426 66.7697 101.052C66.5088 101.969 67.4217 103.279 68.5954 103.541C69.7691 103.803 70.682 103.148 70.9428 101.707C71.2036 100.397 70.5515 99.4806 69.3779 99.2186Z" fill="#1BA9F5"/>
<path d="M63.1181 134.19C62.8573 134.19 62.3356 134.321 62.3356 134.583C62.2052 134.714 62.0748 135.369 62.5965 135.631C63.1181 135.893 63.3789 135.107 63.5093 134.845C63.5093 134.714 63.2485 134.19 63.1181 134.19Z" fill="#1BA9F5"/>
<path d="M79.8105 148.598C79.028 148.467 78.1151 148.991 77.9847 149.777C77.8543 150.563 78.5064 151.48 79.2888 151.48C80.0713 151.611 80.8537 151.087 80.9841 150.432C81.1145 149.515 80.5929 148.729 79.8105 148.598Z" fill="#1BA9F5"/>
<path d="M71.4643 115.329C70.9426 115.067 70.421 115.067 70.1602 115.853C69.8993 116.508 70.2906 117.425 70.8122 117.425C71.3338 117.425 72.5075 117.294 72.6379 116.639C72.7684 115.853 71.8555 115.46 71.4643 115.329Z" fill="#1BA9F5"/>
<path d="M60.1184 125.153C60.1184 125.808 60.1184 126.332 60.2488 126.987C60.5096 126.725 60.7705 126.201 60.7705 125.939C60.6401 125.415 60.3792 125.153 60.1184 125.153Z" fill="#1BA9F5"/>
<path d="M69.2472 150.825C69.3776 150.825 69.508 150.825 69.6384 150.825C68.9864 151.218 68.3343 151.742 68.0735 152.528C67.8127 153.314 68.5951 154.231 69.6384 154.493C70.8121 154.754 71.725 154.231 72.1162 152.921C72.377 152.004 71.8554 150.825 71.2033 150.563C71.0729 150.563 70.9425 150.563 70.9425 150.563C71.5945 150.17 72.2466 149.515 72.377 148.598C72.377 148.336 72.5074 147.943 72.377 147.681C73.2899 148.336 74.9852 148.467 75.8981 147.943C76.8109 147.42 77.2021 145.979 76.6805 144.8C76.2893 144.014 75.8981 143.359 76.5501 142.442C76.9413 141.787 76.4197 141.132 75.7676 140.74C74.7244 141.001 74.3331 141.656 74.7244 142.573C73.8115 143.097 73.029 143.49 72.5074 144.014C71.9858 144.538 71.725 145.717 71.8554 146.634C71.4641 146.241 70.9425 145.979 70.16 145.848C68.7255 145.586 67.9431 145.848 67.4214 146.634C67.0302 146.765 66.639 147.027 66.5086 147.42C66.3782 148.074 66.639 148.598 67.1606 148.991C67.291 149.777 68.0735 150.563 69.2472 150.825Z" fill="#1BA9F5"/>
<path d="M61.5533 129.999C61.4229 129.475 61.0317 128.82 60.3796 128.427C60.51 129.606 60.6405 130.654 60.7709 131.833C61.1621 131.44 61.6837 130.654 61.5533 129.999Z" fill="#1BA9F5"/>
<path d="M69.1171 118.473C69.3779 117.949 68.9867 117.425 68.3346 117.294C67.6826 117.294 67.1609 117.425 67.0305 118.08C67.0305 118.604 67.2913 119.783 67.813 120.045C68.3346 120.045 68.9867 118.866 69.1171 118.473Z" fill="#1BA9F5"/>
<path d="M77.072 117.425C76.8111 117.818 76.5503 118.342 76.1591 118.735C75.3766 119.259 74.9854 120.045 75.2462 120.962C75.3766 121.616 77.072 122.402 77.8544 122.271C78.6369 122.14 79.4193 121.878 79.4193 120.831C79.4193 120.045 79.5497 119.259 79.6802 118.342C80.0714 117.425 79.8106 116.77 79.0281 116.508C78.2456 116.115 77.5936 116.508 77.072 117.425Z" fill="#1BA9F5"/>
<path d="M107.718 172.044C107.849 172.568 108.892 173.354 109.544 173.223C110.196 173.092 110.587 172.568 110.457 171.913C110.196 170.734 109.805 170.079 109.153 170.079C108.631 170.079 107.979 170.996 107.718 171.651C107.718 170.603 107.066 169.555 106.153 169.293C105.371 169.031 104.197 170.079 103.806 171.127C103.545 172.175 104.067 173.092 104.849 173.354C106.153 173.485 107.457 172.83 107.718 172.044Z" fill="#1BA9F5"/>
<path d="M75.8981 115.198C75.6373 115.067 74.8548 115.198 74.8548 115.46C74.7244 115.853 75.3764 116.377 75.5068 116.377C75.7677 116.377 76.2893 116.246 76.4197 115.984C76.5501 115.722 76.1589 115.329 75.8981 115.198Z" fill="#1BA9F5"/>
<path d="M66.248 111.924C66.1175 111.924 65.7263 111.924 65.7263 112.186C65.7263 112.448 65.9871 112.579 66.1175 112.71C66.248 112.71 66.5088 112.448 66.5088 112.317C66.5088 112.186 66.5088 111.924 66.248 111.924Z" fill="#1BA9F5"/>
<path d="M65.9872 129.606C65.2047 129.344 64.4222 129.868 64.1614 130.523C64.031 131.309 64.4222 132.095 65.2047 132.226C65.9872 132.488 66.5088 132.095 66.7696 131.309C67.0304 130.523 66.7696 129.737 65.9872 129.606Z" fill="#1BA9F5"/>
<path d="M68.2039 121.355C68.3343 120.569 67.6823 119.914 67.0302 119.783C66.2478 119.652 65.5957 120.176 65.4653 120.962C65.2045 121.878 65.7261 122.664 66.639 122.795C67.2911 122.795 68.2039 122.14 68.2039 121.355Z" fill="#1BA9F5"/>
<path d="M65.0741 146.503C65.4653 146.241 66.1174 145.586 66.1174 145.193C66.1174 144.669 65.8565 144.276 65.4653 144.145C66.2478 143.49 66.5086 142.311 66.5086 141.133C66.5086 140.478 66.2478 139.823 65.9869 139.299C65.4653 138.644 64.6828 138.251 63.6396 138.12C62.8571 137.989 62.2051 137.465 61.4226 137.465C61.9442 139.954 62.4659 142.311 63.1179 144.669H63.2483C63.2483 144.8 63.2483 144.8 63.1179 144.931C63.2483 145.455 63.3788 145.848 63.5092 146.372C64.1612 146.634 64.5524 146.896 65.0741 146.503Z" fill="#1BA9F5"/>
<path d="M95.4598 152.135C95.851 152.004 95.7206 151.349 95.7206 151.087C95.7206 150.956 95.199 150.694 95.0686 150.694C94.8078 150.825 94.6773 151.349 94.8078 151.611C94.6773 151.742 95.0686 152.266 95.4598 152.135Z" fill="#1BA9F5"/>
<path d="M93.2427 148.991C93.6339 148.86 93.6339 148.336 93.6339 148.074C93.6339 147.813 93.1123 147.289 92.7211 147.289C92.4602 147.42 92.3298 148.205 92.3298 148.336C92.5907 148.729 92.9819 149.122 93.2427 148.991Z" fill="#1BA9F5"/>
<path d="M102.763 160.387C103.024 160.125 102.632 158.684 102.111 158.553C101.459 158.422 100.807 158.815 100.546 159.601C100.415 160.256 100.807 160.911 101.459 160.911C101.98 160.911 102.502 160.78 102.763 160.387Z" fill="#1BA9F5"/>
<path d="M92.5908 163.006C92.982 164.054 94.1557 164.709 94.9382 164.316C96.1118 163.792 96.7639 162.22 96.3727 161.042C96.1118 160.387 95.0686 159.994 94.1557 160.125C94.4165 159.863 94.6773 159.47 94.8077 158.946C95.0686 157.767 94.5469 156.85 93.2428 156.588C92.0692 156.326 91.1563 156.85 91.0259 157.636C90.8955 158.815 91.8083 160.387 92.8516 160.518C92.982 160.518 92.982 160.518 93.1124 160.518C92.33 161.303 92.1996 162.089 92.5908 163.006Z" fill="#1BA9F5"/>
<path d="M104.719 178.462C105.371 178.593 105.892 178.2 106.023 177.414C106.153 176.628 105.631 176.366 105.11 176.235C104.719 176.235 103.415 176.235 103.415 176.89C103.284 177.676 104.327 178.331 104.719 178.462Z" fill="#1BA9F5"/>
<path d="M104.067 151.087C103.806 151.349 104.067 152.004 104.197 152.135C104.458 152.266 104.849 152.397 105.11 152.266C105.371 152.135 105.24 151.48 105.11 151.349C105.11 151.218 104.458 150.825 104.067 151.087Z" fill="#1BA9F5"/>
<path d="M75.5071 168.114C75.1159 167.46 74.855 166.805 74.4638 166.15C74.3334 165.888 74.0726 165.495 73.9422 165.364C74.4638 164.971 74.9855 164.709 74.855 164.185C74.7246 163.399 73.4205 163.399 72.8989 163.137C72.7685 163.268 72.6381 163.268 72.5077 163.399C72.1165 164.054 72.2469 164.316 72.3773 164.84C72.2469 164.84 72.2469 164.709 72.1165 164.709C73.1597 166.412 74.3334 168.114 75.5071 169.817C75.8983 169.293 75.7679 168.638 75.5071 168.114Z" fill="#1BA9F5"/>
<path d="M104.458 158.553C104.458 159.077 104.849 159.732 105.24 159.994C105.631 160.387 106.675 159.732 106.675 158.946C106.675 158.553 106.283 158.029 106.283 157.898C105.24 157.636 104.458 157.898 104.458 158.553Z" fill="#1BA9F5"/>
<path d="M98.1984 176.235C97.416 176.497 97.0247 177.283 97.2855 178.069C97.5464 178.724 98.3288 178.986 98.9809 178.724C99.6329 178.331 100.024 177.545 99.7633 176.89C99.3721 176.104 98.8505 175.973 98.1984 176.235Z" fill="#1BA9F5"/>
<path d="M76.0288 170.472C76.42 170.996 76.8113 171.389 77.0721 171.913V171.782C76.9417 171.127 76.42 170.734 76.0288 170.472Z" fill="#1BA9F5"/>
<path d="M92.7209 133.928C92.9818 133.012 92.3297 132.226 91.156 131.833C90.2432 131.571 89.4607 131.964 89.1999 132.75C89.0695 133.536 89.7215 135.238 90.3736 135.369C91.4168 135.631 92.3297 135.107 92.7209 133.928Z" fill="#1BA9F5"/>
<path d="M90.2431 168.639C90.6343 167.591 89.7214 166.019 88.6782 165.757C88.0261 165.626 86.9828 166.412 86.722 167.46C86.5916 167.853 86.5916 168.246 86.722 168.508H86.5916C85.8092 168.77 85.1571 170.341 85.5483 171.258C85.8092 172.044 87.3741 172.568 88.1565 172.175C88.8086 171.913 89.3302 170.865 89.0694 170.341C88.939 170.079 88.939 169.948 88.8086 169.817C89.4606 169.686 90.1127 169.162 90.2431 168.639Z" fill="#1BA9F5"/>
<path d="M91.0258 112.186C91.1562 112.186 91.6779 112.055 91.6779 111.793C91.6779 111.531 91.4171 111.138 91.1562 111.007C91.0258 110.876 90.3738 111.007 90.2434 111.4C90.113 111.793 90.765 112.186 91.0258 112.186Z" fill="#1BA9F5"/>
<path d="M103.415 169.686C104.849 169.162 105.371 167.984 104.849 166.543C104.458 165.495 103.415 164.84 102.502 164.84C102.371 164.709 102.241 164.578 102.11 164.447C100.806 163.268 99.3719 163.53 98.459 164.578C97.0245 166.019 98.8503 167.198 97.6766 167.853C97.0245 167.329 95.8508 167.329 94.8076 167.591C93.5035 167.984 92.8514 169.162 93.2426 170.472C93.6339 171.913 95.4596 172.83 96.7637 172.437C96.8941 172.437 97.0245 172.306 97.1549 172.306C97.5462 172.568 97.9374 172.83 98.459 172.568C100.415 171.389 98.8502 169.948 99.3719 169.424C99.6327 169.031 100.415 168.769 101.067 168.508C101.328 169.555 102.241 170.079 103.415 169.686Z" fill="#1BA9F5"/>
<path d="M113.847 175.711C114.238 176.497 115.803 177.021 116.586 176.628C117.238 176.366 117.629 174.795 117.368 174.14C117.107 173.485 116.064 173.092 115.542 173.354C115.151 173.485 114.89 173.747 114.63 173.878C114.238 173.223 113.978 173.092 113.326 173.092C112.673 172.961 112.282 173.223 112.152 173.354C112.282 174.009 112.021 175.188 112.673 175.45C113.065 175.58 113.456 175.319 113.847 175.057C113.717 175.319 113.717 175.45 113.847 175.711Z" fill="#1BA9F5"/>
<path d="M78.7672 92.2767C78.2456 92.8006 78.1152 93.4555 78.376 94.1104C78.6368 94.6343 79.0281 94.8963 79.6801 94.7653C80.7234 94.5034 80.8538 93.7175 80.9842 92.6696C80.2017 92.2767 79.5497 91.4908 78.7672 92.2767Z" fill="#1BA9F5"/>
<path d="M84.7663 178.069C84.8967 178.462 85.0271 178.724 85.2879 178.986C85.4184 179.51 85.94 180.165 86.9833 180.427C88.5482 180.951 90.2435 179.641 89.8523 178.462C89.461 177.283 88.809 177.152 88.9394 176.759C89.0698 176.366 89.9827 175.842 89.7219 175.057C89.4611 174.271 86.9833 174.271 86.7224 174.402C86.3312 174.533 85.6792 175.449 85.0271 174.795C84.5055 174.14 84.3751 173.223 83.4622 172.961C82.5494 172.699 80.7236 172.175 79.8108 173.223C79.0283 174.14 79.9412 174.664 80.202 175.449C80.7236 175.973 81.1148 176.497 81.6365 177.021C81.7669 177.021 82.0277 177.021 82.1581 177.021C83.2014 176.89 84.1143 176.366 84.6359 176.497C84.7663 176.497 84.7663 176.497 84.8967 176.628C84.7663 177.283 84.6359 177.545 84.7663 178.069Z" fill="#1BA9F5"/>
<path d="M94.4162 179.772C95.0682 180.165 96.5027 178.986 96.5027 177.676C96.5027 176.89 96.1115 176.366 95.4594 176.104C94.677 175.843 93.5033 176.105 93.1121 176.628C93.2425 176.366 93.2425 176.104 93.1121 175.712C92.8512 174.926 92.0688 174.533 91.4167 174.795C90.7647 175.057 90.243 175.974 90.6343 176.628C90.8951 177.283 91.6776 177.545 92.3296 177.283C92.7208 177.152 92.9816 176.89 93.1121 176.759C93.1121 176.759 93.1121 176.759 93.1121 176.89C92.5904 178.331 93.7641 179.248 94.4162 179.772Z" fill="#1BA9F5"/>
<path d="M75.8982 154.493C76.159 155.278 77.3327 156.064 77.8543 155.802C77.9848 155.671 78.1152 155.54 78.2456 155.278C79.028 155.409 80.2017 154.493 80.4625 153.445C80.7233 152.659 80.3321 152.135 79.5497 151.873C78.1152 151.48 77.0719 151.873 76.8111 152.79C76.6807 152.79 76.6807 152.79 76.5503 152.79C76.0286 153.183 75.6374 153.838 75.8982 154.493Z" fill="#1BA9F5"/>
<path d="M64.8134 107.732C65.0742 106.816 64.4222 105.637 63.5093 105.375C62.5965 105.113 61.9444 105.375 61.6836 106.03C61.2924 106.947 62.0748 108.387 62.9877 108.649C63.5093 108.911 64.4222 108.518 64.8134 107.732Z" fill="#1BA9F5"/>
<path d="M61.423 116.115C61.2926 116.901 61.8143 117.818 62.5967 117.949C63.2488 118.08 63.9008 117.687 64.1617 117.032C64.1617 117.032 64.2921 117.032 64.2921 117.163C64.9441 117.294 65.857 116.901 66.1178 116.246C66.3786 115.591 65.857 114.805 65.0745 114.543C64.2921 114.282 63.64 114.674 63.3792 115.329C63.2488 115.329 63.2488 115.198 63.1184 115.198C62.4663 114.936 61.5535 115.46 61.423 116.115Z" fill="#1BA9F5"/>
<path d="M141.494 188.548C140.842 187.762 139.929 188.024 139.147 188.679C139.016 189.465 139.016 190.381 139.929 190.774C140.581 191.036 141.364 190.774 141.624 190.119C141.755 189.596 141.755 188.81 141.494 188.548Z" fill="#1BA9F5"/>
<path d="M69.3778 159.601C69.3778 159.339 69.117 159.208 68.9866 159.077C69.117 159.339 69.2474 159.601 69.3778 159.994C69.3778 159.732 69.3778 159.601 69.3778 159.601Z" fill="#1BA9F5"/>
<path d="M61.2924 124.891C62.0749 125.022 63.1181 124.367 63.2486 123.581C63.5094 122.664 62.4661 120.83 61.6836 120.699C61.0316 120.568 60.2491 121.092 59.8579 121.747C59.8579 122.533 59.8579 123.45 59.8579 124.236C60.3795 124.498 60.7708 124.76 61.2924 124.891Z" fill="#1BA9F5"/>
<path d="M139.408 202.17C138.625 201.384 137.321 200.86 136.539 201.122C135.495 201.515 134.843 202.301 134.713 203.218C136.799 203.349 139.016 203.48 141.233 203.48C141.233 203.218 141.233 203.087 141.233 202.825C140.842 202.301 140.06 201.908 139.408 202.17Z" fill="#1BA9F5"/>
<path d="M125.975 200.86C125.845 200.598 125.845 200.205 125.845 199.943C125.714 198.895 125.193 198.371 124.541 198.502C123.628 198.633 123.237 199.419 123.628 200.598C123.628 200.729 123.758 200.729 123.889 200.86C124.019 201.253 123.889 201.515 123.758 201.646C124.671 201.777 125.454 202.039 126.366 202.17C126.366 201.646 126.236 201.253 125.975 200.86Z" fill="#1BA9F5"/>
<path d="M162.881 200.598C163.142 200.598 163.403 200.467 163.664 200.467C163.403 200.336 163.142 200.467 162.881 200.598Z" fill="#1BA9F5"/>
<path d="M82.9401 110.09C82.1576 109.697 80.8536 109.697 80.7231 111.269C80.5927 112.841 81.8968 113.888 83.2009 114.15C84.505 114.412 86.5916 112.579 86.4612 111.007C86.4612 110.483 86.0699 110.09 85.5483 109.959C85.4179 109.697 85.0266 109.566 84.8962 109.435C84.7658 109.435 84.2442 109.566 84.2442 109.828C84.2442 109.959 84.2442 109.959 84.3746 110.09C83.5921 110.745 83.7226 110.483 82.9401 110.09Z" fill="#1BA9F5"/>
<path d="M142.928 173.223C143.189 173.092 143.581 172.961 143.45 172.437C143.32 171.913 142.928 172.044 142.798 172.044C142.537 172.175 141.885 172.437 142.016 172.83C142.146 173.223 142.798 173.354 142.928 173.223Z" fill="#1BA9F5"/>
<path d="M142.146 191.56C142.407 191.429 142.668 191.036 142.538 190.774C142.538 190.512 142.016 189.988 141.625 190.119C141.233 190.25 141.364 190.905 141.364 191.298C141.625 191.429 141.886 191.691 142.146 191.56Z" fill="#1BA9F5"/>
<path d="M141.625 179.772C142.146 180.034 142.929 179.641 143.19 179.117C143.45 178.462 143.189 178.069 141.755 177.545C140.581 178.069 140.973 179.51 141.625 179.772Z" fill="#1BA9F5"/>
<path d="M97.1547 187.238C96.1115 186.845 94.8074 187.369 94.0249 188.155C95.4594 189.203 96.8939 190.119 98.3284 191.036C98.4588 190.774 98.5892 190.512 98.7196 190.119C98.9805 188.941 98.3284 187.631 97.1547 187.238Z" fill="#1BA9F5"/>
<path d="M80.0712 164.316C78.6367 164.054 77.0717 164.971 76.8109 166.15C76.5501 167.722 77.3326 169.163 78.7671 169.555C79.0279 169.555 79.2887 169.686 79.5495 169.686C79.5495 169.817 79.6799 169.948 79.6799 170.079C79.9407 170.472 80.5928 171.389 81.1144 171.127C81.6361 170.865 81.7665 169.686 81.6361 169.163C81.5057 168.901 81.3753 168.77 81.2448 168.639C81.5057 168.377 81.6361 167.984 81.7665 167.46C82.1577 165.888 81.5057 164.578 80.0712 164.316Z" fill="#1BA9F5"/>
<path d="M73.1597 89.395C73.1597 89.657 72.8989 90.3119 73.4205 90.4429C73.8117 90.7048 74.203 90.0499 74.203 89.9189C74.203 89.657 74.0726 89.264 73.8117 89.1331C73.8117 89.1331 73.2901 89.264 73.1597 89.395Z" fill="#1BA9F5"/>
<path d="M83.5924 171.389C84.2445 171.52 84.7661 170.996 85.1574 170.603C85.5486 170.21 85.0269 169.424 84.5053 169.162C83.7228 168.901 83.2012 169.293 83.2012 169.817C83.0708 170.472 82.9404 171.258 83.5924 171.389Z" fill="#1BA9F5"/>
<path d="M77.3327 132.488C77.9847 132.619 78.7672 132.095 78.8976 131.309C79.028 130.654 78.6368 129.868 77.9847 129.737C77.2023 129.475 76.5502 129.868 76.2894 130.654C76.159 131.44 76.6806 132.226 77.3327 132.488Z" fill="#1BA9F5"/>
<path d="M77.0719 162.22C78.2456 162.482 79.5497 161.828 79.8105 160.649C80.2017 158.946 79.5497 157.374 78.2456 157.112C77.8543 156.981 77.4631 157.112 77.2023 157.112C77.3327 156.719 77.3327 156.326 77.2023 155.933C76.8111 155.148 76.2894 154.886 75.507 155.017C74.4637 155.148 74.4637 156.195 74.2029 157.112C74.7245 157.505 75.2462 157.898 75.7678 157.898C75.507 158.16 75.2462 158.553 75.1157 158.946C74.8549 160.256 75.8982 161.828 77.0719 162.22Z" fill="#1BA9F5"/>
<path d="M81.7668 158.684C81.506 159.863 82.5493 161.565 83.8533 161.827C85.1574 162.089 86.4615 161.434 86.7223 160.256V160.125H86.8528C87.7656 159.994 88.4177 158.946 88.2873 158.16C88.0264 157.374 86.9832 156.85 86.3311 157.112C86.2007 157.112 86.2007 157.243 86.0703 157.243C85.8095 156.85 85.5487 156.588 85.1574 156.588C83.8533 156.326 82.0276 157.505 81.7668 158.684Z" fill="#1BA9F5"/>
<path d="M77.8547 138.906C79.1588 139.299 79.9412 138.775 80.3325 137.334C80.5933 136.155 80.0716 134.976 79.2892 134.845C78.2459 134.714 76.8114 135.762 76.5506 136.81C76.2898 137.858 76.8114 138.644 77.8547 138.906Z" fill="#1BA9F5"/>
<path d="M84.5051 165.102C84.766 164.84 85.0268 164.316 85.0268 163.923C85.0268 163.268 83.8531 163.006 83.3315 163.399C83.0706 163.661 82.9402 164.185 82.8098 164.316C83.3315 165.102 83.9835 165.495 84.5051 165.102Z" fill="#1BA9F5"/>
<path d="M71.8556 127.904C70.5515 127.773 69.2474 128.558 68.9866 129.606C68.7258 130.785 68.9866 131.702 69.7691 132.357C69.2474 132.488 68.7258 132.75 68.3346 133.274C67.2913 134.846 67.5521 136.417 68.5954 137.072C69.2474 137.596 70.4211 137.596 71.334 137.203C71.334 137.858 71.7252 138.382 72.2468 138.644C72.8989 138.775 73.6813 138.251 73.9422 137.596C74.203 136.81 73.6813 136.024 73.0293 135.893C72.8989 135.893 72.8989 135.893 72.7685 135.893C73.1597 134.715 72.5077 133.798 71.986 133.274L71.8556 133.143C72.7685 133.012 73.2901 132.357 73.6813 131.178C73.8117 130.785 73.8117 130.392 73.8117 129.999C74.0726 130.13 74.4638 130.13 74.855 129.999C75.3767 129.868 75.6375 129.213 75.7679 128.689C75.8983 129.082 76.0287 129.344 76.1591 129.344C76.5503 129.475 77.3328 128.689 77.5936 128.297C77.9848 127.773 77.4632 127.118 76.8112 126.987C76.0287 126.725 75.6375 127.118 75.6375 127.773C75.6375 127.642 75.6375 127.642 75.5071 127.511C75.1158 126.856 74.0726 126.201 73.2901 126.332C72.1164 126.332 71.8556 127.511 71.8556 127.904Z" fill="#1BA9F5"/>
<path d="M73.5506 107.209C73.4201 107.34 73.681 107.863 73.9418 107.863C74.2026 107.863 74.7242 107.732 74.7242 107.47C74.8547 107.34 74.7242 106.554 74.333 106.423C74.0722 106.292 73.681 106.947 73.5506 107.209Z" fill="#1BA9F5"/>
<path d="M84.1141 139.43C83.9837 140.216 84.5053 140.87 85.2878 141.001C85.027 141.394 84.8965 141.787 84.8965 142.311C84.8965 142.966 84.8965 143.621 84.3749 144.145C83.5925 144.931 83.8533 145.979 84.1141 147.027C84.3749 147.943 85.4182 148.598 86.4615 148.598C86.5919 148.598 86.5919 148.598 86.7223 148.598C86.2006 148.991 85.8094 149.515 85.679 150.039C85.5486 150.956 86.2006 151.742 87.5047 152.004C88.4176 152.266 89.5913 151.742 89.8521 150.956C90.1129 149.908 89.3305 148.467 88.4176 148.205C88.2872 148.205 88.1568 148.205 88.0264 148.205C88.2872 147.943 88.548 147.682 88.6784 147.289C89.2001 146.241 89.0696 145.193 88.8088 144.276C88.6784 143.883 88.6784 143.49 88.8088 143.097C89.3305 141.656 88.9392 140.74 87.5047 140.347C87.6351 140.216 87.7656 140.085 87.7656 139.823C87.896 139.168 87.2439 138.513 86.331 138.251C85.1574 138.12 84.2445 138.513 84.1141 139.43Z" fill="#1BA9F5"/>
<path d="M86.9833 162.744C86.5921 163.006 85.8096 163.661 86.2009 164.316C86.5921 164.971 87.6354 164.84 88.0266 164.709C88.6786 164.578 88.6787 163.923 88.4178 163.268C88.2874 162.613 87.505 162.351 86.9833 162.744Z" fill="#1BA9F5"/>
<path d="M87.2442 123.974C87.8962 124.105 88.0266 123.581 88.157 123.188C88.2874 122.533 87.8962 121.878 87.2442 121.878C86.7225 121.878 86.3313 122.271 86.0705 122.271C85.9401 123.188 86.5921 123.843 87.2442 123.974Z" fill="#1BA9F5"/>
<path d="M84.8966 127.642C84.3749 127.642 83.9837 128.035 83.7229 128.035C83.4621 129.082 83.9837 129.737 84.7662 129.868C85.4182 129.999 85.5486 129.475 85.679 129.082C85.8094 128.297 85.5486 127.642 84.8966 127.642Z" fill="#1BA9F5"/>
<path d="M91.9386 185.535C92.3298 185.404 92.8515 185.142 92.9819 184.487C93.6339 184.487 94.1556 184.094 94.286 183.57C94.4164 182.784 93.8947 181.999 93.2427 181.868C92.9819 181.868 92.7211 181.868 92.4602 181.999C91.6778 181.082 90.3737 180.82 89.7216 181.475C88.9392 182.391 89.3304 183.046 88.8088 183.177C88.4175 183.177 87.8959 183.046 87.3743 183.177C88.548 184.225 89.8521 185.273 91.0257 186.321C91.2866 185.797 91.5474 185.535 91.9386 185.535Z" fill="#1BA9F5"/>
<path d="M131.844 194.835C133.017 195.489 135.234 195.882 136.93 194.18C137.973 193.132 138.234 192.084 138.103 191.036C137.843 189.857 136.408 189.726 135.756 188.547C134.191 186.059 132.105 186.845 130.67 188.155C130.148 188.678 129.888 189.202 129.757 189.857C129.627 190.774 129.888 191.56 130.54 192.346C131.061 193.263 130.931 194.311 131.844 194.835Z" fill="#1BA9F5"/>
<path d="M66.7695 91.2289C67.0303 90.8359 66.6391 90.312 66.2479 90.05C65.8566 90.8359 65.5958 91.7528 65.2046 92.5387C65.8566 92.6697 66.5087 91.6218 66.7695 91.2289Z" fill="#1BA9F5"/>
<path d="M72.1164 80.8813C72.8988 81.4053 73.8117 81.2743 74.5941 80.7504C75.3766 80.2264 75.507 79.4405 75.1158 78.6547C74.855 77.9998 74.5941 76.6899 73.6813 76.428C72.8988 77.6068 72.2468 78.6547 71.5947 79.8335C71.5947 80.2264 71.7251 80.6194 72.1164 80.8813Z" fill="#1BA9F5"/>
<path d="M62.0749 110.221C62.3357 109.173 61.9445 108.256 61.162 107.863C60.9012 109.173 60.7708 110.483 60.6404 111.793C61.4228 111.662 61.9445 111.138 62.0749 110.221Z" fill="#1BA9F5"/>
<path d="M109.022 196.275C109.283 195.882 109.414 195.358 109.153 194.835C108.892 194.049 107.979 193.787 107.327 194.049C106.805 194.311 106.414 195.097 106.545 195.751C107.718 196.275 108.892 196.799 110.066 197.323C109.805 196.799 109.414 196.537 109.022 196.275Z" fill="#1BA9F5"/>
<path d="M67.5522 155.933C67.6826 155.409 67.4218 154.885 66.9001 154.624C67.0306 155.016 67.2914 155.54 67.5522 155.933Z" fill="#1BA9F5"/>
<path d="M105.11 194.704C105.24 194.311 105.371 193.918 105.24 193.656C105.501 192.346 104.849 191.298 103.675 191.036C103.154 190.905 102.632 191.036 102.241 191.167C102.241 191.036 102.241 191.036 102.241 190.905C102.111 190.25 101.719 189.727 101.067 189.727C100.154 189.596 99.6328 190.119 99.1112 190.774C98.9807 191.036 98.8503 191.167 98.8503 191.429C100.937 192.739 103.023 193.918 105.11 194.966C104.98 194.835 104.98 194.704 105.11 194.704Z" fill="#1BA9F5"/>
<path d="M124.802 193.787C126.628 193.394 127.54 192.215 127.41 191.036C127.28 189.857 125.454 188.417 124.15 188.81C122.585 189.203 122.194 190.512 122.194 191.429C122.063 192.346 122.976 194.18 124.802 193.787Z" fill="#1BA9F5"/>
<path d="M129.105 172.175C129.105 171.651 128.844 170.603 128.062 170.341C127.41 169.948 126.758 169.293 126.106 169.555C125.584 169.817 125.323 170.079 125.193 170.341C125.062 170.734 124.671 170.996 124.671 171.651C124.671 172.306 125.062 173.485 125.845 173.878C126.627 174.402 127.41 174.271 128.192 173.878C128.975 173.485 129.105 172.699 129.105 172.175Z" fill="#1BA9F5"/>
<path d="M109.022 162.613C109.805 162.351 110.196 161.042 109.805 159.863C109.544 159.077 109.022 158.946 108.37 159.208C107.457 159.47 106.675 160.518 106.936 161.303C107.196 162.089 108.37 162.875 109.022 162.613Z" fill="#1BA9F5"/>
<path d="M129.627 159.339C129.236 159.47 129.236 159.863 129.366 159.994C129.496 160.256 129.757 160.78 130.279 160.649C130.801 160.518 130.54 159.863 130.54 159.732C130.279 159.47 130.018 159.208 129.627 159.339Z" fill="#1BA9F5"/>
<path d="M129.888 187.5C130.54 187.369 130.67 186.845 130.54 186.19C130.409 185.666 130.018 185.142 129.366 185.273C128.714 185.404 128.192 186.19 128.453 187.107C128.844 187.369 129.496 187.631 129.888 187.5Z" fill="#1BA9F5"/>
<path d="M131.714 155.278C130.801 155.54 130.149 156.588 130.54 157.243C130.931 157.898 133.148 157.767 133.67 157.112C133.931 156.457 132.626 155.147 131.714 155.278Z" fill="#1BA9F5"/>
<path d="M134.974 176.89C135.365 176.89 135.626 176.366 135.495 175.45C135.365 174.533 134.843 174.009 133.93 174.009C132.887 174.009 131.844 175.057 131.974 176.235C131.974 177.414 132.757 177.545 132.626 178.331C132.626 179.117 133.017 179.379 133.8 179.641C134.582 179.903 135.756 180.165 136.147 179.117C136.539 178.069 135.756 177.676 135.365 177.545C134.974 177.676 134.582 177.021 134.974 176.89Z" fill="#1BA9F5"/>
<path d="M136.278 163.792C137.321 163.137 137.973 161.958 137.712 161.303C137.451 160.78 136.93 160.518 136.278 160.518C135.104 160.649 134.843 161.042 134.713 162.482C133.93 163.137 133.278 163.53 132.626 164.185C132.105 164.84 132.496 165.888 133.278 165.757C134.191 165.626 135.365 165.888 136.147 164.971C136.147 164.709 136.278 164.185 136.278 163.792Z" fill="#1BA9F5"/>
<path d="M143.972 190.643C144.233 191.691 145.667 192.739 146.45 192.477C147.493 192.215 148.406 190.774 148.015 189.726C147.754 188.678 146.189 188.024 144.885 188.417C144.102 188.678 143.711 189.595 143.972 190.643Z" fill="#1BA9F5"/>
<path d="M162.621 196.145C162.882 196.014 162.882 195.883 163.012 195.752H163.142C164.055 195.49 164.838 194.442 164.577 193.656C164.316 192.739 163.142 191.953 162.36 192.084C161.577 192.215 161.186 193.394 161.317 194.573C161.056 194.835 160.925 195.359 160.665 195.621C161.056 196.276 161.969 196.537 162.621 196.145Z" fill="#1BA9F5"/>
<path d="M134.322 200.598C133.8 199.55 132.757 199.026 131.975 199.419C131.844 199.419 131.714 199.55 131.714 199.681C131.583 199.026 131.192 198.371 130.67 197.716C130.018 196.93 128.062 197.061 127.41 197.847C126.758 198.633 127.019 200.729 128.323 201.384C129.236 201.908 130.149 201.908 130.801 201.515C130.801 201.908 130.801 202.301 130.931 202.694C130.931 202.694 130.931 202.824 131.062 202.824C131.975 202.955 132.887 203.086 133.8 203.217C134.583 202.563 134.713 201.646 134.322 200.598Z" fill="#1BA9F5"/>
<path d="M143.581 203.479C144.102 203.479 144.754 203.479 145.276 203.479C144.885 203.217 144.233 203.217 143.581 203.479Z" fill="#1BA9F5"/>
<path d="M186.485 185.404C186.224 185.666 186.746 186.583 187.007 186.714C187.268 186.845 187.92 186.583 188.05 186.452C188.18 186.19 188.05 185.666 187.789 185.404C187.659 185.142 186.746 185.011 186.485 185.404Z" fill="#1BA9F5"/>
<path d="M144.754 198.895C144.233 199.026 143.711 199.419 143.972 200.074C144.102 200.729 145.015 201.253 145.537 200.991C145.928 200.729 146.841 199.943 146.45 199.288C146.189 198.633 145.276 198.764 144.754 198.895Z" fill="#1BA9F5"/>
<path d="M176.053 186.19C177.226 185.666 177.878 183.832 177.357 182.653C176.705 181.344 175.14 180.558 173.966 181.082C172.923 181.606 172.01 183.963 172.401 185.011C172.923 186.321 174.748 186.845 176.053 186.19Z" fill="#1BA9F5"/>
<path d="M166.663 192.477C166.924 192.346 167.446 191.822 167.315 191.56C167.185 191.298 166.403 191.167 166.142 191.298C165.881 191.429 165.62 191.822 165.751 192.215C165.881 192.477 166.403 192.608 166.663 192.477Z" fill="#1BA9F5"/>
<path d="M158.447 184.618C158.578 184.618 158.839 184.094 158.708 183.832C158.578 183.57 158.056 183.57 157.795 183.57C157.665 183.57 157.143 184.094 157.274 184.356C157.535 184.88 158.187 184.749 158.447 184.618Z" fill="#1BA9F5"/>
<path d="M150.362 180.689C149.58 179.903 148.145 179.51 147.363 180.034C146.32 180.558 145.798 181.605 145.667 182.784C145.667 183.177 145.798 183.701 146.059 183.963C147.102 185.011 148.536 185.011 149.71 184.094C149.971 183.963 150.232 183.701 150.493 183.57C150.884 184.094 151.145 184.487 151.536 184.88C152.318 185.666 152.84 185.666 153.622 185.142C154.405 184.618 154.666 183.832 154.535 182.915C154.405 181.998 153.622 181.605 152.84 181.475C152.188 181.344 151.666 181.475 151.014 181.606C150.753 181.213 150.493 180.951 150.362 180.689Z" fill="#1BA9F5"/>
<path d="M125.845 180.951C126.236 180.82 126.367 180.689 126.367 180.296C126.236 179.903 126.106 179.772 125.715 179.772C125.323 179.903 125.193 180.034 125.323 180.427C125.193 180.82 125.323 180.951 125.845 180.951Z" fill="#1BA9F5"/>
<path d="M143.059 198.633C143.059 198.502 143.189 198.502 143.189 198.371C143.841 198.764 145.015 198.895 145.667 198.633C146.319 198.371 146.58 197.585 146.319 196.799C145.798 195.621 144.754 194.966 143.972 195.359C143.32 195.621 142.798 196.144 142.668 196.799C142.277 196.537 141.625 196.537 141.233 196.799C140.451 197.323 140.581 198.24 140.842 199.026C141.625 199.157 142.407 199.681 143.059 198.633Z" fill="#1BA9F5"/>
<path d="M153.492 176.366C153.753 175.712 153.231 174.533 152.057 174.795C151.014 175.319 151.405 176.628 151.927 176.89C152.449 177.283 153.362 176.89 153.492 176.366Z" fill="#1BA9F5"/>
<path d="M154.535 197.061C155.448 196.799 156.1 195.489 155.709 194.442C155.448 193.394 154.666 193.132 153.362 193.525C152.579 193.787 151.927 194.573 151.797 195.228C151.666 195.228 151.666 195.228 151.536 195.228C150.753 195.489 150.362 196.144 150.493 197.192C150.623 197.716 150.623 198.24 150.493 198.764C150.232 199.681 150.362 200.467 151.014 201.122C151.536 201.646 153.362 201.253 153.883 200.598C154.405 199.943 154.927 199.419 154.275 198.502C154.014 198.109 153.753 197.716 153.492 197.192C153.883 197.061 154.275 197.192 154.535 197.061Z" fill="#1BA9F5"/>
<path d="M151.797 187.107C151.536 187.893 151.536 187.631 150.753 187.762C149.971 187.893 148.928 188.81 149.71 189.988C150.492 191.298 152.318 191.298 153.492 190.643C154.666 190.119 155.187 187.369 154.144 186.19C153.361 185.404 152.057 186.321 151.797 187.107Z" fill="#1BA9F5"/>
<path d="M119.455 200.336C119.716 200.205 120.107 199.681 119.976 199.419C119.976 199.288 119.846 199.026 119.716 198.764C120.237 198.764 120.628 198.502 120.889 198.24C121.411 197.716 121.281 197.061 121.15 196.406C121.02 195.751 121.02 195.228 120.237 194.835C119.324 194.442 118.151 195.097 117.89 196.013C117.759 196.406 117.759 196.93 117.89 197.454C117.107 197.847 116.586 198.633 116.977 199.419C117.107 199.55 117.238 199.681 117.368 199.812C118.02 199.943 118.672 200.205 119.194 200.336C119.324 200.467 119.324 200.467 119.455 200.336Z" fill="#1BA9F5"/>
<path d="M112.804 129.999C112.413 130.13 112.282 131.047 112.413 131.309C112.543 131.571 113.195 131.833 113.456 131.702C113.717 131.571 113.978 131.047 113.978 130.785C113.847 130.392 113.195 129.868 112.804 129.999Z" fill="#1BA9F5"/>
<path d="M122.716 164.185C122.976 164.185 123.368 163.792 123.368 163.661C123.368 163.399 123.107 162.875 122.846 162.875C122.585 162.875 121.933 162.875 121.933 163.399C121.803 164.054 122.455 164.185 122.716 164.185Z" fill="#1BA9F5"/>
<path d="M117.108 145.062C116.717 145.062 116.195 145.324 116.064 145.717C115.804 146.241 116.195 146.896 116.717 147.027C117.108 147.027 118.151 147.027 118.281 146.241C118.412 145.324 117.499 145.193 117.108 145.062Z" fill="#1BA9F5"/>
<path d="M114.369 157.767C114.239 157.767 113.978 157.767 113.848 157.898C113.196 158.16 112.804 159.077 113.196 159.732C113.456 160.387 114.369 160.911 115.021 160.649C115.543 160.518 116.065 159.732 116.065 159.208C116.325 159.077 116.586 158.946 116.717 158.684C117.108 157.767 116.978 156.981 115.673 156.85C114.891 156.85 114.5 157.243 114.369 157.767Z" fill="#1BA9F5"/>
<path d="M105.371 118.997C104.197 118.735 102.111 120.045 101.85 121.223C101.459 122.402 102.502 123.974 103.936 124.236C105.11 124.498 106.805 123.45 107.066 122.271C107.457 120.83 106.544 119.259 105.371 118.997Z" fill="#1BA9F5"/>
<path d="M110.587 147.944C110.457 148.075 110.326 148.206 110.196 148.337C110.196 148.206 110.065 148.206 109.935 148.075C109.153 147.682 107.718 148.86 107.848 149.515C107.979 150.039 109.544 150.563 110.196 150.17C110.717 150.694 111.761 150.694 112.152 149.908C112.282 149.515 111.761 148.729 111.369 148.206C111.369 148.075 111.109 147.682 110.587 147.944Z" fill="#1BA9F5"/>
<path d="M107.066 134.321C105.893 134.06 104.719 134.845 104.328 136.024C103.936 137.596 104.849 139.037 106.284 139.299C107.588 139.561 108.631 139.037 108.892 137.858C109.283 136.548 108.24 134.583 107.066 134.321Z" fill="#1BA9F5"/>
<path d="M113.065 162.744C113.326 162.875 113.978 162.744 114.108 162.22C114.239 161.697 113.848 161.304 113.587 161.173C113.326 161.042 112.413 160.911 112.283 161.566C111.891 162.22 112.804 162.613 113.065 162.744Z" fill="#1BA9F5"/>
<path d="M117.368 154.1C116.847 154.231 116.586 154.755 116.716 155.409C116.847 156.064 117.499 156.457 118.02 156.326C118.672 156.064 119.064 155.409 118.933 154.755C118.542 154.1 118.02 153.838 117.368 154.1Z" fill="#1BA9F5"/>
<path d="M111.109 172.175C110.979 172.175 110.587 172.175 110.587 172.306C110.457 172.437 110.718 172.568 110.848 172.699C110.979 172.568 111.239 172.568 111.37 172.437C111.239 172.437 111.109 172.175 111.109 172.175Z" fill="#1BA9F5"/>
<path d="M107.197 184.225C107.718 184.487 108.631 183.832 108.631 183.177C108.631 182.784 108.24 182.391 108.109 182.26C107.197 182.129 106.414 182.522 106.545 183.177C106.545 183.57 106.805 184.094 107.197 184.225Z" fill="#1BA9F5"/>
<path d="M110.457 180.951C110.979 180.689 111.239 179.379 110.848 178.724C110.587 178.2 109.935 178.069 109.283 178.462C108.37 179.117 107.849 179.772 108.11 180.296C108.37 180.82 109.805 181.213 110.457 180.951Z" fill="#1BA9F5"/>
<path d="M120.889 162.089C120.629 161.303 118.933 160.256 118.281 160.518C117.238 160.911 116.977 161.696 117.499 163.006C117.89 164.054 118.673 164.316 119.977 163.792C120.629 163.53 121.02 162.875 120.889 162.089Z" fill="#1BA9F5"/>
<path d="M112.283 166.15C112.935 166.019 113.717 165.757 114.369 165.495C115.021 165.233 115.021 164.84 114.76 164.185C114.63 164.054 114.369 163.923 114.108 163.923C113.456 164.185 112.804 163.923 112.152 163.661C111.891 163.53 111.239 163.923 110.978 164.316C110.848 164.709 110.848 165.364 110.978 165.626C111.37 166.019 112.022 166.281 112.283 166.15Z" fill="#1BA9F5"/>
<path d="M118.412 171.651C119.194 171.258 120.237 169.424 119.977 168.769C119.585 167.984 118.151 167.591 116.977 167.983C115.934 168.376 115.673 169.293 116.195 170.603C116.586 171.389 117.76 171.913 118.412 171.651Z" fill="#1BA9F5"/>
<path d="M101.328 145.455C101.198 146.11 102.241 146.765 103.414 146.634C104.588 146.503 104.458 144.931 104.197 144.538C103.806 144.014 101.458 144.931 101.328 145.455Z" fill="#1BA9F5"/>
<path d="M115.804 198.895C115.673 198.895 115.282 198.895 115.152 199.026C115.543 199.157 116.064 199.288 116.456 199.419C116.325 199.288 115.934 199.026 115.804 198.895Z" fill="#1BA9F5"/>
<path d="M104.458 189.988C105.11 191.56 106.545 192.346 107.979 191.691C109.022 191.298 109.544 190.512 109.414 189.464C109.544 189.595 109.674 189.726 109.935 189.857C110.587 190.119 111.761 189.595 111.891 188.809C112.022 188.286 111.631 187.762 110.978 187.238C110.978 186.845 110.978 186.321 110.848 185.928C110.457 184.749 108.762 183.963 107.588 184.356C107.197 184.487 106.805 184.749 106.545 185.142C106.414 185.011 106.284 184.88 106.023 184.88C105.24 184.88 104.849 185.797 104.588 186.19C104.458 186.714 104.719 186.976 105.11 187.107C104.588 188.024 104.197 189.202 104.458 189.988Z" fill="#1BA9F5"/>
<path d="M98.3288 150.039C97.2856 150.039 96.1119 151.218 95.9815 152.266C95.8511 152.921 95.9815 153.445 96.6335 153.707C98.1984 154.231 99.6329 154.624 101.328 154.1C101.589 153.969 101.85 153.838 101.98 153.707C103.154 152.528 102.893 150.956 101.328 150.563C100.285 150.17 99.2417 150.039 98.3288 150.039Z" fill="#1BA9F5"/>
<path d="M121.151 176.759C121.02 176.497 120.368 176.497 120.107 176.759C119.846 177.021 119.846 177.414 120.107 177.676C120.368 177.938 120.89 177.938 121.151 177.807C121.411 177.676 121.281 177.021 121.151 176.759Z" fill="#1BA9F5"/>
<path d="M123.367 187.238C124.802 186.976 125.584 186.059 125.715 184.225C125.193 183.963 124.802 183.439 124.28 183.308C123.367 182.915 122.193 183.308 121.802 183.963C121.281 184.88 121.281 186.19 122.063 186.845C122.324 187.107 122.976 187.369 123.367 187.238Z" fill="#1BA9F5"/>
<path d="M118.151 183.701C118.412 184.094 118.803 184.487 119.194 184.487C119.976 184.749 120.629 184.225 120.759 183.439C120.889 182.654 120.629 181.999 119.846 181.868C119.716 181.868 119.455 181.868 119.194 181.868C119.324 181.606 119.324 181.213 119.194 181.082C118.803 180.165 117.89 179.772 116.716 180.165C115.543 180.558 115.282 181.213 115.673 182.523C116.064 183.701 116.847 184.225 117.629 183.963C118.02 183.701 118.02 183.701 118.151 183.701Z" fill="#1BA9F5"/>
<path d="M105.501 179.248C104.849 178.593 104.328 177.938 103.415 178.724C102.632 179.379 102.893 180.165 103.415 180.82C104.588 180.82 105.24 180.427 105.501 179.248Z" fill="#1BA9F5"/>
<path d="M117.499 190.512C116.586 188.679 115.934 188.679 113.978 189.203C112.804 189.465 112.283 191.036 112.674 192.215C113.065 193.263 114.891 193.787 116.325 193.263C117.499 192.87 118.021 191.691 117.499 190.512Z" fill="#1BA9F5"/>
<path d="M100.806 183.963V184.094C101.067 184.88 101.589 185.142 102.371 185.011C103.154 184.749 103.545 183.963 103.415 183.308C103.284 182.785 102.893 182.523 102.371 182.523C102.241 181.737 101.458 180.689 100.676 180.427C99.8936 180.296 98.5895 181.213 98.4591 182.13C98.3287 182.785 98.8503 183.832 99.5024 183.963C100.024 184.094 100.415 184.094 100.806 183.963Z" fill="#1BA9F5"/>
<path d="M93.6342 139.299C92.9822 139.168 92.1997 139.561 91.9389 140.347C91.678 141.132 92.0693 141.918 92.8517 142.18C93.6342 142.442 94.4167 141.918 94.6775 141.263C94.8079 140.478 94.2863 139.561 93.6342 139.299Z" fill="#1BA9F5"/>
<path d="M97.1549 133.667C96.5029 133.405 95.7204 133.667 95.4596 134.321C95.3292 134.714 95.3292 135.238 95.4596 135.631C95.8509 136.417 96.5029 136.417 97.9374 135.762C97.9374 134.976 98.3286 134.059 97.1549 133.667Z" fill="#1BA9F5"/>
<path d="M94.1557 143.359C93.1124 143.752 92.982 145.193 93.3733 145.848C93.8949 146.503 95.199 146.503 95.7206 145.455C95.9815 145.062 95.8511 144.145 95.4598 143.752C95.3294 143.359 94.547 143.228 94.1557 143.359Z" fill="#1BA9F5"/>
<path d="M98.9806 183.832C98.459 182.523 97.6765 182.261 96.242 182.784C95.1987 183.177 94.5467 184.225 94.8075 185.011C95.1987 186.059 97.1549 186.845 98.3286 186.321C99.111 186.059 99.3718 184.88 98.9806 183.832Z" fill="#1BA9F5"/>
<path d="M93.1121 122.271C92.8513 122.271 92.3297 122.402 92.1992 122.664C92.0688 123.057 92.4601 123.319 92.7209 123.45C92.9817 123.581 93.7642 123.45 93.7642 123.057C93.8946 122.795 93.2425 122.271 93.1121 122.271Z" fill="#1BA9F5"/>
</g>
<circle cx="231" cy="247.164" r="5" fill="#1BA9F5"/>
<circle cx="45" cy="5.16406" r="5" fill="#1BA9F5"/>
<defs>
<clipPath id="clip0">
<rect width="223" height="219" fill="white" transform="translate(0 13.1641)"/>
</clipPath>
</defs>
</svg>
