<?xml version="1.0" encoding="utf-8"?>
<!-- Generator: Adobe Illustrator 25.0.0, SVG Export Plug-In . SVG Version: 6.00 Build 0)  -->
<svg version="1.1" id="Layer_1" xmlns="http://www.w3.org/2000/svg" xmlns:xlink="http://www.w3.org/1999/xlink" x="0px" y="0px"
	 viewBox="0 0 680 400" style="enable-background:new 0 0 680 400;" xml:space="preserve">
<style type="text/css">
	.st0{fill:#E6EBF2;}
	.st1{fill:#D3DAE0;}
	.st2{fill:#F04E98;}
	.st3{fill:#E32682;}
	.st4{fill:#FF957D;}
	.st5{fill:none;}
</style>
<g>
	<path class="st0" d="M22.6,201.9c-0.5-0.2-1.6,0.4-1.8,0.8c-0.2,0.6,0.2,1.1,1,1.3c0.6,0.2,1.1-0.2,1.2-1
		C23.2,202.6,23,202.1,22.6,201.9z"/>
	<path class="st0" d="M22.6,210.7c-0.2,0.4,0.1,1.2,0.5,1.4c0.4,0.2,1.1-0.2,1.2-0.5c0.2-0.4,0-0.7-0.4-0.9
		C23.3,210.4,22.8,210.4,22.6,210.7z"/>
	<path class="st0" d="M20.4,207.8c0.1,0.3,0.4,0.4,0.7,0.4c0.2,0,0.4-0.3,0.5-0.4c0.2-0.4,0.3-0.9,0.4-1.3s-0.1-0.6-0.5-0.7
		c-0.1,0.1-0.3,0.1-0.4,0.3c-0.2,0.4-0.4,0.6-0.8,0.9C20.3,207.1,20.3,207.5,20.4,207.8z"/>
	<path class="st0" d="M17.5,212.6c-0.3,0.7,0.4,1.6,1.4,1.9c0.7,0.2,1.3-0.2,1.5-0.9c0.3-0.9-0.2-1.6-1.1-1.9
		C18.5,211.5,17.6,211.9,17.5,212.6z"/>
	<path class="st0" d="M23,194c-0.2,0.5,0.2,1.2,0.6,1.3c0.4,0.1,1.2-1.1,1-1.7C24.4,193.2,23.1,193.5,23,194z"/>
	<path class="st0" d="M24.6,196.8c0.2,0,0.5,0,0.6-0.3s-0.4-0.4-0.4-0.4c-0.2,0-0.4,0.1-0.5,0.4C24.2,196.7,24.5,196.8,24.6,196.8z"
		/>
	<path class="st0" d="M24.3,190.5c-0.4,0.2-0.4,0.4,0,1.3c0.7,0.3,1.2-0.5,1-0.9C25.1,190.6,24.6,190.5,24.3,190.5z"/>
	<path class="st0" d="M12.4,237c0-0.4-0.2-0.7-0.4-0.9c-0.3-0.2-0.9,0.2-0.9,0.6c0,0.3,0.2,0.5,0.3,0.7
		C11.9,237.6,12.4,237.4,12.4,237z"/>
	<path class="st0" d="M12.6,241.6c0.2-0.2,0-0.6-0.1-0.7c-0.1-0.1-0.4-0.2-0.6-0.1c-0.2,0.1-0.1,0.4,0,0.6S12.3,241.8,12.6,241.6z"
		/>
	<path class="st0" d="M29.6,186.3c-0.3,0.1-0.6,0.4-0.6,0.7c0,0.6,0.5,0.9,1.2,1c0.4-0.4,0.8-0.7,0.5-1.2
		C30.5,186.3,30,186.1,29.6,186.3z"/>
	<path class="st0" d="M18.9,221.6c-0.1,0.4,0.2,1,0.6,1.1s0.8-0.2,1-0.6c0.1-0.4-0.1-0.9-0.5-1C19.5,220.9,19,221.1,18.9,221.6z"/>
	<path class="st0" d="M12.4,224.6c-0.4-0.1-0.7,0.2-0.8,0.6c-0.1,0.4,0.3,0.7,0.5,0.7s1.1,0,1.1-0.4S12.7,224.7,12.4,224.6z"/>
	<path class="st0" d="M17.5,225.2c0,0.5,0.3,0.8,0.7,1c0.6,0.2,1.4,0,1.6-0.4c0.4-0.9-0.4-1.5-0.9-1.8
		C18.4,223.6,17.5,224.4,17.5,225.2z"/>
	<path class="st0" d="M13,244.5c-0.7,0.1-0.6,1.1-0.4,1.3c0.2,0.3,1.6-0.2,1.8-0.6C14.5,244.8,13.7,244.3,13,244.5z"/>
	<path class="st0" d="M13.9,237c0.4,0.1,0.9-0.2,1-0.6c0.1-0.4-0.2-0.8-0.5-0.8s-0.7,0.1-0.8,0.4C13.3,236.1,13.5,237,13.9,237z"/>
	<path class="st0" d="M141.8,110.3c-0.1,0.1-0.2,0.2-0.2,0.4c0.6-0.2,1.3-0.3,1.9-0.4C142.9,109.7,142.2,109.8,141.8,110.3z"/>
	<path class="st0" d="M80.9,133.8c-0.5,0.5-0.4,1.2,0.2,1.9c0.4,0.4,1.1,0.4,1.6-0.3c0.4-0.5,0.5-1.1,0.2-1.4
		C82.5,133.6,81.2,133.5,80.9,133.8z"/>
	<path class="st0" d="M80.9,138.5c-0.2,0.1-0.3,0.3-0.3,0.4c0.3-0.2,0.4-0.4,0.7-0.5C81.2,138.4,81,138.5,80.9,138.5z"/>
	<path class="st0" d="M56.7,162c0.1-0.1,0.2-0.3,0.4-0.4C56.9,161.7,56.8,161.8,56.7,162z"/>
	<path class="st0" d="M49.1,159.8c-0.1,0.2-0.2,0.4,0,0.6c0.2,0.2,0.4,0.1,0.4,0c0.1-0.2,0.3-0.4,0.1-0.7
		C49.5,159.3,49.1,159.7,49.1,159.8z"/>
	<path class="st0" d="M82,137.8c0.6-0.4,1.3-1,1.9-1.4h-0.1C82.7,136.8,82.1,137.1,82,137.8z"/>
	<path class="st0" d="M21.5,263.4c-0.4,0.4-0.6,1.2-0.4,1.7c0.1,0.2,0.3,0.4,0.4,0.4C21.6,264.8,21.5,264.1,21.5,263.4z"/>
	<path class="st0" d="M10.4,228.7c-0.2,0.7,0.4,1.5,1,1.7c0.4,0.2,1.2-0.4,1.4-1.1c0.2-0.6-0.1-1.2-0.7-1.4
		C11.4,227.7,10.5,228.1,10.4,228.7z"/>
	<path class="st0" d="M47.7,164.4c-0.2,0.4,0.2,1,0.7,1.2c0.2-0.2,0.6-0.3,0.8-0.6c0.3-0.4-0.1-1-0.6-1.1
		C48.3,163.7,47.9,163.9,47.7,164.4z"/>
	<path class="st0" d="M39,185.7c-0.6,0-1.1,1-1.1,1.9c0,0.4,0.4,0.9,0.9,1.1c0.4-0.9,0.9-1.7,1.3-2.6
		C39.9,185.8,39.4,185.6,39,185.7z"/>
	<path class="st0" d="M37.9,180.3c-0.7-0.4-1.7,0.1-2,0.9c-0.4,0.7,0.1,1.9,0.8,2.2c0.8,0.4,1.9,0.1,2.1-0.6
		C39.1,182.1,38.6,180.6,37.9,180.3z"/>
	<path class="st0" d="M39.9,177.1c-0.4-0.2-1.1,0-1.2,0.4c-0.2,0.4,0.1,1.2,0.4,1.3c0.4,0.2,1.1-0.1,1.3-0.5
		C40.6,177.8,40.4,177.3,39.9,177.1z"/>
	<path class="st0" d="M33.5,186.4c-0.9,0-1.5,0.4-1.9,0.9c-0.4,0.6,0.2,1.3,0.1,2.1c-0.4,1.8,1,2.3,2.2,2.3c0.4,0,0.8-0.2,1.2-0.4
		c0.4-0.4,0.6-0.8,0.7-1.4c0.1-0.6,0.5-1.1,0.4-1.7C35.8,187.4,35,186.3,33.5,186.4z"/>
	<path class="st0" d="M46.3,165.5c-0.4-0.2-1,0-1.2,0.4c-0.2,0.4,0.1,1.1,0.6,1.2c0.4,0.2,1-0.1,1.2-0.5
		C47,166.2,46.7,165.7,46.3,165.5z"/>
	<path class="st0" d="M44.6,161.7c-0.1,0.5,0.1,0.9,0.5,1.1c0.7,0.2,1.3-0.4,1.4-0.7c0.1-0.3-0.4-1.1-1.2-1.1
		C45,160.9,44.7,161.3,44.6,161.7z"/>
	<path class="st0" d="M32.6,181.8c-0.1,0-0.1,0.1-0.2,0.1c-0.2-0.4-0.6-1.1-1.1-1.2c-0.4-0.2-0.9,0.1-1.1,0.5
		c-0.3,0.7-0.1,1.5,0.4,1.7c0.4,0.2,0.9,0.1,1.2-0.1c0.1,0.3,0.4,0.5,0.7,0.6c0.6,0.1,0.9-0.4,1.2-0.9
		C33.6,182.1,33.3,181.5,32.6,181.8z"/>
	<path class="st0" d="M46.8,158.7c-0.5,0-0.9,1.1-0.5,1.6s1.2,0.5,1.4,0.2C47.9,160,47.2,158.7,46.8,158.7z"/>
	<path class="st0" d="M142,103.8c0.4,0,0.7-0.1,0.8-0.4c0.2-0.6-0.2-1-0.7-1.3c-0.5,0.3-1.1,0.4-1,1.1
		C141.2,103.5,141.5,103.8,142,103.8z"/>
	<path class="st0" d="M136.9,110.3c0.2-0.3-0.1-1-0.3-1.2c-0.2-0.3-0.8-0.3-1,0.1c-0.3,0.3-0.4,0.7,0,0.9
		C135.9,110.3,136.6,110.6,136.9,110.3z"/>
	<path class="st0" d="M132.9,102.9c0.5-0.3,0.8-0.7,0.7-1.3c0-0.6-0.4-0.9-1-1c-0.4-0.1-1.3-0.4-1.7,0.1c-0.4,0.5,0.2,0.7,0.2,1.1
		C131.3,102.6,132.3,103.2,132.9,102.9z"/>
	<path class="st0" d="M126.9,111.1c-0.3,0.4-0.3,0.9,0.1,1.1c0.5,0.4,1.4,0.1,1.6-0.2s0-1.2-0.6-1.5
		C127.6,110.5,127.2,110.7,126.9,111.1z"/>
	<path class="st0" d="M127.3,102.4c0.3-0.3,0.4-0.8,0.1-1.1c-0.3-0.4-0.9-0.4-1.2-0.1c-0.3,0.4-0.4,0.8-0.1,1.1
		C126.4,102.6,127,102.7,127.3,102.4z"/>
	<path class="st0" d="M138.4,105.3c0.3-0.2,0.1-0.5,0-0.6c-0.2-0.1-0.4-0.2-0.5-0.1c-0.1,0-0.2,0.4-0.1,0.4
		C138,105.2,138.1,105.5,138.4,105.3z"/>
	<path class="st0" d="M42.5,336.2c-0.3-0.4-0.4-0.8-0.7-1.1c-0.1,0.2-0.1,0.4,0,0.7C42,335.9,42.3,336.1,42.5,336.2z"/>
	<path class="st0" d="M152.9,105.9c0.1-0.1,0.3-0.4,0.1-0.6c-0.2-0.2-0.5,0-0.7,0.2c-0.1,0.1-0.2,0.4,0,0.5
		C152.4,106,152.7,106,152.9,105.9z"/>
	<path class="st0" d="M21,268.7c0.4-0.3,0.4-0.7,0.2-1.1c-0.2-0.4-0.4-0.5-0.8-0.4c-0.6,0.2-0.7,0.7-0.8,1.3
		C20.1,268.8,20.6,269.1,21,268.7z"/>
	<path class="st0" d="M39.4,332.2c0.3-0.1,0.5-0.3,0.7-0.4c-0.4-0.6-0.7-1.2-1.1-1.9c-0.2,0-0.4,0-0.5,0.1c-0.7,0.3-1.2,1.1-0.9,1.5
		C37.8,331.9,38.8,332.4,39.4,332.2z"/>
	<path class="st0" d="M117.4,106.9c0.1-0.2,0.4-0.4,0.2-0.6c-0.2-0.2-0.4-0.1-0.6,0c-0.1,0.1-0.4,0.5-0.2,0.7
		C117,107.1,117.3,107,117.4,106.9z"/>
	<path class="st0" d="M124.8,108.6c0.6-0.5,0.7-1.6,0.3-1.9c-0.4-0.4-1.2-0.3-1.7,0.2c-0.4,0.4-0.4,1.1,0.1,1.7
		C124,108.9,124.4,108.9,124.8,108.6z"/>
	<path class="st0" d="M114,108.7c0.4-0.4,0.4-0.8,0.2-1.1c-0.3-0.3-0.6-0.4-0.9-0.1c-0.2,0.3-0.3,0.7-0.1,0.9
		C113.2,108.7,113.7,108.7,114,108.7z"/>
	<path class="st0" d="M115.7,117c0.4,0.4,1,0,1.2-0.2c0.4-0.2,0.4-0.6,0-1c-0.4-0.4-0.7-0.4-1,0C115.9,116.1,115.4,116.6,115.7,117z
		"/>
	<path class="st0" d="M122.5,115.4c0.6-0.6,0.6-1.8,0-2.4c-0.5-0.4-1.6-0.4-2.1,0.1c-0.6,0.5-0.5,1.5,0.3,2.2
		C121.1,115.9,121.8,115.9,122.5,115.4z"/>
	<path class="st0" d="M118.6,104.1c0.3,0.3,0.5,0.2,0.7-0.1s0-0.5-0.1-0.7c-0.1-0.1-0.4-0.3-0.6,0
		C118.4,103.5,118.4,103.8,118.6,104.1z"/>
	<path class="st0" d="M118.9,100.8c0.3-0.2,0-0.5-0.1-0.7c-0.1-0.1-0.4-0.1-0.4-0.1c-0.1,0.2-0.2,0.4-0.1,0.5
		C118.3,100.7,118.6,101,118.9,100.8z"/>
	<path class="st0" d="M22.5,276.7c0-0.2,0-0.4-0.1-0.4C22.4,276.5,22.5,276.6,22.5,276.7z"/>
	<path class="st0" d="M22,289.6c-0.2-0.2-0.4-0.5-0.7-0.7c-0.4-0.2-1,0.3-1.1,0.8c-0.1,0.4,0.3,0.8,0.7,0.9
		C21.4,290.5,21.9,290.2,22,289.6z"/>
	<path class="st0" d="M17.6,285.3c0.3,0,1-0.1,1.1-0.4c0.1-0.4-0.6-0.7-0.9-0.7c-0.2,0-0.5,0.3-0.6,0.5S17.2,285.3,17.6,285.3z"/>
	<path class="st0" d="M20.5,296.6c0.1-0.2,0-0.5-0.2-0.6s-0.5-0.1-0.7,0.1c-0.1,0.1-0.2,0.6,0,0.8C19.9,297,20.4,296.7,20.5,296.6z"
		/>
	<path class="st0" d="M18.9,294c0.5,0,0.9-0.3,0.9-0.7c0.1-0.7-0.7-1.2-1-1.3c-0.3,0-1.1,0.6-0.9,1.3C18,293.7,18.4,294.1,18.9,294z
		"/>
	<path class="st0" d="M14.8,247.4c0.2,0,0.4-0.1,0.5-0.3c0.1-0.1-0.1-0.6-0.2-0.6c-0.2,0-0.4,0.3-0.5,0.4
		C14.5,247,14.7,247.4,14.8,247.4z"/>
	<path class="st0" d="M17.2,282.1c0.9,0.3,1.9-0.1,2-0.8c0.3-0.8-0.4-2.1-1.2-2.3c-0.8-0.2-1.7,0.4-1.9,1.1
		C16,281,16.4,281.9,17.2,282.1z"/>
	<path class="st0" d="M15.4,255.9c0.4,0.1,1-0.2,1.1-0.5c0.1-0.4-0.4-0.7-0.8-0.8c-0.4-0.1-0.6,0.1-0.7,0.4
		C14.9,255.3,15,255.8,15.4,255.9z"/>
	<path class="st0" d="M38.2,337.3c0.4,0,0.6-0.6,0.4-0.9c-0.2-0.2-0.5-0.3-0.8-0.3c-0.2,0.1-0.7,0.4-0.6,0.7
		C37.3,337.2,37.9,337.3,38.2,337.3z"/>
	<path class="st0" d="M25.2,304.4c-0.1,0.1-0.2,0.1-0.3,0.2c-0.4,0.2-0.5,0.4-0.5,0.9s0.3,0.6,0.6,0.8c0.9,0.4,1.2,0.3,1.6-0.6
		c0.2-0.5,0.4-1.1,0.6-1.6c0.2,0.3,0.4,0.4,0.8,0.4c0.1,0,0.3-0.1,0.4-0.2c-0.2-0.5-0.4-1.1-0.5-1.7c-0.2,0.1-0.4,0.2-0.5,0.4
		C26,302.1,25.2,302.7,25.2,304.4z"/>
	<path class="st0" d="M21.5,284c-0.6-0.2-1.5,0.3-1.7,0.9s0.4,1.5,1,1.7c0.5,0.2,1.2-0.4,1.3-1.1C22.4,284.7,22.2,284.2,21.5,284z"
		/>
	<path class="st0" d="M32.4,315.6c-0.2-0.5-0.4-1-0.6-1.5c-0.3,0.2-0.4,0.5-0.3,0.9C31.7,315.4,32,315.6,32.4,315.6z"/>
	<path class="st0" d="M22.8,279.7c-0.1,0.4-0.2,0.9,0.3,1.1C23,280.5,23,280,22.8,279.7L22.8,279.7z"/>
	<path class="st0" d="M23,292.8c0.5,0.1,1.1-0.3,1.1-0.8c0.1-0.4-0.3-1-0.7-1.1c-0.4-0.1-0.9,0.3-1.1,0.7
		C22.2,292.2,22.5,292.7,23,292.8z"/>
	<path class="st0" d="M21.7,270.1c-0.8-0.2-1.2,0-1.3,0.5c-0.2,0.7,0.2,1.3,0.7,1.5c0.2,0,0.6-0.2,0.9-0.4c0-0.5-0.1-1.1-0.1-1.6
		C21.8,270.1,21.8,270.1,21.7,270.1z"/>
	<path class="st0" d="M10.8,270.6c0.4,0,0.8-0.1,0.8-0.4c0-0.4-0.2-1.1-0.4-1.1c-0.4-0.1-0.7,0.6-0.8,1
		C10.2,270.3,10.4,270.6,10.8,270.6z"/>
	<path class="st0" d="M10.2,242.6c-0.1-0.4-1.2-0.7-1.5-0.3s-0.1,1,0.2,1.1C9.3,243.8,10.3,243,10.2,242.6z"/>
	<path class="st0" d="M74.4,141.6c0.3,0.3,1.1,0.3,1.4,0c0.4-0.4,0.4-1,0-1.3c-0.4-0.4-1-0.4-1.2-0.1
		C74.3,140.4,74.2,141.3,74.4,141.6z"/>
	<path class="st0" d="M76.7,138.6c0.5-0.5,0.6-1.3,0.1-1.8s-1.5-0.5-1.9-0.2c-0.4,0.4-0.1,1.6,0.4,1.9
		C75.6,139,76.3,138.9,76.7,138.6z"/>
	<path class="st0" d="M72.8,145.1c0.5-0.5,0.5-2.1,0-2.7c-0.5-0.5-1.6-0.4-2.2,0.2c-0.5,0.5-0.5,1.9,0,2.4
		C71.2,145.6,72.2,145.7,72.8,145.1z"/>
	<path class="st0" d="M86,132.8c0.3-0.4,0.2-1-0.1-1.2c-0.4-0.4-1-0.4-1.2,0c-0.4,0.4-0.3,1.1,0.1,1.3
		C85.1,133.2,85.7,133.2,86,132.8z"/>
	<path class="st0" d="M26.1,215.9c-0.5,0.1-1.1,0.2-1,0.9c0.1,0.4,0.4,0.6,0.7,0.7c-0.1,0.3-0.1,0.5-0.2,0.7c0,0.1-0.1,0.4,0.3,0.4
		c0.4,0.1,1.1-0.3,1.2-0.7s-0.3-0.8-0.6-0.9C26.5,216.6,26.4,216.3,26.1,215.9z"/>
	<path class="st0" d="M57.4,152.4c-0.2-0.2-0.4-0.3-1,0.1c-0.5,0.4-0.6,0.7-0.4,1.3c0.3,0.6,1.2,0.8,1.9,0.4c0.6-0.4,0.5-0.8,1-1
		c0.4-0.2,0.4-0.5,0.4-1c-0.1-0.4-0.3-1.2-1-1.1c-0.7,0.2-0.7,0.6-0.6,0.8C57.8,152.2,57.6,152.7,57.4,152.4z"/>
	<path class="st0" d="M55.7,158.2c0,0.5-0.2,1.1,0.1,1.3c0.3,0.3,0.4,0.3,0.7,0.3c0.3,0,0.5,0.1,0.8-0.1c0.4-0.2,0.9-0.7,1-1.3
		c0-0.6-0.2-1.1-0.6-1.3c-0.4-0.3-0.9-0.2-1.2,0C56.1,157.2,55.7,157.6,55.7,158.2z"/>
	<path class="st0" d="M91,124.2c0.3-0.3,0.4-1,0.1-1.3s-0.9-0.3-1.2,0c-0.4,0.4-0.4,1-0.1,1.2C90.1,124.5,90.7,124.5,91,124.2z"/>
	<path class="st0" d="M100.4,117.8c-0.5,0.3-1.1,0.4-1,1.1c0.1,0.4,0.4,0.7,0.9,0.7c0.4,0,0.7-0.1,0.8-0.5
		C101.4,118.4,100.9,118.1,100.4,117.8z"/>
	<path class="st0" d="M22.5,219.7c0.4,0.1,0.9-0.2,0.9-0.7c0.1-0.5-0.3-1-0.7-1.1c-0.4-0.1-0.7,0.2-0.8,0.6
		C21.8,219.1,22.1,219.6,22.5,219.7z"/>
	<path class="st0" d="M22.4,205.1c0-0.2,0.1-0.5-0.2-0.7c-0.3-0.2-0.5,0.3-0.5,0.4c0,0.2,0,0.4,0.3,0.5S22.4,205.2,22.4,205.1z"/>
	<path class="st0" d="M21.6,224.7c0.2,0.7,0.6,0.8,0.5,1.1c-0.1,0.3-0.6,0.6-0.4,1.1c0.2,0.4,1.7,0.5,1.9,0.4
		c0.3-0.1,0.7-0.6,1.1-0.3c0.1,0.1,0.2,0.2,0.2,0.3c0.1-0.4,0.2-1,0.3-1.4c-0.1,0-0.2,0-0.3,0c-0.4-0.1-0.6-0.4-0.4-0.8
		s-0.1-1.2-1.1-1.5C22.5,223.2,21.5,224,21.6,224.7z"/>
	<path class="st0" d="M54.3,164.6c-0.3-0.2-0.5-0.4-0.8-0.3c0,0-0.1-0.1-0.2-0.1c-0.5-0.3-1.5,0.2-1.8,0.7c-0.2,0.4,0.2,1.2,0.8,1.5
		c0.2,0.1,0.4,0.1,0.6,0.2C53.3,166,53.9,165.4,54.3,164.6C54.4,164.7,54.4,164.6,54.3,164.6z"/>
	<path class="st0" d="M100.7,125.8c0.1-0.1,0.2-0.1,0.3-0.2C100.8,125.7,100.8,125.8,100.7,125.8z"/>
	<path class="st0" d="M20.4,274.4c-0.5-0.4-1.7-0.3-2.1,0.3c-0.5,0.5-0.4,1,0.8,1.9c-0.4,0.4-0.8,0.9-0.2,1.4
		c0.4,0.4,0.7,0.4,1.2,0.2c0.2-0.1,0.4-0.3,0.4-0.4c0-0.4-0.2-0.9-0.3-1.3C20.7,275.6,20.8,274.8,20.4,274.4z"/>
	<path class="st0" d="M132.5,108.1c0.4-0.3,0.4-1,0.1-1.2c-0.3-0.3-0.8-0.4-1.2,0c-0.4,0.4-0.4,1-0.2,1.2
		C131.5,108.4,132.1,108.4,132.5,108.1z"/>
	<path class="st0" d="M64.8,152.4c-0.3-0.4-0.6-0.3-0.9,0c-0.3,0.3-0.4,0.5-0.2,0.9c0.1,0.2,0.4,0.3,0.5,0.3
		c0.2-0.3,0.4-0.4,0.6-0.7C64.9,152.7,64.9,152.5,64.8,152.4z"/>
	<path class="st0" d="M13.5,270.8c-0.2,0.5,0.1,1.1,0.6,1.1c0.4,0.1,1-0.3,1.1-0.6c0.1-0.4-0.3-1.1-0.8-1.1
		C13.9,270.1,13.6,270.4,13.5,270.8z"/>
	<path class="st0" d="M50.6,167.6c-0.3-0.4-0.9-0.4-1.2,0c-0.4,0.4-0.3,0.7,0.1,1.1c0.1,0.1,0.1,0.1,0.2,0.2c-0.3,0-0.5,0.2-0.6,0.4
		c-0.3,0.4-0.1,1.1,0.6,1.5c0.1,0,0.2,0.1,0.3,0.1c0.3-0.4,0.6-0.8,0.9-1.1c0-0.2-0.1-0.3-0.2-0.4s-0.3-0.2-0.4-0.3
		c0.1,0,0.2-0.1,0.3-0.2C50.8,168.3,50.9,167.9,50.6,167.6z"/>
	<path class="st0" d="M28.6,305.9c-0.5,0.2-0.7,0.8-0.5,1.6c0.2,0.6,0.6,0.9,1.2,0.7c0.1,0,0.2-0.1,0.3-0.2
		c-0.3-0.7-0.4-1.4-0.7-2.1C28.8,305.9,28.7,305.9,28.6,305.9z"/>
	<path class="st0" d="M12,273.7c0,0.1,0,0.3,0.2,0.3c0.1,0,0.3,0,0.4-0.2c0-0.2-0.2-0.3-0.2-0.3C12.2,273.6,12,273.7,12,273.7z"/>
	<path class="st0" d="M17.4,269.3c0.3,0,0.6-0.4,0.6-0.5c0.1-0.2-0.2-0.8-0.4-0.9c-0.3,0-0.7,0.5-0.7,0.6
		C16.9,268.8,17.2,269.3,17.4,269.3z"/>
	<path class="st0" d="M114.3,113.2c-1,0.9-1,1-0.1,1.7c0.6-0.2,0.8-0.6,0.6-1.3c1.4-0.8,1.4-1.7-0.1-2.7c0-0.1,0-0.3,0-0.4
		c0.2-0.4-0.1-0.7-0.4-1c-0.4-0.2-0.6-0.1-1,0.1c-0.8,0.5-0.9,1-0.3,1.7C113.4,111.9,113.9,112.6,114.3,113.2z"/>
	<path class="st0" d="M34.7,328.2c-0.3,0.3-0.4,0.8-0.1,1.1c0.4,0.4,1.3-0.1,1.3-0.4C36,328.5,35.1,327.9,34.7,328.2z"/>
	<path class="st0" d="M28.2,312.2c0.2,0.3,0.5,0.4,0.7,0.5c0.4-0.2,0.5-0.5,0.5-0.9c0.1,0,0.2,0,0.2,0c0.3,0,0.6-0.2,0.8-0.4
		c0.4-0.6,0-1.1-0.5-1.4c-0.5,0.3-1.1,0.4-1,1.1v0.1c-0.1,0-0.2,0-0.4,0.1C28.2,311.4,27.9,311.8,28.2,312.2z"/>
	<path class="st0" d="M14,260.1c0.2,0,0.4-0.1,0.5-0.3c0.1-0.1,0.1-0.5-0.2-0.6c-0.3-0.1-0.4,0.3-0.5,0.4c-0.2-0.6-0.6-1.1-1.3-1.2
		c-0.8-0.2-1.9,0.4-2,1.1c-0.2,0.9,0.3,1.9,1.1,2c0.7,0.2,2-0.6,2.2-1.3c0-0.1,0-0.3,0-0.4C13.9,260,14,260.1,14,260.1z"/>
	<path class="st0" d="M27,195c-0.2-0.2-0.5-0.1-0.9,0.4s-0.4,0.9,0.1,1.3c0.4,0.4,1.2,0.4,1.7,0c0.2,0.4,0.7,0.4,1,0
		c0.3-0.5,0.8-1.1,0.6-1.8c-0.2-0.2-0.4-0.4-0.6-0.5c0,0,0,0,0-0.1c0-0.8-0.4-1.5-0.8-1.6c-0.4-0.1-0.7,0.1-0.9,0.4
		c-0.1,0.3-0.2,0.4-0.2,0.6c0,0.2,0.1,0.4,0.1,0.4C27.3,194.7,27.3,195.1,27,195z"/>
	<path class="st0" d="M43.1,180.5c-0.1,0.2-0.1,0.4,0,0.7c0.3-0.4,0.4-0.8,0.7-1.2C43.4,180.1,43.2,180.3,43.1,180.5z"/>
	<path class="st0" d="M46.9,175c0.1-0.4,0.3-0.6,0.5-0.8c0.4-0.6,0.9-1.2,1.3-1.9c-0.3,0.1-0.5,0.2-0.8,0.5c0-0.4-0.1-0.7,0-1
		c0.2-0.5,0-0.8-0.4-1.1s-1-0.4-1.4,0c-1.4,1.1-1.6,1.6-0.7,3.2c0,0,0,0.1,0.1,0.2c-0.2-0.2-0.4-0.4-0.4-0.5
		c-0.3-0.2-0.7-0.2-0.9,0.2c-0.3,0.4-0.1,0.9,0.3,1c0.2,0.1,0.5,0.1,0.9,0c-0.1,0.5,0,0.8,0.4,1c0.3,0.1,0.6,0.1,0.9-0.1
		C46.7,175.4,46.9,175.2,46.9,175C46.9,175.1,46.9,175.1,46.9,175z"/>
	<path class="st0" d="M19.3,206.3c0.5,0.3,1.2,0.1,1.4-0.4c0.1-0.4-0.5-1-1-1.1c0-0.1,0.1-0.1,0.1-0.2c0.1-0.4-0.3-1.2-0.6-1.2
		c-0.4-0.1-1.2,0.4-1.2,0.8s0.3,0.9,0.7,1c0.1,0,0.2,0,0.3,0C18.9,205.5,19,206.1,19.3,206.3z"/>
	<path class="st0" d="M10.3,251.9c0.1,0.3,0.3,0.4,0.5,0.5c0.4,0.1,0.9-0.2,1.1-0.5c0-0.1,0-0.2,0-0.3c0.2-0.2,0.4-0.4,0.4-0.7
		c0.3-1-0.3-1.9-1.2-2c-0.8-0.2-1.5,0.2-1.7,0.9C9.3,250.6,9.7,251.5,10.3,251.9z"/>
	<path class="st0" d="M8.5,228.1c-0.1,0.1-0.3,0.1-0.3,0.2c0,0.1,0.1,0.3,0.1,0.3c0.1,0,0.3,0,0.4-0.1
		C8.7,228.3,8.6,228.2,8.5,228.1z"/>
	<path class="st0" d="M14.1,231.2c-0.7,0.6-0.9,1.5-0.2,2.2c0.9,0.7,1.7,0.5,2.3-0.1c0.9-0.9-0.3-1.7,0.5-2c0.8-0.4,0.8,0.5,1.8-0.1
		c1.1-0.6,1.2-1.9,0.4-2.2c-0.7-0.4-1.3,0.1-1.5-0.1c-0.2-0.2-0.6-0.9-1.2-0.6c-1.2,0.7-0.3,1.7-0.6,1.9
		C15.4,230.6,14.6,230.8,14.1,231.2z"/>
	<path class="st0" d="M36.8,325.9c0-0.2-0.1-0.6-0.3-0.6c-0.3-0.1-0.7-0.1-0.9,0.1c-0.4,0.4-0.1,0.7,0.1,1.1
		C36.2,326.5,36.7,326.4,36.8,325.9z"/>
	<path class="st0" d="M19.8,257c0.4,0.3,0.9-0.1,1-0.5s-0.1-0.7-0.4-0.9c-0.4-0.2-1.2,0.4-1.1,0.7C19.3,256.7,19.5,256.9,19.8,257z"
		/>
	<path class="st0" d="M21.1,251.5c-0.6-0.2-1.2,0.2-1.5,0.9c-0.2,0.5,0.3,1.1,1,1.3c0.4,0.1,0.6,0.1,0.8-0.1c0,0.1,0.1,0.3,0.2,0.4
		c0-0.6,0-1.2,0.1-1.9C21.5,251.9,21.3,251.6,21.1,251.5z"/>
	<path class="st0" d="M20.1,248.5c0.1-0.4,0-0.6-0.2-0.9c0.1-0.4-0.3-0.9-0.8-1c-0.4-0.1-0.9,0.2-1,0.7c-0.1,0.4,0,0.8,0.3,1
		c0.1,0.4,0.3,0.6,0.6,0.7C19.5,249.2,20,248.9,20.1,248.5z"/>
	<path class="st0" d="M27.1,208c-0.3,0.1-0.5,0.4-0.6,0.6c-0.2,0.9,0.1,1.5,0.6,1.7c0.4,0.1,1-0.3,1.2-0.6c0.4-0.1,0.6-0.4,0.8-0.8
		c0.3-0.6,0-1.1-0.8-1.4c-0.5-0.2-1-0.1-1.2,0.4C27.2,207.9,27.1,208,27.1,208z"/>
	<path class="st0" d="M18.4,249.5c-0.2,0-0.5-0.1-0.6,0.2s0.2,0.4,0.3,0.5c0.2,0.1,0.6,0,0.7-0.2C18.8,249.8,18.5,249.6,18.4,249.5z
		"/>
	<path class="st0" d="M26,211.7c-0.4-0.2-0.9,0-1.1,0.4c-0.2,0.4,0,0.8,0.4,1c0.4,0.2,0.7,0.1,0.9-0.3
		C26.4,212.2,26.3,211.8,26,211.7z"/>
	<path class="st0" d="M21.4,230.9c-0.2,0.6,0.4,1.6,1,1.8c0.4,0.1,1.1-0.4,1.2-1.1c0.2-0.6-0.1-1.3-0.6-1.4
		C22.3,230,21.5,230.3,21.4,230.9z"/>
	<path class="st0" d="M25.3,223.4c0.1,0,0.3,0,0.4,0c0.2-0.8,0.4-1.7,0.6-2.5c-0.1,0-0.2-0.1-0.3-0.1c-0.8-0.2-1.2,0.2-1.5,1.1
		C24.5,222.5,24.8,223.3,25.3,223.4z"/>
	<path class="st0" d="M20.2,241.4c0-0.3-0.3-0.5-0.4-0.5c-0.2,0-0.4,0.2-0.5,0.3s0.1,0.4,0.3,0.5C19.7,241.6,20.2,241.6,20.2,241.4z
		"/>
	<path class="st0" d="M17,246.2c0,0.1,0,0.3,0.2,0.3s0.3,0,0.4-0.2c0-0.2-0.2-0.3-0.2-0.3C17.2,245.9,17,246.1,17,246.2z"/>
	<path class="st0" d="M16.8,252.6c0.4,0.2,0.9,0,1.1-0.4c0.1-0.3,0.1-0.6,0-0.8c-0.3-0.4-0.6-0.4-1.5-0.2
		C16.3,251.7,16.1,252.3,16.8,252.6z"/>
	<path class="st0" d="M17.7,262.3c0.8,0.3,1.6-0.4,1.9-1.3c0.1-0.4,0.1-0.9-0.2-1.2c0.2,0,0.4-0.1,0.4-0.3c0.1-0.2-0.2-0.4-0.3-0.5
		c-0.2-0.1-0.6,0-0.7,0.2c0,0,0,0,0,0.1c-0.1,0-0.2-0.1-0.3-0.1c-0.8-0.3-1.9,0.4-2.1,1.2C16.3,261,16.9,262.1,17.7,262.3z"/>
	<path class="st0" d="M20.5,266.7c0.1,0.1,0.5,0,0.5-0.3s-0.4-0.4-0.4-0.5c-0.1,0-0.4,0.1-0.4,0.3C20.1,266.3,20.3,266.6,20.5,266.7
		z"/>
	<path class="st0" d="M19.7,235.7c-0.4-0.1-1.1,0.4-1.2,1.1c-0.2,0.8,0.2,1.2,1,1.4c0.7,0.2,1.3-0.1,1.4-0.7
		C20.9,236.9,20.3,235.8,19.7,235.7z"/>
	<path class="st0" d="M17.7,245.3c-0.2,0.3-0.1,0.8,0.1,1.1c0.2,0.2,0.6,0.4,0.9,0.3c0.6-0.2,0.8-1.1,0.4-1.5
		C18.9,244.7,18.1,244.7,17.7,245.3z"/>
	<path class="st0" d="M17.3,240.1c-1-0.4-1.9-0.5-2.9-0.3c-0.2,0.1-0.4,0.2-0.4,0.3c-0.8,0.7-0.5,1.7,0.4,2c0.6,0.2,1.2,0.3,1.9,0.4
		c0.6,0,1.4-0.7,1.5-1.4C17.8,240.6,17.7,240.3,17.3,240.1z"/>
	<path class="st0" d="M36.5,191.9c-0.3,0.4-0.3,1-0.1,1.5c0.4-0.7,0.7-1.4,1-2C37,191.4,36.7,191.6,36.5,191.9z"/>
	<path class="st0" d="M21.6,241.8c-0.2,0.5,0.2,1.3,0.7,1.6c0.1-0.8,0.2-1.5,0.3-2.3C22.1,241.2,21.7,241.5,21.6,241.8z"/>
	<path class="st0" d="M27.7,212.9c-0.4,0-0.7,0.3-0.7,0.7c0,0.7,0.2,1.2,0.5,1.2c0.2,0,0.4-0.1,0.6-0.3c0.1-0.4,0.3-0.7,0.4-1.1
		C28.3,213.3,27.9,213,27.7,212.9z"/>
	<path class="st0" d="M28,211.4c-0.2,0.4,0.2,1.2,0.6,1.3h0.1c0.2-0.6,0.4-1.2,0.6-1.8C28.9,210.9,28.1,211.1,28,211.4z"/>
	<path class="st0" d="M30.2,206.9c-0.2,0-0.4,0.3-0.4,0.5c0.1,0.2,0.3,0.4,0.4,0.4c0,0,0,0,0.1,0c0.1-0.3,0.2-0.4,0.3-0.7
		C30.6,207,30.4,206.9,30.2,206.9z"/>
	<path class="st0" d="M34.4,195.7c0.1,0.4,0.1,0.7,0.3,1.1c0,0.1,0.1,0.1,0.1,0.1c0.3-0.6,0.6-1.2,0.9-1.9
		C35.3,195,34.8,195.2,34.4,195.7z"/>
	<path class="st0" d="M26.3,219c-0.1,0.4,0,0.6,0.3,0.8c0.1-0.5,0.3-1,0.4-1.5C26.8,218.4,26.5,218.7,26.3,219z"/>
	<path class="st0" d="M29.9,200.3c-0.2-0.5-0.5-0.9-1.1-1c-0.4-0.1-0.9,0.2-1.2,0.4c-0.2,0.3-0.5,0.8-0.4,1.2
		c0.2,0.4,0.2,1.1,0.5,1.2c0.1,0.1,0.3,0.1,0.4,0.1c0,0.1,0.1,0.2,0.1,0.4c0.1,0.2,0.2,0.4,0.4,0.7c0.3,0.3,1.1,0.4,1.6,0.2
		c0.5-0.3,0.8-0.7,0.8-1.2s-0.3-0.9-0.6-1.1c-0.2-0.1-0.5-0.3-0.9-0.3C30,200.7,30,200.5,29.9,200.3z"/>
	<path class="st0" d="M21.5,258.8c0-0.3,0.1-0.5,0.1-0.8c-0.1,0-0.1,0-0.2,0.1C21,258.2,21.1,258.5,21.5,258.8z"/>
	<path class="st0" d="M32.4,197.3c-0.2,0.2-0.1,0.4,0.1,0.5s0.4,0.1,0.5-0.1c0.1-0.2,0.1-0.4-0.1-0.5C32.7,197,32.5,197,32.4,197.3z
		"/>
	<path class="st0" d="M33.9,192.4c-0.4-0.3-0.7,0-0.8,0.4c-0.2,0.4-0.2,0.7,0.2,0.9c0.4,0.2,0.9,0,1.2-0.4
		C34.3,192.9,34.1,192.6,33.9,192.4z"/>
	<path class="st0" d="M33.4,199.4c-0.2,0.3-0.3,0.7-0.1,1.1c0.2-0.5,0.4-1,0.6-1.5C33.7,199,33.5,199.1,33.4,199.4z"/>
	<path class="st0" d="M21.5,261.8c0-0.4,0-0.7,0-1.1c-0.2,0.1-0.3,0.3-0.3,0.5C21.2,261.4,21.4,261.6,21.5,261.8z"/>
	<path class="st0" d="M35.9,193.9c-0.3-0.1-0.4,0.1-0.4,0.2c0,0.2-0.1,0.6,0.2,0.7c0.1,0,0.1,0,0.1,0c0.1-0.3,0.3-0.4,0.4-0.7
		C36.1,194,36.1,193.9,35.9,193.9z"/>
	<path class="st0" d="M30.4,205.1c-0.1,0.4,0.1,0.9,0.5,1.2c0.3-0.6,0.4-1.2,0.7-1.9C31.1,204.6,30.5,204.9,30.4,205.1z"/>
	<path class="st0" d="M22.1,245.4c0-0.3,0.1-0.6,0.1-0.9C22.1,244.8,22.1,245.1,22.1,245.4z"/>
	<path class="st0" d="M24.4,206c-0.2,0.7,0.3,1.2,1.2,1.3c0.4,0.1,1.2-0.4,1.2-0.8c0.1-0.5-0.5-1.8-1-1.8
		C25.2,204.6,24.5,205.2,24.4,206z"/>
	<path class="st0" d="M10.7,279.2c-0.7-0.2-1.3,0.3-1.4,1.1c-0.2,0.8,0.3,1.4,1,1.5c0.7,0.1,1.4-0.4,1.6-1.1
		C12.1,280.1,11.4,279.4,10.7,279.2z"/>
	<path class="st0" d="M13.3,287.2c0-0.4-0.1-1.1-0.4-1.1c-0.4-0.1-0.8,0.6-0.9,0.9c-0.2,0.3,0.2,0.8,0.6,0.8
		C12.9,287.7,13.3,287.6,13.3,287.2z"/>
	<path class="st0" d="M13.4,291c-0.4-0.1-1.1,0.2-1.2,0.6s0.2,0.9,0.6,1s1.1-0.2,1.2-0.5C14.1,291.6,13.7,291.1,13.4,291z"/>
	<path class="st0" d="M14.4,306.3c-0.4-0.2-0.4,0.3-0.5,0.4c0,0.1,0.2,0.4,0.2,0.4c0.2,0,0.4-0.1,0.5-0.3
		C14.6,306.8,14.7,306.4,14.4,306.3z"/>
	<path class="st0" d="M11.3,298.3c-0.4-0.1-0.9,0.2-1.1,0.5c-0.2,0.4,0.1,1,0.5,1c0.4,0.1,0.9-0.1,1.1-0.5
		C12,298.9,11.7,298.4,11.3,298.3z"/>
	<path class="st0" d="M6.3,271.3c-0.2,0-0.4,0.1-0.5,0.3s0.2,0.4,0.3,0.5c0.2,0.1,0.6,0,0.7-0.2C6.8,271.6,6.5,271.3,6.3,271.3z"/>
	<path class="st0" d="M8.7,293.4c-0.5-0.4-1.1-0.3-1.5,0.1c-0.5,0.4-0.5,0.9-0.4,1.3c0.2,0.4,0.4,1.3,1,1.4c0.6,0.1,0.6-0.5,0.8-0.8
		C9.2,294.9,9.3,293.7,8.7,293.4z"/>
	<path class="st0" d="M6.2,264.4c0-0.3-0.1-1-0.4-1.1s-0.7,0.4-0.9,0.7c-0.2,0.4,0.1,0.7,0.5,0.9C5.9,265,6.2,264.7,6.2,264.4z"/>
	<path class="st0" d="M12.1,215.2c-0.2,0.9,0.2,1.5,1,1.7c0.7,0.2,1.4-0.2,1.5-0.7c0.1-0.8-0.4-1.7-1.2-1.9
		C12.9,214.1,12.2,214.7,12.1,215.2z"/>
	<path class="st0" d="M21.7,324.8c-0.1-0.2-0.4-0.4-0.4-0.4c-0.1,0-0.5,0.4-0.4,0.5c0.1,0.2,0.5,0.2,0.7,0.2
		C21.6,325.1,21.8,324.8,21.7,324.8z"/>
	<path class="st0" d="M22.4,329.2c-0.3,0.2-0.9,0.8-0.8,1.1c0.1,0.4,1,0.3,1.1,0.2c0.3-0.3,0.6-0.6,0.5-1.1
		C23.1,329,22.6,329.1,22.4,329.2z"/>
	<path class="st0" d="M21.7,317.7c-0.4-0.8-1.9-1.2-2.7-0.6c-0.6,0.4-0.1,1.2,0.4,1.4c0.5,0.2,0.3,0.2,0.4,0.7s0.5,1.2,1.4,0.8
		C22,319.5,22.1,318.5,21.7,317.7z"/>
	<path class="st0" d="M17.1,299.3c0.6,0.1,1.2-0.4,1.3-1c0.2-0.6-0.1-1.1-0.6-1.1c-0.8-0.2-1.7,0.2-1.9,0.8
		C16,298.5,16.5,299.1,17.1,299.3z"/>
	<path class="st0" d="M19.8,304.6c0.1,0.2,0.2,0.3,0.3,0.4c0.2,0.1,0.6,0,0.7-0.2c0-0.2-0.3-0.4-0.4-0.4c-0.2,0-0.4,0-0.5,0
		c0.1-0.3,0-0.6-0.1-0.9c-0.3-0.7-1.4-1.2-2.1-1c-0.8,0.4-1.3,1.1-1.2,1.9c-0.1,0.1-0.2,0.3-0.2,0.3c0,0.2,0,0.4,0.3,0.5
		c0.2,0.1,0.4,0,0.4-0.1c0.5,0.4,1.3,0.6,1.9,0.5C19.3,305.4,19.7,305,19.8,304.6z"/>
	<path class="st0" d="M15.2,266c-0.4-0.1-1.2,0.4-1.2,0.8c-0.1,0.5,0.5,1.8,1,1.8c0.5,0.1,1.2-0.5,1.4-1.3
		C16.4,266.6,16,266,15.2,266z"/>
	<path class="st0" d="M22.8,309.1c-0.2,0.1-0.3,0.5-0.2,0.7c0.1,0.2,0.3,0.4,0.5,0.3s0.3-0.4,0.3-0.5C23.3,309.4,23,309,22.8,309.1z
		"/>
	<path class="st0" d="M17.6,314.1c-0.2,0.1-0.2,0.4-0.2,0.5s0.3,0.4,0.5,0.4c0.3-0.1,0.2-0.5,0.2-0.7
		C18,314.2,17.7,314.1,17.6,314.1z"/>
	<path class="st0" d="M5.9,254c-0.1,0.2,0,0.9,0.3,0.9c0.2,0,0.4-0.1,0.5-0.3c0.1,0.1,0.2,0.1,0.3,0.1c0.3-0.1,0.4-0.6,0.3-0.8
		s-0.4-0.3-0.5-0.3C6.5,253.6,6,253.8,5.9,254z"/>
	<path class="st0" d="M7.9,218c-0.1,0.4,0.4,1,1.2,1.2c0.2-0.1,0.5-0.3,0.6-0.4c0.3-0.5-0.1-1.2-0.5-1.4C8.7,217.3,8,217.6,7.9,218z
		"/>
	<path class="st0" d="M6.7,235.3c0.2,0.1,0.7,0.2,0.9-0.3c0.2-0.4-0.4-0.6-0.5-0.7c-0.2,0-0.5,0-0.6,0.3
		C6.4,234.8,6.6,235.2,6.7,235.3z"/>
	<path class="st0" d="M7.9,288.1c0-0.2,0.1-0.5-0.2-0.7c-0.3-0.1-0.5,0.2-0.5,0.3c0,0.2,0.1,0.4,0.3,0.5
		C7.5,288.2,7.9,288.2,7.9,288.1z"/>
	<path class="st0" d="M11.4,221.8c0-0.3-0.2-0.6-0.4-0.7c-0.4-0.2-0.9,0.3-0.9,0.6c0,0.3,0.3,0.4,0.3,0.6
		C10.9,222.4,11.4,222.1,11.4,221.8z"/>
	<path class="st0" d="M12.6,203.3c0.5,0,1-0.6,0.7-1.1c-0.1-0.3-0.7-0.2-1.2-0.3c-0.1,0-0.4,0-0.4,0.3
		C11.6,202.4,12.1,203.3,12.6,203.3z"/>
	<path class="st0" d="M11.5,220.6c0.5,0,0.8-0.5,0.9-0.8c0.2-0.4-0.2-0.6-0.5-0.7c-0.4-0.1-0.9,0.2-0.8,0.5
		C11,219.9,11,220.5,11.5,220.6z"/>
	<path class="st0" d="M7.9,211.8c0.1,0.1,0.5,0,0.5-0.3c0.1-0.3-0.4-0.4-0.4-0.5c-0.1,0-0.4,0.1-0.4,0.3
		C7.5,211.4,7.8,211.7,7.9,211.8z"/>
	<path class="st0" d="M5.4,238c0.8,0.1,1.1-1.1,0.8-1.4c-0.3-0.3-1.2-0.2-1.4,0.3C4.5,237.5,4.6,237.9,5.4,238z"/>
	<path class="st0" d="M1,233.4c-0.1,0-0.4,0.2-0.4,0.4s0.2,0.4,0.3,0.5c0.2,0,0.5,0,0.6-0.4C1.5,233.5,1.2,233.4,1,233.4z"/>
	<path class="st0" d="M0.5,274.9c-0.1-0.1-0.5,0-0.5,0.3c-0.1,0.3,0.4,0.4,0.4,0.5c0.1,0,0.4-0.1,0.4-0.3C1,275.2,0.7,275,0.5,274.9
		z"/>
	<path class="st0" d="M4.3,221.8c0.1-0.4-0.4-1-0.9-1.1c-0.4-0.1-0.9,0.2-1.1,0.7c-0.1,0.5,0.1,0.9,0.5,1
		C3.4,222.5,4.2,222.3,4.3,221.8z"/>
	<path class="st0" d="M7,227.9c0.4,0.1,0.6-0.1,0.8-0.1c-0.1-0.4,0.1-1.1-0.4-1.3c-0.4-0.2-0.9,0.4-1.2,0.6c0,0.1,0,0.2,0,0.3
		C6.4,227.9,6.6,227.9,7,227.9z"/>
	<path class="st0" d="M5.6,211.8c0.2,0,0.4,0,0.5-0.3s-0.2-0.4-0.3-0.5c-0.2-0.1-0.6,0-0.7,0.2C5.1,211.5,5.4,211.8,5.6,211.8z"/>
	<path class="st0" d="M3.8,284.8c-0.6,0.2-0.7,0.7-0.8,1.3c0.5,0.3,0.9,0.7,1.4,0.3c0.4-0.3,0.4-0.7,0.2-1.2
		C4.4,284.8,4.2,284.7,3.8,284.8z"/>
	<path class="st0" d="M3.6,244.7c-0.1,0.5,0.5,0.6,0.7,0.7c0.2,0,0.6-0.2,0.7-0.4c0.2-0.4-0.1-0.7-0.4-0.8
		C4.4,244.1,3.7,244.1,3.6,244.7z"/>
	<path class="st0" d="M14.4,276c-0.4-0.2-1.1,0.2-1.2,0.6c-0.2,0.5,0.3,1.2,0.9,1.5c0.5,0.2,1,0,1.2-0.4
		C15.3,277.1,14.9,276.2,14.4,276z"/>
	<path class="st0" d="M52,350.2C51.9,350.2,51.9,350.2,52,350.2c-0.5,0.2-0.7,0.7-0.5,1.1c0.2,0.4,0.6,0.6,1.2,0.4
		c0.2-0.1,0.3-0.2,0.4-0.3C52.6,351.1,52.4,350.7,52,350.2z"/>
	<path class="st0" d="M52,353.1c-0.2,0.1-0.2,0.3-0.1,0.4c0,0.1,0.3,0.1,0.4,0.1s0.2-0.2,0.2-0.3C52.5,353.2,52.2,353.1,52,353.1z"
		/>
	<path class="st0" d="M54.1,354.4c-0.1,0-0.4,0.4-0.4,0.5c0.1,0.2,0.5,0.2,0.7,0.2c0.1,0,0.3-0.4,0.2-0.4
		C54.4,354.6,54.2,354.4,54.1,354.4z"/>
	<path class="st0" d="M46.5,353.5c-0.3,0.1-0.3,0.5-0.3,0.6c0.1,0.2,0.4,0.3,0.5,0.3S47,354,47,354
		C47.1,353.8,46.8,353.4,46.5,353.5z"/>
	<path class="st0" d="M44.8,343.5c-0.4,0.2-0.7,0.8-0.5,1.2c0.2,0.4,0.6,0.6,1.1,0.4c0.5-0.2,0.8-0.7,0.6-1.1
		C45.7,343.7,45.1,343.4,44.8,343.5z"/>
	<path class="st0" d="M111.3,120.6c-0.2-0.1-0.4,0.1-0.5,0.2c0,0,0,0,0,0.1C110.9,120.8,111.1,120.7,111.3,120.6z"/>
	<path class="st0" d="M41.7,337c-0.2-0.6-0.8-0.8-1.6-0.4c-0.6,0.2-0.9,0.7-0.7,1.1c0.2,0.5,1.2,1.1,1.7,1
		C41.7,338.5,41.9,337.8,41.7,337z"/>
	<path class="st0" d="M43.3,346.9c-0.4,0.1-0.6,1-0.4,1.2c0.2,0.2,0.6,0.2,0.9,0.1c0.4-0.1,0.6-0.4,0.4-0.8
		C44,347.1,43.9,346.8,43.3,346.9z"/>
	<path class="st0" d="M56.6,356.1c-0.2,0.2-0.3,0.8-0.3,1.1c0,0.4,0.4,0.5,0.9,0.4c0.2-0.1,0.3-0.2,0.4-0.3
		C57.2,356.9,57,356.4,56.6,356.1z"/>
	<path class="st0" d="M82.4,380.5c-0.1,0-0.1,0-0.2,0c-0.4,0.2-0.6,0.6-0.4,1.1c0.1,0.4,0.6,0.7,1,0.5s0.5-0.5,0.5-1
		C82.9,380.9,82.7,380.7,82.4,380.5z"/>
	<path class="st0" d="M59.6,368.4c-0.1,0-0.4,0.3-0.3,0.5c0.1,0.3,0.5,0.2,0.7,0.1c0.1,0,0.3-0.3,0.2-0.4
		C60,368.4,59.7,368.3,59.6,368.4z"/>
	<path class="st0" d="M77.2,378.2c-0.6,0.1-1,0.4-1.2,1s0.1,1,0.5,1.2s1.1,0.9,1.6,0.5s0.2-0.8,0.2-1.1
		C78.5,379,77.9,378.1,77.2,378.2z"/>
	<path class="st0" d="M89.3,385.4c0,0.1,0,0.2,0.1,0.3c0,0.1,0.4,0.3,0.4,0.2l0.1-0.1C89.8,385.7,89.5,385.5,89.3,385.4z"/>
	<path class="st0" d="M72.8,373.9c-0.3,0.1-0.3,0.4-0.3,0.5c0.1,0.2,0.4,0.3,0.5,0.3s0.3-0.4,0.3-0.4S73.1,373.9,72.8,373.9z"/>
	<path class="st0" d="M61.9,362.1c-0.2,0.1-0.4,0.4-0.3,0.5c0.1,0.2,0.4,0.3,0.5,0.2c0.1,0,0.2-0.1,0.3-0.2
		C62.2,362.4,62,362.2,61.9,362.1z"/>
	<path class="st0" d="M69,374.1c-0.4-0.2-0.7-0.2-0.9,0.2c-0.4,0.5-0.2,1,0.2,1.5c0.6-0.1,1.2,0,1.3-0.6
		C69.7,374.7,69.4,374.4,69,374.1z"/>
	<path class="st0" d="M39.4,342.3c-0.1-0.4-0.6-0.7-1.1-0.6c-0.5,0.1-0.7,0.4-0.5,1c0.2,0.5,0.6,0.8,1.1,0.6
		C39.2,343.1,39.4,342.6,39.4,342.3z"/>
	<path class="st0" d="M29,334.7c-0.2,0.1-0.2,0.3-0.1,0.4c0,0.1,0.3,0.1,0.4,0.1s0.2-0.2,0.2-0.3C29.4,334.8,29.1,334.7,29,334.7z"
		/>
	<path class="st0" d="M26.7,322.4c-0.4,0.2-0.4,0.8-0.3,1.1c0,0.4,0.3,0.6,0.7,0.5c0.4-0.1,0.8-0.6,0.6-0.9
		C27.6,322.8,27.1,322.2,26.7,322.4z"/>
	<path class="st0" d="M27,330c-0.7,0.3-1.1,0.9-0.8,1.4c0.3,0.7,1.2,1.1,1.9,0.9c0.5-0.2,0.7-1,0.4-1.6C28.4,330,27.7,329.7,27,330z
		"/>
	<path class="st0" d="M25.8,338.9c-0.3,0-0.6,0.2-0.7,0.4c-0.2,0.5,0.4,1,0.6,1.1c0.3,0,0.8-0.4,0.6-1
		C26.2,339.1,26,338.8,25.8,338.9z"/>
	<path class="st0" d="M25.8,299.1c0.4-0.2,0.7-0.4,0.9-0.7c-0.2-0.8-0.4-1.5-0.6-2.3c-0.1-0.1-0.3-0.1-0.4-0.1
		c-0.2-0.3-0.4-0.4-0.8-0.5c-0.9-0.2-1.9,0.4-2,1.3c-0.1,0.7,0.5,1.6,1.2,1.8C24.5,299.1,25.2,299.3,25.8,299.1z"/>
	<path class="st0" d="M24.9,313.4c0.5-0.3,0.7-0.8,0.4-1.1c-0.2-0.4-0.4-0.4-0.8-0.2c-0.4,0.2-0.6,0.5-0.4,0.9
		C24.5,313.1,24.7,313.3,24.9,313.4z"/>
	<path class="st0" d="M26.5,319.8c0.5,0.2,1.1,0.2,1.5-0.3c0.4-0.4,0.2-1.5-0.3-1.9c-0.4-0.4-0.7-0.7-1.3-0.4
		c-0.4,0.3-0.9,0.5-1.3,0.7c-0.6,0.1-0.8,0.4-0.7,1c0.1,0.5,0.5,0.8,1.2,0.7C25.9,319.7,26.2,319.6,26.5,319.8z"/>
	<path class="st0" d="M36.4,346.1c-0.5,0.2-0.8,0.7-0.6,1.1c0.2,0.4,0.8,0.7,1.2,0.5c0.4-0.2,0.6-0.8,0.5-1.1
		C37.2,346.2,36.9,346,36.4,346.1z"/>
	<path class="st0" d="M39.7,351.4c-0.3,0-1,0.8-0.8,1.2c0.2,0.4,1.2,0.4,1.6,0.3c0.3-0.1,0.6-0.6,0.5-1.1
		C40.9,351.4,40.1,351.3,39.7,351.4z"/>
	<path class="st0" d="M35.8,332.6c-0.1-1.1-1-1.4-1.8-0.9c-0.5,0.4-1,0.8-1.4,1.2c-0.4,0.5-0.3,1.6,0.2,2c0.3,0.3,1.1,0.7,1.5,0
		c0.1-1.4,1-1,1.4-1.9C35.8,333,35.8,332.7,35.8,332.6z"/>
	<path class="st0" d="M22.8,306.7c-0.1,0.4,0,0.8,0.4,0.8c0.3,0,0.8-0.2,0.8-0.4c0.1-0.3-0.2-0.6-0.3-0.9
		C23.1,306.1,22.9,306.4,22.8,306.7z"/>
	<path class="st0" d="M30.6,340.4c-0.4,0.2-0.7,0.7-0.5,1.2s0.7,0.7,1.2,0.5c0.4-0.2,0.6-0.7,0.4-1.1
		C31.6,340.5,31,340.2,30.6,340.4z"/>
	<path class="st0" d="M28.7,325.9c-0.4,0.1-0.7,0.6-0.5,1.1s0.6,0.8,1.1,0.6c0.4-0.2,0.7-0.6,0.5-1.1
		C29.7,326.1,29.2,325.7,28.7,325.9z"/>
	<path class="st0" d="M30.7,323c-0.4,0.2-0.6,0.8-0.4,1.1c0.2,0.4,0.6,0.6,1.2,0.4c0.5-0.2,0.8-0.7,0.5-1.2
		C31.8,323,31.1,322.8,30.7,323z"/>
	<path class="st0" d="M34.2,319.8c-0.4-1-0.9-2-1.3-3.1l-0.1-0.1c-0.4-0.4-1.2-0.1-1.6,0.5c-0.3,0.4-0.2,1.2,0.2,1.6
		c0.5,0.5,1.2,0.3,1.4,0.1C33.1,319.4,33.7,319.8,34.2,319.8z"/>
	<path class="st0" d="M43.8,341.4c-0.3-0.6-1.2-1.1-1.9-0.8c-0.4,0.2-0.6,0.9-0.4,1.4c0.3,0.7,0.9,1.1,1.6,0.8
		C43.6,342.4,44,341.8,43.8,341.4z"/>
	<path class="st0" d="M72.3,140.3c0.6-0.6,0.5-1.8-0.2-2.4c-0.5-0.4-1.8-0.3-2.5,0.4c-0.5,0.5-0.5,1.4,0.2,2
		C70.7,141.1,71.5,141.1,72.3,140.3z"/>
	<path class="st0" d="M73,130c-1,0.9-1,1.1,0,1.7c0.6-0.2,0.8-0.7,0.6-1.3c1.4-0.8,1.3-1.8-0.2-2.7c0-0.1,0-0.3,0-0.4
		c0.1-0.4-0.2-0.7-0.5-0.9c-0.4-0.2-0.6-0.1-1,0.1c-0.8,0.5-0.8,1-0.3,1.7C72.1,128.8,72.6,129.4,73,130z"/>
	<path class="st0" d="M72.5,125.6c0.4-0.4,0.4-0.8,0.1-1.1s-0.6-0.4-0.9-0.1c-0.2,0.3-0.2,0.8-0.1,0.9
		C71.9,125.6,72.3,125.5,72.5,125.6z"/>
	<path class="st0" d="M68.8,135c0.6-0.7,0.5-1.7-0.2-2.3c-0.5-0.4-1.5-0.4-2,0.2c-0.5,0.5-0.4,1.6,0.4,2.3
		C67.5,135.6,68.2,135.5,68.8,135z"/>
	<path class="st0" d="M77.2,117.4c0.3-0.2,0-0.5-0.2-0.7c-0.1-0.1-0.4-0.1-0.4,0c-0.1,0.2-0.2,0.4-0.1,0.5
		C76.6,117.4,76.9,117.7,77.2,117.4z"/>
	<path class="st0" d="M74.7,133.8c0.4,0.4,1-0.1,1.2-0.2c0.4-0.2,0.3-0.7,0-1c-0.4-0.4-0.7-0.4-1,0
		C74.8,132.8,74.3,133.4,74.7,133.8z"/>
	<path class="st0" d="M77.1,120.7c0.3,0.2,0.5,0.2,0.7-0.1c0.2-0.3,0-0.5-0.1-0.7c-0.2-0.1-0.4-0.3-0.6,0
		C76.8,120.2,76.8,120.5,77.1,120.7z"/>
	<path class="st0" d="M75.9,123.6c0.1-0.2,0.4-0.4,0.2-0.6c-0.2-0.1-0.4-0.1-0.6,0c-0.1,0.1-0.4,0.5-0.2,0.7
		C75.5,123.8,75.9,123.7,75.9,123.6z"/>
	<path class="st0" d="M67.2,142c0-0.5-0.2-1.2-0.5-1.5c-0.4-0.3-0.9-0.3-1.2,0.2c-0.5,0.6-0.6,1.3-0.2,1.8c0.4,0.3,0.8,0.4,1.2,0.4
		c0,0.4,0.2,0.6,0.4,0.8c0.5,0.4,1-0.1,1.4-0.4c-0.1-0.5-0.2-1.1-0.9-1.2C67.3,142,67.3,142,67.2,142z"/>
	<path class="st0" d="M58,155.3c-0.3,0.7,0.1,1.4,0.9,1.8c0.5,0.3,1.4-0.2,1.7-0.9c0.3-0.7-0.1-1.3-0.9-1.6
		C58.8,154.3,58.2,154.6,58,155.3z"/>
	<path class="st0" d="M62.7,143.7c0.5-0.4,0.7-1.5,0.4-1.9c-0.4-0.5-1.5-0.6-2-0.2c-0.5,0.4-0.4,1.5,0.1,2.1
		C61.5,144.1,62.1,144.1,62.7,143.7z"/>
	<path class="st0" d="M60.1,132.8c0.4-0.3,0.4-1,0.1-1.2c-0.4-0.4-1.2-0.5-1.6-0.2c-0.4,0.4-0.6,1.3-0.3,1.7
		C58.6,133.5,59.5,133.3,60.1,132.8z"/>
	<path class="st0" d="M66.1,128.9c0-0.5,0.2-1.1-0.4-1.4c-0.4-0.2-0.8-0.1-1.1,0.3c-0.1,0.3-0.2,0.6-0.1,0.9
		C65,129.3,65.5,129.2,66.1,128.9z"/>
	<path class="st0" d="M63.2,137.9c0.4-0.4,0.5-1.5,0.1-1.9s-1.3-0.4-1.8,0c-0.4,0.4-0.4,1,0.2,1.6C62,138,62.8,138.2,63.2,137.9z"/>
	<path class="st0" d="M65,151.8c0.3,0.1,0.5,0.2,0.8,0.1c0.8-0.8,1.6-1.6,2.4-2.4c0-0.1,0-0.2,0.1-0.3c0-0.9-0.4-2.2-1.8-2.7
		c0,0,0,0-0.1,0c0-0.2-0.1-0.3-0.2-0.4c-0.2-0.1-0.4,0.1-0.4,0.3c-0.5-0.1-1,0.1-1.3,0.4c-0.6,0.4-0.3,1.3-0.7,2
		C62.8,150.4,63.9,151.4,65,151.8z"/>
	<path class="st0" d="M62.9,145.2c-0.3,0-0.7,0.3-0.8,0.4c-0.3,0.6,0.2,1,0.7,1.3c0.4-0.2,1-0.4,1-1
		C63.7,145.5,63.4,145.2,62.9,145.2z"/>
	<path class="st0" d="M91.2,119c0.5-0.3,0.7-0.8,0.7-1.3c-0.1-0.6-0.4-0.9-1-1c-0.4,0-1.3-0.4-1.7,0.2c-0.4,0.5,0.2,0.8,0.3,1.1
		C89.7,118.7,90.7,119.3,91.2,119z"/>
	<path class="st0" d="M96.3,124.8c-0.1,0.2-0.2,0.4-0.3,0.5c-0.3,0.6-0.1,1.5,0.4,1.9c0.4,0.3,0.7,0.4,1.2,0.4
		c0.4-0.3,1-0.5,1.4-0.8c0.3-0.8-0.1-1.6-0.9-1.9c-0.2-0.1-0.4-0.2-0.5-0.3c0.2-0.4,0.4-0.6,0.5-1c0.3-0.6,0.2-1-0.4-1.2
		c-0.5-0.3-1.1-0.3-1.5,0.1s-0.5,0.9-0.4,1.3C95.9,124.1,96.1,124.4,96.3,124.8z"/>
	<path class="st0" d="M96.9,121.2c0.3-0.2,0.1-0.5,0-0.6c-0.2-0.1-0.4-0.1-0.5-0.1s-0.2,0.4-0.1,0.4
		C96.3,121.1,96.6,121.4,96.9,121.2z"/>
	<path class="st0" d="M81.3,131.9c0.6-0.6,0.5-1.9-0.1-2.4c-0.5-0.4-1.6-0.4-2.1,0.2c-0.5,0.6-0.4,1.5,0.4,2.2
		C79.9,132.4,80.7,132.4,81.3,131.9z"/>
	<path class="st0" d="M101.2,115.5c0.4-0.3,0.4-1,0.1-1.2c-0.4-0.4-1.2-0.6-1.6-0.3c-0.4,0.4-0.6,1.2-0.4,1.7
		C99.8,116,100.6,116,101.2,115.5z"/>
	<path class="st0" d="M104.1,120.7c0.4-0.4,0.5-1.4,0.2-1.9c-0.4-0.4-1.3-0.4-1.8,0c-0.5,0.4-0.4,1,0.1,1.6
		C103,120.8,103.8,121,104.1,120.7z"/>
	<path class="st0" d="M108,118c0.5,0.5,1.2,0.4,1.8-0.1c0.6-0.6,0.6-1.7-0.1-2.3c-0.5-0.4-1.5-0.4-2,0.1
		C107.2,116.4,107.3,117.4,108,118z"/>
	<path class="st0" d="M107.4,111.8c0.1-0.5,0.3-1.1-0.4-1.4c-0.4-0.2-0.8-0.1-1.1,0.3c-0.2,0.3-0.3,0.6-0.1,0.8
		C106.2,112.1,106.8,112,107.4,111.8z"/>
	<path class="st0" d="M13.8,221.9c-0.1,0.5,0.4,1.4,1,1.5c0.4,0.1,1.2-0.4,1.4-1c0.1-0.4-0.3-1.1-0.6-1.2
		C14.8,221,14,221.3,13.8,221.9z"/>
	<path class="st0" d="M85.7,118.7c0.3-0.3,0.4-0.8,0-1.1c-0.3-0.4-0.9-0.4-1.2-0.1c-0.3,0.4-0.4,0.8,0,1.1
		C84.8,119,85.3,119,85.7,118.7z"/>
	<path class="st0" d="M83.4,125c0.5-0.5,0.7-1.6,0.2-1.9c-0.4-0.4-1.2-0.2-1.7,0.3c-0.4,0.4-0.4,1.1,0.2,1.7
		C82.5,125.4,82.9,125.4,83.4,125z"/>
	<path class="st0" d="M85.6,127.4c-0.3,0.4-0.2,0.9,0.2,1.1c0.5,0.4,1.4,0,1.6-0.2c0.2-0.3-0.1-1.2-0.7-1.4
		C86.2,126.8,85.8,127,85.6,127.4z"/>
	<path class="st0" d="M93.5,125.3c0-0.4-0.4-0.7-0.7-0.7c-0.4,0-1,0.6-0.5,1.2C92.8,126.3,93.5,125.6,93.5,125.3z"/>
	<path class="st0" d="M94.3,126.1c0.3,0.2,1.1,0.4,1.2,0.2c0.2-0.3-0.1-1-0.3-1.2c-0.2-0.3-0.8-0.2-1,0.1
		C93.9,125.5,93.9,125.9,94.3,126.1z"/>
	<path class="st0" d="M55.6,142.4c-0.1,0.2-0.2,0.4-0.3,0.5c-0.3,0.7-0.1,1.6,0.4,1.9c0.6,0.4,1.3,0.4,1.9,0.2
		c0.2-0.1,0.4-0.4,0.5-0.5c0.3-0.9-0.1-1.7-0.9-2.1c-0.2-0.1-0.4-0.2-0.5-0.3c0.2-0.4,0.4-0.6,0.4-1c0.3-0.6,0.1-1-0.4-1.2
		c-0.5-0.3-1.1-0.3-1.5,0.1c-0.4,0.4-0.4,0.9-0.4,1.4C55.1,141.6,55.4,142,55.6,142.4z"/>
	<path class="st0" d="M88.9,132.1c0.4-0.3,0.3-1-0.1-1.3s-0.8-0.2-1.2,0.2c-0.3,0.4-0.3,1,0.3,1.4C88.1,132.4,88.5,132.4,88.9,132.1
		z"/>
	<path class="st0" d="M101.4,125.5c0.7-0.4,1.4-0.8,2.1-1.1c-0.5-0.4-1.3-0.4-1.8,0C101.5,124.6,101.4,125,101.4,125.5z"/>
	<path class="st0" d="M26.9,169.9c-0.2-0.5-0.2-1.1-0.9-1.1c-0.4,0-0.8,0.2-0.9,0.6c0,0.3,0,0.6,0.2,0.8
		C25.9,170.6,26.4,170.5,26.9,169.9z"/>
	<path class="st0" d="M34.2,161.5c0.1-0.2,0.2-0.5-0.1-0.6c-0.2-0.1-0.5,0.1-0.5,0.2c-0.1,0.2-0.1,0.6,0.1,0.7
		C33.9,161.9,34.1,161.6,34.2,161.5z"/>
	<path class="st0" d="M25.7,179.7c0.5,0.3,1.3,0.1,1.6-0.3c0.3-0.5,0-1.6-0.6-1.9c-0.5-0.3-1.4,0.1-1.7,0.7
		C24.7,178.8,25,179.3,25.7,179.7z"/>
	<path class="st0" d="M29.9,175.5c0.6,0.3,1.3,0,1.6-0.8c0.4-0.9-0.1-1.8-1-2c-0.7-0.3-1.5,0.2-1.9,0.9
		C28.5,174.2,29,175.1,29.9,175.5z"/>
	<path class="st0" d="M26.6,183.6c-0.4,0.6,0.1,1.6,0.8,1.9c0.5,0.3,1.1,0,1.4-0.6c0.4-0.6,0.2-1.7-0.4-1.9
		C27.8,182.8,26.9,183,26.6,183.6z"/>
	<path class="st0" d="M33.2,155.3c0.2-0.3-0.3-0.5-0.4-0.6c-0.1-0.1-0.4,0.1-0.4,0.2c0,0.2,0,0.4,0.2,0.5
		C32.6,155.5,33.1,155.6,33.2,155.3z"/>
	<path class="st0" d="M31.6,164.5c0.3-0.6,0-0.9-0.3-1.1c-0.4-0.2-0.8-0.2-0.9,0.3c-0.1,0.3,0.1,0.8,0.3,0.9
		C31,164.8,31.5,164.5,31.6,164.5z"/>
	<path class="st0" d="M31.6,165.7c-0.5,0.8-0.4,1.2,0.4,1.7c0.6,0.4,1.2,0.7,1.9,1.1c-0.6,1.1-0.5,1.3,0.5,1.6
		c0.5-0.4,0.5-0.9,0.1-1.4c1.1-1.2,0.6-2.1-1.1-2.4c0-0.1-0.1-0.2-0.1-0.4c-0.1-0.4-0.4-0.6-0.8-0.7C32,165.2,31.7,165.3,31.6,165.7
		z"/>
	<path class="st0" d="M21,176.5c0.4,0.3,1.2-0.1,1.6-0.8c0.2-0.4,0-1-0.4-1.2c-0.5-0.3-1.3-0.1-1.5,0.4
		C20.4,175.4,20.6,176.2,21,176.5z"/>
	<path class="st0" d="M17.3,208.8c0.5,0.1,1.3-0.3,1.4-0.7c0.2-0.5-0.4-1.1-1.2-1.3c-0.4-0.1-0.7,0.1-0.9,0.5
		C16.5,208,16.8,208.8,17.3,208.8z"/>
	<path class="st0" d="M21.7,186.2c0,0.2,0,0.4,0,0.5c0,0.7,0.5,1.5,1.1,1.6c0.7,0.2,1.4-0.1,1.9-0.5c0.2-0.2,0.3-0.4,0.3-0.7
		c0-1-0.6-1.5-1.6-1.6c-0.2,0-0.4,0-0.6-0.1c0-0.4,0.1-0.7,0.1-1.1c0-0.6-0.3-0.9-0.9-1s-1.1,0.2-1.4,0.6c-0.3,0.5-0.2,1,0.2,1.4
		C21,185.7,21.4,185.9,21.7,186.2z"/>
	<path class="st0" d="M17.2,219.3c0.9,0.3,2-0.3,2.3-1.2c0.3-0.7-0.4-1.9-1.2-2.1c-0.8-0.3-1.7,0.4-2,1.4
		C16,218.2,16.4,219,17.2,219.3z"/>
	<path class="st0" d="M17.7,201.8c0.4,0.2,0.8,0,1-0.4c0.2-0.4-0.1-0.9-0.5-1c-0.4-0.1-0.7,0.2-0.9,0.5
		C17.2,201.2,17.3,201.6,17.7,201.8z"/>
	<path class="st0" d="M18.4,188.7c0.7,0.3,1.2-0.5,1-0.9c-0.1-0.4-0.6-0.5-1-0.4C17.9,187.5,17.7,188.3,18.4,188.7z"/>
	<path class="st0" d="M21.3,193.5c-0.2,0.3,0.1,0.4,0.2,0.4c0.2,0.1,0.6,0.2,0.7,0c0.1-0.3-0.2-0.5-0.3-0.5
		C21.6,193.3,21.5,193.2,21.3,193.5z"/>
	<path class="st0" d="M19.5,201.9c0.6,0.4,0.9,0.4,1.6-0.2c0.6,0,1.2,0.1,1.7,0.1s0.8-0.7,0.4-1c-0.4-0.4-0.9-1-1.7-0.9
		c-0.2,0.2-0.4,0.4-0.6,0.6c-0.8-0.2-1.6,0.1-1.7,0.5C19.1,201.3,19.1,201.7,19.5,201.9z"/>
	<path class="st0" d="M52.7,142.9c0-0.4-0.4-0.7-0.8-0.7s-0.9,0.7-0.4,1.2C52.1,143.9,52.7,143.3,52.7,142.9z"/>
	<path class="st0" d="M55.7,149.2c0.3-0.1,0.4-0.3,0.5-0.5c0.5,0.2,1-0.3,1-0.6c0-0.3-0.4-0.7-0.8-0.7c-0.3,0-0.4,0.2-0.4,0.5
		c-0.2-0.2-0.5-0.3-0.9-0.4c-0.4,0.4-0.9,0.8-0.5,1.3C54.8,149.2,55.2,149.3,55.7,149.2z"/>
	<path class="st0" d="M47.1,156.1c-0.2,0.4,0,1.1,0.4,1.2c0.4,0.2,0.9-0.1,1.1-0.4v-0.1c0.3,0.1,0.5,0,1-0.2
		c0.5,0.3,1.1,0.5,1.5,0.7c0.5,0.2,1-0.4,0.7-0.8c-0.4-0.5-0.5-1.1-1.2-1.4c-0.3,0.1-0.5,0.2-0.8,0.4c-0.7-0.4-1.5-0.4-1.8-0.1
		c-0.1,0.1-0.1,0.2-0.2,0.4C47.5,155.6,47.1,155.8,47.1,156.1z"/>
	<path class="st0" d="M44.8,151.5c0.4,0.7,1.6,0.9,2,0.4c0.4-0.4,0.4-1,0.2-1.5c-0.3-0.5-0.8-0.7-1.2-0.5c-0.4,0.1-1.3,0.1-1.5,0.7
		C44.1,151.2,44.7,151.2,44.8,151.5z"/>
	<path class="st0" d="M52.6,149c-0.2,0.2-0.1,0.4,0,0.4c0.1,0.1,0.4,0.4,0.6,0.2c0.2-0.2,0-0.5-0.1-0.6C53,149,52.8,148.8,52.6,149z
		"/>
	<path class="st0" d="M52.9,151.9c0.2-0.3-0.1-0.5-0.2-0.5c-0.2,0-0.4,0-0.5,0.2c-0.1,0.1,0,0.4,0.1,0.4
		C52.5,152,52.8,152.2,52.9,151.9z"/>
	<path class="st0" d="M34.2,158.4c0.4,0.1,0.6-0.1,0.7-0.4s-0.2-0.5-0.4-0.6c-0.2-0.1-0.4-0.1-0.6,0.2
		C33.8,157.9,33.9,158.3,34.2,158.4z"/>
	<path class="st0" d="M52.7,156.1c-0.3-0.2-0.8,0.1-0.9,0.4c-0.1,0.4,0,0.8,0.4,0.8c0.4,0.1,1.2,0.1,1.2-0.3
		C53.5,156.9,53,156.3,52.7,156.1z"/>
	<path class="st0" d="M53.6,163c0.4,0.1,0.8-0.5,0.9-0.8c0.1-0.2-0.2-0.5-0.4-0.7c-0.3-0.2-0.6-0.1-0.7,0.3
		C53.3,162.2,53.3,163,53.6,163z"/>
	<path class="st0" d="M43.2,170.9c0.5,0.3,1.1-0.1,1.4-0.8c0.3-0.6,0.1-1.2-0.4-1.4c-0.4-0.2-1.7,0.2-1.9,0.5
		C42.2,169.9,42.5,170.6,43.2,170.9z"/>
	<path class="st0" d="M33.6,177.5c-0.4,0.7,0,1.5,0.9,1.9c1.1,0.4,1.8,0.2,2.3-0.9c0.4-0.8-0.1-1.9-1-2.2
		C35.1,176,33.9,176.6,33.6,177.5z"/>
	<path class="st0" d="M38.9,176c0.4,0.2,1.1-0.2,1.2-0.6c0.3-0.7,0.1-1.4-0.5-1.7c-0.7-0.3-1.6,0-1.9,0.5
		C37.7,174.6,38.3,175.7,38.9,176z"/>
	<path class="st0" d="M36.6,171.4c0.5,0.3,0.9-0.4,1.2-0.6c0.3-0.3,0-0.7-0.4-1c-0.4-0.2-0.8-0.1-0.9,0.4
		C36.3,170.6,36.1,171.3,36.6,171.4z"/>
	<path class="st0" d="M40.5,153.8c0.4,0.3,0.9,0.1,1.1-0.4c0.2-0.4,0-0.9-0.4-1.1c-0.4-0.3-1-0.1-1.1,0.4S40.1,153.6,40.5,153.8z"/>
	<path class="st0" d="M40.4,160.7c0.6,0.3,1.1,0.1,1.2-0.4c0.4-0.7,0.1-1.7-0.5-1.9c-0.4-0.2-1.2,0.3-1.5,0.8
		C39.4,159.7,39.8,160.4,40.4,160.7z"/>
	<path class="st0" d="M40.3,168.1c0.8,0.4,1.5,0.1,1.8-0.7c0.4-0.8-0.1-1.9-1-2.2c-0.6-0.3-1.7,0.3-1.9,0.9
		C38.9,166.8,39.4,167.6,40.3,168.1z"/>
	<path class="st0" d="M173.6,370.9c61.7,0,111.7-49.9,111.7-111.5s-50-111.5-111.7-111.5S61.9,197.8,61.9,259.4
		C61.9,321,111.9,370.9,173.6,370.9z"/>
	<path class="st1" d="M72.6,300.2c0.8-0.4,1.3-1.5,1-2.3c-0.2-0.5-1.1-0.8-1.7-0.5c-0.9,0.4-1.2,1.1-0.9,1.9
		C71.3,300,72,300.4,72.6,300.2z"/>
	<path class="st1" d="M69.7,300.6c0.4,1,0.8,2,1.2,3c0.2,0,0.4-0.1,0.4-0.2c-0.1,0.4-0.2,0.7,0,1.1c0.3,1,1.5,1.7,2.5,1.4
		c1.1,0.4,2.2-0.5,2-1.3c-0.3-0.8-0.7-0.9-0.6-1.2c0.2-0.3,0.7-0.7,0.5-1.1c-0.2-0.5-1.9-0.6-2.1-0.4s-0.8,0.7-1.2,0.3
		s-0.4-1.1-1.1-1.2C71.1,300.7,70.4,300.5,69.7,300.6z"/>
	<path class="st1" d="M79.6,301.7c-0.3-0.8-1.2-1.3-1.9-1.1c-0.8,0.2-1.2,1.4-0.9,2.5c0.2,0.6,0.7,0.9,1.2,0.9
		c0.1,0.7,0.7,1.2,1.1,1.4c0.4,0.4,1.4-0.5,1.5-1.4c0-0.6-0.3-0.9-0.8-1.1c-0.1,0-0.2,0-0.2-0.1C79.8,302.5,79.8,302.1,79.6,301.7z"
		/>
	<path class="st1" d="M62,260.9c-0.2,0.4,0.1,1.1,0.4,1.1s1.2-0.1,1.2-0.5c0.1-0.4-0.5-0.8-0.8-0.9C62.7,260.4,62.3,260.4,62,260.9z
		"/>
	<path class="st1" d="M176.4,365.9c0.4-0.3,0.6-1.1,0.3-1.8c-0.4-0.8-1.1-1-1.9-0.5c-0.7,0.4-1,1.1-0.7,1.6
		C174.6,365.9,175.8,366.2,176.4,365.9z"/>
	<path class="st1" d="M176.5,370.5c-0.2,0.1-0.3,0.3-0.4,0.4c0.7,0,1.4,0,2.1-0.1C177.8,370.4,176.9,370.2,176.5,370.5z"/>
	<path class="st1" d="M81,310.5c-0.3-0.1-0.6-0.1-0.9,0c-0.4-0.4-0.9-0.9-1.4-0.4s-0.4,0.9,0,1.3c-0.1,0.1-0.2,0.3-0.2,0.4
		c-0.3,0.8,0.4,2.1,1.3,2.4s1.9-0.4,2.2-1.6C82.3,311.7,81.8,310.9,81,310.5z"/>
	<path class="st1" d="M61.9,258.1c0,0.4,0,0.9,0,1.3c0,0.2,0,0.4,0,0.6c0.1,0,0.3,0,0.4,0c0.7-0.2,0.9-0.7,0.9-1.4
		C62.7,258.3,62.2,257.9,61.9,258.1z"/>
	<path class="st1" d="M62.2,256.1c0.2-0.6,0-1.1-0.4-1.4c0,0.6-0.1,1.2-0.1,1.9C62,256.6,62.1,256.4,62.2,256.1z"/>
	<path class="st1" d="M148,346.9c0-0.1-0.3-0.2-0.3-0.2c-0.1,0.1-0.3,0.2-0.3,0.4c0,0.2,0.2,0.1,0.4,0.2
		C147.9,347.2,148,347.1,148,346.9z"/>
	<path class="st1" d="M92.4,326.1c-0.2,0-0.4-0.1-0.5-0.1c-0.7,0-1.3,0.4-1.7,1.1c-0.4,0.7-0.3,1.2,0.4,1.9c0.7,0.6,1.5,0.7,2.4,0.6
		c0.2,0.4,0.3,0.8,0.4,1.1c0.6,1,1.5,1,2.1-0.1c0.4-0.7,0.3-1.4-0.4-1.9c0-0.2-0.1-0.4-0.1-0.4c-0.2-0.3-0.8-0.8-1.2-0.8
		c0-0.1,0.1-0.1,0.1-0.1c0.7-0.5,0.8-1.1,0.4-1.8c-0.1-0.2-0.1-0.4-0.1-0.6c-0.1-0.7-0.4-1.1-0.9-1.1c-0.6,0.1-0.9,0.6-0.6,1.4
		c0,0.1,0.1,0.2,0.2,0.2C93,325.9,92.9,326.2,92.4,326.1z M93.5,328.2C93.5,328.3,93.5,328.3,93.5,328.2L93.5,328.2z"/>
	<path class="st1" d="M83.5,311.7c0.4-0.2,0.5-1.1,0.3-1.5c-0.2-0.4-0.7-0.4-1.1-0.2c-0.7,0.4-1,1-0.8,1.3
		C82.1,311.6,83.1,311.8,83.5,311.7z"/>
	<path class="st1" d="M76.8,314c0.2,0.5,0.6,0.8,1.1,0.6s0.9-0.7,0.7-1.1c-0.2-0.4-0.7-0.7-1.2-0.5C76.8,313,76.7,313.4,76.8,314z"
		/>
	<path class="st1" d="M77.9,308.6c0.5,0.2,1.1-0.2,1.2-0.6c0.1-0.5-0.3-1.1-0.7-1.2c-0.4-0.1-1,0.3-1.1,0.7
		C77.1,308,77.4,308.5,77.9,308.6z"/>
	<path class="st1" d="M79.8,318.8c0.5,0.5,1.2,0.7,1.9,0.4c0.8-0.4,1.1-0.9,1-1.6c0.1,0,0.2,0,0.2-0.1c0.7-0.4,1.2-1.4,0.8-2.2
		c-0.3-0.8-1.5-1.4-2.2-1.1c-0.7,0.3-1.2,1-1.3,1.7c-0.2,0.1-0.4,0.2-0.4,0.4c-0.2-0.2-0.4-0.3-0.7-0.4c-0.7-0.2-1.2,0.1-1.6,0.7
		c0.4,0.8,1,1.6,1.5,2.4C79.4,319,79.7,318.9,79.8,318.8z"/>
	<path class="st1" d="M172.6,357.2c-0.2,0.1-0.4,0.5-0.4,0.8c0.1,0.3,0.8,0.3,1,0.1c0.2-0.1,0.3-0.5,0.1-0.7
		C173.2,357.2,172.8,357.1,172.6,357.2z"/>
	<path class="st1" d="M112.8,352c0.4,1,1.5,1.3,2.7,0.8c0.1,0,0.2-0.1,0.2-0.1c-0.3,0.5-0.4,1.1-0.2,1.6c0.2,0.5,1,0.7,1.7,0.4
		c0.8-0.4,1.1-1.1,0.7-1.9c-0.3-0.6-1.1-1.1-1.5-0.9c-0.1,0-0.1,0.1-0.2,0.1c0.3-0.5,0.3-1.1,0-1.7c-0.1-0.2-0.3-0.4-0.4-0.5
		c0.3,0,0.5-0.1,0.8-0.3c0.2,0.1,0.4,0.1,0.6,0c0.4-0.2,0.7-0.8,0.7-1.3c0.1-0.6-0.3-1.4-1-1.9c-0.5-0.3-1.1-0.4-1.1-1.2
		c0-0.5-0.6-0.6-1.2-0.6c-0.4,0.6-0.4,1.1,0.2,1.4c-0.3,0.7-0.5,1.1-0.6,1.7c-0.1,0.5,0.3,1.2,0.7,1.7c-0.4,0-0.8,0.1-1.2,0.3
		C112.6,350.4,112.4,350.9,112.8,352z"/>
	<path class="st1" d="M110.5,336.7c0,0.4,0.5,0.6,1,0.4c0.5-0.2,0.7-0.5,0.4-1c-0.2-0.3-0.5-1.1-1.1-0.9
		C110.4,335.5,110.5,336.3,110.5,336.7z"/>
	<path class="st1" d="M111.5,337.3c-0.5,0.2-0.8,0.7-0.6,1.2c0.3,0.5,0.9,0.9,1.3,0.6c0.4-0.2,0.6-0.8,0.4-1.3
		C112.4,337.4,111.9,337.1,111.5,337.3z"/>
	<path class="st1" d="M111.3,322.3c0.1,0,0.3-0.4,0.2-0.5c-0.1-0.2-0.4-0.2-0.6-0.2c-0.1,0-0.4,0.4-0.4,0.6
		C110.6,322.5,111.1,322.4,111.3,322.3z"/>
	<path class="st1" d="M100,327.1c0.2-0.1,0.4-0.4,0.4-0.5s-0.4-0.5-0.6-0.4c-0.3,0.1-0.2,0.6-0.2,0.8C99.5,327,99.8,327.2,100,327.1
		z"/>
	<path class="st1" d="M104.7,342.4c-0.5,0.2-0.8,0.8-0.6,1.2c0.2,0.4,0.8,0.7,1.3,0.5c0.4-0.2,0.6-0.4,0.5-0.9
		c0.3,0.2,0.5,0.2,0.8,0.1c0.3-0.1,0.7-0.7,1-1.1c0.1,0,0.2,0.1,0.3,0.1c-0.3,0.3-0.4,0.6-0.4,1.1c0.1,1.3,0.9,2,1.8,2
		c0.5,0,1.2-0.5,1.6-1.1c0.3,0.4,0.7,0.5,1.2,0.4c0.4-0.2,0.6-0.7,0.4-1.2c0.4-0.5,0.5-1.2,0.4-1.8c-0.3-0.9-1.3-1.1-2.4-0.8
		c-0.5,0.2-0.8,0.5-1,0.9h-0.1c0.4-0.4,0.4-1.1,0.2-1.9c-0.1-0.3-0.3-0.5-0.4-0.7c0.2-0.1,0.4-0.2,0.6-0.4c0.4-0.5,0-1.4-0.6-1.7
		c-0.5-0.3-1.4-0.1-1.8,0.4c-0.5,0.6-0.2,1.3,0,1.6c-0.6,0.4-1,1.1-1,1.8c-0.1,0-0.3,0.1-0.4,0.1c-0.6,0.3-0.8,0.8-0.5,1.6
		C105.2,342.4,104.9,342.4,104.7,342.4z"/>
	<path class="st1" d="M105.1,334.9c0.3,0.8,1.1,1.2,1.7,1c0.8-0.3,1.3-1.2,1.1-1.9c-0.1-0.2-0.2-0.3-0.4-0.4
		c0.4-0.1,0.6-0.3,0.8-0.4c0.4-0.4,0.7-0.9,0.3-1.5c-0.3-0.3-0.4-0.6-0.6-0.9h0.1c0.7-0.3,1.2-1.7,0.9-2.7c-0.3-0.8-1.2-1.2-2.1-0.9
		c-1.2,0.4-1.6,1.2-1.2,2.5c0.1,0.2,0.2,0.4,0.3,0.5c-0.1,0.2-0.1,0.4-0.1,0.6c0.1,0.4,0.2,0.7,0,1.1c-0.2,0.5-0.1,1,0.2,1.3
		c-0.1,0-0.2,0-0.3,0.1C105.3,333.7,104.9,334.5,105.1,334.9z"/>
	<path class="st1" d="M137.2,357.6c-0.4-0.3-1.9,0.7-1.9,0.9c-0.1,0.3-0.2,0.9-0.6,1c-0.2-0.1-0.4-0.2-0.6-0.2
		c-0.4-0.2-0.7-0.4-1.2-0.2c-0.5,0.3-1.9,0.8-1.9,1.7s0.8,0.7,1.2,1.1c0.4,0.4,1.1,0.4,1.6,0.1c0.4,0.4,0.4,0.8,1.2,1
		c0.2,0.1,0.4,0,0.5,0c0.8-0.2,1.2-0.7,1.2-1.3c0.4,0.1,0.8,0.2,1.3,0c1.1-0.4,1.4-1.8,0.8-2.3c-0.7-0.5-1.2-0.3-1.2-0.5
		C137.4,358.5,137.7,357.8,137.2,357.6z"/>
	<path class="st1" d="M145.5,366.2c0.1-0.1,0.3-0.2,0.4-0.3c0.4-0.3,0.4-0.8,0.4-1.3c0.4,0.2,1,0.2,1.3,0.1c0.6-0.2,1-0.8,1-1.4
		c0.1,0,0.2,0,0.3-0.1c0.4-0.2,0.6-0.7,0.4-1.1c-0.2-0.5-0.8-0.8-1.2-0.6c-0.4-0.4-1.1-0.5-1.7-0.4c-0.9,0.3-1.5,1.4-1.2,2.3
		c-0.6,0-1.3,0.2-1.6,0.7c-0.4,0.5-0.4,1.1-0.3,1.4c-0.1,0-0.2,0.1-0.3,0.1c-0.4,0.2-0.7,0.4-0.8,0.7c1.2,0.4,2.3,0.6,3.5,1
		C145.6,367,145.7,366.6,145.5,366.2z"/>
	<path class="st1" d="M141.3,364.4c-0.4,0.3-0.6,0.8-0.4,1.2c0.3,0.4,0.9,0.7,1.3,0.4c0.4-0.3,0.5-0.7,0.3-1.1
		C142.4,364.4,141.8,364.1,141.3,364.4z"/>
	<path class="st1" d="M115.2,342.5c0.9-0.4,1.1-1,0.7-1.9c-0.4-0.7-1.1-1.1-1.6-0.9c-0.6,0.4-1,1.5-0.7,2.3
		C113.9,342.6,114.5,342.8,115.2,342.5z"/>
	<path class="st1" d="M127,360.7c0.1-0.5-0.3-0.8-0.7-1c-0.2-0.1-0.4-0.2-0.5-0.3c0.5-0.3,0.7-0.9,0.4-1.3c-0.3-0.5-0.9-0.7-1.4-0.4
		c-0.4,0.2-0.6,0.7-0.5,1.1c-0.3-0.1-0.6-0.1-0.9,0.2C124.5,359.6,125.7,360.1,127,360.7L127,360.7z"/>
	<path class="st1" d="M120.4,347c-0.5,0.3-0.8,1-0.5,1.4s1,0.7,1.4,0.4c0.5-0.3,0.7-0.9,0.4-1.3C121.6,347,121,346.9,120.4,347z"/>
	<path class="st1" d="M121.8,349c-1,0.4-1.4,1.1-1.2,1.7c0.2,0.4,1.3,1,1.8,0.7c0.4-0.2,0.8-1.3,0.5-1.9
		C122.7,348.9,122.3,348.7,121.8,349z"/>
	<path class="st1" d="M122,352.3c-0.5-0.3-1-0.2-1.3,0.2c-0.3,0.3-0.3,0.6-0.2,0.9c0,0.1,0,0.3,0,0.4c0.1,0.2,0.2,0.3,0.3,0.4v0.1
		h0.1c0.3,0.2,0.5,0.2,0.8,0.2c0.2,0,0.3-0.1,0.4-0.3c0,0.3,0,0.4,0.1,0.6c0.4,0.8,1.6,1.2,2.5,1c0.8-0.4,1.2-1.2,0.8-2
		c-0.5-1.1-1.5-1.7-2.4-1.2c-0.2,0.1-0.4,0.3-0.6,0.5C122.5,352.7,122.4,352.4,122,352.3z"/>
	<path class="st1" d="M98.4,341.9c0.7,0.6,1.4,1.2,2.1,1.9c0.1-0.2,0.2-0.4,0.1-0.8c0.4,0.4,0.6,0.5,0.8,0.8
		c0.3,0.5,0.6,0.7,1.2,0.5c0.5-0.2,1.1-0.4,1.2-1.1c0.4-2,0-2.5-1.9-3.1c0,0-0.1,0-0.2-0.1c0.3,0.1,0.6,0.1,0.8,0.1
		c0.4,0,0.7-0.4,0.5-0.8c-0.1-0.5-0.5-0.8-1-0.6c-0.2,0.1-0.5,0.4-0.7,0.7c-0.3-0.4-0.6-0.6-1.1-0.5c-0.6,0.2-0.9,1-0.4,1.6
		c0.4,0.5,0.2,1,0,1.5C99.2,341.6,98.7,341.7,98.4,341.9z"/>
	<path class="st1" d="M65,265.4c-0.9-0.3-1.9,0.4-2.1,1.5c-0.2,0.7,0,1.3,0.5,1.8c-0.1,0.3-0.2,0.4-0.2,0.6c-0.4,0-0.7,0-1,0.2
		c0.2,2.3,0.4,4.6,0.8,6.9c0.1,0.2,0.3,0.4,0.5,0.4c0.4,0.1,1-0.3,1.2-0.8s-0.2-1.1-0.6-1.2c-0.1,0-0.1,0-0.2,0
		c0.3-0.8-0.2-1.4-0.5-1.9l-0.1-0.1c0.6-0.1,1.1-0.6,1.2-1.4c0.1-0.3,0.1-0.6,0.1-0.9c0.2,0.1,0.4,0.2,0.7,0
		c0.6-0.2,0.8-1.1,0.5-1.8c0-0.1-0.1-0.2-0.2-0.2c0.4-0.3,0.6-0.6,0.7-1C66.6,266.8,65.9,265.8,65,265.4z"/>
	<path class="st1" d="M65.3,255.2c0.1-0.1,0-0.6-0.3-0.7c-0.3-0.1-0.5,0.4-0.6,0.5s0.1,0.4,0.3,0.4
		C64.9,255.4,65.2,255.4,65.3,255.2z"/>
	<path class="st1" d="M65.5,239.8c-0.4,0-1.2,0.1-1.2,0.4c-0.1,0.4,0.7,0.8,1,0.8c0.2,0,0.5-0.4,0.7-0.6
		C66.1,240.2,65.9,239.8,65.5,239.8z"/>
	<path class="st1" d="M69.2,268c-0.2,0-0.5,0.1-0.6,0.3c-0.1,0.1-0.2,0.5,0.3,0.7c0.4,0.2,0.5-0.4,0.6-0.5
		C69.5,268.3,69.3,268,69.2,268z"/>
	<path class="st1" d="M66.1,258.5c-0.1-0.4-0.4-0.9-0.6-0.9s-0.6,0.4-0.7,0.6s0.2,1,0.5,1C65.6,259.3,66.2,258.7,66.1,258.5z"/>
	<path class="st1" d="M67.7,270.6c-0.6-0.2-1.1,0.1-1.2,0.6c-0.2,0.6,0.2,1.2,0.7,1.3c0.4,0.1,1-0.3,1.2-0.8
		C68.4,271.2,68.1,270.7,67.7,270.6z"/>
	<path class="st1" d="M66.6,275.6c-0.2,0.6,0.2,1.1,1,1.4c0.9,0.3,1.5-0.1,1.7-1.1c0.2-0.8-0.2-1.6-0.7-1.7
		C67.7,274,66.7,274.8,66.6,275.6z"/>
	<path class="st1" d="M67.3,274.1c0.4,0.1,0.7-0.1,0.8-0.4c0.1-0.4,0-0.9-0.5-1.1c-0.4-0.1-1.1,0.2-1.2,0.6
		C66.4,273.6,66.8,274,67.3,274.1z"/>
	<path class="st1" d="M67,245.5c0.3-0.9-0.3-1.9-1.1-2.2c-1-0.3-2,0.1-2.3,0.9c-0.3,0.9,0.4,2.4,1.2,2.6
		C65.8,247,66.8,246.4,67,245.5z"/>
	<path class="st1" d="M164,365.3c-0.5,0.3-0.7,1-0.4,1.4s1.1,0.6,1.5,0.4c0.4-0.3,0.6-0.9,0.4-1.3C165.2,365.3,164.5,365,164,365.3z
		"/>
	<path class="st1" d="M165.5,367.1c-1,0.4-1.3,1.1-1.1,1.8c0.3,0.4,1.3,0.9,1.8,0.6c0.4-0.3,0.7-1.3,0.4-2
		C166.4,367,166,366.8,165.5,367.1z"/>
	<path class="st1" d="M165.9,370.5c-0.4-0.2-0.9-0.1-1.2,0.2c0.5,0,1,0.1,1.5,0.1C166.1,370.6,166.1,370.5,165.9,370.5z"/>
	<path class="st1" d="M65,235.9c-0.1,0.1,0,0.4,0.2,0.5s0.4-0.2,0.6-0.3c0.1-0.1,0.1-0.5-0.2-0.6C65.4,235.5,65.1,235.7,65,235.9z"
		/>
	<path class="st1" d="M62.1,251.6c0.1,0.1,0.1,0.2,0.3,0.3c0.5,0.4,1.9,0.3,2.4-0.3s0.4-1.1-0.8-2.2c0.4-0.5,0.9-1,0.3-1.6
		c-0.4-0.4-0.8-0.4-1.3-0.2c-0.2,0.1-0.4,0.4-0.4,0.5c0,0.4,0.2,1,0.3,1.5c-0.3,0.3-0.4,0.5-0.5,0.8
		C62.1,250.8,62.1,251.3,62.1,251.6z"/>
	<path class="st1" d="M176.9,368.2c-0.1,0.5,0.2,1,0.7,1.1c0.3,0.1,0.7,0,0.9-0.2c0.4-0.4,0.4-0.8-0.2-1.7
		C177.7,367.5,177,367.4,176.9,368.2z"/>
	<path class="st1" d="M167,370.6c-0.1,0.1-0.2,0.1-0.3,0.2c0.6,0,1.3,0.1,1.9,0.1C168.2,370.4,167.6,370.2,167,370.6z"/>
	<path class="st1" d="M67.8,288.3c0.5,0.1,1.4-0.6,1.6-1.2c0.2-0.5-0.1-1-0.6-1.1c-1.1-0.3-1.8,0-1.9,0.7
		C66.7,287.2,67.3,288.2,67.8,288.3z"/>
	<path class="st1" d="M94.4,333.4c-0.4-0.8-1.1-1.1-1.7-0.8c-0.5,0.3-0.9,1-0.9,1.6c-0.3,0.2-0.4,0.4-0.6,0.5c0.9,1,1.9,1.9,2.8,2.9
		c0.2-0.3,0.4-0.5,0.4-0.7c0.1-0.1-0.1-0.4-0.2-0.5c-0.3-0.4-0.4-0.7-0.4-1.1C94.5,334.8,94.7,334.2,94.4,333.4z"/>
	<path class="st1" d="M82.6,321.3c-0.2-0.5-0.8-0.8-1.2-0.5c-0.3,0.2-0.5,0.5-0.5,0.9c0.7,1.1,1.4,2.1,2.2,3.1
		c0.3-0.5,0.4-1.2,0.3-1.7c-0.1-0.3-0.4-0.5-0.7-0.7C82.7,322.1,82.8,321.7,82.6,321.3z"/>
	<path class="st1" d="M68.4,282.6c0.1-0.1-0.2-0.4-0.3-0.4c-0.2,0-0.5,0.1-0.6,0.3c-0.1,0.1,0.1,0.7,0.3,0.7
		C68,283.1,68.3,282.8,68.4,282.6z"/>
	<path class="st1" d="M64.9,279.5c0-0.3-0.2-0.5-0.4-0.6c-0.2-0.1-0.7,0-0.8,0.3c0,0.3,0.3,0.5,0.4,0.5
		C64.4,279.8,64.9,279.8,64.9,279.5z"/>
	<path class="st1" d="M65.8,288.2c-0.1,0-0.2,0-0.2,0.1c0.4,1.7,0.9,3.3,1.4,4.9c0.8,0.2,1.6-0.4,1.9-1.1c0.3-1.1-0.2-2.2-1.2-2.4
		c-0.3-0.1-0.5,0-0.8,0.1c0.1-0.3,0.1-0.5,0-0.9C66.7,288.3,66.3,288.2,65.8,288.2z"/>
	<path class="st1" d="M64.4,283.5c0.3,0.1,0.5,0.1,0.8,0.1c0,0.2,0.2,0.3,0.3,0.3s0.3-0.2,0.3-0.3v-0.1c0.1,0,0.3-0.1,0.4-0.2
		c0.6-0.4,0.9-1.4,0.5-2.2c-0.3-0.5-0.5-1-0.1-1.7c0.4-0.4-0.1-0.9-0.5-1.2c-0.7,0.2-1,0.7-0.7,1.2c-0.5,0.4-1,0.5-1.4,0.8
		C64,281.3,64.2,282.4,64.4,283.5z"/>
	<path class="st1" d="M72,306c0.2,0.4,0.4,0.9,0.6,1.3C72.7,306.8,72.4,306.3,72,306z"/>
	<path class="st1" d="M69,294.6c-0.5-0.1-1.1,0-1.4,0.3c0.4,1.1,0.8,2.3,1.2,3.4c0.7-0.1,1.2-0.6,1.4-1.4
		C70.4,295.7,70,294.9,69,294.6z"/>
	<path class="st1" d="M68.9,283.7c-0.5-0.1-1.2,0.3-1.2,0.8c-0.1,0.5,0.4,1.1,0.9,1.2c0.5,0.1,1.1-0.3,1.2-0.8
		C69.7,284.4,69.4,283.8,68.9,283.7z"/>
	<path class="st1" d="M75,308.5c-0.5,0.2-0.8,0.8-0.6,1.2c0.1,0.2,0.3,0.4,0.4,0.4c-0.3,0-0.4,0.2-0.5,0.3c0.3,0.5,0.5,1.1,0.9,1.6
		c0.4,0,0.6-0.3,0.7-0.7c0.1-0.4-0.1-0.9-0.4-1.1c0.1,0,0.2,0,0.3-0.1c0.5-0.3,0.7-0.9,0.5-1.3C75.8,308.3,75.4,308.3,75,308.5z"/>
	<path class="st1" d="M95.8,335.3c-0.4,0.2-0.7,1.1-0.5,1.6c0.2,0.4,1,0.5,1.4,0.4c0.5-0.2,0.8-0.9,0.5-1.4
		C96.9,335.4,96.2,335.1,95.8,335.3z"/>
	<path class="st1" d="M101.1,344.3c0.5,0.4,1.2,1,1.7,1.4c0-0.4-0.1-0.9-0.4-1.1C102.2,344.3,101.6,344.2,101.1,344.3z"/>
	<path class="st1" d="M90.4,333.9c0-0.2,0-0.4-0.1-0.5c-0.2-0.4-0.5-0.5-1-0.7C89.7,333.1,90,333.5,90.4,333.9z"/>
	<path class="st1" d="M87.3,326.3c-0.4-0.5-0.5-1.1-0.9-1.4c-0.4-0.4-1.2-0.4-1.6,0c-0.4,0.4-0.6,0.8-1,1.2c1,1.3,1.9,2.6,3,3.8
		c0.1,0,0.1,0,0.2,0c1.2-0.2,1.9-0.8,1.9-1.9C89.1,326.9,88.5,326.4,87.3,326.3z"/>
	<path class="st1" d="M193.2,354.2c0.2,0.4,0.6,0.2,0.8,0.1l0.1-0.1c0.4,0,0.5-0.5,0.5-0.7s-0.1-0.6-0.4-0.6c-0.4,0-0.5,0.4-0.6,0.5
		c0,0.1,0,0.1,0,0.2h-0.1C193.3,353.5,192.9,353.8,193.2,354.2z"/>
	<path class="st1" d="M137,334c-0.6,0.1-0.9,1.4-0.6,1.7c0.3,0.3,1.6-0.3,1.6-0.8C138,334.5,137.4,334,137,334z"/>
	<path class="st1" d="M144.5,339.8c-0.2,0.1-0.7,0.4-0.6,0.8s0.8,0.4,1,0.3c0.2-0.1,0.5-0.4,0.4-0.7
		C145.1,339.8,144.7,339.7,144.5,339.8z"/>
	<path class="st1" d="M143.8,336.5c-0.8,0.5-0.2,1.7,0.3,1.8c0.4,0.1,1.2-0.7,1.1-1.2C145,336.4,144.5,336.1,143.8,336.5z"/>
	<path class="st1" d="M149.1,343c-0.2,0.5-0.2,0.4-0.7,0.5c-0.6,0.2-1.2,0.7-0.7,1.6c0.6,0.9,1.9,0.8,2.7,0.4s1.2-2.3,0.4-3.1
		C150.1,341.7,149.2,342.4,149.1,343z"/>
	<path class="st1" d="M143.3,349.2c0.3,0.7,1,1,1.5,0.8c0.8-0.4,1.2-1.3,1-1.9c-0.4-0.7-1.3-1.1-1.9-0.8
		C143.4,347.5,143,348.5,143.3,349.2z"/>
	<path class="st1" d="M140.3,330.6c0.3-0.1,0.8-0.6,0.5-1.1c-0.3-0.4-0.9-0.3-1.1-0.1c-0.2,0.1-0.4,0.5-0.4,0.8
		C139.5,330.6,139.9,330.8,140.3,330.6z"/>
	<path class="st1" d="M137.1,343.1c-0.4,0.2-0.6,0.7-0.4,1.2c0.2,0.4,0.7,0.6,1.1,0.4c0.3-0.3,0.5-0.5,0.5-0.8
		S137.4,343,137.1,343.1z"/>
	<path class="st1" d="M138.3,342.1c0.3,0.3,0.7,0.5,1.1,0.5s0.6-0.8,0.4-1.2c-0.2-0.3-0.5-0.4-0.7-0.4
		C138.3,341.3,138.1,341.8,138.3,342.1z"/>
	<path class="st1" d="M150.8,337.5c0.1-0.1,0.3-0.4,0.2-0.6c-0.1-0.2-0.4-0.3-0.6-0.3c-0.2,0.1-0.5,0.4-0.3,0.7
		C150.3,337.8,150.7,337.6,150.8,337.5z"/>
	<path class="st1" d="M194.9,361.5c-0.1-0.4-0.3-0.7-0.5-0.8c-0.3-0.1-1.1,0.3-1.2,0.7c0,0.4,0.4,0.9,0.9,0.9
		C194.7,362.3,195,362,194.9,361.5z"/>
	<path class="st1" d="M192.9,363.2c-0.4,0.3-0.5,0.5-0.5,0.6c0.4,0.3,0.7,1.1,1.2,0.9s0.4-1,0.6-1.4c-0.1-0.1-0.2-0.2-0.2-0.3
		C193.4,362.9,193.3,363,192.9,363.2z"/>
	<path class="st1" d="M192.3,358.7c-0.1,0.7,0.3,1.2,0.6,1.1c0.4-0.1,0.8-0.4,0.9-0.7c0.2-0.4-0.4-0.9-0.9-0.9
		C192.6,358.3,192.4,358.5,192.3,358.7z"/>
	<path class="st1" d="M178.7,356.1c0.2,0,0.5-0.2,0.5-0.4c0.1-0.2-0.3-0.4-0.4-0.5c-0.2,0-0.6,0.1-0.7,0.4
		C178.1,356,178.5,356.1,178.7,356.1z"/>
	<path class="st1" d="M193.8,347.2c0.4,0,0.4-0.4,0.4-0.6c0-0.2-0.4-0.4-0.4-0.4c-0.2,0-0.4,0.3-0.4,0.4
		C193.3,346.8,193.4,347.2,193.8,347.2z"/>
	<path class="st1" d="M98.8,333c-0.2-0.6-1.3-1.1-1.9-1c-0.6,0.3-0.8,1.1-0.4,2c0.1,0.4,0.6,0.5,1.1,0.6c-0.4,0.3-0.4,0.6-0.3,1.1
		c0.2,0.5,0.8,0.8,1.2,0.5c0.4-0.2,0.8-0.9,0.6-1.3c-0.1-0.4-0.5-0.6-0.9-0.6C98.6,334,98.9,333.3,98.8,333z"/>
	<path class="st1" d="M152.5,366.6c-0.6-0.2-1.2,0-1.8,0.4c0,0,0,0-0.1,0c-0.3-0.7-1.5-1.1-2.5-0.6c-0.6,0.3-1,0.8-0.8,1.4
		c2.3,0.5,4.6,1.1,7,1.4c0.1-0.7-0.3-1.4-0.7-1.9C153.3,366.9,152.8,366.7,152.5,366.6z"/>
	<path class="st1" d="M91.7,302.4c0.5,0.2,1-0.5,1.4-0.7c0-0.1,0-0.2,0-0.4c-0.3-0.5-0.4-0.5-0.9-0.6c-0.4-0.1-0.7,0.1-0.9,0.2
		C91.4,301.3,91.3,302.2,91.7,302.4z"/>
	<path class="st1" d="M111.4,311.6c-0.5-0.5-1.5-0.8-2.1-0.5c-0.7,0.4-1.1,1.1-1.2,1.9c0,0.3,0.1,0.6,0.4,0.8
		c0.7,0.7,1.7,0.8,2.6,0.1c0.2-0.1,0.4-0.3,0.5-0.4c0.3,0.4,0.4,0.6,0.7,1c0.5,0.5,0.9,0.5,1.5,0.2c0.5-0.4,0.8-1,0.6-1.6
		c-0.1-0.6-0.6-0.9-1.2-1c-0.4-0.1-0.9,0-1.3,0.1C111.6,311.8,111.6,311.7,111.4,311.6z"/>
	<path class="st1" d="M92.3,272c0.2-0.1,0.4-0.4,0.4-0.7c0-0.2-0.4-0.5-0.7-0.5c-0.3,0.1-0.4,0.7-0.3,0.9
		C91.7,271.9,92.2,272.1,92.3,272z"/>
	<path class="st1" d="M196,367.5c0-0.5-0.8-1.1-1.4-1.1c-0.9,0-1.3,0.5-1.3,1.4c0,0.7,0.3,1.1,0.8,1.3c0.4-0.1,0.7-0.1,1.1-0.2
		C195.6,368.5,196,368,196,367.5z"/>
	<path class="st1" d="M136.1,338.4c0.1-0.2-0.3-0.4-0.4-0.5c-0.2-0.1-0.6,0.1-0.7,0.4s0.4,0.5,0.5,0.5
		C135.7,338.7,136,338.6,136.1,338.4z"/>
	<path class="st1" d="M92.1,293.5c0.2,0.1,0.6,0,0.7-0.4s-0.2-0.6-0.4-0.7c-0.2-0.1-0.8-0.2-1,0.3C91.3,293.2,91.9,293.5,92.1,293.5
		z"/>
	<path class="st1" d="M72.8,225.4c0.4,0.2,1-0.2,1.2-0.6s-0.1-1.1-0.5-1.1c-0.5-0.1-1,0.1-1.2,0.6C72,224.7,72.2,225.2,72.8,225.4z"
		/>
	<path class="st1" d="M72.8,220.4c0.4,0.1,1.3,0,1.5-0.3c0.2-0.4-0.6-1-0.8-1c-0.4,0.1-1,0-1.2,0.4C72,220.1,72.7,220.4,72.8,220.4z
		"/>
	<path class="st1" d="M73.1,246.7c0.8,0.2,1.4-0.3,1.6-1.2c0.2-1-0.3-1.6-1.1-1.8c-0.8-0.2-1.6,0.4-1.8,1.2
		C71.7,245.6,72.3,246.5,73.1,246.7z"/>
	<path class="st1" d="M99,293.6c-0.2,0-0.5,0-0.6,0.3c-0.6,0.2-1.1,0.9-0.8,1.3c0.3,0.4,1.9,0.4,2.1-0.1c0.2-0.3-0.1-0.6-0.4-1V294
		C99.3,294,99.2,293.6,99,293.6z"/>
	<path class="st1" d="M113.7,308.6c0.2-0.4-0.2-1.2-1-1.1c-0.7,0.4-0.5,1.3-0.1,1.5C112.9,309.1,113.5,308.9,113.7,308.6z"/>
	<path class="st1" d="M131.9,323.5c0.1-0.2,0-0.6-0.2-0.7c-0.1-0.1-0.7-0.2-0.9,0.1c-0.2,0.2,0.2,0.8,0.4,0.9
		C131.4,323.8,131.9,323.7,131.9,323.5z"/>
	<path class="st1" d="M135,354.5c0.3,0.5,1.2,0.7,1.9,0.4c0.4-0.3,0.7-0.7,0.7-1.1c0.2,0.1,0.4,0.1,0.5,0.1c0.9-0.2,1.2-1,1.3-1
		c0.2,0,1.2,0.4,1.4-0.3c0.6-1.5-0.9-1.7-0.8-2.1c0.1-0.4,0.7-1.2,0.8-1.9c0.2-1-0.3-2-1.3-2c-1.1-0.1-1.7,0.4-1.9,1.2
		c-0.3-0.3-1-0.8-1.2-0.7c-0.4,0.2-0.2,1.2,0,1.2c0.4,0.3,0.8,0.6,1.2,0.4c0.3,0.9,1.2,0.9,0.9,1.6c-0.4,0.9-1,0.1-1.5,1.3
		c-0.1,0.3-0.2,0.5-0.2,0.7c-0.4-0.3-0.8-0.3-1.2-0.1C135,352.6,134.6,353.8,135,354.5z"/>
	<path class="st1" d="M129.5,327.7c-0.8,0.4-1.1,1.3-0.8,2.1c0.4,1,1.5,1.4,2.5,1c0.8-0.4,1.2-1.1,0.9-1.9
		C131.7,327.9,130.3,327.3,129.5,327.7z"/>
	<path class="st1" d="M115.2,334.7c0.4-0.3,0.4-0.5,0.2-0.9c-0.2-0.4-0.7-0.6-1.1-0.4c-0.3,0.2-0.4,0.5-0.5,0.8
		c0.1,0.2,0.2,0.3,0.3,0.4c-0.1,0.1-0.2,0.1-0.4,0.2c-0.1,0.8,0.3,1.1,1.1,1.2c0.1,1.9,1.2,2.2,2.7,1.2c0.1,0.1,0.3,0.1,0.4,0.2
		c0.4,0.4,0.8,0.2,1.2-0.1c0.4-0.3,0.4-0.6,0.4-1.1c-0.2-1.1-0.5-1.3-1.6-1.1c-0.8,0.2-1.6,0.4-2.3,0.4
		C115.4,335.1,115.3,334.8,115.2,334.7z"/>
	<path class="st1" d="M121.3,320.5c-0.2-0.6-1-1.2-1.6-1.1c-0.6,0.2-0.9,1-0.6,1.9c0.1,0.4,0.8,0.8,1.2,0.7c0.4-0.1,0.7-0.4,0.9-0.7
		c-0.2,0.5-0.3,1.1-0.1,1.4c0.4,0.8,1.6,1.2,2.5,0.8c0.8-0.4,1.3-1.7,1-2.4c-0.4-1-1.6-1.5-2.3-1.1c-0.4,0.2-0.6,0.6-0.9,1.1
		C121.4,320.8,121.4,320.6,121.3,320.5z"/>
	<path class="st1" d="M117,327.8c0.2-0.1,0.5-0.4,0.4-0.6s-0.6-0.3-0.8-0.2c-0.2,0.1-0.4,0.4-0.3,0.6
		C116.4,327.9,116.8,327.9,117,327.8z"/>
	<path class="st1" d="M176.1,361.4c0,0.9,0.7,1.6,1.6,1.6c1.1,0.1,1.9-0.7,1.9-1.8c0-0.9-0.5-1.6-1.3-1.6
		C177.2,359.5,176.1,360.5,176.1,361.4z"/>
	<path class="st1" d="M83.7,288.8c-0.4,0.2-0.7,1-0.4,1.4c0.3,0.4,1.2,0.5,1.4-0.1c0.1-0.3-0.3-0.8-0.5-1.2
		C84.1,288.9,84,288.6,83.7,288.8z"/>
	<path class="st1" d="M75.4,272.7c-0.1,0.6,0.4,1.7,0.8,1.9c0.3,0.1,0.6,0.1,0.9-0.1c0,0.3,0.1,0.6,0.3,0.7c0.2,0.1,0.7-0.2,0.8-0.4
		s0-1-0.3-1.1h-0.1c0.1-0.1,0.1-0.2,0.1-0.3c0.2-0.6-0.3-1.2-1.2-1.4C76.1,271.9,75.5,272.1,75.4,272.7z"/>
	<path class="st1" d="M81.3,297.1L81.3,297.1c-1,0.5-1-0.4-2.1,0.2c-1.2,0.7-1.2,2-0.4,2.5c0.8,0.4,1.5-0.1,1.7,0.1
		c0.2,0.2,0.7,1.1,1.3,0.6c0.8-0.4,0.8-1.1,0.7-1.5h0.1c0.4-0.2,0.6-0.6,0.6-1.1c0.4-0.2,0.8-0.4,1.1-0.6c0.7-0.7,1-1.8,0.2-2.4
		c-1-0.8-1.9-0.6-2.6,0.1c-0.9,0.9,0,1.6-0.4,2C81.4,297,81.4,297,81.3,297.1z"/>
	<path class="st1" d="M84.4,290.7c-0.4-0.1-1,0.2-1.1,0.7c-0.1,0.4,0.2,0.9,0.6,0.9s0.7-0.2,0.9-0.4
		C85.1,291.8,84.9,290.8,84.4,290.7z"/>
	<path class="st1" d="M83.6,305.4c-0.2-0.8-0.5-1.2-0.9-1.2c-0.4,0.1-1.1,0.9-1,1.3c0,0.3,0.4,0.6,0.8,0.7c-0.3,0.2-0.4,0.5-0.5,0.8
		c-0.1,0.4,0.3,1.1,0.7,1.2c1,0.3,1.9-0.1,1.9-0.7c0.1-0.6-0.5-1.5-1.2-1.7C83.6,305.7,83.6,305.6,83.6,305.4z"/>
	<path class="st1" d="M71.2,288.4c-0.3,0.1-0.3,0.6-0.3,0.8c0.1,0.2,0.3,0.4,0.4,0.4c-0.5,0.3-1.1,0.7-1.2,1.2
		c-0.2,0.8,0.6,1.9,1.5,2.1c0.9,0.2,1.8-0.3,1.9-1.1c0.3-1.1-0.3-2.3-1.1-2.5c-0.3-0.1-0.6,0-0.9,0.1c0.1-0.2,0.2-0.4,0.1-0.5
		C71.8,288.7,71.4,288.3,71.2,288.4z"/>
	<path class="st1" d="M76.1,257.9c-0.1,0.3,0.4,0.4,0.5,0.5c0.1,0,0.4-0.1,0.4-0.3c0.1-0.2-0.2-0.4-0.4-0.5
		C76.7,257.6,76.2,257.6,76.1,257.9z"/>
	<path class="st1" d="M71.5,269.5c-0.1,0.6,0.3,1.1,0.8,1.1c0.4,0.1,0.6-0.3,0.7-0.6c0.1-0.4-0.2-0.9-0.6-0.9
		C72,269.2,71.7,269.4,71.5,269.5z"/>
	<path class="st1" d="M77.1,237.2c0-0.2-0.1-0.4-0.3-0.6c-0.1-0.1-0.4,0.1-0.5,0.2c0,0.2-0.2,0.6,0.2,0.7
		C76.7,237.8,77,237.3,77.1,237.2z"/>
	<path class="st1" d="M95.9,325.9c0.9,0.4,1.7,0.3,2.2-0.3c0.5-0.5,0.2-1.6-0.5-2.3c-0.5-0.5-1.9-0.4-2.3,0.1
		C94.9,324.1,95,325.5,95.9,325.9z"/>
	<path class="st1" d="M87,306.5c-0.9,0.4-1.4,1.1-1.2,1.6c0.3,0.5,1.3,1,1.9,0.6c0.1,0,0.2-0.1,0.3-0.3c0.4,0.1,0.9-0.4,0.9-0.8
		c0-0.3-0.3-0.5-0.4-0.6c-0.1,0-0.2,0-0.3,0v-0.1C88.2,306.5,87.5,306.3,87,306.5z"/>
	<path class="st1" d="M94.5,311.2c-0.1-0.3-0.2-0.4-0.5-0.4c-0.3,0.1-0.4,0.2-0.4,0.4c0.1,0.3,0.2,0.4,0.4,0.4
		C94.5,311.7,94.6,311.5,94.5,311.2z"/>
	<path class="st1" d="M97.1,316.3c0.4-0.1,0.6-0.4,0.4-0.9c-0.1-0.4-0.4-0.7-0.8-0.6c-0.4,0.1-0.8,0.7-0.6,1.3
		C96.4,316.1,96.8,316.3,97.1,316.3z"/>
	<path class="st1" d="M89.1,305.2c0.6-0.3,1.3-1.5,1.1-2c-0.3-0.6-1.2-0.8-2-0.5c-0.7,0.3-0.9,1-0.5,1.9
		C87.8,305,88.6,305.4,89.1,305.2z"/>
	<path class="st1" d="M91.4,318.8c-0.1-0.1-0.5,0-0.6,0.3s0.4,0.4,0.5,0.5c0.1,0,0.4-0.1,0.4-0.3c0.2,0.7,0.8,1.5,1.9,1.2
		c1.3-0.3,1.9-1.1,1.8-1.9c-0.1-0.8-1.4-1.8-2.3-1.6c-1.2,0.3-1.4,1.1-1.4,1.9c0,0.1,0,0.2,0,0.3C91.6,319,91.4,318.8,91.4,318.8z"
		/>
	<path class="st1" d="M88.2,324.6c0.2,0.4,0.8,0.7,1.2,0.5c0.4-0.2,0.6-0.5,0.7-1c0.4,0,0.7-0.3,0.9-0.4c0.4-0.4,0.3-0.9,0.2-1.3
		c-0.1-0.4-0.1-0.9-0.6-1.1c-0.6-0.3-1.4,0.2-1.6,0.9c-0.1,0.3-0.1,0.7,0,1C88.2,323.4,87.9,324.1,88.2,324.6z"/>
	<path class="st1" d="M71.6,252.8c0-0.1,0-0.3-0.2-0.3s-0.4,0-0.4,0.2s0.2,0.3,0.3,0.4C71.4,253,71.6,252.8,71.6,252.8z"/>
	<path class="st1" d="M199.7,360.3c-0.8-0.6-1.9-0.6-2.4,0.3c-0.6,1.1-0.3,2,0.6,2.5c1.2,0.7,1.8-0.6,2.3,0.1
		c0.5,0.6-0.1,0.9,0.3,1.6h-0.1c-0.5,0.3-1,1.1-0.8,1.5s1.1,0.4,1.5,0.3c0.4-0.2,0.5-0.4,0.5-0.8c0.7,0.2,1.4,0,1.6-0.6
		c0.3-0.9-0.4-1.4-0.3-1.6c0.1-0.2,0.9-0.9,0.4-1.4c-1.1-1.1-1.9,0.1-2.3-0.2C200.7,361.6,200.3,360.7,199.7,360.3z"/>
	<path class="st1" d="M66.5,232.9c0.8,0.1,1.1-1,0.8-1.5c-0.3-0.5-0.1-0.4,0.3-0.9s0.4-1.4-0.5-1.7c-0.4-0.1-0.6-0.1-0.9,0
		c-0.3,1.1-0.5,2.1-0.8,3.2C65.5,232.5,66,232.9,66.5,232.9z"/>
	<path class="st1" d="M69.5,257.8c-0.1,1.1,0.9,1.8,1.8,1.9c0.9,0.2,2.3-1.1,2.3-2.2c0-0.2-0.1-0.3-0.2-0.4c0-0.1,0.1-0.2,0.1-0.3
		c0.2-0.4-0.1-0.7-0.6-0.8c-0.4,0-0.9,0.1-0.9,0.5c0,0.1,0,0.2,0,0.3c0,0-0.1,0-0.1,0.1c-0.4,0.4-0.4,0.2-0.9-0.1
		C70.4,256.8,69.6,256.8,69.5,257.8z"/>
	<path class="st1" d="M143.8,362.9c0.1-0.4,0-0.8-0.2-1c-0.4-0.4-0.9,0-1.2,0.3c-0.1,0.6,0.1,1.1,0.7,1.1
		C143.4,363.2,143.8,363,143.8,362.9z"/>
	<path class="st1" d="M107,318.5c0.2,0.7,1.2,1.4,1.7,1.3c0.8-0.2,1.3-1.1,1.2-1.9c-0.2-0.7-1.2-1.2-2.1-1
		C107,317.1,106.8,317.8,107,318.5z"/>
	<path class="st1" d="M106.2,305.6c-0.2,0.1-0.6,0.3-0.5,0.5c0.1,0.3,0.5,0.3,0.6,0.3c0.2-0.1,0.4-0.2,0.4-0.5
		C106.5,305.5,106.2,305.5,106.2,305.6z"/>
	<path class="st1" d="M121.8,328.3c-0.2-0.3-0.5-0.5-0.8-0.5c-0.8,0-1,0.6-1,1.4c0.5,0.4,1,0.8,1.6,0.3
		C121.9,329.2,122.1,328.7,121.8,328.3z"/>
	<path class="st1" d="M106,322.6c-0.3-0.2-0.7-0.2-1,0c-0.6,0.4-0.4,1-0.3,1.6c0.6,0.2,1.2,0.4,1.6-0.3c0-0.1,0.1-0.1,0.1-0.2
		c0.1,0.1,0.3,0.1,0.4,0.2c0,0,0,0.1-0.1,0.1c-0.2,0.5-0.2,0.4-0.8,0.5c-0.6,0.2-1.3,0.7-0.7,1.6c0.5,0.9,1.8,0.9,2.6,0.5
		c0.7-0.4,1.2-1.9,0.6-2.8c0.3-0.3,0.4-0.7,0.2-1.1c-0.4-0.8-1.1-1.2-1.7-1C106.4,321.8,106.1,322.3,106,322.6z"/>
	<path class="st1" d="M113.5,320.4c-0.6,0.2-1.2,1-1.1,1.4c0.2,0.7,1.2,1.2,1.9,1.1c0.6-0.2,1.1-1.1,0.9-1.9
		C114.9,320.3,114.4,320.2,113.5,320.4z"/>
	<path class="st1" d="M124.1,336.1c-0.4,0.2-0.7,0.8-0.4,1.3c0.3,0.5,0.8,0.8,1.2,0.6c0.5-0.2,0.8-0.8,0.6-1.2
		C125.4,336.3,124.7,335.9,124.1,336.1z"/>
	<path class="st1" d="M118.9,334.3c0.3,0.5,1.3,1.1,1.8,1c0.7-0.3,1-1,0.7-1.9c-0.2-0.6-1-0.8-1.8-0.4
		C119,333.2,118.7,333.8,118.9,334.3z"/>
	<path class="st1" d="M123.8,331.5c-0.5,0.2-0.8,0.5-0.7,1.1c0.1,0.3,0.4,0.6,0.5,0.7c0.5,0.3,0.9,0,1.4-1
		C124.8,331.9,124.6,331.2,123.8,331.5z"/>
	<path class="st1" d="M113.3,327c-0.7,0.3-1,1-0.7,1.9c0.1,0.3,0.3,0.4,0.4,0.6c-0.1,0.2-0.2,0.3-0.2,0.4c0.3,0.5,0.9,0.7,1.3,0.4
		c0.2-0.1,0.3-0.3,0.3-0.4c0.2,0,0.4-0.1,0.5-0.2c0.7-0.4,1.2-1.3,0.8-2.1C115.5,327,114.4,326.6,113.3,327z"/>
	<path class="st1" d="M95.3,307.4c-0.1,0.4,0.5,1.1,1,1.2c0.5,0.2,1-0.2,1.2-0.8c0.1-0.5-0.1-1-0.6-1.1
		C96.3,306.6,95.4,307,95.3,307.4z"/>
	<path class="st1" d="M96.9,296.7c-0.3,0.1-0.3,0.4-0.2,0.5c0.1,0.1,0.4,0.5,0.6,0.4c0.4-0.1,0.3-0.6,0.2-0.7
		C97.4,296.8,97.2,296.6,96.9,296.7z"/>
	<path class="st1" d="M105.3,310.9c0.4,0.2,1-0.1,1.1-0.4c0.2-0.4,0-0.7-1-1.1C104.6,309.7,104.8,310.7,105.3,310.9z"/>
	<path class="st1" d="M100.7,308.9c0.3-0.1,0.4-0.4,0.4-1c-0.1-0.6-0.4-1.1-1.2-1.1c-0.8,0-1.4,0.8-1.4,1.6s0.5,1,0.4,1.5
		c0,0.5,0.3,0.7,0.8,0.9s1.4,0.4,1.6-0.4c0.2-0.8-0.3-1-0.5-1.1C100.7,309.4,100.4,308.9,100.7,308.9z"/>
	<path class="st1" d="M101.2,317.1c-1.1-1.8-2.6-1.1-3.5-0.3c-0.4,0.4-0.5,0.7-0.6,1.2c-0.1,0.6,0.1,1.1,0.5,1.7
		c0.4,0.5,0.4,1.3,1,1.6c0.9,0.4,2.4,0.7,3.5-0.4c0.7-0.7,0.9-1.4,0.8-2.1C102.7,317.9,101.6,317.8,101.2,317.1z"/>
	<path class="st1" d="M103.6,317c-0.1,0.5-0.1,1.2,0.5,1.4c0.4,0.2,1,0,1.2-0.4c0.1-0.3,0.1-0.8-0.1-1.1
		C104.7,316.4,104.1,316.6,103.6,317z"/>
	<path class="st1" d="M101.7,325.7c-1,0.4-1.5,1.3-1.2,2.1c0.3,0.8,1.9,1.6,2.7,1.3c0.8-0.3,1.2-1.4,1-2.3
		C103.8,326.1,102.5,325.5,101.7,325.7z"/>
	<path class="st1" d="M101.5,297.5c-0.8,0.1-1.1,0.4-1.2,1.4c-0.5,0.4-1.1,0.8-1.4,1.2c-0.4,0.4-0.1,1.1,0.4,1.1
		c0.7-0.1,1.4,0.1,2-0.5c0-0.3,0.1-0.6,0.1-1c0.8-0.5,1.2-1.2,1-1.7C102.3,297.7,102,297.4,101.5,297.5z"/>
	<path class="st1" d="M149.9,348c0.5-0.2,0.4-1,0.7-1.4c-0.1-0.1-0.2-0.2-0.2-0.3c-0.5-0.3-0.7-0.2-1.1,0.1
		c-0.4,0.3-0.5,0.5-0.6,0.6C149.1,347.4,149.5,348.2,149.9,348z"/>
	<path class="st1" d="M150.4,349.2c-0.2-0.6-0.6-0.9-1.2-0.7c-0.5,0.2-0.8,0.7-0.6,1.3c0.1,0.4,0.2,0.7,0.1,1.1
		c-0.2,0.6-0.1,1.2,0.4,1.6c0.4,0.3,1.7,0,2-0.5c0.4-0.4,0.7-0.9,0.2-1.5C151,350.2,150.6,349.7,150.4,349.2z"/>
	<path class="st1" d="M142,359.7c-0.4,0.2-0.6,0.7-0.4,1.2s0.6,0.7,1.2,0.5c0.5-0.2,0.8-0.8,0.5-1.2
		C143,359.7,142.4,359.4,142,359.7z"/>
	<path class="st1" d="M146.2,351.7c-0.1,0.1-0.3,0.2-0.4,0.4c0.1-0.2,0.1-0.4,0-0.5c-0.3-0.4-0.9-0.3-1.2-0.2
		c-0.4,0.1-0.7,0.4-0.5,0.9c0.2,0.4,0.8,0.8,1.1,0.5c0.1-0.1,0.3-0.2,0.4-0.4c-0.1,0.1-0.1,0.3,0,0.4c0.3,0.4,1.1,0.4,1.3,0.3
		c0.4-0.2,0.5-0.6,0.3-1.1C146.9,351.5,146.5,351.5,146.2,351.7z"/>
	<path class="st1" d="M145.5,355.8C145.5,355.8,145.4,355.8,145.5,355.8c-0.4-0.2-0.9-0.3-1.3,0c-0.4,0.3-0.6,0.8-0.4,1.3
		c0.3,0.4,0.6,0.6,1.1,0.5c0.2,0.4,0.9,0.7,1.3,0.5c0.9-0.4,1.4-1.1,1.2-1.8C147.2,355.9,146.1,355.5,145.5,355.8z"/>
	<path class="st1" d="M151,354c-0.2-0.2-0.5-0.3-0.7-0.4c-0.6,0.4-0.8,0.9-0.5,1.1c0.2,0.2,0.6,0.4,0.9,0.4
		C151.1,355.1,151.3,354.3,151,354z"/>
	<path class="st1" d="M153.2,340.3c-0.1,0-0.4,0.4-0.4,0.6c0.1,0.3,0.6,0.2,0.8,0.1c0.1,0,0.3-0.4,0.2-0.5
		C153.7,340.3,153.4,340.2,153.2,340.3z"/>
	<path class="st1" d="M152.1,355.9c-0.4-0.2-0.9-0.1-1.2,0.1c-0.2-0.1-0.3,0-0.4,0.1c-0.4,0.3-0.4,0.6-0.3,1c0,0.4,0.2,0.7,0.3,0.9
		c-0.7,0.4-1.1,1.5-0.7,2.2c0.3,0.5,0.6,0.9,1.2,1c-0.2,0.4-0.2,0.6-0.1,0.9c0.1,0.2,0.2,0.3,0.4,0.4c0.2,1.2,1,1.9,1.8,1.9
		c0.5,0,1.2-0.6,1.5-1.2c0.3,0.4,0.7,0.5,1.2,0.4s0.6-0.8,0.4-1.3c-0.3-0.5-0.8-0.7-1.3-0.5c-0.1,0-0.1,0.1-0.2,0.1
		c-0.3-0.6-0.8-0.9-1.2-1c-0.1-0.1-0.3-0.2-0.4-0.3c0.3-0.4,0.3-1-0.1-1.7c-0.2-0.3-0.3-0.5-0.5-0.7c0.2-0.1,0.4-0.2,0.5-0.4
		C153.2,357,152.8,356.1,152.1,355.9z"/>
	<path class="st1" d="M126.8,349.3c-0.8,0.4-1.4,1.8-1,2.6c0.1,0.1,0.2,0.3,0.3,0.4c-0.2,0.2-0.3,0.4-0.3,0.5c0,0.4,0.6,0.9,1.2,0.6
		c0.2-0.1,0.3-0.3,0.4-0.5c0.4,0,0.6,0,0.9-0.1c0.8-0.4,1.2-1.3,0.9-2C128.8,349.6,127.5,349,126.8,349.3z"/>
	<path class="st1" d="M127.2,337.7c-0.3-0.1-0.8,0.2-1,0.4c-0.4,0.6,0.1,1.5,0.6,1.7s1.3-0.4,1.2-1.2
		C127.9,338.2,127.5,337.8,127.2,337.7z"/>
	<path class="st1" d="M120.2,337.2c0.3,0.7,0.6,0.7,1,0.6c0.4-0.1,0.7-0.4,0.5-0.9c-0.2-0.3-0.6-0.6-0.9-0.5
		C120.6,336.6,120.4,337,120.2,337.2z"/>
	<path class="st1" d="M142.2,345.4c-0.3,0.1-0.2,0.6-0.1,0.8c0,0.1,0.3,0.3,0.4,0.2c0.2-0.1,0.4-0.4,0.3-0.5
		C142.8,345.6,142.4,345.3,142.2,345.4z"/>
	<path class="st1" d="M125,343.3c-0.1,0-0.2,0.1-0.3,0.2c0.1-0.3,0.1-0.5,0-0.8c-0.2-0.8-0.7-1.2-1.2-1.8c-0.2-0.2-0.4-0.4-0.4-0.6
		c-0.3-1-1-1.3-1.9-1c0-0.2,0-0.3-0.1-0.4c-0.2-0.4-0.9-0.5-1.4-0.3c-0.6,0.3-1,1-0.7,1.5c0.3,0.4,0.8,0.6,1.3,0.4
		c0,0.3,0.1,0.4,0.3,0.7c0,0.2,0,0.3,0,0.4c0.1,0.2,0.3,0.5,0.5,0.4c0.1,0.2,0.1,0.4,0.1,0.6c-0.1,0.8,0.5,1.2,1.1,1.7
		c0.1,0.1,0.2,0.1,0.4,0.2c0,0.1,0,0.3,0.1,0.4c0.2,0.3,0.5,0.3,0.7,0.2c0.2-0.1,0.4-0.3,0.4-0.6c0.2-0.1,0.4-0.2,0.5-0.3
		c0.1,0,0.1-0.1,0.2-0.1c-0.2,0.4-0.2,0.9,0,1.2c0.3,0.5,1,0.7,1.8,0.4c0,0.1,0,0.1,0,0.2c0.1,0.4,0.5,0.3,0.8,0.2
		c0.1,0,0.3-0.4,0.3-0.4c-0.1-0.2-0.3-0.3-0.4-0.4c0.3-0.4,0.4-0.8,0.4-1.1C126.6,343.6,125.6,343.1,125,343.3z"/>
	<path class="st1" d="M140.9,353.8c-0.5,0.3-0.8,0.8-0.5,1.2c0.1,0.3,0.4,0.4,0.6,0.5h-0.1c-0.6,0.3-1.2,1-1.1,1.5
		c0.3,1,1.4,1,1.9,1s0.8-1.3,0.4-2c-0.2-0.3-0.4-0.4-0.5-0.4h0.1c0.4-0.2,0.7-0.9,0.5-1.3C142,353.8,141.3,353.6,140.9,353.8z"/>
	<path class="st1" d="M132.2,334.6c-0.4-0.2-1.2,1.3-1.2,1.7c0.2,0.4,1.1,0.4,1.6-0.2C133.2,335.5,132.6,334.7,132.2,334.6z"/>
	<path class="st1" d="M133.1,339.1c-0.6,0.3-1.2,0.5-1.9,1c-0.6,0.4-0.7,1.6-0.4,2.2c0.2,0.4,0.5,0.6,1,0.5c1.1-0.4,2-0.8,2.7-1.8
		c0.1-0.2,0.2-0.4,0.2-0.4C135,339.4,134.2,338.7,133.1,339.1z"/>
	<path class="st1" d="M74.1,278c0.1-0.1,0.2-0.2,0.2-0.4c0.1-0.4-0.4-1-1-1.1c-0.2,0-0.4,0-0.5,0c0,0-0.1,0-0.1-0.1
		c-0.4-0.1-1.1,0.2-1.2,0.6c-0.2,0.5,0.2,1,0.7,1.2h0.1c0.1,0.1,0.3,0.1,0.4,0.2c-0.2,0.3-0.3,0.5-0.3,1s0,0.9-0.4,1.3
		c-0.5,0.6-0.4,1.3-0.2,1.9c0.2,0.6,0.9,1.1,1.6,1.1c0.1,0,0.1,0,0.2,0c-0.4,0.3-0.6,0.6-0.7,1c-0.1,0.6,0.4,1.1,1.2,1.3
		c0.6,0.2,1.5-0.2,1.6-0.7c0.2-0.7-0.4-1.8-1-1.9c-0.1,0-0.2,0-0.3,0c0.2-0.2,0.4-0.4,0.5-0.7c0.4-0.7,0.3-1.4,0.1-2.1
		c-0.1-0.3-0.1-0.5,0-0.8C75.4,278.9,75.1,278.2,74.1,278z"/>
	<path class="st1" d="M78.8,262.8c-0.5-0.2-0.8,0.2-0.8,0.5c0,0.4,0.1,1.1,0.4,1.1c0.3,0.1,0.8-0.4,1.1-0.8
		C79.6,263.3,79.3,263,78.8,262.8z"/>
	<path class="st1" d="M76.5,227.8c-0.7-0.1-0.7,0.6-1,0.8c-0.7,0.6-0.7,1.9-0.1,2.3c0.6,0.4,1.2,0.3,1.7-0.1c0.5-0.4,0.6-1,0.4-1.5
		C77.4,228.9,77.3,227.9,76.5,227.8z"/>
	<path class="st1" d="M77.4,209.3c-0.1,0.2,0,0.6,0.2,0.8c0.2,0.2,0.6,0.4,0.9,0.3c0.6-0.3,0.4-1.1,0.3-1.3
		C78.6,208.8,77.7,208.7,77.4,209.3z"/>
	<path class="st1" d="M81.8,284.7c-0.7,0-1.6,0.8-1.7,1.6c-0.1,0.4,0,0.8,0.4,1c1.1,0.4,2.1,0.6,3.3,0.3c0.2-0.1,0.4-0.2,0.4-0.3
		c0.8-0.8,0.6-1.9-0.4-2.2C83.2,284.8,82.5,284.7,81.8,284.7z"/>
	<path class="st1" d="M79.8,274.7c0.3,0.5,0.7,0.5,1.8,0.1c0-0.5,0.3-1.2-0.5-1.5c-0.5-0.2-1,0-1.2,0.4
		C79.7,274,79.7,274.4,79.8,274.7z"/>
	<path class="st1" d="M74.2,265.1c-0.4,0-0.6,0.3-0.9,0.4c-0.1,0.6,0.3,1.1,0.8,1.1c0.4,0.1,0.6-0.3,0.7-0.6
		C74.9,265.5,74.6,265.1,74.2,265.1z"/>
	<path class="st1" d="M95.9,304.3c-0.5-0.3-1-0.7-1.4-0.5c-0.4,0.2-0.5,0.4-0.6,0.5c-0.1,0.2-0.4,0.4-0.4,0.9s0.3,1.2,0.9,1.6
		c0.6,0.4,1.2,0.3,1.6,0c0.4-0.3,0.6-0.8,0.6-1.1C96.5,305.2,96.3,304.6,95.9,304.3z"/>
	<path class="st1" d="M78.9,280c-0.7,0.3-0.9,1.2-0.5,1.7s1.2,0.5,1.7-0.3c0.2-0.3,0.1-0.9-0.2-1.1C79.8,280.1,79.2,279.9,78.9,280z
		"/>
	<path class="st1" d="M155.3,355.7c-0.2-0.4-1-0.6-1.9-0.3c-0.1,0.2-0.3,0.5-0.2,0.8c0.1,0.4,0.4,0.7,0.8,0.8c0,0.1,0,0.1,0,0.2
		c0.3,0.5,0.9,0.8,1.4,0.5c0.4-0.3,0.6-0.8,0.4-1.3c-0.1-0.2-0.3-0.4-0.4-0.4C155.4,356,155.3,355.9,155.3,355.7z"/>
	<path class="st1" d="M94.2,281.7c-0.2,0.4,0.1,0.8,0.4,0.9c0.3,0.1,1,0,1.1-0.5s-0.5-0.7-0.8-0.8C94.7,281.3,94.3,281.5,94.2,281.7
		z"/>
	<path class="st1" d="M71.5,215.7c0.2-0.4,0.1-1-0.2-1.4c-0.3,0.7-0.6,1.4-0.9,2.1C71,216.4,71.4,216.1,71.5,215.7z"/>
	<path class="st1" d="M173.6,341.5c0.2,0.1,0.6-0.1,0.7-0.3c0.1-0.2,0-0.6-0.2-0.7c-0.1-0.1-0.7-0.2-0.9,0.1
		C173,340.8,173.4,341.4,173.6,341.5z"/>
	<path class="st1" d="M70.9,231.8c-0.5-0.2-1.2,0.2-1.2,0.6s0.2,1,0.6,1.1c0.4,0.2,1.2-0.2,1.3-0.6
		C71.7,232.5,71.3,231.9,70.9,231.8z"/>
	<path class="st1" d="M71.2,237.2c-0.4-0.1-0.9,0.1-0.9,0.5s0.1,1.2,0.4,1.3c0.4,0.1,0.9-0.6,1.1-1C72,237.8,71.6,237.2,71.2,237.2z
		"/>
	<path class="st1" d="M67.3,225.7c0.1-0.2,0-0.4-0.2-0.7c-0.2,0.4-0.3,1-0.4,1.4C67.1,226.2,67.3,226,67.3,225.7z"/>
	<path class="st1" d="M70.5,224.4c-0.1-0.1-0.4,0-0.5,0.2c-0.1,0.2,0,0.5,0.2,0.6c0.1,0.1,0.6,0.1,0.8-0.1
		C71.1,224.8,70.7,224.6,70.5,224.4z"/>
	<path class="st1" d="M80.9,240.6c0.7-0.2,0.9-0.7,0.9-1.4c-0.5-0.4-1.1-0.8-1.6-0.4c-0.4,0.4-0.4,0.8-0.3,1.3
		C80.2,240.5,80.5,240.7,80.9,240.6z"/>
	<path class="st1" d="M90.3,308.8c-0.2,0.2-0.2,0.4,0,0.6c0.2,0.2,0.6,0.2,0.8,0.1c0.2-0.2,0.1-0.5-0.1-0.7
		C90.8,308.7,90.5,308.6,90.3,308.8z"/>
	<path class="st1" d="M90.7,300.1c-0.1,0-0.4,0-0.4,0.1s0.1,0.2,0.2,0.4c0.2-0.1,0.3-0.1,0.4-0.2C90.8,300.3,90.7,300.1,90.7,300.1z
		"/>
	<path class="st1" d="M88.9,297.6c-0.5,0.2-0.8,0.6-0.7,1.2c-0.2-0.4-0.5-0.7-0.9-0.8c-0.5-0.2-1.4,0.5-1.6,1.2
		c-0.1,0.3-0.1,0.5,0,0.7c-0.3,0-0.6-0.1-0.9-0.3c-0.2-0.1-0.7,0.3-0.8,0.4c-0.2,0.3-0.1,0.7,0,1c0.1,0.2,0.5,0.3,0.8,0.3
		c0.5-0.1,1-0.3,1.4-0.4c0.1,0,0.2-0.1,0.3-0.2c0.8,0.2,1.8-0.3,1.9-0.9c0-0.2,0-0.4,0-0.5c0.3,0.5,0.9,0.7,1.6,0.4
		c0.6-0.3,0.9-0.7,0.7-1.1C90.6,298.1,89.4,297.4,88.9,297.6z"/>
	<path class="st1" d="M90,310.3c-0.2,0.1-0.5,0.3-0.6,0.5c0,0.1-0.1,0.2-0.1,0.3c-0.4-0.2-0.7-0.3-1.2-0.1c-0.8,0.3-1,0.7-0.7,1.6
		c0.3,0.8,0.8,1.1,1.4,1c0.4-0.2,0.8-0.8,1-1.3c0.1,0.1,0.2,0.1,0.3,0.1c0.5,0.2,1.2-0.3,1.3-0.7C91.4,311.3,90.9,310.6,90,310.3z"
		/>
	<path class="st1" d="M93.8,289.5c-0.9-0.1-1.2,1.2-0.8,1.5c0.4,0.3,1.4,0.2,1.6-0.3C94.8,290.1,94.7,289.6,93.8,289.5z"/>
	<path class="st1" d="M91.5,315.8c0.3,0.2,0.7,0.4,1,0.3c1-0.2,1.6-0.8,1.6-2.1c-0.4-0.2-0.6-0.5-1.1-0.7c-0.6-0.3-1.4,0-1.8,0.4
		C91,314.5,91,315.3,91.5,315.8z"/>
	<path class="st1" d="M139.1,361.2c-0.4,0.4,0.3,1.5,0.6,1.4c0.4-0.1,0.9-1.1,0.5-1.5C140,360.9,139.4,360.9,139.1,361.2z"/>
	<path class="st1" d="M85.9,285.5c-0.3,0.2,0,0.6,0.1,0.8c0.2,0.1,0.4,0.2,0.7,0.1c0.2-0.1,0.1-0.5,0-0.7S86,285.3,85.9,285.5z"/>
	<path class="st1" d="M86.8,263.2c-0.8-0.2-2.3,0.7-2.5,1.5c-0.3,0.9,0.5,1.9,1.5,2.1c0.9,0.2,2-0.5,2.2-1.3
		C88.2,264.5,87.6,263.3,86.8,263.2z"/>
	<path class="st1" d="M87.9,273.8c-0.9-0.2-1.7,0.4-1.9,1.2c-0.3,1.1,0.4,2,1.3,2.3c0.9,0.2,1.7-0.2,1.9-1
		C89.4,275.3,88.7,274,87.9,273.8z"/>
	<path class="st1" d="M84.4,250.8c-0.1,0-0.4,0.1-0.4,0.3c-0.1,0.2,0.2,0.4,0.4,0.5c0.1,0.1,0.5,0,0.6-0.3S84.6,250.8,84.4,250.8z"
		/>
	<path class="st1" d="M86.1,290.6c0,0.4,0.3,0.8,0.5,1.1c0.3,0.3,1-0.3,1-0.7c0-0.3-0.3-0.6-0.3-0.8C86.6,290,86,290.2,86.1,290.6z"
		/>
	<path class="st1" d="M85.4,297c0.2,0.5,0.8,0.8,1.2,0.7c0.4-0.2,0.9-1,0.8-1.3c-0.2-0.4-1.1-0.8-1.5-0.6
		C85.4,295.8,85.2,296.5,85.4,297z"/>
	<path class="st1" d="M88.8,294.6c0.4-0.2,0.8-0.7,0.6-1.1c-0.2-0.4-0.6-0.6-1.1-0.4s-0.6,0.4-0.4,0.9
		C88,294.4,88.4,294.7,88.8,294.6z"/>
	<path class="st1" d="M88.4,284.4c0.1,0.4,1.4,0.8,1.8,0.3c0.3-0.4,0.1-1.1-0.3-1.2C89.4,283.1,88.3,284,88.4,284.4z"/>
	<path class="st1" d="M83.8,281.5c-0.2,0.4,0.7,1,1.4,0.8c0.7-0.1,0.7-1.1,0.5-1.5C85.6,280.5,84,281.2,83.8,281.5z"/>
	<path class="st1" d="M69.5,247.9c-0.6-0.2-1.2,0-1.3,0.5c-0.3,0.6,0.3,1.6,0.9,1.9c0.5,0.2,1.2-0.2,1.3-0.7
		C70.6,248.9,70.2,248.1,69.5,247.9z"/>
	<path class="st1" d="M68.9,256.7c0.5,0.1,1-0.2,1.1-0.7c0.2-0.6-0.1-1.1-0.7-1.3c-0.5-0.1-1.1,0.3-1.2,0.7
		C68,255.9,68.4,256.6,68.9,256.7z"/>
	<path class="st1" d="M66.8,259.9c-0.2,0.7,0.2,1.1,1,1.4c-0.3,0.1-0.6,0.3-0.8,0.6c-0.2,0.4-0.4,0.7-0.6,0.9
		c-0.5,0.4-0.8,0.9-0.7,1.5c0.1,0.5,1.2,1.1,1.9,0.9c0.5-0.1,1.2-0.3,1.2-1c0-0.5,0.1-1.1,0.2-1.7c0.3-0.5,0.1-1.1-0.4-1.2
		c0.4-0.1,1-0.4,1.1-0.9c0.2-0.6-0.5-1.9-1.1-2C67.7,258.4,67,259.2,66.8,259.9z"/>
	<path class="st1" d="M78.2,265.4c-0.2,0-0.5,0.1-0.6,0.3c-0.1,0.3,0.2,0.5,0.4,0.5c0.2,0.1,0.7,0,0.8-0.3
		C78.7,265.9,78.2,265.5,78.2,265.4z"/>
	<path class="st1" d="M78.5,255.3c0.1-0.3-0.2-0.5-0.4-0.5c-0.2-0.1-0.7,0-0.8,0.3c-0.1,0.3,0.4,0.6,0.5,0.6
		C78.2,255.6,78.5,255.5,78.5,255.3z"/>
	<path class="st1" d="M75.1,295.7c-0.4-0.1-1.2,0.4-1.3,1.1s0.1,1.4,0.7,1.6c0.7,0.2,1.6-0.3,1.8-0.8
		C76.4,296.9,75.8,295.8,75.1,295.7z"/>
	<path class="st1" d="M79.2,278.6c0.2-0.5-0.2-1.2-0.7-1.3c-0.5-0.2-1.1,0.2-1.2,0.7c-0.2,0.5,0.1,1.1,0.6,1.2
		C78.5,279.4,79,279.1,79.2,278.6z"/>
	<path class="st1" d="M138.2,364.8c0.1-0.3,0-0.6-0.2-1.1c-0.4-0.7-1.2-1.1-1.7-0.9c-0.4,0.2-0.7,0.8-0.9,1.3
		c1.1,0.4,2.2,0.8,3.3,1.1C138.7,365.2,138.4,365,138.2,364.8z"/>
	<path class="st1" d="M127.2,355.6c-0.9,0.4-1.4,1.6-1,2.4c0.4,1,1.6,1.4,2.5,1.1c1-0.4,1.2-1.3,0.8-2.4
		C129,355.6,128.1,355.2,127.2,355.6z"/>
	<path class="st1" d="M131.3,345.9c-0.7,0.4-1.1,1-0.8,1.5c0.4,0.7,1.6,1.1,2.2,0.8c0.4-0.3,0.6-1.2,0.4-1.8
		C132.7,345.7,132.1,345.5,131.3,345.9z"/>
	<path class="st1" d="M111.4,351C111.4,350.9,111.3,350.9,111.4,351c0.2-0.1,0.4-0.2,0.4-0.4c0.4-0.4,0.4-0.9,0.1-1.3
		c-0.4-0.4-0.8-0.6-1.2-0.4c-0.2,0.1-0.3,0.2-0.4,0.3c-0.1-0.3-0.3-0.4-0.4-0.6c-0.3-0.4-0.7-0.6-1.1-0.8c-0.6-0.2-1.2,0-1.8,0.4
		c-0.3,0.2-0.5,0.2-0.8,0.3c1.7,1.2,3.4,2.5,5.1,3.7C111.5,351.7,111.6,351.2,111.4,351z"/>
	<path class="st1" d="M131.2,357.5c0.2,0.3,0.5,0.7,0.9,0.6s0.5-0.7,0.5-1.1s-0.5-0.6-1-0.4C131.1,356.8,131.1,357.1,131.2,357.5z"
		/>
	<path class="st1" d="M132.2,356c0.1-0.1,0.3-0.3,0.2-0.4c-0.1-0.2-0.3-0.1-0.4-0.1s-0.1,0.3-0.1,0.4
		C131.9,356,132.1,356.1,132.2,356z"/>
	<path class="st1" d="M157.2,348.4c0-0.1-0.1-0.3-0.1-0.4c-0.2-0.4-0.7-0.6-1.1-0.3c-0.3,0.3-0.4,0.6-0.4,0.8
		c0.2,0.3,0.4,0.4,0.6,0.5c-0.3,0.4-0.4,0.7-0.3,1c0.2,0.4,1.1,0.5,1.5,0.4c0.5-0.2,0.7-0.8,0.4-1.3
		C157.7,348.5,157.5,348.4,157.2,348.4z"/>
	<path class="st1" d="M78.2,289.4c-0.8-0.2-1.4,0.2-1.5,0.8c-0.1,0.8,0.6,1.9,1.3,2c0.5,0.1,1.2-0.5,1.3-1.1
		C79.5,290.1,79,289.6,78.2,289.4z"/>
	<path class="st1" d="M86.5,303c-0.4,0-1.2,0-1.2,0.4s0.6,1,0.9,1.1c0.4,0.1,0.8-0.2,0.9-0.7C87.3,303.3,86.9,303,86.5,303z"/>
	<path class="st1" d="M83.9,314c-0.2,0.9,0.5,1.9,1.3,2.1c0.5,0.1,1.2-0.4,1.4-1.1c0.2-1-0.3-1.7-1.2-1.9
		C84.8,313,84,313.4,83.9,314z"/>
	<path class="st1" d="M87.8,310.1c0-0.4,0-1.1-0.6-1.1c-0.5,0-0.9,0.6-1,0.9c-0.2,0.4,0.3,0.7,0.6,0.8
		C87.4,310.8,87.9,310.5,87.8,310.1z"/>
	<path class="st1" d="M100.8,337.8c0.3,0.5,0.9,0.8,1.4,0.5c0.4-0.3,0.6-1.1,0.4-1.5c-0.3-0.4-0.9-0.6-1.3-0.4
		C100.7,336.8,100.5,337.3,100.8,337.8z"/>
	<path class="st1" d="M86,317.4c-0.8,0.2-1.2,1.3-0.9,2.1c0.3,0.8,1.6,1.2,2.6,0.7c0.7-0.3,1.1-1.1,0.7-1.9
		C87.8,317.1,87.4,317.1,86,317.4z"/>
	<path class="st1" d="M103.2,331.3c-0.4,0.1-0.6,0.5-0.7,1c-0.3-0.1-0.7,0-0.9,0c-0.4,0.1-0.7,0.4-0.5,0.8c0.1,0.4,0.7,0.9,1.1,0.6
		c0.2-0.1,0.4-0.4,0.6-0.6c0.3,0.3,0.7,0.4,1.2,0.3c0.5-0.2,0.9-0.8,0.7-1.2C104.5,331.7,103.6,331.1,103.2,331.3z"/>
	<path class="st1" d="M107.7,347.6c0.5-0.2,0.8-0.8,0.5-1.2c-0.3-0.5-0.9-0.8-1.4-0.5c-0.4,0.2-0.7,0.9-0.5,1.3
		C106.5,347.6,107.1,347.8,107.7,347.6z"/>
	<path class="st1" d="M132.6,352.9c-0.4,0.2-0.6,1.1-0.4,1.8c0.3,0.7,1,1.1,1.5,0.9c0.6-0.3,1.1-1.1,0.9-1.7
		C134.4,353.1,133.3,352.5,132.6,352.9z"/>
	<path class="st1" d="M176.3,356.7c-0.6,0.3-1.2,0.6-1.8,1.1c-0.6,0.4-0.6,1.6-0.3,2.3c0.3,0.4,0.5,0.6,1,0.4c1.1-0.4,2-0.9,2.7-1.9
		c0.1-0.2,0.2-0.4,0.2-0.5C178.2,356.9,177.3,356.2,176.3,356.7z"/>
	<path class="st1" d="M167.2,354.1c-0.4,0.2-0.6,0.8-0.4,1.3c0.3,0.5,0.8,0.8,1.2,0.5c0.5-0.3,0.7-0.8,0.5-1.3
		C168.4,354.2,167.6,353.9,167.2,354.1z"/>
	<path class="st1" d="M166.6,349.5c-0.5,0.2-0.8,0.6-0.6,1.1c0.1,0.3,0.4,0.6,0.6,0.7c0.5,0.3,0.9-0.1,1.4-1
		C167.6,349.9,167.4,349.2,166.6,349.5z"/>
	<path class="st1" d="M170.2,355.6c-0.3-0.1-0.8,0.2-1,0.4c-0.4,0.6,0.2,1.5,0.7,1.6s1.2-0.4,1.1-1.2
		C171,356.1,170.6,355.7,170.2,355.6z"/>
	<path class="st1" d="M172.2,345.4c-0.7,0.4-1.1,1.4-0.6,2.1c0.4,1,1.6,1.3,2.5,0.9c0.8-0.4,1.2-1.2,0.8-1.9
		C174.3,345.6,172.9,345,172.2,345.4z"/>
	<path class="st1" d="M175.1,352.3c-0.4-0.2-1.2,1.3-1.1,1.8s1.2,0.3,1.6-0.3C176.2,353.1,175.4,352.3,175.1,352.3z"/>
	<path class="st1" d="M164.4,338.1c-0.7,0.4-1.2,2-1,2.7c0.4,0.8,1.6,1.1,2.5,0.7c0.8-0.4,1.2-1.8,0.8-2.5
		C166.3,338.1,165.2,337.7,164.4,338.1z"/>
	<path class="st1" d="M170.5,367.2c-0.8,0.4-1.3,1.9-0.9,2.6c0.4,0.8,1.7,1.1,2.5,0.7s1.2-1.3,0.8-2
		C172.4,367.5,171.2,366.8,170.5,367.2z"/>
	<path class="st1" d="M168.4,361.3c-0.1,0-0.2,0.1-0.3,0.2c0.1-0.3,0-0.5-0.1-0.8c-0.3-0.8-0.7-1.2-1.3-1.7
		c-0.2-0.2-0.4-0.4-0.5-0.6c-0.4-1-1-1.2-1.9-0.9c0-0.2,0-0.3-0.1-0.4c-0.3-0.4-0.9-0.4-1.4-0.2c-0.6,0.4-0.9,1.1-0.6,1.5
		s0.9,0.6,1.3,0.4c0,0.3,0.2,0.6,0.4,0.9c0.3,0.4,0.5,0.7,0.5,1.2c0,0.8,0.6,1.2,1.2,1.6c0.5,0.4,1.4,0.3,1.9-0.2
		c0.1,0,0.1-0.1,0.2-0.1c-0.1,0.3-0.1,0.5-0.1,0.7c-1,0.1-1.9,0.8-1.9,1.6c0,0.8,1.2,2.1,1.9,2.1c0.9,0.1,1.8-0.9,1.8-1.9
		c0-0.4-0.2-0.7-0.4-1c0.1,0,0.3-0.1,0.4-0.1c0.6-0.3,1-1.1,0.8-1.6C170,361.5,169,361,168.4,361.3z"/>
	<path class="st1" d="M157.5,358.3c-0.6,0.4-0.9,1.6-0.5,2.3c0.3,0.6,1,0.8,1.6,0.4c0.8-0.4,1.1-1.1,0.6-1.9
		C158.8,358.4,158,358,157.5,358.3z"/>
	<path class="st1" d="M157.3,351.9c-0.3,0.3-0.4,0.6-0.4,0.8c0.4,0.5,1,0.6,1.3,0.4c0.4-0.3,0.3-0.5,0.2-0.9
		C158.2,351.8,157.6,351.6,157.3,351.9z"/>
	<path class="st1" d="M159.2,345.4c-0.2,0.1-0.4,0.4-0.3,0.6c0.1,0.3,0.4,0.3,0.6,0.2c0.2-0.1,0.5-0.4,0.4-0.7
		C159.9,345.3,159.4,345.3,159.2,345.4z"/>
	<path class="st1" d="M161.4,360.2c0.1,0.3,0.4,0.3,0.6,0.3c0.2-0.1,0.5-0.4,0.4-0.6s-0.6-0.3-0.8-0.2
		C161.5,359.8,161.3,360,161.4,360.2z"/>
	<path class="st1" d="M162.5,351.3c-0.6,0.3-0.9,0.8-0.6,1.3s1.4,1.1,1.9,0.9c0.7-0.3,0.9-1.1,0.6-1.9
		C164,351.1,163.3,350.9,162.5,351.3z"/>
	<path class="st1" d="M159.7,361.4c-0.1,0-0.4,0.4-0.4,0.6c0.1,0.3,0.5,0.2,0.8,0.1c0.1,0,0.3-0.4,0.2-0.5S159.8,361.3,159.7,361.4z
		"/>
	<path class="st1" d="M160.6,364.7c-0.5-0.3-1.1-0.4-1.2-1.2c-0.1-0.5-0.6-0.6-1.2-0.5c-0.4,0.6-0.3,1.1,0.3,1.4
		c-0.3,0.7-0.5,1.2-0.6,1.8c-0.1,0.5,0.4,1.2,0.8,1.7c-0.4,0-0.8,0.1-1.2,0.4c-0.8,0.4-1.1,0.9-1.2,1.4c1.2,0.2,2.5,0.4,3.7,0.5
		c0.1-0.4,0.1-1-0.2-1.4c-0.1-0.2-0.3-0.4-0.4-0.5c0.8-0.1,1.8-0.8,1.9-1.4C161.8,366.1,161.4,365.2,160.6,364.7z"/>
	<path class="st1" d="M191.4,364.2c0.1-0.2,0.2-0.3,0.1-0.4c0-0.1-0.3-0.2-0.3-0.1c-0.1,0.1-0.3,0.2-0.2,0.4
		C191.1,364.2,191.3,364.1,191.4,364.2z"/>
	<path class="st1" d="M190,362.2c-1-0.6-1.9-0.3-2.1,0.9c-0.1,0.4-0.1,0.7,0,1.1c-0.2,0-0.3,0-0.4,0.1c-0.5,0.3-0.7,1.3-0.4,1.9
		s1,1,1.6,0.7c0.3-0.1,0.4-0.4,0.6-0.5c0.2,0.1,0.4,0.1,0.5,0.1c0.4,0,0.8-0.2,0.9-0.6c0.2-1.1,0.2-2.2-0.4-3.3
		C190.2,362.4,190.1,362.3,190,362.2z"/>
	<path class="st1" d="M186.8,353.6c-0.7,0.5-0.1,1.7,0.4,1.7s1.2-0.8,1.1-1.2C187.9,353.4,187.6,353.1,186.8,353.6z"/>
	<path class="st1" d="M187.7,356.9c-0.2,0.1-0.7,0.4-0.5,0.8s0.8,0.3,1,0.2c0.2-0.1,0.5-0.4,0.4-0.7
		C188.3,356.8,187.8,356.8,187.7,356.9z"/>
	<path class="st1" d="M180,351.5c-0.6,0.1-0.9,1.4-0.5,1.7c0.4,0.3,1.6-0.4,1.5-0.9C180.8,351.8,180.3,351.4,180,351.5z"/>
	<path class="st1" d="M191.4,351.5c-0.7-0.1-1.2,0.1-1.1,1c0.2,0.9,1.4,0.9,1.7,0.5C192.2,352.6,191.8,351.5,191.4,351.5z"/>
	<path class="st1" d="M190.9,368.8c-0.3-0.4-0.7-0.4-1-0.2c-0.3,0.2-0.9,0.8-0.6,1.1c0,0,0,0,0.1,0.1c0.5-0.1,1.1-0.2,1.7-0.3
		C191.1,369.3,191.1,369.1,190.9,368.8z"/>
	<path class="st1" d="M187.8,360.2c-0.1,0.1-0.2,0.6,0,0.8s0.6-0.1,0.7-0.3c0.1-0.2,0.1-0.5-0.1-0.7
		C188.4,359.9,188,360.1,187.8,360.2z"/>
	<path class="st1" d="M181.6,359.4c0.3,0.3,0.7,0.4,1.1,0.4c0.4,0,0.6-0.8,0.4-1.1c-0.2-0.3-0.5-0.3-0.7-0.4
		C181.6,358.6,181.4,359.2,181.6,359.4z"/>
	<path class="st1" d="M182,353c0,0.3,0.4,0.6,0.5,0.7c0.4,0.2,0.8-0.3,0.8-0.6c0-0.3-0.2-1-0.7-1C182,352,182,352.7,182,353z"/>
	<path class="st1" d="M180.4,360.6c-0.4,0.2-0.6,0.8-0.4,1.2c0.2,0.4,0.7,0.6,1.1,0.3c0.3-0.3,0.4-0.6,0.4-0.9
		C181.6,360.9,180.8,360.4,180.4,360.6z"/>
	<path class="st1" d="M184,367.9C184,367.9,183.9,367.9,184,367.9c-0.2,0-0.3-0.1-0.3-0.3c0-0.5,0.6-1.2,0.7-2
		c0.1-1-0.4-1.9-1.4-1.9c-1.2,0-1.9,0.8-1.9,1.8c-0.1,1.4,1.4,1.2,1,2.1s-1,0.2-1.4,1.4c-0.3,0.7-0.1,1.3,0.3,1.8
		c0.7-0.1,1.4-0.1,2.1-0.2c0.1-0.1,0.2-0.3,0.3-0.4c0.3,0,1.2,0.4,1.4-0.4c0-0.1,0.1-0.3,0.1-0.4c0.4,0,0.7-0.1,0.9-0.4
		c0.4-0.4,0.3-1.3-0.5-1.6C184.8,367.4,184.2,367.6,184,367.9z"/>
	<path class="st1" d="M182.4,346.6c-0.2,0.2-0.4,0.5-0.4,0.8c0.1,0.4,0.6,0.6,0.9,0.4c0.3-0.2,0.8-0.6,0.5-1.1
		C183.2,346.1,182.6,346.5,182.4,346.6z"/>
	<path class="st1" d="M186.3,356.9c-0.4-0.2-1.1,0.1-1.2,0.5c-0.2,0.5,0.8,1.4,1.2,1.2C186.7,358.5,186.8,357.2,186.3,356.9z"/>
	<path class="st1" d="M183.4,362c-0.3,0.3,0.6,1.7,1.1,1.8c0.4,0.1,0.8-0.9,0.5-1.5C184.7,361.5,183.7,361.7,183.4,362z"/>
	<path class="st2" d="M262.4,400c37.4,0,67.8-30.3,67.8-67.6s-30.3-67.6-67.8-67.6s-67.8,30.3-67.8,67.6S224.9,400,262.4,400z"/>
	<path class="st3" d="M218,363.6c0.4,0.1,0.9-0.2,1.1-0.7c0.1-0.5-0.1-0.9-0.5-1c-0.5-0.1-1.3,0.2-1.4,0.6
		C217,362.9,217.5,363.5,218,363.6z"/>
	<path class="st3" d="M214.6,370.2c0.9-0.2,1.4-0.7,1.4-1.9c-0.3-0.2-0.6-0.4-1-0.6c-0.6-0.3-1.3,0-1.6,0.4
		c-0.4,0.6-0.4,1.3,0.2,1.8C213.9,370.1,214.3,370.3,214.6,370.2z"/>
	<path class="st3" d="M215.5,374.3c1.2-0.3,1.7-1,1.6-1.8c-0.1-0.7-1.2-1.6-2-1.4c-1,0.2-1.2,1.1-1.2,1.7S214.3,374.5,215.5,374.3z"
		/>
	<path class="st3" d="M219.9,374.9c0.8,0.4,2.1,0.6,3.2-0.4c0.6-0.6,0.8-1.3,0.7-1.9c-0.1-0.7-1.1-0.9-1.5-1.5
		c-1-1.6-2.3-1.1-3.2-0.2c-0.4,0.3-0.5,0.7-0.6,1.1c-0.1,0.5,0.1,1.1,0.5,1.5C219.4,374,219.3,374.6,219.9,374.9z"/>
	<path class="st3" d="M211.2,368.1c0.4-0.1,0.7-0.7,0.9-1.1c0.1,0,0.1,0.1,0.2,0.1c0.4,0.2,1.2-0.2,1.2-0.6c0.1-0.4-0.4-1-1.2-1.2
		c-0.2,0.1-0.4,0.3-0.6,0.4c0,0.1-0.1,0.2-0.1,0.2c-0.3-0.2-0.6-0.3-1.1-0.1c-0.7,0.3-0.9,0.6-0.6,1.4
		C210.2,367.9,210.7,368.3,211.2,368.1z"/>
	<path class="st3" d="M227.2,361c-0.1-0.3-0.4-0.3-0.4-0.3c-0.2,0.1-0.5,0.3-0.5,0.5c0.1,0.3,0.4,0.3,0.5,0.2
		C227,361.4,227.3,361.3,227.2,361z"/>
	<path class="st3" d="M215.9,365.5c-0.3,0.1-0.4,0.2-0.3,0.4c0.1,0.3,0.2,0.4,0.4,0.3c0.3-0.1,0.4-0.2,0.3-0.4
		C216.4,365.6,216.2,365.5,215.9,365.5z"/>
	<path class="st3" d="M212.6,364.2c0.1,0.2,0.5,0.2,0.7,0.1s0.1-0.4,0-0.6c-0.3,0.1-0.5,0.2-0.7,0.3
		C212.5,364.1,212.5,364.2,212.6,364.2z"/>
	<path class="st3" d="M206.5,366.2c0.1-0.1,0.2-0.2,0.3-0.4c-0.4,0.1-0.7,0.2-1.1,0.4C205.9,366.3,206.3,366.3,206.5,366.2z"/>
	<path class="st3" d="M209.6,365.4c0.4,0.1,0.9-0.2,0.8-0.5v-0.1c-0.4,0.2-0.9,0.3-1.3,0.4C209.2,365.3,209.4,365.3,209.6,365.4z"/>
	<path class="st3" d="M218.7,370.4c0.4-0.1,0.5-0.4,0.4-0.8s-0.3-0.6-0.7-0.5s-0.7,0.6-0.5,1.1C218.1,370.2,218.4,370.4,218.7,370.4
		z"/>
	<path class="st3" d="M222.1,362.9c-0.1-0.6-0.4-0.9-1-0.9c-0.7,0-1.2,0.7-1.2,1.4c0,0.7,0.4,0.9,0.4,1.3s0.3,0.6,0.7,0.8
		c0.5,0.2,1.2,0.4,1.4-0.4c0.2-0.7-0.3-0.9-0.4-1c-0.2,0-0.4-0.4-0.3-0.4C222.1,363.7,222.2,363.5,222.1,362.9z"/>
	<path class="st3" d="M217.6,361.9c-0.1,0-0.3,0.1-0.4,0.2C217.4,362.1,217.5,362,217.6,361.9z"/>
	<path class="st3" d="M255,395.8c0.3-0.2,0.4-0.5,0.4-0.8s-0.6-0.8-1.1-0.6c-0.4,0.2-0.5,0.7-0.4,1.1
		C254.2,395.9,254.7,396.1,255,395.8z"/>
	<path class="st3" d="M255.3,387.1c0-0.4-0.5-0.8-0.9-0.8c-0.5,0.1-0.8,1.2-0.5,1.5C254.2,388.1,255.4,387.6,255.3,387.1z"/>
	<path class="st3" d="M255.6,393.5c0.2,0.3,0.6,0.4,0.9,0.4c0.4,0,0.6-0.7,0.4-1.1c-0.2-0.2-0.5-0.3-0.6-0.4
		C255.6,392.8,255.4,393.3,255.6,393.5z"/>
	<path class="st3" d="M242.3,376.7c0.7-0.4,1.2-1.5,0.9-2.1c-0.4-0.9-1.4-1.3-2.1-1c-0.4,0.2-0.6,0.5-0.8,1.1c0.1-0.2,0.1-0.4,0-0.5
		c-0.2-0.6-0.9-1.1-1.4-1s-0.8,0.9-0.6,1.7c0.1,0.4,0.7,0.7,1.2,0.6c0.4-0.1,0.6-0.4,0.8-0.7c-0.2,0.4-0.3,1-0.1,1.3
		C240.5,376.8,241.5,377.2,242.3,376.7z"/>
	<path class="st3" d="M240.3,389.7c0.4-0.1,0.6-0.4,0.4-0.8c-0.2-0.3-0.6-0.5-0.8-0.4c-0.3,0.1-0.4,0.5-0.5,0.7
		C239.6,389.8,239.9,389.8,240.3,389.7z"/>
	<path class="st3" d="M240.8,381.2c-0.2-0.2-0.4-0.4-0.7-0.4c-0.7,0-0.9,0.5-0.9,1.2c0.4,0.3,0.9,0.7,1.4,0.3
		C240.9,382,241,381.5,240.8,381.2z"/>
	<path class="st3" d="M249.1,388.2c0.1,0.4,1,0.4,1.4-0.2c0.4-0.5-0.1-1.1-0.4-1.3C249.8,386.6,249,387.9,249.1,388.2z"/>
	<path class="st3" d="M240.4,385.8c-0.2-0.5-0.9-0.7-1.6-0.4c-0.5,0.2-0.8,0.7-0.6,1.1c0.3,0.5,1.2,1.1,1.6,0.9
		C240.5,387.2,240.7,386.5,240.4,385.8z"/>
	<path class="st3" d="M224.4,371c-0.1,0.5-0.1,1.1,0.4,1.2c0.4,0.2,0.9,0,1.1-0.4c0.1-0.3,0.1-0.7-0.1-0.9
		C225.5,370.6,225,370.6,224.4,371z"/>
	<path class="st3" d="M266.4,388.7c-0.1,0.1-0.4,0.4-0.3,0.6c0.2,0.4,0.5,0.2,0.7,0.1c0.1-0.1,0.2-0.4,0.2-0.5
		C266.9,388.8,266.5,388.6,266.4,388.7z"/>
	<path class="st3" d="M261.7,389c-0.2-0.6-0.5-1-1.2-0.5c-0.7,0.4-0.2,1.5,0.3,1.6C261.1,390.1,261.9,389.4,261.7,389z"/>
	<path class="st3" d="M257.3,383.2c0.2-0.1,0.7-0.5,0.5-1c-0.2-0.4-0.8-0.2-1-0.1s-0.4,0.5-0.4,0.7
		C256.6,383.2,257,383.3,257.3,383.2z"/>
	<path class="st3" d="M249,376.2c-0.2,0.2,0.2,0.7,0.3,0.8c0.2,0.1,0.5,0,0.6-0.2s0-0.5-0.1-0.7C249.6,376,249.1,376,249,376.2z"/>
	<path class="st3" d="M233.5,363.5c0.2-0.4-0.2-1.1-0.9-1c-0.7,0.3-0.4,1.2-0.1,1.3C232.9,364,233.4,363.7,233.5,363.5z"/>
	<path class="st3" d="M228.1,370.9c-0.5,0.2-0.8,0.8-0.6,1.4c0.2,0.7,1.1,1.3,1.5,1.1c0.7-0.2,1.2-1.1,1-1.8
		C229.8,371.1,228.9,370.6,228.1,370.9z"/>
	<path class="st3" d="M234.1,376.3c0.5-0.2,1-1,0.8-1.6s-0.7-0.8-1.5-0.6c-0.5,0.2-1.1,0.9-1,1.3C232.6,376,233.5,376.5,234.1,376.3
		z"/>
	<path class="st3" d="M226.9,365.2c0.2-0.4,0-0.6-0.9-1c-0.7,0.3-0.4,1.1-0.1,1.3C226.3,365.7,226.8,365.5,226.9,365.2z"/>
	<path class="st3" d="M233.5,368.9c0.5-0.4,0.7-0.8,0.5-1.4c-0.1-0.5-0.6-0.8-1.1-0.9c-0.4-0.1-0.8,0-1.2,0.1
		c-0.1-0.2-0.3-0.3-0.4-0.4c-0.5-0.5-1.3-0.7-1.9-0.4c-0.6,0.4-1,1-1.1,1.7c0,0.3,0.1,0.5,0.3,0.7c0.7,0.7,1.5,0.7,2.3,0.1
		c0.2-0.1,0.3-0.3,0.4-0.4c0.3,0.3,0.4,0.6,0.6,0.8C232.6,369.2,232.9,369.2,233.5,368.9z"/>
	<path class="st3" d="M243.6,389.8c0.4-0.2,0.7-0.7,0.5-1.1s-0.8-0.8-1.2-0.6s-0.6,0.7-0.4,1.1C242.7,389.7,243.2,390,243.6,389.8z"
		/>
	<path class="st3" d="M231,375.2c-0.1,0-0.4,0.3-0.3,0.5c0.1,0.3,0.5,0.2,0.7,0.1c0.1,0,0.3-0.3,0.2-0.4
		C231.5,375.2,231.2,375.1,231,375.2z"/>
	<path class="st3" d="M236,380.5c0.1,0.2,0.4,0.3,0.5,0.2c0.2,0,0.5-0.4,0.4-0.6s-0.5-0.3-0.7-0.2C236,380,235.9,380.3,236,380.5z"
		/>
	<path class="st3" d="M242.4,385.6c0.4,0.3,0.8,0,1.3-0.9c-0.3-0.4-0.4-1-1.2-0.8c-0.4,0.2-0.7,0.5-0.6,1
		C242,385.2,242.2,385.5,242.4,385.6z"/>
	<path class="st3" d="M261.5,392.3c0.2-0.1,0.4-0.4,0.4-0.6c-0.1-0.3-0.4-0.4-0.6-0.3c-0.2,0.1-0.6,0.4-0.5,0.7
		C260.7,392.5,261.3,392.4,261.5,392.3z"/>
	<path class="st3" d="M249.3,396.9c-0.6,0.4-1,0.9-0.7,1.4c0.1,0.1,0.2,0.2,0.3,0.4c0.6,0.1,1.2,0.3,1.9,0.4c0.4-0.3,0.4-1,0.2-1.5
		C250.6,396.7,250,396.6,249.3,396.9z"/>
	<path class="st3" d="M250.9,390.8c-0.6,0.2-1.2,0.5-1.7,0.9s-0.7,1.4-0.4,2c0.2,0.4,0.4,0.5,0.9,0.4c1-0.4,1.9-0.7,2.5-1.5
		c0.1-0.2,0.2-0.4,0.2-0.4C252.6,391.1,251.9,390.5,250.9,390.8z"/>
	<path class="st3" d="M259.1,396.5c-0.2,0.1-0.2,0.5-0.1,0.7c0,0.1,0.3,0.3,0.4,0.2c0.2-0.1,0.3-0.4,0.3-0.5
		C259.6,396.6,259.3,396.4,259.1,396.5z"/>
	<path class="st3" d="M256.7,397.3c-1-0.1-1.5,0.4-1.7,1.1c-0.3-0.3-0.9-0.7-1.2-0.6s-0.2,1,0,1.1c0.4,0.2,0.7,0.5,1.2,0.4
		c0,0.1,0,0.2,0.1,0.2c0.9,0.1,1.8,0.2,2.7,0.3c0.1-0.2,0.2-0.4,0.2-0.5C258,398.3,257.7,397.4,256.7,397.3z"/>
	<path class="st3" d="M249.2,383.4c0.7-0.4,1.1-1.1,0.8-1.7c-0.4-0.8-1.6-1.4-2.3-1.1c-0.7,0.4-1,1.1-0.7,1.9
		C247.5,383.4,248.5,383.7,249.2,383.4z"/>
	<path class="st3" d="M238.7,388.2c-0.2-1-0.5-1.1-1.4-1c-0.7,0.2-1.4,0.3-2.1,0.4c-0.1-0.4-0.2-0.7-0.4-0.9c0,0,0,0,0.1,0
		c0.4-0.2,0.3-0.5,0.2-0.8c-0.2-0.4-0.6-0.6-0.9-0.4c-0.3,0.2-0.4,0.5-0.4,0.7c0.1,0.2,0.2,0.3,0.3,0.4c-0.1,0.1-0.2,0.1-0.4,0.2
		c-0.1,0.7,0.3,1,0.9,1.1c0.1,1.6,1,1.9,2.5,1c0.1,0.1,0.2,0.1,0.3,0.2c0.4,0.4,0.7,0.2,1.1-0.1
		C238.7,388.9,238.8,388.6,238.7,388.2z"/>
	<path class="st3" d="M245.6,389.6c-0.3-0.1-0.7,0.1-0.9,0.4c-0.4,0.5,0.1,1.3,0.5,1.5c0.5,0.2,1.2-0.4,1.1-1.1
		C246.2,390,245.9,389.7,245.6,389.6z"/>
	<path class="st3" d="M234.1,391.4c-0.5,0.3-0.9,1.4-0.6,2c0,0.1,0.1,0.1,0.1,0.1c0.4,0.2,0.6,0.3,1,0.4c0.1,0,0.3,0,0.4-0.1
		c0.8-0.4,1-0.9,0.6-1.7C235.2,391.5,234.5,391.2,234.1,391.4z"/>
	<path class="st3" d="M245.1,396.5c0.3-0.4,0.4-0.7,0.3-1c-0.3-0.6-1.2-1.1-1.8-0.8c-0.1,0-0.2,0.1-0.2,0.2c0.1-0.2,0.1-0.4,0-0.7
		c-0.2-0.7-0.6-1.1-1.2-1.6c-0.2-0.2-0.4-0.4-0.4-0.6c-0.3-0.9-0.8-1.1-1.7-0.9c0-0.1,0-0.3-0.1-0.4c-0.2-0.4-0.8-0.4-1.2-0.2
		c-0.5,0.3-0.9,0.9-0.6,1.3c0.2,0.4,0.7,0.6,1.2,0.4c0,0.2,0.1,0.4,0.3,0.6c0,0.2-0.1,0.3,0,0.4c0.1,0.2,0.3,0.5,0.4,0.4
		c0.1,0.2,0.1,0.4,0.1,0.5c-0.1,0.7,0.4,1.1,1,1.5c0.1,0.1,0.2,0.1,0.3,0.2c0,0.1,0,0.3,0.1,0.4c0.2,0.3,0.5,0.3,0.6,0.2
		c0.2-0.1,0.4-0.3,0.3-0.5c0.2-0.1,0.4-0.1,0.4-0.2c0.1,0,0.1-0.1,0.1-0.1c-0.1,0.4-0.2,0.8,0,1.1c0.3,0.5,0.9,0.6,1.6,0.4
		c0,0.1,0,0.1,0,0.2c0.1,0.4,0.5,0.2,0.7,0.2c0.1,0,0.3-0.4,0.2-0.4C245.4,396.6,245.3,396.5,245.1,396.5z"/>
	<path class="st3" d="M265.5,397.4c-0.4,0.2-0.4,0.4-0.5,0.5c0.4,0.3,0.6,1,1.1,0.9c0.4-0.1,0.4-0.9,0.6-1.2
		c-0.1-0.1-0.1-0.2-0.2-0.2C266,397.1,265.8,397.2,265.5,397.4z"/>
	<path class="st3" d="M260.5,398.1c-0.4,0.2-0.7,1.1-0.4,1.8c0.7,0,1.4,0.1,2,0.1c0.3-0.4,0.4-0.8,0.2-1.1
		C262,398.2,261.1,397.9,260.5,398.1z"/>
	<path class="st3" d="M272.4,398.8c-0.2-0.4-0.6-0.5-0.9-0.3c-0.2,0.2-0.3,0.5-0.4,0.7c0,0.1,0.1,0.1,0.2,0.2c0.5-0.1,1-0.1,1.5-0.2
		c-0.1,0-0.2,0-0.2,0C272.5,399,272.5,398.9,272.4,398.8z"/>
	<path class="st3" d="M268.9,391.9c-0.1,0-0.4,0.4-0.3,0.5c0.1,0.3,0.5,0.1,0.7,0.1c0.1,0,0.3-0.4,0.2-0.4
		C269.5,391.9,269.1,391.9,268.9,391.9z"/>
	<path class="st3" d="M287.7,392c-0.1-0.1-0.6-0.1-0.8,0.1s0.2,0.7,0.4,0.8c0.2,0.1,0.5-0.1,0.6-0.3S287.9,392.1,287.7,392z"/>
	<path class="st3" d="M278.9,389.9c-0.6,0.4-1.2,1.9-0.8,2.5c0.4,0.7,1.4,1.1,2.2,0.6c0.7-0.4,1.1-1.6,0.7-2.2
		C280.6,389.9,279.6,389.5,278.9,389.9z"/>
	<path class="st3" d="M274.3,396.4c-0.2,0.1-0.4,0.4-0.3,0.5c0.1,0.2,0.4,0.3,0.5,0.2c0.2-0.1,0.4-0.4,0.4-0.6
		C274.9,396.4,274.5,396.4,274.3,396.4z"/>
	<path class="st3" d="M265.3,394.3c-0.1,0.5-0.2,0.4-0.7,0.4c-0.5,0.2-1.2,0.7-0.6,1.4c0.5,0.8,1.6,0.7,2.4,0.4c0.7-0.4,1-2,0.3-2.8
		C266.2,393.2,265.4,393.7,265.3,394.3z"/>
	<path class="st3" d="M264,397.8c-0.1,0.1-0.3,0.2-0.2,0.3c0,0.1,0.2,0.1,0.3,0.1c0.1-0.1,0.2-0.2,0.1-0.3
		C264.2,397.8,264,397.7,264,397.8z"/>
	<path class="st3" d="M265.4,399.3c-0.3,0.1-0.4,0.4-0.5,0.6c0.5,0,1.1,0,1.5-0.1C266.2,399.3,265.7,399.1,265.4,399.3z"/>
	<path class="st3" d="M233.9,382.9c0.2-0.1,0.2-0.2,0.3-0.3c0.2,0,0.3-0.1,0.4-0.1c0.6-0.3,1-1.1,0.7-1.9s-1.3-1-2.2-0.6
		c-0.6,0.3-0.9,0.9-0.6,1.7c0.1,0.3,0.2,0.4,0.4,0.6c-0.1,0.1-0.1,0.3-0.2,0.4C233,383,233.6,383.1,233.9,382.9z"/>
	<path class="st3" d="M253.2,389.7c-0.1-0.1-0.5,0.1-0.6,0.4s0.4,0.4,0.4,0.4c0.2,0,0.4-0.1,0.5-0.3
		C253.7,389.9,253.4,389.7,253.2,389.7z"/>
	<path class="st3" d="M231.2,392.4c0.5,0.3,1.2,0.6,1.7,0.9C232.6,392.5,232,392.2,231.2,392.4z"/>
	<path class="st3" d="M212.7,375c-0.5-0.3-1.2,0.2-1.4,0.8c-0.1,0.3-0.1,0.6,0,0.9c0,0,0,0-0.1,0c0.4,0.4,0.6,0.8,1,1.2
		c0.1-0.1,0.1-0.3,0.1-0.4c0.4,0,0.6-0.2,0.8-0.4c0.4-0.4,0.3-0.8,0.1-1.1C213.1,375.6,213.1,375.2,212.7,375z"/>
	<path class="st3" d="M216.9,381.4c0-0.2-0.1-0.4-0.1-0.4c-0.2-0.3-0.7-0.7-1.1-0.7l0.1-0.1c0.6-0.4,0.7-1,0.4-1.6
		c-0.1-0.2-0.1-0.4-0.1-0.5c-0.1-0.6-0.4-1-0.8-0.9c-0.5,0.1-0.8,0.5-0.6,1.2c0,0.1,0.1,0.1,0.1,0.2c0.1,0.4,0,0.6-0.4,0.5
		c-0.2,0-0.3-0.1-0.4-0.1c-0.2,0-0.4,0-0.5,0.1c0.6,0.7,1.3,1.3,1.9,1.9c0.6,0.6,1.2,1.1,1.9,1.8
		C217.5,382.3,217.4,381.8,216.9,381.4z"/>
	<path class="st3" d="M213.8,373.1c0-0.2-0.2-0.4-0.4-0.4c-0.1-0.1-0.5,0-0.5,0.3s0.4,0.4,0.4,0.5
		C213.5,373.4,213.8,373.3,213.8,373.1z"/>
	<path class="st3" d="M209.3,369.2c0.2-0.9-0.2-1.5-1-1.7c-0.7-0.2-1.4,0.2-1.5,0.7c-0.1,0.8,0.4,1.7,1.2,1.9
		C208.5,370.3,209.1,369.9,209.3,369.2z"/>
	<path class="st3" d="M205,368.4c0.5,0.8,1.1,1.7,1.6,2.5c0.2-0.4,0.3-1,0.1-1.4C206.6,368.9,205.7,368.4,205,368.4z"/>
	<path class="st3" d="M219.1,376.7c-0.4-0.4-1.7-0.4-2,0.1c-0.4,0.5-0.3,1.8,0.5,2.2c0.8,0.4,1.5,0.3,1.9-0.2
		C220,378.3,219.7,377.4,219.1,376.7z"/>
	<path class="st3" d="M205.2,366.4c-0.4,0.1-0.8,0.3-1.2,0.4c0.3,0.4,0.4,0.8,0.7,1.1c0.2-0.3,0.4-0.5,0.4-0.8
		C205.2,366.8,205.2,366.6,205.2,366.4z"/>
	<path class="st3" d="M208.8,371.4c-0.5,0.1-0.8,0.6-0.9,1.1c0.4,0.5,0.8,1.1,1.2,1.5c0.4,0.1,0.8,0.1,1.2-0.1
		c0.7-0.3,1-1.1,0.6-1.7C210.4,371.1,209.9,371.1,208.8,371.4z"/>
	<path class="st3" d="M231.6,389.1c0.4-0.2,0.7-0.4,0.4-0.9c-0.2-0.3-0.4-1-1-0.8c-0.5,0.2-0.4,0.9-0.4,1.2
		C230.7,389.1,231.2,389.3,231.6,389.1z"/>
	<path class="st3" d="M229.3,389c-0.4-0.2-1.2-0.1-1.6,0.3c-0.3,0.4-0.3,0.8-0.2,1.1c0.8,0.4,1.5,0.9,2.3,1.3c0-0.1,0-0.1,0-0.1
		c-0.1-0.3-0.3-0.4-0.4-0.6c0.2,0,0.4-0.1,0.5-0.4C230.3,390.1,229.9,389.3,229.3,389z"/>
	<path class="st3" d="M232.2,390.9c0.4-0.2,0.5-0.7,0.4-1.2c-0.2-0.4-0.6-0.6-1.1-0.4s-0.7,0.6-0.5,1.1
		C231.3,390.8,231.8,391.1,232.2,390.9z"/>
	<path class="st3" d="M228.3,386.3c-0.1-0.1-0.2-0.3-0.4-0.4c0.3-0.1,0.5-0.3,0.7-0.4c0.4-0.4,0.7-0.8,0.3-1.3
		c-0.2-0.3-0.4-0.5-0.5-0.8h0.1c0.7-0.3,1.1-1.5,0.8-2.4c-0.3-0.7-1.1-1.1-1.9-0.8c-1.1,0.4-1.4,1.2-1.1,2.2
		c0.1,0.2,0.2,0.4,0.3,0.4c-0.1,0.2-0.1,0.4,0,0.5c0.1,0.4,0.1,0.7,0,1c-0.2,0.4-0.1,0.9,0.2,1.2c-0.1,0-0.2,0-0.3,0.1
		c-0.4,0.2-0.7,0.9-0.5,1.3c0.3,0.7,0.9,1.1,1.5,0.9C228,387.7,228.5,386.9,228.3,386.3z"/>
	<path class="st3" d="M219.3,384.6c0.3,0.2,0.5,0.4,0.8,0.6C219.9,385,219.7,384.7,219.3,384.6z"/>
	<path class="st3" d="M226.6,377.7c-0.5,0.1-1.2,0.6-0.7,1.4s1.6,0.8,2.3,0.4s1-1.7,0.6-2.6c0.3-0.3,0.3-0.6,0.2-1
		c-0.3-0.7-1-1.1-1.5-0.9c-0.4,0.2-0.7,0.5-0.9,0.9c-0.3-0.2-0.6-0.2-0.9,0c-0.5,0.4-0.4,0.9-0.3,1.4c0.5,0.1,1.2,0.4,1.4-0.3
		c0-0.1,0.1-0.1,0.1-0.2c0.1,0.1,0.2,0.1,0.4,0.2v0.1C227.1,377.8,227.1,377.6,226.6,377.7z"/>
	<path class="st3" d="M224,382c0.7-0.2,1.2-1.2,0.9-2c-0.3-0.7-1.4-1.3-2.1-1.1c-0.9,0.3-1.4,1.2-1.1,1.9
		C222,381.4,223.4,382.1,224,382z"/>
	<path class="st3" d="M220.9,379.2c-0.2,0.1-0.2,0.5-0.2,0.7c0,0.1,0.3,0.3,0.4,0.2c0.2-0.1,0.3-0.4,0.3-0.5
		C221.4,379.4,221.2,379.1,220.9,379.2z"/>
	<path class="st3" d="M224.2,383.8c-0.3,0.1-0.5,0.4-0.6,0.8c-0.3-0.1-0.6,0-0.8,0c-0.4,0.1-0.6,0.3-0.5,0.7c0.1,0.4,0.6,0.8,1,0.5
		c0.2-0.1,0.4-0.3,0.5-0.5c0.3,0.3,0.6,0.4,1,0.3c0.4-0.2,0.8-0.7,0.6-1.1C225.2,384.2,224.5,383.7,224.2,383.8z"/>
	<path class="st4" d="M285,268.6c-7.1-2.5-14.7-3.9-22.6-3.9c-37.4,0-67.8,30.2-67.8,67.6c0,12.6,3.5,24.3,9.5,34.4
		C248.1,354.3,281.1,315.6,285,268.6z"/>
</g>
<rect class="st5" width="680" height="400"/>
</svg>
