<?xml version="1.0" encoding="UTF-8"?>
<svg width="32px" height="32px" viewBox="0 0 32 32" version="1.1" xmlns="http://www.w3.org/2000/svg" xmlns:xlink="http://www.w3.org/1999/xlink">
    <!-- Generator: Sketch 55.1 (78136) - https://sketchapp.com -->
    <title>icon-globe-dots-32-color</title>
    <desc>Created with Sketch.</desc>
    <g id="icon-globe-dots-32-color" stroke="none" stroke-width="1" fill="none" fill-rule="evenodd">
        <path d="M16,30 C13.4894848,30 11,23.7767178 11,16 C11,8.22328224 13.4894848,2 16,2 L16,0 C11.8841007,0 9,7.20975379 9,16 C9,24.7902462 11.8841007,32 16,32 L16,30 Z" id="Stroke-1" fill="#00BFB3" fill-rule="nonzero"></path>
        <path d="M23,30 C20.4894848,30 18,23.7767178 18,16 C18,8.22328224 20.4894848,2 23,2 L23,0 C18.8841007,0 16,7.20975379 16,16 C16,24.7902462 18.8841007,32 23,32 L23,30 Z" id="Stroke-1" fill="#00BFB3" fill-rule="nonzero" transform="translate(19.500000, 16.000000) scale(-1, 1) translate(-19.500000, -16.000000) "></path>
        <polygon id="Stroke-9" fill="#00BFB3" fill-rule="nonzero" points="5 12 24 12 24 10 5 10"></polygon>
        <polygon id="Stroke-11" fill="#00BFB3" fill-rule="nonzero" points="8 22 27 22 27 20 8 20"></polygon>
        <path d="M1.56030734,22.9002954 C2.18391069,23.8630069 3.26756649,24.5 4.5,24.5 C4.6218063,24.5 4.74215931,24.4937778 4.86075853,24.4816338 C7.4184541,27.8356121 11.4564671,30 16,30 C23.7319865,30 30,23.7319865 30,16 C30,15.1946433 29.9319976,14.4051693 29.8014215,13.6370069 C30.5359598,12.995415 31,12.0518987 31,11 C31,10.7050214 30.9635088,10.4185658 30.8947943,10.1449012 C31.6081875,11.958267 32,13.9333771 32,16 C32,24.836556 24.836556,32 16,32 C9.63437868,32 4.13699887,28.2826162 1.56030734,22.9002954 Z M1.10520574,21.8550988 C0.391812482,20.041733 0,18.0666229 0,16 C0,7.163444 7.163444,0 16,0 C22.3656213,0 27.8630011,3.7173838 30.4396927,9.09970461 C29.8160893,8.13699312 28.7324335,7.5 27.5,7.5 C27.3781937,7.5 27.2578407,7.50622225 27.1392415,7.51836623 C24.5815459,4.16438793 20.5435329,2 16,2 C8.2680135,2 2,8.2680135 2,16 C2,16.8053567 2.06800242,17.5948307 2.19857852,18.3629931 C1.46404016,19.004585 1,19.9481013 1,21 C1,21.2949786 1.03649125,21.5814342 1.10520574,21.8550988 Z" id="Combined-Shape" fill="#535966" fill-rule="nonzero"></path>
        <path d="M27.5,15.5 C29.9852814,15.5 32,13.4852814 32,11 C32,8.51471863 29.9852814,6.5 27.5,6.5 C25.0147186,6.5 23,8.51471863 23,11 C23,13.4852814 25.0147186,15.5 27.5,15.5 Z M27.5,13.5 C26.1192881,13.5 25,12.3807119 25,11 C25,9.61928813 26.1192881,8.5 27.5,8.5 C28.8807119,8.5 30,9.61928813 30,11 C30,12.3807119 28.8807119,13.5 27.5,13.5 Z" id="Oval" fill="#535966" fill-rule="nonzero"></path>
        <path d="M4.5,25.5 C6.98528137,25.5 9,23.4852814 9,21 C9,18.5147186 6.98528137,16.5 4.5,16.5 C2.01471863,16.5 0,18.5147186 0,21 C0,23.4852814 2.01471863,25.5 4.5,25.5 Z M4.5,23.5 C3.11928813,23.5 2,22.3807119 2,21 C2,19.6192881 3.11928813,18.5 4.5,18.5 C5.88071187,18.5 7,19.6192881 7,21 C7,22.3807119 5.88071187,23.5 4.5,23.5 Z" id="Oval" fill="#535966" fill-rule="nonzero"></path>
    </g>
</svg>