<?xml version="1.0" encoding="utf-8"?>
<!-- Generator: Adobe Illustrator 25.0.1, SVG Export Plug-In . SVG Version: 6.00 Build 0)  -->
<svg version="1.1" id="Layer_1" xmlns="http://www.w3.org/2000/svg" xmlns:xlink="http://www.w3.org/1999/xlink" x="0px" y="0px"
	 viewBox="0 0 560 300" style="enable-background:new 0 0 560 300;" xml:space="preserve">
<style type="text/css">
	.st0{clip-path:url(#SVGID_2_);}
	.st1{fill:#F04E98;}
	.st2{fill:#E32682;}
	.st3{fill:#E6EBF2;}
	.st4{fill:none;}
</style>
<g>
	<g>
		<g>
			<defs>
				<rect id="SVGID_1_" x="24" width="536" height="244"/>
			</defs>
			<clipPath id="SVGID_2_">
				<use xlink:href="#SVGID_1_"  style="overflow:visible;"/>
			</clipPath>
			<g class="st0">
				<path class="st1" d="M560,60l-128,78L304,60l128-78L560,60z"/>
				<path class="st2" d="M452,119.6c0.4,0.2,0.7,0.4,1,0.7c0.9,0.5,3.2-0.4,3.4-1.4c0-0.1,0-0.2,0-0.3c-0.6-0.8,0-1.3,0.3-2
					c0.4-0.8,0-1.4-0.8-1.6c-0.1,0-0.2,0-0.2-0.1c0.1-0.2,0.1-0.3,0.1-0.5c0-0.4-0.3-0.8-0.5-1.1h0.1c-0.5,0.1-1,0.1-1.6,0.2
					c-0.1,0.4-0.1,0.7-0.1,1c0,0.4,0.3,0.8,0.6,1c-0.2,0.3-0.3,0.7-0.3,1.1c0.1,0.5,0.2,1-0.4,1.5c-0.3-0.1-0.6-0.4-0.9-0.3
					c-0.4,0.1-0.9,0.3-1.1,0.7C451.2,118.9,451.6,119.4,452,119.6z"/>
				<path class="st2" d="M465.5,110.9c0.2-0.4,0.2-0.9,0-1.3s-1.1-0.3-1.3,0.1c-0.2,0.3-0.1,0.7-0.1,0.9
					C464.7,111.2,465.3,111.3,465.5,110.9z"/>
				<path class="st2" d="M452,115.3c0.2,0.2,0.7,0.2,1,0c0.4-0.3,0.4-0.8,0-1.1c-0.2-0.2-0.9-0.6-1.4-0.1
					C451.2,114.6,451.8,115.1,452,115.3z"/>
				<path class="st2" d="M458.1,121.7c-0.1-0.3-0.6-0.6-0.9-0.6c-0.5,0-0.8,0.3-0.7,0.9c0,0,0,0.1,0,0.2c-0.5-0.1-1.1,0-1.4,0.7
					c0,0.1-0.1,0.1-0.1,0.2l-0.1,0.1c-0.3,0.3-0.5,0.7-0.5,1.2l3.7-2.2C458.1,121.9,458.2,121.8,458.1,121.7z"/>
				<path class="st2" d="M466.3,115.2c0.5-0.2,0.9-1,0.8-1.6c-0.1-0.5-0.6-0.8-1.2-0.7c-1,0.2-1.5,0.5-1.5,1.1c0,0.5,0.5,1,1.1,1.2
					c0,0,0,0-0.1,0c-1.2,0.4-1.6,1.5-0.7,2.4c0.1,0.1,0.2,0.2,0.3,0.3l2.9-1.7C467.5,115.7,466.9,115.4,466.3,115.2z"/>
				<path class="st2" d="M477.9,100.9c-0.1,0.2-0.1,0.3-0.2,0.5c-0.5,0.2-0.8,0.6-0.7,1.1c0.1,0.6,0.7,1,1.2,1
					c0.3,0,0.6-0.3,0.8-0.6c0.4,0.1,0.8,0.1,1-0.1c0.9-0.8,0.4-1.9,0.1-2.4C479.8,99.7,478.4,100,477.9,100.9z"/>
				<path class="st2" d="M487.7,94.1c-0.1-0.5-1.4-0.8-1.8-0.7c-0.3,0-0.9,0.6-0.9,1.1s0.9,0.8,1.4,0.8
					C486.7,95.4,487.8,94.7,487.7,94.1z"/>
				<path class="st2" d="M480.2,104.9c-0.8,0.1-1.5,0.8-1.4,1.4c0.2,0.9,1.2,1.6,2.2,1.5c0.6-0.1,1-0.8,0.9-1.6
					C481.7,105.3,481,104.8,480.2,104.9z"/>
				<path class="st2" d="M479.3,90.2c0-0.2-0.3-0.4-0.5-0.4s-0.5,0.3-0.5,0.5s0.2,0.7,0.5,0.7C479.1,90.9,479.3,90.4,479.3,90.2z"/>
				<path class="st2" d="M488,97.6c0.4-0.5,0.3-1.2-0.2-1.5s-0.9-0.2-1.3,0.2c-0.4,0.5-0.4,1.2,0.1,1.5
					C487.1,98.2,487.7,98.1,488,97.6z"/>
				<path class="st2" d="M441.8,125.1c0.6,1,1.4,1.2,2.5,0.7c1.9,2.2,3.5,1.9,4.5-0.8c0.2,0,0.4-0.1,0.6,0c0.9,0.1,1.2-0.4,1.4-1
					c0.2-0.6-0.1-1.1-0.6-1.6c-1.2-1.2-2-1.2-3-0.1c-0.8,0.9-1.6,1.7-2.4,2.5C442.8,123.4,442.6,123.4,441.8,125.1z"/>
				<path class="st2" d="M438.2,121.5c-0.6,0.1-0.9,0.7-0.8,1.4c0.1,0.7,0.8,1.3,1.4,1.1c0.1,0,0.2-0.1,0.3-0.2
					c0.2,0.1,0.5,0.1,0.6,0s0.3-0.7,0.1-0.8c0-0.1,0-0.3,0-0.4C439.8,121.8,439,121.3,438.2,121.5z"/>
				<path class="st2" d="M441.2,110.8c-0.1-1.1-0.7-1.9-1.4-1.9c-0.7,0.1-1.4,0.9-1.4,1.7c0,0.7,0.8,1.3,1.6,1.3
					C440.5,112,441.2,111.4,441.2,110.8z"/>
				<path class="st2" d="M433.4,131c0.3,0.5,0.3,1,0.2,1.6c-0.2,0.8,0.6,1.7,1.2,1.5c0.4-0.1,0.8-0.2,1.2-0.4
					c0.1,0.4,0.5,0.8,0.9,1.1v0.1l2.8-1.7c0-0.1,0.1-0.1,0.1-0.2c0,0,0.1,0,0.1,0.1l2.3-1.4c-0.2-0.5-0.8-1-1.2-1s-0.9,0.3-1.2,0.7
					c-0.4-0.3-1-0.3-1.5,0.1c-0.3,0.2-0.6,0.5-1,0.6c-0.1,0-0.2,0.1-0.3,0.1c0.2-0.3,0.4-0.5,0.8-0.7c0.7-0.3,1-1.4,0.8-2
					c-0.2-0.5-2.1-1.5-3-1.4c-0.1,0.1-0.3,0.3-0.4,0.4c-0.1-0.1-0.2-0.2-0.2-0.3c-0.3-0.3-0.7-0.5-1.1-0.1s-0.4,1.2,0,1.4
					c0.1,0,0.1,0.1,0.2,0.1c-0.3,0.2-0.5,0.5-0.8,0.8C433.3,130.5,433.3,130.9,433.4,131z"/>
				<path class="st2" d="M436.5,126.2c-0.1,0.9,0.6,1.2,1.3,1.4c0.5-0.5,1.1-0.9,0.8-1.7c-0.2-0.5-0.7-0.8-1.3-0.6
					C436.9,125.5,436.5,125.9,436.5,126.2z"/>
				<path class="st2" d="M449.3,117.9c0.8-0.1,1.3-0.8,1.2-1.5c-0.1-0.6-1.2-1.5-1.8-1.5c-0.7,0-1.2,0.9-1.1,1.9
					C447.7,117.7,448.2,118.1,449.3,117.9z"/>
				<path class="st2" d="M446.1,99.1c-0.3,0.2-0.8,0.7-0.6,1c0.1,0.3,0.6,0.5,0.9,0.5s0.9-0.6,0.8-0.9
					C447.1,99.4,446.2,99,446.1,99.1z"/>
				<path class="st2" d="M444.8,119.7c-0.7,1-0.7,1.1,0.3,2c0.6-0.1,1-0.2,1.5-0.3c0.8-0.1,1.4-0.9,1.4-1.7c0-0.5-0.7-1.2-1.1-1.1
					C446.1,118.9,445.3,119,444.8,119.7z"/>
				<path class="st2" d="M450.1,126.4c0-0.2-0.3-0.6-0.5-0.6s-0.6,0.2-0.7,0.5c-0.1,0.2,0.1,0.8,0.5,0.9
					C449.7,127.2,450.1,126.6,450.1,126.4z"/>
				<path class="st2" d="M423.3,131.3c-0.4,0.1-0.7,0.4-0.8,0.7c-0.1,0-0.2,0-0.3,0c0,0,0,0-0.1,0l1.5,0.9c0.2-0.1,0.5-0.3,0.5-0.5
					C424.3,131.8,423.8,131.5,423.3,131.3z"/>
				<path class="st2" d="M418.3,129.6l2.5,1.5c0.4-0.3,0.6-0.8,0.6-1.2c-0.1-0.9-0.8-1.6-1.6-1.5
					C419.1,128.6,418.5,129.1,418.3,129.6z"/>
				<path class="st2" d="M422.6,127.6c-0.6-0.1-1.4,1-1.1,1.4s1.6,0.4,1.7-0.2C423.3,128.3,423,127.7,422.6,127.6z"/>
				<path class="st2" d="M441.3,121.6c-0.4,0.3-0.6,0.8-0.3,1.3c0.3,0.3,0.7,0.7,1.1,0.7c1,0,0.9-0.9,1.2-1.6
					C442.6,121.4,442,121,441.3,121.6z"/>
				<path class="st2" d="M440.5,118.6c-0.2,0.2-0.4,0.7-0.4,1c0.1,0.6,0.6,0.9,1.1,0.9c0.8-0.1,1-0.9,1-1.4
					C442.3,118.7,441.2,118.1,440.5,118.6z"/>
				<path class="st2" d="M503.3,81.7c-0.3,0.3-0.3,0.6-0.3,0.9s-0.1,0.6,0.1,1s0.9,1.1,1.6,1.1s1.3-0.3,1.6-0.8
					c0.3-0.5,0.2-1.1,0-1.5s-0.7-0.9-1.3-0.9C504.3,81.5,503.6,81.3,503.3,81.7z"/>
				<path class="st2" d="M506.6,88.8c-0.2,0.2-0.3,0.4-0.1,0.6c0.2,0.2,0.4,0.3,0.7,0.1c0.2-0.2,0.3-0.4,0.1-0.6
					C507,88.6,506.8,88.6,506.6,88.8z"/>
				<path class="st2" d="M415.8,127.8c-0.1,0.1-0.1,0.2-0.1,0.2l2.6,1.6c0.5-0.7,0.5-1.8-0.1-2.2
					C417.5,126.9,416.2,127.2,415.8,127.8z"/>
				<path class="st2" d="M529.4,70.6c-1.1-0.4-2.4,0-2.7,0.9s0.4,2.6,1.2,3c0.9,0.4,2.2-0.2,2.6-1.2C530.8,72.4,530.3,71,529.4,70.6
					z"/>
				<path class="st2" d="M462,107.7c-1.2,0.2-1.6,0.7-1.5,1.5c0.1,0.6,1.1,1.3,1.7,1.2c0.6-0.1,1.2-1.2,1.1-1.9
					C463.2,107.9,462.7,107.6,462,107.7z"/>
				<path class="st2" d="M462.7,114.8c-0.3,0-0.4,0.5-0.4,0.7s0.4,0.6,0.7,0.6s0.4-0.6,0.3-0.8C463.3,115,463,114.8,462.7,114.8z"/>
				<path class="st2" d="M462.1,119.4c0,0-0.1,0-0.1-0.1c-0.8-0.3-1.3,0.7-1.3,1.1l2.7-1.7c0,0,0,0-0.1,0
					C462.9,118.9,462.4,119.1,462.1,119.4z"/>
				<path class="st2" d="M478.9,109.3l-0.1,0.1l0.6-0.3C479.2,109.1,479,109.2,478.9,109.3z"/>
				<path class="st2" d="M471.5,113.9l1.5-0.9h-0.1C472.3,113.1,471.8,113.5,471.5,113.9z"/>
				<path class="st2" d="M458,115.9c0.3,0.6,1.8,0.3,1.9-0.1c0.1-0.5-1-1.5-1.5-1.2C458,114.8,457.8,115.5,458,115.9z"/>
				<path class="st2" d="M458.5,112.2c-0.1,0.5-0.3,1.2,0.3,1.4c0.8,0.3,1.1,0.9,1.4,1.7c0.2,0.6,0.7,0.8,1.3,0.5
					c0.6-0.3,1-1.1,0.6-1.5c-0.7-0.6-0.7-1.3-0.5-1.9c-0.1-0.8-0.7-1.5-1.2-1.5C459.7,110.7,458.6,111.5,458.5,112.2z"/>
				<path class="st2" d="M445.6,128.6c-0.6,0.1-0.4,0-0.9-0.5c-0.3-0.4-0.9-0.7-1.4-0.4c-0.2-0.1-0.4-0.2-0.5-0.3
					c-0.6-0.3-1.2,0.2-1.4,1c-0.1,0.5-0.1,1.2,0.2,1.5c0.3,0.4,1,0.5,1.6,0.7c0,0.2-0.1,0.4,0,0.5l3.6-2.2
					C446.4,128.7,446,128.6,445.6,128.6z"/>
				<path class="st2" d="M433.7,136.9c-0.2-0.2-0.5-0.4-0.8-0.5s-0.6,0-0.8,0.1c-0.4-0.2-0.9,0-1.4,0.5c-0.1,0-0.3,0-0.4,0l1.7,1
					L433.7,136.9z"/>
				<path class="st2" d="M427.1,107.4c0.1,0.3,0.6,1.1,1,1s0.5-1,0.5-1.4c0-0.2-0.6-0.4-0.9-0.4C427.2,106.7,426.9,107,427.1,107.4z
					"/>
				<path class="st2" d="M435.9,105.6c-0.2,0.5-0.1,1,0.3,1.4c0.2,0.1,0.5,0.3,0.7,0.2c0.5-0.2,0.9-0.6,1.4-0.9
					c1.3,0.4,2.3,0.2,2.6-0.6c0.3-0.7-0.4-2-1.3-2.3s-1.3,0-1.9,1.8C437,105,436.3,104.7,435.9,105.6z"/>
				<path class="st2" d="M442.1,98.4c0.6-0.1,1.1-0.8,1-1.4c-0.1-0.5-0.6-0.9-1.1-0.8c-0.7,0.1-1.2,0.6-1.1,1.2
					C440.9,98,441.5,98.5,442.1,98.4z"/>
				<path class="st2" d="M437.6,96.1c0,0.1,0.2,0.3,0.4,0.3s0.2-0.3,0.2-0.4s-0.3-0.2-0.3-0.2C437.8,95.9,437.6,96,437.6,96.1z"/>
				<path class="st2" d="M441.8,93.8c0.4-0.1,1.2-0.6,1.2-1.1s-1.1-0.5-1.5-0.5c-0.5,0-0.7,0.4-0.6,0.9
					C441.1,93.6,441.3,94,441.8,93.8z"/>
				<path class="st2" d="M437.7,87.7c-0.3,0-0.4,0.4-0.4,0.6s0.3,0.7,0.5,0.7s0.5-0.6,0.4-0.8C438.2,88,438,87.7,437.7,87.7z"/>
				<path class="st2" d="M453.6,97.4c0.1,1.1,1.1,1.7,2.4,1.6c1.1-0.1,1.8-1,1.7-2c-0.1-1.1-1.3-2-2.3-1.9
					C454.5,95.2,453.6,96.4,453.6,97.4z"/>
				<path class="st2" d="M447.3,97.9c0.8-0.1,1.2-0.8,1-1.9c-0.1-0.6-0.9-1.2-1.5-1.1c-0.7,0.1-1.8,1.4-1.7,1.9
					C445.3,97.5,446.4,98,447.3,97.9z"/>
				<path class="st2" d="M455.7,92.1c0-0.4-0.6-0.4-0.8-0.4c-0.1,0-0.4,0.3-0.4,0.4c0.1,0.2,0.3,0.5,0.5,0.5S455.6,92.5,455.7,92.1z
					"/>
				<path class="st2" d="M471.6,87.6c-0.3,0.3-0.2,1.1,0.3,1.7c-0.1,0-0.3,0.1-0.2,0.3c0.1,0.2,0.2,0.3,0.4,0.3
					c0.2,0,0.2-0.2,0.2-0.3c0.2,0,0.6,0,0.8-0.2c0.6-0.4,0.7-1.4,0.3-1.8C472.9,87.2,472,87.2,471.6,87.6z"/>
				<path class="st2" d="M446.1,85c0.3-0.1,1.1-0.6,1.1-0.9c-0.1-0.3-0.8-0.7-1.2-0.7c-0.5-0.1-0.8,0.4-0.8,1
					C445.3,85,445.7,85.1,446.1,85z"/>
				<path class="st2" d="M400.8,113.5c0.2,0,0.6-0.1,0.7-0.5c0-0.4-0.6-0.4-0.8-0.4c-0.1,0-0.4,0.3-0.4,0.4
					C400.4,113.2,400.6,113.5,400.8,113.5z"/>
				<path class="st2" d="M402.6,106.3c-0.4-0.3-1.5,0.4-1.8,0.8c-0.2,0.3-0.2,1.1,0.2,1.4s1.2-0.1,1.6-0.4
					C402.8,107.9,403,106.6,402.6,106.3z"/>
				<path class="st2" d="M431,96.8c-0.2-0.9-0.9-1.4-2-1.2c-1,0.2-1.5,0.9-1.3,1.8s1,1.5,2.1,1.3C430.5,98.7,431.2,97.7,431,96.8z"
					/>
				<path class="st2" d="M400.5,115.1c0.4,0.3,0.9,0.4,1.3,0c0.3-0.4,0-1.5-0.4-1.5s-0.7,0.2-1,0.5
					C400.1,114.3,400,114.8,400.5,115.1z"/>
				<path class="st2" d="M428.5,109.8c-0.7,0.1-1.5,1.1-1.4,1.9c0.1,0.6,1,1.2,1.8,1.1c1.1-0.1,1.5-0.6,1.4-1.4
					C430.2,110.6,429.2,109.7,428.5,109.8z"/>
				<path class="st2" d="M428.6,118.9c0.6-0.1,0.8-0.4,0.8-1s-0.3-1.1-0.8-1.2c-0.8-0.2-1.5,0.5-1.6,1
					C427,118.2,427.6,119.1,428.6,118.9z"/>
				<path class="st2" d="M502.7,73.4c-0.2-0.1-0.5-0.2-0.7,0.1s-0.1,0.5,0.1,0.6s0.6,0.3,0.9,0.1C503.2,73.9,502.8,73.5,502.7,73.4z
					"/>
				<path class="st2" d="M424.9,121.4c-0.8,2.1-0.6,2.7,1.3,3.8l0.1,0.1c-0.3-0.1-0.6-0.2-0.8-0.3c-0.4-0.1-0.8,0.2-0.8,0.8
					c0,0.6,0.4,1,0.9,0.9c0.2,0,0.6-0.3,0.9-0.6c0.2,0.6,0.5,0.9,1.1,0.8c0.7-0.1,1.2-0.8,0.8-1.6c-0.3-0.7,0.1-1.1,0.3-1.6
					c1.5,0.7,2.4,0.3,2.7-1.1c0-0.1,0-0.3,0-0.4c0-0.9-0.4-1.3-1.1-1.3c0-0.5-0.1-0.9-0.4-1.1c-0.8-0.5-2-0.3-2.6,0.4
					c-0.1,0.1-0.2,0.3-0.2,0.4c-0.2-0.1-0.4-0.2-0.6-0.1C425.8,120.5,425.2,120.7,424.9,121.4z"/>
				<path class="st2" d="M518.3,82.1c0-0.5-0.4-0.7-1.5-0.5c-0.6,0.7,0.2,1.5,0.7,1.5C517.9,83.1,518.4,82.5,518.3,82.1z"/>
				<path class="st2" d="M524.5,76.5c0-0.5-0.9-1.1-1.5-0.5c-0.6,0.7,0.2,1.5,0.7,1.5C524,77.5,524.5,76.9,524.5,76.5z"/>
				<path class="st2" d="M536.9,67.8c0.2-0.1,0.5-0.5,0.4-0.7c0-0.2-0.4-0.5-0.7-0.5c-0.2,0-0.7,0.4-0.7,0.7S536.7,67.8,536.9,67.8z
					"/>
				<path class="st2" d="M525.7,80.1c-0.4,0.2-0.8,0.5-1.2,0.7c-0.2-0.1-0.4-0.2-0.6-0.3c-0.8-0.3-1.9,0-2.3,0.6
					c-0.5,0.7-0.5,1.6-0.2,2.3L527,80C526.5,80,526.1,80,525.7,80.1z"/>
				<path class="st2" d="M538.5,72.2c-0.1,0.3-0.1,0.6-0.1,0.9l3-1.9C540.5,70.8,538.9,71.3,538.5,72.2z"/>
				<path class="st2" d="M411.8,111.2c-0.6,0.1-1.2,1-1.1,1.8c0.1,0.7,0.9,1.2,1.7,1.1c0.8-0.1,1.2-0.5,1.1-1.2
					C413.4,112,412.5,111.1,411.8,111.2z"/>
				<path class="st2" d="M418.9,124.4c0,0.2,0.2,0.4,0.2,0.5c0.8,1,2,0.9,2.5-0.3c0.2-0.4,0.3-0.9,0.4-1.3c0.7-0.1,1.1-0.8,0.9-1.8
					c-0.1-0.8-0.6-1.4-1.2-1.3c-0.2,0-0.4,0.1-0.6,0.3c-0.1-0.1-0.3-0.2-0.5-0.2c-0.5-0.1-1.6,0-1.6,1
					C419.8,123,418.6,123.1,418.9,124.4z"/>
				<path class="st2" d="M424.8,118.2c0.1-0.2,0-0.4-0.1-0.4c-0.1-0.1-0.3,0-0.4,0.1s-0.1,0.3,0,0.4
					C424.5,118.3,424.7,118.4,424.8,118.2z"/>
				<path class="st2" d="M416,126.7c0.1-0.5-0.4-0.8-1-0.8s-0.9,0.4-0.7,0.9c0,0.1,0.1,0.2,0.1,0.4l1.2,0.7
					C415.9,127.7,415.9,127,416,126.7z"/>
				<path class="st2" d="M519.8,81.7c0.1-0.1,0-0.5-0.2-0.6s-0.5,0.2-0.7,0.3c-0.1,0.1-0.1,0.6,0.2,0.7
					C519.3,82.3,519.6,81.9,519.8,81.7z"/>
				<path class="st2" d="M473.5,79.5c0.2-0.2,0.1-0.6,0-0.7s-0.7-0.4-0.9-0.2c-0.2,0.2,0,0.8,0.2,0.9
					C472.9,79.6,473.3,79.7,473.5,79.5z"/>
				<path class="st2" d="M486.7,73.4c0-0.3-0.7-0.6-1.1-0.9c-0.1-0.1-0.4-0.3-0.6,0.1c-0.3,0.3-0.2,1.3,0.4,1.6
					C485.8,74.5,486.7,74.1,486.7,73.4z"/>
				<path class="st2" d="M488.8,100.4c-0.3,0.1-0.6,0.3-0.7,0.6c-0.1,0.1-0.3,0.2-0.5,0.4c-0.6,0.7-0.6,1.6-0.1,2.1
					c0.2,0.1,0.4,0.2,0.6,0.3l2.4-1.5c-0.1-0.3-0.2-0.6-0.5-0.9v-0.1C490,100.8,489.3,100.3,488.8,100.4z"/>
				<path class="st2" d="M485.6,90c0.7,0.6,1.5,0.6,2.2-0.1c0.8-0.8,0.7-1.8-0.1-2.7c-0.7-0.6-1.8-0.7-2.5-0.1
					C484.5,87.8,484.7,89.2,485.6,90z"/>
				<path class="st2" d="M506.8,76.6c0.6-0.4,1.5-0.7,1.7-1.5c-0.1-0.3-0.3-0.6-0.4-1c0.5-0.9,0.5-1.8,0.1-2.2
					c-0.4-0.3-0.8-0.3-1.2,0c-0.7,0.5-0.8,0.9-0.4,1.9c-0.3,0.7-0.6,1.3-0.8,1.9C505.6,76.4,506.3,77,506.8,76.6z"/>
				<path class="st2" d="M516.1,78.1c0.1-0.2,0.3-0.4,0.1-0.7c-0.2-0.3-0.5-0.1-0.6,0c-0.1,0.2-0.5,0.6-0.2,0.8
					C515.5,78.5,516,78.3,516.1,78.1z"/>
				<path class="st2" d="M511.8,82.4c-0.4-0.6-0.9-0.8-1.6-0.4c-0.8,0.4-1,1.5-0.5,2.3s1,0.7,1.2,1.2s0.6,0.6,1.3,0.5
					c0.6-0.1,1.6-0.3,1.4-1.2c-0.2-0.9-0.8-0.8-1.1-0.8c-0.3,0.1-0.8-0.2-0.5-0.4C512.2,83.4,512.3,83,511.8,82.4z"/>
				<path class="st2" d="M430.4,133c-0.1-0.5-0.9-1-1.4-0.9c-0.6,0.1-1.4,1-1.3,1.5c0.1,0.7,1.1,1.6,1.8,1.5
					C430.2,135,430.6,134.1,430.4,133z"/>
				<path class="st2" d="M518.2,85c-0.7-0.1-1,0.5-1,1.1l1.5-0.9C518.6,85,518.4,85,518.2,85z"/>
				<path class="st2" d="M404.3,114.5c-0.2,0-0.5,0.2-0.5,0.6s0.3,0.7,0.8,0.6c0.4-0.1,0.6-0.4,0.5-0.8
					C404.9,114.5,404.5,114.4,404.3,114.5z"/>
				<path class="st2" d="M460.8,90.9c-0.5,0.1-0.9,0.3-0.9,0.9c0,0.5,0.6,1,1.1,0.9c0.4,0,0.7-0.7,0.6-1.3
					C461.5,91,461.3,90.8,460.8,90.9z"/>
				<path class="st2" d="M443.8,105.6c0.1,0.5,1.2,1.2,1.8,1.2s0.9-0.6,0.8-1.4c-0.1-0.9-0.5-1.4-1.2-1.3
					C444.3,104.2,443.7,104.9,443.8,105.6z"/>
				<path class="st2" d="M432.5,116.3c-0.8,1.2-0.1,3.1,1.4,3.8c0.6,0.3,0.6,0.6,0.7,1c0.2,0.7,1,1,1.6,0.8c0.7-0.2,0.7-0.7,0.5-1.2
					c-0.1-0.4-0.3-0.8-0.2-1.2c0.2-0.9,0.5-1.7,0.8-2.6c2.2-0.2,2.7-0.7,2.1-2.6c-0.3-1-1.5-1.4-2.3-0.8c-0.7,0.5-1.1,1.2-1.8,2
					C434.3,115.4,433.2,115.3,432.5,116.3z"/>
				<path class="st2" d="M442.3,111.1c-0.3,0.1-0.6,0.3-0.8,0.5c-0.3,0.2-0.5,0.5-0.7,0.7c-0.8,0.8-0.9,1.5-0.3,2.2
					c0.6,0.8,1.5,0.9,2.4,0.3s1.8-1.3,2.8-1.7c0.8-0.3,1.5-1.3,1.2-1.8s-1.3-0.6-1.5-0.4c-0.6,0.5-1,0.1-1.5,0
					C443.3,110.8,442.8,111,442.3,111.1z"/>
				<path class="st2" d="M435.2,112.6c0.2,0.1,0.7,0,0.8-0.2c0.5-0.5,0.3-1.1-0.3-1.5c-0.6,0.1-1.2,0.2-1.2,0.9
					C434.6,112.1,435,112.4,435.2,112.6z"/>
				<path class="st2" d="M431.1,129.5c-0.3,0-0.6,0.2-0.8,0.5c-0.5-0.2-1-0.1-1.3,0.4c-0.4,0.6-0.3,1.3,0.2,1.6
					c0.4,0.3,1.2,0.1,1.5-0.3c0.2,0.1,0.5,0.2,0.8,0.2c0.5-0.1,1.1-1.1,1-1.6C432.4,129.9,431.6,129.4,431.1,129.5z"/>
				<path class="st2" d="M424.5,110.2c-0.3,0.2-0.5,1,0,1.5c0.2,0.2,0.7,0.2,0.9,0c0.3-0.2,0.5-0.6,0.5-0.9
					C425.7,110.2,424.9,110.1,424.5,110.2z"/>
				<path class="st2" d="M422.7,101.6c-0.4-0.1-0.8,0.6-0.7,1.1s0.4,0.8,0.9,0.7c0.4-0.1,1.2-0.6,1.2-1
					C424.1,101.9,423.1,101.7,422.7,101.6z"/>
				<path class="st2" d="M430.9,127.3c0.4-0.4,0.3-1.1-0.2-1.5s-1.1-0.4-1.5,0.1s-0.3,1.2,0.1,1.5
					C429.8,127.7,430.6,127.6,430.9,127.3z"/>
				<path class="st2" d="M423.3,112.3c-0.5,0.1-0.9,0.6-0.7,1.2c0.1,0.5,0.8,1,1.6,0.8c0.1-0.3,0.5-0.7,0.5-1.1
					C424.7,112.6,423.9,112.2,423.3,112.3z"/>
				<path class="st2" d="M457.1,106.5c-0.4,0.5-0.4,0.9,0.3,1.4c0.5,0.3,1,0.1,1.3-0.3c0.5-0.3,1.3-0.7,1.9-1.2
					c0.1-0.1,0.2-0.2,0.3-0.4c0.2,0,0.3,0,0.5-0.1c0.4-0.3,0-0.9-0.2-1.1c-0.1-0.1-0.4-0.3-0.7-0.2c-0.3-0.2-0.7-0.3-1.1,0
					c-0.3,0.2-0.6,0.3-0.9,0.3C457.7,105.2,457.2,105.7,457.1,106.5z"/>
				<path class="st2" d="M457.7,101.8c-0.2-0.7-0.5-1.1-1.2-0.9c-0.2,0.1-0.6,0.4-0.6,0.7c0,0.3,0.2,0.8,0.4,0.9
					C457,102.8,457.3,102.3,457.7,101.8z"/>
				<path class="st2" d="M459.3,100.1c-0.1,0.4,0,1,0.3,1.3c0.3,0.4,0.7,0.1,0.8,0c0.2-0.3,0.1-0.6,0.1-0.9c-0.1-0.3,0-0.6-0.3-0.9
					C459.9,99.3,459.5,99.6,459.3,100.1z"/>
				<path class="st2" d="M457.9,80.1c-0.2,0-1,0.4-0.9,0.7c0.1,0.3,0.7,0.6,0.9,0.6c0.3-0.1,0.8-0.4,0.8-0.6
					C458.7,80.6,458.2,80.2,457.9,80.1z"/>
				<path class="st2" d="M449.8,105.5c-1.1-0.1-2.2,0.4-2,1.3s0.8,1.4,1.5,2c0.5,0.5,1.3,0,1.2,0.8c0,0.8,0.2,2.5,1.7,2.4
					c0.7-0.1,1.4-0.9,1.5-1.7c0.4,0.4,1.1,0.7,1.8,0.5c0.9-0.2,1.7-1.4,1.5-2.3s-1.1-1.6-1.9-1.4c-0.7,0.1-1.6,1.1-1.7,2
					c-0.2-0.3-0.4-0.5-0.7-0.5c-0.6-0.1,0-1.4-0.8-1.6C451,106.8,450.9,105.7,449.8,105.5z"/>
				<path class="st2" d="M447.3,102.2c-0.1,0.7-0.4,1.4,0.3,1.8c0.5,0.3,1,0.2,1.4-0.3c0.3-0.4,0.4-0.7,0.1-1.2
					C448.7,101.9,448.1,102,447.3,102.2z"/>
				<path class="st2" d="M452,102.5c-0.5,0.6-0.5,2.2,0.5,2.8c1,0.6,1.8,0.4,2.4-0.1s0.3-1.7-0.4-2.6
					C454,101.9,452.5,101.9,452,102.5z"/>
				<path class="st2" d="M455.2,100.4c-0.1-0.1-0.6,0-0.7,0.1c-0.1,0.2-0.1,0.6,0,0.7s0.6,0.4,0.9,0
					C455.7,100.8,455.4,100.5,455.2,100.4z"/>
				<path class="st2" d="M435.1,98.4c-0.7,0-1.4,0.8-1.3,1.6c0,0.7,0.5,1.2,1,1.1c0.7,0,1.6-0.9,1.5-1.6
					C436.3,98.9,435.7,98.4,435.1,98.4z"/>
				<path class="st2" d="M406.3,118.6c-0.1-0.2-0.2-0.3-0.3-0.3c-0.2,0-0.3,0.2-0.4,0.4c-0.2,0.1-0.4,0.3-0.6,0.5
					c-0.5,0.6-0.5,1.6,0,2c0.7,0.5,2,0.3,2.6-0.5c0.4-0.5,0.1-1.3-0.5-1.7C406.8,118.8,406.6,118.7,406.3,118.6z"/>
				<path class="st2" d="M409.5,124.3l1.5,0.9c-0.1-0.3-0.2-0.6-0.4-0.7c0.5,0.1,1-0.2,1.4-0.8c0.5-0.6,0.5-1.3,0-1.7
					s-2-0.3-2.4,0.1c-0.5,0.7-0.4,1.5,0.4,2.1c0,0,0.1,0,0.1,0.1C410,124.3,409.8,124.3,409.5,124.3z"/>
				<path class="st2" d="M408.2,104.9c-0.6,0-1.1,0.5-0.9,1c0.1,0.5,0.5,0.9,1.1,0.9c0.5,0,1-0.5,0.9-1
					C409.2,105.4,408.7,104.9,408.2,104.9z"/>
				<path class="st2" d="M549,65.1c-0.6-0.2-0.9,0.5-1,0.7c-0.1,0.3,0.1,0.7,0.3,0.9c0.1,0.1,0.2,0.1,0.3,0.1l0.7-0.4
					C549.4,66.2,549.6,65.4,549,65.1z"/>
				<path class="st2" d="M394.1,110.4c0.2-0.3,0-0.7-0.2-0.8c-0.1-0.1-0.6-0.1-0.7,0.1c-0.1,0.1-0.1,0.6,0,0.7
					C393.4,110.4,393.9,110.7,394.1,110.4z"/>
				<path class="st2" d="M430.6,105.5c0.1,1.1,1,2.1,1.8,2c1-0.1,2.2-1.4,2.1-2.3c-0.1-1-1.2-1.8-2.1-1.7
					C431.3,103.6,430.5,104.6,430.6,105.5z"/>
				<path class="st2" d="M402.6,119.5c0.3-0.5,0.2-1.3-0.3-1.7c-0.5-0.3-1-0.2-1.4,0.2c-0.2,0.2-0.3,0.5-0.3,0.8l1.6,1
					C402.3,119.7,402.5,119.7,402.6,119.5z"/>
				<path class="st2" d="M407.9,109.9c-0.3,0.4-0.2,1.2,0.3,1.6c0.4,0.3,1,0.3,1.4-0.2s0.4-1.3-0.1-1.7
					C409,109.3,408.1,109.5,407.9,109.9z"/>
				<path class="st2" d="M431,82.7c-0.3,0-0.4,0.6-0.4,0.8c0,0.1,0.3,0.4,0.5,0.4s0.4-0.4,0.4-0.6C431.5,83.1,431.3,82.6,431,82.7z"
					/>
				<path class="st2" d="M417.9,111.3c-0.2,0.1-0.4,0.4-0.5,0.6c-0.3,0.4-0.2,1.2,0.3,1.5c0.6,0.4,1.3,0.4,1.6-0.2
					c0.1-0.1,0.1-0.3,0.2-0.4c0.3-0.4,0.4-1,0.3-1.2C419.8,111.4,418.7,110.9,417.9,111.3z"/>
				<path class="st2" d="M420.8,116.9c0.1,0.6,0.8,1,1.4,0.9c0.5-0.1,1-0.7,0.9-1.3c-0.1-0.5-0.8-0.9-1.3-0.9
					C421.1,115.7,420.7,116.3,420.8,116.9z"/>
				<path class="st2" d="M417.5,104c-0.5,0-0.9,0.6-0.9,1.1c0.1,0.6,0.6,1.1,1.1,1.1c0.5-0.1,1-0.6,0.9-1.1
					C418.7,104.6,418,104,417.5,104z"/>
				<path class="st2" d="M419.2,97.1c0,0.1,0.3,0.4,0.4,0.4c0.2,0,0.7-0.1,0.7-0.5s-0.5-0.5-0.6-0.5
					C419.5,96.7,419.3,96.9,419.2,97.1z"/>
				<path class="st2" d="M419.7,91c-0.1,0.7-0.4,1.4,0.3,1.8c0.5,0.3,1,0.2,1.4-0.3c0.3-0.4,0.4-0.7,0.1-1.2
					C421.1,90.6,420.5,90.7,419.7,91z"/>
				<path class="st2" d="M413,99c-0.6-0.4-1.2-0.3-1.7,0.2c-0.4,0.4-1.4,1-1.1,1.7c0.2,0.8,0.9,0.5,1.2,0.6c0.9,0.4,2.2,0,2.4-0.9
					C414,100,413.7,99.4,413,99z"/>
				<path class="st2" d="M416.1,118.5c-0.8,0.2-1.6,1.3-1.5,2.2c0.1,1,1.1,1.6,2.4,1.4c1-0.1,1.6-0.9,1.5-1.9
					S417.2,118.3,416.1,118.5z"/>
				<path class="st2" d="M409,115.9c-0.4,0.4-0.3,1.1,0.1,1.4c0.4,0.4,1.1,0.4,1.5-0.1s0.4-1-0.1-1.4S409.4,115.4,409,115.9z"/>
				<path class="st2" d="M413.5,121.6c-0.4,0.3-0.3,1.1,0.1,1.2c0.3,0.1,0.8,0,0.9-0.3c0.2-0.2,0.4-0.9,0.1-1.2
					C414.5,121.1,413.8,121.4,413.5,121.6z"/>
				<path class="st2" d="M506.9,91.7c-0.8,0.1-1.4,0.7-1.5,1.3c0,0.1,0,0.1,0,0.2l2.4-1.4C507.5,91.7,507.2,91.7,506.9,91.7z"/>
				<path class="st2" d="M493.2,82.2c-0.4,0.4-0.9,0.4-1.4,0.5c-0.2,0-0.5,0.6-0.5,0.9s0.3,0.7,0.5,0.9c0.2,0.1,0.7,0,0.9-0.2
					c0.4-0.3,0.8-0.8,1.2-1.2c0.3-0.4,0.2-0.7-0.2-1C493.5,82.2,493.3,82.1,493.2,82.2z"/>
				<path class="st2" d="M491.8,74.3c-0.3,0.3-0.3,0.8,0,1.1c0.4,0.4,0.9,0.5,1.2,0.1c0.4-0.4,0.4-1.1,0-1.4
					C492.6,73.8,492.1,73.9,491.8,74.3z"/>
				<path class="st2" d="M491.2,100.7c0.4,0.4,1,0.4,1.4,0s0.5-1.1,0.1-1.5s-1.1-0.3-1.5,0.1C490.8,99.7,490.8,100.3,491.2,100.7z"
					/>
				<path class="st2" d="M493.3,90.1c0.4-0.3,0.4-0.8,0.1-1.2c-0.6-0.7-1.1-1-1.5-0.7s-0.6,1.4-0.3,1.8
					C491.9,90.3,492.9,90.4,493.3,90.1z"/>
				<path class="st2" d="M487.4,81c-0.6,0.6-0.7,1.5-0.2,1.9s1.6,0.5,2,0.1c0.5-0.5,0.2-1.5-0.5-2.1C488.2,80.6,487.8,80.7,487.4,81
					z"/>
				<path class="st2" d="M461.2,96.4c-0.4,0.2-0.5,0.6-0.5,1c-0.1,0.5,0.5,1,1,0.9s0.8-0.4,0.9-1C462.5,96.9,461.5,96.2,461.2,96.4z
					"/>
				<path class="st2" d="M482.8,102.7c-0.2,0.9,0.3,1.2,0,1.4c-0.3,0.2-1,0.3-1.1,0.9s1.5,1.5,1.8,1.6l2-1.2c-0.1-0.2,0-0.4,0.3-0.6
					c0.5-0.4,0.6-1.3-0.2-2.3C484.6,101.6,483,101.8,482.8,102.7z"/>
				<path class="st2" d="M481.1,91.7c-0.7,0.7-0.7,1.8,0,2.5c0.8,0.8,2.3,0.9,3.1,0.1c0.7-0.7,0.6-2.3-0.1-3
					C483.4,90.5,482.1,90.7,481.1,91.7z"/>
				<path class="st2" d="M491,96c-0.3,0.7,0.2,1.1,0.8,1.4c0.8-0.3,1.1-0.8,0.8-1.7C492,95.5,491.3,95.3,491,96z"/>
				<path class="st2" d="M490.9,79.7c0.5,0.4,1.2,0.4,1.6,0c0.3-0.4,0.4-1.5,0.1-1.7c-0.5-0.4-1.5-0.3-1.8,0.2
					C490.3,78.6,490.4,79.3,490.9,79.7z"/>
				<path class="st2" d="M497.4,88.1c-0.7,0.9-0.8,1.7-0.3,2.2c0.5,0.4,1.8,0.2,2.2-0.4c0.3-0.4,0.1-1.6-0.4-2
					C498.5,87.6,497.7,87.7,497.4,88.1z"/>
				<path class="st2" d="M500.9,94.1c0.7,0.6,1.4,0.7,1.9,0.2c0.4-0.5,0.4-2,0-2.4c-0.6-0.5-1.4-0.4-2,0.2
					C500.1,92.8,500.1,93.3,500.9,94.1z"/>
				<path class="st2" d="M502.4,88.4c-0.2-0.1-0.6,0.1-0.7,0.3c-0.1,0.3,0.1,0.5,0.3,0.6s0.7-0.1,0.8-0.3
					C503,88.8,502.7,88.4,502.4,88.4z"/>
				<path class="st2" d="M502,70c-0.5,0.5-0.6,1.5-0.1,1.8s2-0.6,2.1-1.2C504.1,70,502.5,69.5,502,70z"/>
				<path class="st2" d="M496.5,83.9c-0.6,0.7-0.4,1.4,0.4,2.1c0.5,0.4,1.4,0.3,1.8-0.1c0.5-0.5,0.5-2.2,0-2.5
					C498.3,82.9,497.1,83.2,496.5,83.9z"/>
				<path class="st2" d="M494.7,78.5c-0.6,0.6-0.4,1.3,0.3,2c0.6,0.5,1.3,0.4,1.9-0.3c0.4-0.5,0.5-1.1,0.1-1.5
					C496.6,78.1,495,78,494.7,78.5z"/>
				<path class="st2" d="M494.9,93.8c-0.4,0.8-0.5,1.4-0.1,1.7c0.4,0.3,1.5,0,1.8-0.4c0.2-0.4-0.1-1.3-0.5-1.6
					C495.7,93.1,495.2,93.3,494.9,93.8z"/>
				<path class="st2" d="M496.1,98.5c-0.2,0.2-0.3,0.4-0.4,0.7l1.9-1.2C497,97.9,496.4,98.1,496.1,98.5z"/>
				<path class="st2" d="M479.9,98.8c0.1,0.5,0.3,0.9,0.9,0.9c0.2,0,0.5-0.2,0.6-0.5c0,0.1,0.1,0.1,0.1,0.2c0.4,0.3,1,0.3,1.4-0.1
					c0.4-0.5,0.4-1,0-1.4s-1.1-0.4-1.5,0c-0.1,0.1-0.1,0.2-0.2,0.3c-0.2-0.1-0.5-0.1-0.7-0.1C480.2,98,479.8,98.2,479.9,98.8z"/>
				<path class="st2" d="M465.5,106.5c-0.9,0.9-1,1.4-0.6,2c0.3,0.4,0.7,0.6,1.3,0.4c0.6-0.2,1-0.7,0.9-1.3
					C466.9,106.8,466.1,106.7,465.5,106.5z"/>
				<path class="st2" d="M466.1,98.9c-0.1,0-0.1,0.3,0,0.3c0.1,0.1,0.3,0.2,0.4,0.1s0-0.2,0-0.4C466.3,98.9,466.2,98.9,466.1,98.9z"
					/>
				<path class="st2" d="M467.2,111.7c0.4,0.4,1,0.3,1.4-0.1c0.1-0.1,0.2-0.3,0.2-0.4c0.2,0,0.3,0,0.5,0c0.6-0.1,0.9-0.7,0.7-1.3
					c-0.1-0.5-0.3-1-0.8-1c-0.9,0.2-1.4,0.7-1.3,1.2c0,0,0,0,0,0.1c-0.2,0-0.4,0-0.5,0C467.1,110.4,466.8,111.4,467.2,111.7z"/>
				<path class="st2" d="M467.4,104.6c-0.1,0.3,0.2,0.8,0.4,0.9c0.4,0.2,1,0.2,1.3,0c0.7-0.4,0.3-1.1,0-1.7
					C468.3,103.7,467.6,103.8,467.4,104.6z"/>
				<path class="st2" d="M463.6,88.1c-0.4,0.5-0.4,1,0,1.4c0.5,0.5,1.5,0.6,1.8,0.2c0.3-0.3,0.1-1.3-0.3-1.7
					C464.6,87.5,464,87.6,463.6,88.1z"/>
				<path class="st2" d="M464.5,96.4c-0.1,0.1-0.1,0.2-0.2,0.3c0,0.7,0.2,0.8,0.6,1.1h0.1c-0.3,0.2-0.7,0.8-0.6,1.1
					c0.1,0.5,0.5,0.5,0.9,0.5c0.5-0.1,0.9-0.5,0.7-1c-0.1-0.1-0.1-0.3-0.2-0.4c0.1-0.5,0.8-1.2,0.4-1.6
					C465.9,96,465,96.5,464.5,96.4z"/>
				<path class="st2" d="M462.9,83.9c-0.6,0.1-1,0.6-1,1.2c0.1,0.5,0.6,1,1.1,0.9c0.6,0,1-0.5,0.9-1.2
					C463.9,84.2,463.5,83.9,462.9,83.9z"/>
				<path class="st2" d="M468.2,91.8c-0.3,0.1-0.5,0.4-0.5,0.6s0.3,0.8,0.5,0.7c0.3-0.1,0.4-0.5,0.4-0.7
					C468.6,92.2,468.4,91.8,468.2,91.8z"/>
				<path class="st2" d="M473.1,105.4c-0.5,0.2-1.6-0.1-2.3,0.1c-1.1,0.3-1.9,1.2-1.5,2.3c0.5,1.3,1.5,1.6,2.6,1.3
					c1.5-0.5,0.7-1.9,1.8-1.9c0.2,0,0.4,0.1,0.5,0.1c-0.3,0.3-0.5,0.6-0.4,0.9c0.1,1.2,0.8,2,1.5,1.9s1.4-1.2,1.3-1.9
					c0-0.1,0-0.1-0.1-0.2c0.9-0.4,1.3-1.3,0.9-2c-0.6-0.9-1.5-0.7-1.6-1c-0.1-0.2-0.1-1.3-0.9-1.3
					C473.2,103.7,473.6,105.2,473.1,105.4z"/>
				<path class="st2" d="M475.2,80c-0.1,0.1,0,0.5,0.1,0.7c0.1,0.1,0.5,0.3,0.7,0.1c0.2-0.2-0.1-0.7-0.2-0.8
					C475.8,79.9,475.4,79.9,475.2,80z"/>
				<path class="st2" d="M474.1,91.1c-0.1,0.3-0.5,1,0,1.4c0.5,0.3,1.1-0.1,1.4-0.4c0.4-0.3,0.1-0.8-0.2-1.1
					C474.9,90.6,474.3,90.6,474.1,91.1z"/>
				<path class="st2" d="M475.9,95.2c-0.4,0.5-0.3,1.8,0.2,2.2c0.4,0.4,1.7,0.2,2.1-0.3c0.3-0.4,0.3-1.3,0-1.6
					C477.4,94.8,476.4,94.7,475.9,95.2z"/>
				<path class="st2" d="M477.9,86.9c-0.7,0.8-0.7,1.7,0.1,2.4c0.7,0.6,1.6,0.6,2,0.1c0.6-0.8,0.5-2.1-0.2-2.8
					C479.4,86.2,478.4,86.4,477.9,86.9z"/>
				<path class="st2" d="M472.7,97.3c-0.4-0.3-0.9-0.2-1.3,0.2c-0.4,0.5-0.1,0.9,0.2,1.1c0.3,0.2,1.1,0.6,1.4,0.2
					C473.3,98.4,473,97.6,472.7,97.3z"/>
				<path class="st2" d="M468.2,100.6c-0.5,0.7-0.5,1.8,0.1,2.4c0.4,0.4,1.6,0.2,2.2-0.4c0.4-0.4,0.5-0.8,0.4-1.2
					c0.2,0.1,0.4,0.1,0.6,0c0.8-0.2,1.4-0.9,1.3-1.5c-0.1-0.7-1.1-1.6-1.7-1.5c-0.5,0.1-1,1.1-1,1.9
					C469.4,100.1,468.5,100.2,468.2,100.6z"/>
				<path class="st2" d="M469.9,86.9c-0.1,0-0.4,0.3-0.4,0.4c0.1,0.2,0.3,0.5,0.5,0.5s0.7-0.3,0.7-0.5
					C470.6,87.2,470.1,86.9,469.9,86.9z"/>
				<path class="st2" d="M470,92.3c0.1,0.6,1,1.2,1.5,1.2c0.1,0,0.2-0.1,0.3-0.1c0,0.1,0,0.2,0,0.3c0.6,0.5,1.2,0.4,1.4,0
					c0.1-0.3,0.1-0.8-0.1-1s-0.5-0.3-0.8-0.2c0-0.1,0-0.2,0-0.3c-0.1-0.6-0.6-0.9-1.3-0.8C470.3,91.4,469.9,91.8,470,92.3z"/>
				<path class="st3" d="M33,184h347c5,0,9,4,9,9l0,0c0,5-4,9-9,9H33c-5,0-9-4-9-9l0,0C24,188,28,184,33,184z"/>
				<path class="st3" d="M118,226h347c5,0,9,4,9,9l0,0c0,5-4,9-9,9H118c-5,0-9-4-9-9l0,0C109,230,113,226,118,226z"/>
				<circle class="st3" cx="504" cy="235" r="9"/>
			</g>
		</g>
	</g>
</g>
<rect class="st4" width="560" height="300"/>
</svg>
