<svg id="Layer_1" data-name="Layer 1" xmlns="http://www.w3.org/2000/svg" viewBox="0 0 128 128"><defs><style>.cls-1{fill:#ecf0f6;}.cls-2{fill:#fff;}.cls-3{fill:#f9b110;}.cls-4{fill:#fec514;}.cls-5{fill:#ea9600;}.cls-6{fill:#ced5e1;}.cls-7{fill:#343741;}</style></defs><title>illustration-global-people-network-128-white-bg</title><circle class="cls-1" cx="64.13" cy="63.98" r="60"/><path class="cls-2" d="M90.73,10.56h0a.64.64,0,0,0,.72.46s0,0,.08,0a.87.87,0,0,0,.63-.07c-.6-.32-1.22-.64-1.84-.94A1.19,1.19,0,0,0,90.73,10.56Z"/><path class="cls-2" d="M93.79,14.56c-.54-.52-1.12-.6-1.48-.2a.84.84,0,0,0-.13.21.4.4,0,0,0-.33-.17c-.35,0-.28.46-.28.64s.29.3.36.27l.13-.08a1.5,1.5,0,0,0,.23,1,1.1,1.1,0,0,0,1.6-.16C94.42,15.57,94.39,15.15,93.79,14.56Z"/><path class="cls-2" d="M93.08,18.77a.46.46,0,0,0-.24-.5.63.63,0,0,0-.63.25c-.09.18.14.45.33.51A.46.46,0,0,0,93.08,18.77Z"/><path class="cls-2" d="M93.48,25.94c.35-.13.65-.36.49-.73s-.58-.91-.91-.85-.37.89-.34,1.19S93.07,26.09,93.48,25.94Z"/><path class="cls-2" d="M85,9.14a.83.83,0,0,0,1,.72A.88.88,0,0,0,86.7,9a.85.85,0,0,0-1-.68A.67.67,0,0,0,85,9.14Z"/><path class="cls-2" d="M92,30.24c-.23.19.06.55.14.58s.39.16.57,0a.3.3,0,0,0,0-.46C92.49,30.23,92.19,30.05,92,30.24Z"/><path class="cls-2" d="M90.23,15.29a1.39,1.39,0,0,0-.92-1.51,1.21,1.21,0,0,0-.91.17A1.64,1.64,0,0,0,88,16.21a5.49,5.49,0,0,0,1.08.1A1.27,1.27,0,0,0,90.23,15.29Z"/><path class="cls-2" d="M82.92,7a2.31,2.31,0,0,0,.35.35,2.11,2.11,0,0,1,.33.44c.36.52.77.68,1.11.45a.68.68,0,0,0,.3-.52C84.32,7.46,83.62,7.23,82.92,7Z"/><path class="cls-2" d="M88.83,18.05a.31.31,0,0,0-.07.51.32.32,0,0,0,.52.05.3.3,0,0,0,.06-.48A.31.31,0,0,0,88.83,18.05Z"/><path class="cls-2" d="M100.48,43.93a.59.59,0,0,0-.21.52.54.54,0,0,0,.49.22c.14-.05.51-.34.38-.56A.63.63,0,0,0,100.48,43.93Z"/><path class="cls-2" d="M111.25,56c-.35,0-.28.46-.28.64s.29.3.36.27.36-.26.37-.42S111.6,55.94,111.25,56Z"/><path class="cls-2" d="M112.72,40.52l.08-.05a.7.7,0,0,0,.45.05.94.94,0,0,0,.65-1.13,1,1,0,0,0-.43-.51,1.89,1.89,0,0,0-.09-.34,1,1,0,0,0-1.39-.31,1.15,1.15,0,0,0-.64,1.59C111.63,40.39,112.31,40.74,112.72,40.52Z"/><path class="cls-2" d="M121.88,61c.62-.18,1.85-.71,1.38-1.81a1.46,1.46,0,0,0-1.61-.7h0a1.63,1.63,0,0,0,0-1.46,1.65,1.65,0,0,0-2.09-.56,1.38,1.38,0,0,0-.63,1.74,2.17,2.17,0,0,0,1.89.85.85.85,0,0,0-.22.64c.06.49-1.09.3-1.06,1s-.73,1-.59,1.84.81,1.55,1.47,1.18a3,3,0,0,0,1.18-1.6C121.8,61.6,121.25,61.16,121.88,61Z"/><path class="cls-2" d="M110.67,41.59a1,1,0,0,0-1.26-.4A.77.77,0,0,0,109,42a1.24,1.24,0,0,0,.07,1.12.84.84,0,0,0,1.12.22.82.82,0,0,0,.51-1s0,0,0,0A.82.82,0,0,0,110.67,41.59Z"/><path class="cls-2" d="M99,21.3c0-.2-.53-.65-.76-.59s-.45.76-.37.86.59.57.79.46A.91.91,0,0,0,99,21.3Z"/><path class="cls-2" d="M96.67,26.85a1.81,1.81,0,0,0,1.87.1c.44-.47.37-1-.22-1.55a.89.89,0,0,0-.79-.25.71.71,0,0,0,0-.38,1,1,0,0,0-1.13-.68.78.78,0,0,0-.59.93.86.86,0,0,0,.85.78A.8.8,0,0,0,96.67,26.85Z"/><path class="cls-2" d="M84.8,16.5c.24.23.54.42.88.13a.9.9,0,0,0,0-1.25,2.44,2.44,0,0,0-.87.25A.52.52,0,0,0,84.8,16.5Z"/><path class="cls-2" d="M111.1,38.07a2.62,2.62,0,0,0-.93-.36c-.48,0-.77.61-.63,1.13a.77.77,0,0,0,1,.5A1,1,0,0,0,111.1,38.07Z"/><path class="cls-2" d="M103.55,29.22a.88.88,0,0,0,1.09-.33.63.63,0,0,0,.11-.53,11.36,11.36,0,0,0-.77-1.07c.26-1,0-1.82-.58-2a1.79,1.79,0,0,0-1.69,1,.76.76,0,0,0-.18-.22,1,1,0,0,0-1.24,0,1.27,1.27,0,0,0-.06,1.36,1.22,1.22,0,0,0,1.45-.12.2.2,0,0,0,0-.08,2.9,2.9,0,0,0,1.41.71C103,28.43,102.82,29,103.55,29.22Z"/><path class="cls-2" d="M115.72,52.49c.16,0,.59-.27.53-.47a.56.56,0,0,0-.54-.27c-.18,0-.53.18-.46.38A.59.59,0,0,0,115.72,52.49Z"/><path class="cls-2" d="M117.65,50.49a.84.84,0,0,0,0-1,1,1,0,0,0-1.17-.4c-.59.33-.51.91-.49,1.44C116.92,50.93,117.33,50.93,117.65,50.49Z"/><path class="cls-2" d="M119,39.63c-.22-.5-.44-1-.67-1.49l-.17.06a.85.85,0,0,0-.37.44,1.65,1.65,0,0,0-.9,0c-.65.13-1,.57-.92,1s1.11,1.25,1.49,1.19a1.13,1.13,0,0,0,.91-1.08.8.8,0,0,0,.57-.07S118.94,39.65,119,39.63Z"/><path class="cls-2" d="M78,6.65a1,1,0,0,0,1.24.49.8.8,0,0,0,.43-1L79.64,6l-1.31-.33A1,1,0,0,0,78,6.65Z"/><path class="cls-2" d="M124.11,63.41a.41.41,0,0,0-.11.07,1,1,0,0,0,0,1.21l.06,0c0-.26,0-.51,0-.76S124.11,63.6,124.11,63.41Z"/><path class="cls-2" d="M64.76,12.81a1.66,1.66,0,0,0,.67.76,1.28,1.28,0,0,0,.32.45A1.64,1.64,0,0,0,68,13.6a1.16,1.16,0,0,0-.17-1.71,1.51,1.51,0,0,0-1.08-.41,1.06,1.06,0,0,0-1.32-.26A1.14,1.14,0,0,0,64.76,12.81Z"/><path class="cls-2" d="M72.54,5.73a.71.71,0,0,0,.18.5,1.36,1.36,0,0,0,1.38.1s0-.09.07-.14a1.47,1.47,0,0,0,.61-1.25c-.7-.13-1.41-.25-2.12-.35a.93.93,0,0,0-.26.93A.85.85,0,0,0,72.54,5.73Z"/><path class="cls-2" d="M120.74,44.25a.82.82,0,0,0,0,.35.63.63,0,0,0,.38.56c-.38-1.15-.8-2.28-1.24-3.4a1.45,1.45,0,0,0-.69,1.67A1.46,1.46,0,0,0,120.74,44.25Z"/><path class="cls-2" d="M114.8,43.88a2,2,0,0,0,0,.24,1.71,1.71,0,0,0,1.79,1.06c.79-.15,1.2-1,1-2a1.25,1.25,0,0,0-1.37-1.09,1.7,1.7,0,0,0-1.66-.38,1.47,1.47,0,0,0-.48,1.6A1.1,1.1,0,0,0,114.8,43.88Z"/><path class="cls-2" d="M65.34,5.9c.27.16.82.63,1.18.26s-.07-.94-.22-1.24-.66-.28-1,0S65,5.66,65.34,5.9Z"/><path class="cls-2" d="M118.18,47.84a.92.92,0,0,0,.45-1.3.79.79,0,0,0-1.16-.25c-.34.22-.71.46-.54.85C117.27,47.79,117.76,48,118.18,47.84Z"/><path class="cls-2" d="M74.62,13.2a.68.68,0,0,0,0,.19,2,2,0,0,0-1.46.54.84.84,0,0,0,.16,1.19,1.21,1.21,0,0,0,1.71.12,1.43,1.43,0,0,0,.34-1.13.8.8,0,0,0,.77-.42c.31-.51,0-.91-.39-1.34C75.24,12.48,74.64,12.51,74.62,13.2Z"/><path class="cls-2" d="M67.22,5.15a1.33,1.33,0,0,0,1.63.67,1,1,0,0,0,.36-.22,1,1,0,0,0,.2.33c.33.31,1.56.07,1.94-.39a1.2,1.2,0,0,0,0-1.11c-1.32-.16-2.65-.29-4-.36A1.53,1.53,0,0,0,67.22,5.15Z"/><path class="cls-2" d="M76.27,17.75a1.59,1.59,0,0,0-1.84-.34,1.52,1.52,0,0,0-.11,2,1.14,1.14,0,0,0,.84.32.78.78,0,0,0-.07.74.93.93,0,0,0,1.21.5.85.85,0,0,0,.49-1.19.84.84,0,0,0-.49-.45l.08,0A1.07,1.07,0,0,0,76.27,17.75Z"/><path class="cls-2" d="M122.25,49.06c-.17-.66-.36-1.32-.55-2a1.06,1.06,0,0,0-.28.39,1.23,1.23,0,0,0-.51.12s0,0-.07,0c-1.18.08-1.46.86-.84,2.23a1.5,1.5,0,0,1-.19.25.75.75,0,0,0-.11,1,.81.81,0,0,0,.84.43c.92,0,1.21-.32,1.14-1.24,0-.28,0-.54,0-.82a.58.58,0,0,0,.19,0A1,1,0,0,0,122.25,49.06Z"/><path class="cls-2" d="M116.18,34.74a.47.47,0,0,0,.19.28.79.79,0,0,0-.54.9.64.64,0,0,0,0,.07,1.82,1.82,0,0,0-.72,1.66,1.11,1.11,0,0,0,1.63.47.85.85,0,0,0,.51-.86,2.93,2.93,0,0,0,.62.08c-.53-1.06-1.08-2.1-1.67-3.11A2,2,0,0,0,116.18,34.74Z"/><path class="cls-2" d="M102.82,21c-.74.15-1,.48-.93,1,.15.73.68,1.15,1.26,1a1.85,1.85,0,0,0,.83-1.47C103.91,21,103.49,20.84,102.82,21Z"/><path class="cls-2" d="M113.64,33.71a.89.89,0,0,0-.91.71,1,1,0,0,0,.88,1.18,1.09,1.09,0,0,0,.85-1.3A.71.71,0,0,0,113.64,33.71Z"/><path class="cls-2" d="M100.31,20.4c.56.05,1.1.25,1.36-.34a.86.86,0,0,0-.29-1.1,1,1,0,0,0-.25-.15,1.36,1.36,0,0,0,0-.89,1.21,1.21,0,0,0-1.34-.12.64.64,0,0,0-.09,1,2.49,2.49,0,0,0,.53.51A1.43,1.43,0,0,0,100.31,20.4Z"/><path class="cls-2" d="M103.28,25.05a.64.64,0,0,0,1-.05,1.16,1.16,0,0,0,.21-1.52,1.35,1.35,0,0,0-1.55-.11C102.56,23.74,102.73,24.53,103.28,25.05Z"/><path class="cls-2" d="M52.93,6.91l-.35.17a.76.76,0,0,0-.52-.65c-.38-.16-.8-.11-1,.29a1.33,1.33,0,0,0,0,1,.66.66,0,0,0,.68.32,2.48,2.48,0,0,0,.46,1.87,1.72,1.72,0,0,0,.92.73,1.86,1.86,0,0,0,1.55-.21c.54-.29,1.15-.1,1.53-.59a2.59,2.59,0,0,0,.16-3.11,2.13,2.13,0,0,0-1.72-1C53.91,5.74,53.64,6.63,52.93,6.91Z"/><path class="cls-2" d="M71.17,12.66a.84.84,0,0,0-.23.74c.07.2.47.66.74.6s.37-.68.36-.92S71.43,12.44,71.17,12.66Z"/><path class="cls-2" d="M72.37,11.89a1.82,1.82,0,0,0,.94-1.62,1.45,1.45,0,0,0-.37-1.93,1.67,1.67,0,0,0-2.13,0,.9.9,0,0,0-1.12-.37.84.84,0,0,0-.34,1.16.71.71,0,0,0,1,.38A2.29,2.29,0,0,0,71,10.89a1.21,1.21,0,0,0,.26.2.54.54,0,0,1,0,.1C71.47,11.76,71.92,12,72.37,11.89Z"/><path class="cls-2" d="M75,28.13a.72.72,0,0,0,1.19.45.76.76,0,0,0-.52-1.21A.79.79,0,0,0,75,28.13Z"/><path class="cls-2" d="M77.54,22.51A1,1,0,0,0,77,22a1.57,1.57,0,0,0-2,.9c-.08.17-.15.34-.23.52-.33-.16-.63-.33-.94-.45a.83.83,0,0,0-1.21.46,1.3,1.3,0,0,0,.13,1.49,1,1,0,0,0,.93.38.74.74,0,0,0,.34.52c.52.21,1-.34,1-.64a.52.52,0,0,0-.16-.37,1.64,1.64,0,0,1,.22-.14c.16.07.33.16.5.22a1.72,1.72,0,0,0,1.85-.45A2,2,0,0,0,77.54,22.51Z"/><path class="cls-2" d="M70.68,17.27a1.24,1.24,0,0,0-.73-.33,1.74,1.74,0,0,0-.14-.12c-1.34-.1-.94-1-1.87-1.36a1.39,1.39,0,0,0-.45-.06,1.09,1.09,0,0,0-.88,1.77,7.33,7.33,0,0,0,1.22,1.33,1.3,1.3,0,0,0,.89.23.88.88,0,0,0,.14.23q.66.7,1.56-.15A1.33,1.33,0,0,0,70.68,17.27Z"/><path class="cls-2" d="M52.41,20a1.46,1.46,0,0,0,1.55-.2,1.13,1.13,0,0,0,.1-1.36,1.59,1.59,0,0,0,.84-1.85,1.64,1.64,0,0,0-1.34-1.13,1.23,1.23,0,0,0,.37-1c0-1.15-.68-1.82-1.4-1.84a1.91,1.91,0,0,0-1.44.92.8.8,0,0,0-1-.38.91.91,0,0,0-.46,1.12.86.86,0,0,0,1.07.56l.15-.07a1.58,1.58,0,0,0,1.3,1.06h.12a1.45,1.45,0,0,0-.22,1.63,1.88,1.88,0,0,0,.36.64.78.78,0,0,0-.53.32A1.13,1.13,0,0,0,52.41,20Z"/><path class="cls-2" d="M50.84,18.61A.92.92,0,0,0,49.68,18a.86.86,0,0,0-.39,1.15.81.81,0,0,0,1,.51A.77.77,0,0,0,50.84,18.61Z"/><path class="cls-2" d="M49.71,32.79a.44.44,0,0,0-.21.44c0,.15.36.2.54.19s.4-.26.33-.49S49.87,32.75,49.71,32.79Z"/><path class="cls-2" d="M24.9,24.12c-.22.1-.73.47-.53.94s.76.26.94.16a.82.82,0,0,0,.35-.68A.54.54,0,0,0,24.9,24.12Z"/><path class="cls-2" d="M77.5,10a1.56,1.56,0,0,0,.12-2.15,2.49,2.49,0,0,0-2.58,0A1.59,1.59,0,0,0,75.21,10,1.85,1.85,0,0,0,77.5,10Z"/><path class="cls-2" d="M79.9,23.79c0,.43.3.54,1.2.44a.76.76,0,0,0-.52-1.2A.78.78,0,0,0,79.9,23.79Z"/><path class="cls-2" d="M100.62,52a.64.64,0,0,0,.26-.49c0-.13-.42-.43-.55-.37s-.17.5-.13.68S100.56,52,100.62,52Z"/><path class="cls-2" d="M101.53,49.61v0c0,.07.17.17.28.12a.27.27,0,0,0,.13-.34.25.25,0,0,0-.24-.11,5.51,5.51,0,0,1,0-.61c.29-.74-.16-1.74-.81-1.82a1.26,1.26,0,0,0-1.31.7,1,1,0,0,0,.27,1.32c.33.28.84,1,1.43.81A.62.62,0,0,0,101.53,49.61Z"/><path class="cls-2" d="M95.3,23a1.47,1.47,0,0,0,1.82-.42c.42-.48.32-1-.22-1.53a2,2,0,0,0,0-.42c-.16-.65-.7-.9-1.53-.68a1.18,1.18,0,0,0-.77,1.21,1.59,1.59,0,0,0,.52.71A1.56,1.56,0,0,0,95.3,23Z"/><path class="cls-2" d="M99.57,57.75a.83.83,0,0,0,1.11.47.88.88,0,0,0,.46-1,.84.84,0,0,0-1.14-.42A.67.67,0,0,0,99.57,57.75Z"/><path class="cls-2" d="M86.86,22.53a.67.67,0,0,0,0-.24c-.09-.26-.51-.85-.74-.79,0,0,0,0,0,0a.72.72,0,0,1-.23-.28c-.19-.43-.5-.46-1-.38s-1.24.25-1.1.94.62.68.82.61.59.15.4.29-.23.44.11.93a.88.88,0,0,0,1.27.36A1.26,1.26,0,0,0,86.86,22.53Z"/><path class="cls-2" d="M86.18,33.92c-.1,0-.44.2-.4.43s.46.26.63.24a.45.45,0,0,0,.28-.4C86.66,34,86.36,33.93,86.18,33.92Z"/><path class="cls-2" d="M84.2,15.36a1.84,1.84,0,0,0,0-1.18,1.75,1.75,0,0,0-.92-1c-.1-.23-.33-.52-.51-.51a.24.24,0,0,0-.14.06,1.39,1.39,0,0,0-.93-.53,2.56,2.56,0,0,0-2.57,1.73,2.07,2.07,0,0,0,.21,2c.43.58,1.3.27,2,.66C82.87,17.51,83.77,16.49,84.2,15.36Z"/><path class="cls-2" d="M81.64,26.93c-.1.14-.28.34-.09.55a.31.31,0,0,0,.47,0c.11-.13.37-.46.2-.65S81.69,26.84,81.64,26.93Z"/><path class="cls-2" d="M89.84,29.11c.15,0,.56-.26.52-.46s-.48-.35-.63-.31l-.13.06a.52.52,0,0,0-.7-.15c-.5.31-1.15.5-1.39,1.19l.32.78c-.4.69-.46,1.45-.09,1.73a.8.8,0,0,0,1,0c.58-.42.64-.72.33-1.52.21-.49.43-.91.58-1.36A.54.54,0,0,0,89.84,29.11Z"/><path class="cls-2" d="M69.69,21.74a.25.25,0,0,0-.15.32.28.28,0,0,0,.33.12c.08,0,.12-.24.09-.31A.26.26,0,0,0,69.69,21.74Z"/><path class="cls-2" d="M32.13,21c.3.15,1.17-1.06,1.07-1.42s-1-.36-1.42.1S31.83,20.88,32.13,21Z"/><path class="cls-2" d="M40.11,34.31A2.38,2.38,0,0,0,41.18,32a1.63,1.63,0,0,0-2.09-.82,1.84,1.84,0,0,0-1,2.06A1.65,1.65,0,0,0,40.11,34.31Z"/><path class="cls-2" d="M38.17,23.32c.26.42.42,1,1.11.83a.81.81,0,0,0,.67-.91,1.1,1.1,0,0,0-.46-.67C39,22.33,38.71,22.54,38.17,23.32Z"/><path class="cls-2" d="M33.61,14.38c-.17-.36-.43-.58-.8-.48a4.87,4.87,0,0,0-2.5,1.37,1.5,1.5,0,0,0-.2.41c-.2,1,.48,1.65,1.41,1.39a7.11,7.11,0,0,0,1.64-.74A1.7,1.7,0,0,0,33.61,14.38Z"/><path class="cls-2" d="M38.59,18.38A.89.89,0,0,0,38,19.45a1,1,0,0,0,1.16.64.91.91,0,0,0-.58-1.71Z"/><path class="cls-2" d="M27.11,20.44a.85.85,0,0,0,.79.78c.52,0,.88-1.15.6-1.41S27.09,19.93,27.11,20.44Z"/><path class="cls-2" d="M28.88,17.52c-.08.19.18.44.33.5s.56,0,.63-.27-.3-.48-.44-.5A.6.6,0,0,0,28.88,17.52Z"/><path class="cls-2" d="M34.07,27.18a1.45,1.45,0,0,0,.76-1.8,1.55,1.55,0,0,0-2.08-1A1.26,1.26,0,0,0,31.89,26,2,2,0,0,0,34.07,27.18Z"/><path class="cls-2" d="M32.66,31.36c.18-.18-.09-.73-.23-.82a.69.69,0,0,0-.64.16.67.67,0,0,0,.09.65A.75.75,0,0,0,32.66,31.36Z"/><path class="cls-2" d="M42.15,21a1.17,1.17,0,0,0-.68,1.56c.16.52.79.72,1.52.49.57-.19.84-.64.66-1.11S42.55,20.84,42.15,21Z"/><path class="cls-2" d="M53.81,31.51c.18-.48.18-.3.7-.39s1.17-.53.73-1.35A1.73,1.73,0,0,0,53,29.21a2,2,0,0,0-.59,2.68C52.84,32.45,53.64,32,53.81,31.51Z"/><path class="cls-2" d="M56.69,5.63A.59.59,0,0,0,56.6,5c-.15-.11-.46-.32-.59-.15a.57.57,0,0,0,0,.59C56.1,5.6,56.56,5.8,56.69,5.63Z"/><path class="cls-2" d="M46.69,6.74l.17-.09a1.71,1.71,0,0,0-.07,1.47,1.51,1.51,0,0,0,.3.47,2.25,2.25,0,0,0-1.85,1.06A1.63,1.63,0,0,0,46,11.51c.45.29.88.47.87,1.15,0,.49.48.6,1,.56.41-.51.37-1-.08-1.28a8.74,8.74,0,0,0,.66-1.46A2,2,0,0,0,47.79,9a1.79,1.79,0,0,0,1.09-.2c1.09-.53,1.29-1,.95-1.95a1.51,1.51,0,0,0-.9-.9q-1.38.36-2.73.78A.65.65,0,0,0,46.69,6.74Z"/><path class="cls-2" d="M54.71,23.11a1.75,1.75,0,0,0-1.78.24c-.32.36-.69.71-.31,1.28.27.41.48.86.73,1.29a.72.72,0,0,0,.93.69A1,1,0,0,0,55,25.49a2.28,2.28,0,0,1,0-.94A1.25,1.25,0,0,0,54.71,23.11Z"/><path class="cls-2" d="M56.44,15.55A.89.89,0,0,0,57,14.46a.94.94,0,0,0-1.12-.53.74.74,0,0,0-.5,1A.83.83,0,0,0,56.44,15.55Z"/><path class="cls-2" d="M44,16.8a.85.85,0,0,0-1.15-.4h0a1.59,1.59,0,0,0-.27-.8,1.64,1.64,0,0,1-.37-1.13A1.76,1.76,0,0,0,41.33,13a1.52,1.52,0,0,0-1.7,0L39.5,13a1.45,1.45,0,0,0,0-1.08c-.2-.49-.83-.65-1.55-.38-.55.2-1,.88-.83,1.29a1.59,1.59,0,0,0,1.66.9.57.57,0,0,0,.23-.12,1.47,1.47,0,0,0,0,.73A2.76,2.76,0,0,0,40,16a1.19,1.19,0,0,1,.37.59,1.1,1.1,0,0,0,1.61.91.61.61,0,0,0,.05.33,1,1,0,0,0,1.22.28A1,1,0,0,0,44,16.8Z"/><path class="cls-2" d="M48.26,26.76a2.47,2.47,0,0,0,.48-.65.85.85,0,0,0-1.14-.46c-.36.18-.31.47-.21.76S48,27,48.26,26.76Z"/><path class="cls-2" d="M47.55,22.93a2.47,2.47,0,0,0,.48-.65.85.85,0,0,0-1.14-.46c-.36.18-.31.47-.21.76S47.24,23.18,47.55,22.93Z"/><path class="cls-2" d="M48,17.41a1.76,1.76,0,0,0,.71-1.95,1,1,0,0,0-1.38-.53,1.07,1.07,0,0,0-.69,1.6C46.84,17.19,47.49,17.61,48,17.41Z"/><path class="cls-2" d="M107.46,27a1.28,1.28,0,0,0,1-1.34,1.09,1.09,0,0,0-1-.89c-.87.11-1.48.63-1.39,1.2A1.43,1.43,0,0,0,107.46,27Z"/><path class="cls-2" d="M104.19,50.41a1.39,1.39,0,0,0,.52-1.39.87.87,0,0,0-1.18-.31.82.82,0,0,0-.3,1.17C103.47,50.39,103.86,50.6,104.19,50.41Z"/><path class="cls-2" d="M103.3,43.79a.84.84,0,0,0,.93.65.94.94,0,0,0,.77-1,.92.92,0,0,0-.92-.66A1.06,1.06,0,0,0,103.3,43.79Z"/><path class="cls-2" d="M103.79,33.44a1.63,1.63,0,0,0,1.49-1.55,1.74,1.74,0,0,0-.14-.4c.15.11.33.21.47.31a.34.34,0,0,0,.51-.06,1,1,0,0,0-.26-1.29.77.77,0,0,0-1.1.54,1.82,1.82,0,0,0-1.44-.65,1.64,1.64,0,0,0-1.23,1.78A1.6,1.6,0,0,0,103.79,33.44Z"/><path class="cls-2" d="M104.05,70.94a.51.51,0,0,0,.29-.81c-.15-.24-.7-.71-.91-.61s-.3.79-.28,1.08S103.61,71.1,104.05,70.94Z"/><path class="cls-2" d="M105.48,36.08c.24-.13.85-.5.77-.82s-.85-.35-1.09-.29-.32.47-.31.71A.43.43,0,0,0,105.48,36.08Z"/><path class="cls-2" d="M104.85,52.15a.9.9,0,0,0,.36-.35.37.37,0,0,0,.18,0,.89.89,0,0,0,.69-.92.76.76,0,0,0-.87-.68.86.86,0,0,0-.67.91.76.76,0,0,0,.11.33c-.16.1-.45.3-.35.48A.58.58,0,0,0,104.85,52.15Z"/><path class="cls-2" d="M107.7,62.16a.65.65,0,0,0,.26-.49c0-.13-.22-.47-.55-.38s-.17.51-.13.68S107.64,62.21,107.7,62.16Z"/><path class="cls-2" d="M94.29,42.42a.88.88,0,0,0-.3-1.1.66.66,0,0,0-.91,0c-.52.41-.39.9-.16,1.47C93.49,42.81,94,43,94.29,42.42Z"/><path class="cls-2" d="M106.24,58.1a.92.92,0,0,0,.46-1c-.13-.28-.67-.34-1.11-.13a.48.48,0,0,0-.25.73C105.53,58,105.8,58.27,106.24,58.1Z"/><path class="cls-2" d="M99.3,31.22a.85.85,0,0,0,.82-.72.75.75,0,0,0,.63-.24.62.62,0,0,0,0-.9.65.65,0,0,0-1-.12.71.71,0,0,0-.18.27,1.34,1.34,0,0,0-.84-.29A1,1,0,0,0,98,30.28,1.23,1.23,0,0,0,99.3,31.22Z"/><path class="cls-2" d="M96,28.38a.24.24,0,0,0,.2-.3.27.27,0,0,0-.31-.16c-.08,0-.15.22-.13.29S95.9,28.41,96,28.38Z"/><path class="cls-2" d="M95,17.83a1.49,1.49,0,0,0,.28,1.57,1,1,0,0,0,1.24-.11c.56-.67.66-1.35.24-1.71A1.49,1.49,0,0,0,95,17.83Z"/><path class="cls-2" d="M96.13,15.71a1.33,1.33,0,0,0,1.11-1.12,1.21,1.21,0,0,0,.37.54.63.63,0,0,0,.93-.28h0c-1.09-.76-2.2-1.51-3.34-2.2a1.78,1.78,0,0,0-1,1.8A1.86,1.86,0,0,0,96.13,15.71Z"/><path class="cls-2" d="M97.63,36.1a1.36,1.36,0,0,0,.93-1.68,1.42,1.42,0,0,0-1.65-.87,1.33,1.33,0,0,0,.72,2.55Z"/><path class="cls-2" d="M102.48,39.54c-.13-.28-.58-.94-.88-.86s-.44.83-.46,1.15.5.58.88.46S102.65,39.9,102.48,39.54Z"/><path class="cls-2" d="M102.68,37.34c-.05-.24-.84-.87-1.24-.7s-.26,1.21-.1,1.54a1,1,0,0,0,1,.4C102.78,38.41,102.77,37.71,102.68,37.34Z"/><path class="cls-2" d="M108.87,35.87a1.24,1.24,0,0,0,.73-1.45c-.17-.83-.55-1.17-1.17-1.06a1.48,1.48,0,0,0-.85.57.87.87,0,0,0,0-.22.86.86,0,1,0-1.6.63,1,1,0,0,0,1.19.39,1.77,1.77,0,0,0,.17-.12.79.79,0,0,0,0,.22A1.57,1.57,0,0,0,108.87,35.87Z"/><path class="cls-2" d="M97.75,42.83c.07,0,.34-.24.32-.32S98,42,97.67,42s-.36.4-.33.48A.78.78,0,0,0,97.75,42.83Z"/><path class="cls-2" d="M98.62,62.92c.22-.09.32-.69.24-.81s-.46-.48-.65-.43-.37.49-.33.69S98.4,63,98.62,62.92Z"/><path class="cls-2" d="M107.25,40.52c-.13-.35-1-.53-1.21-.32a1,1,0,0,0,0,.89.52.52,0,0,0,.8.33C107.13,41.22,107.42,41,107.25,40.52Z"/><path class="cls-2" d="M123.87,69.32h0l.06-.67A.79.79,0,0,0,123.87,69.32Z"/><path class="cls-2" d="M121.49,71.79c0,.57,0,1.16.72,1.22a.89.89,0,0,0,1-.58.64.64,0,0,0,0-.53,10.73,10.73,0,0,0-1-.86c0-1.06-.39-1.79-1-1.81a1.77,1.77,0,0,0-1.45,1.5C119.68,71.46,120,71.68,121.49,71.79Z"/><path class="cls-2" d="M120.38,67a1.83,1.83,0,0,0,.47-1.62c-.17-.45-.63-.54-1.25-.25s-.9.71-.67,1.2C119.24,67,119.86,67.32,120.38,67Z"/><path class="cls-2" d="M119.16,74.89a1.41,1.41,0,0,0-1.6-.77,1,1,0,0,0-.55,1.21,1.23,1.23,0,0,0,1.53.61A.85.85,0,0,0,119.16,74.89Z"/><path class="cls-2" d="M81.63,10.26a1.55,1.55,0,0,0,1.74-1,1.61,1.61,0,0,0-.67-1.38,1.83,1.83,0,0,0,0-.4.51.51,0,0,0-.76-.39c-.27.13-.51.3-.54.58a1.49,1.49,0,0,0-1,1C80.09,9.24,80.81,10,81.63,10.26Z"/><path class="cls-2" d="M119.43,86.78c-.28.06-.25.47-.2.54a.5.5,0,0,0,.13.12c.09-.22.17-.43.26-.64A.3.3,0,0,0,119.43,86.78Z"/><path class="cls-2" d="M122.25,74.15a1.65,1.65,0,0,0-.79,2,1.69,1.69,0,0,0,1.2,1c.22-1,.41-2,.58-2.93A1.37,1.37,0,0,0,122.25,74.15Z"/><path class="cls-2" d="M107,81.74c-.06-.15-.38-.18-.55-.15s-.39.29-.3.52.51.14.67.08A.42.42,0,0,0,107,81.74Z"/><path class="cls-2" d="M118,81.07a1.35,1.35,0,0,0,.52-1.85,1.43,1.43,0,0,0-1.81-.47A1.33,1.33,0,0,0,118,81.07Z"/><path class="cls-2" d="M114.93,71.21a1,1,0,0,0,.43-1.15,1,1,0,0,0-1.26-.4.79.79,0,0,0-.36,1A.86.86,0,0,0,114.93,71.21Z"/><path class="cls-2" d="M116.25,88a.88.88,0,0,0-.55-1,.65.65,0,0,0-.89.18c-.41.52-.17,1,.18,1.47C115.56,88.55,116.13,88.63,116.25,88Z"/><path class="cls-2" d="M110.24,56.3a.69.69,0,0,0,.45-1,.76.76,0,0,0-.93-.42c-.35.09-.63,1-.37,1.21A1,1,0,0,0,110.24,56.3Z"/><path class="cls-2" d="M111.87,61.58c.79-.3,1-1.22.64-2.21a1.41,1.41,0,0,0-1.92-.78,1.76,1.76,0,0,0-.86,2.19A1.85,1.85,0,0,0,111.87,61.58Z"/><path class="cls-2" d="M110,48.6a1.29,1.29,0,0,0,.77.07,1.2,1.2,0,0,0,.8-1.41c-.13-.61-.47-.88-1-.79a1.77,1.77,0,0,0-.42.15.91.91,0,0,0-.77,0,1.56,1.56,0,0,0-.72,1.65C108.82,48.55,109.45,48.7,110,48.6Z"/><path class="cls-2" d="M109.85,52c-.22.19-.47.41-.43.68s.81.59,1.17.38.27-.49.15-.77S110.14,51.7,109.85,52Z"/><path class="cls-2" d="M108.85,76.07c.14,0,.48-.38.39-.58s-.55-.22-.68-.15a.48.48,0,0,0-.25.52A.5.5,0,0,0,108.85,76.07Z"/><path class="cls-2" d="M111.66,72.14c.31-.2.55-.5.3-.82s-.77-.75-1.07-.62-.16,1-.06,1.24S111.29,72.39,111.66,72.14Z"/><path class="cls-2" d="M114.68,73.94a.25.25,0,0,0,.13-.34.28.28,0,0,0-.34-.09c-.07,0-.1.25-.06.31A.26.26,0,0,0,114.68,73.94Z"/><path class="cls-2" d="M113.43,68.08a1.47,1.47,0,0,0,.3-1.84c-.31-.61-.89-.72-1.64-.32a1.18,1.18,0,0,0-.48,1.36C111.85,67.77,113.05,68.29,113.43,68.08Z"/><path class="cls-2" d="M65.27,29.18c.31-.09.24-1,.14-1.05-.29-.23-.62-.61-1-.49s-.3.63-.2.77S65,29.28,65.27,29.18Z"/><path class="cls-2" d="M115.83,67.13a.87.87,0,0,0,.16-.79c-.08-.18-.66-.51-.87-.4s-.26.84-.16.93S115.66,67.29,115.83,67.13Z"/><path class="cls-2" d="M118.11,60.64a1.6,1.6,0,0,0-.63-1.83c-.51-.34-1.38.19-1.88.9a1.54,1.54,0,0,0,.54,1.93A1.61,1.61,0,0,0,118.11,60.64Z"/><path class="cls-2" d="M114.51,58.9a.93.93,0,0,0,.59-.55c.11-.59-.39-.71-.82-.85-.45.3-.7.66-.41,1.14A.7.7,0,0,0,114.51,58.9Z"/><path class="cls-2" d="M114.7,49a1.27,1.27,0,0,0-.3-1c-.5-.44-.86.06-1.31.37.15.64.35,1.14,1,1.11C114.32,49.46,114.69,49.17,114.7,49Z"/><path class="cls-2" d="M118.44,55.36a14.48,14.48,0,0,0-1.37-1.22.76.76,0,0,0-1.11.19.8.8,0,0,0,.1,1.12,2.51,2.51,0,0,1,.46.61,1.25,1.25,0,0,0,1.46.75C118.61,56.68,118.84,56.22,118.44,55.36Z"/><path class="cls-2" d="M122.61,51.28a1.46,1.46,0,0,1-1.34.85,1.36,1.36,0,0,0-.88,1.3,1.8,1.8,0,0,0,1.52,1c.4,0,1-.06,1-.57a1.53,1.53,0,0,1,.23-.69c-.13-.68-.26-1.35-.4-2A.3.3,0,0,0,122.61,51.28Z"/><path class="cls-2" d="M119.2,53.65a.68.68,0,0,0,.24-.21h.1c.25-.1.58-.49.55-.7s-.19-.32-.34-.45a.6.6,0,0,0-.08-.2,1.57,1.57,0,0,0-1.65-.37.8.8,0,0,0-.31,1.16C118.13,53.69,118.6,53.94,119.2,53.65Z"/><path class="cls-2" d="M112.57,56.64a1.31,1.31,0,0,0,.91-.49.4.4,0,0,0-.17-.61.91.91,0,0,0-.72.15c-.22.12-.47.18-.58.43S112.2,56.66,112.57,56.64Z"/><path class="cls-2" d="M118.27,64.53a.89.89,0,0,0-.54-1,.67.67,0,0,0-.9.19c-.4.52-.16,1,.19,1.47C117.58,65.09,118.15,65.17,118.27,64.53Z"/><path class="cls-2" d="M112.54,53.07a.54.54,0,0,0-.28.6.46.46,0,0,0,.51.37.5.5,0,1,0-.23-1Z"/><path class="cls-2" d="M99.74,24a1.78,1.78,0,0,1,1.12-.39c.19,0,.43-.44.44-.68a1,1,0,0,0-.4-.73.82.82,0,0,0-.71.12,7.45,7.45,0,0,0-1,.9c-.26.27-.19.54.12.81C99.46,24,99.66,24.09,99.74,24Z"/><path class="cls-2" d="M105.42,20.47c-.85-.81-1.72-1.59-2.62-2.35a.68.68,0,0,0,0,.14c-.06.83.42,1.67,1.13,1.49a2,2,0,0,0,.27.34A1.46,1.46,0,0,0,105.42,20.47Z"/><path class="cls-2" d="M101.35,16.94c-.49-.39-1-.79-1.49-1.16a1.33,1.33,0,0,0,.41,1A1.51,1.51,0,0,0,101.35,16.94Z"/><path class="cls-2" d="M88,9h.07l-.72-.32A.79.79,0,0,0,88,9Z"/><path class="cls-2" d="M123.63,56.42l-.12.11,0,0,.21.47C123.68,56.78,123.66,56.6,123.63,56.42Z"/><path class="cls-2" d="M111.41,29.17a2.06,2.06,0,0,0,.76,2.17,2,2,0,0,0,2.13-.26,60.92,60.92,0,0,0-3.82-5.2l-.29.11a1.17,1.17,0,0,0-.48,1.89A9.64,9.64,0,0,0,111.41,29.17Z"/><path class="cls-2" d="M111.52,36.27a.87.87,0,0,0,.51-1.11.67.67,0,0,0-1-.46.82.82,0,1,0,.46,1.57Z"/><path class="cls-2" d="M108.51,29.93c.22,0,.5-.32.6-.55a.73.73,0,0,0-.18-.66c-.44-.33-.84-.14-1.2.29C107.84,29.45,107.92,30,108.51,29.93Z"/><path class="cls-2" d="M110.07,25.4c-.86-1-1.75-2-2.67-3a3,3,0,0,0-.08.32,2.68,2.68,0,0,0,.26,1.16,2.31,2.31,0,0,0,.47.62,7.43,7.43,0,0,0,.59.53A1.28,1.28,0,0,0,110.07,25.4Z"/><path class="cls-2" d="M45.25,28.46c.14-.06.35-.3.29-.5a.5.5,0,0,0-.52-.25c-.15,0-.51.35-.44.55S45.11,28.52,45.25,28.46Z"/><path class="cls-2" d="M64.2,16.59c.33-.33-.06-1.34-.43-1.33s-.9.88-.59,1.23A.81.81,0,0,0,64.2,16.59Z"/><path class="cls-2" d="M66.37,24.72a1.66,1.66,0,0,0,.8-1.93,1.2,1.2,0,0,0-1.57-.45A1.12,1.12,0,0,0,65,23.93C65.24,24.61,65.86,25,66.37,24.72Z"/><path class="cls-2" d="M62,22.82a.81.81,0,0,0,.57-1.05.84.84,0,0,0-1.07-.55,1,1,0,0,0-.59,1.09A.84.84,0,0,0,62,22.82Z"/><path class="cls-2" d="M63.37,9.91A.8.8,0,0,0,62.82,9c-.67-.23-.91.3-1.16.77l-.88-.22c0-.08,0-.16,0-.24a1.84,1.84,0,0,0,.38-.26c.54-.45,1.09-.87,1.63-1.3.87.93,1,.93,1.64,0a1.21,1.21,0,0,0,.77,0,.76.76,0,0,0,.45-1A1.15,1.15,0,0,0,64.38,6a.94.94,0,0,0-.66,1.13,1.23,1.23,0,0,0-.52.07c-.82-1.37-1.74-1.27-2.58.2a1.82,1.82,0,0,1-.33,0,.65.65,0,0,0-.75.27,1.47,1.47,0,0,0-.85.28,1.26,1.26,0,0,0,.23,1.55c.14.18.3.33.45.5a3,3,0,0,0-.26,1.57,3.9,3.9,0,0,0-.35.19,1.56,1.56,0,0,0-.25,2,1.6,1.6,0,0,0,2.2-.16,1.71,1.71,0,0,0,.39-1.23l.22-.06c.87-.27,1-.95.92-1.73C62.72,10.5,63.31,10.63,63.37,9.91Z"/><path class="cls-2" d="M66,22.06c.4-.34.29-1.14-.23-1.72a1,1,0,0,0-1.25,0,1.21,1.21,0,0,0-.19,1.53A1.4,1.4,0,0,0,66,22.06Z"/><path class="cls-2" d="M91.77,24.3a.82.82,0,0,0,.28-.7,1.33,1.33,0,0,0-.09-.81,1.76,1.76,0,0,0-1.28-.89,1.32,1.32,0,0,0-1.26.62,1.14,1.14,0,0,0,0,1.16,1.38,1.38,0,0,0,1,.74C91,24.4,91.49,24.59,91.77,24.3Z"/><path class="cls-2" d="M88,11.39a1.68,1.68,0,0,0-1-.81.93.93,0,0,0-.91-.32c-.25.08-.35.39-.38.7a1.61,1.61,0,0,0-.49,2.09,2,2,0,0,0,2.4.34A1.52,1.52,0,0,0,88,11.39Z"/><path class="cls-2" d="M78.23,18.25c.59.22,1-.16,1.26-.69-.17-.47-.38-.94-1-.91a.76.76,0,0,0-.75.83A1,1,0,0,0,78.23,18.25Z"/><path class="cls-2" d="M77.77,12.45a.84.84,0,0,0-1-.56A.86.86,0,0,0,76.21,13a.67.67,0,0,0,.93.54A.83.83,0,0,0,77.77,12.45Z"/><path class="cls-2" d="M60.06,30c.21-.06.2-.49.18-.67s-.25-.28-.4-.21a.6.6,0,0,0-.31.47C59.55,29.75,59.85,30.1,60.06,30Z"/><path class="cls-2" d="M59.73,5.69a1.79,1.79,0,0,0,2.41-.42A1.94,1.94,0,0,0,62.49,4c-1.14,0-2.28.09-3.4.18A1.9,1.9,0,0,0,59.73,5.69Z"/><path class="cls-2" d="M41.86,9C42.6,8.75,43,8.29,43,7.81c-.69.26-1.38.53-2.06.81A.7.7,0,0,0,41.86,9Z"/><path class="cls-2" d="M92.63,33.53c.41-.37.48-1.15.12-1.39s-1.61.42-1.64.92S92.22,33.9,92.63,33.53Z"/><path class="cls-2" d="M43,10.71a1,1,0,0,0,.51-1.19,1,1,0,0,0-1.24-.44.88.88,0,0,0-.48,1.11A1,1,0,0,0,43,10.71Z"/><path class="cls-2" d="M58.52,24.61a.57.57,0,0,0,.53-.71c-.09-.4-.59-.78-.9-.58s-.82.62-.65,1S58.26,24.64,58.52,24.61Z"/><path class="cls-2" d="M36.67,18.56a1,1,0,0,0,.86-.29,1,1,0,0,0-.46-1.47.88.88,0,0,0-1.07,1A1.16,1.16,0,0,0,36.67,18.56Z"/><path class="cls-2" d="M58.35,9.17c.19-.19.15-.62.18-.84-.46-.44-.79-.32-1-.08s-.39.65,0,.88A1,1,0,0,0,58.35,9.17Z"/><path class="cls-2" d="M59.65,19.71a.85.85,0,0,0-1.17-.52,1,1,0,0,0-.39,1.27.93.93,0,0,0,1.16.39A.84.84,0,0,0,59.65,19.71Z"/><path class="cls-2" d="M60.71,15.81a.54.54,0,0,0,.12.09,1,1,0,0,0,.82.09c.59-.32.51-.85.22-1.48a2.9,2.9,0,0,0-.88,0l-.11,0a.69.69,0,0,0-.6.27,1.08,1.08,0,0,0,.08.89A.5.5,0,0,0,60.71,15.81Z"/><circle class="cls-3" cx="64.46" cy="64.88" r="41.11"/><path class="cls-4" d="M103.28,78.4H88.53a84.79,84.79,0,0,0,1.06-13.52,85.13,85.13,0,0,0-.92-12.62h14.92c-.42-1.29-.89-2.54-1.42-3.77H88c-1.86-9.25-5.26-17-9.66-22.31a41.39,41.39,0,0,0-8-2c6.12,3.65,11.19,12.74,13.71,24.29H66.34V23.82c-.62,0-1.24-.05-1.87-.05h0c-.63,0-1.25,0-1.87.05V48.49H44.82c2.52-11.55,7.59-20.64,13.71-24.29a41.21,41.21,0,0,0-8,2c-4.41,5.29-7.81,13.06-9.66,22.31H26.76c-.53,1.23-1,2.48-1.42,3.77H40.25a86.5,86.5,0,0,0-.92,12.62A84.79,84.79,0,0,0,40.39,78.4H25.64c.45,1.29,1,2.54,1.53,3.77H41.1C43,91,46.32,98.46,50.58,103.57a40.47,40.47,0,0,0,7.94,2C52.57,102,47.61,93.29,45,82.17H62.58v23.77c.62,0,1.25,0,1.88,0s1.26,0,1.88,0V82.17H83.9C81.31,93.29,76.35,102,70.4,105.55a40.39,40.39,0,0,0,7.95-2c4.26-5.11,7.58-12.54,9.48-21.4h13.93C102.32,80.94,102.83,79.69,103.28,78.4Zm-40.7,0H44.26a79,79,0,0,1-.16-26.14H62.58Zm22.08,0H66.34V52.26H84.82a78.87,78.87,0,0,1,1,12.62A78.39,78.39,0,0,1,84.66,78.4Z"/><path class="cls-5" d="M35.72,76.89c-.09-.33-.4-.52-.67-.34a2.07,2.07,0,0,0-.42.49.68.68,0,0,0,.88.44C35.81,77.36,35.79,77.13,35.72,76.89Z"/><path class="cls-5" d="M37.31,76.49a1.17,1.17,0,0,0-.63.17,1.56,1.56,0,0,0-.52.84.66.66,0,0,0-.5.8.53.53,0,0,0,.06.1h1.15a11.92,11.92,0,0,1,1.26-1c0-.31,0-.63-.23-.79A.69.69,0,0,0,37.31,76.49Z"/><path class="cls-5" d="M37.68,74.91a1.31,1.31,0,0,0,1.56.8.56.56,0,0,0,.16.18,1.15,1.15,0,0,0,.65.12c-.1-.8-.19-1.62-.28-2.44a7.09,7.09,0,0,1-.7-1,.69.69,0,0,0,.07.56.86.86,0,0,0-.45,0A1.94,1.94,0,0,0,37.68,74.91Z"/><path class="cls-5" d="M37,68.93c.34.25.95,0,1.29-.48,0-.16,0-.32.07-.48a.63.63,0,0,0-.13-.2.74.74,0,0,0,.23-.87.8.8,0,0,0-.94-.31.62.62,0,0,0-.34.82l.06.08a.61.61,0,0,0-.34.2A1.07,1.07,0,0,0,37,68.93Z"/><path class="cls-5" d="M39.74,76.48l.36-.17v-.07A.69.69,0,0,0,39.74,76.48Z"/><path class="cls-5" d="M57,87.34h-.21a.22.22,0,0,0,0,.08c.6.9-.15,1.08.06,1.86a1.3,1.3,0,0,0,.19.31.87.87,0,0,0,1.55-.32,5.78,5.78,0,0,0,.24-1.43,1.37,1.37,0,0,0-1.1-1.16,1,1,0,0,0-.75.21C57,87,57,87.19,57,87.34Z"/><path class="cls-5" d="M34.72,70.9c-.53-.2-.94-.17-1.06.08a1.14,1.14,0,0,0,.43,1.1c.25.12.82-.16,1-.47A.51.51,0,0,0,34.72,70.9Z"/><path class="cls-5" d="M34.35,76.8c.15,0,.34-.17.37-.32s-.1-.39-.28-.4a.35.35,0,0,0-.37.25A.52.52,0,0,0,34.35,76.8Z"/><path class="cls-5" d="M38.24,69.65c0-.11,0-.21,0-.32a.39.39,0,0,0,0,.2A.88.88,0,0,0,38.24,69.65Z"/><path class="cls-5" d="M54.79,88.6a.7.7,0,0,0,.58-.23c.1-.14.19-.62,0-.76s-.62.11-.76.23A.49.49,0,0,0,54.79,88.6Z"/><path class="cls-5" d="M55.56,93.76a1.09,1.09,0,0,0-.33-1.3.61.61,0,0,0-.86.22.94.94,0,0,0,.14,1.23A.76.76,0,0,0,55.56,93.76Z"/><path class="cls-5" d="M39.34,64.15c0-.35,0-.69,0-1a.39.39,0,0,0-.44,0c-.27.15-.5.35-.37.72S39.08,64.18,39.34,64.15Z"/><path class="cls-5" d="M34.4,73.07a.58.58,0,0,0-.28.47.72.72,0,0,0,.34.53A.5.5,0,0,0,35,74h0a.75.75,0,0,0,.32.39,1.19,1.19,0,0,0,.48.88,1.19,1.19,0,0,0,1.2-.42.8.8,0,0,0-.24-1,1.54,1.54,0,0,0-.79-.25.39.39,0,0,0-.55-.11,1.14,1.14,0,0,0-.19.19.41.41,0,0,0,0-.17A.61.61,0,0,0,34.4,73.07Z"/><path class="cls-5" d="M55.81,92.52a.91.91,0,0,0,1.3-.39,1.1,1.1,0,0,0-.19-1.4,1.32,1.32,0,0,0-1.44.41A.91.91,0,0,0,55.81,92.52Z"/><path class="cls-5" d="M33.22,76.12c.06.12.21.1.27.08s.08-.2,0-.25-.14-.14-.22-.1A.2.2,0,0,0,33.22,76.12Z"/><path class="cls-5" d="M34,74c-.48-.36-.81-.28-1.2.27s-.34,1,0,1.2a1.58,1.58,0,0,0,1.5-.22A.89.89,0,0,0,34,74Z"/><path class="cls-5" d="M56,87.61a.48.48,0,0,0,.33-.27h-.77A.43.43,0,0,0,56,87.61Z"/><path class="cls-5" d="M54,87.47c.07,0,.11.15.21.13s.14-.15.14-.22,0,0,0,0h-.19Z"/><path class="cls-5" d="M38.33,87.57a.53.53,0,0,0,.45,0s0-.1,0-.18h-.58C38.26,87.44,38.29,87.56,38.33,87.57Z"/><path class="cls-5" d="M36.35,90.34a2.38,2.38,0,0,0,.65,0,.78.78,0,0,0,.2.52h0a1.48,1.48,0,0,0,1.59.88,1.07,1.07,0,0,0,.78-1.32,1.53,1.53,0,0,0-.94-1.08,1.12,1.12,0,0,0-.22-.26.8.8,0,0,0-1,.12s0-.07-.08-.09a.79.79,0,0,0-.51-.16.49.49,0,0,0-.48.23.61.61,0,0,0-.16.52s0,0,0,.08S36.3,90.16,36.35,90.34Z"/><path class="cls-5" d="M34.09,63.43a1,1,0,0,0,.06,1.2,1.4,1.4,0,0,0-.1,1.11.61.61,0,0,0,.17.19,1.66,1.66,0,0,0-.78.59.91.91,0,0,0,.26,1.34,1.09,1.09,0,0,0,1,.18.15.15,0,0,0,0,.07.55.55,0,0,0,.22.32.45.45,0,0,0-.22.1,1,1,0,0,0,.07,1.08.52.52,0,0,0,.78,0c.39-.41.52-.81.33-1a.56.56,0,0,0-.29-.14.62.62,0,0,0,.32-.79.66.66,0,0,0-.42-.38A1.16,1.16,0,0,0,35.18,66h0a.92.92,0,0,0,.51-1.27l-.06-.09a1.07,1.07,0,0,0,.31-.29,1,1,0,0,0-.36-1.19A1,1,0,0,0,34.09,63.43Z"/><path class="cls-5" d="M37.55,88.07a1.06,1.06,0,0,0,.52-.73H36.4s0,0,0,0A1.25,1.25,0,0,0,37.55,88.07Z"/><path class="cls-5" d="M52,87.34h-.8A.68.68,0,0,0,52,87.34Z"/><path class="cls-5" d="M51.2,92a1.28,1.28,0,0,0-.43-1.44,1.2,1.2,0,0,0-1.28.4.87.87,0,0,0,.18,1C50.29,92.37,51,92.36,51.2,92Z"/><path class="cls-5" d="M54,89.8a1,1,0,0,0-.55-.11.8.8,0,0,0,.08-.54,1.21,1.21,0,0,0-1.3-.76c-.38.09-.67.78-.55,1.3a.89.89,0,0,0,.69.69,1,1,0,0,0,.55,1c.42.25.87.07,1.2-.47A.75.75,0,0,0,54,89.8Z"/><path class="cls-5" d="M55.52,95.24c.09,0,.14-.22.2-.34a1.3,1.3,0,0,0-.42-.19c-.08,0-.33.21-.29.38S55.39,95.26,55.52,95.24Z"/><path class="cls-5" d="M49,89.51a1.34,1.34,0,0,0,1.61-.45A.83.83,0,0,0,50.16,88,1,1,0,0,0,49,89.51Z"/><path class="cls-5" d="M33.12,63.8a.87.87,0,0,0-1-.45c-.68.29-1,.85-.85,1.28a1.3,1.3,0,0,0,1.43.45A1.17,1.17,0,0,0,33.12,63.8Z"/><path class="cls-5" d="M33.71,82.17a.5.5,0,0,0,.12.52c.08-.17.15-.35.23-.52Z"/><path class="cls-5" d="M33.81,60.49a.74.74,0,0,0-.36,1,.63.63,0,0,0,.93.2c.27-.18.57-.37.43-.68C34.54,60.53,34.15,60.34,33.81,60.49Z"/><path class="cls-5" d="M33,68.68c-.47-.12-.69.21-.79.6a.73.73,0,0,0,.09.13.36.36,0,0,0-.21.08.68.68,0,0,0-.14.6c.06.16.41.51.62.44s.26-.56.24-.76l0,0a1,1,0,0,0,.56-.1C33.42,69.24,33.48,68.81,33,68.68Z"/><path class="cls-5" d="M30.06,69.22a.58.58,0,0,0,.11.87.71.71,0,0,0,1-.08.67.67,0,0,0-.21-.94A.6.6,0,0,0,30.06,69.22Z"/><path class="cls-5" d="M33,55.83a1.06,1.06,0,0,0-.44.85l-.29.27.06.28c.28,0,.68.37,1,.2a1,1,0,0,0,.64,0,.63.63,0,0,0,.25-.92C33.87,55.8,33.49,55.6,33,55.83Z"/><path class="cls-5" d="M30.17,64.81a.68.68,0,0,0-.21,1,.58.58,0,0,0,.45.32l-.06,0a1.5,1.5,0,0,0,.22,2,1.56,1.56,0,0,0,1.9-.31c.42-.52.2-1.32-.52-1.87a1.16,1.16,0,0,0-.89-.21.74.74,0,0,0,0-.63A.72.72,0,0,0,30.17,64.81Z"/><path class="cls-5" d="M36.33,70.39a.7.7,0,0,0-.4,1,.74.74,0,0,0,1,.33l.07-.05.36.25c.25.18.45.09.62-.19,0-.09,0-.26-.07-.31a1.38,1.38,0,0,1-.44-.84.71.71,0,0,0-.6-.26.43.43,0,0,0-.18.06A.83.83,0,0,0,36.33,70.39Z"/><path class="cls-5" d="M61.6,92.31a.45.45,0,0,0-.22.39c0,.11.25.17.46.29.07-.22.19-.39.15-.51A.4.4,0,0,0,61.6,92.31Z"/><path class="cls-5" d="M61.68,89.11a.45.45,0,0,0-.7,0c-.21.26-.2.77.08.86s.79.21,1-.09S61.84,89.26,61.68,89.11Z"/><path class="cls-5" d="M68.72,90.77c.14-.55-.54-.82-.93-.69s-.28,0-.59-.24a.81.81,0,0,0-.86-.2v1.8a1.9,1.9,0,0,0,.4.3A1.64,1.64,0,0,0,68.72,90.77Z"/><path class="cls-5" d="M67.93,93.34c-.14-.57-.75-1-1.19-.89a1.12,1.12,0,0,0-.4.25v1.46a1.38,1.38,0,0,0,.89.15A.82.82,0,0,0,67.93,93.34Z"/><path class="cls-5" d="M67,95.74c.18-.3.1-.65-.21-.73a1.13,1.13,0,0,0-.41,0V96l0,0C66.67,96.12,66.83,96,67,95.74Z"/><path class="cls-5" d="M59.31,95.55a1,1,0,0,0,1.23,0c-.13-.67-.34-1-.69-.9S59.27,95.11,59.31,95.55Z"/><path class="cls-5" d="M57.61,93.25a1.5,1.5,0,0,0-.22.7c0-.16-.41-.24-.52-.21s-.3.26-.27.39a.47.47,0,0,0,.4.23c.12,0,.39-.24.39-.4a1.17,1.17,0,0,0,.17.69,1,1,0,0,0-.78.24,1.7,1.7,0,0,0-.64,1c-.16-.15-.37-.28-.49-.23s-.27.58-.22.73a.68.68,0,0,0,.51.34.39.39,0,0,0,.32-.15.56.56,0,0,0,.05.08,1.57,1.57,0,0,0,1.29.46.62.62,0,0,0,.24.78.73.73,0,0,0,.94-.26.69.69,0,0,0-.19-1,.24.24,0,0,0-.11-.06,1.29,1.29,0,0,0,0-1.35l0-.07a1.17,1.17,0,0,0,1.13-.67,1.7,1.7,0,0,0,.23-.55.61.61,0,0,0,.46.18A.91.91,0,0,0,61,93.13a1.15,1.15,0,0,0-.89-.88.92.92,0,0,0-.91.61A1.29,1.29,0,0,0,57.61,93.25Z"/><path class="cls-5" d="M59.64,83.92a.22.22,0,0,0-.09-.26c-.06,0-.21,0-.24.09s0,.19,0,.24A.2.2,0,0,0,59.64,83.92Z"/><path class="cls-5" d="M60.24,87.41a1,1,0,0,0,1.13-1.67,1.35,1.35,0,0,0-1.62.45C59.52,86.53,59.78,87.17,60.24,87.41Z"/><path class="cls-5" d="M75.34,97a.52.52,0,0,0,.48-.62c0-.57-.26-.92-.53-.92a1.15,1.15,0,0,0-.8.87C74.49,96.63,75,97,75.34,97Z"/><path class="cls-5" d="M76.3,94.91c.41-.09.64-.7.49-1.29a.51.51,0,0,0-.69-.39c-.49.1-.89.58-.8.94S76,95,76.3,94.91Z"/><path class="cls-5" d="M77.16,90c.11-.17-.14-.58-.26-.86,0-.08-.19-.1-.37-.18-.13.31-.59.67-.38,1A.62.62,0,0,0,77.16,90Z"/><path class="cls-5" d="M72.71,91.14c.17,0,.18-.38.16-.52s-.21-.13-.33-.2a1.29,1.29,0,0,0-.2.41C72.34,90.91,72.54,91.17,72.71,91.14Z"/><path class="cls-5" d="M69.81,98a1.09,1.09,0,0,0,.14.38.61.61,0,0,0-.34.17.87.87,0,0,0-.19.62c.07.4.37.51,1.12.46a3.28,3.28,0,0,0,.21-.57,1.23,1.23,0,0,0,.68.09,1.56,1.56,0,0,0,1-1.63A1,1,0,0,0,72.1,97a1.55,1.55,0,0,0,.12-.81.88.88,0,0,0,1.09.52,1.1,1.1,0,0,0,.87-1.44,1.16,1.16,0,0,0-1.28-.9c-.52.09-.88.83-.78,1.52a.9.9,0,0,0-.39-.5,1.92,1.92,0,0,0-2,.47,1.26,1.26,0,0,0,.2,1.44A1.18,1.18,0,0,0,69.81,98Z"/><path class="cls-5" d="M68.83,94.13c.29.14.45,0,.58-.25a.46.46,0,0,0-.21-.73,2.2,2.2,0,0,0-.64,0A.68.68,0,0,0,68.83,94.13Z"/><path class="cls-5" d="M71.3,94.19a1.41,1.41,0,0,0,.86-1.52,1,1,0,0,0-1.91.77C70.41,94,70.91,94.32,71.3,94.19Z"/><path class="cls-5" d="M71.79,89.52a.48.48,0,0,0,.24-.4c0-.12-.24-.4-.4-.4s-.25.41-.22.52S71.66,89.55,71.79,89.52Z"/><path class="cls-5" d="M58.08,98.47c0,.41.8.8,1.08.59s0-1.13-.39-1.16A.69.69,0,0,0,58.08,98.47Z"/><path class="cls-5" d="M30.74,76.53a1.34,1.34,0,0,0,.54-1.59.75.75,0,0,0-.68-.38,2.92,2.92,0,0,0-.14-.31.43.43,0,0,0,0-.11l.12.1a1.15,1.15,0,0,0,.93,0,1.66,1.66,0,0,0,1.16,0,1.64,1.64,0,0,0,.64-2.1c-.26-.41-.78-.24-1,0a.6.6,0,0,0-.34-.47c-1.08,0-.8-.73-1.57-1a1.25,1.25,0,0,0-.37,0,.86.86,0,0,0-.75,1.2,1,1,0,0,0-.45.34,1.31,1.31,0,0,0,.32,1.91l.07,0a1.49,1.49,0,0,0,0,.21,1.87,1.87,0,0,1-.08.75,1,1,0,0,0,.12,1.17,1.15,1.15,0,0,0,.94.13A.63.63,0,0,0,30.74,76.53Z"/><path class="cls-5" d="M29.53,77.36a1.12,1.12,0,0,0-1.57.37.9.9,0,0,0-.1.67h2.37C30.26,78,30,77.77,29.53,77.36Z"/><path class="cls-5" d="M33.4,77.66a1.05,1.05,0,0,0-.24-.44.74.74,0,0,0,0-.29.65.65,0,0,0-.76-.47.61.61,0,0,0-.53.6,1,1,0,0,0-.48.71.93.93,0,0,0,.2.63h1.89A3.69,3.69,0,0,0,33.4,77.66Z"/><path class="cls-5" d="M33.28,84.31c.09-.33.18-.64.29-1a3.65,3.65,0,0,0-.28.56A1.07,1.07,0,0,0,33.28,84.31Z"/><path class="cls-5" d="M40.2,87.6l.33.09a1.57,1.57,0,0,0-.59,1.48,1.44,1.44,0,0,0,1.63.81,1.14,1.14,0,0,0,.84-1.31,2.07,2.07,0,0,0-.15-.34,1,1,0,0,0-.11-.29.44.44,0,0,0-.08-.11.63.63,0,0,0-.08-.59h-2.3A1.53,1.53,0,0,0,40.2,87.6Z"/><path class="cls-5" d="M35.83,56.64a.79.79,0,0,0-.3,1,1,1,0,0,0,1.14.5,1.21,1.21,0,0,0,.57-1.31C37.09,56.52,36.32,56.41,35.83,56.64Z"/><path class="cls-5" d="M30.89,59.14a1.14,1.14,0,0,0-.47,1.26.7.7,0,0,0,.51.34,1.41,1.41,0,0,0,.5,1,.84.84,0,0,0,1.2-.12,1.31,1.31,0,0,0,.15-1,.65.65,0,0,0,.59,0c.47-.27.41-.73.39-1.15-.72-.36-1-.36-1.31,0a.66.66,0,0,0-.11.64,1.2,1.2,0,0,0-.46-.07,1.06,1.06,0,0,0-.06-.19C31.54,59.25,31.21,59,30.89,59.14Z"/><path class="cls-5" d="M32.05,58.5a.24.24,0,0,0,0-.26.27.27,0,0,0-.2,0,1.31,1.31,0,0,0,0,.28C31.88,58.52,32,58.58,32.05,58.5Z"/><path class="cls-5" d="M40.31,96.09c.37.36.78.31,1.17-.34a12,12,0,0,0,.2-1.46.61.61,0,0,0-.62-.65.63.63,0,0,0-.7.56,2.34,2.34,0,0,1-.2.58A1,1,0,0,0,40.31,96.09Z"/><path class="cls-5" d="M51.92,93.76a1.42,1.42,0,0,0,1.55.82,1,1,0,0,0-.77-1.9.79.79,0,0,0,.19-.25.56.56,0,0,0-.26-.82.74.74,0,0,0-.94.26.72.72,0,0,0,.3.92.6.6,0,0,0,.37,0A.85.85,0,0,0,51.92,93.76Z"/><path class="cls-5" d="M43,95.49a1.14,1.14,0,0,0,1.26-.39,1.23,1.23,0,0,0-.27-1,1.24,1.24,0,0,0,.17-1.13,1.27,1.27,0,0,0-.95-1,.81.81,0,0,0-.33-.78,1.22,1.22,0,0,0-1.41.26c-.16.27.09.82.46,1.15a1.15,1.15,0,0,0-.18,1,1.48,1.48,0,0,0,1,.95A.74.74,0,0,0,43,95.49Z"/><path class="cls-5" d="M45.62,95.68c-.09-.19-.18-.37-.27-.57a.67.67,0,0,0,.27.57Z"/><path class="cls-5" d="M56.26,99.52c.17.1.57-.16.85-.29.08,0,.1-.2.18-.38-.32-.11-.69-.57-1-.35A.63.63,0,0,0,56.26,99.52Z"/><path class="cls-5" d="M40.08,92.91c.26.12.41,0,.54-.2a.52.52,0,0,0,.33-.12c.09-.09.17-.47,0-.56s-.21,0-.34,0a.43.43,0,0,0-.2-.14c-.23-.05-.49-.12-.65,0S39.77,92.76,40.08,92.91Z"/><path class="cls-5" d="M37.36,55.74c.17-.15.37-.33.34-.54s-.64-.48-.94-.31-.21.39-.12.62A.46.46,0,0,0,37.36,55.74Z"/><path class="cls-5" d="M43.86,91.61c-.17-.44-.32-.91-.49-1.36a1.33,1.33,0,0,0,0,.69A1,1,0,0,0,43.86,91.61Z"/><path class="cls-5" d="M40.66,90.47a.44.44,0,0,0-.17-.45c-.13-.06-.41-.17-.48,0a.46.46,0,0,0,.09.46C40.19,90.54,40.59,90.63,40.66,90.47Z"/><path class="cls-5" d="M76.28,97.92c-.51.26-.76.58-.65.84a1.14,1.14,0,0,0,1.11.41,1,1,0,0,0,.29-1A.51.51,0,0,0,76.28,97.92Z"/><path class="cls-5" d="M61.19,103.35c-.63-.38-1.2-.37-1.45,0a1.24,1.24,0,0,0,.28,1.31,1.28,1.28,0,0,0,1.34-.49A.57.57,0,0,0,61.19,103.35Z"/><path class="cls-5" d="M62.3,105.45a.64.64,0,0,0,.08.19,1.17,1.17,0,0,0-.58-.08,1.7,1.7,0,0,0-.81.27c.53,0,1.06.08,1.59.1v-1.29A1.1,1.1,0,0,0,62.3,105.45Z"/><path class="cls-5" d="M62.49,100.23a.7.7,0,0,0,.09.17v-.59A.46.46,0,0,0,62.49,100.23Z"/><path class="cls-5" d="M47.57,99.6a.94.94,0,0,0,.22.07c-.3-.5-.6-1-.89-1.53a1.2,1.2,0,0,0,.15,1,.55.55,0,0,0,0,.19A.74.74,0,0,0,47.57,99.6Z"/><path class="cls-5" d="M62.26,97.75l-.06,0s0,0,0,0c-.53,0-.79.25-.77.68a9.1,9.1,0,0,0-1.25.31,1.59,1.59,0,0,0-.67,1.11,1.43,1.43,0,0,0-.66-.59c-.87-.42-1.27-.32-1.7.37l0,0a1.06,1.06,0,0,0-.44.31c-.06.11.1.34.31.55a1.57,1.57,0,0,0,.76.94l.16.07a1.42,1.42,0,0,0-1,.53.91.91,0,0,0,.41,1.15.92.92,0,0,0,1.38-.36.9.9,0,0,0-.1-1.21.61.61,0,0,0-.14-.07,1.31,1.31,0,0,0,.61-.28h0a1.12,1.12,0,0,0,.34-.38,1.3,1.3,0,0,0,.15-.43,1.65,1.65,0,0,0,.69.5.85.85,0,0,0-.25,1.4,5.46,5.46,0,0,0,1.09.94,1.31,1.31,0,0,0,1.38-.18c0,.14,0,.28,0,.42a.82.82,0,0,0,.12.45v-2a4,4,0,0,0-1.25-1,1.34,1.34,0,0,0,.67-1.3c0-.38-.09-.7.19-1a.29.29,0,0,0,.35,0l0,0v-1A.44.44,0,0,0,62.26,97.75Z"/><path class="cls-5" d="M67.16,105.37a1.39,1.39,0,0,0,.12-.93,1.19,1.19,0,0,0-.94-.87v2.35c.8,0,1.59-.07,2.37-.16a.89.89,0,0,0-.73-.4A3.75,3.75,0,0,0,67.16,105.37Z"/><path class="cls-5" d="M62.49,95a1.42,1.42,0,0,0-1.47.55.8.8,0,0,0,.35,1.13.82.82,0,0,0,1.21-.18V94.91l0,0Z"/><path class="cls-5" d="M57,105.29l.31,0-.31-.06Z"/><path class="cls-5" d="M53,98.49c.22.09.44.12.48.19s-.42.82-.18,1.41a1.53,1.53,0,0,0,2.57.07,1.26,1.26,0,0,0-.11-1.39c-.34-.34-1.07-.41-1.13-.59s.49-.82.2-1.39a1,1,0,0,0-.82-.56,1.63,1.63,0,0,0,.31,0,.64.64,0,0,0,.48-.86.88.88,0,0,0-1-.66.87.87,0,0,0-.63,1,.79.79,0,0,0,.74.54,1.52,1.52,0,0,0-.51.09,1.9,1.9,0,0,0-.84,1.57.61.61,0,0,0-.5-.14,1.16,1.16,0,0,0-.58.5c.23.35.46.69.7,1a1.48,1.48,0,0,0,.46,0,.53.53,0,0,0,.38-.7A.08.08,0,0,1,53,98.49Z"/><path class="cls-5" d="M51,96.66a1.17,1.17,0,0,0,.86-1.3.47.47,0,0,0-.09-.22,1.35,1.35,0,0,0-.56-1.37,1.43,1.43,0,0,0-1.76.32,2,2,0,0,0,0-.87,1.12,1.12,0,0,0-1-.87,42,42,0,0,0,2.17,4.35A1.39,1.39,0,0,0,51,96.66Z"/><path class="cls-5" d="M50.28,103.32c0,.05,0,.1,0,.15l.3.1-.28-.37S50.28,103.28,50.28,103.32Z"/><path class="cls-5" d="M48.15,89.1c.07-.34.59-.8.74-1.29a1.58,1.58,0,0,0,.07-.47H46.62a1.52,1.52,0,0,0,0,.21l-.05,0c.36,1.11.75,2.19,1.16,3.23.25.09.62.18.81-.14C49.06,89.7,48.07,89.43,48.15,89.1Z"/><path class="cls-5" d="M68.16,101a.73.73,0,0,0-.28-.59h0a.83.83,0,0,0,.82-.77c0-.65-.54-.9-.49-1s.41-.75,0-1a1,1,0,0,0-.67-.16,1.1,1.1,0,0,0-.55-.84.82.82,0,0,0-.56-.16V99c.32.35-.09.65.63,1.1a1.55,1.55,0,0,0,.4.17.7.7,0,0,0-.43.31.71.71,0,0,0,.14,1l.12,0a.92.92,0,0,0-.08.64.37.37,0,0,0,.09.14.85.85,0,0,0-.37.92.71.71,0,0,0,1.16.18.94.94,0,0,0,.15-.79h.13a.88.88,0,0,0,.76-.95A1.17,1.17,0,0,0,68.16,101Z"/><path class="cls-5" d="M55.43,101.26a1.74,1.74,0,0,0-1,.86,22.24,22.24,0,0,0,1.63,1.6,1.06,1.06,0,0,0,.1-.12.83.83,0,0,0,.06-.21,1.24,1.24,0,0,0,.42-1.31A1,1,0,0,0,55.43,101.26Z"/><path class="cls-5" d="M53.9,104.61h0c-.28-.08-.57-.15-.85-.24Z"/><path class="cls-5" d="M55.68,105s0,0,0,0l.69.15h0Z"/><path class="cls-5" d="M54.19,104.68h0l.1,0h0Z"/><path class="cls-5" d="M58.74,103.69a.91.91,0,0,0-.67.46.65.65,0,0,0,0,.49,1,1,0,0,0-.36.39c.25.17.5.35.75.5l.56.09a.74.74,0,0,0,0-.37A.77.77,0,0,0,59,105a.79.79,0,0,0,.42-.36A.7.7,0,0,0,58.74,103.69Z"/><path class="cls-5" d="M56.7,84.71a.48.48,0,0,0,.29-.08.76.76,0,0,0,.26-.58.63.63,0,0,0-.82-.34A8.68,8.68,0,0,1,56.7,84.71Z"/><path class="cls-5" d="M83.59,99.81c-.33-.2-.61-.56-.93-.48a.66.66,0,0,0-.48.35c-.1.16-.28.28-.29.58a1.43,1.43,0,0,0,.48,1.16,1.14,1.14,0,0,0,.5.21c.34-.17.69-.34,1-.52a1.21,1.21,0,0,0,.09-.35A1.07,1.07,0,0,0,83.59,99.81Z"/><path class="cls-5" d="M83.21,95.87c-.27.56-.55,1.1-.83,1.62a.89.89,0,0,0,.73.23c.43-.12,1-1,.9-1.32A1,1,0,0,0,83.21,95.87Z"/><path class="cls-5" d="M80,101.55a.37.37,0,0,0,0,.45.51.51,0,0,0,.53.1c.14-.08.09-.36,0-.49A.39.39,0,0,0,80,101.55Z"/><path class="cls-5" d="M89.33,95.26a.64.64,0,0,0-.67-.43c-.57,0-.74.21-.87.88a12.87,12.87,0,0,0-1.09.74.46.46,0,0,0,.25.81c.47,0,1,.16,1.46-.21,0-.21.08-.44.11-.67C89.09,96.09,89.46,95.61,89.33,95.26Z"/><path class="cls-5" d="M85.5,93.92s-.21.25-.18.33.25.37.42.34.2-.4.16-.46A.68.68,0,0,0,85.5,93.92Z"/><path class="cls-5" d="M69.44,105.32a.32.32,0,0,0,0,.35l.65-.08a.56.56,0,0,0-.14-.29C69.91,105.23,69.56,105.12,69.44,105.32Z"/><path class="cls-5" d="M87.53,93.05c.24-.32-.38-1-.82-1s-.82.57-.68.89S87.3,93.37,87.53,93.05Z"/><path class="cls-5" d="M78.82,92.84a.69.69,0,0,0-.42.87.77.77,0,0,0,.82.56c.32-.08.71-.63.63-.88A1,1,0,0,0,78.82,92.84Z"/><path class="cls-5" d="M71.73,101a1.16,1.16,0,0,0-1.52.41,1.36,1.36,0,0,0-.19.69,1.07,1.07,0,0,0-.73,1.34,1.35,1.35,0,0,0,1.52,1,1.43,1.43,0,0,0,1-1.22.84.84,0,0,0,.23-.23A1.58,1.58,0,0,0,71.73,101Z"/><path class="cls-5" d="M71,105.46l.91-.17h0l-.93.16Z"/><path class="cls-5" d="M77.81,95.63c-.14-.06-.48.11-.59.27a.82.82,0,0,0,0,.67.66.66,0,0,0,.53.22,3.51,3.51,0,0,0,.71-.12c.15-.25.29-.52.43-.78,0,0-.08,0-.11,0A1.45,1.45,0,0,1,77.81,95.63Z"/><path class="cls-5" d="M70.64,104.75c-.1.13,0,.35.16.53a11.64,11.64,0,0,0,1-.71A1.65,1.65,0,0,0,70.64,104.75Z"/><path class="cls-5" d="M72.39,99.54a.61.61,0,0,0-.46.75.58.58,0,0,0,.72.5.7.7,0,0,0,.58-.79A.67.67,0,0,0,72.39,99.54Z"/><path class="cls-5" d="M74.24,101.87a1.34,1.34,0,0,0-.83,1.36,23.71,23.71,0,0,0,2.22-2.42.91.91,0,0,0-.37,0A1.36,1.36,0,0,0,74.24,101.87Z"/><path class="cls-5" d="M74.42,98.13c-.26-.34-.54-.67-1-.38s-.3.65-.08,1A.77.77,0,0,0,74.42,98.13Z"/><path class="cls-5" d="M74,99.79c-.25-.06-.42.41-.4.55a.51.51,0,0,0,.41.32.54.54,0,0,0,.37-.38A.57.57,0,0,0,74,99.79Z"/><path class="cls-5" d="M80.35,91.8a.62.62,0,0,0,.28.44c.14-.34.29-.69.43-1a.65.65,0,0,0-.31,0A.49.49,0,0,0,80.35,91.8Z"/><path class="cls-5" d="M32.31,45.61a.7.7,0,0,0-.79.46.53.53,0,0,0,0,.43c.23.25.51.45.79.7a1.56,1.56,0,0,0,.45,1.29h.83a1.49,1.49,0,0,0,.71-1.05c0-.58-.26-.76-1.43-.85C32.87,46.14,32.92,45.66,32.31,45.61Z"/><path class="cls-5" d="M33.62,54.46a11,11,0,0,0,1.1,1,.61.61,0,0,0,.89-.15.65.65,0,0,0-.08-.9,2,2,0,0,1-.37-.49A1,1,0,0,0,34,53.3C33.49,53.4,33.3,53.77,33.62,54.46Z"/><path class="cls-5" d="M34.59,52.87a.72.72,0,0,0,.58-.12c.18-.09.37-.14.47-.34a.27.27,0,0,0,0-.15H34.56a.53.53,0,0,0-.1.12A.32.32,0,0,0,34.59,52.87Z"/><path class="cls-5" d="M47.82,102.12a2.61,2.61,0,0,0,0-.48,1.39,1.39,0,0,0-.29-.9,1.46,1.46,0,0,0-1.13-.54c-.49,0-.81-.45-1.29-.29a2.3,2.3,0,0,0-.68.37.89.89,0,0,0-.4.29,41.19,41.19,0,0,0,3.87,2,.47.47,0,0,0,0-.17A1.63,1.63,0,0,0,47.82,102.12Z"/><path class="cls-5" d="M31,53.84c.41.28,1.11-.14,1.51-.72a1,1,0,0,0,.07-.86h-2a.54.54,0,0,0-.05.11A1.27,1.27,0,0,0,31,53.84Z"/><path class="cls-5" d="M29.24,57.67c.27.32.86.4,1,0A1.17,1.17,0,0,1,31.35,57a1.09,1.09,0,0,0,.7-1,1.42,1.42,0,0,0-1.22-.81c-.31,0-.75,0-.79.45a1.67,1.67,0,0,1-.75,1.16A.54.54,0,0,0,29.24,57.67Z"/><path class="cls-5" d="M35.81,42.76a.68.68,0,0,0-.5.84,1.14,1.14,0,0,0,1.28.62.79.79,0,0,0,.45-1A1,1,0,0,0,35.81,42.76Z"/><path class="cls-5" d="M32.84,44.18a1.33,1.33,0,0,0,.63-1.62,1.27,1.27,0,0,0-1.56-.72A1.29,1.29,0,0,0,31,43.32,1.67,1.67,0,0,0,32.84,44.18Z"/><path class="cls-5" d="M39.07,44.71c.06,0,.08-.2,0-.25s-.14-.13-.22-.09a.2.2,0,0,0-.11.27A.23.23,0,0,0,39.07,44.71Z"/><path class="cls-5" d="M28.77,56.28c-.07.1,0,.31.08.54.21-.09.42-.11.49-.23a.43.43,0,0,0-.13-.4A.48.48,0,0,0,28.77,56.28Z"/><path class="cls-5" d="M38.92,56.85c.12-.07.37-.24.29-.38a.46.46,0,0,0-.44-.19c-.12,0-.41.31-.32.46A.45.45,0,0,0,38.92,56.85Z"/><path class="cls-5" d="M35.76,48a.94.94,0,0,0-.5.46h2.1A1.53,1.53,0,0,0,35.76,48Z"/><path class="cls-5" d="M38.89,48c0,.1.18.38.45.3s.13-.41.1-.54-.29-.19-.33-.15A.51.51,0,0,0,38.89,48Z"/><path class="cls-5" d="M38.5,61.89c.08-.08.15-.44,0-.55s-.47.07-.54.17-.07.39,0,.47A.46.46,0,0,0,38.5,61.89Z"/><path class="cls-5" d="M37.56,63.21a.64.64,0,0,0,0-.43.69.69,0,0,0-1-.41.76.76,0,0,0-.35.93.79.79,0,0,0,1,.32.54.54,0,0,0,.12-.09c0,.08,0,.17.08.21s.41-.11.49-.22,0-.25-.06-.38Z"/><path class="cls-5" d="M37.06,52.27a.54.54,0,0,0-.37.77.6.6,0,0,0,.74.34c.28-.07.51-.78.31-1a.67.67,0,0,0-.36-.15h-.32Z"/><path class="cls-5" d="M37.09,59.18a.67.67,0,0,0-.49.4,1.07,1.07,0,0,0,.24.79c.4.35.7,0,1-.29C37.77,59.56,37.61,59.16,37.09,59.18Z"/><path class="cls-5" d="M36.35,41.8a1.06,1.06,0,0,0-1-1.86,1.09,1.09,0,0,0-.42,1.48A1.13,1.13,0,0,0,36.35,41.8Z"/><path class="cls-5" d="M30.61,85.08a1.3,1.3,0,0,0-1.14,1.35l0,0c.55.9,1.14,1.77,1.76,2.62A1.5,1.5,0,0,0,31.39,88a1.41,1.41,0,0,0-.4-.58,2,2,0,0,0,.62-1.11A1.24,1.24,0,0,0,30.61,85.08Z"/><path class="cls-5" d="M30.38,84.7a.63.63,0,0,0,.74.36.72.72,0,0,0,.44-.87.69.69,0,0,0-.82-.51l-.12,0a1.3,1.3,0,0,0-1-.94h-.07l.28-.07c.29-.07.6-.06.78-.41a.61.61,0,0,0,0-.13H27.59a1.28,1.28,0,0,0,.94.86,1,1,0,0,0-.36.74,2,2,0,0,0,0,.5l.48.85a1.11,1.11,0,0,0,.48.22A1.58,1.58,0,0,0,30.38,84.7Z"/><path class="cls-5" d="M34,89.43A1.68,1.68,0,0,0,35.51,89c.41-.41.06-1.07.29-1.63a.43.43,0,0,1,0,0H32.89a12,12,0,0,1,.2-2.18,1.36,1.36,0,0,0-.32.08c-.91.35-1.11.71-.89,1.5a1.26,1.26,0,0,0,.42.6.77.77,0,0,0,0,.27A2.06,2.06,0,0,0,34,89.43Z"/><path class="cls-5" d="M25.79,72.23c-.18,0-.2.38-.19.52s.17.24.3.2a.48.48,0,0,0,.28-.36C26.18,72.49,26,72.19,25.79,72.23Z"/><path class="cls-5" d="M38.59,95.87a1,1,0,0,0,.7.35.33.33,0,0,0,.34-.38c-.06-.21-.24-.31-.43-.41a2.25,2.25,0,0,0-.21-.12,1.82,1.82,0,0,0,.43-.51,2.26,2.26,0,0,1,.26-.36c.5-.18.61-.46.57-.78s-.33-.47-.65-.52-.69-.14-1-.19-.79-.13-1.08.26a.53.53,0,0,1-.37.14c-.8,0-1.08.15-1.15.67l-1-.93c.3-.38.44-.6.44-.78a.54.54,0,0,0,.27-.18s0-.06,0-.09h.07c.23-.09.23-.57,0-.81a.63.63,0,0,0-.82,0,.36.36,0,0,0-.31.23.77.77,0,0,0-.11.45.73.73,0,0,0-.06.93l0,0c.71.76,1.45,1.5,2.22,2.21a1.82,1.82,0,0,1,.88.27l.26.11a.53.53,0,0,0,.4.38A.63.63,0,0,0,38.59,95.87Z"/><path class="cls-5" d="M45.4,97.91a3.69,3.69,0,0,1,.45.11.55.55,0,0,0,.75-.43c-.16-.3-.33-.58-.49-.89h0a1.15,1.15,0,0,1-1.16-.51,1.11,1.11,0,0,0-1.26,0h0a1.11,1.11,0,0,0-.79-.11,1.32,1.32,0,0,0-1,1.54,2.21,2.21,0,0,0-.81-.16l-.18,0a.76.76,0,0,0,0-.15.82.82,0,0,0-1-.42.41.41,0,0,0-.11.07,1.29,1.29,0,0,0-1.43-.79,1.2,1.2,0,0,0-.3.15,41.23,41.23,0,0,0,4,3,1.2,1.2,0,0,0,.46-.85,1,1,0,0,0,.5.1l0,.15a1.32,1.32,0,0,0,1.53.69A1.41,1.41,0,0,0,45.4,97.91Z"/><path class="cls-5" d="M28.08,76.52a.48.48,0,0,0-.45-.27,1,1,0,0,0,0-.35.77.77,0,0,0,.62-.38.68.68,0,0,0-.1-.86.45.45,0,0,0,0-.35c-.09-.32-.52-.59-.75-.41s-.62.54-.47.84a.41.41,0,0,0,.12.11l0,0A.61.61,0,0,0,27,75a1.36,1.36,0,0,0-1.18,0l-.13,0a.09.09,0,0,0,0,0,1.13,1.13,0,0,0-.38-.57,1.68,1.68,0,0,0,0-.78,2,2,0,0,1,0-.44.68.68,0,0,0-.07-1,0,0,0,0,1,0,0,1,1,0,0,0,.84-.31.84.84,0,0,0,.15-.78l0,0a1.38,1.38,0,0,0,1.86-.3,1.1,1.1,0,0,0,.2-.87.84.84,0,0,0,.79.13,1.34,1.34,0,0,0,.48-1.43.92.92,0,0,0-1.33-.5.88.88,0,0,0-.49,1l-.05,0a1.3,1.3,0,0,0-1.26-.18,1.23,1.23,0,0,0-.95-.53,1,1,0,0,0,.21-.42,1.42,1.42,0,0,0,.12.13A.88.88,0,0,0,27.05,68,1.12,1.12,0,0,0,27,66.68a1.23,1.23,0,0,0-1.46.15,1.11,1.11,0,0,0-1-.63,1.47,1.47,0,0,0-1,.67l-.12,0c0,.65.08,1.29.14,1.94a1.69,1.69,0,0,0,.25-.2,1.56,1.56,0,0,0,.64.21h.09a1.17,1.17,0,0,0-.08,1.31,1.66,1.66,0,0,0,.32.49.62.62,0,0,0-.4.29A.87.87,0,0,0,24.77,72a.91.91,0,0,0-.37.15l-.35.2a40.09,40.09,0,0,0,1.42,5.51.55.55,0,0,0,.25,0,.7.7,0,0,0,.49-.71,2.11,2.11,0,0,0,.7-.13c.14.22.39.38.58.28S28.19,76.85,28.08,76.52Z"/><path class="cls-5" d="M33.31,89.76a.72.72,0,0,0,.36,1.38.86.86,0,0,0,.45-1A.67.67,0,0,0,33.31,89.76Z"/><path class="cls-5" d="M26,50.47h0c-.13.34-.25.69-.37,1h0C25.72,51.17,25.83,50.82,26,50.47Z"/><path class="cls-5" d="M27.75,47.78a3.09,3.09,0,0,0-.54-.29c-.15.33-.29.67-.43,1h1.36A.91.91,0,0,0,27.75,47.78Z"/><path class="cls-5" d="M23.73,64.37c-.31.49-.25,1,.12,1.2a1.37,1.37,0,0,0,1.63-.34.56.56,0,0,0,.06-.32,1,1,0,0,0,.66-.37.87.87,0,0,0-.14.27.63.63,0,0,0,.43.88.82.82,0,0,0,.49,0,1.2,1.2,0,0,0,.65.69.73.73,0,0,0-.26.83,1.1,1.1,0,0,0,1.25.45.61.61,0,0,0,.31-.84,1,1,0,0,0-.54-.52l0,0c.48-.44.32-1,.46-1.07s.83-.19.74-.7c-.2-1.08-1.13-.66-1.29-1a1.62,1.62,0,0,1-.09-.45,1.3,1.3,0,0,0,1.58.46,1.4,1.4,0,0,0,.71-1.66,1.39,1.39,0,0,0-1.63-.78,1.9,1.9,0,0,0-.75,1.26,2.46,2.46,0,0,0-.07-.29c-.28-.65-.89-1.08-1.55-.72a1.24,1.24,0,0,0-.72,1.15.91.91,0,0,0-.37-.22.72.72,0,0,0-.6.14c0-.14,0-.28,0-.37-.39-.27-.72-.24-.9,0a1.29,1.29,0,0,0-.42-.26c-.06.88-.11,1.76-.11,2.66.34-.17.65-.48.82-.51A1,1,0,0,0,23.73,64.37Zm2.72-.78c.4.16.81,0,.85.46a.74.74,0,0,1,0,.21,1.13,1.13,0,0,0-.18-.12.79.79,0,0,0-.86.32,1.54,1.54,0,0,0,.21-.47A.79.79,0,0,0,26.45,63.59Z"/><path class="cls-5" d="M28.32,46.67c.4.17.68-.05.88-.45-.17-.32-.32-.7-.77-.57a.75.75,0,0,0-.37.54A.56.56,0,0,0,28.32,46.67Z"/><path class="cls-5" d="M26.46,49.23l-.15.35h0C26.36,49.47,26.41,49.35,26.46,49.23Z"/><path class="cls-5" d="M24.78,60.93c0,.13.07.23.19.26a1.1,1.1,0,0,0,.8-.08,0,0,0,0,0,0,0l.07,0a1.3,1.3,0,0,0,.56-1.78,1.24,1.24,0,0,0-1.67-.64,1.05,1.05,0,0,0-.5,1.53A1.79,1.79,0,0,0,24.78,60.93Z"/><path class="cls-5" d="M25.16,56.44a1.21,1.21,0,0,0,.2.09l-.1.1a1,1,0,0,0,.81.93c.3-.41.42-.71.34-.93a1.76,1.76,0,0,0,.74-.56c.32-.38.83-.42,1-.9a2.07,2.07,0,0,0-.83-2.35,1.68,1.68,0,0,0-1.58-.24c-.51.21-.48.88-.85,1.32-.16.57-.3,1.15-.44,1.74A2.58,2.58,0,0,0,25.16,56.44Z"/><path class="cls-5" d="M27.14,57.25a1.07,1.07,0,0,0-.51,1.6,1.06,1.06,0,0,0,1.53.68,1.22,1.22,0,0,0,.56-1.76A1.27,1.27,0,0,0,27.14,57.25Z"/><path class="cls-6" d="M13.06,59.49a6.59,6.59,0,0,0,0,3.06,10.31,10.31,0,0,0,.25,1.23,2.53,2.53,0,0,0,.57,1l.34.27c.42.18.53.23.33.13l-.45-.45a6.27,6.27,0,0,1,.23,1.45,11.07,11.07,0,0,0,.29,1.39c.25,1,.68,1.87,1,2.83.66,2,1.32,5.13,3.87,5.31a1.46,1.46,0,0,0,1.38-1c.45-1.08-.26-2.37-.8-3.27s-1-1.51-1.49-2.29-.74-1.75-1.12-2.59S16.68,64.8,16.31,64l.17.6a4.1,4.1,0,0,1-.06-.49l-.17.63.1-.16-.52.52c1.18-.83.9-2,.65-3.19a8,8,0,0,0-.87-2.7,1.41,1.41,0,0,0-2.55.33Z"/><path class="cls-6" d="M17.33,38.45a5.71,5.71,0,0,0-1.71,2.26c-.5,1.08-1,2.18-.27,3.27l-.13-1a5,5,0,0,1-.56,1.3,14.15,14.15,0,0,0-.65,1.5c-.33.89-.46,1.8-.75,2.69-.15.49-.4.94-.52,1.43s-.19,1-.27,1.5c-.18,1.17-.06,2.84,1.22,3.37s2.31-.93,2.58-2.06a14.07,14.07,0,0,0,.21-3.18,14.55,14.55,0,0,1,.44-2.68c.09-.5.19-1,.27-1.5A4.15,4.15,0,0,1,17.51,44l-.75.57c1.18-.27,1.51-1.18,1.94-2.18a7.21,7.21,0,0,0,.74-2.71c0-1-1.24-1.88-2.11-1.21Z"/><path class="cls-6" d="M30.81,24.09a3,3,0,0,0-1.41.33,9.42,9.42,0,0,0-.89.47c-.26.16-.5.36-.75.54a3.86,3.86,0,0,0-.58.49,2,2,0,0,0-.49,1.59l.36-.86a3.91,3.91,0,0,1-.79.46,8.47,8.47,0,0,0-.89.58,9.44,9.44,0,0,0-1.83,1.56c-.23.27.12,0-.15.13s-.33.21-.49.33a7.69,7.69,0,0,0-1.07.91,6.92,6.92,0,0,0-.95,1.07,3.14,3.14,0,0,0-.44,1.3,1.69,1.69,0,0,0,.41,1.58,1.6,1.6,0,0,0,1.59.42,4.33,4.33,0,0,0,1.45-.78,4.77,4.77,0,0,0,.56-.7l.12-.16a13.23,13.23,0,0,0,.84-1.13c.07-.13.15-.26.22-.4a2.26,2.26,0,0,0,.16-.26c-.09.11-.1.12,0,0a15.89,15.89,0,0,0,1.45-1.51c.24-.27.47-.55.7-.83a3,3,0,0,1,.61-.7l-.94.13a2.07,2.07,0,0,0,1.94-.23c.32-.21.63-.44.93-.68A4.87,4.87,0,0,0,32,26.16a1.39,1.39,0,0,0-1.19-2.07Z"/><path class="cls-6" d="M53,19.76A7,7,0,0,0,49.94,19c-1-.09-2.44-.2-3,1l.51-.51c-.29.19-1.23-.12-1.58-.15a13.28,13.28,0,0,0-1.41,0c-1.08,0-2.11.27-3.18.34-1.94.14-5.34.3-6,2.62A1.47,1.47,0,0,0,36,23.79c1.7,1.14,4.25-.43,5.91-1a19.31,19.31,0,0,1,2.73-.51c.51-.09,1-.17,1.51-.27.28-.05,1.12-.35,1.35-.19L46.83,21c.51,1.31,1.58,1.37,2.81,1.45a9.06,9.06,0,0,0,3-.1A1.43,1.43,0,0,0,53,19.76Z"/><path class="cls-6" d="M115.7,70.86a6.55,6.55,0,0,0,0-3,8.51,8.51,0,0,0-.25-1.24,2.48,2.48,0,0,0-.57-1l-.34-.26c-.42-.18-.52-.23-.32-.13l.45.45a5.87,5.87,0,0,1-.24-1.46,13.15,13.15,0,0,0-.28-1.39c-.26-1-.69-1.87-1-2.83-.66-1.94-1.32-5.12-3.86-5.3a1.48,1.48,0,0,0-1.39,1.05c-.44,1.08.26,2.37.8,3.27s1,1.5,1.49,2.29.75,1.74,1.12,2.59.77,1.67,1.14,2.51l-.16-.59c0,.16,0,.33,0,.49l.17-.63-.09.15.51-.51c-1.17.83-.89,2-.65,3.18a8.52,8.52,0,0,0,.87,2.71,1.41,1.41,0,0,0,2.55-.34Z"/><path class="cls-6" d="M111.43,91.91a5.62,5.62,0,0,0,1.71-2.26c.5-1.08,1-2.18.27-3.27l.13,1a5,5,0,0,1,.57-1.3,15.54,15.54,0,0,0,.64-1.51c.33-.88.47-1.79.75-2.68.15-.49.4-.94.52-1.44s.19-1,.27-1.5c.19-1.16.06-2.84-1.21-3.37s-2.31.94-2.58,2.06a13.64,13.64,0,0,0-.22,3.19,13,13,0,0,1-.44,2.68c-.09.5-.19,1-.27,1.5a4.14,4.14,0,0,1-.31,1.41l.74-.58c-1.18.27-1.51,1.18-1.94,2.19a7.4,7.4,0,0,0-.74,2.71c0,1,1.24,1.88,2.11,1.21Z"/><path class="cls-6" d="M98,106.26a2.9,2.9,0,0,0,1.41-.33c.3-.15.61-.29.89-.46s.51-.36.75-.55a3.37,3.37,0,0,0,.58-.48,2,2,0,0,0,.49-1.6l-.36.87a3.16,3.16,0,0,1,.79-.46,9.22,9.22,0,0,0,.9-.58,9.75,9.75,0,0,0,1.83-1.56c.22-.27-.12,0,.14-.13l.5-.33a7.07,7.07,0,0,0,1.06-.91,6.87,6.87,0,0,0,.95-1.07,3.36,3.36,0,0,0,.45-1.3,1.75,1.75,0,0,0-.42-1.59,1.62,1.62,0,0,0-1.59-.42,4.62,4.62,0,0,0-1.45.78,6.13,6.13,0,0,0-.56.7c0,.08-.39.54-.12.16a13.38,13.38,0,0,0-.84,1.14l-.22.39-.15.26c.09-.1.09-.11,0,0a13.68,13.68,0,0,0-1.44,1.51c-.25.27-.48.54-.71.82s-.4.6-.6.7l.94-.12a2.11,2.11,0,0,0-2,.22c-.32.21-.63.45-.93.68a5,5,0,0,0-1.54,1.63A1.39,1.39,0,0,0,98,106.26Z"/><path class="cls-6" d="M75.76,110.6a7,7,0,0,0,3.07.81c1,.09,2.44.19,3-1l-.51.5c.29-.18,1.23.12,1.58.15a11.23,11.23,0,0,0,1.42,0c1.07,0,2.1-.26,3.17-.34,1.94-.13,5.34-.29,6-2.61a1.49,1.49,0,0,0-.66-1.63c-1.71-1.13-4.26.44-5.92,1a20.54,20.54,0,0,1-2.73.51c-.5.09-1,.16-1.51.26-.27.06-1.12.35-1.35.19l.65.84c-.5-1.3-1.58-1.36-2.81-1.44a9.06,9.06,0,0,0-3,.1,1.43,1.43,0,0,0-.33,2.58Z"/><circle class="cls-7" cx="89.41" cy="36.14" r="6.73"/><path class="cls-7" d="M77.36,54.17a12.06,12.06,0,0,1,24.11,0"/><path class="cls-7" d="M47.45,75.55a6.73,6.73,0,1,0-5,0,12.06,12.06,0,0,0-9.55,11.79H57A12,12,0,0,0,47.45,75.55Z"/></svg>