<svg xmlns="http://www.w3.org/2000/svg" width="194" height="258" viewBox="0 0 194 258">
  <g fill="none" fill-rule="evenodd" transform="translate(-374 -344)">
    <path fill="#26282F" d="M18.5865971,168.219762 L262.586597,13.5718751 C275.659872,5.28599675 292.340128,5.28599675 305.413403,13.5718751 L549.413403,168.219762 C560.986614,175.554896 568,188.303405 568,202.005354 L568,391.994646 C568,405.696595 560.986614,418.445104 549.413403,425.780238 L305.413403,580.428125 C292.340128,588.714003 275.659872,588.714003 262.586597,580.428125 L18.5865971,425.780238 C7.01338644,418.445104 1.9932667e-14,405.696595 0,391.994646 L0,202.005354 C1.253285e-14,188.303405 7.01338644,175.554896 18.5865971,168.219762 Z"/>
    <polygon fill="#F04E98" points="466.096 251 486 251 485.997 541.5 466 541.5"/>
    <polygon fill="#F04E98" points="417.096 311 437 311 436.997 601.5 417 601.5"/>
    <polygon fill="#F990C6" points="466 478.5 486 466 485.997 565.5 466 565.5"/>
    <polygon fill="#F990C6" points="417 509.5 437 497 436.997 601.5 417 601.5"/>
  </g>
</svg>
