<svg id="Layer_1" data-name="Layer 1" xmlns="http://www.w3.org/2000/svg" viewBox="0 0 128 128"><defs><style>.cls-1{fill:#ecf0f6;}.cls-2{fill:#fff;}.cls-3{fill:#ced5e1;}.cls-4{fill:#fa744e;}.cls-5{fill:#e55940;}.cls-6{fill:#ff957d;}.cls-7{fill:#343741;}</style></defs><title>illustration-people-channels-128-white-bg</title><circle class="cls-1" cx="64.13" cy="63.98" r="60"/><path class="cls-2" d="M90.73,10.56h0a.64.64,0,0,0,.72.46s0,0,.08,0a.87.87,0,0,0,.63-.07c-.6-.32-1.22-.64-1.84-.94A1.19,1.19,0,0,0,90.73,10.56Z"/><path class="cls-2" d="M93.79,14.56c-.54-.52-1.12-.6-1.48-.2a.84.84,0,0,0-.13.21.4.4,0,0,0-.33-.17c-.35,0-.28.46-.28.64s.29.3.36.27l.13-.08a1.5,1.5,0,0,0,.23,1,1.1,1.1,0,0,0,1.6-.16C94.42,15.57,94.39,15.15,93.79,14.56Z"/><path class="cls-2" d="M93.08,18.77a.46.46,0,0,0-.24-.5.63.63,0,0,0-.63.25c-.09.18.14.45.33.51A.46.46,0,0,0,93.08,18.77Z"/><path class="cls-2" d="M93.48,25.94c.35-.13.65-.36.49-.73s-.58-.91-.91-.85-.37.89-.34,1.19S93.07,26.09,93.48,25.94Z"/><path class="cls-2" d="M85,9.14a.83.83,0,0,0,1,.72A.88.88,0,0,0,86.7,9a.85.85,0,0,0-1-.68A.67.67,0,0,0,85,9.14Z"/><path class="cls-2" d="M92,30.24c-.23.19.06.55.14.58s.39.16.57,0a.3.3,0,0,0,0-.46C92.49,30.23,92.19,30.05,92,30.24Z"/><path class="cls-2" d="M90.23,15.29a1.39,1.39,0,0,0-.92-1.51,1.21,1.21,0,0,0-.91.17A1.64,1.64,0,0,0,88,16.21a5.49,5.49,0,0,0,1.08.1A1.27,1.27,0,0,0,90.23,15.29Z"/><path class="cls-2" d="M82.92,7a2.31,2.31,0,0,0,.35.35,2.11,2.11,0,0,1,.33.44c.36.52.77.68,1.11.45a.68.68,0,0,0,.3-.52C84.32,7.46,83.62,7.23,82.92,7Z"/><path class="cls-2" d="M88.83,18.05a.31.31,0,0,0-.07.51.32.32,0,0,0,.52.05.3.3,0,0,0,.06-.48A.31.31,0,0,0,88.83,18.05Z"/><path class="cls-2" d="M100.48,43.93a.59.59,0,0,0-.21.52.54.54,0,0,0,.49.22c.14-.05.51-.34.38-.56A.63.63,0,0,0,100.48,43.93Z"/><path class="cls-2" d="M111.25,56c-.35,0-.28.46-.28.64s.29.3.36.27.36-.26.37-.42S111.6,55.94,111.25,56Z"/><path class="cls-2" d="M112.72,40.52l.08-.05a.7.7,0,0,0,.45.05.94.94,0,0,0,.65-1.13,1,1,0,0,0-.43-.51,1.89,1.89,0,0,0-.09-.34,1,1,0,0,0-1.39-.31,1.15,1.15,0,0,0-.64,1.59C111.63,40.39,112.31,40.74,112.72,40.52Z"/><path class="cls-2" d="M121.88,61c.62-.18,1.85-.71,1.38-1.81a1.46,1.46,0,0,0-1.61-.7h0a1.63,1.63,0,0,0,0-1.46,1.65,1.65,0,0,0-2.09-.56,1.38,1.38,0,0,0-.63,1.74,2.17,2.17,0,0,0,1.89.85.85.85,0,0,0-.22.64c.06.49-1.09.3-1.06,1s-.73,1-.59,1.84.81,1.55,1.47,1.18a3,3,0,0,0,1.18-1.6C121.8,61.6,121.25,61.16,121.88,61Z"/><path class="cls-2" d="M110.67,41.59a1,1,0,0,0-1.26-.4A.77.77,0,0,0,109,42a1.24,1.24,0,0,0,.07,1.12.84.84,0,0,0,1.12.22.82.82,0,0,0,.51-1s0,0,0,0A.82.82,0,0,0,110.67,41.59Z"/><path class="cls-2" d="M99,21.3c0-.2-.53-.65-.76-.59s-.45.76-.37.86.59.57.79.46A.91.91,0,0,0,99,21.3Z"/><path class="cls-2" d="M96.67,26.85a1.81,1.81,0,0,0,1.87.1c.44-.47.37-1-.22-1.55a.89.89,0,0,0-.79-.25.71.71,0,0,0,0-.38,1,1,0,0,0-1.13-.68.78.78,0,0,0-.59.93.86.86,0,0,0,.85.78A.8.8,0,0,0,96.67,26.85Z"/><path class="cls-2" d="M84.8,16.5c.24.23.54.42.88.13a.9.9,0,0,0,0-1.25,2.44,2.44,0,0,0-.87.25A.52.52,0,0,0,84.8,16.5Z"/><path class="cls-2" d="M111.1,38.07a2.62,2.62,0,0,0-.93-.36c-.48,0-.77.61-.63,1.13a.77.77,0,0,0,1,.5A1,1,0,0,0,111.1,38.07Z"/><path class="cls-2" d="M103.55,29.22a.88.88,0,0,0,1.09-.33.63.63,0,0,0,.11-.53,11.36,11.36,0,0,0-.77-1.07c.26-1,0-1.82-.58-2a1.79,1.79,0,0,0-1.69,1,.76.76,0,0,0-.18-.22,1,1,0,0,0-1.24,0,1.27,1.27,0,0,0-.06,1.36,1.22,1.22,0,0,0,1.45-.12.2.2,0,0,0,0-.08,2.9,2.9,0,0,0,1.41.71C103,28.43,102.82,29,103.55,29.22Z"/><path class="cls-2" d="M115.72,52.49c.16,0,.59-.27.53-.47a.56.56,0,0,0-.54-.27c-.18,0-.53.18-.46.38A.59.59,0,0,0,115.72,52.49Z"/><path class="cls-2" d="M117.65,50.49a.84.84,0,0,0,0-1,1,1,0,0,0-1.17-.4c-.59.33-.51.91-.49,1.44C116.92,50.93,117.33,50.93,117.65,50.49Z"/><path class="cls-2" d="M119,39.63c-.22-.5-.44-1-.67-1.49l-.17.06a.85.85,0,0,0-.37.44,1.65,1.65,0,0,0-.9,0c-.65.13-1,.57-.92,1s1.11,1.25,1.49,1.19a1.13,1.13,0,0,0,.91-1.08.8.8,0,0,0,.57-.07S118.94,39.65,119,39.63Z"/><path class="cls-2" d="M78,6.65a1,1,0,0,0,1.24.49.8.8,0,0,0,.43-1L79.64,6l-1.31-.33A1,1,0,0,0,78,6.65Z"/><path class="cls-2" d="M124.11,63.41a.41.41,0,0,0-.11.07,1,1,0,0,0,0,1.21l.06,0c0-.26,0-.51,0-.76S124.11,63.6,124.11,63.41Z"/><path class="cls-2" d="M64.76,12.81a1.66,1.66,0,0,0,.67.76,1.28,1.28,0,0,0,.32.45A1.64,1.64,0,0,0,68,13.6a1.16,1.16,0,0,0-.17-1.71,1.51,1.51,0,0,0-1.08-.41,1.06,1.06,0,0,0-1.32-.26A1.14,1.14,0,0,0,64.76,12.81Z"/><path class="cls-2" d="M72.54,5.73a.71.71,0,0,0,.18.5,1.36,1.36,0,0,0,1.38.1s0-.09.07-.14a1.47,1.47,0,0,0,.61-1.25c-.7-.13-1.41-.25-2.12-.35a.93.93,0,0,0-.26.93A.85.85,0,0,0,72.54,5.73Z"/><path class="cls-2" d="M120.74,44.25a.82.82,0,0,0,0,.35.63.63,0,0,0,.38.56c-.38-1.15-.8-2.28-1.24-3.4a1.45,1.45,0,0,0-.69,1.67A1.46,1.46,0,0,0,120.74,44.25Z"/><path class="cls-2" d="M114.8,43.88a2,2,0,0,0,0,.24,1.71,1.71,0,0,0,1.79,1.06c.79-.15,1.2-1,1-2a1.25,1.25,0,0,0-1.37-1.09,1.7,1.7,0,0,0-1.66-.38,1.47,1.47,0,0,0-.48,1.6A1.1,1.1,0,0,0,114.8,43.88Z"/><path class="cls-2" d="M65.34,5.9c.27.16.82.63,1.18.26s-.07-.94-.22-1.24-.66-.28-1,0S65,5.66,65.34,5.9Z"/><path class="cls-2" d="M118.18,47.84a.92.92,0,0,0,.45-1.3.79.79,0,0,0-1.16-.25c-.34.22-.71.46-.54.85C117.27,47.79,117.76,48,118.18,47.84Z"/><path class="cls-2" d="M74.62,13.2a.68.68,0,0,0,0,.19,2,2,0,0,0-1.46.54.84.84,0,0,0,.16,1.19,1.21,1.21,0,0,0,1.71.12,1.43,1.43,0,0,0,.34-1.13.8.8,0,0,0,.77-.42c.31-.51,0-.91-.39-1.34C75.24,12.48,74.64,12.51,74.62,13.2Z"/><path class="cls-2" d="M67.22,5.15a1.33,1.33,0,0,0,1.63.67,1,1,0,0,0,.36-.22,1,1,0,0,0,.2.33c.33.31,1.56.07,1.94-.39a1.2,1.2,0,0,0,0-1.11c-1.32-.16-2.65-.29-4-.36A1.53,1.53,0,0,0,67.22,5.15Z"/><path class="cls-2" d="M76.27,17.75a1.59,1.59,0,0,0-1.84-.34,1.52,1.52,0,0,0-.11,2,1.14,1.14,0,0,0,.84.32.78.78,0,0,0-.07.74.93.93,0,0,0,1.21.5.85.85,0,0,0,.49-1.19.84.84,0,0,0-.49-.45l.08,0A1.07,1.07,0,0,0,76.27,17.75Z"/><path class="cls-2" d="M122.25,49.06c-.17-.66-.36-1.32-.55-2a1.06,1.06,0,0,0-.28.39,1.23,1.23,0,0,0-.51.12s0,0-.07,0c-1.18.08-1.46.86-.84,2.23a1.5,1.5,0,0,1-.19.25.75.75,0,0,0-.11,1,.81.81,0,0,0,.84.43c.92,0,1.21-.32,1.14-1.24,0-.28,0-.54,0-.82a.58.58,0,0,0,.19,0A1,1,0,0,0,122.25,49.06Z"/><path class="cls-2" d="M116.18,34.74a.47.47,0,0,0,.19.28.79.79,0,0,0-.54.9.64.64,0,0,0,0,.07,1.82,1.82,0,0,0-.72,1.66,1.11,1.11,0,0,0,1.63.47.85.85,0,0,0,.51-.86,2.93,2.93,0,0,0,.62.08c-.53-1.06-1.08-2.1-1.67-3.11A2,2,0,0,0,116.18,34.74Z"/><path class="cls-2" d="M102.82,21c-.74.15-1,.48-.93,1,.15.73.68,1.15,1.26,1a1.85,1.85,0,0,0,.83-1.47C103.91,21,103.49,20.84,102.82,21Z"/><path class="cls-2" d="M113.64,33.71a.89.89,0,0,0-.91.71,1,1,0,0,0,.88,1.18,1.09,1.09,0,0,0,.85-1.3A.71.71,0,0,0,113.64,33.71Z"/><path class="cls-2" d="M100.31,20.4c.56.05,1.1.25,1.36-.34a.86.86,0,0,0-.29-1.1,1,1,0,0,0-.25-.15,1.36,1.36,0,0,0,0-.89,1.21,1.21,0,0,0-1.34-.12.64.64,0,0,0-.09,1,2.49,2.49,0,0,0,.53.51A1.43,1.43,0,0,0,100.31,20.4Z"/><path class="cls-2" d="M103.28,25.05a.64.64,0,0,0,1-.05,1.16,1.16,0,0,0,.21-1.52,1.35,1.35,0,0,0-1.55-.11C102.56,23.74,102.73,24.53,103.28,25.05Z"/><path class="cls-2" d="M52.93,6.91l-.35.17a.76.76,0,0,0-.52-.65c-.38-.16-.8-.11-1,.29a1.33,1.33,0,0,0,0,1,.66.66,0,0,0,.68.32,2.48,2.48,0,0,0,.46,1.87,1.72,1.72,0,0,0,.92.73,1.86,1.86,0,0,0,1.55-.21c.54-.29,1.15-.1,1.53-.59a2.59,2.59,0,0,0,.16-3.11,2.13,2.13,0,0,0-1.72-1C53.91,5.74,53.64,6.63,52.93,6.91Z"/><path class="cls-2" d="M71.17,12.66a.84.84,0,0,0-.23.74c.07.2.47.66.74.6s.37-.68.36-.92S71.43,12.44,71.17,12.66Z"/><path class="cls-2" d="M72.37,11.89a1.82,1.82,0,0,0,.94-1.62,1.45,1.45,0,0,0-.37-1.93,1.67,1.67,0,0,0-2.13,0,.9.9,0,0,0-1.12-.37.84.84,0,0,0-.34,1.16.71.71,0,0,0,1,.38A2.29,2.29,0,0,0,71,10.89a1.21,1.21,0,0,0,.26.2.54.54,0,0,1,0,.1C71.47,11.76,71.92,12,72.37,11.89Z"/><path class="cls-2" d="M75,28.13a.72.72,0,0,0,1.19.45.76.76,0,0,0-.52-1.21A.79.79,0,0,0,75,28.13Z"/><path class="cls-2" d="M77.54,22.51A1,1,0,0,0,77,22a1.57,1.57,0,0,0-2,.9c-.08.17-.15.34-.23.52-.33-.16-.63-.33-.94-.45a.83.83,0,0,0-1.21.46,1.3,1.3,0,0,0,.13,1.49,1,1,0,0,0,.93.38.74.74,0,0,0,.34.52c.52.21,1-.34,1-.64a.52.52,0,0,0-.16-.37,1.64,1.64,0,0,1,.22-.14c.16.07.33.16.5.22a1.72,1.72,0,0,0,1.85-.45A2,2,0,0,0,77.54,22.51Z"/><path class="cls-2" d="M70.68,17.27a1.24,1.24,0,0,0-.73-.33,1.74,1.74,0,0,0-.14-.12c-1.34-.1-.94-1-1.87-1.36a1.39,1.39,0,0,0-.45-.06,1.09,1.09,0,0,0-.88,1.77,7.33,7.33,0,0,0,1.22,1.33,1.3,1.3,0,0,0,.89.23.88.88,0,0,0,.14.23q.66.7,1.56-.15A1.33,1.33,0,0,0,70.68,17.27Z"/><path class="cls-2" d="M52.41,20a1.46,1.46,0,0,0,1.55-.2,1.13,1.13,0,0,0,.1-1.36,1.59,1.59,0,0,0,.84-1.85,1.64,1.64,0,0,0-1.34-1.13,1.23,1.23,0,0,0,.37-1c0-1.15-.68-1.82-1.4-1.84a1.91,1.91,0,0,0-1.44.92.8.8,0,0,0-1-.38.91.91,0,0,0-.46,1.12.86.86,0,0,0,1.07.56l.15-.07a1.58,1.58,0,0,0,1.3,1.06h.12a1.45,1.45,0,0,0-.22,1.63,1.88,1.88,0,0,0,.36.64.78.78,0,0,0-.53.32A1.13,1.13,0,0,0,52.41,20Z"/><path class="cls-2" d="M50.84,18.61A.92.92,0,0,0,49.68,18a.86.86,0,0,0-.39,1.15.81.81,0,0,0,1,.51A.77.77,0,0,0,50.84,18.61Z"/><path class="cls-2" d="M49.71,32.79a.44.44,0,0,0-.21.44c0,.15.36.2.54.19s.4-.26.33-.49S49.87,32.75,49.71,32.79Z"/><path class="cls-2" d="M24.9,24.12c-.22.1-.73.47-.53.94s.76.26.94.16a.82.82,0,0,0,.35-.68A.54.54,0,0,0,24.9,24.12Z"/><path class="cls-2" d="M77.5,10a1.56,1.56,0,0,0,.12-2.15,2.49,2.49,0,0,0-2.58,0A1.59,1.59,0,0,0,75.21,10,1.85,1.85,0,0,0,77.5,10Z"/><path class="cls-2" d="M79.9,23.79c0,.43.3.54,1.2.44a.76.76,0,0,0-.52-1.2A.78.78,0,0,0,79.9,23.79Z"/><path class="cls-2" d="M100.62,52a.64.64,0,0,0,.26-.49c0-.13-.42-.43-.55-.37s-.17.5-.13.68S100.56,52,100.62,52Z"/><path class="cls-2" d="M101.53,49.61v0c0,.07.17.17.28.12a.27.27,0,0,0,.13-.34.25.25,0,0,0-.24-.11,5.51,5.51,0,0,1,0-.61c.29-.74-.16-1.74-.81-1.82a1.26,1.26,0,0,0-1.31.7,1,1,0,0,0,.27,1.32c.33.28.84,1,1.43.81A.62.62,0,0,0,101.53,49.61Z"/><path class="cls-2" d="M95.3,23a1.47,1.47,0,0,0,1.82-.42c.42-.48.32-1-.22-1.53a2,2,0,0,0,0-.42c-.16-.65-.7-.9-1.53-.68a1.18,1.18,0,0,0-.77,1.21,1.59,1.59,0,0,0,.52.71A1.56,1.56,0,0,0,95.3,23Z"/><path class="cls-2" d="M99.57,57.75a.83.83,0,0,0,1.11.47.88.88,0,0,0,.46-1,.84.84,0,0,0-1.14-.42A.67.67,0,0,0,99.57,57.75Z"/><path class="cls-2" d="M86.86,22.53a.67.67,0,0,0,0-.24c-.09-.26-.51-.85-.74-.79,0,0,0,0,0,0a.72.72,0,0,1-.23-.28c-.19-.43-.5-.46-1-.38s-1.24.25-1.1.94.62.68.82.61.59.15.4.29-.23.44.11.93a.88.88,0,0,0,1.27.36A1.26,1.26,0,0,0,86.86,22.53Z"/><path class="cls-2" d="M86.18,33.92c-.1,0-.44.2-.4.43s.46.26.63.24a.45.45,0,0,0,.28-.4C86.66,34,86.36,33.93,86.18,33.92Z"/><path class="cls-2" d="M84.2,15.36a1.84,1.84,0,0,0,0-1.18,1.75,1.75,0,0,0-.92-1c-.1-.23-.33-.52-.51-.51a.24.24,0,0,0-.14.06,1.39,1.39,0,0,0-.93-.53,2.56,2.56,0,0,0-2.57,1.73,2.07,2.07,0,0,0,.21,2c.43.58,1.3.27,2,.66C82.87,17.51,83.77,16.49,84.2,15.36Z"/><path class="cls-2" d="M81.64,26.93c-.1.14-.28.34-.09.55a.31.31,0,0,0,.47,0c.11-.13.37-.46.2-.65S81.69,26.84,81.64,26.93Z"/><path class="cls-2" d="M89.84,29.11c.15,0,.56-.26.52-.46s-.48-.35-.63-.31l-.13.06a.52.52,0,0,0-.7-.15c-.5.31-1.15.5-1.39,1.19l.32.78c-.4.69-.46,1.45-.09,1.73a.8.8,0,0,0,1,0c.58-.42.64-.72.33-1.52.21-.49.43-.91.58-1.36A.54.54,0,0,0,89.84,29.11Z"/><path class="cls-2" d="M69.69,21.74a.25.25,0,0,0-.15.32.28.28,0,0,0,.33.12c.08,0,.12-.24.09-.31A.26.26,0,0,0,69.69,21.74Z"/><path class="cls-2" d="M32.13,21c.3.15,1.17-1.06,1.07-1.42s-1-.36-1.42.1S31.83,20.88,32.13,21Z"/><path class="cls-2" d="M40.11,34.31A2.38,2.38,0,0,0,41.18,32a1.63,1.63,0,0,0-2.09-.82,1.84,1.84,0,0,0-1,2.06A1.65,1.65,0,0,0,40.11,34.31Z"/><path class="cls-2" d="M38.17,23.32c.26.42.42,1,1.11.83a.81.81,0,0,0,.67-.91,1.1,1.1,0,0,0-.46-.67C39,22.33,38.71,22.54,38.17,23.32Z"/><path class="cls-2" d="M33.61,14.38c-.17-.36-.43-.58-.8-.48a4.87,4.87,0,0,0-2.5,1.37,1.5,1.5,0,0,0-.2.41c-.2,1,.48,1.65,1.41,1.39a7.11,7.11,0,0,0,1.64-.74A1.7,1.7,0,0,0,33.61,14.38Z"/><path class="cls-2" d="M38.59,18.38A.89.89,0,0,0,38,19.45a1,1,0,0,0,1.16.64.91.91,0,0,0-.58-1.71Z"/><path class="cls-2" d="M27.11,20.44a.85.85,0,0,0,.79.78c.52,0,.88-1.15.6-1.41S27.09,19.93,27.11,20.44Z"/><path class="cls-2" d="M28.88,17.52c-.08.19.18.44.33.5s.56,0,.63-.27-.3-.48-.44-.5A.6.6,0,0,0,28.88,17.52Z"/><path class="cls-2" d="M34.07,27.18a1.45,1.45,0,0,0,.76-1.8,1.55,1.55,0,0,0-2.08-1A1.26,1.26,0,0,0,31.89,26,2,2,0,0,0,34.07,27.18Z"/><path class="cls-2" d="M32.66,31.36c.18-.18-.09-.73-.23-.82a.69.69,0,0,0-.64.16.67.67,0,0,0,.09.65A.75.75,0,0,0,32.66,31.36Z"/><path class="cls-2" d="M42.15,21a1.17,1.17,0,0,0-.68,1.56c.16.52.79.72,1.52.49.57-.19.84-.64.66-1.11S42.55,20.84,42.15,21Z"/><path class="cls-2" d="M53.81,31.51c.18-.48.18-.3.7-.39s1.17-.53.73-1.35A1.73,1.73,0,0,0,53,29.21a2,2,0,0,0-.59,2.68C52.84,32.45,53.64,32,53.81,31.51Z"/><path class="cls-2" d="M56.69,5.63A.59.59,0,0,0,56.6,5c-.15-.11-.46-.32-.59-.15a.57.57,0,0,0,0,.59C56.1,5.6,56.56,5.8,56.69,5.63Z"/><path class="cls-2" d="M46.69,6.74l.17-.09a1.71,1.71,0,0,0-.07,1.47,1.51,1.51,0,0,0,.3.47,2.25,2.25,0,0,0-1.85,1.06A1.63,1.63,0,0,0,46,11.51c.45.29.88.47.87,1.15,0,.49.48.6,1,.56.41-.51.37-1-.08-1.28a8.74,8.74,0,0,0,.66-1.46A2,2,0,0,0,47.79,9a1.79,1.79,0,0,0,1.09-.2c1.09-.53,1.29-1,.95-1.95a1.51,1.51,0,0,0-.9-.9q-1.38.36-2.73.78A.65.65,0,0,0,46.69,6.74Z"/><path class="cls-2" d="M54.71,23.11a1.75,1.75,0,0,0-1.78.24c-.32.36-.69.71-.31,1.28.27.41.48.86.73,1.29a.72.72,0,0,0,.93.69A1,1,0,0,0,55,25.49a2.28,2.28,0,0,1,0-.94A1.25,1.25,0,0,0,54.71,23.11Z"/><path class="cls-2" d="M56.44,15.55A.89.89,0,0,0,57,14.46a.94.94,0,0,0-1.12-.53.74.74,0,0,0-.5,1A.83.83,0,0,0,56.44,15.55Z"/><path class="cls-2" d="M44,16.8a.85.85,0,0,0-1.15-.4h0a1.59,1.59,0,0,0-.27-.8,1.64,1.64,0,0,1-.37-1.13A1.76,1.76,0,0,0,41.33,13a1.52,1.52,0,0,0-1.7,0L39.5,13a1.45,1.45,0,0,0,0-1.08c-.2-.49-.83-.65-1.55-.38-.55.2-1,.88-.83,1.29a1.59,1.59,0,0,0,1.66.9.57.57,0,0,0,.23-.12,1.47,1.47,0,0,0,0,.73A2.76,2.76,0,0,0,40,16a1.19,1.19,0,0,1,.37.59,1.1,1.1,0,0,0,1.61.91.61.61,0,0,0,.05.33,1,1,0,0,0,1.22.28A1,1,0,0,0,44,16.8Z"/><path class="cls-2" d="M48.26,26.76a2.47,2.47,0,0,0,.48-.65.85.85,0,0,0-1.14-.46c-.36.18-.31.47-.21.76S48,27,48.26,26.76Z"/><path class="cls-2" d="M47.55,22.93a2.47,2.47,0,0,0,.48-.65.85.85,0,0,0-1.14-.46c-.36.18-.31.47-.21.76S47.24,23.18,47.55,22.93Z"/><path class="cls-2" d="M48,17.41a1.76,1.76,0,0,0,.71-1.95,1,1,0,0,0-1.38-.53,1.07,1.07,0,0,0-.69,1.6C46.84,17.19,47.49,17.61,48,17.41Z"/><path class="cls-2" d="M107.46,27a1.28,1.28,0,0,0,1-1.34,1.09,1.09,0,0,0-1-.89c-.87.11-1.48.63-1.39,1.2A1.43,1.43,0,0,0,107.46,27Z"/><path class="cls-2" d="M104.19,50.41a1.39,1.39,0,0,0,.52-1.39.87.87,0,0,0-1.18-.31.82.82,0,0,0-.3,1.17C103.47,50.39,103.86,50.6,104.19,50.41Z"/><path class="cls-2" d="M103.3,43.79a.84.84,0,0,0,.93.65.94.94,0,0,0,.77-1,.92.92,0,0,0-.92-.66A1.06,1.06,0,0,0,103.3,43.79Z"/><path class="cls-2" d="M103.79,33.44a1.63,1.63,0,0,0,1.49-1.55,1.74,1.74,0,0,0-.14-.4c.15.11.33.21.47.31a.34.34,0,0,0,.51-.06,1,1,0,0,0-.26-1.29.77.77,0,0,0-1.1.54,1.82,1.82,0,0,0-1.44-.65,1.64,1.64,0,0,0-1.23,1.78A1.6,1.6,0,0,0,103.79,33.44Z"/><path class="cls-2" d="M104.05,70.94a.51.51,0,0,0,.29-.81c-.15-.24-.7-.71-.91-.61s-.3.79-.28,1.08S103.61,71.1,104.05,70.94Z"/><path class="cls-2" d="M105.48,36.08c.24-.13.85-.5.77-.82s-.85-.35-1.09-.29-.32.47-.31.71A.43.43,0,0,0,105.48,36.08Z"/><path class="cls-2" d="M104.85,52.15a.9.9,0,0,0,.36-.35.37.37,0,0,0,.18,0,.89.89,0,0,0,.69-.92.76.76,0,0,0-.87-.68.86.86,0,0,0-.67.91.76.76,0,0,0,.11.33c-.16.1-.45.3-.35.48A.58.58,0,0,0,104.85,52.15Z"/><path class="cls-2" d="M107.7,62.16a.65.65,0,0,0,.26-.49c0-.13-.22-.47-.55-.38s-.17.51-.13.68S107.64,62.21,107.7,62.16Z"/><path class="cls-2" d="M94.29,42.42a.88.88,0,0,0-.3-1.1.66.66,0,0,0-.91,0c-.52.41-.39.9-.16,1.47C93.49,42.81,94,43,94.29,42.42Z"/><path class="cls-2" d="M106.24,58.1a.92.92,0,0,0,.46-1c-.13-.28-.67-.34-1.11-.13a.48.48,0,0,0-.25.73C105.53,58,105.8,58.27,106.24,58.1Z"/><path class="cls-2" d="M99.3,31.22a.85.85,0,0,0,.82-.72.75.75,0,0,0,.63-.24.62.62,0,0,0,0-.9.65.65,0,0,0-1-.12.71.71,0,0,0-.18.27,1.34,1.34,0,0,0-.84-.29A1,1,0,0,0,98,30.28,1.23,1.23,0,0,0,99.3,31.22Z"/><path class="cls-2" d="M96,28.38a.24.24,0,0,0,.2-.3.27.27,0,0,0-.31-.16c-.08,0-.15.22-.13.29S95.9,28.41,96,28.38Z"/><path class="cls-2" d="M95,17.83a1.49,1.49,0,0,0,.28,1.57,1,1,0,0,0,1.24-.11c.56-.67.66-1.35.24-1.71A1.49,1.49,0,0,0,95,17.83Z"/><path class="cls-2" d="M96.13,15.71a1.33,1.33,0,0,0,1.11-1.12,1.21,1.21,0,0,0,.37.54.63.63,0,0,0,.93-.28h0c-1.09-.76-2.2-1.51-3.34-2.2a1.78,1.78,0,0,0-1,1.8A1.86,1.86,0,0,0,96.13,15.71Z"/><path class="cls-2" d="M97.63,36.1a1.36,1.36,0,0,0,.93-1.68,1.42,1.42,0,0,0-1.65-.87,1.33,1.33,0,0,0,.72,2.55Z"/><path class="cls-2" d="M102.48,39.54c-.13-.28-.58-.94-.88-.86s-.44.83-.46,1.15.5.58.88.46S102.65,39.9,102.48,39.54Z"/><path class="cls-2" d="M102.68,37.34c-.05-.24-.84-.87-1.24-.7s-.26,1.21-.1,1.54a1,1,0,0,0,1,.4C102.78,38.41,102.77,37.71,102.68,37.34Z"/><path class="cls-2" d="M108.87,35.87a1.24,1.24,0,0,0,.73-1.45c-.17-.83-.55-1.17-1.17-1.06a1.48,1.48,0,0,0-.85.57.87.87,0,0,0,0-.22.86.86,0,1,0-1.6.63,1,1,0,0,0,1.19.39,1.77,1.77,0,0,0,.17-.12.79.79,0,0,0,0,.22A1.57,1.57,0,0,0,108.87,35.87Z"/><path class="cls-2" d="M97.75,42.83c.07,0,.34-.24.32-.32S98,42,97.67,42s-.36.4-.33.48A.78.78,0,0,0,97.75,42.83Z"/><path class="cls-2" d="M98.62,62.92c.22-.09.32-.69.24-.81s-.46-.48-.65-.43-.37.49-.33.69S98.4,63,98.62,62.92Z"/><path class="cls-2" d="M107.25,40.52c-.13-.35-1-.53-1.21-.32a1,1,0,0,0,0,.89.52.52,0,0,0,.8.33C107.13,41.22,107.42,41,107.25,40.52Z"/><path class="cls-2" d="M123.87,69.32h0l.06-.67A.79.79,0,0,0,123.87,69.32Z"/><path class="cls-2" d="M121.49,71.79c0,.57,0,1.16.72,1.22a.89.89,0,0,0,1-.58.64.64,0,0,0,0-.53,10.73,10.73,0,0,0-1-.86c0-1.06-.39-1.79-1-1.81a1.77,1.77,0,0,0-1.45,1.5C119.68,71.46,120,71.68,121.49,71.79Z"/><path class="cls-2" d="M120.38,67a1.83,1.83,0,0,0,.47-1.62c-.17-.45-.63-.54-1.25-.25s-.9.71-.67,1.2C119.24,67,119.86,67.32,120.38,67Z"/><path class="cls-2" d="M119.16,74.89a1.41,1.41,0,0,0-1.6-.77,1,1,0,0,0-.55,1.21,1.23,1.23,0,0,0,1.53.61A.85.85,0,0,0,119.16,74.89Z"/><path class="cls-2" d="M81.63,10.26a1.55,1.55,0,0,0,1.74-1,1.61,1.61,0,0,0-.67-1.38,1.83,1.83,0,0,0,0-.4.51.51,0,0,0-.76-.39c-.27.13-.51.3-.54.58a1.49,1.49,0,0,0-1,1C80.09,9.24,80.81,10,81.63,10.26Z"/><path class="cls-2" d="M119.43,86.78c-.28.06-.25.47-.2.54a.5.5,0,0,0,.13.12c.09-.22.17-.43.26-.64A.3.3,0,0,0,119.43,86.78Z"/><path class="cls-2" d="M122.25,74.15a1.65,1.65,0,0,0-.79,2,1.69,1.69,0,0,0,1.2,1c.22-1,.41-2,.58-2.93A1.37,1.37,0,0,0,122.25,74.15Z"/><path class="cls-2" d="M107,81.74c-.06-.15-.38-.18-.55-.15s-.39.29-.3.52.51.14.67.08A.42.42,0,0,0,107,81.74Z"/><path class="cls-2" d="M118,81.07a1.35,1.35,0,0,0,.52-1.85,1.43,1.43,0,0,0-1.81-.47A1.33,1.33,0,0,0,118,81.07Z"/><path class="cls-2" d="M114.93,71.21a1,1,0,0,0,.43-1.15,1,1,0,0,0-1.26-.4.79.79,0,0,0-.36,1A.86.86,0,0,0,114.93,71.21Z"/><path class="cls-2" d="M116.25,88a.88.88,0,0,0-.55-1,.65.65,0,0,0-.89.18c-.41.52-.17,1,.18,1.47C115.56,88.55,116.13,88.63,116.25,88Z"/><path class="cls-2" d="M110.24,56.3a.69.69,0,0,0,.45-1,.76.76,0,0,0-.93-.42c-.35.09-.63,1-.37,1.21A1,1,0,0,0,110.24,56.3Z"/><path class="cls-2" d="M111.87,61.58c.79-.3,1-1.22.64-2.21a1.41,1.41,0,0,0-1.92-.78,1.76,1.76,0,0,0-.86,2.19A1.85,1.85,0,0,0,111.87,61.58Z"/><path class="cls-2" d="M110,48.6a1.29,1.29,0,0,0,.77.07,1.2,1.2,0,0,0,.8-1.41c-.13-.61-.47-.88-1-.79a1.77,1.77,0,0,0-.42.15.91.91,0,0,0-.77,0,1.56,1.56,0,0,0-.72,1.65C108.82,48.55,109.45,48.7,110,48.6Z"/><path class="cls-2" d="M109.85,52c-.22.19-.47.41-.43.68s.81.59,1.17.38.27-.49.15-.77S110.14,51.7,109.85,52Z"/><path class="cls-2" d="M108.85,76.07c.14,0,.48-.38.39-.58s-.55-.22-.68-.15a.48.48,0,0,0-.25.52A.5.5,0,0,0,108.85,76.07Z"/><path class="cls-2" d="M111.66,72.14c.31-.2.55-.5.3-.82s-.77-.75-1.07-.62-.16,1-.06,1.24S111.29,72.39,111.66,72.14Z"/><path class="cls-2" d="M114.68,73.94a.25.25,0,0,0,.13-.34.28.28,0,0,0-.34-.09c-.07,0-.1.25-.06.31A.26.26,0,0,0,114.68,73.94Z"/><path class="cls-2" d="M113.43,68.08a1.47,1.47,0,0,0,.3-1.84c-.31-.61-.89-.72-1.64-.32a1.18,1.18,0,0,0-.48,1.36C111.85,67.77,113.05,68.29,113.43,68.08Z"/><path class="cls-2" d="M65.27,29.18c.31-.09.24-1,.14-1.05-.29-.23-.62-.61-1-.49s-.3.63-.2.77S65,29.28,65.27,29.18Z"/><path class="cls-2" d="M115.83,67.13a.87.87,0,0,0,.16-.79c-.08-.18-.66-.51-.87-.4s-.26.84-.16.93S115.66,67.29,115.83,67.13Z"/><path class="cls-2" d="M118.11,60.64a1.6,1.6,0,0,0-.63-1.83c-.51-.34-1.38.19-1.88.9a1.54,1.54,0,0,0,.54,1.93A1.61,1.61,0,0,0,118.11,60.64Z"/><path class="cls-2" d="M114.51,58.9a.93.93,0,0,0,.59-.55c.11-.59-.39-.71-.82-.85-.45.3-.7.66-.41,1.14A.7.7,0,0,0,114.51,58.9Z"/><path class="cls-2" d="M114.7,49a1.27,1.27,0,0,0-.3-1c-.5-.44-.86.06-1.31.37.15.64.35,1.14,1,1.11C114.32,49.46,114.69,49.17,114.7,49Z"/><path class="cls-2" d="M118.44,55.36a14.48,14.48,0,0,0-1.37-1.22.76.76,0,0,0-1.11.19.8.8,0,0,0,.1,1.12,2.51,2.51,0,0,1,.46.61,1.25,1.25,0,0,0,1.46.75C118.61,56.68,118.84,56.22,118.44,55.36Z"/><path class="cls-2" d="M122.61,51.28a1.46,1.46,0,0,1-1.34.85,1.36,1.36,0,0,0-.88,1.3,1.8,1.8,0,0,0,1.52,1c.4,0,1-.06,1-.57a1.53,1.53,0,0,1,.23-.69c-.13-.68-.26-1.35-.4-2A.3.3,0,0,0,122.61,51.28Z"/><path class="cls-2" d="M119.2,53.65a.68.68,0,0,0,.24-.21h.1c.25-.1.58-.49.55-.7s-.19-.32-.34-.45a.6.6,0,0,0-.08-.2,1.57,1.57,0,0,0-1.65-.37.8.8,0,0,0-.31,1.16C118.13,53.69,118.6,53.94,119.2,53.65Z"/><path class="cls-2" d="M112.57,56.64a1.31,1.31,0,0,0,.91-.49.4.4,0,0,0-.17-.61.91.91,0,0,0-.72.15c-.22.12-.47.18-.58.43S112.2,56.66,112.57,56.64Z"/><path class="cls-2" d="M118.27,64.53a.89.89,0,0,0-.54-1,.67.67,0,0,0-.9.19c-.4.52-.16,1,.19,1.47C117.58,65.09,118.15,65.17,118.27,64.53Z"/><path class="cls-2" d="M112.54,53.07a.54.54,0,0,0-.28.6.46.46,0,0,0,.51.37.5.5,0,1,0-.23-1Z"/><path class="cls-2" d="M99.74,24a1.78,1.78,0,0,1,1.12-.39c.19,0,.43-.44.44-.68a1,1,0,0,0-.4-.73.82.82,0,0,0-.71.12,7.45,7.45,0,0,0-1,.9c-.26.27-.19.54.12.81C99.46,24,99.66,24.09,99.74,24Z"/><path class="cls-2" d="M105.42,20.47c-.85-.81-1.72-1.59-2.62-2.35a.68.68,0,0,0,0,.14c-.06.83.42,1.67,1.13,1.49a2,2,0,0,0,.27.34A1.46,1.46,0,0,0,105.42,20.47Z"/><path class="cls-2" d="M101.35,16.94c-.49-.39-1-.79-1.49-1.16a1.33,1.33,0,0,0,.41,1A1.51,1.51,0,0,0,101.35,16.94Z"/><path class="cls-2" d="M88,9h.07l-.72-.32A.79.79,0,0,0,88,9Z"/><path class="cls-2" d="M123.63,56.42l-.12.11,0,0,.21.47C123.68,56.78,123.66,56.6,123.63,56.42Z"/><path class="cls-2" d="M111.41,29.17a2.06,2.06,0,0,0,.76,2.17,2,2,0,0,0,2.13-.26,60.92,60.92,0,0,0-3.82-5.2l-.29.11a1.17,1.17,0,0,0-.48,1.89A9.64,9.64,0,0,0,111.41,29.17Z"/><path class="cls-2" d="M111.52,36.27a.87.87,0,0,0,.51-1.11.67.67,0,0,0-1-.46.82.82,0,1,0,.46,1.57Z"/><path class="cls-2" d="M108.51,29.93c.22,0,.5-.32.6-.55a.73.73,0,0,0-.18-.66c-.44-.33-.84-.14-1.2.29C107.84,29.45,107.92,30,108.51,29.93Z"/><path class="cls-2" d="M110.07,25.4c-.86-1-1.75-2-2.67-3a3,3,0,0,0-.08.32,2.68,2.68,0,0,0,.26,1.16,2.31,2.31,0,0,0,.47.62,7.43,7.43,0,0,0,.59.53A1.28,1.28,0,0,0,110.07,25.4Z"/><path class="cls-2" d="M45.25,28.46c.14-.06.35-.3.29-.5a.5.5,0,0,0-.52-.25c-.15,0-.51.35-.44.55S45.11,28.52,45.25,28.46Z"/><path class="cls-2" d="M64.2,16.59c.33-.33-.06-1.34-.43-1.33s-.9.88-.59,1.23A.81.81,0,0,0,64.2,16.59Z"/><path class="cls-2" d="M66.37,24.72a1.66,1.66,0,0,0,.8-1.93,1.2,1.2,0,0,0-1.57-.45A1.12,1.12,0,0,0,65,23.93C65.24,24.61,65.86,25,66.37,24.72Z"/><path class="cls-2" d="M62,22.82a.81.81,0,0,0,.57-1.05.84.84,0,0,0-1.07-.55,1,1,0,0,0-.59,1.09A.84.84,0,0,0,62,22.82Z"/><path class="cls-2" d="M63.37,9.91A.8.8,0,0,0,62.82,9c-.67-.23-.91.3-1.16.77l-.88-.22c0-.08,0-.16,0-.24a1.84,1.84,0,0,0,.38-.26c.54-.45,1.09-.87,1.63-1.3.87.93,1,.93,1.64,0a1.21,1.21,0,0,0,.77,0,.76.76,0,0,0,.45-1A1.15,1.15,0,0,0,64.38,6a.94.94,0,0,0-.66,1.13,1.23,1.23,0,0,0-.52.07c-.82-1.37-1.74-1.27-2.58.2a1.82,1.82,0,0,1-.33,0,.65.65,0,0,0-.75.27,1.47,1.47,0,0,0-.85.28,1.26,1.26,0,0,0,.23,1.55c.14.18.3.33.45.5a3,3,0,0,0-.26,1.57,3.9,3.9,0,0,0-.35.19,1.56,1.56,0,0,0-.25,2,1.6,1.6,0,0,0,2.2-.16,1.71,1.71,0,0,0,.39-1.23l.22-.06c.87-.27,1-.95.92-1.73C62.72,10.5,63.31,10.63,63.37,9.91Z"/><path class="cls-2" d="M66,22.06c.4-.34.29-1.14-.23-1.72a1,1,0,0,0-1.25,0,1.21,1.21,0,0,0-.19,1.53A1.4,1.4,0,0,0,66,22.06Z"/><path class="cls-2" d="M91.77,24.3a.82.82,0,0,0,.28-.7,1.33,1.33,0,0,0-.09-.81,1.76,1.76,0,0,0-1.28-.89,1.32,1.32,0,0,0-1.26.62,1.14,1.14,0,0,0,0,1.16,1.38,1.38,0,0,0,1,.74C91,24.4,91.49,24.59,91.77,24.3Z"/><path class="cls-2" d="M88,11.39a1.68,1.68,0,0,0-1-.81.93.93,0,0,0-.91-.32c-.25.08-.35.39-.38.7a1.61,1.61,0,0,0-.49,2.09,2,2,0,0,0,2.4.34A1.52,1.52,0,0,0,88,11.39Z"/><path class="cls-2" d="M78.23,18.25c.59.22,1-.16,1.26-.69-.17-.47-.38-.94-1-.91a.76.76,0,0,0-.75.83A1,1,0,0,0,78.23,18.25Z"/><path class="cls-2" d="M77.77,12.45a.84.84,0,0,0-1-.56A.86.86,0,0,0,76.21,13a.67.67,0,0,0,.93.54A.83.83,0,0,0,77.77,12.45Z"/><path class="cls-2" d="M60.06,30c.21-.06.2-.49.18-.67s-.25-.28-.4-.21a.6.6,0,0,0-.31.47C59.55,29.75,59.85,30.1,60.06,30Z"/><path class="cls-2" d="M59.73,5.69a1.79,1.79,0,0,0,2.41-.42A1.94,1.94,0,0,0,62.49,4c-1.14,0-2.28.09-3.4.18A1.9,1.9,0,0,0,59.73,5.69Z"/><path class="cls-2" d="M41.86,9C42.6,8.75,43,8.29,43,7.81c-.69.26-1.38.53-2.06.81A.7.7,0,0,0,41.86,9Z"/><path class="cls-2" d="M92.63,33.53c.41-.37.48-1.15.12-1.39s-1.61.42-1.64.92S92.22,33.9,92.63,33.53Z"/><path class="cls-2" d="M43,10.71a1,1,0,0,0,.51-1.19,1,1,0,0,0-1.24-.44.88.88,0,0,0-.48,1.11A1,1,0,0,0,43,10.71Z"/><path class="cls-2" d="M58.52,24.61a.57.57,0,0,0,.53-.71c-.09-.4-.59-.78-.9-.58s-.82.62-.65,1S58.26,24.64,58.52,24.61Z"/><path class="cls-2" d="M36.67,18.56a1,1,0,0,0,.86-.29,1,1,0,0,0-.46-1.47.88.88,0,0,0-1.07,1A1.16,1.16,0,0,0,36.67,18.56Z"/><path class="cls-2" d="M58.35,9.17c.19-.19.15-.62.18-.84-.46-.44-.79-.32-1-.08s-.39.65,0,.88A1,1,0,0,0,58.35,9.17Z"/><path class="cls-2" d="M59.65,19.71a.85.85,0,0,0-1.17-.52,1,1,0,0,0-.39,1.27.93.93,0,0,0,1.16.39A.84.84,0,0,0,59.65,19.71Z"/><path class="cls-2" d="M60.71,15.81a.54.54,0,0,0,.12.09,1,1,0,0,0,.82.09c.59-.32.51-.85.22-1.48a2.9,2.9,0,0,0-.88,0l-.11,0a.69.69,0,0,0-.6.27,1.08,1.08,0,0,0,.08.89A.5.5,0,0,0,60.71,15.81Z"/><path class="cls-3" d="M30.11,29.38h0a1.11,1.11,0,0,0-.16,1.27,8,8,0,0,0,1.4,2c.69.84,1.49,1.89,2.66,1.85l-.69-.28a17.36,17.36,0,0,1,2,2.4c.73.87,1.51,1.71,2.25,2.58a14.81,14.81,0,0,1,.84,1.23c.31.44.65.84,1,1.25.64.85,1.52,2.19,2.71,2.22a1.15,1.15,0,0,0,1.07-.81c.36-1.1-.7-2.39-1.36-3.16-.34-.4-.67-.81-1-1.18s-.88-.75-1.28-1.17c-.77-.8-1.5-1.62-2.3-2.39a20,20,0,0,1-2.34-2.16l.13.5c.09-1.16-1-2-1.75-2.77a12.67,12.67,0,0,0-1.86-1.57,1,1,0,0,0-1.06,0,1,1,0,0,0-.2.15Z"/><path class="cls-3" d="M83.32,85.53h0a1.14,1.14,0,0,0-.17,1.28,8.3,8.3,0,0,0,1.41,2c.69.83,1.48,1.88,2.66,1.85l-.69-.29a17.36,17.36,0,0,1,2,2.4c.73.88,1.51,1.71,2.24,2.58a14.92,14.92,0,0,1,.85,1.23c.31.44.64.84,1,1.26.64.84,1.52,2.18,2.71,2.21a1.12,1.12,0,0,0,1.06-.81c.37-1.1-.69-2.39-1.35-3.16-.34-.4-.68-.81-1.05-1.18s-.88-.75-1.28-1.16c-.78-.8-1.5-1.63-2.3-2.4a20.88,20.88,0,0,1-2.35-2.15l.14.49c.08-1.16-1-2-1.75-2.76a13.29,13.29,0,0,0-1.86-1.58,1,1,0,0,0-1.06,0,.78.78,0,0,0-.21.16Z"/><path class="cls-3" d="M29.9,97.62h0a1.12,1.12,0,0,0,1.27.16,8.26,8.26,0,0,0,2-1.4c.83-.69,1.88-1.49,1.85-2.66l-.29.69a16.7,16.7,0,0,1,2.4-2c.88-.74,1.71-1.51,2.59-2.25A14.65,14.65,0,0,1,41,89.29c.45-.31.84-.65,1.26-1,.85-.64,2.18-1.53,2.21-2.71a1.11,1.11,0,0,0-.81-1.07c-1.09-.36-2.39.7-3.16,1.36-.39.34-.81.67-1.18,1s-.75.88-1.16,1.28c-.8.77-1.62,1.49-2.39,2.3a21.86,21.86,0,0,1-2.16,2.34l.49-.13c-1.15-.09-2,1-2.76,1.75a12.74,12.74,0,0,0-1.58,1.86,1.06,1.06,0,0,0,0,1.06,1,1,0,0,0,.16.2Z"/><path class="cls-3" d="M84.23,43.53h0a1.14,1.14,0,0,0,1.27.16,8.6,8.6,0,0,0,2-1.4c.83-.7,1.88-1.49,1.84-2.67l-.28.69a18.08,18.08,0,0,1,2.4-2c.88-.73,1.71-1.51,2.58-2.24.38-.32.82-.56,1.23-.85s.84-.64,1.25-.95c.85-.64,2.19-1.53,2.22-2.71A1.14,1.14,0,0,0,98,30.46c-1.1-.36-2.39.7-3.16,1.35-.4.34-.81.68-1.18,1.05s-.75.89-1.17,1.29c-.79.77-1.62,1.49-2.39,2.3a20,20,0,0,1-2.16,2.34l.5-.13c-1.16-.09-2,1-2.77,1.75a13.24,13.24,0,0,0-1.57,1.85,1,1,0,0,0,0,1.06.8.8,0,0,0,.15.21Z"/><path class="cls-3" d="M103.87,86.27c1.8-1.19,2.51-4.32,3-6.27a23.35,23.35,0,0,0,.84-4.12c.06-.72-.13-1.41-.08-2.13s.2-1.61.31-2.42a62.18,62.18,0,0,0,.66-9.35,74.17,74.17,0,0,0-.56-9.18c-.39-2.77-.78-6.32-2.72-8.51a1.12,1.12,0,0,0-1.89.79c.11,2.37,1.08,4.77,1.53,7.1a53.84,53.84,0,0,1,1.09,8.58c.09,3,.13,6,0,8.94a15,15,0,0,1-.47,4.48A11.17,11.17,0,0,0,105,76c-.12.67-.25,1.33-.4,2-.3,1.36-.63,2.72-1,4.05a11.68,11.68,0,0,0-1,3.53.85.85,0,0,0,1.27.73Z"/><path class="cls-3" d="M86.46,26.94c-1.19-1.8-4.32-2.52-6.27-3a24.31,24.31,0,0,0-4.12-.85c-.72-.06-1.41.13-2.13.08s-1.61-.2-2.42-.31a62.17,62.17,0,0,0-9.35-.65,72.27,72.27,0,0,0-9.18.55c-2.77.39-6.32.79-8.51,2.72a1.12,1.12,0,0,0,.79,1.89c2.37-.11,4.77-1.07,7.1-1.52A52.73,52.73,0,0,1,61,24.71c3-.09,6-.13,8.94,0a15,15,0,0,1,4.48.47,10.28,10.28,0,0,0,1.79.63c.67.12,1.33.25,2,.4,1.36.3,2.72.63,4,1a12,12,0,0,0,3.53,1,.85.85,0,0,0,.73-1.27Z"/><path class="cls-3" d="M24.45,42.4c-1.8,1.18-2.52,4.31-3,6.27a22.33,22.33,0,0,0-.85,4.12c-.06.71.13,1.4.08,2.12s-.2,1.62-.31,2.42a62.27,62.27,0,0,0-.66,9.35,74.17,74.17,0,0,0,.56,9.18c.39,2.77.78,6.32,2.72,8.51a1.12,1.12,0,0,0,1.89-.78c-.11-2.38-1.07-4.78-1.53-7.1a54.11,54.11,0,0,1-1.09-8.59c-.09-3-.13-6,0-8.93a15,15,0,0,1,.47-4.49,10.28,10.28,0,0,0,.63-1.79c.12-.66.25-1.33.4-2,.3-1.36.63-2.72,1-4a12.08,12.08,0,0,0,1-3.53.85.85,0,0,0-1.27-.73Z"/><path class="cls-3" d="M42.1,104.41c1.18,1.8,4.31,2.52,6.27,3a24.11,24.11,0,0,0,4.12.85c.71,0,1.4-.14,2.12-.09s1.62.2,2.43.31a60.86,60.86,0,0,0,9.34.66,74.05,74.05,0,0,0,9.18-.56c2.77-.38,6.33-.78,8.51-2.72a1.12,1.12,0,0,0-.78-1.89c-2.37.11-4.77,1.08-7.1,1.53a54,54,0,0,1-8.58,1.09c-3,.1-6,.13-8.94,0a15.06,15.06,0,0,1-4.49-.48,10,10,0,0,0-1.79-.62c-.66-.13-1.33-.26-2-.41-1.35-.3-2.71-.62-4-1a12,12,0,0,0-3.53-1,.85.85,0,0,0-.73,1.27Z"/><circle class="cls-4" cx="64.93" cy="64.09" r="25.53"/><path class="cls-5" d="M47.72,73.93c0-.14-.4-.29-.59-.26a.78.78,0,0,0-.53.41.63.63,0,0,0,.18.54,6,6,0,0,0,.83.66c.26.17.46.09.63-.2,0-.09,0-.25-.07-.31A1.45,1.45,0,0,1,47.72,73.93Z"/><path class="cls-5" d="M59.69,86c0-.21.05-.42.06-.64a.62.62,0,0,0-.62-.66.66.66,0,0,0-.71.57,2,2,0,0,1-.19.58,1,1,0,0,0,.15,1.31l.06,0a1.38,1.38,0,0,0,1.37.6,1,1,0,0,0,.41-1.19A.9.9,0,0,0,59.69,86Z"/><path class="cls-5" d="M48.21,80.07a1.21,1.21,0,0,0-.06-.48c-.16-.55-.65-.92-1-.8a1.41,1.41,0,0,0-.69,1.52.68.68,0,0,0,.12.24,1,1,0,0,0-.15.63,1.07,1.07,0,0,0,.64.92A.91.91,0,0,0,48,82a1.09,1.09,0,0,0,.46-.92C48.35,80.68,48.41,80.28,48.21,80.07Z"/><path class="cls-5" d="M59.1,88.49a.93.93,0,0,0-.63.3c.67.18,1.36.32,2.05.44C60.42,88.79,59.75,88.5,59.1,88.49Z"/><path class="cls-5" d="M43.33,73.83a.47.47,0,0,0-.22.39c0,.1.28.36.45.3s.13-.41.1-.55S43.45,73.76,43.33,73.83Z"/><path class="cls-5" d="M48,76.15a.65.65,0,0,0-.76-.47.62.62,0,0,0-.52.79.74.74,0,0,0,.89.57A.69.69,0,0,0,48,76.15Z"/><path class="cls-5" d="M56.72,86.26c-.25,0-.27.37-.09.61a1,1,0,0,0,.73.38.31.31,0,0,0,.33-.38c0-.21-.23-.31-.42-.41A.87.87,0,0,0,56.72,86.26Z"/><path class="cls-5" d="M39.61,67.35c0,.33.09.65.14,1a.44.44,0,0,0,.13-.41A1,1,0,0,0,39.61,67.35Z"/><path class="cls-5" d="M51.5,84.1A.76.76,0,0,0,51,85a.81.81,0,0,0,1,.43.69.69,0,0,0,.45-.86A.75.75,0,0,0,51.5,84.1Z"/><path class="cls-5" d="M51.22,85.52a.18.18,0,0,0-.21,0l.32.2A.36.36,0,0,0,51.22,85.52Z"/><path class="cls-5" d="M72,74.38a.7.7,0,0,0-1,.28.73.73,0,0,0,.27.93.7.7,0,0,0,1-.2A.76.76,0,0,0,72,74.38Z"/><path class="cls-5" d="M68.48,89.37h0Z"/><path class="cls-5" d="M72.11,80.5c0,.17.38.2.52.2s.24-.17.2-.3a.47.47,0,0,0-.35-.28C72.38,80.11,72.07,80.32,72.11,80.5Z"/><path class="cls-5" d="M72.7,78.87a.49.49,0,0,0,.16.76.7.7,0,0,0,.58-.23c.1-.14.19-.62,0-.76S72.84,78.74,72.7,78.87Z"/><path class="cls-5" d="M70.59,81.06a.9.9,0,0,0,.42,1.3c.42.25.87.07,1.2-.47a.75.75,0,0,0-.12-1.06A1.46,1.46,0,0,0,70.59,81.06Z"/><path class="cls-5" d="M69.76,82.9a.71.71,0,0,0,.3.92.6.6,0,0,0,.63-.06.76.76,0,0,0,.45-.19.52.52,0,0,0-.07-.52l0,0a.6.6,0,0,0-.33-.39A.74.74,0,0,0,69.76,82.9Z"/><path class="cls-5" d="M73.55,82.17a1,1,0,0,0-.07,1,1.87,1.87,0,0,0-.26.3.61.61,0,0,0-.78.25.93.93,0,0,0,.14,1.23.77.77,0,0,0,.8,0,1.15,1.15,0,0,0,1,.22,1.26,1.26,0,0,0,1-1.58,1.55,1.55,0,0,0-.18-.39l.07-.08a1.1,1.1,0,0,0-.19-1.4A1.32,1.32,0,0,0,73.55,82.17Z"/><path class="cls-5" d="M79.6,82.44a1.13,1.13,0,0,0-.37,0,.88.88,0,0,0-.78.93.71.71,0,0,0-.28-.09.92.92,0,0,0-.91.61,1.29,1.29,0,0,0-1.58.39,1.34,1.34,0,0,0-.05,1.4,1,1,0,0,0-.78.24,1.33,1.33,0,0,0-.47,1.8s0,0,.06.06c.78-.31,1.53-.66,2.27-1a1.74,1.74,0,0,0-.15-.4.25.25,0,0,0,0-.07,1.13,1.13,0,0,0,.26,0,.62.62,0,0,0,.1.16.55.55,0,0,0,.21.12q.52-.29,1-.6a.71.71,0,0,0-.35-.6,1.61,1.61,0,0,0,.09-.29.61.61,0,0,0,.46.18.89.89,0,0,0,.72-1,5.62,5.62,0,0,0,.71.58c.53-.38,1-.78,1.54-1.19A3.7,3.7,0,0,0,79.6,82.44Z"/><path class="cls-5" d="M70.12,77.37a.66.66,0,0,0-1,.12.66.66,0,0,0,.13.88.68.68,0,0,0,1-.15A.53.53,0,0,0,70.12,77.37Z"/><path class="cls-5" d="M79.44,76.77a1.12,1.12,0,0,0-.36-.09c-.13-.35-.31-.5-.57-.46-.48.08-.57.43-.54.85a1.14,1.14,0,0,0-.16.15,1,1,0,0,0,.5,1.22,1,1,0,0,0,1.13-1.67Z"/><path class="cls-5" d="M76.37,82.51c.3-.05.37-.72,0-1.14s-.93-.06-1.08.17S76.08,82.56,76.37,82.51Z"/><path class="cls-5" d="M80.26,73.86a.46.46,0,0,0-.22.39c0,.11.25.17.46.3.07-.22.19-.4.15-.52A.42.42,0,0,0,80.26,73.86Z"/><path class="cls-5" d="M79.05,80.15c-.22.26-.2.77.08.86s.79.21,1-.09-.18-.63-.33-.78A.45.45,0,0,0,79.05,80.15Z"/><path class="cls-5" d="M77.63,82.94c.23-.06.25-.39.22-.49s-.2-.32-.37-.29-.26.28-.25.41S77.4,83,77.63,82.94Z"/><path class="cls-5" d="M77.71,75a.22.22,0,0,0-.09-.26c-.06,0-.21,0-.24.09s0,.19.05.24A.2.2,0,0,0,77.71,75Z"/><path class="cls-5" d="M76.74,80c0,.41.8.8,1.07.6s0-1.13-.38-1.17A.69.69,0,0,0,76.74,80Z"/><path class="cls-5" d="M81.67,76.32c-.12-.09-.31,0-.43.14l0,0c-.11.16-.31.33-.3.47s.13.58.47.5.31-.38.28-.56h0C81.74,76.78,81.81,76.42,81.67,76.32Z"/><path class="cls-5" d="M75.06,75.66a.71.71,0,0,0,.25-.58c-.12-.44-.69-.44-.89-.32a.62.62,0,0,0,.1.93A.57.57,0,0,0,75.06,75.66Z"/><path class="cls-5" d="M80.54,79.74c.11.5.42.76.66.61a1.07,1.07,0,0,0,.46-.65c0-.27-.46-.54-.74-.4S80.62,79.64,80.54,79.74Z"/><path class="cls-5" d="M41.17,68a.79.79,0,0,0,1,.32.64.64,0,0,0,.29-.84.69.69,0,0,0-.95-.41A.78.78,0,0,0,41.17,68Z"/><path class="cls-5" d="M74.09,78a.65.65,0,0,0,.51.33.38.38,0,0,0,.28-.11.67.67,0,0,0,0,.25c.6.9-.15,1.08.06,1.86a1,1,0,0,0,.19.31.87.87,0,0,0,1.55-.32,5.34,5.34,0,0,0,.23-1.43,1.34,1.34,0,0,0-1.1-1.16A.93.93,0,0,0,75,78a.42.42,0,0,0,0-.22c-.06-.18-.49-.58-.69-.5S74,77.82,74.09,78Z"/><path class="cls-5" d="M59.07,74.27a.56.56,0,0,0,0-.53.59.59,0,0,0-.63,0c-.21.14,0,.58.13.66A.52.52,0,0,0,59.07,74.27Z"/><path class="cls-5" d="M57.72,76.19A1.16,1.16,0,0,0,57,77.58a1.26,1.26,0,0,0,1.6.92,1.43,1.43,0,0,0,.39-.2l-.09.13c-.23.39-.2.74.07.87a1.16,1.16,0,0,0,.87-.06.61.61,0,0,0-.1.32c.06.3.74.35,1.15,0s0-.94-.2-1.08-.3.08-.49.28a.76.76,0,0,0-.39-.67.61.61,0,0,0-.67.06.9.9,0,0,0,.25-.88C59.18,76.59,58.28,76,57.72,76.19Z"/><path class="cls-5" d="M67.41,76.75a.62.62,0,0,0,.87-.18.69.69,0,1,0-1.14-.77A.8.8,0,0,0,67.41,76.75Z"/><path class="cls-5" d="M42.9,65a1.13,1.13,0,0,0-.13-1.48,1.19,1.19,0,0,0-1.48.25c-.24.31,0,1,.41,1.35A.84.84,0,0,0,42.9,65Z"/><path class="cls-5" d="M67,80.54a1.34,1.34,0,0,0,1.61-.45A.83.83,0,0,0,68.23,79,1,1,0,0,0,67,80.54Z"/><path class="cls-5" d="M57.82,84.58c.25.2.52.27.74.06a4.47,4.47,0,0,0,1.13-1.36,1.42,1.42,0,0,0,.43.45.81.81,0,0,0,1-.33,1,1,0,0,0-.23-1.22,1.31,1.31,0,0,0-1.11,0,.85.85,0,0,0-1.43-.29A5.55,5.55,0,0,0,57.45,83,1.36,1.36,0,0,0,57.82,84.58Z"/><path class="cls-5" d="M42.21,75.45a.13.13,0,0,0,0-.06.61.61,0,0,0-.31-.28c.22.46.46.91.7,1.35a.22.22,0,0,0,0-.08c.23-.15.48-.39.4-.64S42.44,75.44,42.21,75.45Z"/><path class="cls-5" d="M59.83,81c.12,0,.31-.2.28-.38s-.28-.25-.41-.24-.43.19-.36.42S59.73,81.07,59.83,81Z"/><path class="cls-5" d="M58.73,81.5a.44.44,0,0,0-.17-.45c-.13-.06-.41-.17-.48,0a.46.46,0,0,0,.09.46C58.26,81.57,58.66,81.66,58.73,81.5Z"/><path class="cls-5" d="M69.71,86.47a1.32,1.32,0,0,0-.47-1.67,1.43,1.43,0,0,0-1.78.34,1.39,1.39,0,0,0,.27,1.79A1.9,1.9,0,0,0,69.71,86.47Z"/><path class="cls-5" d="M40.62,69.41a1.09,1.09,0,0,0-.78-.61c.11.6.24,1.2.39,1.79a.54.54,0,0,0,.12-.09,1.43,1.43,0,0,0,.47,1,.2.2,0,0,0-.13,0c-.08,0-.13.1-.15.21.2.64.43,1.27.68,1.9a.58.58,0,0,0,.19-.16.67.67,0,0,0-.21-.94.72.72,0,0,0-.33-.11v0a.71.71,0,0,0-.1-.14h0a.5.5,0,0,0,.28-.36.54.54,0,0,0-.22-.3,1.46,1.46,0,0,0,1.28,0,.6.6,0,0,0,0,.54.8.8,0,0,0,.4.41,1,1,0,0,0-.06.16A.75.75,0,0,0,43.6,73c.07-.36.1-.71-.21-.89a.65.65,0,0,0,0-.56.78.78,0,0,0-.72-.35s0,0,.06,0c.43-.53.2-1.33-.52-1.88a1.12,1.12,0,0,0-1.56.19S40.64,69.44,40.62,69.41Z"/><path class="cls-5" d="M72.88,87.82a.88.88,0,0,0-.12-.19s0,0,0,0a.83.83,0,0,0,.57-.3c.23-.34.09-.62-.49-1.12l-.09,0a.85.85,0,0,0-.94-.54.87.87,0,0,0-.33.17l-.09-.15-1.09.06L70.2,86c.22.23.31.85.74.79a.4.4,0,0,0,.27-.18s0,0,0,.07a.78.78,0,0,0,.74.54,1.52,1.52,0,0,0-.51.09.55.55,0,0,0-.15.08A1.42,1.42,0,0,0,70,87a1.33,1.33,0,0,0-1,1.49,1.55,1.55,0,0,0,.63.71,25.74,25.74,0,0,0,3.3-.85A.76.76,0,0,0,72.88,87.82Zm-.82-.56h.13s0,0,0,0Z"/><path class="cls-5" d="M46.51,69.69c.32-.14.21-1,.08-1.23a.76.76,0,0,0-.84-.33c-.31.14-.3.7-.24,1S46.19,69.83,46.51,69.69Z"/><path class="cls-5" d="M53.82,85.88c.13.05.31.18.45,0a.24.24,0,0,0-.05-.37c-.11-.08-.41-.24-.53-.09S53.75,85.84,53.82,85.88Z"/><path class="cls-5" d="M43.71,69.91A.91.91,0,0,0,44,71.25a1.11,1.11,0,0,0,1.66-.3,1.18,1.18,0,0,0-.17-1.56A1.35,1.35,0,0,0,43.71,69.91Z"/><path class="cls-5" d="M53,86a.57.57,0,0,0-.73-.45,1.81,1.81,0,0,0-.68.35,25.48,25.48,0,0,0,5.69,2.59,1,1,0,0,0,0-.57c-.21-.75-1-1.32-1.52-1.17a1.45,1.45,0,0,0-.83.79,1.12,1.12,0,0,0-.53-1.09,1.43,1.43,0,0,0-1.44,0A1,1,0,0,0,53,86Z"/><path class="cls-5" d="M44.31,77.41a.67.67,0,0,0-1.08.13A25.32,25.32,0,0,0,44.94,80v0h0a.9.9,0,0,0-.29-1.25l-.06,0,0,0A.88.88,0,0,0,44.31,77.41Z"/><path class="cls-5" d="M45.59,77.27a.94.94,0,1,0,1.62.94.8.8,0,0,0-.24-1C46.37,76.88,45.82,76.89,45.59,77.27Z"/><path class="cls-5" d="M45.46,65.73c-.12,0-.41.28-.31.46a.51.51,0,0,0,.53.14.44.44,0,0,0,.16-.41A.44.44,0,0,0,45.46,65.73Z"/><path class="cls-5" d="M44.24,67.76a.44.44,0,0,0-.38,0c-.27.15-.5.35-.37.72s.82.43,1,.25a.71.71,0,0,0,0-.67,1.39,1.39,0,0,0,1.7-.37,1,1,0,0,0-.36-1.18,1,1,0,0,0-1.49.27A1.1,1.1,0,0,0,44.24,67.76Z"/><path class="cls-5" d="M43.39,61.43a.44.44,0,0,0,.47.11c.13-.07.38-.24.29-.38a.46.46,0,0,0-.44-.19C43.59,61,43.3,61.28,43.39,61.43Z"/><path class="cls-5" d="M42.38,58.07c.27-.07.51-.78.3-1A.74.74,0,0,0,42,57a.55.55,0,0,0-.37.77A.61.61,0,0,0,42.38,58.07Z"/><path class="cls-5" d="M43.35,59.6l-.8.74a2.93,2.93,0,0,0,.05.29c.32,0,.79.45,1.07.12s-.08-.77-.11-1.08Z"/><path class="cls-5" d="M41.59,60.2a.45.45,0,0,0,.71.23c.17-.15.38-.33.34-.54s-.64-.48-.93-.31S41.49,60,41.59,60.2Z"/><path class="cls-5" d="M44.05,52.27c-.11.09-.24.27-.22.39s.18.38.45.3.13-.41.1-.54S44.1,52.23,44.05,52.27Z"/><path class="cls-5" d="M44.66,64a.7.7,0,0,0,.94.25.65.65,0,0,0,.25-.93c-.19-.41-.51-.59-.77-.43A1.11,1.11,0,0,0,44.66,64Z"/><path class="cls-5" d="M47.48,63.86a.2.2,0,0,0-.1.27.22.22,0,0,0,.27.07c.06,0,.08-.2.05-.25A.2.2,0,0,0,47.48,63.86Z"/><path class="cls-5" d="M47.1,61.13a.55.55,0,0,0-.21.4c0,.1.33.34.44.3s.13-.41.1-.55S47.15,61.09,47.1,61.13Z"/><path class="cls-5" d="M46,58.12a.7.7,0,0,0-.37.82.68.68,0,0,0,.91.35.54.54,0,0,0,.35-.78A.67.67,0,0,0,46,58.12Z"/><path class="cls-5" d="M45.21,55.52a.74.74,0,0,0-.38.83c.11.23.54.27.89.11a.39.39,0,0,0,.21-.59C45.78,55.6,45.56,55.39,45.21,55.52Z"/><path class="cls-5" d="M39.75,65.74a1.39,1.39,0,0,0-.32-.41c0,.32,0,.65.07,1C39.7,66.15,39.86,66,39.75,65.74Z"/><path class="cls-5" d="M64.21,76.5c-.23,0-.45.17-.61.36a.42.42,0,0,0,.14.68l.16.07s0,0,0,.07a.43.43,0,0,0,.58.39c.18-.06.57-.5.48-.71s-.2-.17-.36-.2C64.56,76.87,64.37,76.52,64.21,76.5Z"/><path class="cls-5" d="M40.77,61.33a.8.8,0,0,0-.3,1,1,1,0,0,0,1.14.49,1.29,1.29,0,0,0,.6-.93s.08,0,.1,0a.21.21,0,0,0,0-.26H42.2s0-.06,0-.08C42,61.22,41.26,61.1,40.77,61.33Z"/><path class="cls-5" d="M46.66,53.72c.1.17.37.39.52.35s.3-.4.27-.56-.42-.51-.59-.44S46.6,53.62,46.66,53.72Z"/><path class="cls-5" d="M41.72,55.12a1.44,1.44,0,0,0,.7-1.76A1.17,1.17,0,0,0,42,52.9c-.36.74-.68,1.5-1,2.28A1.13,1.13,0,0,0,41.72,55.12Z"/><path class="cls-5" d="M85.4,74a1.21,1.21,0,0,0-.8,1.27c.08.38.77.7,1.29.58a.82.82,0,0,0,.7-1C86.45,74.33,85.84,73.87,85.4,74Z"/><path class="cls-5" d="M82.86,72.06l.25.15c.24-.21.86-.29.8-.72s-.63-.45-.89-.63l-.19.11Z"/><path class="cls-5" d="M40.55,60a.63.63,0,0,0-.08-.9,2.25,2.25,0,0,1-.37-.49L40,58.47c-.12.56-.23,1.11-.32,1.68A.61.61,0,0,0,40.55,60Z"/><path class="cls-5" d="M83.87,73.26c0-.11-.15-.14-.22-.14s-.14.14-.13.15a1.34,1.34,0,0,0,.21.2C83.77,73.4,83.88,73.37,83.87,73.26Z"/><path class="cls-5" d="M40.58,57.1a.25.25,0,0,0-.12-.33c-.05.19-.11.38-.16.58A.62.62,0,0,0,40.58,57.1Z"/><path class="cls-5" d="M84,78.63c-.68-.22-1.41,0-1.57.68a1.39,1.39,0,0,0,.07.9.71.71,0,0,0-.14.1,1.86,1.86,0,0,1-.6.46,1,1,0,0,0-.78.88c0,.35.63,1,1,1a2.08,2.08,0,0,0,.5,0l.48-.45c.12-.37.29-.72.44-1.07a.59.59,0,0,0,.14-.22c.54,0,.76-.36,1-.46.3-.36.58-.72.86-1.1a.21.21,0,0,1-.19.06C84.88,79.32,84.43,78.79,84,78.63Z"/><path class="cls-5" d="M47.69,66.66c-.06,0-.12.37,0,.47s.4-.11.49-.21,0-.26-.06-.39A1.19,1.19,0,0,0,47.69,66.66Z"/><path class="cls-5" d="M50.89,68.91c-.1.36.18.88.63.8.2,0,.33-.49.46-.77,0-.07,0-.21-.1-.4C51.56,68.66,51,68.55,50.89,68.91Z"/><path class="cls-5" d="M62.68,84.78c.27,0,.52-.48.37-.76a1.29,1.29,0,0,0-.45-.36c-.49.12-.74.43-.59.67A1.12,1.12,0,0,0,62.68,84.78Z"/><path class="cls-5" d="M63.08,85.48a1.46,1.46,0,0,0-.82.06,1.34,1.34,0,0,0-.47-.68.57.57,0,0,0-.52,0c-.15-.42-.41-.58-.69-.5a.64.64,0,0,0-.41.79.5.5,0,0,0,.58.37.74.74,0,0,0,.28,1,.79.79,0,0,0,.49,0,.94.94,0,0,0,.17.7,1.43,1.43,0,0,0-.13,1,.82.82,0,0,0-.78.5,1.23,1.23,0,0,0-.17.46,25.66,25.66,0,0,0,2.94.33.76.76,0,0,0-.09-.64,2.78,2.78,0,0,1,.46.11.55.55,0,0,0,.75-.45c.11-.4-.16-.93-.54-.88a1.07,1.07,0,0,1-.66-.09,2.52,2.52,0,0,0,.33-.6A1.1,1.1,0,0,0,63.08,85.48Z"/><path class="cls-5" d="M63.82,74.29c-.29-.19-.92.36-1.07.62a.79.79,0,0,0,.2.88c.29.18.75-.14,1-.36S64.11,74.48,63.82,74.29Z"/><path class="cls-5" d="M62.23,79.86a.52.52,0,0,0-.38.24H61.8c-.35.39-.6.75-.28,1.16a.62.62,0,0,0,.6.18,1.1,1.1,0,0,0,.5-.59.47.47,0,0,0,.2-.3A.7.7,0,0,0,62.23,79.86Z"/><path class="cls-5" d="M64.34,85a.67.67,0,0,0,.67-.41.51.51,0,0,0,.57.15c.15,0,.23-.29.34-.45-.16-.1-.33-.3-.48-.28a.75.75,0,0,0-.35.14.68.68,0,0,0-.31-.56c-.49-.24-.84.07-1.18.32C63.72,84.66,63.89,84.93,64.34,85Z"/><path class="cls-5" d="M61.64,75.24c-.17,0-.19.39-.18.53s.17.24.3.19a.44.44,0,0,0,.27-.35C62,75.51,61.82,75.21,61.64,75.24Z"/><path class="cls-5" d="M65.82,84.94c-.31-.16-.61,0-.82.32-.31.55-.33,1,0,1.15a1.15,1.15,0,0,0,1.31-.32C66.46,85.8,66.21,85.15,65.82,84.94Z"/><path class="cls-5" d="M65.05,89a.93.93,0,0,0-.11.64,24,24,0,0,0,3-.18,1,1,0,0,0,.57-1.07,1.22,1.22,0,0,0-1.3-.76.94.94,0,0,0-.54.74A1.24,1.24,0,0,0,65.05,89Z"/><path class="cls-5" d="M67.56,82a.88.88,0,0,0,.17,1,1.87,1.87,0,0,0,.25.12c-.06.09-.11.23-.18.36.22.07.39.18.52.14a.45.45,0,0,0,.16-.35.76.76,0,0,0,.79-.28,1.29,1.29,0,0,0-.43-1.44A1.2,1.2,0,0,0,67.56,82Z"/><path class="cls-5" d="M61.07,77c-.07.07,0,.35.06.42s.46.18.55,0a.49.49,0,0,0-.18-.52A.43.43,0,0,0,61.07,77Z"/><path class="cls-5" d="M65.17,81a.94.94,0,0,0-.09,1c-.28-.11-.57-.21-.74,0-.28.52-.22,1,.09,1.14A.74.74,0,0,0,65.5,83a.61.61,0,0,0-.15-.75c.54-.14.78-.35.72-.67C66,81,65.61,81,65.17,81Z"/><path class="cls-5" d="M65.11,78.64a.64.64,0,0,0-.86.23.69.69,0,0,0,.19,1,.76.76,0,0,0,1-.23A.8.8,0,0,0,65.11,78.64Z"/><path class="cls-5" d="M49.82,76.91a.71.71,0,0,0,1-.06,1.44,1.44,0,0,0-.15-1.49c-.43-.29-.86-.16-1.2.37S49.29,76.58,49.82,76.91Z"/><path class="cls-5" d="M50.27,72.71l-.05,0a.77.77,0,0,0-.68.35.8.8,0,0,0,.13,1A1,1,0,0,0,50.75,74a.68.68,0,0,0,.07-.39c.19-.13.18-.32.12-.53S50.54,72.53,50.27,72.71Z"/><path class="cls-5" d="M47.16,71.08a1,1,0,0,0-.14.65c-.13.24-.17.15-.54.18a1.63,1.63,0,0,0-.3.07s0,0,0,0a1.14,1.14,0,0,0-1.18,0,.93.93,0,0,0,0,1,.6.6,0,0,0-.3,0,.74.74,0,0,0-.62.84,3.77,3.77,0,0,1,0,.58.2.2,0,0,0-.09.09.48.48,0,0,0,0,.3.92.92,0,0,0,.19,1,1.37,1.37,0,0,0,1.43-.08c.29-.26.6-.52.34-1s-.33-.72-.5-1.08a.68.68,0,0,0-.09-.34.54.54,0,0,0,.53-.17,1.41,1.41,0,0,0,1.75.58,1.61,1.61,0,0,0,.8-1.5,1.8,1.8,0,0,0,.19-.2.52.52,0,0,0-.16-.78A.94.94,0,0,0,47.16,71.08Z"/><path class="cls-5" d="M48.27,64.9c-.07.11-.07.4,0,.47a.48.48,0,0,0,.46-.08c.08-.09.14-.45,0-.56S48.33,64.8,48.27,64.9Z"/><path class="cls-5" d="M48.83,82a7.49,7.49,0,0,0-.63,1.12.78.78,0,0,0,0,.22q.81.7,1.68,1.35c0-.09.1-.14.17-.08s.37.13.72-.2a.72.72,0,0,0,.13-1,.74.74,0,0,0-.19-.16,1.59,1.59,0,0,0-.12-.27c0-.17,0-.37-.06-.45a.46.46,0,0,0-.32,0c-.34-.25-.66-.43-.62-1,0-.39-.34-.51-.72-.51C48.49,81.36,48.49,81.73,48.83,82Z"/><path class="cls-5" d="M69,74.24a.29.29,0,0,0,.07.36.46.46,0,0,0,.44,0c.08-.07.15-.43,0-.53S69.06,74.14,69,74.24Z"/><path class="cls-5" d="M56.34,78.24a.12.12,0,0,0,0,.07s0,0,0-.06c-.34-.28-1-.24-1.11.08a.53.53,0,0,0,.07.42.7.7,0,0,0-.58-.15.69.69,0,0,0-.45.85.76.76,0,0,0,.52.55.57.57,0,0,0-.35.28.65.65,0,0,0,.18.94s.07,0,.11,0a2.73,2.73,0,0,0-.4.19l-.17,0a.87.87,0,0,0-1-.32.46.46,0,0,0,0-.26.8.8,0,0,0-1-.31.81.81,0,0,0-.62,1,.68.68,0,0,0,.89.4h0a1.25,1.25,0,0,0,.17.66c0,.07.07.14.1.2a.48.48,0,0,0,.13.5.86.86,0,0,1,0,.22,1.44,1.44,0,0,0,.57,1.27,1.22,1.22,0,0,0,1.35.13l.12-.07a1.15,1.15,0,0,0-.11.86c.13.41.62.58,1.21.41s.84-.63.75-1h0s0,0,0,0a.6.6,0,0,0-.14-.8.78.78,0,0,0-.76.06.74.74,0,0,0-.41,0l-.18.08a1.18,1.18,0,0,0,.06-.58,2,2,0,0,0-.57-1.18c.44.08.83,0,1-.25a.62.62,0,0,0-.12-.78,1,1,0,0,0-.37-.27.54.54,0,0,0,.3-.2.68.68,0,0,0-.22-.95A.8.8,0,0,0,55,80h0a.71.71,0,0,0,.54-.81h0a.84.84,0,0,0,.55.32c.29,0,.43-.53.36-.91a.48.48,0,0,0,.4,0c.07-.07.1-.47,0-.53S56.43,78.14,56.34,78.24Z"/><path class="cls-5" d="M56.55,80a.79.79,0,0,0-.71.18.82.82,0,0,0,.27,1.21.7.7,0,0,0,.92-.72A1,1,0,0,0,56.55,80Z"/><path class="cls-5" d="M54.19,79a.58.58,0,0,0-.1-.44.45.45,0,0,0-.36.08c0,.13-.11.43,0,.55S54.18,79.07,54.19,79Z"/><path class="cls-5" d="M53.6,72.35a1.63,1.63,0,0,0-.77.77.5.5,0,0,0-.56.18.54.54,0,0,0,0,.79.65.65,0,0,0,.33.11,1.33,1.33,0,0,0,1.59.72,1.48,1.48,0,0,0,.9-1.59A1.33,1.33,0,0,0,53.6,72.35Z"/><path class="cls-5" d="M51.17,76.68c-.47.11-.71.46-.6.84a1,1,0,0,0,.09.17c-.45-.27-.89-.11-1.23.47a.94.94,0,0,0,.24,1.13,1.61,1.61,0,0,0,1.58-.21.93.93,0,0,0-.13-.92.86.86,0,0,0,.58.21.92.92,0,0,0,.65-1.2C52.26,76.75,51.76,76.54,51.17,76.68Z"/><path class="cls-5" d="M55.12,75.42a.66.66,0,0,0-.6.68.82.82,0,0,0,.33.57c.33.22.61.07,1.1-.51C55.77,75.81,55.68,75.33,55.12,75.42Z"/><circle class="cls-6" cx="98.75" cy="28.54" r="13.12"/><circle class="cls-6" cx="98.75" cy="99.41" r="13.12"/><circle class="cls-6" cx="29.5" cy="99.41" r="13.12"/><circle class="cls-7" cx="64.89" cy="55.81" r="6.73"/><path class="cls-7" d="M52.83,73.84a12.06,12.06,0,1,1,24.11,0"/><circle class="cls-6" cx="29.5" cy="28.54" r="13.12"/><circle class="cls-4" cx="29.63" cy="24.41" r="3.38"/><path class="cls-4" d="M23.58,33.46a6.05,6.05,0,0,1,12.1,0"/><circle class="cls-4" cx="98.3" cy="24.41" r="3.38"/><path class="cls-4" d="M92.25,33.46a6,6,0,1,1,12.1,0"/><circle class="cls-4" cx="29.63" cy="95.62" r="3.38"/><path class="cls-4" d="M23.58,104.67a6.05,6.05,0,0,1,12.1,0"/><circle class="cls-4" cx="98.3" cy="95.62" r="3.38"/><path class="cls-4" d="M92.25,104.67a6,6,0,0,1,12.1,0"/></svg>