<svg width="145" height="250" viewBox="0 0 145 250" fill="none" xmlns="http://www.w3.org/2000/svg">
<mask id="mask0" mask-type="alpha" maskUnits="userSpaceOnUse" x="0" y="0" width="145" height="250">
<rect width="145" height="250" fill="#C4C4C4"/>
</mask>
<g mask="url(#mask0)">
<path d="M145 48L17 126L-111 48L17 -30L145 48Z" fill="#F04E98"/>
<path d="M37 107.6C37.4 107.8 37.7 108 38 108.3C38.9 108.8 41.2 107.9 41.4 106.9C41.4 106.8 41.4 106.7 41.4 106.6C40.8 105.8 41.4 105.3 41.7 104.6C42.1 103.8 41.7 103.2 40.9 103C40.8 103 40.7 103 40.7 102.9C40.8 102.7 40.8 102.6 40.8 102.4C40.8 102 40.5 101.6 40.3 101.3H40.4C39.9 101.4 39.4 101.4 38.8 101.5C38.7 101.9 38.7 102.2 38.7 102.5C38.7 102.9 39 103.3 39.3 103.5C39.1 103.8 39 104.2 39 104.6C39.1 105.1 39.2 105.6 38.6 106.1C38.3 106 38 105.7 37.7 105.8C37.3 105.9 36.8 106.1 36.6 106.5C36.2 106.9 36.6 107.4 37 107.6Z" fill="#E32682"/>
<path d="M50.4999 98.9C50.6999 98.5 50.6999 98 50.4999 97.6C50.2999 97.2 49.4 97.3 49.2 97.7C49 98 49.0999 98.4 49.0999 98.6C49.6999 99.2 50.2999 99.3 50.4999 98.9Z" fill="#E32682"/>
<path d="M37 103.3C37.2 103.5 37.7 103.5 38 103.3C38.4 103 38.4 102.5 38 102.2C37.8 102 37.1 101.6 36.6 102.1C36.2 102.6 36.8 103.1 37 103.3Z" fill="#E32682"/>
<path d="M43.1 109.7C43 109.4 42.5 109.1 42.2 109.1C41.7 109.1 41.4 109.4 41.5 110C41.5 110 41.5 110.1 41.5 110.2C41 110.1 40.4 110.2 40.1 110.9C40.1 111 40 111 40 111.1L39.9 111.2C39.6 111.5 39.4 111.9 39.4 112.4L43.1 110.2C43.1 109.9 43.2 109.8 43.1 109.7Z" fill="#E32682"/>
<path d="M51.3 103.2C51.8 103 52.2 102.2 52.1 101.6C52 101.1 51.5 100.8 50.9 100.9C49.9 101.1 49.4 101.4 49.4 102C49.4 102.5 49.9 103 50.5 103.2C50.5 103.2 50.5 103.2 50.4 103.2C49.2 103.6 48.8 104.7 49.7 105.6C49.8 105.7 49.9 105.8 50 105.9L52.9 104.2C52.5 103.7 51.9 103.4 51.3 103.2Z" fill="#E32682"/>
<path d="M62.9 88.8999C62.8 89.0999 62.8 89.1999 62.7 89.3999C62.2 89.5999 61.9 89.9999 62 90.4999C62.1 91.0999 62.7 91.4999 63.2 91.4999C63.5 91.4999 63.8 91.1999 64 90.8999C64.4 90.9999 64.8 90.9999 65 90.7999C65.9 89.9999 65.4 88.8999 65.1 88.3999C64.8 87.6999 63.4 87.9999 62.9 88.8999Z" fill="#E32682"/>
<path d="M72.7 82.1C72.6 81.6 71.3 81.3 70.9 81.4C70.6 81.4 70 82 70 82.5C70 83 70.9 83.3 71.4 83.3C71.7 83.4 72.8 82.7 72.7 82.1Z" fill="#E32682"/>
<path d="M65.2 92.8999C64.4 92.9999 63.7 93.6999 63.8 94.2999C64 95.1999 65 95.8999 66 95.7999C66.6 95.6999 67 94.9999 66.9 94.1999C66.7 93.2999 66 92.7999 65.2 92.8999Z" fill="#E32682"/>
<path d="M64.3 78.2C64.3 78 64 77.8 63.8 77.8C63.6 77.8 63.3 78.1 63.3 78.3C63.3 78.5 63.5 79 63.8 79C64.1 78.9 64.3 78.4 64.3 78.2Z" fill="#E32682"/>
<path d="M73 85.6C73.4 85.1 73.3 84.4 72.8 84.1C72.3 83.8 71.9 83.9 71.5 84.3C71.1 84.8 71.1 85.5 71.6 85.8C72.1 86.2 72.7 86.1 73 85.6Z" fill="#E32682"/>
<path d="M26.8 113.1C27.4 114.1 28.2 114.3 29.3 113.8C31.2 116 32.8 115.7 33.8 113C34 113 34.2001 112.9 34.4001 113C35.3001 113.1 35.6 112.6 35.8 112C36 111.4 35.7001 110.9 35.2001 110.4C34.0001 109.2 33.2001 109.2 32.2001 110.3C31.4001 111.2 30.6 112 29.8 112.8C27.8 111.4 27.6 111.4 26.8 113.1Z" fill="#E32682"/>
<path d="M23.2001 109.5C22.6001 109.6 22.3001 110.2 22.4001 110.9C22.5001 111.6 23.2 112.2 23.8 112C23.9 112 24.0001 111.9 24.1001 111.8C24.3001 111.9 24.6001 111.9 24.7001 111.8C24.8001 111.7 25 111.1 24.8 111C24.8 110.9 24.8 110.7 24.8 110.6C24.8 109.8 24.0001 109.3 23.2001 109.5Z" fill="#E32682"/>
<path d="M26.2 98.8C26.1 97.7 25.5 96.9 24.8 96.9C24.1 97 23.4 97.8 23.4 98.6C23.4 99.3 24.2 99.9 25 99.9C25.5 100 26.2 99.4 26.2 98.8Z" fill="#E32682"/>
<path d="M18.4001 119C18.7001 119.5 18.7001 120 18.6001 120.6C18.4001 121.4 19.2 122.3 19.8 122.1C20.2 122 20.6001 121.9 21.0001 121.7C21.1001 122.1 21.5001 122.5 21.9001 122.8V122.9L24.7001 121.2C24.7001 121.1 24.8 121.1 24.8 121C24.8 121 24.9001 121 24.9001 121.1L27.2001 119.7C27.0001 119.2 26.4001 118.7 26.0001 118.7C25.6001 118.7 25.1 119 24.8 119.4C24.4 119.1 23.8 119.1 23.3 119.5C23 119.7 22.7 120 22.3 120.1C22.2 120.1 22.1001 120.2 22.0001 120.2C22.2001 119.9 22.4 119.7 22.8 119.5C23.5 119.2 23.8001 118.1 23.6001 117.5C23.4001 117 21.5001 116 20.6001 116.1C20.5001 116.2 20.3001 116.4 20.2001 116.5C20.1001 116.4 20.0001 116.3 20.0001 116.2C19.7001 115.9 19.3001 115.7 18.9001 116.1C18.5001 116.5 18.5001 117.3 18.9001 117.5C19.0001 117.5 19.0001 117.6 19.1001 117.6C18.8001 117.8 18.6 118.1 18.3 118.4C18.3 118.5 18.3001 118.9 18.4001 119Z" fill="#E32682"/>
<path d="M21.5001 114.2C21.4001 115.1 22.1 115.4 22.8 115.6C23.3 115.1 23.9001 114.7 23.6001 113.9C23.4001 113.4 22.9 113.1 22.3 113.3C21.9 113.5 21.5001 113.9 21.5001 114.2Z" fill="#E32682"/>
<path d="M34.3 105.9C35.1 105.8 35.6 105.1 35.5 104.4C35.4 103.8 34.3 102.9 33.7 102.9C33 102.9 32.5 103.8 32.6 104.8C32.7 105.7 33.2 106.1 34.3 105.9Z" fill="#E32682"/>
<path d="M31.1 87.1C30.8 87.3 30.3 87.8 30.5 88.1C30.6 88.4 31.1 88.6 31.4 88.6C31.7 88.6 32.3 88 32.2 87.7C32.1 87.4 31.2 87 31.1 87.1Z" fill="#E32682"/>
<path d="M29.8 107.7C29.1 108.7 29.1 108.8 30.1 109.7C30.7 109.6 31.1 109.5 31.6 109.4C32.4 109.3 33 108.5 33 107.7C33 107.2 32.3 106.5 31.9 106.6C31.1 106.9 30.3 107 29.8 107.7Z" fill="#E32682"/>
<path d="M35.1 114.4C35.1 114.2 34.8 113.8 34.6 113.8C34.4 113.8 34 114 33.9 114.3C33.8 114.5 34 115.1 34.4 115.2C34.7 115.2 35.1 114.6 35.1 114.4Z" fill="#E32682"/>
<path d="M8.29996 119.3C7.89996 119.4 7.59997 119.7 7.49997 120C7.39997 120 7.29998 120 7.19998 120C7.19998 120 7.19998 120 7.09998 120L8.59998 120.9C8.79998 120.8 9.09998 120.6 9.09998 120.4C9.29998 119.8 8.79996 119.5 8.29996 119.3Z" fill="#E32682"/>
<path d="M3.30005 117.6L5.80005 119.1C6.20005 118.8 6.40005 118.3 6.40005 117.9C6.30006 117 5.60005 116.3 4.80005 116.4C4.10005 116.6 3.50005 117.1 3.30005 117.6Z" fill="#E32682"/>
<path d="M7.59996 115.6C6.99996 115.5 6.19995 116.6 6.49995 117C6.79995 117.4 8.09996 117.4 8.19996 116.8C8.29996 116.3 7.99996 115.7 7.59996 115.6Z" fill="#E32682"/>
<path d="M26.3 109.6C25.9 109.9 25.7 110.4 26 110.9C26.3 111.2 26.7 111.6 27.1 111.6C28.1 111.6 28 110.7 28.3 110C27.6 109.4 27 109 26.3 109.6Z" fill="#E32682"/>
<path d="M25.5 106.6C25.3 106.8 25.1 107.3 25.1 107.6C25.2 108.2 25.7 108.5 26.2 108.5C27 108.4 27.2 107.6 27.2 107.1C27.3 106.7 26.2 106.1 25.5 106.6Z" fill="#E32682"/>
<path d="M88.3 69.6999C88 69.9999 88 70.3 88 70.6C88 70.9 87.9 71.2 88.1 71.6C88.3 72 89 72.6999 89.7 72.6999C90.4 72.6999 91 72.4 91.3 71.9C91.6 71.4 91.5 70.8 91.3 70.4C91.1 70 90.6 69.5 90 69.5C89.3 69.5 88.6 69.2999 88.3 69.6999Z" fill="#E32682"/>
<path d="M91.6 76.8C91.4 77 91.3 77.2 91.5 77.4C91.7 77.6 91.9 77.7 92.2 77.5C92.4 77.3 92.5 77.1 92.3 76.9C92 76.6 91.8 76.6 91.6 76.8Z" fill="#E32682"/>
<path d="M0.799927 115.8C0.699927 115.9 0.699951 116 0.699951 116L3.29993 117.6C3.79993 116.9 3.79995 115.8 3.19995 115.4C2.49995 114.9 1.19993 115.2 0.799927 115.8Z" fill="#E32682"/>
<path d="M114.4 58.6C113.3 58.2 112 58.6 111.7 59.5C111.4 60.4 112.1 62.1 112.9 62.5C113.8 62.9 115.1 62.3 115.5 61.3C115.8 60.4 115.3 59 114.4 58.6Z" fill="#E32682"/>
<path d="M47.0001 95.7C45.8001 95.9 45.4001 96.4 45.5001 97.2C45.6001 97.8 46.6001 98.5 47.2001 98.4C47.8001 98.3 48.4001 97.2 48.3001 96.5C48.2001 95.9 47.7001 95.6 47.0001 95.7Z" fill="#E32682"/>
<path d="M47.7001 102.8C47.4001 102.8 47.3 103.3 47.3 103.5C47.3 103.7 47.7001 104.1 48.0001 104.1C48.3001 104.1 48.4 103.5 48.3 103.3C48.3 103 48.0001 102.8 47.7001 102.8Z" fill="#E32682"/>
<path d="M47.0999 107.4C47.0999 107.4 46.9999 107.4 46.9999 107.3C46.1999 107 45.7 108 45.7 108.4L48.3999 106.7C48.3999 106.7 48.3999 106.7 48.2999 106.7C47.8999 106.9 47.3999 107.1 47.0999 107.4Z" fill="#E32682"/>
<path d="M63.9001 97.3L63.8 97.4L64.4001 97.1C64.2001 97.1 64.0001 97.2 63.9001 97.3Z" fill="#E32682"/>
<path d="M56.5 101.9L58 101H57.9C57.3 101.1 56.8 101.5 56.5 101.9Z" fill="#E32682"/>
<path d="M43 103.9C43.3 104.5 44.8 104.2 44.9 103.8C45 103.3 43.9 102.3 43.4 102.6C43 102.8 42.8 103.5 43 103.9Z" fill="#E32682"/>
<path d="M43.5 100.2C43.4 100.7 43.2 101.4 43.8 101.6C44.6 101.9 44.9 102.5 45.2 103.3C45.4 103.9 45.9 104.1 46.5 103.8C47.1 103.5 47.5 102.7 47.1 102.3C46.4 101.7 46.4 101 46.6 100.4C46.5 99.6 45.9 98.9 45.4 98.9C44.7 98.7 43.6 99.5 43.5 100.2Z" fill="#E32682"/>
<path d="M30.6 116.6C30 116.7 30.2 116.6 29.7 116.1C29.4 115.7 28.8 115.4 28.3 115.7C28.1 115.6 27.9 115.5 27.8 115.4C27.2 115.1 26.6 115.6 26.4 116.4C26.3 116.9 26.3 117.6 26.6 117.9C26.9 118.3 27.6 118.4 28.2 118.6C28.2 118.8 28.1 119 28.2 119.1L31.8 116.9C31.4 116.7 31 116.6 30.6 116.6Z" fill="#E32682"/>
<path d="M18.7001 124.9C18.5001 124.7 18.2001 124.5 17.9001 124.4C17.6001 124.3 17.3001 124.4 17.1001 124.5C16.7001 124.3 16.2001 124.5 15.7001 125C15.6001 125 15.4 125 15.3 125L17.0001 126L18.7001 124.9Z" fill="#E32682"/>
<path d="M12.1 95.4C12.2 95.7 12.7 96.5 13.1 96.4C13.5 96.3 13.6 95.4 13.6 95C13.6 94.8 13 94.6 12.7 94.6C12.2 94.7 11.9 95 12.1 95.4Z" fill="#E32682"/>
<path d="M20.9 93.6001C20.7 94.1001 20.8001 94.6001 21.2001 95.0001C21.4001 95.1001 21.7 95.3001 21.9 95.2001C22.4 95.0001 22.8 94.6001 23.3 94.3001C24.6 94.7001 25.6 94.5001 25.9 93.7001C26.2 93.0001 25.5001 91.7001 24.6001 91.4001C23.7001 91.1001 23.3001 91.4001 22.7001 93.2001C22.0001 93.0001 21.3 92.7001 20.9 93.6001Z" fill="#E32682"/>
<path d="M27.1 86.4C27.7 86.3 28.2 85.6 28.1 85C28 84.5 27.5 84.1 27 84.2C26.3 84.3 25.7999 84.8 25.8999 85.4C25.8999 86 26.5 86.5 27.1 86.4Z" fill="#E32682"/>
<path d="M22.6 84.1C22.6 84.2 22.8 84.4 23 84.4C23.2 84.4 23.2 84.1 23.2 84C23.2 83.9 22.9 83.8 22.9 83.8C22.8 83.9 22.6 84 22.6 84.1Z" fill="#E32682"/>
<path d="M26.8 81.8C27.2 81.7 28 81.2 28 80.7C28 80.2 26.9 80.2 26.5 80.2C26 80.2 25.8 80.6 25.9 81.1C26.1 81.6 26.3 82 26.8 81.8Z" fill="#E32682"/>
<path d="M22.7001 75.7C22.4001 75.7 22.3 76.1 22.3 76.3C22.3 76.5 22.6 77 22.8 77C23 77 23.3001 76.4 23.2001 76.2C23.2001 76 23.0001 75.7 22.7001 75.7Z" fill="#E32682"/>
<path d="M38.6 85.4C38.7 86.5 39.7 87.1 41 87C42.1 86.9 42.8 86 42.7 85C42.6 83.9 41.4 83 40.4 83.1C39.5 83.2 38.6 84.4 38.6 85.4Z" fill="#E32682"/>
<path d="M32.3 85.9C33.1 85.8 33.5 85.1 33.3 84C33.2 83.4 32.4 82.8 31.8 82.9C31.1 83 30 84.3 30.1 84.8C30.3 85.5 31.4 86 32.3 85.9Z" fill="#E32682"/>
<path d="M40.7 80.1C40.7 79.7 40.1 79.7 39.9 79.7C39.8 79.7 39.5 80 39.5 80.1C39.6 80.3 39.8 80.6 40 80.6C40.2 80.6 40.6 80.5 40.7 80.1Z" fill="#E32682"/>
<path d="M56.6 75.6C56.3 75.9 56.4 76.7001 56.9 77.3001C56.8 77.3001 56.6 77.4 56.7 77.6C56.8 77.8 56.9 77.9001 57.1 77.9001C57.3 77.9001 57.3 77.7 57.3 77.6C57.5 77.6 57.9 77.6001 58.1 77.4001C58.7 77.0001 58.8 76 58.4 75.6C57.9 75.2 57 75.2 56.6 75.6Z" fill="#E32682"/>
<path d="M31.0999 73C31.3999 72.9 32.2 72.4 32.2 72.1C32.1 71.8 31.3999 71.4 30.9999 71.4C30.4999 71.3 30.2 71.8 30.2 72.4C30.3 73 30.6999 73.1 31.0999 73Z" fill="#E32682"/>
<path d="M15.9999 84.8001C15.7999 83.9001 15.0999 83.4 13.9999 83.6C12.9999 83.8 12.5 84.5001 12.7 85.4001C12.9 86.3001 13.6999 86.9 14.7999 86.7C15.4999 86.7 16.1999 85.7001 15.9999 84.8001Z" fill="#E32682"/>
<path d="M13.5001 97.8C12.8001 97.9 12.0001 98.9 12.1001 99.7C12.2001 100.3 13.1001 100.9 13.9001 100.8C15.0001 100.7 15.4 100.2 15.3 99.4C15.2 98.6 14.2001 97.7 13.5001 97.8Z" fill="#E32682"/>
<path d="M13.6 106.9C14.2 106.8 14.4 106.5 14.4 105.9C14.4 105.3 14.1 104.8 13.6 104.7C12.8 104.5 12.1 105.2 12 105.7C12 106.2 12.6 107.1 13.6 106.9Z" fill="#E32682"/>
<path d="M87.7 61.4C87.5 61.3 87.2 61.2 87 61.5C86.8 61.8 86.9 62 87.1 62.1C87.3 62.2 87.7 62.4 88 62.2C88.2 61.9 87.8 61.5 87.7 61.4Z" fill="#E32682"/>
<path d="M9.9 109.4C9.1 111.5 9.30002 112.1 11.2 113.2L11.3 113.3C11 113.2 10.7 113.1 10.5 113C10.1 112.9 9.70002 113.2 9.70002 113.8C9.70002 114.4 10.1 114.8 10.6 114.7C10.8 114.7 11.2 114.4 11.5 114.1C11.7 114.7 12 115 12.6 114.9C13.3 114.8 13.8 114.1 13.4 113.3C13.1 112.6 13.5 112.2 13.7 111.7C15.2 112.4 16.1 112 16.4 110.6C16.4 110.5 16.4 110.3 16.4 110.2C16.4 109.3 16 108.9 15.3 108.9C15.3 108.4 15.2 108 14.9 107.8C14.1 107.3 12.9 107.5 12.3 108.2C12.2 108.3 12.1 108.5 12.1 108.6C11.9 108.5 11.7 108.4 11.5 108.5C10.8 108.5 10.2 108.7 9.9 109.4Z" fill="#E32682"/>
<path d="M103.3 70.1C103.3 69.6 102.9 69.4 101.8 69.6C101.2 70.3 102 71.1 102.5 71.1C102.9 71.1 103.4 70.5 103.3 70.1Z" fill="#E32682"/>
<path d="M109.5 64.5C109.5 64 108.6 63.4 108 64C107.4 64.7 108.2 65.5 108.7 65.5C109 65.5 109.5 64.9 109.5 64.5Z" fill="#E32682"/>
<path d="M121.9 55.8C122.1 55.7 122.4 55.3 122.3 55.1C122.3 54.9 121.9 54.6 121.6 54.6C121.4 54.6 120.9 55 120.9 55.3C120.9 55.6 121.7 55.8 121.9 55.8Z" fill="#E32682"/>
<path d="M110.7 68.1C110.3 68.3 109.9 68.6 109.5 68.8C109.3 68.7 109.1 68.6 108.9 68.5C108.1 68.2 107 68.5 106.6 69.1C106.1 69.8 106.1 70.7 106.4 71.4L112 68C111.5 68 111.1 68 110.7 68.1Z" fill="#E32682"/>
<path d="M123.5 60.1999C123.4 60.4999 123.4 60.8 123.4 61.1L126.4 59.1999C125.5 58.7999 123.9 59.2999 123.5 60.1999Z" fill="#E32682"/>
<path d="M3.90002 112.4C3.90002 112.6 4.10003 112.8 4.10003 112.9C4.90003 113.9 6.10003 113.8 6.60003 112.6C6.80003 112.2 6.90003 111.7 7.00003 111.3C7.70003 111.2 8.10002 110.5 7.90002 109.5C7.80002 108.7 7.30004 108.1 6.70004 108.2C6.50004 108.2 6.30003 108.3 6.10003 108.5C6.00003 108.4 5.80003 108.3 5.60003 108.3C5.10003 108.2 4.00003 108.3 4.00003 109.3C4.80003 111 3.60002 111.1 3.90002 112.4Z" fill="#E32682"/>
<path d="M9.79998 106.2C9.89998 106 9.8 105.8 9.7 105.8C9.6 105.7 9.39998 105.8 9.29998 105.9C9.19998 106 9.19998 106.2 9.29998 106.3C9.49998 106.3 9.69998 106.4 9.79998 106.2Z" fill="#E32682"/>
<path d="M0.999997 114.7C1.1 114.2 0.599997 113.9 -3.45707e-06 113.9C-0.600003 113.9 -0.900016 114.3 -0.700016 114.8C-0.700016 114.9 -0.60001 115 -0.60001 115.2L0.600003 115.9C0.900003 115.7 0.899997 115 0.999997 114.7Z" fill="#E32682"/>
<path d="M104.8 69.7C104.9 69.6 104.8 69.2 104.6 69.1C104.4 69 104.1 69.3 103.9 69.4C103.8 69.5 103.8 70 104.1 70.1C104.3 70.3 104.6 69.9 104.8 69.7Z" fill="#E32682"/>
<path d="M58.4999 67.5C58.6999 67.3 58.5999 66.9 58.4999 66.8C58.3999 66.7 57.7999 66.4 57.5999 66.6C57.3999 66.8 57.5999 67.4 57.7999 67.5C57.8999 67.6 58.2999 67.7 58.4999 67.5Z" fill="#E32682"/>
<path d="M71.7 61.4C71.7 61.1 71 60.8 70.6 60.5C70.5 60.4 70.2 60.2 70 60.6C69.7 60.9 69.8 61.9 70.4 62.2C70.8 62.5 71.7 62.1 71.7 61.4Z" fill="#E32682"/>
<path d="M73.8001 88.4C73.5001 88.5 73.2001 88.7 73.1001 89C73.0001 89.1 72.8001 89.2 72.6001 89.4C72.0001 90.1 72.0001 91 72.5001 91.5C72.7001 91.6 72.9001 91.7 73.1001 91.8L75.5001 90.3C75.4001 90 75.3001 89.7 75.0001 89.4V89.3C75.0001 88.8 74.3001 88.3 73.8001 88.4Z" fill="#E32682"/>
<path d="M70.6 78C71.3 78.6 72.1 78.6 72.8 77.9C73.6 77.1 73.5 76.1 72.7 75.2C72 74.6 70.9 74.5 70.2 75.1C69.5 75.8 69.7 77.2 70.6 78Z" fill="#E32682"/>
<path d="M91.7999 64.6C92.3999 64.2 93.2999 63.9 93.4999 63.1C93.3999 62.8 93.1999 62.5 93.0999 62.1C93.5999 61.2 93.5999 60.3 93.1999 59.9C92.7999 59.6 92.3999 59.6 91.9999 59.9C91.2999 60.4 91.1999 60.8001 91.5999 61.8001C91.2999 62.5001 90.9999 63.1 90.7999 63.7C90.5999 64.4 91.2999 65 91.7999 64.6Z" fill="#E32682"/>
<path d="M101.1 66.1C101.2 65.9 101.4 65.7 101.2 65.4C101 65.1 100.7 65.3 100.6 65.4C100.5 65.6 100.1 66 100.4 66.2C100.5 66.5 101 66.3 101.1 66.1Z" fill="#E32682"/>
<path d="M96.8001 70.4C96.4001 69.8 95.9001 69.6 95.2001 70C94.4001 70.4 94.2001 71.5 94.7001 72.3C95.2001 73.1 95.7001 73 95.9001 73.5C96.1001 74 96.5001 74.1 97.2001 74C97.8001 73.9 98.8 73.7 98.6 72.8C98.4 71.9 97.8001 72 97.5001 72C97.2001 72.1 96.7001 71.8 97.0001 71.6C97.2001 71.4 97.3001 71 96.8001 70.4Z" fill="#E32682"/>
<path d="M15.3999 121C15.2999 120.5 14.4999 120 13.9999 120.1C13.3999 120.2 12.5999 121.1 12.6999 121.6C12.7999 122.3 13.7999 123.2 14.4999 123.1C15.1999 123 15.5999 122.1 15.3999 121Z" fill="#E32682"/>
<path d="M103.2 73C102.5 72.9 102.2 73.5 102.2 74.1L103.7 73.2C103.6 73 103.4 73 103.2 73Z" fill="#E32682"/>
<path d="M45.8 78.9C45.3 79 44.9 79.2 44.9 79.8C44.9 80.3 45.5 80.8 46 80.7C46.4 80.7 46.7 80 46.6 79.4C46.5 79 46.3 78.8 45.8 78.9Z" fill="#E32682"/>
<path d="M28.7999 93.6C28.8999 94.1 29.9999 94.8 30.5999 94.8C31.1999 94.8 31.4999 94.2 31.3999 93.4C31.2999 92.5 30.9 92 30.2 92.1C29.3 92.2 28.6999 92.9 28.7999 93.6Z" fill="#E32682"/>
<path d="M17.5 104.3C16.7 105.5 17.4 107.4 18.9 108.1C19.5 108.4 19.5 108.7 19.6 109.1C19.8 109.8 20.6 110.1 21.2 109.9C21.9 109.7 21.9 109.2 21.7 108.7C21.6 108.3 21.4 107.9 21.5 107.5C21.7 106.6 22 105.8 22.3 104.9C24.5 104.7 25 104.2 24.4 102.3C24.1 101.3 22.9 100.9 22.1 101.5C21.4 102 21 102.7 20.3 103.5C19.3 103.4 18.2 103.3 17.5 104.3Z" fill="#E32682"/>
<path d="M27.3 99.1C27 99.2 26.7 99.4 26.5 99.6C26.2 99.8 26 100.1 25.8 100.3C25 101.1 24.9 101.8 25.5 102.5C26.1 103.3 27 103.4 27.9 102.8C28.8 102.2 29.7 101.5 30.7 101.1C31.5 100.8 32.2 99.8 31.9 99.3C31.6 98.8 30.6 98.7 30.4 98.9C29.8 99.4 29.4 99 28.9 98.9C28.3 98.8 27.8 99 27.3 99.1Z" fill="#E32682"/>
<path d="M20.2 100.6C20.4 100.7 20.9 100.6 21 100.4C21.5 99.9 21.3 99.3 20.7 98.9C20.1 99 19.5 99.1 19.5 99.8C19.6 100.1 20 100.4 20.2 100.6Z" fill="#E32682"/>
<path d="M16.1 117.5C15.8 117.5 15.5 117.7 15.3 118C14.8 117.8 14.3 117.9 14 118.4C13.6 119 13.7 119.7 14.2 120C14.6 120.3 15.4 120.1 15.7 119.7C15.9 119.8 16.2 119.9 16.5 119.9C17 119.8 17.6 118.8 17.5 118.3C17.4 117.9 16.6 117.4 16.1 117.5Z" fill="#E32682"/>
<path d="M9.49999 98.2C9.19998 98.4 8.99999 99.2 9.49999 99.7C9.69999 99.9 10.2 99.9 10.4 99.7C10.7 99.5 10.9 99.1 10.9 98.8C10.7 98.2 9.89999 98.1 9.49999 98.2Z" fill="#E32682"/>
<path d="M7.70005 89.6C7.30005 89.5 6.90004 90.2 7.00004 90.7C7.10004 91.2 7.40003 91.5 7.90003 91.4C8.30003 91.3 9.10004 90.8 9.10004 90.4C9.10004 89.9 8.10005 89.7 7.70005 89.6Z" fill="#E32682"/>
<path d="M15.8999 115.3C16.2999 114.9 16.2 114.2 15.7 113.8C15.2 113.4 14.6 113.4 14.2 113.9C13.8 114.4 13.8999 115.1 14.2999 115.4C14.7999 115.7 15.5999 115.6 15.8999 115.3Z" fill="#E32682"/>
<path d="M8.29994 100.3C7.79994 100.4 7.39996 100.9 7.59996 101.5C7.69996 102 8.39997 102.5 9.19997 102.3C9.29997 102 9.69997 101.6 9.69997 101.2C9.69997 100.6 8.89994 100.2 8.29994 100.3Z" fill="#E32682"/>
<path d="M42.1 94.5C41.7 95 41.7 95.4 42.4 95.9C42.9 96.2 43.4 96 43.7 95.6C44.2 95.3 45 94.9 45.6 94.4C45.7 94.3 45.8 94.2 45.9 94C46.1 94 46.2 94 46.4 93.9C46.8 93.6 46.4 93 46.2 92.8C46.1 92.7 45.8 92.5 45.5 92.6C45.2 92.4 44.8 92.3 44.4 92.6C44.1 92.8 43.8 92.9 43.5 92.9C42.7 93.2 42.2 93.7 42.1 94.5Z" fill="#E32682"/>
<path d="M42.7 89.8C42.5 89.1 42.2 88.7 41.5 88.9C41.3 89 40.9 89.3 40.9 89.6C40.9 89.9 41.1 90.4 41.3 90.5C42 90.8 42.3 90.3 42.7 89.8Z" fill="#E32682"/>
<path d="M44.2999 88.1C44.1999 88.5 44.3 89.1 44.6 89.4C44.9 89.8 45.3 89.5 45.4 89.4C45.6 89.1 45.5 88.8 45.5 88.5C45.4 88.2 45.5 87.9 45.2 87.6C44.9 87.3 44.4999 87.6 44.2999 88.1Z" fill="#E32682"/>
<path d="M42.9001 68.1C42.7001 68.1 41.9001 68.5 42.0001 68.8C42.1001 69.1 42.7001 69.4 42.9001 69.4C43.2001 69.3 43.7001 69 43.7001 68.8C43.7001 68.6 43.2001 68.2 42.9001 68.1Z" fill="#E32682"/>
<path d="M34.8 93.5C33.7 93.4 32.6 93.9 32.8 94.8C33 95.7 33.6 96.2 34.3 96.8C34.8 97.3 35.6 96.8 35.5 97.6C35.5 98.4 35.7 100.1 37.2 100C37.9 99.9 38.6 99.1 38.7 98.3C39.1 98.7 39.8 99 40.5 98.8C41.4 98.6 42.2 97.4 42 96.5C41.8 95.6 40.9 94.9 40.1 95.1C39.4 95.2 38.5 96.2 38.4 97.1C38.2 96.8 38 96.6 37.7 96.6C37.1 96.5 37.7 95.2 36.9 95C36 94.8 35.9 93.7 34.8 93.5Z" fill="#E32682"/>
<path d="M32.3 90.2C32.2 90.9 31.9 91.6 32.6 92C33.1 92.3 33.6 92.2 34 91.7C34.3 91.3 34.4 91 34.1 90.5C33.7 89.9 33.1 90 32.3 90.2Z" fill="#E32682"/>
<path d="M37.0001 90.5C36.5001 91.1 36.5001 92.7 37.5001 93.3C38.5001 93.9 39.3001 93.7 39.9001 93.2C40.5001 92.7 40.2001 91.5 39.5001 90.6C39.0001 89.9 37.5001 89.9 37.0001 90.5Z" fill="#E32682"/>
<path d="M40.2001 88.4001C40.1001 88.3001 39.6 88.4001 39.5 88.5001C39.4 88.7001 39.4 89.1001 39.5 89.2001C39.6 89.3001 40.1 89.6001 40.4 89.2001C40.7 88.8001 40.4001 88.5001 40.2001 88.4001Z" fill="#E32682"/>
<path d="M20.1 86.4C19.4 86.4 18.7 87.2 18.8 88C18.8 88.7 19.3 89.2 19.8 89.1C20.5 89.1 21.4 88.2 21.3 87.5C21.3 86.9 20.7 86.4 20.1 86.4Z" fill="#E32682"/>
<path d="M134 53.1C133.4 52.9 133.1 53.6 133 53.8C132.9 54.1 133.1 54.5 133.3 54.7C133.4 54.8 133.5 54.8 133.6 54.8L134.3 54.4C134.4 54.2 134.6 53.4 134 53.1Z" fill="#E32682"/>
<path d="M15.6 93.5C15.7 94.6 16.6 95.6 17.4 95.5C18.4 95.4 19.6 94.1 19.5 93.2C19.4 92.2 18.3 91.4 17.4 91.5C16.3 91.6 15.5 92.6 15.6 93.5Z" fill="#E32682"/>
<path d="M16 70.7C15.7 70.7 15.6 71.3 15.6 71.5C15.6 71.6 15.9 71.9 16.1 71.9C16.3 71.9 16.5 71.5 16.5 71.3C16.5 71.1 16.3 70.6 16 70.7Z" fill="#E32682"/>
<path d="M2.89995 99.3C2.69995 99.4 2.49995 99.7 2.39995 99.9C2.09995 100.3 2.19996 101.1 2.69996 101.4C3.29996 101.8 3.99994 101.8 4.29994 101.2C4.39994 101.1 4.39995 100.9 4.49995 100.8C4.79995 100.4 4.89994 99.8 4.79994 99.6C4.79994 99.4 3.69995 98.9 2.89995 99.3Z" fill="#E32682"/>
<path d="M5.8 104.9C5.9 105.5 6.60002 105.9 7.20002 105.8C7.70002 105.7 8.20001 105.1 8.10001 104.5C8.00001 104 7.3 103.6 6.8 103.6C6.1 103.7 5.7 104.3 5.8 104.9Z" fill="#E32682"/>
<path d="M2.49997 92C1.99997 92 1.59998 92.6 1.59998 93.1C1.69998 93.7 2.19998 94.2 2.69998 94.2C3.19998 94.1 3.69998 93.6 3.59998 93.1C3.69998 92.6 2.99997 92 2.49997 92Z" fill="#E32682"/>
<path d="M4.19995 85.1C4.19995 85.2 4.49995 85.5 4.59995 85.5C4.79995 85.5 5.29993 85.4 5.29993 85C5.29993 84.6 4.79995 84.5 4.69995 84.5C4.49995 84.7 4.29995 84.9 4.19995 85.1Z" fill="#E32682"/>
<path d="M4.70005 78.9999C4.60005 79.6999 4.30004 80.3999 5.00004 80.7999C5.50004 81.0999 6.00004 80.9999 6.40004 80.4999C6.70004 80.0999 6.80004 79.7999 6.50004 79.2999C6.10004 78.5999 5.50005 78.6999 4.70005 78.9999Z" fill="#E32682"/>
<path d="M1.10005 106.5C0.300047 106.7 -0.499953 107.8 -0.399953 108.7C-0.299953 109.7 0.700041 110.3 2.00004 110.1C3.00004 110 3.60004 109.2 3.50004 108.2C3.40004 107.2 2.20005 106.3 1.10005 106.5Z" fill="#E32682"/>
<path d="M91.9 79.7C91.1 79.8 90.5 80.4 90.4 81C90.4 81.1 90.4 81.1 90.4 81.2L92.8 79.8C92.5 79.7 92.2 79.7 91.9 79.7Z" fill="#E32682"/>
<path d="M78.2001 70.2C77.8001 70.6 77.3 70.6 76.8 70.7C76.6 70.7 76.3 71.3 76.3 71.6C76.3 71.9 76.6 72.3 76.8 72.5C77 72.6 77.5001 72.5 77.7001 72.3C78.1001 72 78.5001 71.5 78.9001 71.1C79.2001 70.7 79.1001 70.4 78.7001 70.1C78.5001 70.2 78.3001 70.1 78.2001 70.2Z" fill="#E32682"/>
<path d="M76.8 62.3C76.5 62.6 76.5 63.1 76.8 63.4C77.2 63.8 77.7 63.9 78 63.5C78.4 63.1 78.4 62.4 78 62.1C77.6 61.8 77.1 61.9 76.8 62.3Z" fill="#E32682"/>
<path d="M76.2 88.6999C76.6 89.0999 77.2 89.0999 77.6 88.6999C78 88.2999 78.1 87.5999 77.7 87.1999C77.3 86.7999 76.6 86.9 76.2 87.3C75.8 87.7 75.8 88.2999 76.2 88.6999Z" fill="#E32682"/>
<path d="M78.3 78.0999C78.7 77.7999 78.7 77.2999 78.4 76.8999C77.8 76.1999 77.3 75.8999 76.9 76.1999C76.5 76.4999 76.3 77.5999 76.6 77.9999C76.9 78.2999 77.9 78.3999 78.3 78.0999Z" fill="#E32682"/>
<path d="M72.4 69C71.8 69.6 71.7 70.5 72.2 70.9C72.7 71.3 73.8 71.4 74.2 71C74.7 70.5 74.4 69.5 73.7 68.9C73.2 68.6 72.8 68.7 72.4 69Z" fill="#E32682"/>
<path d="M46.2 84.3999C45.8 84.5999 45.7 84.9999 45.7 85.3999C45.6 85.8999 46.2 86.3999 46.7 86.2999C47.2 86.1999 47.5 85.8999 47.6 85.2999C47.5 84.8999 46.5 84.1999 46.2 84.3999Z" fill="#E32682"/>
<path d="M67.8 90.7C67.6 91.6 68.1 91.9 67.8 92.1C67.5 92.3 66.8 92.4 66.7 93C66.6 93.6 68.2 94.5 68.5 94.6L70.5 93.4C70.4 93.2 70.5 93 70.8 92.8C71.3 92.4 71.4 91.5 70.6 90.5C69.6 89.6 68 89.8 67.8 90.7Z" fill="#E32682"/>
<path d="M66.1 79.7C65.4 80.4 65.4 81.5 66.1 82.2C66.9 83 68.4 83.1 69.2 82.3C69.9 81.6 69.8 80 69.1 79.3C68.4 78.5 67.1 78.7 66.1 79.7Z" fill="#E32682"/>
<path d="M76.0001 84C75.7001 84.7 76.2001 85.1 76.8001 85.4C77.6001 85.1 77.9001 84.6 77.6001 83.7C77.0001 83.5 76.3001 83.3 76.0001 84Z" fill="#E32682"/>
<path d="M75.8999 67.7C76.3999 68.1 77.0999 68.1 77.4999 67.7C77.7999 67.3 77.8999 66.2 77.5999 66C77.0999 65.6 76.0999 65.7 75.7999 66.2C75.2999 66.6 75.3999 67.3 75.8999 67.7Z" fill="#E32682"/>
<path d="M82.4 76.1C81.7 77 81.6 77.8 82.1 78.3C82.6 78.7 83.9 78.5 84.3 77.9C84.6 77.5 84.4 76.3 83.9 75.9C83.5 75.6 82.7 75.7 82.4 76.1Z" fill="#E32682"/>
<path d="M85.9 82.1C86.6 82.7 87.3 82.8 87.8 82.3C88.2 81.8 88.2 80.3 87.8 79.9C87.2 79.4 86.4 79.5 85.8 80.1C85.1 80.8 85.1 81.3 85.9 82.1Z" fill="#E32682"/>
<path d="M87.3999 76.4C87.1999 76.3 86.7999 76.5 86.6999 76.7C86.5999 77 86.7999 77.2 86.9999 77.3C87.1999 77.4 87.6999 77.2 87.7999 77C87.9999 76.8 87.6999 76.4 87.3999 76.4Z" fill="#E32682"/>
<path d="M87 58C86.5 58.5 86.4 59.5 86.9 59.8C87.4 60.1 88.9 59.2 89 58.6C89.1 58 87.5 57.5 87 58Z" fill="#E32682"/>
<path d="M81.5 71.9C80.9 72.6 81.1 73.3 81.9 74C82.4 74.4 83.3 74.3 83.7 73.9C84.2 73.4 84.2 71.7 83.7 71.4C83.3 70.9 82.1 71.2 81.5 71.9Z" fill="#E32682"/>
<path d="M79.7 66.4999C79.1 67.0999 79.3 67.7999 80 68.4999C80.6 68.9999 81.3 68.8999 81.9 68.1999C82.3 67.6999 82.4 67.0999 82 66.6999C81.6 66.0999 80 65.9999 79.7 66.4999Z" fill="#E32682"/>
<path d="M79.9001 81.8C79.5001 82.6 79.4 83.2 79.8 83.5C80.2 83.8 81.3001 83.5 81.6001 83.1C81.8001 82.7 81.5001 81.8 81.1001 81.5C80.7001 81.1 80.2001 81.3 79.9001 81.8Z" fill="#E32682"/>
<path d="M81.0999 86.5C80.8999 86.7 80.8 86.9 80.7 87.2L82.5999 86C81.9999 85.9 81.3999 86.1 81.0999 86.5Z" fill="#E32682"/>
<path d="M64.8999 86.8C64.9999 87.3 65.1999 87.7 65.7999 87.7C65.9999 87.7 66.2999 87.5 66.3999 87.2C66.3999 87.3 66.4999 87.3 66.4999 87.4C66.8999 87.7 67.4999 87.7 67.8999 87.3C68.2999 86.8 68.2999 86.3 67.8999 85.9C67.4999 85.5 66.7999 85.5 66.3999 85.9C66.2999 86 66.3 86.1 66.2 86.2C66 86.1 65.6999 86.1 65.4999 86.1C65.1999 86 64.7999 86.2 64.8999 86.8Z" fill="#E32682"/>
<path d="M50.5 94.5C49.6 95.4 49.5 95.9 49.9 96.5C50.2 96.9 50.6 97.1 51.2 96.9C51.8 96.7 52.2 96.2 52.1 95.6C51.9 94.8 51.1 94.7 50.5 94.5Z" fill="#E32682"/>
<path d="M51.1 86.9C51 86.9 51 87.2 51.1 87.2C51.2 87.3 51.4 87.4 51.5 87.3C51.6 87.2 51.5 87.1 51.5 86.9C51.3 86.9 51.2 86.9 51.1 86.9Z" fill="#E32682"/>
<path d="M52.2 99.7C52.6 100.1 53.2 100 53.6 99.6C53.7 99.5 53.8 99.3 53.8 99.2C54 99.2 54.1 99.2 54.3 99.2C54.9 99.1 55.2 98.5 55 97.9C54.9 97.4 54.7 96.9 54.2 96.9C53.3 97.1 52.8 97.6 52.9 98.1C52.9 98.1 52.9 98.1 52.9 98.2C52.7 98.2 52.5 98.2 52.4 98.2C52.1 98.4 51.8 99.4 52.2 99.7Z" fill="#E32682"/>
<path d="M52.4 92.6001C52.3 92.9001 52.6 93.4001 52.8 93.5001C53.2 93.7001 53.8 93.7001 54.1 93.5001C54.8 93.1001 54.4 92.4001 54.1 91.8001C53.3 91.7001 52.6 91.8001 52.4 92.6001Z" fill="#E32682"/>
<path d="M48.6 76.1C48.2 76.6 48.2 77.1 48.6 77.5C49.1 78 50.1 78.1 50.4 77.7C50.7 77.4 50.5 76.4 50.1 76C49.6 75.5 49 75.6 48.6 76.1Z" fill="#E32682"/>
<path d="M49.5001 84.4C49.4001 84.5 49.4 84.6 49.3 84.7C49.3 85.4 49.5001 85.5 49.9001 85.8H50.0001C49.7001 86 49.3001 86.6 49.4001 86.9C49.5001 87.4 49.9 87.4 50.3 87.4C50.8 87.3 51.2001 86.9 51.0001 86.4C50.9001 86.3 50.9 86.1 50.8 86C50.9 85.5 51.6001 84.8 51.2001 84.4C50.9001 84 50.0001 84.5 49.5001 84.4Z" fill="#E32682"/>
<path d="M47.9 71.9C47.3 72 46.9 72.5 46.9 73.1C47 73.6 47.5 74.1 48 74C48.6 74 49 73.5 48.9 72.8C48.9 72.2 48.5 71.9 47.9 71.9Z" fill="#E32682"/>
<path d="M53.2 79.8C52.9 79.9 52.7 80.2 52.7 80.4C52.7 80.6 53 81.2 53.2 81.1C53.5 81 53.5999 80.6 53.5999 80.4C53.5999 80.2 53.4 79.8 53.2 79.8Z" fill="#E32682"/>
<path d="M58.0999 93.4C57.5999 93.6 56.4999 93.3 55.7999 93.5C54.6999 93.8 53.8999 94.7 54.2999 95.8C54.7999 97.1 55.7999 97.4 56.8999 97.1C58.3999 96.6 57.6 95.2 58.7 95.2C58.9 95.2 59.1 95.3 59.2 95.3C58.9 95.6 58.6999 95.9 58.7999 96.2C58.8999 97.4 59.5999 98.2 60.2999 98.1C60.9999 98 61.6999 96.9 61.5999 96.2C61.5999 96.1 61.5999 96.1 61.4999 96C62.3999 95.6 62.7999 94.7 62.3999 94C61.7999 93.1 60.8999 93.3 60.7999 93C60.6999 92.8 60.6999 91.7 59.8999 91.7C58.1999 91.7 58.5999 93.2 58.0999 93.4Z" fill="#E32682"/>
<path d="M60.2 68C60.1 68.1 60.2 68.5 60.3 68.7C60.4 68.8 60.8 69.0001 61 68.8001C61.2 68.6001 60.9 68.1 60.8 68C60.8 67.9 60.4 67.9 60.2 68Z" fill="#E32682"/>
<path d="M59.1 79.1C59 79.4 58.6 80.1 59.1 80.5C59.6 80.8 60.2 80.4 60.5 80.1C60.9 79.8 60.6 79.3 60.3 79C59.9 78.6 59.3 78.6 59.1 79.1Z" fill="#E32682"/>
<path d="M60.9 83.2C60.5 83.6999 60.6 85 61.1 85.4C61.5 85.8 62.8 85.6 63.2 85.1C63.5 84.7 63.5 83.8 63.2 83.5C62.4 82.8 61.4 82.7 60.9 83.2Z" fill="#E32682"/>
<path d="M62.9 74.9C62.2 75.7 62.2 76.6 63 77.3C63.7 77.9 64.6 77.9 65 77.4C65.6 76.6 65.5 75.3 64.8 74.6C64.4 74.2 63.4 74.4 62.9 74.9Z" fill="#E32682"/>
<path d="M57.7001 85.3C57.3001 85 56.8001 85.1 56.4001 85.5C56.0001 86 56.3001 86.4 56.6001 86.6C56.9001 86.8 57.7001 87.2 58.0001 86.8C58.3001 86.4 58.0001 85.6 57.7001 85.3Z" fill="#E32682"/>
<path d="M53.2 88.6C52.7 89.3 52.7 90.4 53.3 91C53.7 91.4 54.9 91.2 55.5 90.6C55.9 90.2 56 89.8 55.9 89.4C56.1 89.5 56.3 89.5 56.5 89.4C57.3 89.2 57.9 88.5 57.8 87.9C57.7 87.2 56.7 86.3 56.1 86.4C55.6 86.5 55.1 87.5 55.1 88.3C54.4 88.1 53.5 88.2 53.2 88.6Z" fill="#E32682"/>
<path d="M54.9 74.9C54.8 74.9 54.5 75.2 54.5 75.3C54.6 75.5 54.8 75.8 55 75.8C55.2 75.8 55.7 75.5 55.7 75.3C55.6 75.2 55.1 74.9 54.9 74.9Z" fill="#E32682"/>
<path d="M55.0001 80.3001C55.1001 80.9001 56.0001 81.5001 56.5001 81.5001C56.6001 81.5001 56.7001 81.4001 56.8001 81.4001C56.8001 81.5001 56.8001 81.6 56.8001 81.7C57.4001 82.2 58.0001 82.1 58.2001 81.7C58.3001 81.4 58.3001 80.9 58.1001 80.7C57.9001 80.5 57.6001 80.4001 57.3001 80.5001C57.3001 80.4001 57.3001 80.3 57.3001 80.2C57.2001 79.6 56.7001 79.3001 56.0001 79.4001C55.3001 79.4001 54.9001 79.8001 55.0001 80.3001Z" fill="#E32682"/>
<path d="M117.316 108.931C117.477 109.011 117.397 109.254 117.316 109.335C117.235 109.416 117.073 109.416 116.992 109.335C116.912 109.254 116.831 109.092 116.912 109.011C116.992 108.85 117.154 108.769 117.316 108.931Z" fill="#1BA9F5"/>
<path d="M119.012 96.8896C119.335 97.2129 119.416 97.7787 119.093 98.1828C118.77 98.5869 118.285 98.5869 117.8 98.2636C117.315 97.9403 117.234 97.2937 117.638 96.8896C117.881 96.5663 118.689 96.5663 119.012 96.8896Z" fill="#1BA9F5"/>
<path d="M119.175 113.862C119.418 113.943 119.741 114.186 119.741 114.428C119.822 114.994 119.094 115.317 118.771 115.236C118.448 115.155 118.124 114.509 118.448 114.024C118.609 113.943 119.014 113.862 119.175 113.862Z" fill="#1BA9F5"/>
<path d="M120.467 104.809C121.033 105.294 121.275 106.022 120.871 106.426C120.386 106.992 119.335 107.153 118.689 106.668C118.285 106.345 118.285 105.456 118.689 104.971C119.255 104.405 119.901 104.324 120.467 104.809Z" fill="#1BA9F5"/>
<path d="M114.003 114.022C114.407 114.345 114.488 114.911 114.164 115.396C113.841 115.8 113.275 115.881 112.79 115.558C112.467 115.315 112.386 114.669 112.629 114.264C113.033 113.779 113.599 113.699 114.003 114.022Z" fill="#1BA9F5"/>
<path d="M108.103 107.799C108.264 107.96 108.668 108.445 108.507 108.688C108.345 108.93 107.698 108.849 107.456 108.768C107.133 108.607 106.971 107.96 107.294 107.799C107.537 107.637 107.941 107.637 108.103 107.799Z" fill="#1BA9F5"/>
<path d="M107.536 101.496C108.021 100.93 108.667 100.849 109.314 101.334C109.88 101.819 110.122 102.708 109.799 103.112C109.475 103.597 108.263 103.678 107.859 103.354C107.132 102.789 107.051 102.142 107.536 101.496Z" fill="#1BA9F5"/>
<path d="M134.37 86.7865C134.451 86.3824 134.936 86.0591 135.421 86.2207C135.825 86.3824 136.068 86.8673 135.987 87.2714C135.906 87.7564 135.34 87.9989 135.017 87.8372C134.532 87.6756 134.289 87.2714 134.37 86.7865Z" fill="#1BA9F5"/>
<path d="M111.174 104.891C111.578 103.921 112.548 103.759 113.194 104.487C113.599 104.972 113.922 105.537 114.164 106.103C114.407 106.75 114.003 107.72 113.437 108.043C113.114 108.285 112.144 108.447 111.901 107.639C112.225 106.265 111.174 106.426 111.093 105.376C111.093 105.133 111.174 104.972 111.174 104.891Z" fill="#1BA9F5"/>
<path d="M134.45 91.9582C134.612 92.039 134.531 92.3623 134.45 92.524C134.45 92.6048 134.046 92.8473 133.885 92.6856C133.642 92.524 133.885 92.1198 133.965 91.9582C133.965 91.9582 134.289 91.8774 134.45 91.9582Z" fill="#1BA9F5"/>
<path d="M127.823 101.009C127.984 101.09 128.227 101.494 128.065 101.655C127.903 101.817 127.499 101.736 127.338 101.655C127.257 101.575 127.095 101.332 127.257 101.17C127.418 101.009 127.661 100.928 127.823 101.009Z" fill="#1BA9F5"/>
<path d="M132.187 94.4624C132.591 95.0282 131.944 95.7556 131.378 95.7556C130.813 95.7556 131.055 95.8364 130.813 96.3214C130.57 96.8063 129.924 97.3721 129.196 96.6446C128.469 95.9981 128.792 94.8665 129.277 94.2199C129.843 93.6541 131.621 93.6541 132.187 94.4624Z" fill="#1BA9F5"/>
<path d="M127.823 91.9562C127.661 91.8754 127.5 91.6329 127.5 91.4713C127.5 91.3096 127.742 90.9863 128.065 91.0672C128.389 91.148 128.308 91.5521 128.227 91.7946C128.227 91.8754 127.904 92.0371 127.823 91.9562Z" fill="#1BA9F5"/>
<path d="M106.647 117.902C107.132 118.225 107.212 118.871 106.889 119.276C106.647 119.599 105.919 119.68 105.596 119.437C105.273 119.114 105.192 118.467 105.434 118.144C105.758 117.74 106.242 117.659 106.647 117.902Z" fill="#1BA9F5"/>
<path d="M123.134 97.3724C123.457 97.6957 123.215 98.2615 123.134 98.504C122.972 98.8273 122.649 99.0698 122.245 98.8273C121.841 98.5848 121.598 98.019 121.922 97.7766C122.164 97.5341 122.73 97.13 123.134 97.3724Z" fill="#1BA9F5"/>
<path d="M122.651 94.22C122.409 93.8158 122.975 92.7651 123.46 92.5227C123.945 92.2802 124.349 92.0377 124.834 92.6035C125.157 93.0076 125.561 93.3309 125.884 93.735C126.45 93.9775 126.531 94.4624 126.288 94.8666C126.046 95.3515 125.561 95.4323 124.995 95.1899C124.672 95.109 124.349 94.9474 124.025 94.9474C123.46 94.9474 122.975 94.7857 122.651 94.22Z" fill="#1BA9F5"/>
<path d="M125.237 105.375C125.479 105.618 125.883 106.426 125.722 106.668C125.56 106.992 124.671 106.668 124.59 106.507C124.428 106.183 124.186 105.699 124.429 105.294C124.671 104.971 125.156 105.214 125.237 105.375Z" fill="#1BA9F5"/>
<path d="M127.258 87.8369C127.338 87.8369 127.338 87.8369 127.258 87.8369C127.581 87.5136 127.823 87.5945 128.147 87.8369C128.551 88.0794 128.551 88.5643 128.228 88.8068C127.985 88.9685 127.662 89.0493 127.419 89.1301C127.338 89.0493 127.258 88.9685 127.177 88.8068C127.096 88.8876 127.015 88.8876 126.854 88.8068C126.53 88.726 126.369 88.4027 126.53 88.0794C126.692 87.7561 127.015 87.6753 127.258 87.8369Z" fill="#1BA9F5"/>
<path d="M112.304 96.1625C112.223 96.7282 111.9 97.294 111.334 97.5365C110.768 97.6981 110.364 97.6981 109.96 97.5365L112.304 96.1625Z" fill="#1BA9F5"/>
<path d="M88.3801 124.206C88.2993 123.801 88.5417 123.236 88.9459 123.155C89.35 122.993 89.9966 123.317 90.1582 123.721C90.3199 124.125 89.9966 124.61 89.5925 124.771C89.1075 124.852 88.5418 124.61 88.3801 124.206Z" fill="#1BA9F5"/>
<path d="M106.162 112.971C106.647 113.213 106.728 113.617 106.405 114.102C106.082 114.587 105.597 114.668 105.192 114.426C104.788 114.183 104.708 113.617 104.869 113.294C105.112 112.809 105.677 112.728 106.162 112.971Z" fill="#1BA9F5"/>
<path d="M89.27 120.246C89.4317 120.327 89.3508 120.569 89.27 120.65C89.1892 120.731 89.0275 120.731 88.9467 120.65C88.8659 120.569 88.7851 120.407 88.8659 120.327C88.9467 120.246 89.1084 120.084 89.27 120.246Z" fill="#1BA9F5"/>
<path d="M89.0264 119.275C89.0264 119.114 89.0264 118.952 89.1072 118.71C88.6222 118.386 88.5414 117.901 88.7839 117.659C89.1072 117.336 89.9963 117.174 90.3196 117.416C90.6429 117.659 90.7237 118.305 90.4004 118.71C90.4004 118.71 90.3196 118.71 90.3196 118.79C90.4004 118.871 90.4004 118.952 90.4004 118.952C90.562 119.275 90.1579 119.76 89.7538 119.76C89.4305 119.841 89.0264 119.76 89.0264 119.275Z" fill="#1BA9F5"/>
<path d="M88.1379 138.837C88.4612 138.676 88.6229 139.161 88.7037 139.322C88.7845 139.403 88.5421 139.726 88.4612 139.726C88.2996 139.726 87.9763 139.645 87.8955 139.484C87.8955 139.403 87.8146 138.999 88.1379 138.837Z" fill="#1BA9F5"/>
<path d="M84.5013 129.542C85.3095 129.299 86.2794 129.703 86.3602 130.35C86.4411 130.835 85.9561 131.562 85.3095 131.724C84.7437 131.886 84.0972 131.401 83.9355 130.754C83.7739 130.108 83.9355 129.703 84.5013 129.542Z" fill="#1BA9F5"/>
<path d="M85.6322 136.735C85.9555 136.735 86.1171 137.059 86.198 137.139C86.198 137.301 86.198 137.624 85.8747 137.705C85.5514 137.786 85.2281 137.624 85.2281 137.301C85.0664 136.978 85.3089 136.735 85.6322 136.735Z" fill="#1BA9F5"/>
<path d="M86.36 121.055C86.5216 120.974 86.7641 120.813 86.9257 120.893C87.0874 120.974 87.2491 121.459 87.1682 121.54C87.0874 121.702 86.6025 121.621 86.4408 121.54C86.36 121.459 86.36 121.055 86.36 121.055Z" fill="#1BA9F5"/>
<path d="M87.0871 116.611C87.1679 116.449 87.572 116.207 87.7337 116.288C87.8953 116.449 87.8145 116.854 87.7337 116.934C87.572 117.096 87.3295 117.339 87.1679 117.177C87.0871 117.096 87.0062 116.773 87.0871 116.611Z" fill="#1BA9F5"/>
<path d="M91.2908 130.674C91.6949 130.512 92.1798 130.835 92.3415 131.239C92.5031 131.643 92.2606 132.209 91.8565 132.29C91.3716 132.371 90.9675 132.209 90.8058 131.724C90.5633 131.32 90.8058 130.754 91.2908 130.674Z" fill="#1BA9F5"/>
<path d="M101.231 112.65C100.665 112.246 100.504 111.438 100.827 111.114C101.312 110.549 102.363 110.468 103.009 110.872C103.414 111.114 103.414 111.923 103.009 112.408C102.444 112.973 101.797 113.054 101.231 112.65Z" fill="#1BA9F5"/>
<path d="M83.4493 124.291C83.7726 124.291 84.5 124.937 84.3383 125.665C84.2575 126.069 83.9342 126.392 83.3684 126.392C82.8835 126.392 82.4794 126.149 82.3986 125.665C82.3986 124.937 83.2068 124.291 83.4493 124.291Z" fill="#1BA9F5"/>
<path d="M105.839 107.393C106.324 107.797 106.486 108.282 106.243 108.767C105.92 109.252 104.707 109.495 104.303 109.252C103.738 108.848 103.657 108.121 104.142 107.474C104.546 106.908 105.112 106.908 105.839 107.393Z" fill="#1BA9F5"/>
<path d="M101.877 122.105C102.12 122.186 102.605 123.156 102.362 123.56C102.12 123.964 101.069 123.56 100.746 123.318C100.503 123.156 100.342 122.51 100.584 122.186C100.746 121.782 101.473 121.944 101.877 122.105Z" fill="#1BA9F5"/>
<path d="M99.7757 106.91C100.261 107.234 100.341 108.365 99.9373 108.85C99.614 109.254 98.6441 109.335 98.1592 109.012C97.755 108.769 97.5934 107.961 97.8358 107.638C98.4016 106.91 99.2907 106.587 99.7757 106.91Z" fill="#1BA9F5"/>
<path d="M90.4008 112.647C90.2391 112 90.8857 111.192 91.6131 111.111C92.0173 111.031 92.4214 111.111 92.6638 111.435C92.9871 111.354 93.3104 111.435 93.4721 111.596C93.957 112.081 94.1187 112.809 93.7954 113.213C93.5529 113.536 92.9063 113.779 92.4214 113.779C92.2597 113.859 92.1789 113.859 92.0173 113.94C91.2898 114.021 90.6432 113.536 90.4008 112.647Z" fill="#1BA9F5"/>
<path d="M98.7265 116.689C99.0498 116.528 99.2923 116.447 99.6156 116.608C99.9389 116.851 99.9389 117.74 99.6964 117.902C99.6964 117.902 99.6156 117.902 99.5347 117.902C99.0498 118.225 98.6457 118.629 98.0799 118.144C97.7566 117.821 97.6758 117.417 97.8374 116.932C98.0799 116.77 98.3224 116.608 98.7265 116.689Z" fill="#1BA9F5"/>
<path d="M93.7966 125.58C94.3624 125.257 94.8474 125.338 95.3323 125.661C95.8173 125.985 95.8981 126.55 95.6556 127.035C95.494 127.439 95.3323 128.409 94.6857 128.49C94.0391 128.571 94.0391 127.924 93.7966 127.763C93.2309 127.116 93.2309 125.985 93.7966 125.58Z" fill="#1BA9F5"/>
<path d="M98.2411 114.505C97.7562 114.181 97.6754 113.616 97.9987 113.131C98.322 112.807 98.9686 112.646 99.2919 112.969C99.696 113.292 99.7768 113.939 99.4535 114.343C99.0494 114.666 98.5644 114.747 98.2411 114.505Z" fill="#1BA9F5"/>
<path d="M103.009 104.889C103.332 104.566 103.898 104.566 104.302 104.889C104.706 105.212 104.706 105.617 104.383 106.021C104.06 106.344 103.494 106.425 103.09 106.182C102.686 105.94 102.686 105.212 103.009 104.889Z" fill="#1BA9F5"/>
<path d="M75.2872 119.762C75.2063 119.277 75.368 119.034 75.7721 118.792C76.2571 118.63 76.6612 118.711 76.9845 119.034C77.3886 119.6 77.0653 120.328 76.6612 120.57C76.2571 120.813 75.4488 120.489 75.2872 119.762Z" fill="#1BA9F5"/>
<path d="M74.6403 120.649C74.802 120.406 75.4486 120.487 75.5294 120.568C75.691 120.73 75.9335 121.134 75.8527 121.295C75.7719 121.457 75.2869 121.538 75.0444 121.457C74.8828 121.457 74.5595 120.891 74.6403 120.649Z" fill="#1BA9F5"/>
<path d="M80.2172 120.812C79.8131 120.489 79.6514 120.004 79.9747 119.6C80.2172 119.276 80.783 119.115 81.1063 119.357C81.5104 119.6 81.5912 120.166 81.2679 120.65C81.0254 121.055 80.6213 121.135 80.2172 120.812Z" fill="#1BA9F5"/>
<path d="M73.5097 133.259C73.1864 133.259 72.459 133.421 72.2974 132.936C72.1357 132.37 72.8631 132.128 73.1056 131.885C73.4289 131.643 73.833 131.966 73.9947 132.37C74.1563 132.855 73.9947 133.259 73.5097 133.259Z" fill="#1BA9F5"/>
<path d="M79.9746 117.658C79.7321 116.769 79.9746 116.284 80.6212 116.123C81.2678 115.961 82.2377 116.446 82.3185 117.012C82.4801 117.578 81.9144 118.548 81.2678 118.709C80.7828 118.871 80.1362 118.305 79.9746 117.658Z" fill="#1BA9F5"/>
<path d="M86.0364 112.164C86.2789 112.972 85.7939 113.942 84.9856 114.185C84.339 114.346 83.6925 114.266 83.2075 113.861L86.0364 112.164Z" fill="#1BA9F5"/>
<path d="M74.9633 124.936C75.6099 124.774 76.1757 125.017 76.3373 125.502C76.4181 125.986 75.8524 127.199 75.4482 127.28C74.8016 127.441 74.0742 127.037 73.9126 126.229C73.7509 125.582 74.155 125.178 74.9633 124.936Z" fill="#1BA9F5"/>
<path d="M84.9856 116.69C85.1473 117.014 84.9856 117.337 84.5815 117.337C84.2582 117.337 83.5308 117.256 83.45 116.933C83.3691 116.609 84.0966 116.205 84.339 116.125C84.5815 116.125 84.9048 116.529 84.9856 116.69Z" fill="#1BA9F5"/>
<path d="M82.3185 114.832C82.076 115.155 81.8336 115.155 81.5103 114.912L82.561 114.266C82.561 114.427 82.4801 114.67 82.3185 114.832Z" fill="#1BA9F5"/>
<path d="M94.0384 122.996C93.9575 122.915 93.8767 122.591 93.8767 122.43C93.9575 122.268 94.3617 121.945 94.5233 122.187C94.685 122.349 94.685 122.753 94.5233 122.915C94.5233 122.996 94.2 123.076 94.0384 122.996Z" fill="#1BA9F5"/>
<path d="M66.5581 129.784C66.154 129.865 65.3457 129.542 65.2649 129.218C65.1841 128.814 65.5882 128.087 65.9923 128.006C66.5581 127.844 67.0431 128.087 67.2047 128.653C67.2855 129.137 66.9622 129.703 66.5581 129.784Z" fill="#1BA9F5"/>
<path d="M65.8294 134.957C65.0211 135.199 64.2937 134.634 64.0512 133.825C63.7279 132.694 64.1321 131.966 65.2636 131.643C66.1527 131.401 67.1226 132.047 67.3651 133.017C67.5267 133.664 66.7185 134.714 65.8294 134.957Z" fill="#1BA9F5"/>
<path d="M135.097 82.2591L137.845 80.5618C138.491 81.1276 138.734 82.1783 138.249 82.8249C137.764 83.3907 136.228 83.6331 135.582 83.229C135.339 82.9865 135.178 82.6632 135.097 82.2591Z" fill="#1BA9F5"/>
<path d="M63.5671 130.105C63.8095 130.833 63.1629 131.803 62.3547 131.964C61.5464 132.126 60.4149 131.56 60.2533 130.833C60.0108 129.944 60.4957 128.974 61.2232 128.812C61.9506 128.65 63.4054 129.459 63.5671 130.105Z" fill="#1BA9F5"/>
<path d="M57.91 132.044C57.9908 132.044 58.1524 132.367 58.0716 132.529C57.9908 132.691 57.6675 132.691 57.5058 132.691C57.425 132.691 57.1017 132.367 57.1825 132.125C57.3442 131.882 57.7483 131.963 57.91 132.044Z" fill="#1BA9F5"/>
<path d="M49.6656 135.927C50.0698 136.089 50.2314 136.654 49.9889 136.897C49.7465 137.059 49.3423 137.624 48.9382 137.301C48.5341 136.978 48.6957 136.412 48.7766 136.089C48.9382 135.685 49.3423 135.765 49.6656 135.927Z" fill="#1BA9F5"/>
<path d="M31.156 146.109C30.9943 146.029 30.8327 145.948 30.7518 145.786L32.9341 144.412C33.0149 144.735 33.0149 145.22 32.8533 145.544C32.53 146.352 31.8834 146.514 31.156 146.109Z" fill="#1BA9F5"/>
<path d="M36.2478 142.555C36.167 142.555 36.167 142.555 36.0862 142.555L36.652 142.232C36.7328 142.475 36.3287 142.636 36.2478 142.555Z" fill="#1BA9F5"/>
<path d="M23.8826 150.556C23.721 150.718 23.4785 150.961 23.3977 151.122C23.0744 152.011 22.5086 152.335 21.6195 151.93C21.6195 152.092 21.6195 152.173 21.5387 152.254C21.2962 152.577 20.7305 152.658 20.2455 152.415C20.1647 152.415 20.0839 152.335 20.0031 152.254L24.8525 149.344C24.6909 149.829 24.2868 150.233 23.8826 150.556Z" fill="#1BA9F5"/>
<path d="M87.5723 111.842C87.4915 111.762 87.3298 111.6 87.3298 111.357L88.3806 110.711C88.623 110.953 88.623 111.357 88.3806 111.519C88.1381 111.681 87.8956 111.923 87.5723 111.842Z" fill="#1BA9F5"/>
<path d="M144.716 79.1067C145.039 79.1875 145.039 79.5916 144.958 79.6724C144.877 79.8341 144.635 79.9149 144.473 79.9957C144.392 79.9957 144.15 79.6724 144.231 79.5916C144.311 79.43 144.473 79.1067 144.716 79.1067Z" fill="#1BA9F5"/>
<path d="M94.6843 119.437C94.9268 119.276 95.1693 119.68 95.2501 119.76C95.2501 119.922 95.1693 120.165 95.0076 120.326C94.9268 120.407 94.6035 120.245 94.5227 120.165C94.5227 119.922 94.4419 119.599 94.6843 119.437Z" fill="#1BA9F5"/>
<path d="M92.8253 109.012C92.502 108.851 92.2595 108.689 92.0979 108.528L93.4719 107.719L93.5527 107.8C93.7952 108.366 93.2294 108.608 92.8253 109.012Z" fill="#1BA9F5"/>
<path d="M139.3 85.3296C139.138 84.5213 139.785 83.5514 140.512 83.6323C141.159 83.6323 141.563 84.0364 141.725 84.6022C141.967 85.1679 141.644 85.6529 141.24 85.8954C140.836 86.1378 140.189 86.7844 139.623 86.4611C138.977 86.1378 139.3 85.6529 139.3 85.3296Z" fill="#1BA9F5"/>
<path d="M130.813 85.493C130.975 85.6547 130.894 86.1396 130.813 86.2205C130.732 86.3821 130.409 86.4629 130.247 86.3821C130.085 86.3013 130.085 85.8972 130.166 85.8163C130.247 85.6547 130.651 85.4122 130.813 85.493Z" fill="#1BA9F5"/>
<path d="M113.518 100.848C113.679 101.172 113.599 101.737 113.275 101.899C112.871 102.142 111.982 101.414 112.063 101.091C112.225 100.687 113.275 100.444 113.518 100.848Z" fill="#1BA9F5"/>
<path d="M112.629 97.3739C112.952 97.3739 113.356 97.5356 113.518 97.6972C113.841 98.1822 113.437 98.5055 113.114 98.7479C112.548 98.7479 112.144 98.5054 112.224 97.8588C112.144 97.6972 112.467 97.3739 112.629 97.3739Z" fill="#1BA9F5"/>
<path d="M102.525 106.828C102.606 107.071 102.202 107.313 102.04 107.313C101.959 107.313 101.636 107.232 101.555 107.071C101.474 106.909 101.717 106.667 101.878 106.586C102.04 106.505 102.444 106.586 102.525 106.828Z" fill="#1BA9F5"/>
<path d="M138.411 80.2387C138.33 80.3196 138.168 80.4004 138.007 80.4812L138.411 80.2387Z" fill="#1BA9F5"/>
<path d="M120.064 100.28C120.468 100.522 120.549 101.088 120.225 101.492C119.902 101.977 119.417 102.058 119.013 101.735C118.609 101.412 118.447 100.927 118.77 100.522C119.013 100.199 119.659 100.038 120.064 100.28Z" fill="#1BA9F5"/>
<path d="M99.4526 103.919L101.312 102.787C101.312 103.03 101.231 103.191 101.069 103.434C100.746 103.919 100.018 104.081 99.4526 103.919Z" fill="#1BA9F5"/>
<path d="M108.668 98.3433L110.042 97.535C110.042 97.6159 109.961 97.6967 109.88 97.6967C109.557 98.2625 109.072 98.4241 108.668 98.3433Z" fill="#1BA9F5"/>
<path d="M118.366 92.4424L120.144 91.3109C120.144 91.7958 119.902 92.2808 119.498 92.4424C119.094 92.6849 118.689 92.6041 118.366 92.4424Z" fill="#1BA9F5"/>
<path d="M9.01027 151.85C8.36367 151.446 7.95956 150.476 8.28285 149.83C8.60615 149.183 9.17192 148.779 9.81852 148.779C9.65687 148.536 9.49522 148.294 9.49522 147.89L11.6775 149.183C11.5158 149.264 11.3542 149.264 11.2734 149.264H11.1925C11.5967 149.668 11.5967 150.314 11.2734 150.961C11.1925 151.204 11.0309 151.446 10.8692 151.608C11.0309 151.688 11.2734 151.769 11.3542 152.012C11.6775 152.497 11.2734 153.305 10.7076 153.547C10.2226 153.79 9.4144 153.628 9.0911 153.224C8.52533 152.739 8.84862 152.012 9.01027 151.85Z" fill="#1BA9F5"/>
<path d="M8.03985 160.416C7.5549 160.254 7.31242 159.769 7.39325 159.203C7.47407 158.88 7.5549 158.557 7.47408 158.233C7.31243 157.668 7.39325 157.102 7.8782 156.778C8.2015 156.455 9.41387 156.778 9.73717 157.183C10.0605 157.587 10.3838 157.991 9.97964 158.557C9.65634 158.961 9.41387 159.446 9.09057 159.85C8.92892 160.416 8.52479 160.577 8.03985 160.416Z" fill="#1BA9F5"/>
<path d="M9.17265 163.244C9.90007 163.648 10.2234 165.345 9.57677 166.073C9.09182 166.639 8.28357 166.073 8.12192 165.588C7.96027 165.103 7.96027 165.265 7.39449 165.103C6.82872 164.941 6.18214 164.456 6.74791 163.648C7.23286 162.84 8.3644 162.84 9.17265 163.244Z" fill="#1BA9F5"/>
<path d="M12.243 167.287C12.3238 167.287 12.4854 167.61 12.4046 167.771C12.3238 167.933 12.0005 167.933 11.8388 167.933C11.758 167.933 11.4347 167.61 11.5155 167.367C11.6772 167.125 12.0813 167.206 12.243 167.287Z" fill="#1BA9F5"/>
<path d="M4.2424 156.618C4.48487 156.779 5.05064 157.345 4.80817 157.749C4.5657 158.153 3.99993 157.992 3.67663 157.911C3.35333 157.83 3.03003 157.588 3.19168 157.103C3.43415 156.779 3.9191 156.375 4.2424 156.618Z" fill="#1BA9F5"/>
<path d="M4.32265 152.254C4.72678 152.496 4.88842 153.224 4.64595 153.628C4.40347 154.032 3.83769 154.194 3.35275 153.951C2.94862 153.709 2.78698 153.224 3.02945 152.739C3.27193 152.254 3.8377 152.011 4.32265 152.254Z" fill="#1BA9F5"/>
<path d="M12.3235 152.333C12.566 151.848 13.1317 151.605 13.6167 151.767C14.0208 151.928 14.1825 152.494 13.94 152.979C13.6975 153.383 13.2934 153.626 12.8893 153.464C12.3235 153.302 12.081 152.818 12.3235 152.333Z" fill="#1BA9F5"/>
<path d="M7.47485 146.998C7.9598 147.159 8.12145 147.563 7.87897 148.048C7.71732 148.533 7.23238 148.776 6.74743 148.614C6.26249 148.452 6.02001 147.806 6.26248 147.402C6.42413 146.998 6.9899 146.836 7.47485 146.998Z" fill="#1BA9F5"/>
<path d="M2.46406 146.272C2.14077 145.787 2.05993 145.383 2.14076 144.979C2.05993 144.979 1.97912 144.898 1.89829 144.898C1.00922 144.575 0.928399 143.847 1.09005 143.039C0.6051 142.878 -0.0415039 142.958 -0.0415039 142.231L4.96962 145.302C5.05044 145.787 4.96962 146.434 4.64633 146.676C4.2422 147.08 2.94901 147.08 2.46406 146.272Z" fill="#1BA9F5"/>
<path d="M23.5601 166.559C24.2875 166.963 24.6916 168.094 24.3683 168.822C23.9642 169.711 22.9135 170.115 22.1861 169.792C21.5395 169.388 20.9737 167.933 21.297 167.286C21.6203 166.478 22.7518 166.155 23.5601 166.559Z" fill="#1BA9F5"/>
<path d="M26.8727 151.686C27.3576 151.524 28.0851 152.09 27.9234 152.818C27.8426 153.141 27.4385 153.464 27.196 153.545C26.9535 153.626 26.4686 153.383 26.3069 153.141C25.9028 152.575 26.3877 151.767 26.8727 151.686Z" fill="#1BA9F5"/>
<path d="M24.4476 154.92C24.0435 154.759 23.801 154.193 24.0435 153.708C24.286 153.223 24.7709 152.98 25.1751 153.142C25.66 153.304 25.9025 153.87 25.66 154.354C25.4984 154.839 24.8518 155.163 24.4476 154.92Z" fill="#1BA9F5"/>
<path d="M30.7532 160.012C31.4806 160.416 31.8039 161.143 31.4806 161.79C31.0765 162.679 29.7833 163.245 29.1367 162.841C28.4901 162.437 28.1668 161.628 28.4901 160.901C28.8942 159.931 29.945 159.608 30.7532 160.012Z" fill="#1BA9F5"/>
<path d="M23.9628 159.204C23.4779 159.043 23.2354 158.638 23.3162 158.153C23.397 157.911 23.6395 157.588 23.882 157.507C24.3669 157.264 24.6902 157.507 25.1752 158.396C24.8519 158.8 24.6902 159.447 23.9628 159.204Z" fill="#1BA9F5"/>
<path d="M1.97895 162.599C2.1406 162.68 2.30225 162.922 2.22143 163.084C2.22143 163.246 1.81731 163.569 1.65566 163.488C1.41318 163.407 1.49401 162.922 1.49401 162.761C1.57484 162.68 1.8173 162.518 1.97895 162.599Z" fill="#1BA9F5"/>
<path d="M17.6587 162.436C17.8203 162.517 18.1436 162.84 18.0628 163.002C17.982 163.164 17.497 163.245 17.3354 163.164C17.1737 163.083 17.0121 162.84 17.0929 162.598C17.1737 162.436 17.497 162.355 17.6587 162.436Z" fill="#1BA9F5"/>
<path d="M16.2035 156.053C16.5268 156.295 16.4459 156.538 16.3651 156.861C16.2035 157.265 15.7185 157.427 15.3952 157.184C15.1527 156.942 15.0719 156.619 14.9911 156.457C15.2336 155.972 15.7993 155.81 16.2035 156.053Z" fill="#1BA9F5"/>
<path d="M15.0714 160.012C15.3947 160.255 15.3139 160.497 15.233 160.82C15.0714 161.224 14.5864 161.386 14.2631 161.144C14.0207 160.901 13.9398 160.578 13.859 160.416C14.1823 159.85 14.7481 159.77 15.0714 160.012Z" fill="#1BA9F5"/>
<path d="M30.591 166.478C30.7526 166.397 31.1568 166.559 31.2376 166.72C31.3184 166.882 31.2376 167.286 31.0759 167.367C30.9951 167.448 30.4293 167.528 30.2677 167.286C30.106 167.124 30.4293 166.559 30.591 166.478Z" fill="#1BA9F5"/>
<path d="M21.215 155.566C21.8616 155.808 22.1041 156.536 21.7808 157.263C21.5383 157.829 20.8917 157.99 20.1643 157.667C19.5985 157.425 19.356 156.94 19.5985 156.455C19.841 155.97 20.8109 155.404 21.215 155.566Z" fill="#1BA9F5"/>
<path d="M2.22028 147.16C2.38193 147.16 2.78606 147.322 2.86688 147.484C2.94771 147.807 2.86688 148.211 2.70524 148.373C2.30111 148.777 1.89698 148.454 1.57368 148.13C1.41203 147.645 1.57369 147.16 2.22028 147.16Z" fill="#1BA9F5"/>
<path d="M0.927834 154.11C1.33196 154.271 1.57444 154.918 1.49362 155.322C1.33197 155.726 0.766195 155.969 0.281247 155.726C-0.2037 155.484 -0.446179 154.999 -0.203705 154.595C-0.0420561 154.191 0.523711 153.948 0.927834 154.11Z" fill="#1BA9F5"/>
<path d="M68.2551 137.542C69.1442 137.299 70.0333 137.865 70.1949 138.835C70.3566 139.562 69.7908 140.371 69.0634 140.532C68.3359 140.694 67.4469 140.047 67.2852 138.997C67.0427 138.269 67.4469 137.703 68.2551 137.542Z" fill="#1BA9F5"/>
<path d="M56.6161 139.968C56.4545 139.402 56.7778 138.836 57.5052 138.675C58.1518 138.432 59.2025 138.755 59.3641 139.321C59.6066 140.049 59.1217 140.938 58.4751 141.18C57.7477 141.342 56.8586 140.776 56.6161 139.968Z" fill="#1BA9F5"/>
<path d="M55.4036 130.834C56.131 131.319 57.0201 132.208 56.6968 133.662C56.5351 134.552 56.0502 135.117 55.4844 135.36C54.757 135.683 54.1104 134.956 53.383 134.956C52.009 135.037 51.4432 134.228 51.3624 133.339C51.2815 133.42 51.1199 133.42 51.0391 133.501L55.4036 130.834Z" fill="#1BA9F5"/>
<path d="M59.1209 133.664C59.2018 133.422 59.5251 133.422 59.6867 133.422C59.8484 133.502 60.1717 133.826 60.0908 133.987C60.01 134.149 59.5251 134.23 59.3634 134.149C59.2018 134.149 58.9593 133.907 59.1209 133.664Z" fill="#1BA9F5"/>
<path d="M62.84 141.016C63.4057 140.774 64.4565 141.34 64.6181 141.905C64.7798 142.471 64.2948 143.279 63.6482 143.522C63.0016 143.764 62.5167 143.441 62.2742 142.552C62.1126 141.986 62.4358 141.097 62.84 141.016Z" fill="#1BA9F5"/>
<path d="M53.1407 147.726C53.4639 147.888 53.5448 148.454 53.3831 148.777C53.1407 149.181 52.3324 149.262 52.0899 148.616C51.9283 147.888 52.7365 147.565 53.1407 147.726Z" fill="#1BA9F5"/>
<path d="M53.8681 142.312C54.0297 142.15 54.4338 142.07 54.6763 142.15C55.6462 142.312 56.1312 143.039 56.0503 144.009C56.0503 144.171 56.0503 144.413 55.9695 144.575C56.3736 144.575 56.6969 144.575 57.0202 144.656C57.6668 144.737 57.9093 145.06 57.9093 145.707C57.9093 146.353 57.586 146.757 57.0202 147C56.4545 147.242 55.9695 147 55.6462 146.596C55.4037 146.353 55.2421 145.949 54.9996 145.545C54.838 145.545 54.5955 145.545 54.4338 145.464C53.7064 145.303 53.0598 144.737 52.979 144.09C52.979 143.444 53.3023 142.797 53.8681 142.312Z" fill="#1BA9F5"/>
<path d="M52.8986 136.411C53.3835 136.573 53.626 137.301 53.4644 137.705C53.3027 138.109 52.4945 138.27 51.767 137.947C51.6862 137.786 51.5246 137.462 51.6054 137.22C51.7671 136.573 52.4136 136.25 52.8986 136.411Z" fill="#1BA9F5"/>
<path d="M65.8289 146.353C66.2331 146.191 66.8797 146.515 66.9605 146.919C67.1221 147.485 66.7988 148.293 66.3947 148.455C65.8289 148.616 64.9399 148.293 64.7782 147.808C64.5357 147.242 65.0207 146.596 65.8289 146.353Z" fill="#1BA9F5"/>
<path d="M55.4039 138.026C54.7574 137.945 54.5957 137.379 54.5957 136.733C54.9998 136.409 55.4039 136.086 55.9697 136.409C56.3738 136.652 56.5355 137.137 56.2122 137.541C56.0505 137.864 55.6464 138.107 55.4039 138.026Z" fill="#1BA9F5"/>
<path d="M59.6066 134.875C59.6066 134.229 60.0915 134.067 60.6573 133.825C61.0614 134.229 61.6272 134.552 61.3039 135.199C61.3039 135.28 61.2231 135.28 61.2231 135.36C61.708 135.603 62.193 136.169 62.2738 136.573C62.3546 137.058 62.0313 137.462 61.5464 137.623C60.7381 137.785 60.0107 137.462 59.9299 136.896C59.849 136.411 59.9299 136.007 60.1723 135.684C59.7682 135.603 59.6066 135.28 59.6066 134.875Z" fill="#1BA9F5"/>
<path d="M79.2463 125.095C78.7614 125.175 78.1956 124.852 78.1148 124.286C78.034 123.801 78.3573 123.317 78.8422 123.236C79.2463 123.155 79.8121 123.559 79.8929 123.963C80.0546 124.529 79.7313 125.014 79.2463 125.095Z" fill="#1BA9F5"/>
<path d="M81.9962 136.895C82.1578 136.895 82.5619 136.814 82.6428 137.056C82.6428 137.299 82.4811 137.541 82.3195 137.622C82.1578 137.703 81.6729 137.622 81.592 137.38C81.5112 137.137 81.9154 136.895 81.9962 136.895Z" fill="#1BA9F5"/>
<path d="M76.337 129.622C76.0945 128.814 76.4986 128.086 77.3069 127.925C78.1959 127.682 79.2467 128.329 79.4083 129.218C79.57 129.864 78.9234 130.834 78.1959 131.077C77.3069 131.319 76.5794 130.673 76.337 129.622Z" fill="#1BA9F5"/>
<path d="M80.8638 121.056C81.3487 120.813 81.9145 121.298 81.9953 121.864C82.0762 122.268 81.7529 122.753 81.2679 122.753C80.783 122.834 80.298 122.43 80.1364 121.783C80.3788 121.622 80.5405 121.217 80.8638 121.056Z" fill="#1BA9F5"/>
<path d="M79.5707 139.404C79.6515 139.727 79.5707 140.212 79.1666 140.212C78.8433 140.212 78.3583 140.05 78.3583 139.808C78.2775 139.565 78.52 139.161 78.6008 138.919C79.1666 138.757 79.409 139.08 79.5707 139.404Z" fill="#1BA9F5"/>
<path d="M74.8014 135.521C76.2562 134.713 77.0645 135.198 77.0645 137.057C77.1453 137.138 77.2261 137.219 77.3878 137.219C77.8727 137.38 77.9535 137.704 77.9535 138.108C77.9535 138.512 77.7111 138.754 77.3878 138.916C76.4987 139.32 76.0946 139.158 75.7713 138.269C75.5288 137.623 75.2055 136.895 74.963 136.249C73.6698 136.653 73.5082 136.572 73.4274 135.441C73.8315 134.956 74.3164 135.036 74.8014 135.521Z" fill="#1BA9F5"/>
<path d="M70.1935 124.53C70.1127 124.368 70.1935 123.964 70.3551 123.641C69.8702 123.641 69.5469 123.479 69.3852 123.075C69.2236 122.509 69.6277 121.944 70.3551 121.944C71.0017 121.944 71.1634 121.54 71.4867 121.216L71.4058 121.135L73.4265 119.842C73.5073 120.327 73.3456 120.731 72.699 121.135C73.184 121.216 73.4265 121.378 73.6689 121.297C74.1539 121.216 74.4772 121.459 74.6388 121.944C74.8005 122.429 74.8813 122.914 74.4772 123.398C73.1032 124.692 72.6182 124.692 71.0825 123.56C71.0825 123.56 71.0017 123.56 70.9209 123.479C71.0825 123.641 71.325 123.883 71.4058 124.045C71.5675 124.368 71.4867 124.773 71.0825 124.934C70.6784 125.096 70.2743 124.934 70.1935 124.53Z" fill="#1BA9F5"/>
<path d="M69.7903 131.239C69.3053 131.32 68.3355 130.512 68.1738 129.865C68.093 129.461 68.4971 128.814 68.982 128.653C69.7095 128.491 70.4369 128.814 70.5985 129.38C70.7602 130.188 70.3561 131.077 69.7903 131.239Z" fill="#1BA9F5"/>
<path d="M72.3769 142.959C72.8619 143.201 73.4277 143.282 73.4277 144.01C73.4277 144.414 73.1044 144.737 72.6194 144.818C72.3769 144.818 71.9728 144.656 71.8112 144.494C71.4071 143.767 71.7303 143.363 72.3769 142.959Z" fill="#1BA9F5"/>
<path d="M45.0587 139.24C44.6546 138.674 44.897 137.785 45.5436 137.381C45.6245 137.381 45.6245 137.3 45.7053 137.3C45.382 137.461 44.897 137.542 44.5737 137.381L46.3519 136.33C46.3519 136.492 46.3519 136.653 46.2711 136.815C46.1902 136.976 45.9477 137.138 45.7861 137.3C46.3519 137.057 46.5943 137.3 46.9985 136.976C47.4026 136.653 47.7259 136.815 48.13 137.138C48.4533 137.381 48.8574 137.704 48.8574 138.108C49.0191 138.027 49.1807 138.027 49.2616 138.027C49.6657 138.108 49.8273 138.835 49.504 139.078C49.3424 139.24 49.0191 139.32 48.8574 139.32C48.5341 139.159 48.3725 138.916 48.2917 138.674C47.9684 138.916 47.6451 138.674 47.4834 138.593C47.3218 138.431 46.8368 138.431 46.9985 138.674C47.0793 138.916 46.9985 139.159 46.4327 139.482C45.8669 139.886 45.382 139.805 45.0587 139.24Z" fill="#1BA9F5"/>
<path d="M38.9964 160.416C39.2388 160.578 39.7238 160.982 39.4813 161.467C39.2388 161.952 38.6731 161.71 38.5114 161.548C38.3498 161.467 38.1881 161.063 38.1881 160.82C38.2689 160.336 38.6731 160.255 38.9964 160.416Z" fill="#1BA9F5"/>
<path d="M36.3298 148.776C35.9257 148.614 35.764 148.049 36.0065 147.644C36.1682 147.24 36.6531 147.079 36.9764 147.402C37.2189 147.644 37.4613 147.968 37.3805 148.21C37.3805 148.453 36.7339 148.938 36.3298 148.776Z" fill="#1BA9F5"/>
<path d="M50.7963 141.261C51.1196 141.422 51.2004 141.988 51.0387 142.311C50.7962 142.716 50.473 142.635 49.7455 142.15C49.5839 141.342 50.473 141.018 50.7963 141.261Z" fill="#1BA9F5"/>
<path d="M39.1583 145.789C38.9966 145.87 38.835 145.87 38.6733 145.87C37.5418 145.87 36.976 145.224 36.8952 144.335C36.8143 143.041 38.1884 143.203 37.7842 142.395C37.6226 142.071 37.3801 141.991 37.2185 141.91L40.0473 140.213L40.1281 140.293C40.3706 141.021 40.1282 141.344 39.8857 141.667C40.1282 141.587 40.3706 141.667 40.5323 141.91C40.8556 142.476 41.3405 142.961 41.1789 143.688C40.9364 143.85 40.6939 144.092 40.4515 144.254C40.4515 145.062 40.1282 145.789 39.6432 145.87C39.4816 145.87 39.3199 145.87 39.1583 145.789ZM39.3199 142.233C39.3199 142.314 39.3199 142.395 39.4007 142.476C39.4007 142.314 39.4007 142.233 39.4816 142.071C39.4816 141.991 39.4816 141.991 39.5624 141.91C39.4007 141.991 39.3199 142.071 39.3199 142.233Z" fill="#1BA9F5"/>
<path d="M37.0568 156.374C36.976 156.778 36.491 157.182 36.1677 157.102C35.6019 157.021 35.3595 155.808 35.6828 155.566C35.9252 155.324 37.0568 155.808 37.0568 156.374Z" fill="#1BA9F5"/>
<path d="M34.9553 143.442C35.4403 143.442 36.2485 144.654 36.006 145.139C35.7636 145.624 34.5512 145.382 34.3896 144.816C34.2279 144.25 34.5512 143.523 34.9553 143.442Z" fill="#1BA9F5"/>
<path d="M30.7527 149.425C30.9952 149.102 31.2376 148.86 31.6418 149.021C32.6117 149.345 33.5007 149.829 34.1473 150.638C34.2281 150.799 34.309 151.042 34.309 151.123C34.4706 152.173 33.6624 152.82 32.6925 152.416C32.1267 152.173 31.5609 151.85 31.076 151.527C30.5102 151.123 30.4294 150.072 30.7527 149.425Z" fill="#1BA9F5"/>
<path d="M34.8751 152.817C35.0367 152.817 35.36 152.979 35.36 153.141C35.4409 153.302 35.1176 153.545 34.9559 153.626C34.7943 153.706 34.3902 153.545 34.3093 153.302C34.3093 153.06 34.7943 152.817 34.8751 152.817Z" fill="#1BA9F5"/>
<path d="M42.7139 153.464C43.118 153.464 43.8455 154.111 43.6838 154.596C43.4413 155.243 43.118 155.566 42.3906 155.081C41.744 154.596 42.3098 153.464 42.7139 153.464Z" fill="#1BA9F5"/>
<path d="M38.5116 149.344C38.8349 149.344 39.0774 150.071 38.8349 150.394C38.6732 150.637 38.3499 150.718 38.1883 150.799C37.5417 150.556 37.2992 150.071 37.5417 149.829C37.7842 149.505 38.1883 149.344 38.5116 149.344Z" fill="#1BA9F5"/>
<path d="M30.7533 154.917C30.915 154.513 31.804 154.594 32.2082 155.16C32.6931 155.645 32.0465 156.372 31.7232 156.534C31.3999 156.695 30.5917 155.321 30.7533 154.917Z" fill="#1BA9F5"/>
<path d="M48.2907 144.655C48.7757 144.817 48.6948 145.544 48.8565 145.948C48.7757 146.029 48.6948 146.11 48.6948 146.191C48.2099 146.433 48.0482 146.352 47.7249 146.11C47.4016 145.867 47.24 145.625 47.24 145.544C47.5633 145.221 47.8866 144.493 48.2907 144.655Z" fill="#1BA9F5"/>
<path d="M47.3221 143.927C47.5645 143.846 47.807 144.169 47.807 144.331C47.807 144.492 47.8878 144.816 47.6453 144.897C47.4029 144.977 47.2412 144.816 47.2412 144.654C47.1604 144.492 47.0796 144.008 47.3221 143.927Z" fill="#1BA9F5"/>
<path d="M48.857 154.271C48.9378 154.351 49.0186 154.675 49.0186 154.836C48.9378 154.998 48.6145 155.079 48.4528 154.998C48.2912 154.917 47.9679 154.675 48.2104 154.351C48.372 154.028 48.6953 154.19 48.857 154.271Z" fill="#1BA9F5"/>
<path d="M44.4113 140.13C44.6538 139.806 45.3812 139.806 45.6237 139.968C46.0278 140.13 46.1086 140.615 45.8662 141.019C45.6237 141.423 45.2196 141.423 44.9771 141.18C44.7346 141.019 44.1688 140.453 44.4113 140.13Z" fill="#1BA9F5"/>
<path d="M42.7147 145.14C42.2297 144.979 41.9872 144.009 42.3105 143.362C42.553 142.715 43.1996 142.473 43.7654 142.715C44.412 143.039 44.8969 143.928 44.5736 144.494C44.2503 145.059 43.2804 145.463 42.7147 145.14Z" fill="#1BA9F5"/>
<path d="M43.1182 152.092C42.9565 152.011 42.4716 151.768 42.6332 151.364C42.7141 150.96 43.3607 151.122 43.5223 151.203C43.684 151.284 44.0073 151.526 43.8456 151.849C43.684 152.092 43.2798 152.092 43.1182 152.092Z" fill="#1BA9F5"/>
<path d="M46.3515 145.22C46.4324 145.382 46.5132 145.462 46.5132 145.543C46.5132 145.624 46.2707 145.705 46.2707 145.705C46.1899 145.624 46.0282 145.543 46.1091 145.382C46.1091 145.22 46.2707 145.301 46.3515 145.22Z" fill="#1BA9F5"/>
</g>
</svg>
