<svg width="122" height="122" viewBox="0 0 122 122" fill="none" xmlns="http://www.w3.org/2000/svg">
<path d="M60.5655 121.131C94.0149 121.131 121.131 94.0149 121.131 60.5655C121.131 27.1161 94.0149 0 60.5655 0C27.1161 0 0 27.1161 0 60.5655C0 94.0149 27.1161 121.131 60.5655 121.131Z" fill="#F04E98"/>
<path d="M20.902 88.5126C21.2979 88.5917 21.6937 88.3542 21.852 87.8792C21.9312 87.4042 21.7729 87.0875 21.377 87.0083C20.902 86.9292 20.1895 87.1667 20.1103 87.5625C20.0311 87.8792 20.5061 88.4334 20.902 88.5126Z" fill="#E32682"/>
<path d="M17.8935 94.4505C18.6852 94.2921 19.1602 93.8171 19.1602 92.7879C18.9227 92.6296 18.606 92.392 18.2893 92.2337C17.7351 91.9962 17.1018 92.2337 16.8643 92.5504C16.5476 93.1046 16.5476 93.738 17.0226 94.1338C17.2601 94.3713 17.656 94.5297 17.8935 94.4505Z" fill="#E32682"/>
<path d="M18.6851 98.0923C19.7144 97.8548 20.1894 97.2214 20.1102 96.5089C20.031 95.8755 19.0018 95.0838 18.2893 95.2422C17.4184 95.4005 17.1809 96.1922 17.1809 96.7464C17.1809 97.3006 17.6559 98.3298 18.6851 98.0923Z" fill="#E32682"/>
<path d="M22.6437 98.6466C23.3562 99.0425 24.5438 99.2008 25.4938 98.3299C26.048 97.7757 26.2064 97.1424 26.1272 96.5882C26.048 95.9548 25.1771 95.7965 24.7813 95.2423C23.9104 93.8172 22.7229 94.2922 21.9312 95.0839C21.6145 95.3214 21.4561 95.7173 21.377 96.034C21.2978 96.509 21.4561 96.984 21.852 97.3799C22.1687 97.8549 22.0895 98.4091 22.6437 98.6466Z" fill="#E32682"/>
<path d="M14.8851 92.5506C15.2018 92.4715 15.5185 91.9173 15.6768 91.5214C15.756 91.5214 15.756 91.6006 15.8351 91.6006C16.231 91.7589 16.8644 91.4422 16.9435 91.0464C17.0227 90.6505 16.6268 90.1755 15.9143 89.938C15.756 90.0172 15.5185 90.1755 15.3601 90.3338C15.3601 90.413 15.2809 90.4922 15.2809 90.4922C15.0434 90.3339 14.7268 90.2547 14.3309 90.413C13.6975 90.6505 13.5392 90.9672 13.7767 91.6798C13.9351 92.3923 14.4101 92.709 14.8851 92.5506Z" fill="#E32682"/>
<path d="M29.1355 86.2168C29.0563 85.9793 28.8188 85.9792 28.7397 85.9792C28.5813 86.0584 28.2646 86.2168 28.2646 86.4543C28.3438 86.6918 28.6605 86.6918 28.7397 86.6126C28.9772 86.5335 29.2147 86.4543 29.1355 86.2168Z" fill="#E32682"/>
<path d="M19.0812 90.2542C18.8437 90.3333 18.7645 90.4125 18.8437 90.65C18.9228 90.8875 19.002 90.9667 19.2395 90.8875C19.477 90.8084 19.5562 90.7292 19.477 90.4917C19.477 90.3333 19.3187 90.2542 19.0812 90.2542Z" fill="#E32682"/>
<path d="M16.0726 89.067C16.1517 89.2254 16.5476 89.2254 16.7059 89.1462C16.8643 89.0671 16.7851 88.7504 16.7059 88.592C16.4684 88.6712 16.2309 88.7504 16.0726 88.8295C15.9934 88.9879 15.9934 89.067 16.0726 89.067Z" fill="#E32682"/>
<path d="M10.6097 90.888C10.6889 90.8088 10.7681 90.7296 10.8473 90.5713C10.5306 90.6505 10.2139 90.7296 9.89722 90.888C10.1347 90.9671 10.4514 90.9671 10.6097 90.888Z" fill="#E32682"/>
<path d="M13.3808 90.1753C13.7766 90.2545 14.1725 90.017 14.0933 89.7003V89.6211C13.6975 89.7794 13.3016 89.8586 12.9058 90.0169C13.0641 90.0169 13.2224 90.0961 13.3808 90.1753Z" fill="#E32682"/>
<path d="M21.5355 94.6087C21.9313 94.5295 22.0105 94.2128 21.8522 93.8961C21.773 93.5795 21.6146 93.3419 21.2188 93.4211C20.9021 93.5003 20.5854 93.9753 20.7438 94.4503C20.9813 94.4503 21.298 94.6087 21.5355 94.6087Z" fill="#E32682"/>
<path d="M24.6231 87.8794C24.5439 87.3252 24.3064 87.0876 23.7522 87.0876C23.1188 87.0876 22.6438 87.721 22.6438 88.3544C22.6438 88.9877 23.0397 89.1461 23.0397 89.5419C23.0397 89.9378 23.2772 90.0961 23.673 90.2545C24.148 90.4128 24.7814 90.5712 24.9398 89.9378C25.0981 89.3044 24.7022 89.1461 24.5439 89.0669C24.3856 89.0669 24.148 88.6711 24.3064 88.6711C24.6231 88.6711 24.7022 88.4335 24.6231 87.8794Z" fill="#E32682"/>
<path d="M20.5852 87.0088C20.5061 87.0088 20.3477 87.0879 20.2686 87.1671C20.3477 87.1671 20.5061 87.088 20.5852 87.0088Z" fill="#E32682"/>
<path d="M53.9952 117.41C54.2327 117.252 54.3911 116.935 54.3911 116.697C54.3911 116.46 53.8369 115.985 53.4411 116.143C53.1244 116.302 52.966 116.777 53.1244 117.093C53.2827 117.489 53.6785 117.647 53.9952 117.41Z" fill="#E32682"/>
<path d="M54.233 109.572C54.233 109.176 53.7579 108.859 53.4413 108.859C52.9662 108.939 52.7287 109.968 52.9662 110.205C53.2829 110.443 54.3121 110.047 54.233 109.572Z" fill="#E32682"/>
<path d="M54.5495 115.352C54.7078 115.589 55.1037 115.747 55.3412 115.747C55.6579 115.747 55.8954 115.114 55.6579 114.797C55.4995 114.639 55.1828 114.56 55.1037 114.481C54.5495 114.639 54.312 115.114 54.5495 115.352Z" fill="#E32682"/>
<path d="M42.6739 100.309C43.3072 99.9923 43.7031 98.9631 43.4656 98.4089C43.1489 97.6172 42.1988 97.2213 41.5655 97.538C41.2488 97.6964 41.0113 98.0131 40.8529 98.4881C40.9321 98.3297 40.9321 98.1714 40.8529 98.013C40.6946 97.4589 40.0612 97.063 39.5862 97.1422C39.1112 97.2213 38.8737 97.9339 39.032 98.6464C39.1112 99.0423 39.6654 99.2798 40.0612 99.2006C40.3779 99.1214 40.6154 98.8839 40.7738 98.5672C40.6154 98.9631 40.5363 99.4381 40.6946 99.7548C41.0113 100.388 41.9613 100.705 42.6739 100.309Z" fill="#E32682"/>
<path d="M40.8527 111.947C41.1694 111.868 41.4069 111.551 41.2486 111.235C41.0903 110.997 40.6944 110.76 40.536 110.839C40.2985 110.918 40.1402 111.314 40.061 111.472C40.2194 112.026 40.5361 112.026 40.8527 111.947Z" fill="#E32682"/>
<path d="M41.3279 104.268C41.1696 104.109 40.932 103.872 40.6945 103.872C40.0612 103.872 39.9028 104.347 39.9028 104.98C40.2987 105.218 40.6945 105.614 41.1696 105.218C41.4071 104.98 41.4862 104.584 41.3279 104.268Z" fill="#E32682"/>
<path d="M48.6907 110.601C48.7698 110.918 49.5616 110.918 49.9574 110.443C50.3533 109.968 49.8782 109.414 49.5616 109.255C49.324 109.176 48.6115 110.285 48.6907 110.601Z" fill="#E32682"/>
<path d="M40.9322 108.384C40.7738 107.909 40.1405 107.751 39.5071 107.989C39.0321 108.147 38.7946 108.622 38.9529 109.018C39.1904 109.493 39.9821 109.968 40.378 109.809C41.0114 109.651 41.1697 109.018 40.9322 108.384Z" fill="#E32682"/>
<path d="M26.6813 95.1629C26.6022 95.6379 26.6022 96.1129 27.0772 96.2712C27.473 96.4296 27.8689 96.2712 28.0272 95.8754C28.1064 95.6379 28.1064 95.242 27.9481 95.0837C27.6314 94.767 27.1564 94.8462 26.6813 95.1629Z" fill="#E32682"/>
<path d="M64.2083 110.997C64.1291 111.076 63.8124 111.314 63.9707 111.551C64.1291 111.868 64.4458 111.71 64.6041 111.631C64.6833 111.551 64.7624 111.235 64.7624 111.156C64.6041 111.076 64.2874 110.918 64.2083 110.997Z" fill="#E32682"/>
<path d="M60.0122 111.314C59.8539 110.76 59.5372 110.443 58.9038 110.839C58.2705 111.235 58.7455 112.185 59.1413 112.264C59.458 112.264 60.1706 111.631 60.0122 111.314Z" fill="#E32682"/>
<path d="M56.0536 106.089C56.2119 106.01 56.687 105.614 56.5286 105.218C56.3703 104.822 55.8161 105.06 55.6577 105.139C55.4994 105.218 55.3411 105.614 55.3411 105.772C55.4202 106.089 55.8161 106.168 56.0536 106.089Z" fill="#E32682"/>
<path d="M48.6118 99.8345C48.4535 99.9929 48.7702 100.468 48.8493 100.547C49.0077 100.626 49.3244 100.547 49.4035 100.389C49.4827 100.23 49.4035 99.9137 49.3244 99.7554C49.166 99.6762 48.691 99.6762 48.6118 99.8345Z" fill="#E32682"/>
<path d="M34.7571 88.4339C34.9155 88.038 34.5988 87.4046 33.9654 87.563C33.332 87.8005 33.5696 88.5922 33.8862 88.7505C34.2029 88.9089 34.6779 88.6714 34.7571 88.4339Z" fill="#E32682"/>
<path d="M29.9275 95.0837C29.4525 95.2421 29.215 95.7963 29.3733 96.3505C29.5317 96.9838 30.3233 97.538 30.7192 97.3797C31.3526 97.2213 31.7484 96.4296 31.5901 95.7963C31.5109 95.2421 30.64 94.8462 29.9275 95.0837Z" fill="#E32682"/>
<path d="M35.3111 99.9134C35.7861 99.7551 36.1819 99.0426 36.0236 98.4884C35.8652 97.9342 35.3902 97.7758 34.6777 97.9342C34.2026 98.0925 33.7276 98.7259 33.8068 99.1217C33.9651 99.5968 34.7569 100.072 35.3111 99.9134Z" fill="#E32682"/>
<path d="M28.898 89.9378C29.0563 89.5419 28.898 89.3836 28.1063 89.0669C27.4729 89.3044 27.7104 90.0961 28.0271 90.2545C28.3438 90.4128 28.8188 90.2545 28.898 89.9378Z" fill="#E32682"/>
<path d="M34.7571 93.2629C35.2321 92.9462 35.3905 92.5504 35.2321 91.9962C35.153 91.5211 34.6779 91.2836 34.2821 91.2045C33.9654 91.1253 33.5696 91.2045 33.2529 91.2836C33.1737 91.1253 33.0154 91.0461 32.9362 90.8878C32.4612 90.4128 31.7486 90.2544 31.1944 90.4919C30.6402 90.8086 30.3236 91.3628 30.2444 91.9962C30.2444 92.2337 30.3236 92.4712 30.4819 92.6295C31.1153 93.2629 31.8278 93.2629 32.5404 92.7087C32.6987 92.6295 32.7779 92.4712 32.9362 92.392C33.1737 92.6295 33.332 92.9462 33.4904 93.1046C33.9654 93.5796 34.2821 93.5796 34.7571 93.2629Z" fill="#E32682"/>
<path d="M43.7823 112.026C44.1781 111.868 44.4156 111.393 44.2573 110.997C44.099 110.601 43.5448 110.285 43.1489 110.443C42.7531 110.601 42.5947 111.076 42.7531 111.472C42.9906 111.947 43.4656 112.185 43.7823 112.026Z" fill="#E32682"/>
<path d="M32.5398 98.8841C32.4607 98.8841 32.2231 99.1216 32.3023 99.3591C32.3815 99.5966 32.7773 99.5174 32.9357 99.4383C33.0149 99.4383 33.1732 99.2008 33.094 99.0424C33.0148 98.8841 32.6982 98.8049 32.5398 98.8841Z" fill="#E32682"/>
<path d="M36.9737 103.634C37.0529 103.793 37.3696 103.872 37.4487 103.793C37.6071 103.793 37.9237 103.476 37.8446 103.238C37.7654 103.08 37.3696 103.001 37.2112 103.08C37.0529 103.238 36.8945 103.476 36.9737 103.634Z" fill="#E32682"/>
<path d="M42.7531 108.226C43.1489 108.463 43.4656 108.226 43.9406 107.434C43.7031 107.038 43.5448 106.563 42.9114 106.722C42.5155 106.88 42.278 107.197 42.3572 107.593C42.3572 107.909 42.5947 108.147 42.7531 108.226Z" fill="#E32682"/>
<path d="M59.7746 114.243C59.933 114.164 60.1705 113.926 60.0913 113.689C60.0121 113.451 59.6955 113.372 59.5371 113.451C59.3788 113.53 58.9829 113.768 59.0621 114.085C59.0621 114.401 59.6163 114.322 59.7746 114.243Z" fill="#E32682"/>
<path d="M48.9282 118.36C48.374 118.677 48.0574 119.152 48.2949 119.627C48.374 119.706 48.4532 119.785 48.5324 119.943C49.0866 120.022 49.6408 120.181 50.195 120.26C50.5116 120.022 50.5908 119.389 50.3533 118.914C50.0366 118.202 49.5616 118.043 48.9282 118.36Z" fill="#E32682"/>
<path d="M50.3534 112.898C49.7992 113.056 49.3241 113.373 48.8491 113.689C48.3741 114.006 48.2158 114.956 48.5324 115.51C48.6908 115.827 48.9283 115.985 49.3241 115.906C50.195 115.589 50.9867 115.273 51.5409 114.56C51.6201 114.402 51.6993 114.243 51.6993 114.164C51.8576 113.135 51.2242 112.581 50.3534 112.898Z" fill="#E32682"/>
<path d="M57.6368 117.964C57.4785 118.043 57.4784 118.439 57.5576 118.597C57.5576 118.677 57.7951 118.835 57.9535 118.756C58.1118 118.677 58.191 118.439 58.191 118.281C58.1118 118.122 57.7951 117.885 57.6368 117.964Z" fill="#E32682"/>
<path d="M55.4993 118.756C54.6284 118.677 54.1534 119.152 53.995 119.785C53.7575 119.548 53.2033 119.152 52.9658 119.231C52.7283 119.31 52.8075 120.102 52.9658 120.181C53.2825 120.34 53.5992 120.656 53.995 120.498C53.995 120.577 53.995 120.656 54.0742 120.656C54.8659 120.735 55.6576 120.815 56.4493 120.894C56.5285 120.735 56.6077 120.577 56.6077 120.419C56.6868 119.627 56.3702 118.835 55.4993 118.756Z" fill="#E32682"/>
<path d="M48.8489 106.247C49.4823 105.93 49.799 105.297 49.5615 104.742C49.2448 104.03 48.1364 103.476 47.503 103.792C46.8697 104.109 46.6321 104.822 46.8696 105.455C47.2655 106.247 48.1364 106.563 48.8489 106.247Z" fill="#E32682"/>
<path d="M39.4278 110.601C39.2695 109.731 38.9528 109.572 38.1611 109.731C37.5277 109.889 36.8944 109.968 36.261 110.126C36.1818 109.731 36.1027 109.493 35.9443 109.335C35.9443 109.335 35.9443 109.335 36.0235 109.335C36.3402 109.176 36.261 108.86 36.1818 108.622C36.0235 108.226 35.6276 108.068 35.3901 108.305C35.1526 108.464 35.0734 108.78 34.9943 108.939C35.0734 109.097 35.1526 109.176 35.2318 109.255C35.1526 109.335 35.0735 109.335 34.9151 109.414C34.8359 110.047 35.1526 110.285 35.7068 110.443C35.786 111.868 36.5777 112.185 37.9236 111.314C38.0028 111.393 38.0819 111.393 38.1611 111.472C38.4778 111.789 38.7945 111.631 39.1111 111.393C39.4278 111.156 39.507 110.918 39.4278 110.601Z" fill="#E32682"/>
<path d="M45.6031 111.788C45.3656 111.709 44.9697 111.868 44.8114 112.105C44.4947 112.58 44.8905 113.293 45.2864 113.451C45.7614 113.609 46.3156 113.134 46.2364 112.501C46.1573 112.184 45.8406 111.868 45.6031 111.788Z" fill="#E32682"/>
<path d="M35.3108 113.451C34.8357 113.689 34.519 114.718 34.7565 115.272C34.7565 115.351 34.8357 115.351 34.8357 115.351C35.1524 115.51 35.3899 115.589 35.7066 115.747C35.7858 115.747 35.9441 115.747 36.0233 115.668C36.7358 115.351 36.8941 114.876 36.5775 114.164C36.34 113.53 35.7066 113.214 35.3108 113.451Z" fill="#E32682"/>
<path d="M45.1282 117.964C45.3657 117.647 45.524 117.331 45.3657 117.093C45.1281 116.539 44.2573 116.143 43.7822 116.381C43.7031 116.381 43.6239 116.46 43.6239 116.539C43.7031 116.381 43.7031 116.143 43.6239 115.906C43.4656 115.272 43.0697 114.876 42.5947 114.481C42.4363 114.322 42.278 114.164 42.1988 113.926C41.9613 113.135 41.4863 112.897 40.6946 113.135C40.6946 113.055 40.6946 112.897 40.6154 112.818C40.4571 112.501 39.9029 112.422 39.507 112.66C39.032 112.897 38.7153 113.451 38.9528 113.847C39.1112 114.243 39.5862 114.401 40.0612 114.164C40.0612 114.322 40.1404 114.56 40.2987 114.718C40.2987 114.876 40.2196 114.956 40.2987 115.035C40.3779 115.193 40.5363 115.51 40.6946 115.431C40.7738 115.589 40.7738 115.747 40.7738 115.906C40.6946 116.539 41.1696 116.935 41.6447 117.251C41.7238 117.331 41.803 117.331 41.8822 117.41C41.8822 117.489 41.8822 117.647 41.9613 117.727C42.1197 117.964 42.4363 117.964 42.5155 117.885C42.6739 117.806 42.8322 117.647 42.753 117.41C42.9114 117.331 43.0697 117.331 43.1489 117.251C43.2281 117.251 43.2281 117.172 43.2281 117.172C43.1489 117.489 43.0697 117.885 43.2281 118.202C43.4656 118.677 44.0198 118.756 44.6531 118.518C44.6531 118.597 44.6531 118.597 44.6531 118.677C44.7323 118.993 45.1281 118.835 45.2865 118.835C45.3657 118.835 45.524 118.518 45.4448 118.439C45.4448 118.122 45.2865 117.964 45.1282 117.964Z" fill="#E32682"/>
<path d="M63.3371 118.835C63.0204 118.994 62.9412 119.231 62.8621 119.31C63.1787 119.548 63.4163 120.181 63.8121 120.102C64.208 120.023 64.208 119.31 64.3663 118.994C64.2871 118.915 64.2871 118.835 64.208 118.835C63.8121 118.519 63.6538 118.598 63.3371 118.835Z" fill="#E32682"/>
<path d="M58.9037 119.469C58.5078 119.627 58.2703 120.498 58.5078 121.052C59.1412 121.052 59.7746 121.131 60.3288 121.131C60.5663 120.814 60.6455 120.419 60.4871 120.181C60.2496 119.548 59.4579 119.231 58.9037 119.469Z" fill="#E32682"/>
<path d="M69.5128 120.022C69.3544 119.627 68.9586 119.547 68.721 119.785C68.5627 119.943 68.4835 120.26 68.3252 120.418C68.3252 120.497 68.4044 120.498 68.4835 120.577C68.9586 120.498 69.3544 120.497 69.8294 120.418C69.7503 120.418 69.6711 120.418 69.6711 120.418C69.5919 120.26 69.5919 120.102 69.5128 120.022Z" fill="#E32682"/>
<path d="M66.4251 113.847C66.3459 113.847 66.1084 114.164 66.1876 114.322C66.2667 114.56 66.6626 114.401 66.8209 114.401C66.9001 114.401 67.0584 114.085 66.9793 114.005C66.9001 113.847 66.5834 113.847 66.4251 113.847Z" fill="#E32682"/>
<path d="M83.2093 114.005C83.1302 113.926 82.6551 113.926 82.4968 114.085C82.3384 114.243 82.6551 114.718 82.8135 114.797C82.9718 114.876 83.2885 114.718 83.3676 114.56C83.4468 114.401 83.3677 114.085 83.2093 114.005Z" fill="#E32682"/>
<path d="M75.3713 112.105C74.8171 112.422 74.3421 113.768 74.6588 114.322C74.9755 114.956 75.9255 115.272 76.638 114.876C77.2714 114.56 77.5881 113.451 77.2714 112.897C76.8756 112.105 76.0047 111.71 75.3713 112.105Z" fill="#E32682"/>
<path d="M71.2542 117.885C71.0958 117.964 70.9375 118.202 71.0167 118.36C71.0958 118.518 71.4125 118.598 71.4917 118.518C71.65 118.439 71.8875 118.123 71.8084 117.964C71.8084 117.885 71.4125 117.885 71.2542 117.885Z" fill="#E32682"/>
<path d="M63.1789 115.985C63.0997 116.46 63.0205 116.302 62.5455 116.381C62.0705 116.539 61.5163 117.014 61.9913 117.647C62.4663 118.36 63.4164 118.281 64.1289 117.964C64.7623 117.568 64.9998 116.143 64.3664 115.431C63.9706 115.035 63.258 115.51 63.1789 115.985Z" fill="#E32682"/>
<path d="M62.0706 119.152C61.9914 119.231 61.833 119.31 61.9122 119.389C61.9122 119.469 62.0706 119.469 62.1497 119.469C62.2289 119.389 62.3081 119.31 62.2289 119.231C62.2289 119.152 62.0706 119.073 62.0706 119.152Z" fill="#E32682"/>
<path d="M63.2585 120.497C63.021 120.577 62.8626 120.814 62.7834 121.052C63.2585 121.052 63.7335 121.052 64.1294 120.972C63.971 120.497 63.5752 120.339 63.2585 120.497Z" fill="#E32682"/>
<path d="M35.1526 105.851C35.311 105.772 35.311 105.693 35.3901 105.614C35.5485 105.614 35.6276 105.534 35.786 105.534C36.3402 105.297 36.6569 104.505 36.4194 103.872C36.1819 103.238 35.2318 103.001 34.4401 103.318C33.8859 103.555 33.6484 104.109 33.8859 104.822C33.9651 105.059 34.0442 105.218 34.2026 105.376C34.1234 105.455 34.1234 105.614 34.0442 105.693C34.3609 105.93 34.8359 106.009 35.1526 105.851Z" fill="#E32682"/>
<path d="M52.412 111.868C52.3328 111.789 51.937 111.947 51.8578 112.185C51.7787 112.422 52.1745 112.581 52.2537 112.581C52.412 112.581 52.6495 112.502 52.7287 112.343C52.8079 112.106 52.5703 111.947 52.412 111.868Z" fill="#E32682"/>
<path d="M32.6985 114.322C33.1735 114.56 33.7277 114.876 34.2027 115.114C33.9652 114.401 33.411 114.164 32.6985 114.322Z" fill="#E32682"/>
<path d="M16.1516 98.7258C15.6765 98.4883 15.0432 98.8842 14.8848 99.4384C14.8057 99.6759 14.8057 99.9926 14.8848 100.23C14.8848 100.23 14.8848 100.23 14.8057 100.23C15.1223 100.547 15.3599 100.943 15.6765 101.259C15.7557 101.18 15.7557 101.022 15.7557 100.943C16.0724 100.943 16.3099 100.784 16.4682 100.626C16.7849 100.309 16.7058 99.9134 16.5474 99.5967C16.5474 99.28 16.5474 98.8842 16.1516 98.7258Z" fill="#E32682"/>
<path d="M19.952 104.505C19.952 104.347 19.8728 104.188 19.8728 104.188C19.7145 103.951 19.2394 103.555 18.9228 103.555L19.0019 103.476C19.5561 103.08 19.6353 102.605 19.3186 102.051C19.2394 101.892 19.2394 101.734 19.2394 101.576C19.1603 101.022 18.9228 100.705 18.5269 100.784C18.0519 100.863 17.8144 101.259 17.9727 101.892C17.9727 101.972 18.0519 101.972 18.0519 102.051C18.131 102.367 18.0519 102.605 17.656 102.526C17.4977 102.526 17.4185 102.447 17.2602 102.447C17.1018 102.447 16.9435 102.447 16.7852 102.526C17.3394 103.159 17.9727 103.713 18.5269 104.268C19.0811 104.822 19.6353 105.297 20.2687 105.851C20.5062 105.297 20.3478 104.822 19.952 104.505Z" fill="#E32682"/>
<path d="M17.1809 97.0632C17.1809 96.9049 17.0225 96.7466 16.8642 96.6674C16.785 96.5882 16.3892 96.6674 16.3892 96.9049C16.3892 97.1424 16.7058 97.3007 16.785 97.3799C16.9434 97.3007 17.1809 97.2216 17.1809 97.0632Z" fill="#E32682"/>
<path d="M13.1431 93.5796C13.3014 92.7879 12.9848 92.2337 12.2722 92.0754C11.6389 91.917 11.0055 92.2337 10.9263 92.7087C10.8472 93.4213 11.3222 94.213 12.0347 94.3713C12.4306 94.5297 12.9848 94.1338 13.1431 93.5796Z" fill="#E32682"/>
<path d="M9.34326 92.8672C9.81829 93.5797 10.2933 94.3714 10.7683 95.084C10.9267 94.6881 11.0059 94.2131 10.8475 93.8172C10.7683 93.263 9.97663 92.8672 9.34326 92.8672Z" fill="#E32682"/>
<path d="M21.9311 100.309C21.5352 99.9135 20.4268 99.9135 20.1101 100.389C19.7935 100.864 19.8726 101.972 20.5852 102.368C21.2977 102.764 21.9311 102.605 22.3269 102.209C22.7228 101.734 22.4853 100.864 21.9311 100.309Z" fill="#E32682"/>
<path d="M9.50139 91.0459C9.18471 91.1251 8.78885 91.2834 8.47217 91.3626C8.70968 91.6793 8.86802 92.0751 9.10554 92.3918C9.26388 92.1543 9.42222 91.9168 9.50139 91.6793C9.50139 91.4418 9.50139 91.2042 9.50139 91.0459Z" fill="#E32682"/>
<path d="M12.6682 95.5589C12.1931 95.6381 11.9556 96.1131 11.8765 96.5881C12.1931 97.0631 12.589 97.5382 12.9057 97.934C13.2224 98.0132 13.6182 98.0132 14.0141 97.8548C14.6474 97.6173 14.8849 96.9048 14.5683 96.3506C14.0932 95.2422 13.6974 95.2422 12.6682 95.5589Z" fill="#E32682"/>
<path d="M33.0941 111.393C33.49 111.235 33.7275 110.997 33.49 110.602C33.3317 110.364 33.0941 109.731 32.6191 109.889C32.1441 110.047 32.3024 110.681 32.3024 110.997C32.3024 111.393 32.6983 111.552 33.0941 111.393Z" fill="#E32682"/>
<path d="M31.0355 111.314C30.6397 111.155 29.9272 111.235 29.6105 111.551C29.373 111.868 29.373 112.264 29.4521 112.501C30.1647 112.897 30.798 113.293 31.5106 113.689C31.5106 113.61 31.5106 113.61 31.5106 113.61C31.4314 113.372 31.2731 113.214 31.1147 113.056C31.2731 113.056 31.4314 112.976 31.5897 112.739C31.9064 112.264 31.5897 111.551 31.0355 111.314Z" fill="#E32682"/>
<path d="M33.6482 112.977C34.0441 112.818 34.1233 112.343 33.9649 111.868C33.8066 111.472 33.4107 111.314 33.0149 111.472C32.5398 111.631 32.3815 112.026 32.5398 112.422C32.7774 112.897 33.2524 113.135 33.6482 112.977Z" fill="#E32682"/>
<path d="M30.1651 108.86C30.0859 108.78 30.0067 108.622 29.8484 108.543C30.0859 108.464 30.3234 108.305 30.4818 108.226C30.7984 107.91 31.1151 107.514 30.7193 107.039C30.5609 106.801 30.4026 106.564 30.2442 106.326H30.3234C30.9568 106.089 31.2735 104.98 31.0359 104.189C30.7984 103.555 30.0859 103.239 29.2942 103.476C28.3442 103.872 28.0275 104.505 28.3441 105.455C28.4233 105.614 28.5025 105.772 28.5817 105.851C28.5025 106.01 28.5025 106.168 28.5817 106.326C28.6608 106.643 28.6608 106.96 28.5817 107.197C28.4233 107.593 28.5025 107.989 28.74 108.305C28.6608 108.305 28.5817 108.305 28.5025 108.385C28.1858 108.543 27.8691 109.176 28.0275 109.572C28.265 110.206 28.8192 110.601 29.3734 110.364C29.8484 110.126 30.3234 109.414 30.1651 108.86Z" fill="#E32682"/>
<path d="M22.0894 107.355C22.3269 107.514 22.5644 107.751 22.8019 107.91C22.6435 107.672 22.406 107.435 22.0894 107.355Z" fill="#E32682"/>
<path d="M28.5815 101.18C28.1065 101.259 27.5523 101.734 27.9482 102.447C28.4232 103.159 29.3732 103.159 30.0066 102.843C30.64 102.526 30.8775 101.338 30.5608 100.547C30.7983 100.309 30.7983 99.9925 30.7191 99.6758C30.4816 99.0425 29.8483 98.6466 29.3733 98.8841C28.9774 99.0425 28.7399 99.3591 28.5815 99.6758C28.344 99.5175 28.0273 99.5175 27.7898 99.6758C27.3148 99.9925 27.4731 100.468 27.5523 100.943C28.0273 101.022 28.5815 101.259 28.8191 100.705C28.8191 100.626 28.8982 100.626 28.8982 100.547C28.9774 100.626 29.0566 100.626 29.2149 100.705V100.784C29.0566 101.259 29.0566 101.101 28.5815 101.18Z" fill="#E32682"/>
<path d="M26.2856 104.98C26.9189 104.822 27.3148 103.872 27.0773 103.159C26.8398 102.526 25.8105 101.971 25.1772 102.209C24.3855 102.446 23.9104 103.317 24.2271 103.951C24.4646 104.505 25.7314 105.138 26.2856 104.98Z" fill="#E32682"/>
<path d="M23.5145 102.526C23.3562 102.605 23.3562 103.001 23.3562 103.159C23.3562 103.239 23.5937 103.397 23.7521 103.318C23.9104 103.239 23.9896 103.001 23.9896 102.843C23.9896 102.684 23.7521 102.447 23.5145 102.526Z" fill="#E32682"/>
<path d="M26.4439 106.643C26.2064 106.722 25.9688 107.039 25.8897 107.355C25.6522 107.276 25.3355 107.355 25.1771 107.355C24.8604 107.435 24.6229 107.593 24.7021 107.989C24.7813 108.385 25.2563 108.701 25.573 108.464C25.7313 108.385 25.8897 108.226 26.048 107.989C26.2855 108.226 26.6022 108.305 26.9189 108.226C27.3147 108.068 27.6314 107.593 27.4731 107.276C27.3939 106.959 26.7605 106.564 26.4439 106.643Z" fill="#E32682"/>
</svg>
