<?xml version="1.0" encoding="utf-8"?>
<!-- Generator: Adobe Illustrator 25.0.0, SVG Export Plug-In . SVG Version: 6.00 Build 0)  -->
<svg version="1.1" id="Layer_1" xmlns="http://www.w3.org/2000/svg" xmlns:xlink="http://www.w3.org/1999/xlink" x="0px" y="0px"
	 viewBox="0 0 560 300" style="enable-background:new 0 0 560 300;" xml:space="preserve">
<style type="text/css">
	.st0{clip-path:url(#SVGID_2_);}
	.st1{fill:#7DE2D1;}
	.st2{fill:#42D4C6;}
	.st3{fill:#E6EBF2;}
	.st4{fill:none;}
</style>
<g>
	<g>
		<defs>
			<rect id="SVGID_1_" x="5" width="555" height="166"/>
		</defs>
		<clipPath id="SVGID_2_">
			<use xlink:href="#SVGID_1_"  style="overflow:visible;"/>
		</clipPath>
		<g class="st0">
			<path class="st1" d="M500.5,87c32.9,0,59.5-26.6,59.5-59.5S533.4-32,500.5-32S441-5.4,441,27.5S467.6,87,500.5,87z"/>
			<path class="st2" d="M459.8,53c-0.2,0.8,0.6,1.8,1.3,2c0.9,0.2,1.7-0.3,1.8-1l0,0h0.1c0.6-0.1,1-0.8,1-1.2
				c-0.1-0.5-0.9-0.9-1.2-0.7c-0.1,0-0.1,0.1-0.2,0.1c-0.2-0.2-0.4-0.4-0.7-0.5C461.1,51.5,459.9,52.3,459.8,53z"/>
			<path class="st2" d="M487.6,72.6c-1,0.2-1.3,1-1.3,1.7s0.6,1.8,1.8,1.6c1.2-0.3,1.8-1,1.7-1.8C489.6,73.4,488.4,72.5,487.6,72.6z
				"/>
			<path class="st2" d="M477.7,55.6c0.6-0.2,0.8-1,0.5-1.8c-0.2-0.5-0.6-0.6-1-0.5c-0.7,0.2-1.1,0.9-1,1.3
				C476.4,55.3,477.3,55.8,477.7,55.6z"/>
			<path class="st2" d="M446.1,39.2c-0.9,0.3-2,1.1-2,2.7c0,1,0.4,1.5,1,1.9c0.7,0.5,1.4-0.2,2.2,0c0.2,0,0.3,0.1,0.4,0.1
				c-0.1,0.3-0.2,0.6,0.1,0.9c0.3,0.4,0.7,0.7,1,0.4c0.3-0.2,0.7-0.6,0.7-0.9c0-0.4-0.2-0.6-0.4-0.7c0.5-0.5,0.7-1.2,0.8-1.9
				c0-0.5-0.1-0.9-0.4-1.2c-0.3-0.5-0.9-0.7-1.5-0.8C447.2,39.5,446.8,39,446.1,39.2z"/>
			<path class="st2" d="M484.5,67.7c-0.3-0.7-0.9-0.9-1.6-0.7c-0.8,0.3-1,0.7-0.7,1.5s0.8,1.1,1.3,1c0,0,0.1,0,0.1-0.1
				c0.2,0.3,0.5,0.5,0.8,0.6c0.5,0.1,1-0.2,1-0.7c0.1-0.5-0.1-1-0.6-1c-0.1,0-0.3,0-0.4,0C484.5,68,484.5,67.8,484.5,67.7z"/>
			<path class="st2" d="M448.2,34.6c-0.1,0.5,0.2,1,0.7,1.1s0.9-0.1,1-0.6c0.2-0.6-0.1-1-0.6-1.1C448.9,33.9,448.3,34.2,448.2,34.6z
				"/>
			<path class="st2" d="M449.6,22.5c-0.1,0-0.3,0-0.4,0.2c0,0.2,0.1,0.3,0.2,0.3s0.3-0.1,0.3-0.2C449.8,22.6,449.7,22.5,449.6,22.5z
				"/>
			<path class="st2" d="M449,28.4c-0.1,0.6,0.2,1,0.8,1.1c0.5,0.1,1-0.4,1.1-0.9s-0.3-1-0.8-1C449.6,27.5,449.2,27.8,449,28.4z"/>
			<path class="st2" d="M447.7,37.5c0-0.1-0.1-0.5-0.2-0.5c-0.2,0-0.5,0.1-0.6,0.2c-0.1,0.1-0.1,0.6,0.2,0.7
				C447.5,38.1,447.6,37.7,447.7,37.5z"/>
			<path class="st2" d="M465.8,52.4c-0.1,0.8,0.6,1.8,1.2,1.9h0.1c-0.5,0.4-0.6,1-0.3,1.5c0.3,0.7,1,1,1.5,0.9
				c0.8-0.4,1.2-1.4,1-2.2c-0.2-0.5-0.9-0.7-1.4-0.6c0.2-0.2,0.4-0.5,0.4-0.8c0.2-0.8-0.2-1.3-1-1.5
				C466.5,51.6,465.8,51.9,465.8,52.4z"/>
			<path class="st2" d="M467.3,46.6c0.2-0.1,0.3-0.4,0.3-0.6s-0.4-0.6-0.6-0.5s-0.3,0.6-0.2,0.8C466.8,46.5,467.1,46.7,467.3,46.6z"
				/>
			<path class="st2" d="M462.3,33.6c0.1-0.5-0.1-0.9-0.6-0.9c-0.3,0-0.6,0.2-0.9,0.3c-0.1,0.6,0.3,1,0.8,1.1
				C462.1,34.3,462.2,34,462.3,33.6z"/>
			<path class="st2" d="M468.8,48.7c0.3-0.1,0.2-0.6,0.2-0.7s-0.3-0.3-0.5-0.2s-0.2,0.4-0.2,0.6C468.2,48.4,468.5,48.8,468.8,48.7z"
				/>
			<path class="st2" d="M473.6,54.2c0.2-0.2-0.1-1-0.5-1.1c-0.5-0.1-0.9,0.2-1,0.7c-0.1,0.4,0.2,0.9,0.6,0.9
				C473.1,54.4,473.4,54.3,473.6,54.2z"/>
			<path class="st2" d="M470.1,59C470.1,59.1,470.1,59.1,470.1,59c-0.5-0.3-1.1-0.4-1.9-0.2c-0.9,0.3-1.2,1-1,1.9
				c0.3,1,1.4,1.6,2.3,1.3c0.1,0,0.2-0.1,0.3-0.1c0.2,0.2,0.5,0.4,0.9,0.2c1.2-0.8,0.3-1.7,0.6-2.1c0.2-0.2,0.7-0.4,1.1-0.6
				c0.3,0.7,0.9,1,1.6,0.7c1-0.3,1.3-1,1-2.1c-0.2-0.7-0.9-1.1-1.5-1c-0.1-0.1-0.2-0.2-0.3-0.3c-0.9-0.8-1.8-0.6-2.5,0.1
				C469.8,57.9,470.9,58.6,470.1,59z"/>
			<path class="st2" d="M451.1,56.5c-0.4,0.3-0.6,0.8-0.2,1.1c0.4,0.4,0.5,0.8,0.6,1.3c0.2,1.1,1.1,1.7,2.2,1.4c0.3,0,0.6,0,0.6,0
				c0.2,0.1,0.3,0.2,0.5,0.2c-0.6,0.4-1,1.1-0.8,1.7c0.2,0.5,1.1,0.9,1.8,0.6c0.7-0.2,1-0.9,0.8-1.4c-0.2-0.6-0.8-1-1.2-1
				c0.1,0,0.1-0.1,0.2-0.1c0.4-0.4,0.2-0.8,0-1.1c-0.2-0.4-0.5-0.9-0.7-1.2c-0.1-0.2-0.3-0.4-0.4-0.6c0.3-0.2,0.7-0.5,0.6-0.8
				c-0.1-0.5-0.9-0.5-1.2-0.8c-0.1,0.1-0.2,0.1-0.3,0.2c-0.3,0.5-0.2,0.7-0.1,1c-0.1-0.1-0.2-0.1-0.3-0.2
				C452.4,55.8,452,55.8,451.1,56.5z"/>
			<path class="st2" d="M474.3,61.1c-0.2,0.7,0.1,1.3,0.8,1.4c0.8,0.2,1.6-0.2,1.8-0.8c0,0.4,0.8,0.9,1.2,0.8c0.4,0,0.7-0.4,0.6-0.9
				c-0.1-0.8-0.5-1.2-0.9-1.1c-0.3,0-0.8,0.6-0.9,1c0-0.7-0.5-1.3-1-1.5S474.5,60.4,474.3,61.1z"/>
			<path class="st2" d="M489,67.1c0-0.3-0.2-0.4-0.5-0.3s-0.4,0.2-0.3,0.5s0.2,0.4,0.5,0.3C489,67.6,489.1,67.4,489,67.1z"/>
			<path class="st2" d="M475.3,79.6c0.3,0.8,1.2,1.3,1.9,1.1c0.8-0.2,1.4-1.7,1.1-2.5c-0.1-0.3-0.4-0.5-0.7-0.7
				c0.2-0.3,0.2-0.7,0.1-1c-0.2-0.5-0.8-0.8-1.1-0.6c-0.5,0.2-0.7,0.9-0.5,1.3c0,0.1,0.1,0.1,0.1,0.2C475.5,78,475,78.9,475.3,79.6z
				"/>
			<path class="st2" d="M483.2,73.9c-0.6-1.2-1-1.2-2.3-0.9c-0.8,0.2-1.1,1.2-0.9,2c0.3,0.8,1.4,1,2.5,0.7
				C483.3,75.4,483.6,74.6,483.2,73.9z"/>
			<path class="st2" d="M483.7,82.8c0.1-1-0.4-1.3-1.5-1.5c-0.3-0.5-0.5-1-0.9-1.3c-0.4-0.4-1-0.4-1.3-0.1c-0.1-0.1-0.2-0.3-0.4-0.4
				c-0.1-0.1-0.5,0-0.6,0.3s0.4,0.5,0.5,0.5c0,0,0,0,0.1,0c-0.4,0.4-0.7,0.9-1,1.3c-0.9-0.1-1,0-1,0.8c1.7,0.8,3.5,1.3,5.3,1.9
				C483.4,84,483.6,83.5,483.7,82.8z"/>
			<path class="st2" d="M476.4,69.8c0.4,0.2,1-0.3,1-0.7c0-0.3-0.3-0.5-0.3-0.7c-0.7-0.1-1.1,0.2-1,0.6
				C476,69.3,476.2,69.7,476.4,69.8z"/>
			<path class="st2" d="M474.7,73.6c0.4,1,1.4,1.5,2.4,1.1c0.7-0.3,1-0.8,1-1.4c0.1,0.1,0.2,0.2,0.4,0.3c0.5,0.2,1.1-0.2,1.2-0.7
				c0.1-0.3-0.2-0.7-0.6-1c0-0.3,0-0.6-0.1-0.9c-0.3-0.8-1.4-1.3-2.1-1c-0.3,0.1-0.5,0.3-0.7,0.5c-0.1-0.1-0.2-0.2-0.4-0.2
				c-0.5,0-0.8,0.6-1,0.9c-0.1,0.3,0.1,0.6,0.4,0.7C474.7,72.2,474.4,73,474.7,73.6z"/>
			<path class="st2" d="M451.9,61.9c0.7,0.9,1.2,1.7,1.9,2.6c0.1-0.7,0-1.1-0.3-1.6C453.3,62.3,452.6,62,451.9,61.9z"/>
			<path class="st2" d="M482.1,79.4c-0.2,0-0.5,0.1-0.6,0.3s0.2,0.5,0.3,0.6c0.2,0.1,0.7,0,0.8-0.2
				C482.6,79.8,482.2,79.4,482.1,79.4z"/>
			<path class="st2" d="M446.4,52.4c0.1-0.1,0.1-0.1,0.2-0.2c0.3-0.5,0.4-1,0.2-1.5c0.8-0.1,1.7-0.8,1.9-1.4
				c0.2-0.7-0.6-1.9-1.3-2.2c-0.8-0.3-1.5,0.2-1.7,1c-0.2,0.7-0.2,1.2-0.1,1.6c-0.1,0-0.1,0-0.2,0C445.8,50.7,446,51.6,446.4,52.4z"
				/>
			<path class="st2" d="M472.2,69.6L472.2,69.6c0.2,0.6,0.6,0.8,1,0.7c0.5-0.2,0.8-0.7,0.7-1.1c-0.1-0.3-0.4-0.5-0.7-0.6
				c-0.1-0.6-0.6-1.2-1-1.3c-0.5-0.1-1.3,0.5-1.4,1s0.3,1,0.7,1.1C471.8,69.6,472,69.7,472.2,69.6z"/>
			<path class="st2" d="M474.8,66c0.4,0.1,0.8-0.2,0.9-0.7s-0.3-0.7-0.6-0.8c-0.3,0-1,0-1.1,0.5C473.9,65.5,474.5,66,474.8,66z"/>
			<path class="st2" d="M468.3,70.3c0.3,0.7,1.5,1.1,2.3,0.9c0.5-0.2,0.7-1,0.4-1.7c-0.4-0.9-0.9-1-1.8-0.7
				C468.6,69.1,468.1,69.9,468.3,70.3z"/>
			<path class="st2" d="M458.5,62.7c-0.6,0.7,0.2,1,0.3,1.5c0.1,0.5,0.6,1,1.2,1c0.7-0.1,1.3-0.5,1.6-0.4c0.1,0,0.1,0,0.2,0.1
				c-0.1,0.2-0.1,0.5,0,0.8c0.1,0.2,0.2,0.5,0.4,0.7c0.1,0.4,0.5,0.8,1.1,1c1,0.4,2.1-0.5,1.9-1.2c-0.2-0.8-0.7-0.9-0.6-1
				c0.1-0.3,0.7-0.7,0.5-1.1c-0.2-0.5-1.7-0.6-2-0.4c-0.3,0.2-0.8,0.7-1,0.3c-0.4-0.4-0.5-1-1-1.2C460.3,62.4,459.1,62.1,458.5,62.7
				z"/>
			<path class="st2" d="M460.8,56.1c-0.2,0.2-0.3,0.5-0.4,0.6c0.3,0.6,0.8,0.8,1,0.6s0.4-0.6,0.4-0.8
				C461.8,56.1,461.1,55.8,460.8,56.1z"/>
			<path class="st2" d="M460.6,60.4c0,0.3-0.1,0.9,0.4,1c0.4,0.1,0.8-0.2,1-0.5c0.3-0.3-0.1-0.8-0.5-0.9
				C461,59.8,460.6,60.1,460.6,60.4z"/>
			<path class="st2" d="M471.1,66.2c0.5-0.3,0.7-0.8,0.5-1.2c-0.2-0.5-0.6-0.5-1-0.4c-0.5,0.2-0.8,0.8-0.6,1.1
				C470.1,66.2,470.6,66.3,471.1,66.2z"/>
			<path class="st2" d="M475.3,66.4c-0.4-0.4-0.8-0.9-1.3-0.4c-0.5,0.4-0.3,1,0,1.3C474.7,67.5,475.2,67.3,475.3,66.4z"/>
			<path class="st2" d="M456.7,51.3c-0.2-0.5-0.7-0.7-1-0.6c-0.7,0.1-0.7,0.8-0.9,1.4c0.4,0.3,0.8,0.5,1,0.6
				c-0.2,0.2-0.4,0.4-0.4,0.7c-0.2,0.8,0.5,1.9,1.2,2.1s1.6-0.3,1.8-1c0.3-1.1-0.2-2.1-1-2.3c-0.2,0-0.5,0-0.8,0
				C456.8,51.9,456.8,51.6,456.7,51.3z"/>
			<path class="st2" d="M454.1,7.7c0,0.2-0.1,0.6,0.2,0.7c0.3,0.1,0.6-0.2,0.6-0.3c0-0.2-0.1-0.4-0.2-0.6
				C454.5,7.5,454.1,7.6,454.1,7.7z"/>
			<path class="st2" d="M499,74.3c0,0.1,0.3,0.3,0.5,0.2c0.2-0.1,0.3-0.4,0.3-0.6c0-0.1-0.4-0.5-0.6-0.4C499,73.7,499,74.1,499,74.3
				z"/>
			<path class="st2" d="M497.5,72.6c-0.1,0.6-0.1,1,0.5,1.3c0.5,0.2,1,0,1.1-0.4c0.1-0.3,0.1-0.8-0.1-1
				C498.5,72.1,497.9,72.2,497.5,72.6z"/>
			<path class="st2" d="M495.6,80.8c-0.9,0.3-1.4,1.2-1.1,2s1.7,1.4,2.5,1.2c0.4-0.1,0.7-0.5,0.9-0.9c0.1,0,0.2,0,0.3-0.1
				c0.4-0.2,0.7-0.8,0.6-1.2c-0.2-0.5-0.7-0.7-1.1-0.5C497.1,80.9,496.2,80.6,495.6,80.8z"/>
			<path class="st2" d="M500,66.4c0.2-0.5,0-0.7-1-1c-0.7,0.3-0.5,1.2-0.1,1.4C499.4,67,499.9,66.7,500,66.4z"/>
			<path class="st2" d="M506.9,64.6c0.2-0.5-0.2-1.1-1-1c-0.7,0.3-0.5,1.2-0.1,1.4C506.2,65.2,506.8,65,506.9,64.6z"/>
			<path class="st2" d="M486.6,56.6c0.1,0,0.5-0.2,0.5-0.4s-0.2-0.5-0.3-0.5c-0.2,0-0.6,0-0.7,0.4S486.5,56.6,486.6,56.6z"/>
			<path class="st2" d="M499.3,84.6c0.3,0.9,1.4,1.3,2.3,1c0.7-0.3,1.1-1.5,0.9-2.5c-0.3-0.8-1.1-1.1-2-0.9
				C499.3,82.8,498.9,83.5,499.3,84.6z"/>
			<path class="st2" d="M504.8,67.5c-0.6-0.6-1.4-0.8-2-0.5c-0.7,0.4-1,1-1,1.8c0,0.3,0.1,0.6,0.3,0.8c0.7,0.7,1.6,0.8,2.4,0.1
				c0.2-0.1,0.3-0.3,0.5-0.4c0.3,0.3,0.5,0.6,0.7,0.9c0.5,0.5,0.9,0.6,1.4,0.2s0.8-0.9,0.6-1.5c-0.1-0.6-0.6-0.9-1.1-1
				c-0.4-0.1-0.8,0-1.2,0.1C505.1,67.8,504.9,67.6,504.8,67.5z"/>
			<path class="st2" d="M501.6,80.7c0.3-0.2,0.9-0.8,0.7-1.1c-0.2-0.4-0.9-0.3-1.1-0.2c-0.4,0.1-0.7,0.3-0.6,0.8
				C500.7,80.5,501.3,80.9,501.6,80.7z"/>
			<path class="st2" d="M443.4,17.1c0.9,0.2,1.8-0.4,2-1.1c0.2-0.9-0.3-1.8-1-2.1c-0.7-0.2-1.4,0-1.9,0.4c-0.1,0.4-0.2,0.9-0.3,1.2
				C442.3,16.3,442.8,17,443.4,17.1z"/>
			<path class="st2" d="M460.5,21.2c-0.5-0.2-1.3-0.2-1.4,0.8s0.9,1.7,1.6,1.9c0.9,0.2,2.2-1,2.1-2c0-0.4-0.3-0.6-0.6-0.7
				c-0.1-0.2-0.4-0.3-0.5-0.3s-0.4,0.1-0.5,0.3c0,0.1,0,0.1,0.1,0.2C460.9,21.7,461,21.5,460.5,21.2z"/>
			<path class="st2" d="M451.1,17c0.8,0.2,1.3-0.3,1.5-1.1c0.2-0.9-0.2-1.5-1-1.6c-0.8-0.2-1.5,0.4-1.7,1.2
				C449.8,16,450.3,16.8,451.1,17z"/>
			<path class="st2" d="M455.7,41.3c-0.7,0.2-1,0.7-0.7,1.1c-0.6,0.4-1.1,0.6-1.5,1c-0.4,0.3-0.5,1.1-0.4,1.7
				c-0.3-0.3-0.6-0.4-1-0.5c-1-0.1-1.4,0-1.8,0.5c-0.3,0.1-0.6,0.3-0.7,0.6c-0.1,0.4,0.1,0.8,0.4,1c0.2,0.6,0.7,1,1.5,1.2
				c0.1,0,0.2,0,0.2,0c-0.5,0.2-0.9,0.7-1,1c-0.1,0.5,0.4,1.1,1,1.3c0.8,0.2,1.3-0.2,1.6-1c0.2-0.7-0.1-1.4-0.7-1.5
				c-0.1,0-0.1,0-0.2,0c0.5-0.3,0.9-0.7,1-1.2c0-0.2,0-0.4,0-0.6c0.6,0.4,1.7,0.5,2.3,0.2c0.6-0.4,0.9-1.3,0.5-2.1
				c-0.2-0.6-0.5-1-0.1-1.5C456.5,42,456.1,41.6,455.7,41.3z"/>
			<path class="st2" d="M506.8,74.1c0.8-0.4,1.1-2.1,0.5-3c-0.5-0.6-1.3,0-1.5,0.5s-0.2,0.3-0.8,0.5c-0.6,0.1-1.2,0.7-0.7,1.5
				C504.9,74.4,506,74.4,506.8,74.1z"/>
			<path class="st2" d="M464.6,36.1c-0.1,0.6,0.4,1.6,0.8,1.7c0.7,0.2,1.3-0.2,1.5-1c0.2-0.6-0.3-1.1-1-1.3
				C465.3,35.3,464.7,35.5,464.6,36.1z"/>
			<path class="st2" d="M465.8,22.6c0.1,0,0.4-0.1,0.5-0.3c0-0.2-0.2-0.4-0.4-0.5c-0.1-0.1-0.5,0-0.6,0.3
				C465.2,22.5,465.7,22.6,465.8,22.6z"/>
			<path class="st2" d="M463.4,41c0.1-0.1,0.1-0.2,0.2-0.3c0.1-0.4-0.4-0.9-1-1c-0.7-0.1-1.2,0.2-1.3,0.8c-0.1,0.5,0.3,1,0.8,1
				c-0.1,0.2-0.2,0.5-0.3,0.9c0,0.5,0,0.9-0.4,1.2c-0.5,0.6-0.3,1.2-0.2,1.9c0.1,0.6,0.9,1,1.5,1c0.1,0,0.1,0,0.2,0
				c-0.4,0.2-0.7,0.6-0.7,1c-0.1,0.6,0.4,1,1.1,1.3c0.6,0.2,1.4-0.2,1.5-0.7c0.2-0.7-0.4-1.6-1-1.8c-0.1,0-0.2,0-0.3,0
				c0.2-0.2,0.4-0.4,0.5-0.7c0.3-0.7,0.2-1.3,0.1-2c-0.1-0.2-0.1-0.6,0-0.8C464.6,41.9,464.3,41.3,463.4,41z"/>
			<path class="st2" d="M486.1,71.5c0.2,0.2,0.7,0.3,1,0.3c1-0.2,1.5-0.8,1.5-2c-0.3-0.2-0.6-0.5-1-0.7c-0.7-0.3-1.3,0-1.6,0.4
				C485.6,70.2,485.6,71,486.1,71.5z"/>
			<path class="st2" d="M443.2,21.7c0.5-0.6,0.4-1-0.8-2.1c0.4-0.5,0.9-1,0.2-1.5c-0.3-0.3-0.6-0.4-0.9-0.3
				c-0.2,1.4-0.4,2.9-0.6,4.4C441.9,22.4,442.8,22.2,443.2,21.7z"/>
			<path class="st2" d="M527.3,75.1c-0.8,0.4-1,1.2-0.8,2c0.4,1,1.4,1.3,2.3,1c0.8-0.4,1.1-1.1,0.9-1.8
				C529.3,75.3,528,74.7,527.3,75.1z"/>
			<path class="st2" d="M529.5,71.1c0.1-0.2,0-0.6-0.1-0.7s-0.7-0.2-0.9,0s0.1,0.8,0.3,0.9S529.4,71.3,529.5,71.1z"/>
			<path class="st2" d="M517.9,80.1c-0.6,0.2-0.9,0.8-0.7,1.2c0.2,0.5,1.2,1,1.7,1c0.7-0.2,1-1,0.7-1.7
				C519.4,80,518.7,79.8,517.9,80.1z"/>
			<path class="st2" d="M521.3,79.7c0.1,0.3,0.3,0.6,0.6,0.7c0.5,0.2,0.9,0,1.3-0.9c-0.3-0.5-0.5-1-1.2-0.9
				C521.4,78.8,521.2,79.2,521.3,79.7z"/>
			<path class="st2" d="M447.6,54.6c0.5,0.9,0.9,1.7,1.3,2.6c0.1-0.1,0.3-0.3,0.4-0.8C449.6,55.4,448.5,54.3,447.6,54.6z"/>
			<path class="st2" d="M453.2,32.8c-0.9-0.1-1.7,0.4-1.9,1.1c-0.2,0.8,0,1.4,0.5,1.8c-0.4,0.1-0.7,0.3-1,0.7c-0.7,1-0.5,2,0.1,2.5
				c0.4,0.3,1.2,0.3,1.8,0.1c0,0.5,0.2,0.8,0.7,1c0.5,0.1,1-0.2,1-0.8c0.1-0.5-0.2-1-0.7-1.1c-0.1,0-0.1,0-0.2,0
				c0.2-0.8-0.1-1.3-0.6-1.7l-0.1-0.1c0.6-0.1,1-0.6,1.1-1.3c0.1-0.3,0.1-0.6,0.1-0.8c0.2,0.1,0.4,0.1,0.7,0
				c0.4-0.1,0.6-0.5,0.6-0.9c0.1,0.2,0.2,0.5,0.3,0.5c0.3,0.1,0.8-0.5,1-0.7c0.2-0.4,0-0.8-0.5-0.9c-0.5-0.2-0.8,0.1-0.8,0.5
				c0,0,0-0.1-0.1-0.1c-0.3-0.5-1-0.9-1.5-0.8C453.4,31.9,453.2,32.6,453.2,32.8z"/>
			<path class="st2" d="M454.3,19.4c0,0.1,0,0.4,0.2,0.5c0.2,0,0.5-0.1,0.6-0.2s0-0.6-0.2-0.7C454.7,18.8,454.4,19.2,454.3,19.4z"/>
			<path class="st2" d="M509.7,85.3c0.2,0.6,0.8,0.8,1.2,0.6c0.4-0.2,0.6-0.8,0.4-1.2c-0.2-0.5-0.7-0.7-1-0.5
				C509.8,84.3,509.5,84.8,509.7,85.3z"/>
			<path class="st2" d="M507.5,78.1c0.6-0.2,1-1,0.8-1.7s-0.8-0.9-1.6-0.6c-0.5,0.2-1,0.7-1,1.1c-0.1,0-0.1,0-0.2,0
				c-0.5,0.2-0.8,0.7-0.7,1.2c0.1,0.3,0.1,0.7,0,1c-0.2,0.6-0.1,1.1,0.4,1.5c0.4,0.3,1.5,0.1,1.9-0.4c0.3-0.4,0.7-0.9,0.3-1.4
				c-0.2-0.3-0.4-0.6-0.6-0.9C507.2,78.1,507.4,78.1,507.5,78.1z"/>
			<path class="st2" d="M512.9,77.6c0.2-0.1,0.2-0.2,0.3-0.3h0.1c0.6-0.2,1-0.9,1-1.4c-0.2-0.7-1-1.1-1.5-1s-0.8,0.9-0.7,1.6
				c-0.2,0.2-0.3,0.5-0.4,0.7C511.8,77.7,512.4,77.8,512.9,77.6z"/>
			<path class="st2" d="M509.7,69.3c-0.1,0-0.4,0.3-0.3,0.6s0.6,0.2,0.8,0.1c0.1,0,0.3-0.3,0.2-0.5
				C510.2,69.4,509.9,69.3,509.7,69.3z"/>
			<path class="st2" d="M520.4,67.8c-0.7,0.4-1.3,1.8-1,2.6c0.3,0.8,1.4,1.1,2.3,0.8c0.8-0.4,1.2-1.5,0.9-2.3
				C522.1,67.9,521.1,67.4,520.4,67.8z"/>
			<path class="st2" d="M508.1,86c0.2,0,0.4-0.1,0.6-0.4c0.2-0.4,0.1-0.9-0.1-1.1c0.5-0.4,0.7-1.1,0.4-1.7c-0.3-0.8-1.3-1-2.3-0.7
				c-0.7,0.3-1,1-0.7,1.7c0.1,0.2,0.2,0.5,0.4,0.6c-0.4,0.6-0.1,1.2,0,1.4c-0.4,0.2-0.7,0.6-0.8,1c1-0.1,1.9-0.2,2.9-0.3
				C508.3,86.2,508.2,86,508.1,86z"/>
			<path class="st2" d="M514.4,84.3c0.4-0.3,0.5-0.8,0.2-1.1c-0.2-0.2-0.5-0.5-0.8-0.5c-0.8,0-1,0.6-1,1.3
				C513.4,84.4,513.8,84.8,514.4,84.3z"/>
			<path class="st2" d="M515.4,75.2c0.2,0,0.6-0.4,0.5-0.6c-0.1-0.2-0.6-0.3-0.8-0.2c-0.2,0.1-0.4,0.4-0.3,0.6
				C514.9,75.2,515.4,75.2,515.4,75.2z"/>
			<path class="st2" d="M513.8,81.7c0.4-0.2,0.3-0.5,0.2-0.9c-0.2-0.5-0.7-0.6-1-0.3c-0.2,0.2-0.4,0.6-0.5,0.8
				C512.9,81.8,513.4,81.9,513.8,81.7z"/>
			<path class="st2" d="M483.2,50.1c-0.4,0.1-0.6,0.5-0.5,0.9c0.1,0.5,0.5,0.7,0.9,0.6c0.5-0.1,0.8-0.7,0.6-1
				C483.9,50,483.6,49.9,483.2,50.1z"/>
			<path class="st2" d="M476.4,37.1c-0.8-0.1-1.6,0.4-1.8,1.1c-0.3,1,0.3,1.9,1.2,2.1c0.9,0.2,1.5-0.2,1.7-1
				C477.8,38.5,477.2,37.3,476.4,37.1z"/>
			<path class="st2" d="M480.1,34.3c-0.3,0.1-0.4,0.7-0.3,0.9s0.5,0.3,0.7,0.3c0.2-0.1,0.4-0.5,0.3-0.7
				C480.8,34.5,480.4,34.2,480.1,34.3z"/>
			<path class="st2" d="M480.3,55.7c0.2,0,0.6,0,0.7-0.3c0.1-0.4-0.2-0.6-0.4-0.7c-0.2-0.1-0.8-0.2-0.9,0.3
				C479.7,55.5,480.1,55.6,480.3,55.7z"/>
			<path class="st2" d="M475.3,27.1c-0.8-0.2-2.2,0.7-2.4,1.4c-0.2,0.8,0.5,1.8,1.4,2s1.9-0.5,2.1-1.2
				C476.6,28.3,476,27.2,475.3,27.1z"/>
			<path class="st2" d="M478.7,46c-0.1,0-0.2,0.2-0.3,0.3c0-0.1-0.1-0.1-0.1-0.1c-0.5-0.3-1.5,0.5-1.4,0.9s1,0.7,1.5,0.4
				c0.3,0.4,1,0.4,1.3-0.1c0.1-0.3-0.3-0.8-0.5-1.1C479.2,46.1,479.1,45.9,478.7,46z"/>
			<path class="st2" d="M495.5,54.3c-0.8,0.1-1,0.4-1,1.3c-0.5,0.4-1,0.8-1.3,1.1c-0.4,0.4-0.1,1,0.5,1c0.7-0.1,1.3,0.1,1.9-0.5
				c0-0.3,0-0.6,0.1-1c0.8-0.5,1.1-1.1,1-1.6C496.3,54.3,495.9,54.2,495.5,54.3z"/>
			<path class="st2" d="M467.8,43c-0.7,0.2-0.8,1.1-0.5,1.6s1.1,0.5,1.5-0.2c0.2-0.3,0.1-0.9-0.1-1C468.7,43,468.1,42.9,467.8,43z"
				/>
			<path class="st2" d="M469.8,36.6c-0.5-0.2-1,0-1.1,0.4c-0.1,0.2-0.1,0.7,0,0.9c0.3,0.5,0.7,0.5,1.6,0.1
				C470.4,37.6,470.6,36.9,469.8,36.6z"/>
			<path class="st2" d="M444.2,46.7c0.1,0.4,0.2,0.7,0.4,1C444.6,47.3,444.4,47,444.2,46.7z"/>
			<path class="st2" d="M490.2,60.6c-0.5-0.2-0.9-0.7-1.3-0.5c-0.4,0.1-0.5,0.3-0.6,0.6c-0.1,0.2-0.3,0.4-0.3,0.9
				c0,0.4,0.3,1.1,0.8,1.5c0.6,0.3,1,0.3,1.5,0s0.6-0.8,0.6-1.1C490.8,61.5,490.6,60.9,490.2,60.6z"/>
			<path class="st2" d="M467.6,40.4c-0.5-0.1-1,0.2-1.1,0.7c-0.1,0.6,0.1,1,0.6,1.1s1-0.1,1.1-0.6C468.3,41.1,468,40.5,467.6,40.4z"
				/>
			<path class="st2" d="M481.2,52.4c-0.1,0-0.3,0-0.4,0.1c-0.5,0.2-0.7,0.8-0.5,1.2c0.2,0.5,0.8,0.8,1.1,0.7c0.3-0.1,0.7-0.6,0.8-1
				c0.2-0.1,0.4-0.2,0.4-0.4c0.2-0.7,0.1-1.1-0.7-1.2C481.6,51.9,481.3,52.2,481.2,52.4z"/>
			<path class="st2" d="M490.4,71.7c0.3,0.1,0.7,0.2,1,0.2c0.4-0.1,0.6-0.5,0.4-0.9c-0.1-0.4-0.3-0.7-0.8-0.6
				C490.6,70.6,490.3,71.1,490.4,71.7z"/>
			<path class="st2" d="M492.5,50.8c-0.6,0.2-1,0.9-0.8,1.2c0.2,0.4,1.7,0.4,2-0.1C494,51.6,493.1,50.7,492.5,50.8z"/>
			<path class="st2" d="M491.2,53.5c-0.3,0.1-0.3,0.4-0.2,0.5c0.1,0.2,0.3,0.5,0.6,0.4c0.3-0.1,0.2-0.6,0.2-0.7
				C491.6,53.6,491.5,53.4,491.2,53.5z"/>
			<path class="st2" d="M483,44.2c-0.2,0-0.6,0.2-0.8,0.4c-0.2,0.4,0.1,0.8,0.4,0.9c0.3,0,1,0,1-0.5C483.8,44.4,483.2,44.2,483,44.2
				z"/>
			<path class="st2" d="M485,64.8c-0.2,0.2-0.2,0.5,0,0.6c0.1,0.2,0.6,0.2,0.8,0.1s0.1-0.5-0.1-0.7C485.5,64.7,485.1,64.6,485,64.8z
				"/>
			<path class="st2" d="M483.6,54.3c-0.7,0.3-0.9,0.8-0.6,1.6c0.3,0.7,0.9,0.9,1.6,0.5c0.6-0.2,0.9-0.7,0.7-1.1
				C485.3,54.8,484.1,54.2,483.6,54.3z"/>
			<path class="st2" d="M472.6,44.4c-0.1,0.4,0.7,0.9,1.3,0.8c0.7-0.1,0.7-1,0.5-1.4C474.2,43.5,472.7,44.1,472.6,44.4z"/>
			<path class="st2" d="M502.2,75.2c0.8-0.2,1.2-1.1,1-1.8c-0.2-0.7-1.2-1.1-2-0.9c-0.6,0.2-0.9,0.8-0.7,1.5
				C500.8,74.7,501.6,75.4,502.2,75.2z"/>
			<path class="st2" d="M444.1,21c-0.2,0.6,0.5,1.2,1.1,1.3c0.8,0.1,1.3-0.3,1.5-1c0.2-0.8-0.2-1.4-0.8-1.5
				C445.3,19.7,444.3,20.3,444.1,21z"/>
			<path class="st2" d="M446.4,18.6c-0.2,0.6,0.3,1.4,0.9,1.7c0.5,0.2,1.1-0.1,1.2-0.7c0.2-0.6-0.2-1.3-0.9-1.5
				C447.1,18,446.6,18.2,446.4,18.6z"/>
			<path class="st2" d="M499.6,77.9c-0.3-0.2-0.7-0.2-1,0c-0.6,0.4-0.4,0.9-0.3,1.5c0.6,0.1,1.1,0.4,1.5-0.3c0-0.1,0.1-0.1,0.1-0.2
				c0.5,0.3,1.2,0.4,1.6,0.2c0.5-0.2,0.7-0.7,0.4-1.2c-0.3-0.8-1-1.1-1.6-1C500.1,77.2,499.8,77.5,499.6,77.9z"/>
			<path class="st2" d="M443.8,11.8c0.2,0,0.6-0.3,0.7-0.6s0-0.7-0.4-0.7c-0.1,0-0.3,0-0.5,0.1c-0.1,0.3-0.2,0.6-0.3,0.9
				C443.4,11.6,443.7,11.8,443.8,11.8z"/>
			<path class="st2" d="M449.1,3c-0.5-0.1-1,0.2-1.2,0.6c-0.1,0.4,0.2,1,0.6,1c0.4,0.1,1-0.2,1.2-0.6C449.8,3.7,449.5,3.1,449.1,3z"
				/>
			<path class="st2" d="M499.8,61.8c-0.2,0.1-0.6,0.3-0.5,0.5c0.1,0.3,0.5,0.3,0.6,0.2c0.2-0.1,0.5-0.2,0.4-0.5
				C500.2,61.7,499.9,61.8,499.8,61.8z"/>
			<path class="st2" d="M457.8,9.6c-0.4,0.3-0.5,0.8-0.2,1.2c0.2,0.4,0.5,0.6,0.9,0.5c0.7-0.2,0.8-0.7,0.9-1.3
				C458.7,9.6,458.3,9.1,457.8,9.6z"/>
			<path class="st2" d="M458.4,46.4c-0.5-0.1-1.1,0.3-1.1,0.8c-0.1,0.5,0.4,1,0.9,1.1s1-0.3,1.1-0.7C459.3,47.1,459,46.5,458.4,46.4
				z"/>
			<path class="st2" d="M467.2,29.2c-0.2,0-0.5,0.1-0.6,0.3c-0.1,0.2,0.2,0.5,0.3,0.6c0.2,0.1,0.7,0,0.8-0.2
				C467.7,29.6,467.3,29.2,467.2,29.2z"/>
			<path class="st2" d="M458,37.5c-0.7-0.1-1.6,0.6-1.8,1.3c-0.2,0.6,0.2,1.1,1,1.3c0.9,0.2,1.4-0.1,1.6-1
				C458.9,38.4,458.6,37.6,458,37.5z"/>
			<path class="st2" d="M463.5,28.9c-0.3,0-0.6,0.2-0.9,0.3c-0.1,0.6,0.3,1,0.8,1.1s0.6-0.2,0.7-0.6
				C464.1,29.3,463.8,28.9,463.5,28.9z"/>
			<path class="st2" d="M457.9,25.4c-0.5-0.2-1,0-1.2,0.6c-0.2,0.3-0.3,0.7-0.6,0.9c-0.5,0.4-0.8,0.9-0.7,1.4c0.1,0.5,1.2,1,1.7,0.9
				s1-0.2,1-1c0-0.6,0.1-1,0.1-1.6C458.7,26.1,458.4,25.6,457.9,25.4z"/>
			<path class="st2" d="M449.3,8.1c-0.4-0.1-0.8,0.1-0.8,0.5s0.1,1.1,0.5,1.2c0.4,0.1,0.9-0.6,1-0.9C450,8.6,449.7,8.1,449.3,8.1z"
				/>
			<path class="st2" d="M455.9,24.5c-0.2-0.1-0.7,0-0.8,0.2c-0.1,0.2,0.3,0.6,0.5,0.6s0.5,0,0.6-0.3C456.3,24.9,456,24.6,455.9,24.5
				z"/>
			<path class="st2" d="M452,24.9c-0.2,0.4,0.1,1,0.5,1c0.3,0,1.1-0.1,1.2-0.5c0.1-0.5-0.5-0.8-0.8-0.9
				C452.7,24.5,452.2,24.5,452,24.9z"/>
			<path class="st2" d="M454.3-0.8c-0.7-0.1-0.7,0.6-0.9,0.8c-0.7,0.6-0.7,1.8-0.1,2.2s1,0.3,1.6-0.1s0.6-0.9,0.4-1.4
				C455.2,0.3,455-0.8,454.3-0.8z"/>
			<path class="st2" d="M470.6,47.4c-0.7,0-1.4,0.8-1.6,1.4c-0.1,0.4,0,0.8,0.4,1c1,0.4,2,0.6,3,0.3c0.2-0.1,0.4-0.2,0.4-0.3
				c0.8-0.8,0.6-1.7-0.4-2.1C471.9,47.5,471.3,47.4,470.6,47.4z"/>
			<path class="st2" d="M477.7,66c-0.7,0.4-1,0.9-0.8,1.2c0.2,0.4,1.1,0.6,1.5,0.4c0.3-0.2,0.5-1,0.3-1.4
				C478.6,65.8,478.1,65.7,477.7,66z"/>
			<path class="st2" d="M485.1,76.7c-0.6-0.3-1.3,0.2-1.5,0.8c-0.1,0.3-0.1,0.7,0,1c-0.6,0.2-0.9,0.8-0.6,1.2
				c0.1,0.3,0.5,0.5,0.9,0.6c0.2,0.1,0.5,0.2,0.8,0.1c0.2-0.1,0.4-0.4,0.4-0.7c0-0.1-0.1-0.3-0.2-0.4c0.4,0,0.7-0.2,0.8-0.3
				c0.4-0.4,0.3-0.8,0.1-1.2C485.5,77.4,485.6,76.9,485.1,76.7z"/>
			<path class="st2" d="M492.7,79.7c-0.1,0-0.1,0.1-0.2,0.1c-0.1-0.4-0.4-0.9-0.7-1.2c-0.5-0.5-1.7-0.5-2.2,0.1
				c-0.4,0.6-0.3,1.9,0.6,2.3c0.7,0.3,1.1,0.3,1.6,0.1c0,0.3,0,0.5,0.1,0.8c0.2,0.5,1.1,0.7,1.7,0.4c0.8-0.4,1-1,0.6-1.7
				C493.9,79.8,493.3,79.4,492.7,79.7z"/>
			<path class="st2" d="M484.9,59.7c-0.3-0.6-1.2-0.8-2-0.5c-0.7,0.3-0.9,0.9-0.5,1.7c0.2,0.5,1,0.8,1.4,0.7
				C484.4,61.3,485.1,60.1,484.9,59.7z"/>
			<path class="st2" d="M489.1,82.6c-0.1,0-0.1,0.3-0.1,0.3c0,0.1,0.2,0.2,0.3,0.1c0.1-0.1,0.2-0.2,0.2-0.4
				C489.4,82.6,489.2,82.6,489.1,82.6z"/>
			<path class="st2" d="M478.8,62.2c0.1-0.1,0.3-0.1,0.3-0.2l-0.1-0.3c-0.1,0-0.3,0-0.4,0.1C478.6,62.1,478.7,62.2,478.8,62.2z"/>
			<path class="st2" d="M481.8,62.6c-0.3,0.1-0.5,0.2-0.7,0.4c-0.3-0.5-0.4-0.5-0.9-0.6c-0.4-0.1-0.7,0.1-0.8,0.1
				c0.1,0.4-0.1,1.2,0.4,1.4c0.3,0.1,0.6-0.1,0.8-0.3c0,0.2,0,0.3,0,0.5c0.2,0.5,1.2,0.9,1.8,0.6c0.4-0.2,0.7-1.2,0.5-1.6
				C482.9,62.7,482.3,62.4,481.8,62.6z"/>
			<path class="st2" d="M481.1,56.5c-0.5,0.1-0.9,0-1.2-0.2c-0.2-0.1-0.7,0.2-0.8,0.5c-0.1,0.2-0.1,0.7,0,0.9s0.5,0.3,0.8,0.2
				c0.5-0.1,1-0.3,1.3-0.4c0.4-0.1,0.5-0.4,0.3-0.9C481.4,56.6,481.2,56.5,481.1,56.5z"/>
			<path class="st2" d="M484.9,82c-0.3,0.7-0.2,1.1,0.4,1.7c0.7,0.7,1.4,0.7,2.2,0.6c0.2,0.4,0.2,0.8,0.4,1c0.1,0.1,0.2,0.2,0.3,0.3
				c0.4,0.1,0.8,0.2,1.1,0.2c0.2-0.1,0.4-0.3,0.6-0.7c0.5-0.9,0.1-1.6-0.8-1.9c-0.3-0.1-0.6-0.1-1.1-0.2c0.2-0.4,0.3-0.8,0.5-0.9
				c0.7-0.5,0.8-1,0.4-1.7c-0.1-0.2-0.1-0.4-0.1-0.6c-0.1-0.7-0.4-1-0.9-1c-0.6,0.1-0.9,0.6-0.6,1.3c0,0.1,0.1,0.1,0.1,0.2
				c0.1,0.4,0,0.7-0.5,0.6c-0.2,0-0.3-0.1-0.5-0.1C485.7,81,485.2,81.4,484.9,82z"/>
			<path class="st2" d="M450.3,53.3c-0.3,0.5,0.1,1.1,0.8,1.2c0.3,0,0.7-0.5,0.6-1C451.6,53.1,450.6,52.8,450.3,53.3z"/>
			<path class="st2" d="M462.7,73.4c0.3,0.2,0.6,0.5,0.9,0.7V74C463.4,73.7,463,73.5,462.7,73.4z"/>
			<path class="st2" d="M457,66.1c0-0.4-0.2-0.8-0.6-0.9c-0.3,0-0.8,0-1,0.2c-0.1-0.1-0.3-0.1-0.4-0.2c-0.2,0-0.4-0.1-0.5-0.1
				c1.1,1.4,2.4,2.8,3.7,4.1c0.4,0.1,0.9,0,1.1-0.2c0.1,0.5,0.6,0.9,1.1,1c0.9,0.2,1.3-0.2,1.5-1.1c0.2-0.8-0.2-1.5-0.8-1.6
				c-0.5-0.1-1,0.2-1.5,0.6c-0.2-0.8-0.8-1-0.8-1.1s0.5-1-0.2-1.3C457.8,64.9,457.4,65.8,457,66.1z"/>
			<path class="st2" d="M441,27.2c0.2-0.2,0.3-0.5,0.3-0.9c0-0.5-0.1-1-0.2-1.5C441,25.6,441,26.5,441,27.2z"/>
			<path class="st2" d="M470.3,78c-0.2,0.1-0.4,0.2-0.6,0.4c-0.1-0.7-0.7-1.3-1.5-1.6c-0.4-0.1-0.7-0.1-1,0.1c2,1.3,4.1,2.6,6.2,3.6
				c0.1-0.5,0.2-1.1-0.1-1.7C472.7,77.8,471,77.6,470.3,78z"/>
			<path class="st2" d="M441.1,29.5c0.5-0.2,0.6-0.7,0.7-1.3c-0.3-0.1-0.5-0.3-0.7-0.4C441,28.4,441,28.9,441.1,29.5z"/>
			<path class="st2" d="M449.7,50.3c-0.5-0.1-1,0.2-1,0.8c-0.1,0.5,0.1,1,0.6,1c0.5,0.1,1.1-0.4,1.1-0.9
				C450.4,50.8,450.1,50.3,449.7,50.3z"/>
			<path class="st2" d="M444.4,33.1c-0.6,0.2-0.9,0.5-1,0.9c-0.1,0-0.2-0.1-0.2-0.1c-0.8-0.2-1.2,0.1-1.6,0.7
				c0.2,1.6,0.5,3.1,0.8,4.8c0.1,0.1,0.3,0.1,0.5,0.1c0.5-0.1,0.8-0.7,0.8-1.3c0.6-0.2,1.1-0.7,1.3-1.2c0.1-0.3,0-0.6-0.1-1
				c0.1,0,0.2,0,0.3,0c0.7,0,1.5-1,1.4-1.6C446.3,33.7,445.3,32.8,444.4,33.1z"/>
			<path class="st2" d="M458.6,56.7c-0.9-0.2-2,0.4-2.1,1.2c-0.2,1,0.4,2,1.2,2.2c0.2,0,0.3,0.1,0.5,0.1c0,0.1,0.1,0.2,0.1,0.3
				c0.2,0.3,0.6,0.9,1,0.7s0.4-1,0.3-1.2c0-0.1-0.1-0.2-0.3-0.3c0.1-0.2,0.3-0.5,0.3-0.8C459.9,57.7,459.6,56.9,458.6,56.7z"/>
			<path class="st2" d="M445.2,29.5c-0.2,0.7,0.3,1.2,1.1,1.3c0.5,0.1,1.2-0.4,1.3-0.9c0.1-0.6-0.5-1.8-1-1.9
				C446,28.1,445.4,28.7,445.2,29.5z"/>
			<path class="st2" d="M447.7,24.6c-0.1,0-0.1-0.1-0.2-0.1c-0.5-0.1-1,0.3-1.1,0.7c-0.1,0.5,0.3,1,0.8,1.2c0.5,0.1,0.9-0.2,1-0.6
				c0,0,0.1,0,0.1,0.1c0.5,0.1,1-0.2,1.2-0.6c0.2-0.5-0.2-1-0.7-1.1C448.3,24,447.9,24.2,447.7,24.6z"/>
			<path class="st2" d="M449.8,16.5c-0.4-0.1-0.8,0.8-0.8,0.9c0.1,0.4,0.2,1,0.7,1c0.5,0.1,0.7-0.4,0.7-0.6
				C450.2,17.5,450,16.6,449.8,16.5z"/>
			<path class="st2" d="M444.7,32.3c0.2,0.2,0.6,0.2,0.7,0.1c0.2-0.2,0.5-0.6,0.5-0.9c-0.1-0.6-0.6-0.6-1-0.6
				C444.4,31.4,444.3,31.9,444.7,32.3z"/>
			<path class="st2" d="M450.9,26c-0.4,0-0.8,0-0.9,0.5c0,0.3,0.1,1.1,0.5,1.2s0.8-0.7,0.9-1C451.6,26.4,451.4,26.1,450.9,26z"/>
			<path class="st2" d="M495.2,72.6c-1-1.6-2.4-1.1-3.3-0.2c-0.4,0.3-0.6,0.7-0.6,1.1c-0.1,0.6,0.1,1,0.5,1.6s0.3,1.2,1,1.5
				c0.8,0.4,2.2,0.7,3.3-0.4c0.7-0.7,0.9-1.3,0.8-2C496.6,73.5,495.6,73.4,495.2,72.6z"/>
			<path class="st2" d="M444,27.4c-0.3,0-0.6,0.3-0.7,0.6c0,0.1,0,0.4,0.1,0.6c-0.1-0.1-0.3-0.1-0.4-0.1c-0.5,0.1-0.8,1.2-0.4,1.4
				c0.4,0.2,1.3-0.2,1.2-0.8c0-0.1-0.1-0.2-0.1-0.3c0.3,0,0.8-0.6,0.8-0.7C444.5,27.9,444.2,27.3,444,27.4z"/>
			<path class="st2" d="M497.2,86c-0.3,0.1-0.5,0.5-0.6,0.8c0.7,0,1.2,0.1,1.9,0.1v-0.1C498.3,86.4,497.5,86,497.2,86z"/>
			<path class="st2" d="M458.4,48.6c-1-0.2-1.6,0-1.8,0.6c-0.1,0-0.1,0-0.2,0c-0.5,0.2-0.7,0.6-0.6,1c0.2,0.6,1,1,1.3,0.9
				c0.1,0,0.2-0.2,0.3-0.4c0.5,0.1,1.3-0.6,1.5-1.1C459.2,49.1,458.9,48.7,458.4,48.6z"/>
			<path class="st2" d="M464.2,57.7c-0.5-0.1-1,0.5-1.2,1.1c-0.1,0.3-0.1,0.5,0,0.7h-0.1c-0.6,0.2-1,1.2-0.8,1.8
				c0.2,0.5,1.1,0.9,1.7,0.6c0.4-0.2,0.8-0.9,0.6-1.2c-0.1-0.1-0.1-0.3-0.2-0.4c0.5-0.1,0.9-0.4,1-0.8
				C465.6,58.9,465,57.9,464.2,57.7z"/>
			<path class="st2" d="M464.5,69c-0.3,0-0.9-0.2-1.2,0.2c-0.3,0.4,0.6,1.8,0.8,1.9c0.2,0.1,1,0.2,0.9,0.8c0,0.1,0,0.1-0.1,0.2
				c-0.1-0.4-0.3-0.7-0.7-0.7c-0.5-0.1-0.9,0.3-1,0.8s0.3,1,0.8,1c0.2,0,0.3,0,0.5-0.1c0,0.1,0,0.2,0,0.3c0.2,0.6,0.6,1.8,1.5,1.9
				s0.8-0.7,1.1-1c0.2-0.2,0.3-0.4,0.3-0.6c0.1,0.7,0.7,1.4,1.3,1.6c0.1,0,0.3,0.1,0.4,0.1c0,0.1,0,0.3,0.1,0.4
				c0.2,0.3,0.5,0.7,0.9,0.8c0.7,0.1,1.1-0.6,1.1-1c0.2,0.3,0.4,0.6,0.5,1c0.1,0.2,0.5,0.5,0.8,0.6c0.5,0.1,0.9,0.3,1.2,0.4
				c0.6,0.2,1.2-0.1,1.4-0.6c0.1-0.3,0.1-0.5,0.1-0.8c0.2-0.9-0.2-1.5-1-1.7c-0.4-0.1-0.7,0-1,0.1c0-0.1,0-0.1,0-0.2
				c-0.1-0.5-0.4-0.8-0.8-0.8c-0.6-0.1-1,0.3-1.2,0.7c-0.2,0.3-0.3,0.5-0.2,0.8c-0.1-0.1-0.3-0.2-0.5-0.2c0.2-0.3,0.4-0.6,0.5-1
				c0.3-0.9-0.2-1.6-1-1.9c-0.9-0.3-2.1,0.3-2.4,1.2v0.1c0-0.2-0.1-0.3-0.2-0.5c-0.4-0.6-1-0.9-1.1-1.1s-0.1-0.8,0.4-0.9
				c0.3-0.1,0.6-0.3,0.7-0.7c0.4,0,0.8-0.3,0.9-0.7c0.1-0.5-0.2-1-0.7-1.1c-0.2,0-0.3,0-0.5,0.1c-0.5-0.6-1.4-0.8-1.8-0.3
				C464.6,68.5,464.8,68.9,464.5,69z"/>
			<path class="st2" d="M465.6,64.8c0.2,0.4,0.7,0.6,1.1,0.5c0.2-0.1,0.4-0.2,0.5-0.4c0,0,0,0,0,0.1c-0.4,1,0.5,1.5,1,1.8
				s1.3-0.5,1.4-1.3c0-0.6-0.3-0.9-0.7-1c-0.6-0.2-1.3,0-1.5,0.4c0.1-0.2,0.1-0.4,0-0.6c-0.2-0.5-0.7-0.8-1.1-0.6
				C465.7,63.9,465.4,64.4,465.6,64.8z"/>
			<path class="st2" d="M474.4,48.1c-0.2,0.2,0,0.6,0.1,0.7c0.1,0.1,0.5,0.2,0.7,0.1c0.2-0.1,0.1-0.5,0-0.7
				C475.1,48.2,474.6,48,474.4,48.1z"/>
			<path class="st2" d="M495.1,64.1c-0.1-0.7-0.4-1-1-1c-0.8,0-1.3,0.7-1.3,1.5c0,0.9,0.5,0.9,0.5,1.4s0.3,0.7,0.8,0.9
				c0.5,0.2,1.3,0.4,1.5-0.4s-0.3-1-0.5-1s-0.5-0.4-0.3-0.5C494.9,65,495.2,64.7,495.1,64.1z"/>
			<path class="st2" d="M474.7,52.9c0,0.4,0.2,0.8,0.5,1s1-0.2,1-0.7c0-0.3-0.2-0.6-0.3-0.8C475.2,52.3,474.6,52.5,474.7,52.9z"/>
			<path class="st2" d="M463.2,55.7c-0.2,0.2-0.8,0.6-0.6,1c0.3,0.5,1,0.4,1.2,0.3c0.4-0.1,0.4-0.6,0.3-0.9
				C464,55.7,463.5,55.4,463.2,55.7z"/>
			<path class="st2" d="M456.2,34.6c-0.2,0.6,0.2,1.1,0.7,1.2c0.5,0.1,1-0.3,1-0.8c0.1-0.5-0.1-1-0.6-1
				C456.8,33.9,456.3,34.2,456.2,34.6z"/>
			<path class="st3" d="M14,106h347c5,0,9,4,9,9l0,0c0,5-4,9-9,9H14c-5,0-9-4-9-9l0,0C5,110,9,106,14,106z"/>
			<path class="st3" d="M99,148h347c5,0,9,4,9,9l0,0c0,5-4,9-9,9H99c-5,0-9-4-9-9l0,0C90,152,94,148,99,148z"/>
			<circle class="st3" cx="485" cy="157" r="9"/>
		</g>
	</g>
</g>
<rect class="st4" width="560" height="300"/>
</svg>
