<svg id="Layer_1" data-name="Layer 1" xmlns="http://www.w3.org/2000/svg" viewBox="0 0 128 128"><defs><style>.cls-1{fill:#ecf0f6;}.cls-2{fill:#fff;}.cls-3{fill:#cfd6e2;}.cls-4{fill:#07c;}.cls-5{fill:#0066b1;}.cls-6{fill:#1ba9f5;}.cls-7{fill:#343741;}</style></defs><title>illustration-monitor-graph-cogs-128-white-bg</title><circle class="cls-1" cx="64.13" cy="63.98" r="60"/><path class="cls-2" d="M90.73,10.56h0a.64.64,0,0,0,.72.46s0,0,.08,0a.87.87,0,0,0,.63-.07c-.6-.32-1.22-.64-1.84-.94A1.19,1.19,0,0,0,90.73,10.56Z"/><path class="cls-2" d="M93.79,14.56c-.54-.52-1.12-.6-1.48-.2a.84.84,0,0,0-.13.21.4.4,0,0,0-.33-.17c-.35,0-.28.46-.28.64s.29.3.36.27l.13-.08a1.5,1.5,0,0,0,.23,1,1.1,1.1,0,0,0,1.6-.16C94.42,15.57,94.39,15.15,93.79,14.56Z"/><path class="cls-2" d="M93.08,18.77a.46.46,0,0,0-.24-.5.63.63,0,0,0-.63.25c-.09.18.14.45.33.51A.46.46,0,0,0,93.08,18.77Z"/><path class="cls-2" d="M93.48,25.94c.35-.13.65-.36.49-.73s-.58-.91-.91-.85-.37.89-.34,1.19S93.07,26.09,93.48,25.94Z"/><path class="cls-2" d="M85,9.14a.83.83,0,0,0,1,.72A.88.88,0,0,0,86.7,9a.85.85,0,0,0-1-.68A.67.67,0,0,0,85,9.14Z"/><path class="cls-2" d="M92,30.24c-.23.19.06.55.14.58s.39.16.57,0a.3.3,0,0,0,0-.46C92.49,30.23,92.19,30.05,92,30.24Z"/><path class="cls-2" d="M90.23,15.29a1.39,1.39,0,0,0-.92-1.51,1.21,1.21,0,0,0-.91.17A1.64,1.64,0,0,0,88,16.21a5.49,5.49,0,0,0,1.08.1A1.27,1.27,0,0,0,90.23,15.29Z"/><path class="cls-2" d="M82.92,7a2.31,2.31,0,0,0,.35.35,2.11,2.11,0,0,1,.33.44c.36.52.77.68,1.11.45a.68.68,0,0,0,.3-.52C84.32,7.46,83.62,7.23,82.92,7Z"/><path class="cls-2" d="M88.83,18.05a.31.31,0,0,0-.07.51.32.32,0,0,0,.52.05.3.3,0,0,0,.06-.48A.31.31,0,0,0,88.83,18.05Z"/><path class="cls-2" d="M100.48,43.93a.59.59,0,0,0-.21.52.54.54,0,0,0,.49.22c.14-.05.51-.34.38-.56A.63.63,0,0,0,100.48,43.93Z"/><path class="cls-2" d="M111.25,56c-.35,0-.28.46-.28.64s.29.3.36.27.36-.26.37-.42S111.6,55.94,111.25,56Z"/><path class="cls-2" d="M112.72,40.52l.08-.05a.7.7,0,0,0,.45.05.94.94,0,0,0,.65-1.13,1,1,0,0,0-.43-.51,1.89,1.89,0,0,0-.09-.34,1,1,0,0,0-1.39-.31,1.15,1.15,0,0,0-.64,1.59C111.63,40.39,112.31,40.74,112.72,40.52Z"/><path class="cls-2" d="M121.88,61c.62-.18,1.85-.71,1.38-1.81a1.46,1.46,0,0,0-1.61-.7h0a1.63,1.63,0,0,0,0-1.46,1.65,1.65,0,0,0-2.09-.56,1.38,1.38,0,0,0-.63,1.74,2.17,2.17,0,0,0,1.89.85.85.85,0,0,0-.22.64c.06.49-1.09.3-1.06,1s-.73,1-.59,1.84.81,1.55,1.47,1.18a3,3,0,0,0,1.18-1.6C121.8,61.6,121.25,61.16,121.88,61Z"/><path class="cls-2" d="M110.67,41.59a1,1,0,0,0-1.26-.4A.77.77,0,0,0,109,42a1.24,1.24,0,0,0,.07,1.12.84.84,0,0,0,1.12.22.82.82,0,0,0,.51-1s0,0,0,0A.82.82,0,0,0,110.67,41.59Z"/><path class="cls-2" d="M99,21.3c0-.2-.53-.65-.76-.59s-.45.76-.37.86.59.57.79.46A.91.91,0,0,0,99,21.3Z"/><path class="cls-2" d="M96.67,26.85a1.81,1.81,0,0,0,1.87.1c.44-.47.37-1-.22-1.55a.89.89,0,0,0-.79-.25.71.71,0,0,0,0-.38,1,1,0,0,0-1.13-.68.78.78,0,0,0-.59.93.86.86,0,0,0,.85.78A.8.8,0,0,0,96.67,26.85Z"/><path class="cls-2" d="M84.8,16.5c.24.23.54.42.88.13a.9.9,0,0,0,0-1.25,2.44,2.44,0,0,0-.87.25A.52.52,0,0,0,84.8,16.5Z"/><path class="cls-2" d="M111.1,38.07a2.62,2.62,0,0,0-.93-.36c-.48,0-.77.61-.63,1.13a.77.77,0,0,0,1,.5A1,1,0,0,0,111.1,38.07Z"/><path class="cls-2" d="M103.55,29.22a.88.88,0,0,0,1.09-.33.63.63,0,0,0,.11-.53,11.36,11.36,0,0,0-.77-1.07c.26-1,0-1.82-.58-2a1.79,1.79,0,0,0-1.69,1,.76.76,0,0,0-.18-.22,1,1,0,0,0-1.24,0,1.27,1.27,0,0,0-.06,1.36,1.22,1.22,0,0,0,1.45-.12.2.2,0,0,0,0-.08,2.9,2.9,0,0,0,1.41.71C103,28.43,102.82,29,103.55,29.22Z"/><path class="cls-2" d="M115.72,52.49c.16,0,.59-.27.53-.47a.56.56,0,0,0-.54-.27c-.18,0-.53.18-.46.38A.59.59,0,0,0,115.72,52.49Z"/><path class="cls-2" d="M117.65,50.49a.84.84,0,0,0,0-1,1,1,0,0,0-1.17-.4c-.59.33-.51.91-.49,1.44C116.92,50.93,117.33,50.93,117.65,50.49Z"/><path class="cls-2" d="M119,39.63c-.22-.5-.44-1-.67-1.49l-.17.06a.85.85,0,0,0-.37.44,1.65,1.65,0,0,0-.9,0c-.65.13-1,.57-.92,1s1.11,1.25,1.49,1.19a1.13,1.13,0,0,0,.91-1.08.8.8,0,0,0,.57-.07S118.94,39.65,119,39.63Z"/><path class="cls-2" d="M78,6.65a1,1,0,0,0,1.24.49.8.8,0,0,0,.43-1L79.64,6l-1.31-.33A1,1,0,0,0,78,6.65Z"/><path class="cls-2" d="M124.11,63.41a.41.41,0,0,0-.11.07,1,1,0,0,0,0,1.21l.06,0c0-.26,0-.51,0-.76S124.11,63.6,124.11,63.41Z"/><path class="cls-2" d="M64.76,12.81a1.66,1.66,0,0,0,.67.76,1.28,1.28,0,0,0,.32.45A1.64,1.64,0,0,0,68,13.6a1.16,1.16,0,0,0-.17-1.71,1.51,1.51,0,0,0-1.08-.41,1.06,1.06,0,0,0-1.32-.26A1.14,1.14,0,0,0,64.76,12.81Z"/><path class="cls-2" d="M72.54,5.73a.71.71,0,0,0,.18.5,1.36,1.36,0,0,0,1.38.1s0-.09.07-.14a1.47,1.47,0,0,0,.61-1.25c-.7-.13-1.41-.25-2.12-.35a.93.93,0,0,0-.26.93A.85.85,0,0,0,72.54,5.73Z"/><path class="cls-2" d="M120.74,44.25a.82.82,0,0,0,0,.35.63.63,0,0,0,.38.56c-.38-1.15-.8-2.28-1.24-3.4a1.45,1.45,0,0,0-.69,1.67A1.46,1.46,0,0,0,120.74,44.25Z"/><path class="cls-2" d="M114.8,43.88a2,2,0,0,0,0,.24,1.71,1.71,0,0,0,1.79,1.06c.79-.15,1.2-1,1-2a1.25,1.25,0,0,0-1.37-1.09,1.7,1.7,0,0,0-1.66-.38,1.47,1.47,0,0,0-.48,1.6A1.1,1.1,0,0,0,114.8,43.88Z"/><path class="cls-2" d="M65.34,5.9c.27.16.82.63,1.18.26s-.07-.94-.22-1.24-.66-.28-1,0S65,5.66,65.34,5.9Z"/><path class="cls-2" d="M118.18,47.84a.92.92,0,0,0,.45-1.3.79.79,0,0,0-1.16-.25c-.34.22-.71.46-.54.85C117.27,47.79,117.76,48,118.18,47.84Z"/><path class="cls-2" d="M74.62,13.2a.68.68,0,0,0,0,.19,2,2,0,0,0-1.46.54.84.84,0,0,0,.16,1.19,1.21,1.21,0,0,0,1.71.12,1.43,1.43,0,0,0,.34-1.13.8.8,0,0,0,.77-.42c.31-.51,0-.91-.39-1.34C75.24,12.48,74.64,12.51,74.62,13.2Z"/><path class="cls-2" d="M67.22,5.15a1.33,1.33,0,0,0,1.63.67,1,1,0,0,0,.36-.22,1,1,0,0,0,.2.33c.33.31,1.56.07,1.94-.39a1.2,1.2,0,0,0,0-1.11c-1.32-.16-2.65-.29-4-.36A1.53,1.53,0,0,0,67.22,5.15Z"/><path class="cls-2" d="M76.27,17.75a1.59,1.59,0,0,0-1.84-.34,1.52,1.52,0,0,0-.11,2,1.14,1.14,0,0,0,.84.32.78.78,0,0,0-.07.74.93.93,0,0,0,1.21.5.85.85,0,0,0,.49-1.19.84.84,0,0,0-.49-.45l.08,0A1.07,1.07,0,0,0,76.27,17.75Z"/><path class="cls-2" d="M122.25,49.06c-.17-.66-.36-1.32-.55-2a1.06,1.06,0,0,0-.28.39,1.23,1.23,0,0,0-.51.12s0,0-.07,0c-1.18.08-1.46.86-.84,2.23a1.5,1.5,0,0,1-.19.25.75.75,0,0,0-.11,1,.81.81,0,0,0,.84.43c.92,0,1.21-.32,1.14-1.24,0-.28,0-.54,0-.82a.58.58,0,0,0,.19,0A1,1,0,0,0,122.25,49.06Z"/><path class="cls-2" d="M116.18,34.74a.47.47,0,0,0,.19.28.79.79,0,0,0-.54.9.64.64,0,0,0,0,.07,1.82,1.82,0,0,0-.72,1.66,1.11,1.11,0,0,0,1.63.47.85.85,0,0,0,.51-.86,2.93,2.93,0,0,0,.62.08c-.53-1.06-1.08-2.1-1.67-3.11A2,2,0,0,0,116.18,34.74Z"/><path class="cls-2" d="M102.82,21c-.74.15-1,.48-.93,1,.15.73.68,1.15,1.26,1a1.85,1.85,0,0,0,.83-1.47C103.91,21,103.49,20.84,102.82,21Z"/><path class="cls-2" d="M113.64,33.71a.89.89,0,0,0-.91.71,1,1,0,0,0,.88,1.18,1.09,1.09,0,0,0,.85-1.3A.71.71,0,0,0,113.64,33.71Z"/><path class="cls-2" d="M100.31,20.4c.56.05,1.1.25,1.36-.34a.86.86,0,0,0-.29-1.1,1,1,0,0,0-.25-.15,1.36,1.36,0,0,0,0-.89,1.21,1.21,0,0,0-1.34-.12.64.64,0,0,0-.09,1,2.49,2.49,0,0,0,.53.51A1.43,1.43,0,0,0,100.31,20.4Z"/><path class="cls-2" d="M103.28,25.05a.64.64,0,0,0,1-.05,1.16,1.16,0,0,0,.21-1.52,1.35,1.35,0,0,0-1.55-.11C102.56,23.74,102.73,24.53,103.28,25.05Z"/><path class="cls-2" d="M52.93,6.91l-.35.17a.76.76,0,0,0-.52-.65c-.38-.16-.8-.11-1,.29a1.33,1.33,0,0,0,0,1,.66.66,0,0,0,.68.32,2.48,2.48,0,0,0,.46,1.87,1.72,1.72,0,0,0,.92.73,1.86,1.86,0,0,0,1.55-.21c.54-.29,1.15-.1,1.53-.59a2.59,2.59,0,0,0,.16-3.11,2.13,2.13,0,0,0-1.72-1C53.91,5.74,53.64,6.63,52.93,6.91Z"/><path class="cls-2" d="M71.17,12.66a.84.84,0,0,0-.23.74c.07.2.47.66.74.6s.37-.68.36-.92S71.43,12.44,71.17,12.66Z"/><path class="cls-2" d="M72.37,11.89a1.82,1.82,0,0,0,.94-1.62,1.45,1.45,0,0,0-.37-1.93,1.67,1.67,0,0,0-2.13,0,.9.9,0,0,0-1.12-.37.84.84,0,0,0-.34,1.16.71.71,0,0,0,1,.38A2.29,2.29,0,0,0,71,10.89a1.21,1.21,0,0,0,.26.2.54.54,0,0,1,0,.1C71.47,11.76,71.92,12,72.37,11.89Z"/><path class="cls-2" d="M75,28.13a.72.72,0,0,0,1.19.45.76.76,0,0,0-.52-1.21A.79.79,0,0,0,75,28.13Z"/><path class="cls-2" d="M77.54,22.51A1,1,0,0,0,77,22a1.57,1.57,0,0,0-2,.9c-.08.17-.15.34-.23.52-.33-.16-.63-.33-.94-.45a.83.83,0,0,0-1.21.46,1.3,1.3,0,0,0,.13,1.49,1,1,0,0,0,.93.38.74.74,0,0,0,.34.52c.52.21,1-.34,1-.64a.52.52,0,0,0-.16-.37,1.64,1.64,0,0,1,.22-.14c.16.07.33.16.5.22a1.72,1.72,0,0,0,1.85-.45A2,2,0,0,0,77.54,22.51Z"/><path class="cls-2" d="M70.68,17.27a1.24,1.24,0,0,0-.73-.33,1.74,1.74,0,0,0-.14-.12c-1.34-.1-.94-1-1.87-1.36a1.39,1.39,0,0,0-.45-.06,1.09,1.09,0,0,0-.88,1.77,7.33,7.33,0,0,0,1.22,1.33,1.3,1.3,0,0,0,.89.23.88.88,0,0,0,.14.23q.66.7,1.56-.15A1.33,1.33,0,0,0,70.68,17.27Z"/><path class="cls-2" d="M52.41,20a1.46,1.46,0,0,0,1.55-.2,1.13,1.13,0,0,0,.1-1.36,1.59,1.59,0,0,0,.84-1.85,1.64,1.64,0,0,0-1.34-1.13,1.23,1.23,0,0,0,.37-1c0-1.15-.68-1.82-1.4-1.84a1.91,1.91,0,0,0-1.44.92.8.8,0,0,0-1-.38.91.91,0,0,0-.46,1.12.86.86,0,0,0,1.07.56l.15-.07a1.58,1.58,0,0,0,1.3,1.06h.12a1.45,1.45,0,0,0-.22,1.63,1.88,1.88,0,0,0,.36.64.78.78,0,0,0-.53.32A1.13,1.13,0,0,0,52.41,20Z"/><path class="cls-2" d="M50.84,18.61A.92.92,0,0,0,49.68,18a.86.86,0,0,0-.39,1.15.81.81,0,0,0,1,.51A.77.77,0,0,0,50.84,18.61Z"/><path class="cls-2" d="M49.71,32.79a.44.44,0,0,0-.21.44c0,.15.36.2.54.19s.4-.26.33-.49S49.87,32.75,49.71,32.79Z"/><path class="cls-2" d="M24.9,24.12c-.22.1-.73.47-.53.94s.76.26.94.16a.82.82,0,0,0,.35-.68A.54.54,0,0,0,24.9,24.12Z"/><path class="cls-2" d="M77.5,10a1.56,1.56,0,0,0,.12-2.15,2.49,2.49,0,0,0-2.58,0A1.59,1.59,0,0,0,75.21,10,1.85,1.85,0,0,0,77.5,10Z"/><path class="cls-2" d="M79.9,23.79c0,.43.3.54,1.2.44a.76.76,0,0,0-.52-1.2A.78.78,0,0,0,79.9,23.79Z"/><path class="cls-2" d="M100.62,52a.64.64,0,0,0,.26-.49c0-.13-.42-.43-.55-.37s-.17.5-.13.68S100.56,52,100.62,52Z"/><path class="cls-2" d="M101.53,49.61v0c0,.07.17.17.28.12a.27.27,0,0,0,.13-.34.25.25,0,0,0-.24-.11,5.51,5.51,0,0,1,0-.61c.29-.74-.16-1.74-.81-1.82a1.26,1.26,0,0,0-1.31.7,1,1,0,0,0,.27,1.32c.33.28.84,1,1.43.81A.62.62,0,0,0,101.53,49.61Z"/><path class="cls-2" d="M95.3,23a1.47,1.47,0,0,0,1.82-.42c.42-.48.32-1-.22-1.53a2,2,0,0,0,0-.42c-.16-.65-.7-.9-1.53-.68a1.18,1.18,0,0,0-.77,1.21,1.59,1.59,0,0,0,.52.71A1.56,1.56,0,0,0,95.3,23Z"/><path class="cls-2" d="M99.57,57.75a.83.83,0,0,0,1.11.47.88.88,0,0,0,.46-1,.84.84,0,0,0-1.14-.42A.67.67,0,0,0,99.57,57.75Z"/><path class="cls-2" d="M86.86,22.53a.67.67,0,0,0,0-.24c-.09-.26-.51-.85-.74-.79,0,0,0,0,0,0a.72.72,0,0,1-.23-.28c-.19-.43-.5-.46-1-.38s-1.24.25-1.1.94.62.68.82.61.59.15.4.29-.23.44.11.93a.88.88,0,0,0,1.27.36A1.26,1.26,0,0,0,86.86,22.53Z"/><path class="cls-2" d="M86.18,33.92c-.1,0-.44.2-.4.43s.46.26.63.24a.45.45,0,0,0,.28-.4C86.66,34,86.36,33.93,86.18,33.92Z"/><path class="cls-2" d="M84.2,15.36a1.84,1.84,0,0,0,0-1.18,1.75,1.75,0,0,0-.92-1c-.1-.23-.33-.52-.51-.51a.24.24,0,0,0-.14.06,1.39,1.39,0,0,0-.93-.53,2.56,2.56,0,0,0-2.57,1.73,2.07,2.07,0,0,0,.21,2c.43.58,1.3.27,2,.66C82.87,17.51,83.77,16.49,84.2,15.36Z"/><path class="cls-2" d="M81.64,26.93c-.1.14-.28.34-.09.55a.31.31,0,0,0,.47,0c.11-.13.37-.46.2-.65S81.69,26.84,81.64,26.93Z"/><path class="cls-2" d="M89.84,29.11c.15,0,.56-.26.52-.46s-.48-.35-.63-.31l-.13.06a.52.52,0,0,0-.7-.15c-.5.31-1.15.5-1.39,1.19l.32.78c-.4.69-.46,1.45-.09,1.73a.8.8,0,0,0,1,0c.58-.42.64-.72.33-1.52.21-.49.43-.91.58-1.36A.54.54,0,0,0,89.84,29.11Z"/><path class="cls-2" d="M69.69,21.74a.25.25,0,0,0-.15.32.28.28,0,0,0,.33.12c.08,0,.12-.24.09-.31A.26.26,0,0,0,69.69,21.74Z"/><path class="cls-2" d="M32.13,21c.3.15,1.17-1.06,1.07-1.42s-1-.36-1.42.1S31.83,20.88,32.13,21Z"/><path class="cls-2" d="M40.11,34.31A2.38,2.38,0,0,0,41.18,32a1.63,1.63,0,0,0-2.09-.82,1.84,1.84,0,0,0-1,2.06A1.65,1.65,0,0,0,40.11,34.31Z"/><path class="cls-2" d="M38.17,23.32c.26.42.42,1,1.11.83a.81.81,0,0,0,.67-.91,1.1,1.1,0,0,0-.46-.67C39,22.33,38.71,22.54,38.17,23.32Z"/><path class="cls-2" d="M33.61,14.38c-.17-.36-.43-.58-.8-.48a4.87,4.87,0,0,0-2.5,1.37,1.5,1.5,0,0,0-.2.41c-.2,1,.48,1.65,1.41,1.39a7.11,7.11,0,0,0,1.64-.74A1.7,1.7,0,0,0,33.61,14.38Z"/><path class="cls-2" d="M38.59,18.38A.89.89,0,0,0,38,19.45a1,1,0,0,0,1.16.64.91.91,0,0,0-.58-1.71Z"/><path class="cls-2" d="M27.11,20.44a.85.85,0,0,0,.79.78c.52,0,.88-1.15.6-1.41S27.09,19.93,27.11,20.44Z"/><path class="cls-2" d="M28.88,17.52c-.08.19.18.44.33.5s.56,0,.63-.27-.3-.48-.44-.5A.6.6,0,0,0,28.88,17.52Z"/><path class="cls-2" d="M34.07,27.18a1.45,1.45,0,0,0,.76-1.8,1.55,1.55,0,0,0-2.08-1A1.26,1.26,0,0,0,31.89,26,2,2,0,0,0,34.07,27.18Z"/><path class="cls-2" d="M32.66,31.36c.18-.18-.09-.73-.23-.82a.69.69,0,0,0-.64.16.67.67,0,0,0,.09.65A.75.75,0,0,0,32.66,31.36Z"/><path class="cls-2" d="M42.15,21a1.17,1.17,0,0,0-.68,1.56c.16.52.79.72,1.52.49.57-.19.84-.64.66-1.11S42.55,20.84,42.15,21Z"/><path class="cls-2" d="M53.81,31.51c.18-.48.18-.3.7-.39s1.17-.53.73-1.35A1.73,1.73,0,0,0,53,29.21a2,2,0,0,0-.59,2.68C52.84,32.45,53.64,32,53.81,31.51Z"/><path class="cls-2" d="M56.69,5.63A.59.59,0,0,0,56.6,5c-.15-.11-.46-.32-.59-.15a.57.57,0,0,0,0,.59C56.1,5.6,56.56,5.8,56.69,5.63Z"/><path class="cls-2" d="M46.69,6.74l.17-.09a1.71,1.71,0,0,0-.07,1.47,1.51,1.51,0,0,0,.3.47,2.25,2.25,0,0,0-1.85,1.06A1.63,1.63,0,0,0,46,11.51c.45.29.88.47.87,1.15,0,.49.48.6,1,.56.41-.51.37-1-.08-1.28a8.74,8.74,0,0,0,.66-1.46A2,2,0,0,0,47.79,9a1.79,1.79,0,0,0,1.09-.2c1.09-.53,1.29-1,.95-1.95a1.51,1.51,0,0,0-.9-.9q-1.38.36-2.73.78A.65.65,0,0,0,46.69,6.74Z"/><path class="cls-2" d="M54.71,23.11a1.75,1.75,0,0,0-1.78.24c-.32.36-.69.71-.31,1.28.27.41.48.86.73,1.29a.72.72,0,0,0,.93.69A1,1,0,0,0,55,25.49a2.28,2.28,0,0,1,0-.94A1.25,1.25,0,0,0,54.71,23.11Z"/><path class="cls-2" d="M56.44,15.55A.89.89,0,0,0,57,14.46a.94.94,0,0,0-1.12-.53.74.74,0,0,0-.5,1A.83.83,0,0,0,56.44,15.55Z"/><path class="cls-2" d="M44,16.8a.85.85,0,0,0-1.15-.4h0a1.59,1.59,0,0,0-.27-.8,1.64,1.64,0,0,1-.37-1.13A1.76,1.76,0,0,0,41.33,13a1.52,1.52,0,0,0-1.7,0L39.5,13a1.45,1.45,0,0,0,0-1.08c-.2-.49-.83-.65-1.55-.38-.55.2-1,.88-.83,1.29a1.59,1.59,0,0,0,1.66.9.57.57,0,0,0,.23-.12,1.47,1.47,0,0,0,0,.73A2.76,2.76,0,0,0,40,16a1.19,1.19,0,0,1,.37.59,1.1,1.1,0,0,0,1.61.91.61.61,0,0,0,.05.33,1,1,0,0,0,1.22.28A1,1,0,0,0,44,16.8Z"/><path class="cls-2" d="M48.26,26.76a2.47,2.47,0,0,0,.48-.65.85.85,0,0,0-1.14-.46c-.36.18-.31.47-.21.76S48,27,48.26,26.76Z"/><path class="cls-2" d="M47.55,22.93a2.47,2.47,0,0,0,.48-.65.85.85,0,0,0-1.14-.46c-.36.18-.31.47-.21.76S47.24,23.18,47.55,22.93Z"/><path class="cls-2" d="M48,17.41a1.76,1.76,0,0,0,.71-1.95,1,1,0,0,0-1.38-.53,1.07,1.07,0,0,0-.69,1.6C46.84,17.19,47.49,17.61,48,17.41Z"/><path class="cls-2" d="M107.46,27a1.28,1.28,0,0,0,1-1.34,1.09,1.09,0,0,0-1-.89c-.87.11-1.48.63-1.39,1.2A1.43,1.43,0,0,0,107.46,27Z"/><path class="cls-2" d="M104.19,50.41a1.39,1.39,0,0,0,.52-1.39.87.87,0,0,0-1.18-.31.82.82,0,0,0-.3,1.17C103.47,50.39,103.86,50.6,104.19,50.41Z"/><path class="cls-2" d="M103.3,43.79a.84.84,0,0,0,.93.65.94.94,0,0,0,.77-1,.92.92,0,0,0-.92-.66A1.06,1.06,0,0,0,103.3,43.79Z"/><path class="cls-2" d="M103.79,33.44a1.63,1.63,0,0,0,1.49-1.55,1.74,1.74,0,0,0-.14-.4c.15.11.33.21.47.31a.34.34,0,0,0,.51-.06,1,1,0,0,0-.26-1.29.77.77,0,0,0-1.1.54,1.82,1.82,0,0,0-1.44-.65,1.64,1.64,0,0,0-1.23,1.78A1.6,1.6,0,0,0,103.79,33.44Z"/><path class="cls-2" d="M104.05,70.94a.51.51,0,0,0,.29-.81c-.15-.24-.7-.71-.91-.61s-.3.79-.28,1.08S103.61,71.1,104.05,70.94Z"/><path class="cls-2" d="M105.48,36.08c.24-.13.85-.5.77-.82s-.85-.35-1.09-.29-.32.47-.31.71A.43.43,0,0,0,105.48,36.08Z"/><path class="cls-2" d="M104.85,52.15a.9.9,0,0,0,.36-.35.37.37,0,0,0,.18,0,.89.89,0,0,0,.69-.92.76.76,0,0,0-.87-.68.86.86,0,0,0-.67.91.76.76,0,0,0,.11.33c-.16.1-.45.3-.35.48A.58.58,0,0,0,104.85,52.15Z"/><path class="cls-2" d="M107.7,62.16a.65.65,0,0,0,.26-.49c0-.13-.22-.47-.55-.38s-.17.51-.13.68S107.64,62.21,107.7,62.16Z"/><path class="cls-2" d="M94.29,42.42a.88.88,0,0,0-.3-1.1.66.66,0,0,0-.91,0c-.52.41-.39.9-.16,1.47C93.49,42.81,94,43,94.29,42.42Z"/><path class="cls-2" d="M106.24,58.1a.92.92,0,0,0,.46-1c-.13-.28-.67-.34-1.11-.13a.48.48,0,0,0-.25.73C105.53,58,105.8,58.27,106.24,58.1Z"/><path class="cls-2" d="M99.3,31.22a.85.85,0,0,0,.82-.72.75.75,0,0,0,.63-.24.62.62,0,0,0,0-.9.65.65,0,0,0-1-.12.71.71,0,0,0-.18.27,1.34,1.34,0,0,0-.84-.29A1,1,0,0,0,98,30.28,1.23,1.23,0,0,0,99.3,31.22Z"/><path class="cls-2" d="M96,28.38a.24.24,0,0,0,.2-.3.27.27,0,0,0-.31-.16c-.08,0-.15.22-.13.29S95.9,28.41,96,28.38Z"/><path class="cls-2" d="M95,17.83a1.49,1.49,0,0,0,.28,1.57,1,1,0,0,0,1.24-.11c.56-.67.66-1.35.24-1.71A1.49,1.49,0,0,0,95,17.83Z"/><path class="cls-2" d="M96.13,15.71a1.33,1.33,0,0,0,1.11-1.12,1.21,1.21,0,0,0,.37.54.63.63,0,0,0,.93-.28h0c-1.09-.76-2.2-1.51-3.34-2.2a1.78,1.78,0,0,0-1,1.8A1.86,1.86,0,0,0,96.13,15.71Z"/><path class="cls-2" d="M97.63,36.1a1.36,1.36,0,0,0,.93-1.68,1.42,1.42,0,0,0-1.65-.87,1.33,1.33,0,0,0,.72,2.55Z"/><path class="cls-2" d="M102.48,39.54c-.13-.28-.58-.94-.88-.86s-.44.83-.46,1.15.5.58.88.46S102.65,39.9,102.48,39.54Z"/><path class="cls-2" d="M102.68,37.34c-.05-.24-.84-.87-1.24-.7s-.26,1.21-.1,1.54a1,1,0,0,0,1,.4C102.78,38.41,102.77,37.71,102.68,37.34Z"/><path class="cls-2" d="M108.87,35.87a1.24,1.24,0,0,0,.73-1.45c-.17-.83-.55-1.17-1.17-1.06a1.48,1.48,0,0,0-.85.57.87.87,0,0,0,0-.22.86.86,0,1,0-1.6.63,1,1,0,0,0,1.19.39,1.77,1.77,0,0,0,.17-.12.79.79,0,0,0,0,.22A1.57,1.57,0,0,0,108.87,35.87Z"/><path class="cls-2" d="M97.75,42.83c.07,0,.34-.24.32-.32S98,42,97.67,42s-.36.4-.33.48A.78.78,0,0,0,97.75,42.83Z"/><path class="cls-2" d="M98.62,62.92c.22-.09.32-.69.24-.81s-.46-.48-.65-.43-.37.49-.33.69S98.4,63,98.62,62.92Z"/><path class="cls-2" d="M107.25,40.52c-.13-.35-1-.53-1.21-.32a1,1,0,0,0,0,.89.52.52,0,0,0,.8.33C107.13,41.22,107.42,41,107.25,40.52Z"/><path class="cls-2" d="M123.87,69.32h0l.06-.67A.79.79,0,0,0,123.87,69.32Z"/><path class="cls-2" d="M121.49,71.79c0,.57,0,1.16.72,1.22a.89.89,0,0,0,1-.58.64.64,0,0,0,0-.53,10.73,10.73,0,0,0-1-.86c0-1.06-.39-1.79-1-1.81a1.77,1.77,0,0,0-1.45,1.5C119.68,71.46,120,71.68,121.49,71.79Z"/><path class="cls-2" d="M120.38,67a1.83,1.83,0,0,0,.47-1.62c-.17-.45-.63-.54-1.25-.25s-.9.71-.67,1.2C119.24,67,119.86,67.32,120.38,67Z"/><path class="cls-2" d="M119.16,74.89a1.41,1.41,0,0,0-1.6-.77,1,1,0,0,0-.55,1.21,1.23,1.23,0,0,0,1.53.61A.85.85,0,0,0,119.16,74.89Z"/><path class="cls-2" d="M81.63,10.26a1.55,1.55,0,0,0,1.74-1,1.61,1.61,0,0,0-.67-1.38,1.83,1.83,0,0,0,0-.4.51.51,0,0,0-.76-.39c-.27.13-.51.3-.54.58a1.49,1.49,0,0,0-1,1C80.09,9.24,80.81,10,81.63,10.26Z"/><path class="cls-2" d="M119.43,86.78c-.28.06-.25.47-.2.54a.5.5,0,0,0,.13.12c.09-.22.17-.43.26-.64A.3.3,0,0,0,119.43,86.78Z"/><path class="cls-2" d="M122.25,74.15a1.65,1.65,0,0,0-.79,2,1.69,1.69,0,0,0,1.2,1c.22-1,.41-2,.58-2.93A1.37,1.37,0,0,0,122.25,74.15Z"/><path class="cls-2" d="M107,81.74c-.06-.15-.38-.18-.55-.15s-.39.29-.3.52.51.14.67.08A.42.42,0,0,0,107,81.74Z"/><path class="cls-2" d="M118,81.07a1.35,1.35,0,0,0,.52-1.85,1.43,1.43,0,0,0-1.81-.47A1.33,1.33,0,0,0,118,81.07Z"/><path class="cls-2" d="M114.93,71.21a1,1,0,0,0,.43-1.15,1,1,0,0,0-1.26-.4.79.79,0,0,0-.36,1A.86.86,0,0,0,114.93,71.21Z"/><path class="cls-2" d="M116.25,88a.88.88,0,0,0-.55-1,.65.65,0,0,0-.89.18c-.41.52-.17,1,.18,1.47C115.56,88.55,116.13,88.63,116.25,88Z"/><path class="cls-2" d="M110.24,56.3a.69.69,0,0,0,.45-1,.76.76,0,0,0-.93-.42c-.35.09-.63,1-.37,1.21A1,1,0,0,0,110.24,56.3Z"/><path class="cls-2" d="M111.87,61.58c.79-.3,1-1.22.64-2.21a1.41,1.41,0,0,0-1.92-.78,1.76,1.76,0,0,0-.86,2.19A1.85,1.85,0,0,0,111.87,61.58Z"/><path class="cls-2" d="M110,48.6a1.29,1.29,0,0,0,.77.07,1.2,1.2,0,0,0,.8-1.41c-.13-.61-.47-.88-1-.79a1.77,1.77,0,0,0-.42.15.91.91,0,0,0-.77,0,1.56,1.56,0,0,0-.72,1.65C108.82,48.55,109.45,48.7,110,48.6Z"/><path class="cls-2" d="M109.85,52c-.22.19-.47.41-.43.68s.81.59,1.17.38.27-.49.15-.77S110.14,51.7,109.85,52Z"/><path class="cls-2" d="M108.85,76.07c.14,0,.48-.38.39-.58s-.55-.22-.68-.15a.48.48,0,0,0-.25.52A.5.5,0,0,0,108.85,76.07Z"/><path class="cls-2" d="M111.66,72.14c.31-.2.55-.5.3-.82s-.77-.75-1.07-.62-.16,1-.06,1.24S111.29,72.39,111.66,72.14Z"/><path class="cls-2" d="M114.68,73.94a.25.25,0,0,0,.13-.34.28.28,0,0,0-.34-.09c-.07,0-.1.25-.06.31A.26.26,0,0,0,114.68,73.94Z"/><path class="cls-2" d="M113.43,68.08a1.47,1.47,0,0,0,.3-1.84c-.31-.61-.89-.72-1.64-.32a1.18,1.18,0,0,0-.48,1.36C111.85,67.77,113.05,68.29,113.43,68.08Z"/><path class="cls-2" d="M65.27,29.18c.31-.09.24-1,.14-1.05-.29-.23-.62-.61-1-.49s-.3.63-.2.77S65,29.28,65.27,29.18Z"/><path class="cls-2" d="M115.83,67.13a.87.87,0,0,0,.16-.79c-.08-.18-.66-.51-.87-.4s-.26.84-.16.93S115.66,67.29,115.83,67.13Z"/><path class="cls-2" d="M118.11,60.64a1.6,1.6,0,0,0-.63-1.83c-.51-.34-1.38.19-1.88.9a1.54,1.54,0,0,0,.54,1.93A1.61,1.61,0,0,0,118.11,60.64Z"/><path class="cls-2" d="M114.51,58.9a.93.93,0,0,0,.59-.55c.11-.59-.39-.71-.82-.85-.45.3-.7.66-.41,1.14A.7.7,0,0,0,114.51,58.9Z"/><path class="cls-2" d="M114.7,49a1.27,1.27,0,0,0-.3-1c-.5-.44-.86.06-1.31.37.15.64.35,1.14,1,1.11C114.32,49.46,114.69,49.17,114.7,49Z"/><path class="cls-2" d="M118.44,55.36a14.48,14.48,0,0,0-1.37-1.22.76.76,0,0,0-1.11.19.8.8,0,0,0,.1,1.12,2.51,2.51,0,0,1,.46.61,1.25,1.25,0,0,0,1.46.75C118.61,56.68,118.84,56.22,118.44,55.36Z"/><path class="cls-2" d="M122.61,51.28a1.46,1.46,0,0,1-1.34.85,1.36,1.36,0,0,0-.88,1.3,1.8,1.8,0,0,0,1.52,1c.4,0,1-.06,1-.57a1.53,1.53,0,0,1,.23-.69c-.13-.68-.26-1.35-.4-2A.3.3,0,0,0,122.61,51.28Z"/><path class="cls-2" d="M119.2,53.65a.68.68,0,0,0,.24-.21h.1c.25-.1.58-.49.55-.7s-.19-.32-.34-.45a.6.6,0,0,0-.08-.2,1.57,1.57,0,0,0-1.65-.37.8.8,0,0,0-.31,1.16C118.13,53.69,118.6,53.94,119.2,53.65Z"/><path class="cls-2" d="M112.57,56.64a1.31,1.31,0,0,0,.91-.49.4.4,0,0,0-.17-.61.91.91,0,0,0-.72.15c-.22.12-.47.18-.58.43S112.2,56.66,112.57,56.64Z"/><path class="cls-2" d="M118.27,64.53a.89.89,0,0,0-.54-1,.67.67,0,0,0-.9.19c-.4.52-.16,1,.19,1.47C117.58,65.09,118.15,65.17,118.27,64.53Z"/><path class="cls-2" d="M112.54,53.07a.54.54,0,0,0-.28.6.46.46,0,0,0,.51.37.5.5,0,1,0-.23-1Z"/><path class="cls-2" d="M99.74,24a1.78,1.78,0,0,1,1.12-.39c.19,0,.43-.44.44-.68a1,1,0,0,0-.4-.73.82.82,0,0,0-.71.12,7.45,7.45,0,0,0-1,.9c-.26.27-.19.54.12.81C99.46,24,99.66,24.09,99.74,24Z"/><path class="cls-2" d="M105.42,20.47c-.85-.81-1.72-1.59-2.62-2.35a.68.68,0,0,0,0,.14c-.06.83.42,1.67,1.13,1.49a2,2,0,0,0,.27.34A1.46,1.46,0,0,0,105.42,20.47Z"/><path class="cls-2" d="M101.35,16.94c-.49-.39-1-.79-1.49-1.16a1.33,1.33,0,0,0,.41,1A1.51,1.51,0,0,0,101.35,16.94Z"/><path class="cls-2" d="M88,9h.07l-.72-.32A.79.79,0,0,0,88,9Z"/><path class="cls-2" d="M123.63,56.42l-.12.11,0,0,.21.47C123.68,56.78,123.66,56.6,123.63,56.42Z"/><path class="cls-2" d="M111.41,29.17a2.06,2.06,0,0,0,.76,2.17,2,2,0,0,0,2.13-.26,60.92,60.92,0,0,0-3.82-5.2l-.29.11a1.17,1.17,0,0,0-.48,1.89A9.64,9.64,0,0,0,111.41,29.17Z"/><path class="cls-2" d="M111.52,36.27a.87.87,0,0,0,.51-1.11.67.67,0,0,0-1-.46.82.82,0,1,0,.46,1.57Z"/><path class="cls-2" d="M108.51,29.93c.22,0,.5-.32.6-.55a.73.73,0,0,0-.18-.66c-.44-.33-.84-.14-1.2.29C107.84,29.45,107.92,30,108.51,29.93Z"/><path class="cls-2" d="M110.07,25.4c-.86-1-1.75-2-2.67-3a3,3,0,0,0-.08.32,2.68,2.68,0,0,0,.26,1.16,2.31,2.31,0,0,0,.47.62,7.43,7.43,0,0,0,.59.53A1.28,1.28,0,0,0,110.07,25.4Z"/><path class="cls-2" d="M45.25,28.46c.14-.06.35-.3.29-.5a.5.5,0,0,0-.52-.25c-.15,0-.51.35-.44.55S45.11,28.52,45.25,28.46Z"/><path class="cls-2" d="M64.2,16.59c.33-.33-.06-1.34-.43-1.33s-.9.88-.59,1.23A.81.81,0,0,0,64.2,16.59Z"/><path class="cls-2" d="M66.37,24.72a1.66,1.66,0,0,0,.8-1.93,1.2,1.2,0,0,0-1.57-.45A1.12,1.12,0,0,0,65,23.93C65.24,24.61,65.86,25,66.37,24.72Z"/><path class="cls-2" d="M62,22.82a.81.81,0,0,0,.57-1.05.84.84,0,0,0-1.07-.55,1,1,0,0,0-.59,1.09A.84.84,0,0,0,62,22.82Z"/><path class="cls-2" d="M63.37,9.91A.8.8,0,0,0,62.82,9c-.67-.23-.91.3-1.16.77l-.88-.22c0-.08,0-.16,0-.24a1.84,1.84,0,0,0,.38-.26c.54-.45,1.09-.87,1.63-1.3.87.93,1,.93,1.64,0a1.21,1.21,0,0,0,.77,0,.76.76,0,0,0,.45-1A1.15,1.15,0,0,0,64.38,6a.94.94,0,0,0-.66,1.13,1.23,1.23,0,0,0-.52.07c-.82-1.37-1.74-1.27-2.58.2a1.82,1.82,0,0,1-.33,0,.65.65,0,0,0-.75.27,1.47,1.47,0,0,0-.85.28,1.26,1.26,0,0,0,.23,1.55c.14.18.3.33.45.5a3,3,0,0,0-.26,1.57,3.9,3.9,0,0,0-.35.19,1.56,1.56,0,0,0-.25,2,1.6,1.6,0,0,0,2.2-.16,1.71,1.71,0,0,0,.39-1.23l.22-.06c.87-.27,1-.95.92-1.73C62.72,10.5,63.31,10.63,63.37,9.91Z"/><path class="cls-2" d="M66,22.06c.4-.34.29-1.14-.23-1.72a1,1,0,0,0-1.25,0,1.21,1.21,0,0,0-.19,1.53A1.4,1.4,0,0,0,66,22.06Z"/><path class="cls-2" d="M91.77,24.3a.82.82,0,0,0,.28-.7,1.33,1.33,0,0,0-.09-.81,1.76,1.76,0,0,0-1.28-.89,1.32,1.32,0,0,0-1.26.62,1.14,1.14,0,0,0,0,1.16,1.38,1.38,0,0,0,1,.74C91,24.4,91.49,24.59,91.77,24.3Z"/><path class="cls-2" d="M88,11.39a1.68,1.68,0,0,0-1-.81.93.93,0,0,0-.91-.32c-.25.08-.35.39-.38.7a1.61,1.61,0,0,0-.49,2.09,2,2,0,0,0,2.4.34A1.52,1.52,0,0,0,88,11.39Z"/><path class="cls-2" d="M78.23,18.25c.59.22,1-.16,1.26-.69-.17-.47-.38-.94-1-.91a.76.76,0,0,0-.75.83A1,1,0,0,0,78.23,18.25Z"/><path class="cls-2" d="M77.77,12.45a.84.84,0,0,0-1-.56A.86.86,0,0,0,76.21,13a.67.67,0,0,0,.93.54A.83.83,0,0,0,77.77,12.45Z"/><path class="cls-2" d="M60.06,30c.21-.06.2-.49.18-.67s-.25-.28-.4-.21a.6.6,0,0,0-.31.47C59.55,29.75,59.85,30.1,60.06,30Z"/><path class="cls-2" d="M59.73,5.69a1.79,1.79,0,0,0,2.41-.42A1.94,1.94,0,0,0,62.49,4c-1.14,0-2.28.09-3.4.18A1.9,1.9,0,0,0,59.73,5.69Z"/><path class="cls-2" d="M41.86,9C42.6,8.75,43,8.29,43,7.81c-.69.26-1.38.53-2.06.81A.7.7,0,0,0,41.86,9Z"/><path class="cls-2" d="M92.63,33.53c.41-.37.48-1.15.12-1.39s-1.61.42-1.64.92S92.22,33.9,92.63,33.53Z"/><path class="cls-2" d="M43,10.71a1,1,0,0,0,.51-1.19,1,1,0,0,0-1.24-.44.88.88,0,0,0-.48,1.11A1,1,0,0,0,43,10.71Z"/><path class="cls-2" d="M58.52,24.61a.57.57,0,0,0,.53-.71c-.09-.4-.59-.78-.9-.58s-.82.62-.65,1S58.26,24.64,58.52,24.61Z"/><path class="cls-2" d="M36.67,18.56a1,1,0,0,0,.86-.29,1,1,0,0,0-.46-1.47.88.88,0,0,0-1.07,1A1.16,1.16,0,0,0,36.67,18.56Z"/><path class="cls-2" d="M58.35,9.17c.19-.19.15-.62.18-.84-.46-.44-.79-.32-1-.08s-.39.65,0,.88A1,1,0,0,0,58.35,9.17Z"/><path class="cls-2" d="M59.65,19.71a.85.85,0,0,0-1.17-.52,1,1,0,0,0-.39,1.27.93.93,0,0,0,1.16.39A.84.84,0,0,0,59.65,19.71Z"/><path class="cls-2" d="M60.71,15.81a.54.54,0,0,0,.12.09,1,1,0,0,0,.82.09c.59-.32.51-.85.22-1.48a2.9,2.9,0,0,0-.88,0l-.11,0a.69.69,0,0,0-.6.27,1.08,1.08,0,0,0,.08.89A.5.5,0,0,0,60.71,15.81Z"/><path class="cls-3" d="M63.67,8.28A15,15,0,0,0,59,10.75l-4.66,3.07c-1.61,1.07-3.19,2.18-4.79,3.26s-3.07,2.75-4.79,4C41,23.73,36.89,26,33,28.48c-4.32,2.78-8.54,5.74-12.92,8.42-2.8,1.72-5.55,3.5-8.3,5.31-1.46,1-3,1.88-4.36,3a25.61,25.61,0,0,0-4,3.43c-.92,1.1-.08,3.14,1.52,2.61,3-1,5.7-3,8.26-4.81,2.37-1.64,4.75-3.25,7.07-4.95,4.33-3.18,8.81-6.12,13.21-9.19q5.73-4,11.37-8.11c.86-.62,1.75-1.18,2.66-1.73s2-.77,3-1.34c1.66-1,3.24-2.2,4.85-3.29s3.46-2.46,5.18-3.71S64,11.72,65,10a1.21,1.21,0,0,0-1.35-1.75Z"/><path class="cls-3" d="M66.67,13.79a8.17,8.17,0,0,1,.15-1.9c.08-.68.17-1.35.25-2s.12-1.23.16-1.85a1.78,1.78,0,0,0-1.74-1.75c-1.62-.17-3.24-.32-4.87-.36h-.16L60,5.81l-1-.17c-.83-.14-1.65-.24-2.49-.32a17.52,17.52,0,0,0-3.61-.18c-1,.13-2.64.18-3.1,1.24h0a1.55,1.55,0,0,0-.25.83,1.62,1.62,0,0,0,.2.76l.05.09a.86.86,0,0,0,.07.1,3.72,3.72,0,0,0,2.11,1.14,16.07,16.07,0,0,0,3.85.37c1.41,0,2.79,0,4.19-.09,1.22-.05,2.45.17,3.67.18h.16v.12c0,.64.08,1.29.11,1.93a7.83,7.83,0,0,1,0,1.81A3.8,3.8,0,0,0,63.21,16c0,.77-.09,1.54-.1,2.31s0,1.45,0,2.17a12.8,12.8,0,0,0,.27,2.13c.25,1.6,2.54,1.31,3,0a19.54,19.54,0,0,0,.73-4.3C67.2,16.88,67.5,15,66.67,13.79Z"/><path class="cls-3" d="M124,80.7a17,17,0,0,0-4.85,2.88c-1.57,1.14-3.16,2.26-4.74,3.39s-3.38,2.48-5.08,3.71c-1.93,1.4-3.26,3.09-5.16,4.48-4,2.93-8.32,5.51-12.44,8.29-4.61,3.09-9.12,6.33-13.82,9.28-2.88,1.82-5.72,3.71-8.56,5.6-1.49,1-3,2-4.41,3a28.73,28.73,0,0,0-4.09,3.45c-.94,1.08-.06,3.16,1.52,2.6,3-1.05,5.76-3.08,8.34-4.88s4.91-3.37,7.3-5.14c4.57-3.41,9.29-6.61,13.91-10,4.12-3,8.18-6,12.22-9.08.92-.71,1.87-1.36,2.84-2s2.15-1,3.16-1.59c1.78-1.13,3.46-2.52,5.16-3.77,1.88-1.38,3.71-2.83,5.55-4.27,1.58-1.24,3.46-2.55,4.49-4.29A1.21,1.21,0,0,0,124,80.7Z"/><path class="cls-3" d="M127.58,80.44a1.76,1.76,0,0,0-1.74-1.74c-1.75-.06-3.48-.06-5.22,0-1.51,0-3-.27-4.54-.3a22.07,22.07,0,0,0-4.3.11c-1,.18-2.26.34-2.76,1.29l0,0a1.84,1.84,0,0,0,0,1.68h0a1.61,1.61,0,0,0,.21.3l.15.14a4.2,4.2,0,0,0,2,.75,18.7,18.7,0,0,0,4.1.14c1.52-.06,3-.24,4.53-.38,1.28-.11,2.58,0,3.87-.06h.23a26.55,26.55,0,0,1,0,4.28,3.43,3.43,0,0,0-.39.6,4.28,4.28,0,0,0-.31,1.8c0,.82-.1,1.65-.1,2.48s0,1.49,0,2.24a12.64,12.64,0,0,0,.33,2.29,1.55,1.55,0,0,0,3,0,15.23,15.23,0,0,0,.42-2.2c.07-.78.15-1.56.21-2.33s.08-1.59.11-2.38a4,4,0,0,0-.46-2.29A56.88,56.88,0,0,1,127.58,80.44Z"/><path class="cls-4" d="M85.62,110.08H43.46s11-12.4,11-35.31,20.16-22.85,20.16,0S85.62,110.08,85.62,110.08Z"/><path class="cls-5" d="M51.5,97.87c-.23,0-.26.34-.23.4a.56.56,0,0,0,.35.27c.06,0,.26-.21.24-.27S51.74,97.86,51.5,97.87Z"/><path class="cls-5" d="M53.86,97c-.24.09-.3.69-.29.95s.43.44.72.32.49-.35.33-.63S54.1,96.93,53.86,97Z"/><path class="cls-5" d="M75,94.79a.75.75,0,0,0,1-.31.74.74,0,0,0-.28-.93.77.77,0,0,0-.94.31A.68.68,0,0,0,75,94.79Z"/><path class="cls-5" d="M56.25,93.19a.43.43,0,0,0-.11-.56h-4a1.06,1.06,0,0,0,0,.47,1.29,1.29,0,0,0,1.44,1,1.59,1.59,0,0,0,.9-.59,1,1,0,0,0,.46.08C55.32,93.51,56,93.66,56.25,93.19Z"/><path class="cls-5" d="M75.79,92.63H74.9A.85.85,0,0,0,75.79,92.63Z"/><path class="cls-5" d="M71.67,92.63h-.46A.72.72,0,0,0,71.67,92.63Z"/><path class="cls-5" d="M55.83,94c-.13,0-.23.39-.2.58s.26.45.52.28.65-.45.57-.7S56,93.89,55.83,94Z"/><path class="cls-5" d="M59.35,93.24a1.3,1.3,0,0,0-.34-.61H58a1.12,1.12,0,0,0-.51,1.08,1.28,1.28,0,0,0,1.32.74A1,1,0,0,0,59.35,93.24Z"/><path class="cls-5" d="M58.72,95.36c-.38,0-.58.53-.44.94a.62.62,0,0,0,.82.34.83.83,0,0,0,.38-1.06A2.06,2.06,0,0,0,58.72,95.36Z"/><path class="cls-5" d="M56.85,97.87a.85.85,0,0,0-.56.83.67.67,0,0,0,.78.46.76.76,0,0,0,.56-.82A.74.74,0,0,0,56.85,97.87Z"/><path class="cls-5" d="M56.6,100.94a1,1,0,0,0-1,.64.78.78,0,0,0,.3,1c.28.2.73.78,1.19.56s.21-.6.28-.83C57.54,101.73,57.12,101,56.6,100.94Z"/><path class="cls-5" d="M77.05,92.66a1.53,1.53,0,0,0-.13.56.38.38,0,0,0,.41.37C77.24,93.29,77.14,93,77.05,92.66Z"/><path class="cls-5" d="M68.28,99c-.29,0-.46.33-.38.68s.33.55.65.38.78-.3.67-.7S68.55,99,68.28,99Z"/><path class="cls-5" d="M60.8,102.56a.7.7,0,0,0-.48.77.58.58,0,0,0,.72.5.7.7,0,0,0,.49-.77A.61.61,0,0,0,60.8,102.56Z"/><path class="cls-5" d="M69.37,96.32a.95.95,0,0,0-1.76.64,1.17,1.17,0,0,0,1.22.85C69.18,97.71,69.52,96.77,69.37,96.32Z"/><path class="cls-5" d="M77.56,94.33a.76.76,0,0,0,.08.58c.08.15.16.27.23.39C77.77,95,77.66,94.66,77.56,94.33Z"/><path class="cls-5" d="M76.54,95.63a.6.6,0,0,0,.26.85.83.83,0,0,0,.72,0c.39-.31.29-.74,0-1.15C77.18,95.26,76.77,95.21,76.54,95.63Z"/><path class="cls-5" d="M67.48,92.76a.42.42,0,0,0,.55.44.61.61,0,0,0,.42-.25.59.59,0,0,0,.46-.25s0,0,0-.07H67.48A.56.56,0,0,0,67.48,92.76Z"/><path class="cls-5" d="M61.75,97.88A.68.68,0,0,0,62.1,97a1,1,0,0,0-1.16-.5,1,1,0,0,0-.1,1.24A.68.68,0,0,0,61.75,97.88Z"/><path class="cls-5" d="M71.48,94.4a1.23,1.23,0,0,0,0-1.6.88.88,0,0,0-.35-.17h-.69a1.1,1.1,0,0,0-.7.47,1.29,1.29,0,0,0,0,1.55C70.14,95,70.92,94.83,71.48,94.4Z"/><path class="cls-5" d="M60.88,93a.82.82,0,0,0,.77.89.88.88,0,0,0,.61-1.09.67.67,0,0,0-.09-.19h-1.1A.66.66,0,0,0,60.88,93Z"/><path class="cls-5" d="M62.91,93.92a.78.78,0,0,0-.42.89.68.68,0,0,0,.85.47.75.75,0,0,0,.44-.94A.74.74,0,0,0,62.91,93.92Z"/><path class="cls-5" d="M74.94,101.12a.83.83,0,0,0,0-.22.85.85,0,0,0-1.07-.55c-.53.11-1.08.72-1,1.12a1.2,1.2,0,0,0,1.3.89,1,1,0,0,0,.72-.71.37.37,0,0,0,.24.21c.24.09.75.37,1,0s-.22-.72-.38-.93S75.14,100.83,74.94,101.12Z"/><path class="cls-5" d="M75.35,109.35c-.09.09,0,.37.11.45s.47.14.56,0-.1-.47-.21-.53A.51.51,0,0,0,75.35,109.35Z"/><path class="cls-5" d="M74.47,104.59a.53.53,0,0,0-.27.38c0,.13.28.25.4.23s.43-.25.39-.4S74.58,104.55,74.47,104.59Z"/><path class="cls-5" d="M75.84,96.49a.79.79,0,0,0-1,0,2.34,2.34,0,0,0-.5-1,1.35,1.35,0,0,0-.79-.51,1.11,1.11,0,0,0-.6,0,1.11,1.11,0,0,0-.47-1c-.21-.1-.92.24-1,.77a.66.66,0,0,0,.46.71c-.31.09-.62.13-.81.43a2.28,2.28,0,0,0-.33.9,1,1,0,0,0-1.1.35,1.06,1.06,0,0,0,.47,1.24.89.89,0,0,0,1-.13,1,1,0,0,0,.09.13,1.93,1.93,0,0,0,.91.61,1.4,1.4,0,0,0,.52,1.42,1.21,1.21,0,0,0,1.66-.62,1,1,0,0,0-.32-1.48,1.2,1.2,0,0,0-.31-.13A1.24,1.24,0,0,1,74,97.9a1.77,1.77,0,0,0,.66-.55,1.3,1.3,0,0,0,.29.77,1,1,0,0,0,1.37-.45C76.58,97.26,76.4,96.83,75.84,96.49Z"/><path class="cls-5" d="M72,107.19a.6.6,0,0,0,.39.74.83.83,0,0,0,.66-.07c.41-.35.27-.75-.06-1.19C72.58,106.73,72.14,106.68,72,107.19Z"/><path class="cls-5" d="M76,103.57a.71.71,0,0,0-1.1-.24c-.87-.94-1.57-.71-2,.58a1.19,1.19,0,0,1-.26,0c-.38,0-.53.22-.62.54a.63.63,0,0,0,.26.71c.55.5.89.48,1.35-.11.35-.43.72-.86,1.07-1.28C75.5,104.41,75.61,104.38,76,103.57Z"/><path class="cls-5" d="M84.21,109a.64.64,0,0,0-.41.71c.09.33.33.37,1,.15A.61.61,0,0,0,84.21,109Z"/><path class="cls-5" d="M71.37,105a.58.58,0,0,0-.63-.07l-.1,0c-.24.35-.58.65-.28,1.08a.59.59,0,0,0,.8.21.81.81,0,0,0,.4-.53.59.59,0,0,0-.17-.47A1.5,1.5,0,0,1,71.37,105Z"/><path class="cls-5" d="M77.68,103.28a.76.76,0,0,0,.57-.35,1.59,1.59,0,0,0,.5,1.25c.43.39,1.07,0,1.64.21a1.41,1.41,0,0,0,1.39-.11c-.56-1-1.13-2.14-1.71-3.4H80a2.17,2.17,0,0,0-1.51,1c0-.11,0-.23,0-.34a3,3,0,0,0,.36-.26,1.36,1.36,0,0,0,.46-1.45A1.54,1.54,0,0,0,78.21,99a.58.58,0,0,0-.13-.14.94.94,0,0,0-1.35.19,1.18,1.18,0,0,0,.2,1.48.42.42,0,0,0,.16,0,1.54,1.54,0,0,0,.15.32c.08.12.17.24.25.37-.24.16-.48.3-.69.46a.66.66,0,0,0-.19,1A1,1,0,0,0,77.68,103.28Z"/><path class="cls-5" d="M81.84,107.76a1.25,1.25,0,0,0-1.44,1c0,.14-.07.29-.1.44-.28-.07-.54-.15-.81-.19a.65.65,0,0,0-.87.55,1.13,1.13,0,0,0,0,.48h3.48a1,1,0,0,0,.49-.48,1.58,1.58,0,0,0-.2-1.54A.79.79,0,0,0,81.84,107.76Z"/><path class="cls-5" d="M78.49,105.94a1.25,1.25,0,0,0-1.5,0,1.21,1.21,0,0,0,.23,1.56,1.24,1.24,0,0,0,1.59-.43A.85.85,0,0,0,78.49,105.94Z"/><path class="cls-5" d="M64.33,102.32a.42.42,0,0,0-.19.49.37.37,0,0,0,.43.27.39.39,0,0,0,.3-.53A.38.38,0,0,0,64.33,102.32Z"/><path class="cls-5" d="M66,103.37c-.14,0-.41.18-.35.33a.46.46,0,0,0,.4.26c.13,0,.46-.25.39-.41A.42.42,0,0,0,66,103.37Z"/><path class="cls-5" d="M70.47,102.25a.46.46,0,0,0,.09.46c.1.08.49.17.56,0s-.08-.41-.16-.45S70.54,102.1,70.47,102.25Z"/><path class="cls-5" d="M65.72,97.6a1,1,0,0,0,.6-1.3c-.13-.47-.56-.63-1.2-.45s-.79.51-.67.89S65.42,97.68,65.72,97.6Z"/><path class="cls-5" d="M62.3,99.45c-.6.15-1.07.79-.93,1.25a1.07,1.07,0,0,0,1.24.49,1,1,0,0,0,.54-1.18C63,99.54,62.72,99.34,62.3,99.45Z"/><path class="cls-5" d="M63.47,104.7c-.27,0-.19.38-.18.52s.25.23.3.2.28-.23.28-.35S63.75,104.67,63.47,104.7Z"/><path class="cls-5" d="M65.18,98.33a1.24,1.24,0,1,0,.62,2.41c.62-.16.9-.85.68-1.64A1,1,0,0,0,65.18,98.33Z"/><path class="cls-5" d="M68.27,104.89c-.5.13-.55.41-.48.68s.28.54.58.39.44-.43.4-.59S68.41,105,68.27,104.89Z"/><path class="cls-5" d="M64.53,92.63a1,1,0,0,0,.6.8.78.78,0,0,0-.54.91c0,.35-.06,1.07.41,1.26s.57-.26.79-.37c.58-.28.86-1.11.52-1.51l-.14-.12c.55,0,.85-.3,1.17-1Z"/><path class="cls-5" d="M69.68,101.71c.76-.16,1-.26.88-.65a.41.41,0,0,0,.2-.19.37.37,0,0,0-.19-.55.41.41,0,0,0-.49.2.08.08,0,0,0,0,0c-.32,0-.51.28-.61.67a1.34,1.34,0,0,0-1.1.37.34.34,0,0,0-.11-.3c-.21-.18-.41.12-.51.22s0,.34.06.36a.55.55,0,0,0,.44,0,1.69,1.69,0,0,0,.29,1.24,1,1,0,0,1-.14.22c-.27.27-.2.54,0,.83a.63.63,0,0,0,.69.29c.74-.06,1-.33.85-1.06C69.81,102.81,69.75,102.26,69.68,101.71Z"/><path class="cls-5" d="M68,97.9a.69.69,0,0,0-.89.17.58.58,0,0,0,.13.87.71.71,0,0,0,.9-.17A.6.6,0,0,0,68,97.9Z"/><rect class="cls-6" x="21.77" y="36.59" width="85.53" height="56.03"/><rect class="cls-4" x="32.03" y="68.51" width="15.31" height="17.04"/><rect class="cls-4" x="57.19" y="60.66" width="15.31" height="24.89"/><rect class="cls-4" x="82.35" y="49.6" width="15.31" height="35.95"/><path class="cls-5" d="M70.78,76.29c.21-.09.42-.12.48-.23a.4.4,0,0,0-.13-.4.46.46,0,0,0-.44.09C70.63,75.84,70.73,76.05,70.78,76.29Z"/><path class="cls-5" d="M84.18,74a.65.65,0,0,0-.76-.47.62.62,0,0,0-.52.79.74.74,0,0,0,.89.57A.7.7,0,0,0,84.18,74Z"/><path class="cls-5" d="M65.79,81.57a.63.63,0,0,0,.2.87.48.48,0,0,0,.75-.2,1.73,1.73,0,0,0,0-.69C66.3,81.27,66,81.31,65.79,81.57Z"/><path class="cls-5" d="M82.57,78.17a.8.8,0,0,0,1.06.52.86.86,0,0,0,.66-1.24c-.16-.54-.65-.91-1-.79A1.41,1.41,0,0,0,82.57,78.17Z"/><path class="cls-5" d="M83.78,76.48c0,.06,0,.19,0,.24a.19.19,0,0,0,.28-.07.21.21,0,0,0-.09-.26C84,76.35,83.8,76.43,83.78,76.48Z"/><path class="cls-5" d="M65.07,82.22c-.18.14-.17.45-.14.69a.41.41,0,0,0,.59.36c.29-.11.54-.27.47-.65S65.25,82.07,65.07,82.22Z"/><path class="cls-5" d="M70.56,85.48c.21-.36.13-.73.24-.78s.83-.19.74-.7c-.2-1.09-1.12-.66-1.28-1a.71.71,0,0,1-.07-.27,1.38,1.38,0,0,0,.53-1.35A.85.85,0,0,0,69.66,81l0,0a.94.94,0,0,0-1.17-.16,1.21,1.21,0,0,0-.56,1.72c.44.9,1.28.28,1.34.94s-.57.43-.41,1.35a1.45,1.45,0,0,0,.33.68H70.6A.25.25,0,0,0,70.56,85.48Z"/><path class="cls-5" d="M64.19,77.1c-.32.26-.07,1.13.26,1.2s.86-.73.62-1.06A.68.68,0,0,0,64.19,77.1Z"/><path class="cls-5" d="M64,73.76a.67.67,0,0,0,.09.61.43.43,0,0,0,.69-.08c.1-.16.12-.76-.08-.86S64,73.62,64,73.76Z"/><path class="cls-5" d="M71.85,73.7a.72.72,0,0,0-.25-.58c-.4-.2-.79.21-.84.44a.61.61,0,0,0,.75.56A.56.56,0,0,0,71.85,73.7Z"/><path class="cls-5" d="M97.26,66a.48.48,0,0,0-.18-.51.45.45,0,0,0-.43.09.43.43,0,0,0,.07.42C96.82,66.1,97.17,66.21,97.26,66Z"/><path class="cls-5" d="M97.66,73.74v-.51a.89.89,0,0,0-.06.41A.28.28,0,0,0,97.66,73.74Z"/><path class="cls-5" d="M96.46,73.82c-.36.65-.31,1.07.15,1.34a1.12,1.12,0,0,0,1-.17V73.82a.8.8,0,0,0-.29-.31A.64.64,0,0,0,96.46,73.82Z"/><path class="cls-5" d="M88.55,81.47a.76.76,0,0,0,.37.36,2.33,2.33,0,0,0,.52.77,1.22,1.22,0,0,0,1.35.13l.12-.07a1.15,1.15,0,0,0-.11.86.54.54,0,0,0,.11.18H90.8c-.17.32-.4.65,0,1a.77.77,0,0,0,.65,0,.54.54,0,0,0,.25-.48.6.6,0,0,0-.08-.2,1.78,1.78,0,0,0,.44-.06c.45-.13.83-.64.74-1a1.3,1.3,0,0,0-1.27-.83l-.18.08a1.18,1.18,0,0,0,.06-.58,2.18,2.18,0,0,0-.69-1.32.86.86,0,0,1-.2-.33.81.81,0,0,0,.11-.89,1.41,1.41,0,0,0-1.41-.38.8.8,0,0,0-1-.31.81.81,0,0,0-.62,1,.68.68,0,0,0,.89.4h0a1.35,1.35,0,0,0,.17.66l.11.23C88.51,80.84,88.32,81.07,88.55,81.47Z"/><path class="cls-5" d="M91,69.72a.68.68,0,0,0-.23-1,.53.53,0,0,0-.84.15.67.67,0,0,0,.18,1A.7.7,0,0,0,91,69.72Z"/><path class="cls-5" d="M95.08,71.08a.61.61,0,0,0,0,.46.57.57,0,0,0-.52,0c-.21.14,0,.58.13.66a.52.52,0,0,0,.52-.08.36.36,0,0,0,.05-.22,1.46,1.46,0,0,0,.44.45.8.8,0,0,0,1-.33,1,1,0,0,0-.23-1.22A1.23,1.23,0,0,0,95.08,71.08Z"/><path class="cls-5" d="M88.94,71.05l0,0a.38.38,0,0,0-.6.16c-.15.28-.2.57.12.79a.61.61,0,0,0,.34.08,1.31,1.31,0,0,0,1.6.75,1.48,1.48,0,0,0,.9-1.59,1.32,1.32,0,0,0-1.51-1A1.7,1.7,0,0,0,88.94,71.05Z"/><path class="cls-5" d="M85.48,71.23c-.1.11-.19.63,0,.74s.6-.1.65-.2a.87.87,0,0,0,.06-.43.67.67,0,0,0,.71.17c.3-.12.28-.35.21-.59a.45.45,0,0,0-.67-.35,2.29,2.29,0,0,0-.42.49l0,.06A.69.69,0,0,0,85.48,71.23Z"/><path class="cls-5" d="M38.57,78.05c.47-.2.47-.49.37-.74s-.36-.49-.63-.3a.78.78,0,0,0-.31.65C38.08,77.86,38.42,78,38.57,78.05Z"/><path class="cls-5" d="M43.34,77.51c.27-.08.13-.41.1-.55s-.28-.19-.33-.15a.55.55,0,0,0-.22.4A.39.39,0,0,0,43.34,77.51Z"/><path class="cls-5" d="M42.5,79.28a.38.38,0,0,0-.21.56.37.37,0,0,0,.56.15.39.39,0,0,0,.11-.51A.35.35,0,0,0,42.5,79.28Z"/><path class="cls-5" d="M92.4,77a.75.75,0,0,0-.73,0,.81.81,0,0,0-.88-.57.7.7,0,0,0-.45.86.69.69,0,0,0,.8.55.64.64,0,0,0,.34-.21.44.44,0,0,0,.1.15.75.75,0,0,0,.47.17L92,78a.8.8,0,0,0,.27,1.2.69.69,0,0,0,.92-.71.94.94,0,0,0-.48-.67.56.56,0,0,0-.34,0C92.58,77.64,92.49,77.33,92.4,77Z"/><path class="cls-5" d="M41.64,81.77c-.59.26-.76,1-.41,1.73a1,1,0,0,0,1.4.56,1.37,1.37,0,0,0,.61-1.79A1.39,1.39,0,0,0,41.64,81.77Z"/><path class="cls-5" d="M36.35,77.34a.59.59,0,0,0-.83-.09.82.82,0,0,0-.31.58c0,.54.47.64,1,.62C36.42,78.06,36.71,77.72,36.35,77.34Z"/><path class="cls-5" d="M37.14,82.63c.54,0,.77-.26.82-.79,1.26-.19,1.47-.9.63-2a1.75,1.75,0,0,1,.11-.24c.22-.31.11-.56-.1-.82a.66.66,0,0,0-.74-.18c-.71.17-.89.47-.66,1.18.16.53.31,1.07.46,1.6C36.7,81.78,36.66,81.89,37.14,82.63Z"/><path class="cls-5" d="M36.6,85a1.7,1.7,0,0,0-1.54-.45c-.44.11-.56.58-.82,1H37A2.19,2.19,0,0,0,36.6,85Z"/><path class="cls-5" d="M66.84,83.47a.85.85,0,0,0-1.19.37c-.3.48-.25,1,.12,1.2a1.38,1.38,0,0,0,1.64-.35.62.62,0,0,0,.06-.31.72.72,0,0,0,.25,0,.77.77,0,0,0,.48-.86.8.8,0,0,0-1-.48A.62.62,0,0,0,66.84,83.47Z"/><path class="cls-5" d="M40.87,78.64c-.12,0-.41.32-.32.46a.46.46,0,0,0,.47.12c.13-.08.37-.25.29-.39A.46.46,0,0,0,40.87,78.64Z"/><path class="cls-5" d="M33.76,83.39c.51-.18,1-.87.82-1.25a1.22,1.22,0,0,0-1.43-.69A1.24,1.24,0,0,0,32.61,83,.85.85,0,0,0,33.76,83.39Z"/><path class="cls-5" d="M66.84,76.68c-.17,0-.19.38-.18.52a.28.28,0,0,0,.3.2.5.5,0,0,0,.28-.36C67.23,76.94,67,76.64,66.84,76.68Z"/><path class="cls-5" d="M67.18,76.09A1,1,0,0,0,68,77c.41-.54.49-.89.21-1.11S67.49,75.77,67.18,76.09Z"/><path class="cls-5" d="M66.56,79.6a.67.67,0,0,0,.27.31c-.2.36-.17.68.06.75a1.09,1.09,0,0,0,.8-.09c.17-.1.14-.43,0-.64a.62.62,0,0,0,.22-.64.76.76,0,0,0-.89-.57A.74.74,0,0,0,66.56,79.6Z"/><path class="cls-5" d="M68.8,75.11a.7.7,0,0,0-.48.92.73.73,0,0,0,.87.44.7.7,0,0,0,.54-.88A.75.75,0,0,0,68.8,75.11Z"/><path class="cls-5" d="M63.1,79.54c.06-.12.11-.36,0-.47s-.38,0-.47.08-.21.42,0,.55S63,79.63,63.1,79.54Z"/><path class="cls-5" d="M69.17,79.27a.65.65,0,0,0,.73.51.67.67,0,0,0,.54-.8.52.52,0,0,0-.55-.5c0-.12,0-.27-.06-.4-.19,0-.45,0-.55.09s-.35.47-.07.68h0A.53.53,0,0,0,69.17,79.27Z"/><path class="cls-5" d="M43.59,85.52a1.6,1.6,0,0,0-.74-.54.46.46,0,0,0,0-.43c-.06-.08-.42-.16-.53,0s0,.2.05.32a.27.27,0,0,0-.13,0,.84.84,0,0,0-.5.69H43.6A0,0,0,0,1,43.59,85.52Z"/><path class="cls-5" d="M62.12,77.05c-.27,0-.28,1.23,0,1.42s.78-.2.88-.72S62.38,77,62.12,77.05Z"/><path class="cls-5" d="M63.85,83.55c.32,0,.56-.13.61-.43a3.87,3.87,0,0,0-.2-2.28,1,1,0,0,0-.24-.28.87.87,0,0,0-1.47.59,5.87,5.87,0,0,0,0,1.45A1.35,1.35,0,0,0,63.85,83.55Z"/><path class="cls-5" d="M83.64,85c0-.08,0-.21-.11-.4-.31.11-.89,0-1,.36a.74.74,0,0,0,.12.57h.74C83.49,85.39,83.57,85.18,83.64,85Z"/><path class="cls-5" d="M39,82.88c-.2.15-.72.41-.55.8s.71.23,1,.21.41-.4.28-.73S39.32,82.66,39,82.88Z"/><path class="cls-5" d="M39.1,85.14a.67.67,0,0,0-.29.41h1.44A1.06,1.06,0,0,0,39.1,85.14Z"/><path class="cls-5" d="M44.73,80.84a1,1,0,0,0-.36,1.25c.21.45.53.6.93.43.57-.25.94-1,.73-1.38A1.07,1.07,0,0,0,44.73,80.84Z"/><path class="cls-5" d="M97.1,69.9a.69.69,0,0,0,.56.19V68.83l-.27-.1C97,69.12,96.78,69.48,97.1,69.9Z"/><path class="cls-5" d="M45.88,78a.7.7,0,0,0-.37.84.6.6,0,0,0,.8.38.69.69,0,0,0,.35-.84A.58.58,0,0,0,45.88,78Z"/><path class="cls-5" d="M82.35,82.22a1.09,1.09,0,0,0,1.27-.54,1.14,1.14,0,0,0-.5-1.41.85.85,0,0,0-.77-.07Z"/><path class="cls-5" d="M82.35,71.27a1.43,1.43,0,0,0,2-2c-.3-.47-1-.16-1.14.22s-.16.23-.58.26a1.31,1.31,0,0,0-.27.06Z"/><path class="cls-5" d="M72.5,85.55v-.16a1.29,1.29,0,0,0-.17.16Z"/><path class="cls-5" d="M85,78.71a.79.79,0,0,0-1.06.18,1,1,0,0,0,.29,1.29.78.78,0,0,0,.46.16,3.19,3.19,0,0,0-.34.66,1.61,1.61,0,0,0,.35,1.25,1.35,1.35,0,0,0-.87.08c-.91.35-1.11.71-.89,1.5a1.29,1.29,0,0,0,1.76.8l.16-.07a1.45,1.45,0,0,0-.27,1h1.77a1.16,1.16,0,0,0,0-.7c-.11-.47-.6-.86-1-.75a.94.94,0,0,0-.15.06,1.14,1.14,0,0,0,.18-.44,1.24,1.24,0,0,0,.19.21,1.31,1.31,0,0,0,1.72-.11,1,1,0,0,0,.18-.54.74.74,0,0,0,.56,0,.7.7,0,0,0,.45-.86.74.74,0,0,0-.92-.49.73.73,0,0,0-.3.19.88.88,0,0,0-.28-.32,1.47,1.47,0,0,0-.25-.08,1.33,1.33,0,0,0-.47-1.42c-.34-.26-.67-.43-.63-1,0-.35-.26-.48-.6-.5A.88.88,0,0,0,85,78.71Z"/><path class="cls-5" d="M46.24,83a.7.7,0,0,0,0,.87s-.08,0-.11.08a.66.66,0,0,0-.22.88,1,1,0,0,0,1.13.35.79.79,0,0,0,.34.23v-2.3l-.17-.09A.58.58,0,0,0,46.24,83Z"/><path class="cls-5" d="M71.93,82.27a1.19,1.19,0,0,0-.58,1.21.87.87,0,0,0,.89.59l.26-.1V82.31A1,1,0,0,0,71.93,82.27Z"/><path class="cls-5" d="M57.19,85.33a.64.64,0,0,0,.43,0,1.23,1.23,0,0,0,0,.27h5.85a1.09,1.09,0,0,0,0-.54.28.28,0,0,0,.18.06c.12,0,.45-.21.37-.4s-.38-.25-.49-.22-.19.17-.22.29l0,0a1.27,1.27,0,0,0-1.5.18.51.51,0,0,0-.09.18,1.29,1.29,0,0,0-.32-.49A2.2,2.2,0,0,0,60,84a1,1,0,0,1-.52-.21A.89.89,0,0,0,58,84a.41.41,0,0,0-.18-.19.62.62,0,0,0-.58.06Z"/><path class="cls-5" d="M32,79.26a.69.69,0,0,0,.46,0,.5.5,0,0,0,.2-.42c0-.12-.31-.2-.43-.16s-.15.1-.23.19Z"/><path class="cls-5" d="M57.82,75.25a.5.5,0,0,0,.34-.39.53.53,0,0,0-.35-.39.57.57,0,0,0-.52.36C57.23,75.07,57.69,75.26,57.82,75.25Z"/><path class="cls-5" d="M47.29,80.58c.11.4,0,.28-.28.58a.7.7,0,0,0,.15,1.22l.18.07V80.06A.86.86,0,0,0,47.29,80.58Z"/><path class="cls-5" d="M57.57,81a.73.73,0,0,0,1.17.85.72.72,0,0,0-.11-1A.8.8,0,0,0,57.57,81Z"/><path class="cls-5" d="M61.32,74.42a.48.48,0,0,0,0-.45c-.07-.08-.43-.17-.54,0s.1.42.2.52A.28.28,0,0,0,61.32,74.42Z"/><path class="cls-5" d="M60.52,78.4A1,1,0,0,0,60.34,77a1.58,1.58,0,0,0-2,.23,1.17,1.17,0,0,0,.33,1.54A1.26,1.26,0,0,0,60.52,78.4Z"/><path class="cls-5" d="M60.47,82.19a.7.7,0,0,0,.24-1.14.92.92,0,0,0-.79-.2.79.79,0,0,0-.43.59A.81.81,0,0,0,60.47,82.19Z"/><path class="cls-5" d="M92.85,75.1c-.18-.09-.33-.23-.55-.19s-.27.37-.09.61a1.09,1.09,0,0,0,.73.38.32.32,0,0,0,.3-.17,1.25,1.25,0,0,0,1.49.64,1,1,0,0,0,.79-1.22,1.41,1.41,0,0,0-.26-.48c0-.22.06-.46.07-.7a.61.61,0,0,0-.62-.66.64.64,0,0,0-.7.57A1,1,0,0,1,94,74l-.1,0a1.13,1.13,0,0,0-.74,1.21Z"/><path class="cls-5" d="M96.72,82.18a.66.66,0,0,0-.41.8.49.49,0,0,0,.71.33,1.85,1.85,0,0,0,.43-.54C97.31,82.28,97,82.1,96.72,82.18Z"/><path class="cls-5" d="M86.91,85.55h.41l-.09-.07A.42.42,0,0,0,86.91,85.55Z"/><path class="cls-5" d="M82.35,85v.6h.13a1.26,1.26,0,0,0,0-.43A1.4,1.4,0,0,0,82.35,85Z"/><path class="cls-5" d="M97.66,82.66V80.45a1.92,1.92,0,0,0-.33,1.14A2,2,0,0,0,97.66,82.66Z"/><path class="cls-5" d="M86.81,74.17a1.29,1.29,0,0,0,0-.19c-.09-.34-.4-.52-.67-.34a2.25,2.25,0,0,0-.42.48.7.7,0,0,0,.61.49c0,.07,0,.13.07.14a.53.53,0,0,0,.45,0A.39.39,0,0,0,86.81,74.17Z"/><path class="cls-5" d="M94.7,85.23l0,0a1.62,1.62,0,0,0,.54.35h.79a1,1,0,0,0,.36-.77.65.65,0,0,0,.89-.21.8.8,0,0,0-.29-1c-.19-.15-.74.07-.89.5a.85.85,0,0,0-1-.2c-.11-.26-.41-.46-.93-.65A1,1,0,0,0,92.9,84a3.79,3.79,0,0,0,.16,1,1.21,1.21,0,0,0-1.12-.46,1.51,1.51,0,0,0-.9,1h3.87Z"/><path class="cls-5" d="M97.29,75.86a1.24,1.24,0,0,0-.17.87.9.9,0,0,0-.3-.37c-.23-.14-1,.77-.95,1.07s.74.34,1.15,0a.44.44,0,0,0,.17-.35,1.23,1.23,0,0,0,.11.23,3.15,3.15,0,0,0,.36.37v-2A.71.71,0,0,0,97.29,75.86Z"/><path class="cls-5" d="M94,82.45a.55.55,0,0,0,.75.06A3.77,3.77,0,0,0,96,80.64a1.06,1.06,0,0,0,0-.36.87.87,0,0,0-1.51-.5c-.12.11-.23.24-.34.36a.62.62,0,0,0-.41.24.74.74,0,0,0-.12.45l0,.07A1.36,1.36,0,0,0,94,82.45Z"/><path class="cls-5" d="M97.66,84.72v-.26A1.12,1.12,0,0,0,97.66,84.72Z"/><path class="cls-5" d="M94.68,77.13a1.25,1.25,0,0,0-1,1.23,1.29,1.29,0,0,0,1.55.86,1.85,1.85,0,0,0,.52-.32.74.74,0,0,0,.26,0c.12-.05.31-.21.28-.38a.25.25,0,0,0-.17-.19,1.39,1.39,0,0,0,0-.35C96.12,77.48,95.38,77.15,94.68,77.13Z"/><path class="cls-5" d="M91.13,73.16a1,1,0,0,0,0,.17.61.61,0,0,0-.46.64.8.8,0,0,0,.32.57c.34.22.62.07,1.1-.52a.61.61,0,0,1-.07-.14.53.53,0,0,0,.22-.2.61.61,0,0,0-.14-.81C91.89,72.68,91.17,72.89,91.13,73.16Z"/><path class="cls-5" d="M91.92,66.89s0,.33.06.35a.5.5,0,0,0,.45,0c.07-.07.1-.47,0-.54S92,66.78,91.92,66.89Z"/><path class="cls-5" d="M87.45,84.47a1.23,1.23,0,0,0,1.15.68c.35-.09.67-.84.55-1.31a.57.57,0,0,0-.73-.45C87.71,83.59,87.33,84,87.45,84.47Z"/><path class="cls-5" d="M87.31,74.55c-.47.11-.71.46-.6.84s.81.92,1.13.85a.67.67,0,0,0,.23-.1,1.45,1.45,0,0,0,.55,1.12c.55.39,1.28.15,1.75-.56A1.13,1.13,0,0,0,90,75.07a1.46,1.46,0,0,0-1.53.09s0-.08,0-.12C88.4,74.62,87.9,74.41,87.31,74.55Z"/><path class="cls-5" d="M95.38,66.75a.66.66,0,0,0-.91.32c-.23.39-.2.75.07.88a1.1,1.1,0,0,0,1.16-.28A.69.69,0,0,0,95.38,66.75Z"/><path class="cls-5" d="M93.73,72.58c.29.14.44,0,.57-.25a.45.45,0,0,0-.2-.72c-.23-.06-.49-.13-.65,0S93.42,72.43,93.73,72.58Z"/><path class="cls-5" d="M94.21,65.07s-.21,0-.23.09a.2.2,0,0,0,0,.24.2.2,0,0,0,.28-.07A.21.21,0,0,0,94.21,65.07Z"/><path class="cls-5" d="M93.66,69.67a.48.48,0,0,0,.09.47c.09.08.49.17.56,0a.44.44,0,0,0-.17-.45C94,69.63,93.73,69.52,93.66,69.67Z"/><path class="cls-7" d="M86.23,20c.25,1.16.5,2.32.72,3.49a2.19,2.19,0,0,0,3.45,1.35c.87-.65,1.74-1.32,2.56-2a1.34,1.34,0,0,1,2.07,0c1.29,1.29,2.59,2.58,3.87,3.88a1.42,1.42,0,0,1,0,2.19c-.55.62-1,1.37-1.56,1.94a2.21,2.21,0,0,0-.4,3,1.56,1.56,0,0,0,1.41,1.06c1.21.1,2.42.34,3.62.54a1.26,1.26,0,0,1,1.18,1.43c0,1.74-.11,3.49,0,5.24A1.27,1.27,0,0,1,102,43.62c-1.25.17-2.51.35-3.75.57a2.34,2.34,0,0,0-1.3,3.33,32.27,32.27,0,0,1,2.16,2.95,1.69,1.69,0,0,1,0,1.58c-1.28,1.43-2.69,2.73-4.07,4.06a1.34,1.34,0,0,1-2.07,0c-.52-.47-1.14-.82-1.64-1.31a2.49,2.49,0,0,0-3.53-.37,2.1,2.1,0,0,0-1,1.53c-.12,1.08-.34,2.15-.48,3.22s-.58,1.38-1.65,1.3a21.44,21.44,0,0,0-4.6,0c-1.3.17-1.83-.29-2-1.35s-.34-2.25-.52-3.36A2.31,2.31,0,0,0,74,54.31c-.87.66-1.72,1.34-2.56,2a1.15,1.15,0,0,1-1.74,0c-1.34-1.31-2.68-2.61-4-3.94a1.46,1.46,0,0,1,0-2.29c.56-.61,1-1.35,1.55-1.94a2.11,2.11,0,0,0,.46-2.76,2.33,2.33,0,0,0-2-1.27c-1-.09-2.07-.31-3.1-.48s-1.38-.7-1.22-1.89a19.87,19.87,0,0,0,0-4.56c-.12-1.11.27-1.65,1.25-1.78s2.07-.35,3.11-.45a2.31,2.31,0,0,0,1.86-1.24A2.14,2.14,0,0,0,67.17,31c-.65-.7-1.15-1.53-1.75-2.28s-.53-1.48.58-2.17a8.44,8.44,0,0,0,2.76-2.62c1-1.54,1.89-1.81,2.88-.9.55.49,1.23.85,1.73,1.38a2.31,2.31,0,0,0,3.11.43,2,2,0,0,0,1.29-1.71c.13-1.08.29-2.16.51-3.23h0A1.71,1.71,0,0,1,80,18.59h4.48A1.82,1.82,0,0,1,86.23,20ZM82.38,31.16a8.37,8.37,0,1,0,8.24,8.52A8.31,8.31,0,0,0,82.38,31.16Z"/><circle class="cls-6" cx="82.26" cy="39.53" r="8.36"/><path class="cls-7" d="M56.71,70.64c-1-.38-1.87-.74-2.77-1.12a2.57,2.57,0,0,0-3.73,2.2c-.6,5.13-.6,5-5.74,5.16-1.65,0-2.19-.62-2.35-2-.11-1-.28-2-.4-3a2.66,2.66,0,0,0-3.9-2.29c-4.65,2-4.58,2-7.2-2.39-.85-1.42-.69-2.28.62-3.15.78-.51,1.47-1.16,2.21-1.73,1.88-1.46,1.9-3.2,0-4.64-3.92-3-3.84-3-1.48-7.31.84-1.55,1.72-1.81,3.18-1.09.84.41,1.73.7,2.59,1.07,2.16.92,3.74,0,4-2.44.14-1.51.49-3.17,1.4-4a4.54,4.54,0,0,1,3.09-.79c1.83,0,3.53.55,3.62,2.36,0,.88.24,1.74.34,2.61.24,2.21,1.86,3.19,3.89,2.32,4.66-2,4.6-2,7.19,2.37.85,1.43.68,2.28-.63,3.16-.77.51-1.45,1.17-2.19,1.74-1.88,1.48-1.89,3.21,0,4.65,3.91,3,3.91,3,1.4,7.31h0A2.53,2.53,0,0,1,56.71,70.64ZM51.56,60A5.61,5.61,0,1,0,46,65.6,5.65,5.65,0,0,0,51.56,60Z"/><circle class="cls-6" cx="45.94" cy="59.99" r="6.16"/></svg>