<svg xmlns="http://www.w3.org/2000/svg" width="98" height="86" viewBox="0 0 98 86">
  <g fill="none" transform="rotate(45 4.322 34.553)">
    <path fill="#182C6B" d="M37.6446609,11.2182541 C23.2852574,11.2182541 11.6446609,22.8588506 11.6446609,37.2182541 C11.6446609,51.5776576 23.2852574,63.2182541 37.6446609,63.2182541 C52.0040644,63.2182541 63.6446609,51.5776576 63.6446609,37.2182541 C63.6446609,22.8588506 52.0040644,11.2182541 37.6446609,11.2182541 Z M37.6446609,21.2182541 C46.4812169,21.2182541 53.6446609,28.3816981 53.6446609,37.2182541 C53.6446609,46.0548101 46.4812169,53.2182541 37.6446609,53.2182541 C28.8081049,53.2182541 21.6446609,46.0548101 21.6446609,37.2182541 C21.6446609,28.3816981 28.8081049,21.2182541 37.6446609,21.2182541 Z" transform="rotate(45 37.645 37.218)"/>
    <path fill="#2C4B99" d="M21.6446609,37.2182541 C21.6446609,45.949613 28.638562,53.0474588 37.3297903,53.2152177 L37.6446609,53.2182541 L37.6446609,63.2182541 C23.4288515,63.2182541 11.8777448,51.8093054 11.6481442,37.6482116 L11.6446609,37.2182541 L21.6446609,37.2182541 Z"/>
  </g>
</svg>
