<?xml version="1.0" encoding="UTF-8"?>
<svg width="88px" height="46px" viewBox="0 0 88 46" version="1.1" xmlns="http://www.w3.org/2000/svg" xmlns:xlink="http://www.w3.org/1999/xlink">
    <!-- Generator: Sketch 64 (93537) - https://sketch.com -->
    <title>Group 13</title>
    <desc>Created with Sketch.</desc>
    <g id="Page-1" stroke="none" stroke-width="1" fill="none" fill-rule="evenodd">
        <g id="Blog-Landing-Page" transform="translate(-704.000000, -546.000000)" fill="#E0E0E0">
            <g id="Group-5" transform="translate(704.000000, 438.000000)">
                <g id="Group-13" transform="translate(0.000000, 108.000000)">
                    <polygon id="Fill-1" points="41 7 48 7 48 0 41 0"></polygon>
                    <polygon id="Fill-2" points="61 7 68 7 68 0 61 0"></polygon>
                    <polygon id="Fill-3" points="81 7 88 7 88 0 81 0"></polygon>
                    <polygon id="Fill-4" points="20 27 27 27 27 20 20 20"></polygon>
                    <polygon id="Fill-5" points="41 27 48 27 48 20 41 20"></polygon>
                    <polygon id="Fill-6" points="61 27 68 27 68 20 61 20"></polygon>
                    <polygon id="Fill-7" points="81 27 88 27 88 20 81 20"></polygon>
                    <polygon id="Fill-8" points="0 46 7 46 7 39 0 39"></polygon>
                    <polygon id="Fill-9" points="20 46 27 46 27 39 20 39"></polygon>
                    <polygon id="Fill-10" points="41 46 48 46 48 39 41 39"></polygon>
                    <polygon id="Fill-11" points="61 46 68 46 68 39 61 39"></polygon>
                    <polygon id="Fill-12" points="81 46 88 46 88 39 81 39"></polygon>
                </g>
            </g>
        </g>
    </g>
</svg>