<?xml version="1.0" encoding="UTF-8"?>
<svg width="32px" height="32px" viewBox="0 0 32 32" version="1.1" xmlns="http://www.w3.org/2000/svg" xmlns:xlink="http://www.w3.org/1999/xlink">
    <!-- Generator: Sketch 55.1 (78136) - https://sketchapp.com -->
    <title>icon-users-and-rules-32-color</title>
    <desc>Created with Sketch.</desc>
    <g id="icon-users-and-rules-32-color" stroke="none" stroke-width="1" fill="none" fill-rule="evenodd">
        <g id="Group-13">
            <path d="M16,4 C15.448,4 15,3.552 15,3 C15,2.448 15.448,2 16,2 C16.552,2 17,2.448 17,3 C17,3.552 16.552,4 16,4 M18.911,2.308 C18.597,0.987 17.415,0 16,0 C14.346,0 13,1.346 13,3 C13,4.654 14.346,6 16,6 C17.176,6 18.186,5.313 18.677,4.326 C22.501,5.203 25.711,7.91 27.166,11.597 L29.027,10.862 C27.302,6.491 23.47,3.274 18.911,2.308" id="Fill-1" fill="#535966"></path>
            <path d="M3,17 C2.448,17 2,16.552 2,16 C2,15.448 2.448,15 3,15 C3.552,15 4,15.448 4,16 C4,16.552 3.552,17 3,17 M11.597,4.834 L10.862,2.973 C6.491,4.698 3.274,8.53 2.308,13.089 C0.987,13.403 0,14.585 0,16 C0,17.654 1.346,19 3,19 C4.654,19 6,17.654 6,16 C6,14.824 5.313,13.814 4.326,13.323 C5.203,9.499 7.91,6.289 11.597,4.834" id="Fill-3" fill="#535966"></path>
            <path d="M16,30 C15.448,30 15,29.552 15,29 C15,28.448 15.448,28 16,28 C16.552,28 17,28.448 17,29 C17,29.552 16.552,30 16,30 M16,26 C14.824,26 13.814,26.687 13.323,27.674 C9.499,26.797 6.289,24.09 4.834,20.403 L2.973,21.138 C4.698,25.509 8.53,28.726 13.089,29.692 C13.403,31.013 14.585,32 16,32 C17.654,32 19,30.654 19,29 C19,27.346 17.654,26 16,26" id="Fill-5" fill="#535966"></path>
            <path d="M29,17 C28.448,17 28,16.552 28,16 C28,15.448 28.448,15 29,15 C29.552,15 30,15.448 30,16 C30,16.552 29.552,17 29,17 M32,16 C32,14.346 30.654,13 29,13 C27.346,13 26,14.346 26,16 C26,17.176 26.687,18.186 27.674,18.677 C26.798,22.501 24.09,25.711 20.403,27.166 L21.138,29.027 C25.509,27.302 28.726,23.47 29.692,18.911 C31.013,18.597 32,17.415 32,16" id="Fill-7" fill="#535966"></path>
            <path d="M13,20 C13,18.346 14.346,17 16,17 C17.654,17 19,18.346 19,20 L13,20 Z M14,13 C14,11.897 14.897,11 16,11 C17.103,11 18,11.897 18,13 C18,14.103 17.103,15 16,15 C14.897,15 14,14.103 14,13 L14,13 Z M18.794,15.855 C19.536,15.129 20,14.119 20,13 C20,10.794 18.206,9 16,9 C13.794,9 12,10.794 12,13 C12,14.119 12.464,15.129 13.206,15.855 C11.876,16.755 11,18.277 11,20 L11,22 L21,22 L21,20 C21,18.277 20.124,16.755 18.794,15.855 L18.794,15.855 Z" id="Fill-9" fill="#00BFB3"></path>
        </g>
    </g>
</svg>