<?xml version="1.0" encoding="UTF-8"?>
<svg width="32px" height="32px" viewBox="0 0 32 32" version="1.1" xmlns="http://www.w3.org/2000/svg" xmlns:xlink="http://www.w3.org/1999/xlink">
    <!-- Generator: Sketch 55.2 (78181) - https://sketchapp.com -->
    <title>icon-endpoint-32-color</title>
    <desc>Created with Sketch.</desc>
    <g id="icon-endpoint-32-color" stroke="none" stroke-width="1" fill="none" fill-rule="evenodd">
        <path d="M15.1476499,16.0000744 L7.74498689,2.8539028 C5.89616481,-0.42729373 1,0.924920144 1,4.69041635 L1,27.3097107 C1,31.0753861 5.89634065,32.427322 7.74490391,29.1458108 L14.8713412,16.4907411 L15.1476499,16.0000744 Z M6.00229513,28.1643249 C5.17293319,29.636582 3,29.0366102 3,27.3097107 L3,4.69041635 C3,2.9635733 5.17299413,2.36343975 6.00241834,3.83546013 L12.8523501,16.0000526 L6.00229513,28.1643249 Z" id="Fill-1" fill="#535966" fill-rule="nonzero"></path>
        <path d="M17.6865892,17 L10.0121812,31 L18.623532,31 C20.765632,31 22.7586241,29.9128499 23.9029903,28.1176786 L29.5892534,18.5092549 L30.4823296,17 L17.6865892,17 Z M26.9749458,19 L22.1991355,27.070885 C21.4403389,28.2601869 20.0840941,29 18.623532,29 L13.389308,29 L18.871028,19 L26.9749458,19 Z" id="Shape" fill="#535966" fill-rule="nonzero"></path>
        <path d="M17.1369848,14 L10.0123654,1 L18.623532,1 C20.765632,1 22.7586241,2.08715012 23.9029903,3.88232136 L30.3240849,14 L27.955314,14 L22.2154316,4.95569995 C21.4403389,3.73981312 20.0840941,3 18.623532,3 L13.3891239,3 L19.417648,14 L17.1369848,14 Z" id="Combined-Shape" fill="#00BFB3" fill-rule="nonzero"></path>
    </g>
</svg>