<svg width="145" height="250" viewBox="0 0 145 250" fill="none" xmlns="http://www.w3.org/2000/svg">
<mask id="mask0" mask-type="alpha" maskUnits="userSpaceOnUse" x="0" y="0" width="145" height="250">
<rect width="145" height="250" fill="#C4C4C4"/>
</mask>
<g mask="url(#mask0)">
<path d="M66.6999 108.6C109.392 108.6 144 73.9916 144 31.3C144 -11.3916 109.392 -46 66.6999 -46C24.0083 -46 -10.6001 -11.3916 -10.6001 31.3C-10.6001 73.9916 24.0083 108.6 66.6999 108.6Z" fill="#7DE2D1"/>
<path d="M35.1511 96.5661C34.0669 96.6745 33.308 97.867 33.6333 99.0596C33.8501 100.035 35.3679 100.794 36.6689 100.469C37.6446 100.252 38.2951 99.2764 37.9699 98.1923C37.4278 96.4576 36.8857 96.3492 35.1511 96.5661Z" fill="#42D4C6"/>
<path d="M33.8501 79.3281C33.308 79.3281 32.3323 80.1954 32.3323 80.8459C32.3323 81.388 33.1996 82.1469 33.7417 82.1469C34.2837 82.1469 34.7174 81.7133 34.7174 81.0628C34.609 79.9786 34.2837 79.3281 33.8501 79.3281Z" fill="#42D4C6"/>
<path d="M39.054 89.0852C37.9699 89.1936 37.6446 89.7357 37.8614 90.9283C38.0783 92.0124 38.6203 92.5545 39.3793 92.4461C40.0297 92.3377 41.1139 90.9283 41.0055 90.2778C40.7886 89.4105 40.1382 88.9768 39.054 89.0852Z" fill="#42D4C6"/>
<path d="M39.7045 102.421C39.054 101.987 38.0783 102.312 37.6447 102.963C38.512 103.288 39.3793 103.613 40.2466 103.938C40.1382 103.396 40.2466 102.854 39.7045 102.421Z" fill="#42D4C6"/>
<path d="M38.7288 83.1227C38.4035 83.2312 38.0783 83.3396 37.8615 83.448C37.753 83.3396 37.753 83.2312 37.6446 83.1227C37.4278 82.7975 36.452 82.5807 36.0184 83.0143C35.5847 83.448 35.91 84.4237 36.1268 84.8574C36.2352 85.0742 36.7773 85.291 37.211 85.3995C37.6446 85.9415 38.6203 86.2668 39.1624 86.1584C39.7045 85.9415 40.355 84.749 40.1382 84.0985C40.1382 83.448 39.2708 82.9059 38.7288 83.1227Z" fill="#42D4C6"/>
<path d="M23.6591 95.0486C23.3338 94.9402 23.117 94.9402 22.9001 95.0486C23.4422 95.3738 23.9843 95.8075 24.5264 96.1327C24.418 95.5907 24.2011 95.157 23.6591 95.0486Z" fill="#42D4C6"/>
<path d="M11.4081 82.472C11.5166 83.3393 12.2755 84.2067 12.9259 84.2067C14.2269 84.0982 14.5522 82.7973 14.6606 82.0384C14.769 81.3879 13.2512 80.629 12.2754 81.0626C11.625 81.3879 11.4081 81.8215 11.4081 82.472Z" fill="#42D4C6"/>
<path d="M31.2481 88.0012C31.465 88.5432 32.6575 89.0853 33.1996 88.8685C33.6333 88.7601 34.0669 87.6759 33.8501 87.0254C33.6333 86.4834 33.0912 86.2665 32.5491 86.5918C31.5734 86.917 31.1397 87.4591 31.2481 88.0012Z" fill="#42D4C6"/>
<path d="M57.9182 104.48C57.7014 103.83 56.0752 103.83 55.3163 104.589C54.7742 105.131 54.7742 105.673 55.2078 106.215C55.6415 106.974 56.7256 107.516 57.2677 107.191C58.3519 106.54 58.1351 105.131 57.9182 104.48Z" fill="#42D4C6"/>
<path d="M6.3127 69.6795C5.77063 70.1132 5.87904 71.631 6.3127 72.0647C6.74636 72.4983 8.15575 72.3899 8.80624 71.8478C9.34831 71.4142 9.23992 70.6553 8.69785 70.1132C7.72211 69.1375 6.96319 69.029 6.3127 69.6795Z" fill="#42D4C6"/>
<path d="M11.1913 85.074C11.1913 84.532 11.0829 84.0983 10.8661 83.773C10.4324 83.3394 9.89034 83.1226 9.34827 83.1226C9.89034 83.773 10.5408 84.4235 11.1913 85.074Z" fill="#42D4C6"/>
<path d="M10.4324 67.2941C10.6492 66.6436 10.4324 66.1015 9.78191 65.7763C9.45666 65.6679 9.13139 65.3426 8.91456 65.1258C8.15566 64.3669 7.39677 64.2585 6.52945 64.6921C5.66213 65.1258 5.55371 65.8847 6.52945 66.8604C7.07153 67.0773 8.04724 67.6193 8.91456 67.9446C9.56506 68.2698 10.2155 68.053 10.4324 67.2941Z" fill="#42D4C6"/>
<path d="M10.2156 77.268C9.5651 77.8101 9.5651 78.7858 10.2156 79.2195C10.7577 79.6531 11.4082 79.6531 11.9502 79.0027C12.2755 78.569 12.7091 78.0269 12.2755 77.5933C11.5166 76.9428 10.7577 76.8343 10.2156 77.268Z" fill="#42D4C6"/>
<path d="M50.546 106.865C50.9797 106.974 51.4134 107.082 51.847 107.082C51.7386 106.974 51.6302 106.865 51.4134 106.865C50.9797 106.865 50.7629 106.865 50.546 106.865Z" fill="#42D4C6"/>
<path d="M19.1056 90.1694C19.3224 91.1451 20.8403 92.1209 21.9244 91.7956C22.6833 91.5788 23.117 90.603 22.7918 89.6273C22.4665 88.4347 21.816 88.1095 20.6235 88.3263C19.6477 88.5432 18.8888 89.4105 19.1056 90.1694Z" fill="#42D4C6"/>
<path d="M49.0282 95.4819C48.4862 95.4819 47.9441 96.1324 47.9441 96.9997C48.2693 97.1082 48.703 97.4334 49.1367 97.4334C49.6787 97.4334 50.004 96.9997 49.8956 96.4577C49.8956 96.024 49.6787 95.4819 49.0282 95.4819Z" fill="#42D4C6"/>
<path d="M45.8842 105.782C46.6431 105.998 47.402 106.215 48.1609 106.432C47.7272 105.782 46.7515 105.565 45.8842 105.782Z" fill="#42D4C6"/>
<path d="M30.2724 99.2767C30.706 98.9515 30.3808 98.5178 30.164 98.301C30.0555 98.1926 29.5135 98.0841 29.405 98.301C29.2966 98.4094 29.1882 98.7346 29.1882 98.9515C29.5135 99.0599 29.7303 99.2767 30.0555 99.3851C30.164 99.3851 30.2724 99.3851 30.2724 99.2767Z" fill="#42D4C6"/>
<path d="M2.19287 31.7342C1.86763 31.6258 1.54238 31.4089 1.0003 31.5173C0.458226 31.6258 -0.517517 32.1678 -0.734347 32.9267C-0.951178 33.6856 -0.842769 34.4445 -0.300693 34.8782C0.132967 35.4203 0.891873 35.4203 1.32553 35.3119C1.75919 35.2035 2.62654 34.7698 2.73495 34.1193C2.95178 33.4688 3.38543 32.8183 3.06018 32.2762C2.73494 31.8426 2.51812 31.7342 2.19287 31.7342Z" fill="#42D4C6"/>
<path d="M20.1897 66.7518C19.9729 66.4266 18.7803 66.3182 18.4551 66.7518C18.0214 67.1855 18.3467 67.5108 18.5635 67.836C18.9971 68.2697 19.6477 68.3781 19.9729 67.836C20.0813 67.5108 20.4065 67.0771 20.1897 66.7518Z" fill="#42D4C6"/>
<path d="M4.03589 39.865C3.92748 39.7566 3.71065 39.7566 3.60224 39.865C3.49382 39.9734 3.38541 40.1902 3.60224 40.4071C3.81907 40.5155 4.0359 40.4071 4.14431 40.4071C4.14431 40.1902 4.03589 39.865 4.03589 39.865Z" fill="#42D4C6"/>
<path d="M4.36117 43.6596C3.92751 44.0933 3.81909 44.9606 4.25275 45.3943C4.68641 45.8279 5.66213 45.8279 6.20421 45.3943C6.63787 44.9606 6.63787 44.3101 6.20421 43.768C5.77055 43.2259 4.90325 43.1175 4.36117 43.6596Z" fill="#42D4C6"/>
<path d="M-0.517491 10.3758C-1.38481 10.9179 -1.60164 11.8936 -1.05957 12.7609C-0.409076 13.8451 0.675056 14.1703 1.86762 13.5198C2.73494 12.9778 3.16862 11.6768 2.73496 10.8094C2.19289 9.83371 0.56666 9.61688 -0.517491 10.3758Z" fill="#42D4C6"/>
<path d="M8.48102 26.4213C9.13151 26.096 9.67357 24.3614 9.34833 23.8193C8.80625 23.0604 8.04737 22.952 7.07164 23.4941C6.31273 24.0361 6.2043 24.7951 6.85479 25.7708C7.28845 26.5297 7.93894 26.7465 8.48102 26.4213Z" fill="#42D4C6"/>
<path d="M0.349777 24.0364C-0.192299 24.4701 -0.409123 25.5542 -0.0838772 26.0963C0.349783 26.7468 2.19284 27.2889 2.6265 26.9636C3.27699 26.53 3.277 25.1206 2.73492 24.2533C2.19285 23.3859 1.32551 23.3859 0.349777 24.0364Z" fill="#42D4C6"/>
<path d="M3.06016 46.5865C2.73491 46.8033 2.84332 47.3454 2.95173 47.4538C3.16856 47.6706 3.27699 47.9958 3.71065 47.779C4.0359 47.5622 4.03588 47.2369 3.92746 47.1285C3.71063 46.9117 3.3854 46.478 3.06016 46.5865Z" fill="#42D4C6"/>
<path d="M12.3839 69.5708C12.0586 69.7877 11.9502 70.1129 11.8418 70.3298C12.0586 71.1971 12.7091 71.5223 13.1428 71.3055C13.468 71.0887 13.7933 70.655 13.7933 70.3298C13.7933 69.7877 12.9259 69.2456 12.3839 69.5708Z" fill="#42D4C6"/>
<path d="M15.8532 64.801C15.2027 64.9094 14.769 65.8851 14.9858 66.9693C15.2027 67.0777 15.5279 67.5114 15.9616 67.4029C16.8289 67.4029 17.4794 66.644 17.4794 65.9935C17.2626 65.3431 16.3952 64.6926 15.8532 64.801Z" fill="#42D4C6"/>
<path d="M14.1185 62.6319C13.6849 62.7404 13.1428 63.2824 13.0344 63.7161C12.926 64.2582 13.3596 64.475 13.5765 64.475C13.9017 64.475 14.2269 64.2582 14.5522 63.9329C14.769 63.7161 15.0943 63.4993 15.2027 63.0656C15.0943 62.6319 14.5522 62.4151 14.1185 62.6319Z" fill="#42D4C6"/>
<path d="M18.6719 61.982C18.2383 61.7651 17.8046 61.8735 17.4793 62.0904C16.9373 62.4156 16.8289 63.1745 17.2625 63.6082C17.6962 64.0418 18.2383 64.0419 18.6719 63.825C19.1056 63.4998 19.1056 62.1988 18.6719 61.982Z" fill="#42D4C6"/>
<path d="M6.421 50.9237C6.63783 50.7069 6.42099 49.6227 6.20415 49.6227C5.87891 49.5143 5.01161 49.4059 4.90319 49.6227C4.79478 49.8396 4.79475 50.5985 5.01158 50.8153C5.33683 51.0321 6.20417 51.249 6.421 50.9237Z" fill="#42D4C6"/>
<path d="M4.14432 52.875C3.38541 53.2002 2.62652 53.4171 2.73493 54.2844C2.84335 54.9349 3.27698 55.3685 3.92747 55.3685C4.46955 55.477 4.90322 55.2601 5.12005 54.7181C5.44529 53.9592 4.90322 53.4171 4.14432 52.875Z" fill="#42D4C6"/>
<path d="M4.68642 59.5965C4.79483 60.8974 5.44532 61.5479 6.31264 61.8732C6.7463 61.9816 7.07156 61.7648 7.50522 61.4395C7.83046 61.9816 8.37252 62.3068 8.80618 62.3068C9.23984 62.1984 9.78194 61.1143 9.67352 60.5722C9.5651 60.0301 9.13144 59.7049 8.58937 59.5965C8.69778 58.7291 7.83046 57.5366 6.96314 57.4282C6.09582 57.2113 4.578 58.2955 4.68642 59.5965Z" fill="#42D4C6"/>
<path d="M9.78197 73.3655C9.78197 73.4739 9.67355 73.6907 9.67355 73.7991C9.45672 73.5823 9.13148 73.4739 8.69782 73.5823C8.04733 73.6907 7.93892 74.2328 8.15575 74.7749C8.26416 75.1001 8.80624 76.0758 9.2399 75.859C9.67356 75.7506 9.89037 74.9917 9.99878 74.558C10.1072 74.6664 10.1072 74.6664 10.2156 74.7749C10.7577 75.2085 11.5166 75.2085 11.9503 74.7749C12.6008 74.0159 12.2755 73.257 11.9503 72.6065C10.6493 72.3897 10.1072 72.6065 9.78197 73.3655Z" fill="#42D4C6"/>
<path d="M10.4324 60.3559C10.1072 60.5727 9.78193 61.0064 9.89035 61.3316C9.99876 62.1989 10.7577 62.0905 11.4082 62.1989C11.8418 61.5485 12.0586 61.0064 11.5166 60.4643C11.1913 60.2475 10.6493 60.2475 10.4324 60.3559Z" fill="#42D4C6"/>
<path d="M66.6999 108.6C67.8925 108.6 69.0851 108.6 70.2776 108.492C70.386 108.383 70.4945 108.166 70.4945 107.95C70.8197 108.275 71.2534 108.275 71.7954 108.058C72.4459 107.733 72.6628 106.974 72.2291 106.323C71.9038 105.781 71.145 105.673 70.4945 106.106C70.3861 106.215 70.2776 106.323 70.1692 106.432C69.844 106.106 69.3019 105.998 68.6514 106.106C68.1093 106.215 67.4589 106.649 67.242 107.082C66.9168 107.082 66.4831 107.299 66.0494 107.624C65.7242 107.841 65.5074 108.166 65.2905 108.6C65.7242 108.6 66.2663 108.6 66.6999 108.6Z" fill="#42D4C6"/>
<path d="M103.127 87.8929C102.911 88.0013 102.477 88.4349 102.694 88.7602C102.911 89.0854 103.453 88.977 103.561 88.8686C103.778 88.6518 104.103 88.4349 103.886 88.1097C103.561 87.676 103.236 87.7845 103.127 87.8929Z" fill="#42D4C6"/>
<path d="M67.3504 103.505C67.8925 103.071 68.0009 102.204 67.5672 101.77C67.1336 101.228 66.5915 101.336 66.1578 101.662C65.5074 102.095 65.3989 102.854 65.8326 103.396C66.1578 103.83 66.9167 103.938 67.3504 103.505Z" fill="#42D4C6"/>
<path d="M70.9281 74.8828C70.8197 74.7744 70.6028 74.5576 70.1691 74.7744C69.7355 74.9912 69.6271 76.1838 70.1691 76.7259C70.7112 77.1595 71.7954 76.9427 71.9038 76.1838C72.0122 75.7501 71.3617 75.3165 70.9281 74.8828Z" fill="#42D4C6"/>
<path d="M70.9281 84.8572C70.1692 85.2909 69.8439 86.375 70.1692 86.9171C70.6028 87.5676 71.7954 87.8928 72.3375 87.5676C72.988 87.1339 72.988 85.9414 72.3375 85.0741C71.9038 84.532 71.3617 84.532 70.9281 84.8572Z" fill="#42D4C6"/>
<path d="M97.5982 93.7474C97.9234 93.639 98.0318 93.2053 97.7066 92.4464C97.3813 91.6875 96.8393 91.3623 95.972 91.5791C94.9962 91.796 94.4541 92.9885 94.7794 93.9643C95.1046 94.94 95.7551 94.94 95.8635 95.5905C95.9719 96.241 96.4056 96.3494 97.1645 96.4578C97.9234 96.5662 99.0076 96.4578 99.0076 95.4821C99.0076 94.5063 98.3571 94.2895 98.0318 94.3979C97.7066 94.2895 97.273 93.9643 97.5982 93.7474Z" fill="#42D4C6"/>
<path d="M17.6962 80.8465C17.4794 80.8465 17.2625 81.0633 17.0457 81.2801C16.612 81.1717 16.1784 81.2801 15.9616 81.4969C14.9858 82.3643 14.6606 83.5568 15.2027 84.2073C15.7447 84.7494 17.2626 84.7494 17.913 84.2073C18.1299 83.9905 18.2383 83.6652 18.2383 83.2316C18.8888 83.1232 19.214 82.5811 19.1056 82.039C18.9972 81.1717 18.3467 80.738 17.6962 80.8465Z" fill="#42D4C6"/>
<path d="M71.6869 104.155C72.6626 104.047 73.0963 103.505 72.9879 102.421C72.3374 101.987 71.6869 101.662 71.1448 102.421C70.6028 103.179 71.0364 103.722 71.6869 104.155Z" fill="#42D4C6"/>
<path d="M69.9523 91.6875C70.386 92.0128 71.1449 91.7959 71.3617 91.3623C71.687 90.8202 71.3617 89.7361 70.386 89.8445C69.4102 90.1697 69.4103 91.3623 69.9523 91.6875Z" fill="#42D4C6"/>
<path d="M62.5801 87.1344C62.7969 87.026 63.2306 87.026 63.1221 86.5924C63.1221 86.1587 62.6885 86.1587 62.5801 86.1587C62.3632 86.1587 61.7128 86.3755 61.8212 86.7008C61.9296 87.026 62.4716 87.1344 62.5801 87.1344Z" fill="#42D4C6"/>
<path d="M20.4066 70.7632C20.6235 71.739 21.4908 72.3895 22.2497 72.2811C23.3339 71.9558 24.2011 70.6548 23.9843 69.6791C23.8759 69.0286 22.7918 68.4865 22.0329 68.5949C20.7319 68.7034 20.1898 69.5707 20.4066 70.7632Z" fill="#42D4C6"/>
<path d="M22.9002 57.2114C22.7918 57.2114 22.575 57.4283 22.575 57.6451C22.4665 57.6451 22.2497 57.7535 22.1413 57.8619C21.7076 58.1872 21.5992 59.1629 21.9245 59.4881C22.2497 59.8134 23.0086 59.705 23.5507 59.1629C23.9843 58.8377 23.9843 58.404 23.5507 58.0787V57.9703C23.5507 57.7535 23.2254 57.2114 22.9002 57.2114Z" fill="#42D4C6"/>
<path d="M36.3436 74.0156C36.2352 73.9072 35.6931 73.7988 35.5847 73.9072C35.3679 74.0156 35.0427 74.5577 35.2595 74.883C35.4763 75.0998 36.0184 74.9914 36.2352 74.883C36.0184 75.2082 36.0184 75.6419 36.1268 75.9671C36.2352 76.1839 36.6689 76.4008 36.9941 76.4008C37.6446 76.4008 38.2951 76.2923 38.9456 76.1839C39.4877 76.0755 39.5961 75.7503 39.4877 75.0998C39.3793 74.9914 39.1624 74.7745 39.054 74.7745C38.4035 74.883 37.9699 74.5577 37.4278 74.2325C37.211 74.124 36.6689 74.3409 36.3436 74.5577C36.4521 74.4493 36.4521 74.124 36.3436 74.0156Z" fill="#42D4C6"/>
<path d="M53.4732 74.3411C53.9069 74.3411 53.9068 73.6906 53.7984 73.5821C53.69 73.3653 53.4732 73.0401 53.148 73.1485C52.8227 73.2569 52.7143 73.5821 52.8227 73.6906C52.8227 73.9074 53.0395 74.3411 53.4732 74.3411Z" fill="#42D4C6"/>
<path d="M52.606 88.1097C52.2807 88.0013 51.9554 88.1097 51.6302 88.2181C51.0881 88.5434 51.0881 89.6275 51.7386 90.6032C51.9554 90.6032 52.4975 90.8201 52.8228 90.6032C52.8228 90.6032 52.8228 90.6032 52.9312 90.4948C53.0396 90.8201 53.2564 91.0369 53.7985 91.2537C54.449 91.579 55.4248 92.0126 55.8584 91.1453C56.2921 90.278 55.75 89.8443 55.4247 89.7359C55.0995 89.6275 54.8827 89.0854 55.2079 89.0854C55.5332 89.0854 55.8584 88.7602 55.8584 87.8929C55.8584 87.0255 55.5332 86.4835 54.6658 86.375C53.6901 86.2666 52.7144 87.0255 52.606 88.1097Z" fill="#42D4C6"/>
<path d="M41.8728 74.4497C42.0897 75.3171 42.7402 75.7507 43.8243 75.5339C44.5832 75.3171 45.0169 74.8834 45.0169 74.2329C44.9085 73.474 43.6075 72.3898 42.957 72.4983C42.0897 72.6067 41.656 73.3656 41.8728 74.4497Z" fill="#42D4C6"/>
<path d="M61.0623 89.1938C60.6286 88.6517 59.4361 88.5433 58.7856 89.0854C57.8098 89.8443 57.593 90.82 58.3519 91.7958C58.894 92.4463 59.7613 92.7715 60.4118 92.4463C60.4118 92.4463 60.4118 92.5547 60.5202 92.5547C60.9539 92.8799 61.7128 92.6631 61.9296 92.2294C62.2549 91.7958 62.038 91.4705 61.3875 90.9285C61.3875 90.278 61.3875 89.6275 61.0623 89.1938Z" fill="#42D4C6"/>
<path d="M44.4748 67.5106C44.3664 66.8601 43.8243 66.6433 43.2823 66.7517C42.7402 66.8601 42.4149 67.1854 42.5233 67.8359C42.5233 68.4864 42.957 68.92 43.4991 68.8116C44.1496 68.7032 44.5832 68.0527 44.4748 67.5106Z" fill="#42D4C6"/>
<path d="M93.5868 84.7489C94.3457 84.4236 95.3214 84.4236 95.8635 83.4479C95.7551 83.0142 95.7552 82.689 95.6467 82.2553C96.4056 81.388 96.7309 80.3038 96.2972 79.8702C95.972 79.4365 95.4299 79.3281 94.8878 79.5449C93.9121 79.9786 93.8037 80.4123 94.0205 81.6048C93.4784 82.2553 93.0448 82.9058 92.7195 83.5563C92.2859 84.3152 92.9363 85.0741 93.5868 84.7489Z" fill="#42D4C6"/>
<path d="M2.62651 74.5582C2.62651 74.4498 2.62651 74.4498 2.62651 74.5582C2.84334 73.474 3.38541 73.0404 4.14432 72.7151C4.79481 72.0646 5.12006 71.0889 4.79482 70.5468C4.6864 70.33 4.36114 70.1132 3.92747 69.8963C4.36114 69.6795 4.90323 69.4627 4.79482 69.029C4.79482 68.3785 3.71067 68.1617 3.27701 67.728C3.1686 67.8364 3.06016 67.8364 2.95175 67.9449C2.51808 68.4869 2.5181 68.8122 2.73493 69.3543C2.73493 69.4627 2.84332 69.5711 2.84332 69.6795C2.62649 69.6795 2.40969 69.6795 2.19286 69.7879C1.65078 70.0047 0.891877 70.33 1.10871 70.9805C1.21712 71.4141 1.21712 71.7394 1.10871 72.0646C1.54237 72.932 2.08444 73.6909 2.62651 74.5582Z" fill="#42D4C6"/>
<path d="M103.886 94.6145C104.32 94.723 104.97 94.1809 105.079 93.7472C105.187 93.0967 104.754 92.8799 103.561 92.7715C102.694 93.422 103.236 94.5061 103.886 94.6145Z" fill="#42D4C6"/>
<path d="M58.3519 81.8219C58.6772 81.6051 58.4603 81.063 58.2435 80.8462C58.1351 80.7378 57.7014 80.6294 57.593 80.7378C57.4846 80.8462 57.4846 81.2798 57.4846 81.6051C57.593 81.6051 58.0267 81.9303 58.3519 81.8219Z" fill="#42D4C6"/>
<path d="M49.6787 98.3005C49.1366 98.6258 48.8114 99.0594 48.5946 99.6015C48.3777 100.36 48.4861 101.011 48.9198 101.878C49.3535 102.637 49.0282 103.504 49.7871 104.047C50.7629 104.805 52.6059 105.456 54.2322 104.263C55.3163 103.504 55.6416 102.637 55.75 101.77C55.75 101.336 55.5331 101.119 55.3163 100.794C55.75 100.794 56.292 100.686 56.6173 100.469C56.7257 100.36 56.9425 100.144 56.9425 99.9268C56.7257 100.577 56.7257 101.228 57.3762 101.553C57.9183 101.878 58.5688 101.77 59.0024 101.228C59.2193 100.903 59.3277 100.252 59.1108 99.9268C58.5688 99.1679 57.8098 99.2763 57.0509 99.6015C57.1593 99.2763 57.1594 98.8426 56.9425 98.5174C56.2921 97.5416 55.0995 97.108 54.449 97.5416C54.1237 97.7585 53.9069 98.3005 53.9069 98.8426C52.9312 96.9996 51.0881 97.3248 49.6787 98.3005Z" fill="#42D4C6"/>
<path d="M54.8826 94.181C55.4247 93.8557 55.2079 93.3136 54.8826 92.88C54.5574 92.4463 53.7985 92.2295 53.4732 92.6631C53.2564 92.9884 52.6059 93.7473 53.148 94.181C53.7985 94.723 54.5574 94.3978 54.8826 94.181Z" fill="#42D4C6"/>
<path d="M16.2869 71.5222C16.829 71.5222 16.9374 70.8717 16.829 70.438C16.7205 69.8959 16.07 69.4623 15.6364 69.6791C15.3111 69.8959 14.4438 70.2212 14.6606 70.8717C14.9859 71.5222 15.8532 71.5222 16.2869 71.5222Z" fill="#42D4C6"/>
<path d="M17.5878 89.4108C17.8046 89.0855 18.0215 88.5435 17.9131 87.7845C17.8047 86.3751 16.1784 85.5078 15.3111 86.1583C14.5522 86.8088 14.6606 87.4593 14.3353 87.4593C14.1185 87.4593 13.7933 87.2425 13.3596 87.2425C15.0943 88.9771 16.9373 90.4949 18.8888 92.0127C19.214 91.2538 19.214 90.2781 18.8888 89.8444C18.5636 89.5192 18.0215 89.3024 17.5878 89.4108Z" fill="#42D4C6"/>
<path d="M13.0344 76.8345C13.1428 77.4849 14.3354 78.1354 15.0943 78.027C15.7448 77.9186 16.2868 77.1597 16.1784 76.6176C16.07 76.184 15.9616 75.8587 15.7448 75.5335C16.2868 75.5335 16.6121 74.883 16.9373 74.3409C16.3952 73.582 15.9616 72.9315 15.0943 73.2568C14.769 73.3652 14.4438 73.9072 14.4438 74.2325C14.4438 74.3409 14.5522 74.5577 14.6606 74.6662C14.5522 74.6662 14.4438 74.6662 14.3353 74.6662C13.5764 74.7746 12.926 75.9671 13.0344 76.8345Z" fill="#42D4C6"/>
<path d="M5.66214 75.8589C5.44531 74.8832 4.46958 73.9075 3.60226 74.1243C3.27701 74.2327 2.95177 74.4495 2.62653 74.6664C3.71068 76.1842 4.79483 77.702 5.87898 79.1114C6.09581 79.003 6.31264 78.8945 6.42106 78.7861C6.85472 78.3525 6.85471 77.702 6.31263 77.1599C5.98739 76.8347 5.77057 76.6178 5.44533 76.5094C5.66216 76.2926 5.66214 76.0758 5.66214 75.8589Z" fill="#42D4C6"/>
<path d="M26.6947 95.807C27.0199 97.3248 28.2125 98.1922 29.5135 97.8669C30.4892 97.6501 31.0313 96.9996 31.1397 96.0239C31.2481 96.0239 31.3566 96.0239 31.465 96.0239C32.4407 95.807 33.1996 94.506 32.9828 93.4219C32.8744 93.0966 32.766 92.7714 32.4407 92.4461C32.6576 92.4461 32.8744 92.3377 33.0912 92.2293C33.5249 91.7957 33.5249 90.8199 33.0912 90.4947C32.6576 90.061 31.7902 90.061 31.2482 90.4947C30.9229 90.8199 30.8145 91.2536 30.9229 91.6872C30.7061 91.6872 30.5977 91.6872 30.3808 91.6872C29.4051 91.9041 28.6462 92.663 28.4294 93.4219C27.3452 93.7471 26.4779 94.8313 26.6947 95.807Z" fill="#42D4C6"/>
<path d="M8.26412 49.9479C8.91461 50.5984 9.78194 50.49 10.6493 49.6227C11.0829 49.0806 11.1913 47.9964 10.7577 47.5628C10.2156 47.0207 8.37254 46.8039 7.93888 47.2375C7.28839 47.888 7.50521 49.189 8.26412 49.9479Z" fill="#42D4C6"/>
<path d="M27.5621 85.8331C26.8032 86.2668 26.9116 86.9172 27.3452 87.5677C28.321 87.893 28.863 87.6762 29.2967 86.592C28.7546 86.0499 28.321 85.3994 27.5621 85.8331Z" fill="#42D4C6"/>
<path d="M10.2156 42.5753C10.5408 42.2501 9.99877 41.1659 9.78194 40.8407C9.4567 40.407 8.91461 40.407 8.58937 40.9491C8.26412 41.3827 8.04729 41.9248 8.48095 42.2501C8.80619 42.4669 9.89035 42.9005 10.2156 42.5753Z" fill="#42D4C6"/>
<path d="M30.2725 82.3642C30.4893 81.9305 30.164 81.4968 29.9472 81.1716C29.6219 80.7379 29.1883 80.6295 28.7547 81.0632C28.4294 81.4968 28.1041 81.9305 28.5378 82.4726C28.8631 82.9062 30.164 82.7978 30.2725 82.3642Z" fill="#42D4C6"/>
<path d="M20.9486 84.9656C20.1897 85.6161 20.1897 87.2424 20.9486 88.0013C21.3823 88.5433 22.4664 88.4349 23.0085 87.7844C23.7674 87.0255 23.8759 86.0498 23.2254 85.2909C23.2254 85.2909 23.2254 85.2909 23.1169 85.1825C23.3338 85.1825 23.4422 85.1825 23.659 85.1825C24.3095 84.9656 24.7432 84.3151 24.5263 83.6647C24.3095 83.0142 23.8759 82.9058 23.2254 83.0142C22.4665 83.1226 22.0328 83.7731 22.2496 84.4236C22.2496 84.532 22.358 84.6404 22.4664 84.7488C21.9244 84.532 21.2739 84.6404 20.9486 84.9656Z" fill="#42D4C6"/>
<path d="M4.79487 18.5075C4.46963 18.399 3.92755 18.5075 3.6023 18.8327C3.38547 19.0495 3.38546 19.5916 3.49388 19.8084C3.71071 20.3505 4.03597 21.001 4.36122 21.5431C4.68647 21.9767 5.01168 21.9767 5.55376 21.6515C5.55376 21.5431 5.7706 21.2178 5.66218 21.1094C5.33694 20.5673 5.44534 20.0253 5.55376 19.3748C5.55376 19.1579 5.12012 18.6159 4.79487 18.5075Z" fill="#42D4C6"/>
<path d="M18.3467 52.875C18.2383 53.0918 18.1299 53.5255 18.2383 53.6339C18.3467 53.8507 18.7804 54.176 19.2141 53.8507C19.6477 53.5255 19.214 53.0918 19.1056 52.875C18.8888 52.875 18.4552 52.875 18.3467 52.875Z" fill="#42D4C6"/>
<path d="M16.9373 14.9296C16.3952 15.3632 16.6121 16.5558 17.371 16.6642C17.6962 16.7726 18.2383 16.1221 18.6719 15.6885C18.7803 15.5801 19.1056 15.3632 18.7804 14.9296C18.5635 14.7127 17.3709 14.4959 16.9373 14.9296Z" fill="#42D4C6"/>
<path d="M19.5393 39.2144C18.9972 39.6481 19.1056 40.1901 19.5393 40.407C19.8645 40.6238 20.8402 41.0575 21.0571 40.8406C21.2739 40.6238 21.1655 39.6481 20.9486 39.2144C20.7318 38.7807 20.0813 38.7807 19.5393 39.2144Z" fill="#42D4C6"/>
<path d="M12.8175 55.5851C11.8418 56.344 11.9502 57.7534 12.926 58.946C13.6849 59.9217 14.9858 60.0302 15.9616 59.1628C16.8289 58.4039 16.9373 56.6693 16.1784 55.802C15.4195 54.9347 13.7933 54.8262 12.8175 55.5851Z" fill="#42D4C6"/>
<path d="M12.926 2.02776C12.8176 2.02776 12.3839 2.56983 12.6007 2.78666C12.8175 3.11191 13.3596 2.89508 13.5765 2.78666C13.6849 2.67825 13.9017 2.353 13.7933 2.13617C13.5764 1.91934 13.1428 1.91934 12.926 2.02776Z" fill="#42D4C6"/>
<path d="M22.9001 75.1C23.5506 74.4495 23.659 73.0402 23.117 72.4981C22.6833 72.0644 21.2739 72.2812 20.6234 72.9317C20.1898 73.3654 20.1897 74.4495 20.7318 74.8832C20.8402 74.9916 20.9487 75.1 21.1655 75.1C20.2982 75.4253 19.7561 76.2926 19.8645 77.2683C19.9729 78.5693 21.3823 79.6535 22.6833 79.5451C23.7675 79.4366 24.8516 77.9188 24.7432 76.7263C24.5264 75.9674 23.8759 75.3169 22.9001 75.1Z" fill="#42D4C6"/>
<path d="M10.6493 38.4557C9.99877 37.9136 9.45668 37.3715 8.80619 37.0463C8.1557 36.6126 7.39681 37.1547 7.50523 37.9136C7.72206 38.7809 7.72206 39.7567 8.6978 40.2987C9.13146 40.2987 9.45668 40.1903 9.89034 40.1903C10.6492 40.9492 11.7334 41.3829 12.2755 40.9492C12.7091 40.624 12.8175 40.0819 12.6007 39.5398C12.2755 38.4557 11.8418 38.2389 10.6493 38.4557Z" fill="#42D4C6"/>
<path d="M14.3354 33.9021C13.9017 34.3358 14.3354 36.2872 14.9859 36.5041C15.6364 36.7209 16.6121 35.3115 16.1785 34.5526C15.8532 33.9021 14.8775 33.4684 14.3354 33.9021Z" fill="#42D4C6"/>
<path d="M15.0943 -0.465316C14.8774 -0.3569 14.6606 0.0767599 14.769 0.29359C14.8774 0.618836 15.4195 0.618835 15.5279 0.51042C15.7448 0.402005 16.1784 -0.14007 15.9616 -0.3569C15.9616 -0.682145 15.3111 -0.573731 15.0943 -0.465316Z" fill="#42D4C6"/>
<path d="M13.4681 21.6514C12.926 21.8682 12.7092 22.5187 12.926 22.9524C13.2512 23.4944 14.0101 23.7113 14.4438 23.386C14.9859 23.0608 14.9859 22.5187 14.769 21.9766C14.4438 21.543 14.0101 21.4346 13.4681 21.6514Z" fill="#42D4C6"/>
<path d="M29.6219 56.886C30.0556 57.4281 30.8145 57.4281 31.3565 56.9944C31.8986 56.5608 32.007 56.0187 31.465 55.4766C31.0313 54.9345 30.2724 54.8261 29.7303 55.2598C29.2967 55.585 29.1882 56.4523 29.6219 56.886Z" fill="#42D4C6"/>
<path d="M28.3209 67.5106C27.8873 67.9442 27.7789 69.2452 28.2125 69.6789C28.6462 70.1126 29.5135 70.1126 29.9472 69.5705C30.3808 69.1368 30.3808 68.3779 29.8388 67.8358C29.4051 67.2938 28.7546 67.1853 28.3209 67.5106Z" fill="#42D4C6"/>
<path d="M31.6818 49.406C31.8986 49.2976 32.007 48.5387 31.7902 48.3219C31.6818 48.105 30.8144 47.6714 30.4892 47.8882C30.2724 48.105 30.3808 48.9724 30.4892 49.0808C30.8144 49.2976 31.3565 49.5144 31.6818 49.406Z" fill="#42D4C6"/>
<path d="M31.8986 67.4028C31.7901 67.5112 31.6817 67.728 31.8986 67.9448C32.1154 68.0532 32.3322 67.9448 32.4406 67.9448C32.5491 67.9448 32.4406 67.5112 32.4406 67.5112C32.2238 67.2943 32.007 67.2943 31.8986 67.4028Z" fill="#42D4C6"/>
<path d="M26.8031 76.6177C27.0199 77.5934 27.7788 78.1355 28.863 78.0271C30.1639 77.8102 30.8144 76.9429 30.5976 75.5335C30.4892 74.4494 29.405 73.6905 28.4293 73.7989C27.3452 73.9073 26.5862 75.3167 26.8031 76.6177Z" fill="#42D4C6"/>
<path d="M23.4422 80.7372C23.0085 81.1709 22.9002 82.0382 23.3338 82.4719C23.7675 82.9055 24.7432 82.9055 25.2853 82.4719C25.7189 82.0382 25.7189 81.3877 25.2853 80.8457C24.7432 80.3036 23.9843 80.1952 23.4422 80.7372Z" fill="#42D4C6"/>
<path d="M24.418 60.3555C24.2012 60.3555 23.9843 60.7891 23.9843 61.1144C23.9843 61.2228 24.3096 61.7649 24.6348 61.6565C24.9601 61.6565 24.9601 61.006 24.9601 60.7891C24.9601 60.6807 24.6348 60.3555 24.418 60.3555Z" fill="#42D4C6"/>
<path d="M24.4179 90.278C23.9843 90.7117 23.8759 91.4706 24.3095 92.0127C24.7432 92.5548 25.2852 92.6632 25.8273 92.2295C26.261 91.9043 26.4778 91.3622 26.3694 90.9285C26.6946 90.7117 26.9115 90.2781 26.9115 89.8444C26.8031 89.1939 26.1526 88.7602 25.5021 88.8687C24.7432 89.0855 24.3095 89.6276 24.4179 90.278Z" fill="#42D4C6"/>
<path d="M26.6947 65.4509C26.4779 65.5594 26.1527 66.2098 26.3695 66.4267C26.5863 66.6435 27.1284 66.5351 27.2368 66.3183C27.4536 66.1014 27.7789 65.6678 27.5621 65.4509C27.3452 65.3425 26.9115 65.3425 26.6947 65.4509Z" fill="#42D4C6"/>
<path d="M108.765 93.5301C108.006 94.289 107.789 95.2648 108.006 96.2405C108.006 96.3489 108.115 96.4573 108.115 96.5658C109.524 95.6984 110.825 94.8311 112.126 93.8554C111.909 93.747 111.692 93.5301 111.584 93.4217C110.608 92.9881 109.415 92.9881 108.765 93.5301Z" fill="#42D4C6"/>
<path d="M111.692 88.1099C110.933 88.7604 111.475 89.8445 112.126 89.953C112.559 90.0614 113.21 89.5193 113.318 89.0856C113.318 88.4351 112.559 87.5678 111.692 88.1099Z" fill="#42D4C6"/>
<path d="M66.2662 93.639C65.941 93.5305 65.7242 93.5305 65.3989 93.639C64.7484 93.8558 64.3148 94.2894 63.9895 94.8315C63.2306 94.5063 62.2549 94.5063 61.1707 95.1568C60.195 95.8072 59.8698 96.9998 60.5202 97.9756C61.1707 99.0597 62.9054 99.4934 63.9895 98.8429C64.4232 98.626 64.64 98.1924 64.8569 97.6503C65.5073 97.8671 66.2662 97.8671 66.9167 97.4335C67.1336 97.3251 67.3504 97.2167 67.6757 96.9998C67.8925 97.4335 68.1093 97.8671 68.4345 98.3008C68.9766 99.0597 69.4103 99.1681 70.2776 98.8429C71.0365 98.5176 71.4702 97.8671 71.3618 96.9998C71.3618 96.1325 70.7113 95.6988 70.0608 95.482C69.5187 95.2652 68.9766 95.3736 68.4345 95.2652C68.4345 95.1568 68.3261 95.1568 68.3261 95.0483C68.6514 95.0483 68.8682 94.9399 69.1935 94.7231C70.2776 93.9642 70.4944 92.88 69.7355 91.6875C69.1935 90.8202 67.8925 90.4949 67.0252 91.037C66.1578 91.5791 65.941 92.6632 66.2662 93.639Z" fill="#42D4C6"/>
<path d="M10.7576 24.9035C10.6492 25.012 10.5408 25.4456 10.7576 25.554C10.866 25.7709 11.4081 25.6624 11.6249 25.554C11.7334 25.4456 12.0586 25.012 11.8418 24.6867C11.5165 24.4699 10.9745 24.7951 10.7576 24.9035Z" fill="#42D4C6"/>
<path d="M11.4082 34.2272C11.1913 34.0104 10.7577 34.1188 10.6492 34.2272C10.4324 34.3356 10.1072 34.9861 10.324 35.2029C10.5408 35.4198 11.1913 35.3114 11.2997 35.0945C11.5166 34.9861 11.625 34.6609 11.4082 34.2272C11.7334 34.5524 12.1671 34.3356 12.2755 34.2272C12.3839 34.0104 12.6007 33.7935 12.3839 33.4683C12.1671 33.143 11.8418 33.2515 11.7334 33.3599C11.625 33.5767 11.2997 33.902 11.4082 34.2272Z" fill="#42D4C6"/>
<path d="M10.8661 19.5914C10.5409 19.0493 9.67357 18.9409 9.1315 19.3745C8.58942 19.8082 8.26418 20.5671 8.58942 21.1092C8.91467 21.6512 10.1072 21.9765 10.4325 21.7597C11.083 21.326 11.2998 20.1334 10.8661 19.5914Z" fill="#42D4C6"/>
<path d="M32.6575 63.825C32.5491 64.0419 32.4407 64.4755 32.5491 64.5839C32.6575 64.8008 33.308 65.0176 33.5249 64.8008C33.6333 64.6924 33.5248 64.0419 33.4164 63.825C33.1996 63.825 32.6575 63.7166 32.6575 63.825Z" fill="#42D4C6"/>
<path d="M6.63786 14.2792C5.98737 14.7128 5.55373 15.9054 5.87898 16.4475C6.31264 17.098 7.39678 17.2064 8.37251 16.5559C8.91459 16.2307 9.02302 15.6886 8.69778 15.1465C8.26412 14.3876 7.28836 13.9539 6.63786 14.2792Z" fill="#42D4C6"/>
<path d="M2.62656 2.24481C1.75924 2.78688 1.43398 3.87103 1.86764 4.41311C2.51813 5.28043 4.03596 5.60568 4.90328 5.0636C5.44536 4.73836 5.66217 3.54579 5.22851 2.8953C4.57802 1.81115 3.60229 1.59432 2.62656 2.24481Z" fill="#42D4C6"/>
<path d="M85.781 96.7831C85.5642 96.6747 85.0221 96.6747 84.9137 96.9999C84.8053 97.3252 84.9137 97.6504 85.1305 97.7588C85.3474 97.8673 85.8894 97.7588 86.1063 97.542C86.2147 97.3252 85.9978 96.8915 85.781 96.7831Z" fill="#42D4C6"/>
<path d="M90.2259 98.3007C89.9007 98.4091 89.7923 98.6259 90.0091 98.9512C90.1175 99.2764 90.3343 99.3849 90.6596 99.168C90.9848 99.0596 91.0933 98.7344 90.8764 98.4091C90.768 98.1923 90.5512 98.1923 90.2259 98.3007Z" fill="#42D4C6"/>
<path d="M91.3101 102.095C90.8765 101.987 90.3344 101.662 89.7923 101.662C88.925 101.553 88.0577 102.095 87.8409 102.746C87.5156 103.722 87.8409 104.697 88.7082 105.131C88.8166 105.24 89.0334 105.24 89.1418 105.24C89.5755 105.131 90.1176 104.914 90.5513 104.806C91.4186 104.264 91.6354 103.396 91.3101 102.095Z" fill="#42D4C6"/>
<path d="M88.925 80.7379C89.1418 80.9547 89.467 81.28 89.9007 81.0631C90.2259 80.8463 90.0091 80.3042 89.9007 80.1958C89.6839 80.0874 89.3586 79.8706 89.0333 80.0874C88.7081 80.3042 88.8165 80.6295 88.925 80.7379Z" fill="#42D4C6"/>
<path d="M88.3829 89.5189C87.9493 89.8441 87.8408 90.061 87.8408 90.3862C87.7324 90.7115 87.5156 91.0367 87.7324 91.5788C87.9493 92.1208 88.4913 92.9882 89.2502 93.205C90.0091 93.4218 90.768 93.205 91.2017 92.6629C91.6353 92.1208 91.6354 91.4704 91.527 91.0367C91.4185 90.603 90.9849 89.8441 90.226 89.6273C89.4671 89.4105 88.8166 89.1936 88.3829 89.5189Z" fill="#42D4C6"/>
<path d="M81.9865 95.4821C81.5528 95.0485 80.6855 94.94 80.2518 95.2653C79.2761 96.0242 78.9508 96.9999 79.3845 97.6504C79.8182 98.3009 81.336 98.3009 81.9865 97.8672C82.3117 97.3252 82.4201 95.9158 81.9865 95.4821Z" fill="#42D4C6"/>
<path d="M80.2518 90.3863C79.4929 90.9283 79.4929 91.7957 80.2518 92.7714C80.6855 93.3135 81.7696 93.5303 82.3117 93.0967C82.9622 92.663 83.3958 90.8199 82.9622 90.2779C82.5285 89.6274 81.1191 89.7358 80.2518 90.3863Z" fill="#42D4C6"/>
<path d="M34.7174 69.7874C33.8501 69.8958 33.0912 70.7631 33.1996 71.4136C33.308 72.1725 34.2837 72.9314 34.9342 72.9314C35.6931 72.823 36.1268 71.7389 36.0184 70.6547C35.6931 69.8958 35.2595 69.679 34.7174 69.7874Z" fill="#42D4C6"/>
<path d="M79.6013 83.7732C78.8424 84.3153 78.7339 85.0742 79.4928 86.0499C80.0349 86.8088 80.7938 86.8088 81.7696 86.1583C82.4201 85.7247 82.6369 84.9658 82.3116 84.5321C81.7696 83.8816 80.0349 83.448 79.6013 83.7732Z" fill="#42D4C6"/>
<path d="M82.9622 100.578C82.0949 101.12 81.9864 101.77 82.6369 102.746C83.2874 103.613 84.0463 103.938 84.6968 103.505C85.2389 103.071 85.6725 101.336 85.2389 100.794C84.6968 100.035 83.8295 99.927 82.9622 100.578Z" fill="#42D4C6"/>
<path d="M89.9007 76.1843C89.2502 76.6179 88.9249 77.7021 89.3586 78.1357C89.7923 78.5694 91.7437 78.0273 91.9605 77.2684C92.069 76.6179 90.5512 75.859 89.9007 76.1843Z" fill="#42D4C6"/>
<path d="M-1.16798 54.284C-0.734319 54.8261 -0.083848 54.7177 0.675058 54.0672C1.43396 53.3083 1.65082 52.6578 1.10875 52.1157C0.349839 51.3568 -0.625904 51.2484 -1.16798 51.7905C-1.60164 52.2241 -1.60164 53.7419 -1.16798 54.284Z" fill="#42D4C6"/>
<path d="M-3.44474 42.6836C-2.46901 42.792 -2.25217 42.0331 -2.25217 41.8163C-2.25217 41.4911 -1.81851 41.0574 -1.71009 41.3826C-1.60168 41.7079 -1.16804 41.9247 -0.409131 41.5995C0.349775 41.2742 0.783462 40.8406 0.566632 39.9733C0.458217 39.3228 -0.0838656 38.8891 -0.625941 38.6723C-1.16802 38.347 -2.03533 38.347 -2.68582 38.7807C-2.90265 38.9975 -3.11948 39.2143 -3.2279 39.5396C-3.33631 39.5396 -3.44475 39.648 -3.55316 39.648C-4.20365 39.7564 -4.42047 40.1901 -4.42047 40.949C-4.42047 41.4911 -4.42048 42.5752 -3.44474 42.6836Z" fill="#42D4C6"/>
<path d="M77.4329 78.4612C76.9993 78.7865 76.8908 79.2201 77.1077 79.7622C77.4329 80.3043 77.975 80.5211 78.4087 80.1959C78.9507 79.8706 79.1676 79.1117 78.7339 78.6781C78.4087 78.136 77.8666 78.136 77.4329 78.4612Z" fill="#42D4C6"/>
<path d="M-1.71009 63.8246C-1.16801 64.4751 0.132955 64.5835 0.783446 64.0414C0.67503 64.6919 0.891867 65.5592 1.43394 66.1013C2.19285 66.8602 3.81907 66.7518 4.57798 65.9929C5.33688 65.234 5.33689 63.933 4.6864 63.2825C4.03591 62.632 2.6265 62.5236 1.75918 62.9573C1.86759 62.632 1.86759 62.3068 1.75918 61.9815C1.43393 61.331 3.1686 61.1142 2.73494 60.1385C2.40969 59.2711 3.27701 58.4038 2.73494 57.3197C2.73494 57.2113 2.62652 57.2113 2.62652 57.1028C3.06018 56.886 3.49384 56.3439 3.16859 55.6934C2.62652 54.8261 1.43394 55.3682 1.32552 56.0187V56.1271C0.891861 56.0187 0.566615 56.1271 0.24137 56.4524C-0.517536 57.2113 -0.51753 58.0786 -0.73436 59.1627C-0.842775 59.9216 0.132968 60.3553 -0.625938 60.789C-1.38484 61.2226 -2.90266 62.5236 -1.71009 63.8246Z" fill="#42D4C6"/>
<path d="M95.972 102.637C95.6467 102.203 95.3214 101.878 94.7794 102.203C94.3457 102.42 94.1289 102.962 94.3458 103.613C94.9962 103.396 95.5383 103.179 96.1888 102.854C95.972 102.745 95.972 102.745 95.972 102.637Z" fill="#42D4C6"/>
<path d="M44.8 92.9888C44.0411 92.5551 42.957 92.6635 42.5233 93.2056C41.8728 93.9645 41.7644 95.0487 42.3065 95.6992C42.5233 96.0244 43.0654 96.2412 43.499 96.2412C44.8 96.2412 45.6674 95.5907 45.8842 93.9645C45.6674 93.7477 45.2337 93.314 44.8 92.9888Z" fill="#42D4C6"/>
<path d="M75.1562 82.4722C74.6142 82.9059 74.6141 83.6648 75.0478 84.2069C75.4815 84.7489 76.3488 84.9658 76.7825 84.6405C77.2161 84.3153 77.5414 83.1227 77.3245 82.689C76.8909 82.2554 75.6983 82.0386 75.1562 82.4722Z" fill="#42D4C6"/>
<path d="M46.5346 90.1694C46.2094 90.1694 45.9926 90.3863 45.9926 90.7115C45.9926 91.0368 46.101 91.2536 46.5346 91.2536C46.8599 91.2536 47.0767 91.0368 47.0767 90.7115C47.0767 90.2778 46.9683 90.1694 46.5346 90.1694Z" fill="#42D4C6"/>
<path d="M48.5945 81.388C48.0525 81.4964 47.8356 81.7132 47.7272 81.9301C47.5104 82.2553 47.1851 82.3637 47.0767 82.9058C46.9683 83.4479 47.1851 84.532 47.8356 85.0741C48.4861 85.6162 49.1366 85.7246 49.7871 85.3993C50.4376 85.1825 50.7628 84.532 50.7628 84.0984C50.8713 83.6647 50.7628 82.689 50.2208 82.3637C49.5703 81.9301 49.1366 81.2796 48.5945 81.388Z" fill="#42D4C6"/>
<path d="M50.3292 94.9399C50.8712 95.5904 51.6301 95.6988 51.9554 95.2652C52.1722 94.9399 52.2806 94.3979 52.1722 94.0726C51.9554 93.5305 50.9796 93.5305 50.6544 93.9642C50.3291 94.2894 50.4376 94.7231 50.3292 94.9399Z" fill="#42D4C6"/>
<path d="M38.2951 60.3553C37.8614 60.4637 37.2109 61.4395 37.5361 62.09C37.8614 62.7404 38.8371 62.9573 39.3792 62.3068C39.596 61.9815 39.1624 61.2226 39.054 60.6806C38.9456 60.5721 38.8371 60.2469 38.2951 60.3553Z" fill="#42D4C6"/>
<path d="M39.5961 69.4625C38.9456 69.5709 38.6203 70.3298 38.7287 70.9803C38.8371 71.6308 39.5961 72.1728 40.1382 72.0644C40.6802 71.956 41.5475 70.9803 41.3307 70.5466C41.2223 69.8961 40.2466 69.2456 39.5961 69.4625Z" fill="#42D4C6"/>
<path d="M42.1981 88.3268C42.6317 88.9772 43.7159 89.3025 44.1495 88.9772C44.4748 88.652 44.5832 87.5678 44.1495 87.0258C43.8243 86.4837 43.1738 86.3753 42.6317 86.7005C42.4149 86.5921 42.3065 86.5921 42.0896 86.7005C41.8728 86.9174 41.7644 87.1342 41.8728 87.351C41.9812 87.6763 41.9812 88.0015 42.1981 88.3268Z" fill="#42D4C6"/>
<path d="M40.8971 78.6776C39.9213 78.8944 39.5961 79.6533 39.8129 80.8459C40.0298 81.4964 40.8971 82.1469 41.5476 82.0384C42.3065 81.93 43.4991 80.4122 43.2822 79.7617C43.1738 79.0028 41.9812 78.4607 40.8971 78.6776Z" fill="#42D4C6"/>
<path d="M44.0411 97.6501C43.7158 97.6501 43.3906 97.7585 43.1738 97.8669C43.499 97.5417 43.7158 97.2165 43.499 96.7828C43.1737 96.2407 42.198 96.4576 41.5475 96.2407C41.4391 96.3491 41.3307 96.4576 41.3307 96.566C41.1139 97.3249 41.3307 97.4333 41.656 97.8669C41.8728 98.1922 42.198 98.3006 42.3064 98.409C42.0896 98.7343 41.8728 99.1679 41.7644 99.6016C41.5475 100.469 42.0896 102.204 43.7158 102.095C43.9327 102.095 44.0411 102.095 44.2579 102.095C43.6074 102.746 43.499 103.83 43.9327 104.589C44.2579 105.131 45.6673 105.239 46.4262 104.697C47.1851 104.155 47.4019 103.288 46.9683 102.637C46.643 102.095 45.8841 101.77 45.3421 101.661C45.9925 101.228 46.3178 100.686 46.3178 100.144C46.5346 99.0595 45.1252 97.6501 44.0411 97.6501Z" fill="#42D4C6"/>
<path d="M79.276 107.082C78.734 106.323 77.5414 105.998 76.6741 106.323C76.6741 106.323 76.6741 106.323 76.5657 106.323C76.132 106.323 75.8068 106.649 75.5899 107.082C75.2647 107.407 75.1563 107.841 75.0479 108.275C76.5657 108.166 77.9751 107.95 79.3845 107.624C79.3845 107.407 79.3845 107.191 79.276 107.082Z" fill="#42D4C6"/>
<path d="M76.0236 100.903C75.3731 101.661 75.1563 102.42 75.4815 102.746C75.8068 103.179 77.2162 103.071 77.6498 102.746C77.9751 102.42 77.8667 101.228 77.433 100.794C76.9994 100.36 76.4573 100.469 76.0236 100.903Z" fill="#42D4C6"/>
<path d="M73.3132 95.807C73.53 96.2406 74.6142 96.5659 75.1562 96.3491C75.6983 96.1322 75.8067 95.5901 75.5899 95.0481C75.1562 94.0723 74.6142 93.6387 74.0721 93.8555C73.6384 94.0723 73.0963 95.2649 73.3132 95.807Z" fill="#42D4C6"/>
<path d="M55.5331 69.896C54.7742 70.0044 54.0153 70.7633 54.2321 71.4138C54.449 71.9559 56.5088 72.2811 56.9425 71.7391C57.3762 71.197 56.292 69.896 55.5331 69.896Z" fill="#42D4C6"/>
<path d="M74.831 89.8446C75.0479 90.0614 75.5899 90.0614 75.8068 89.8446C76.3488 89.6278 76.8909 89.1941 77.433 88.8689C77.8666 88.5436 77.8667 88.11 77.5414 87.6763C77.433 87.6763 77.1077 87.5679 76.9993 87.5679C76.4573 87.8931 75.9152 87.7847 75.2647 87.7847C74.9394 87.7847 74.5058 88.3268 74.3973 88.652C74.3973 88.9773 74.6142 89.5194 74.831 89.8446Z" fill="#42D4C6"/>
<path d="M61.8211 107.299C61.4959 106.54 60.8454 106.215 60.1949 106.324C59.5444 106.432 59.1108 106.866 58.7855 107.299C58.4603 106.974 57.9182 106.974 57.4845 107.082C57.0509 107.299 56.9425 107.516 56.834 107.95C59.0023 108.275 61.1707 108.383 63.4474 108.492C63.4474 108.383 63.339 108.275 63.339 108.275C62.9053 107.733 62.3632 107.408 61.8211 107.299Z" fill="#42D4C6"/>
<path d="M58.6772 75.1001C57.593 75.1001 57.2678 75.4253 56.9425 76.6179C56.1836 77.0516 55.5331 77.3768 54.8826 77.8105C54.449 78.1357 54.449 78.6778 54.6658 79.003C54.6658 79.2199 54.7742 79.3283 54.7742 79.4367C54.8826 79.6535 55.3163 79.8704 55.5331 79.6535C55.6415 79.5451 55.6415 79.4367 55.75 79.3283C56.4005 79.4367 57.1594 79.5451 57.8098 79.1115C57.9183 78.7862 58.0267 78.3526 58.1351 77.9189C59.2192 77.4852 59.8697 76.6179 59.7613 75.9674C59.6529 75.4253 59.3276 75.2085 58.6772 75.1001Z" fill="#42D4C6"/>
<path d="M62.038 100.469C61.3875 100.578 60.9538 101.12 60.8454 101.77C60.5202 101.77 60.3033 101.77 60.0865 101.987C59.5444 102.421 59.436 103.288 59.7613 103.722C60.0865 104.155 60.8454 104.264 61.3875 103.938C61.4959 103.83 61.4959 103.83 61.6043 103.722C61.9296 104.047 62.3632 104.264 62.6885 104.264C63.6642 104.155 64.64 103.071 64.5315 102.095C64.5315 101.228 63.2305 100.361 62.038 100.469Z" fill="#42D4C6"/>
<path d="M51.3451 128.537C51.7693 128.537 51.9815 128.325 52.1936 128.113C52.2643 128.042 52.335 127.972 52.4057 127.901C51.6279 127.83 50.8501 127.618 50.0723 127.547C50.4966 127.972 50.8501 128.608 51.3451 128.537Z" fill="#1BA9F5"/>
<path d="M22.7072 120.547C22.6365 120.759 22.7072 120.971 22.7072 121.113C23.0608 122.315 24.2629 122.669 25.1114 121.82C25.5357 121.396 25.8892 120.901 26.2428 120.406C25.2528 119.982 24.2629 119.557 23.3436 119.062C23.0608 119.487 22.8487 119.982 22.7072 120.547Z" fill="#1BA9F5"/>
<path d="M36.3544 124.719C36.9201 125.002 37.4858 125.568 38.1222 124.931C38.1929 124.86 38.1929 124.86 38.2636 124.79C37.6272 124.578 37.0615 124.436 36.4251 124.224C36.4251 124.365 36.4251 124.507 36.3544 124.719Z" fill="#1BA9F5"/>
<path d="M98.7213 136.74C99.0748 136.669 99.287 136.315 99.4284 136.174C99.4284 135.325 99.0041 134.901 98.5798 135.043C98.1556 135.184 97.802 135.538 97.5899 135.891C97.5192 136.386 98.2263 136.952 98.7213 136.74Z" fill="#1BA9F5"/>
<path d="M109.328 124.153C109.894 124.153 110.601 123.587 110.601 123.022C110.601 122.456 110.106 121.961 109.469 122.032C108.833 122.102 108.267 122.527 108.338 123.022C108.196 123.587 108.691 124.082 109.328 124.153Z" fill="#1BA9F5"/>
<path d="M101.408 127.406C100.913 127.477 100.56 127.689 100.489 128.184C100.418 129.386 100.489 130.588 101.125 131.79C101.196 132.002 101.479 132.144 101.55 132.215C102.61 132.851 103.742 132.285 103.812 131.083C103.883 130.305 103.742 129.598 103.53 128.82C103.459 127.901 102.257 127.265 101.408 127.406Z" fill="#1BA9F5"/>
<path d="M46.1832 134.123C45.8297 134.053 45.7589 134.689 45.8296 134.76C45.9004 134.972 46.0418 135.255 46.3953 135.184C46.7489 135.113 46.8196 134.901 46.8196 134.76C46.6782 134.477 46.6075 134.123 46.1832 134.123Z" fill="#1BA9F5"/>
<path d="M122.197 114.678C122.126 114.324 121.773 114.112 121.631 113.829C120.924 113.971 120.571 114.466 120.571 115.031C120.642 115.526 120.995 115.597 121.419 115.597C121.914 115.526 122.339 115.102 122.197 114.678Z" fill="#1BA9F5"/>
<path d="M113.995 125.426C114.56 125.285 115.338 125.355 115.409 124.436C115.409 123.871 115.197 123.376 114.56 123.305C114.207 123.234 113.783 123.376 113.57 123.588C113.146 124.012 113.358 124.507 113.995 125.426Z" fill="#1BA9F5"/>
<path d="M105.722 124.224C105.368 124.719 105.58 125.78 106.499 125.851C106.853 125.921 107.419 125.638 107.702 125.356C107.914 125.143 107.843 124.507 107.702 124.224C107.277 123.517 106.146 123.659 105.722 124.224Z" fill="#1BA9F5"/>
<path d="M80.69 128.467C80.9729 128.325 81.1143 128.184 81.185 127.972C80.5486 128.042 79.9829 128.184 79.4173 128.184C79.8415 128.608 80.3365 128.679 80.69 128.467Z" fill="#1BA9F5"/>
<path d="M115.55 119.487C115.55 118.78 115.126 118.214 114.49 118.285C113.853 118.355 112.793 119.133 112.793 119.699C112.793 120.547 113.5 121.113 114.419 121.184C115.126 121.184 115.55 120.477 115.55 119.487Z" fill="#1BA9F5"/>
<path d="M78.003 130.73C77.4373 130.73 77.0131 131.154 77.0131 131.72C77.0131 132.285 77.4373 132.851 78.0737 132.78C78.6394 132.78 79.2051 132.215 79.1344 131.578C78.993 131.154 78.5687 130.73 78.003 130.73Z" fill="#1BA9F5"/>
<path d="M72.4168 129.527C72.4876 130.164 72.9118 130.305 73.4775 130.305C74.1139 130.235 74.6089 129.74 74.5382 129.245C74.5382 129.103 74.4674 129.032 74.3967 128.82C73.7603 128.891 73.1947 128.891 72.5583 128.962C72.4876 129.032 72.4168 129.245 72.4168 129.527Z" fill="#1BA9F5"/>
<path d="M82.5285 130.447C81.3264 130.376 80.9022 131.507 80.7607 132.073C80.5486 132.709 81.7507 133.487 82.7406 133.204C83.3063 133.063 83.5892 132.639 83.5892 132.073C83.7306 131.366 83.1649 130.517 82.5285 130.447Z" fill="#1BA9F5"/>
<path d="M96.3171 124.86C95.3979 124.931 94.4079 126.062 94.62 126.84C94.6907 127.477 95.61 127.972 96.2464 127.901C97.1656 127.83 97.7313 127.264 97.5899 126.275C97.4485 125.426 96.9535 124.79 96.3171 124.86Z" fill="#1BA9F5"/>
<path d="M63.8609 132.143C64.3559 132.214 65.2751 131.578 65.3458 131.083C65.4873 130.658 64.8508 129.881 64.2144 129.81C63.7195 129.739 63.2952 130.022 63.2952 130.588C63.2245 131.507 63.4366 132.143 63.8609 132.143Z" fill="#1BA9F5"/>
<path d="M54.6685 134.265C53.9614 134.265 53.5371 134.689 53.5371 135.255C53.4664 135.891 54.5978 137.023 55.1635 137.023C56.012 137.023 56.4363 136.457 56.3655 135.396C56.2241 134.548 55.6584 134.124 54.6685 134.265Z" fill="#1BA9F5"/>
<path d="M45.264 136.457C45.264 136.316 45.1226 136.174 44.8397 136.033C44.9811 135.891 45.1933 135.821 45.264 135.75C45.8297 135.043 45.759 133.134 45.0518 132.568C44.6276 132.144 43.8498 132.073 43.1427 132.356C43.2841 132.214 43.3548 132.002 43.4255 131.79C44.1326 131.507 44.769 131.295 45.3347 131.012C45.9004 130.729 45.8297 129.81 45.264 129.669C44.5569 129.527 43.7791 129.032 42.9305 129.457C42.7891 129.74 42.6477 130.164 42.5063 130.447C41.5163 130.729 40.8092 131.295 40.8799 131.932C40.9506 132.427 41.2335 132.709 41.7284 132.78C41.9406 132.851 42.082 132.851 42.2941 132.78C42.2234 132.851 42.2234 132.851 42.1527 132.922C41.5163 133.699 41.6577 135.255 42.3648 135.821C42.5063 135.962 42.6477 135.962 42.7891 136.103C42.577 136.598 43.2134 137.659 43.8498 137.73C44.6276 137.659 45.3347 137.093 45.264 136.457Z" fill="#1BA9F5"/>
<path d="M58.7697 130.022C58.699 129.386 57.9919 128.82 57.4262 128.82C56.7191 128.82 55.517 130.022 55.5877 130.517C55.7292 131.224 56.6484 131.861 57.5676 131.79C58.4869 131.719 58.9111 131.154 58.7697 130.022Z" fill="#1BA9F5"/>
<path d="M54.8806 128.254C54.8806 128.396 54.8099 128.749 54.9514 128.749C55.0928 128.891 55.517 128.749 55.6585 128.608C55.7292 128.537 55.7999 128.466 55.7999 128.325C55.517 128.325 55.2342 128.325 54.8806 128.254Z" fill="#1BA9F5"/>
<path d="M34.4452 136.245C34.2331 136.174 33.8088 136.598 33.8795 136.81C33.8088 137.022 34.1624 137.376 34.3745 137.447C34.5867 137.517 35.1523 137.235 35.2231 137.022C35.2938 136.669 34.5867 136.245 34.4452 136.245Z" fill="#1BA9F5"/>
<path d="M33.8795 129.032C32.9603 128.255 31.7582 128.325 30.9804 129.244C30.344 130.022 30.344 131.012 30.9804 131.507C31.8289 132.214 33.526 132.214 34.0917 131.507C34.7281 130.729 34.6573 129.669 33.8795 129.032Z" fill="#1BA9F5"/>
<path d="M68.1035 133.841C66.9722 133.841 66.2651 134.548 66.2651 135.821C66.2651 136.811 67.0429 137.589 67.9621 137.659C68.8813 137.73 69.6592 136.528 69.6592 135.397C69.6592 134.407 69.0228 133.912 68.1035 133.841Z" fill="#1BA9F5"/>
<path d="M58.5576 146.639C58.4161 146.074 57.4969 145.72 57.0019 146.215C56.7898 146.427 57.0726 147.134 57.1433 147.629C57.1433 147.771 57.2141 148.124 57.6383 147.983C58.0626 147.983 58.699 147.205 58.5576 146.639Z" fill="#1BA9F5"/>
<path d="M23.273 133.699C22.9901 133.275 22.4244 133.416 22.1416 133.699C21.9295 133.911 21.5759 134.689 22.0709 135.043C22.5659 135.396 23.0608 134.901 23.2023 134.619C23.4144 134.406 23.4144 133.982 23.273 133.699Z" fill="#1BA9F5"/>
<path d="M62.1639 137.659C61.4567 137.659 60.8911 138.507 61.0325 139.497C61.0325 140.063 61.4567 140.346 62.0224 140.346C62.8002 140.417 63.5781 139.78 63.5781 139.215C63.4366 138.507 62.7295 137.659 62.1639 137.659Z" fill="#1BA9F5"/>
<path d="M73.6897 133.346C72.6997 133.346 71.5684 134.477 71.5684 135.467C71.4976 136.528 72.5583 137.305 73.9725 137.305C74.9625 137.305 75.7403 136.528 75.7403 135.538C75.8817 134.548 74.821 133.346 73.6897 133.346Z" fill="#1BA9F5"/>
<path d="M57.4969 137.659C56.9313 137.659 56.1535 138.437 56.2242 138.79C56.2242 139.356 57.0727 140.063 57.6384 139.922C58.2041 139.922 58.6283 139.356 58.5576 138.72C58.4869 138.225 57.9919 137.588 57.4969 137.659Z" fill="#1BA9F5"/>
<path d="M54.1735 140.134C53.6078 140.134 53.1129 140.629 53.1836 141.124C53.1836 141.69 53.6078 141.972 54.1735 141.972C54.5978 141.972 54.9513 141.619 54.9513 141.195C54.9513 140.629 54.5978 140.134 54.1735 140.134Z" fill="#1BA9F5"/>
<path d="M60.1132 136.033C60.2546 136.174 60.891 135.962 61.1031 135.75C61.3153 135.538 61.4567 135.113 61.386 134.76C61.3153 134.548 60.891 134.265 60.6082 134.265C60.0425 134.123 59.5475 134.194 58.9111 134.265C58.4868 134.265 58.2747 134.618 58.3454 135.113C58.4161 135.184 58.5576 135.467 58.699 135.467C59.3354 135.396 59.6889 135.75 60.1132 136.033Z" fill="#1BA9F5"/>
<path d="M10.1915 116.517C9.62582 115.951 8.77729 115.951 8.28231 116.446C7.71663 117.153 7.64592 118.355 8.21161 118.779C8.848 119.274 10.0501 119.204 10.6158 118.638C10.9693 118.284 10.7572 117.082 10.1915 116.517Z" fill="#1BA9F5"/>
<path d="M19.3131 119.557C19.6667 119.204 19.596 118.567 19.1717 118.143C18.8182 117.789 18.1818 117.86 17.9696 118.355C17.7575 118.709 17.7575 119.133 17.8989 119.416C18.0404 119.698 19.0303 119.981 19.3131 119.557Z" fill="#1BA9F5"/>
<path d="M16.6969 115.527C14.7877 114.466 12.8785 113.264 11.1107 112.062C11.2522 113.759 12.7371 113.264 12.9492 113.759C13.1613 114.254 12.8785 115.385 13.1613 116.092C13.5149 117.153 14.3634 118.002 15.4241 117.507C16.3433 117.153 16.7676 116.305 16.6969 115.527Z" fill="#1BA9F5"/>
<path d="M7.00947 120.547C6.86805 120.405 6.72664 120.547 6.58522 120.547C6.58522 120.688 6.5145 120.9 6.58521 120.971C6.65592 121.042 6.93877 121.042 6.86806 120.971C6.93877 120.9 7.00947 120.688 7.00947 120.547Z" fill="#1BA9F5"/>
<path d="M6.30239 114.042C5.87813 113.759 5.0296 114.183 4.81747 114.395C4.46391 114.749 4.60534 115.315 5.10031 115.668C5.59529 116.022 5.94883 115.81 6.16097 115.456C6.23168 115.102 6.65595 114.254 6.30239 114.042Z" fill="#1BA9F5"/>
<path d="M5.73669 121.254C5.24172 121.183 4.53462 120.476 4.11035 120.901C3.68609 121.325 4.11035 122.173 4.11035 122.598C4.18106 122.668 4.32248 122.668 4.3932 122.739C5.1003 122.739 5.171 122.527 5.45385 122.103C5.8074 121.749 5.73669 121.396 5.73669 121.254Z" fill="#1BA9F5"/>
<path d="M23.4851 126.699C23.0608 126.558 22.0001 127.76 22.3537 128.255C22.6365 128.679 23.2729 128.891 23.6972 128.608C24.2629 128.325 23.9093 126.84 23.4851 126.699Z" fill="#1BA9F5"/>
<path d="M14.717 127.83C14.2927 127.972 13.7977 129.174 14.1513 129.527C14.717 130.093 15.2826 130.235 15.7776 129.457C16.2726 128.679 15.1412 127.689 14.717 127.83Z" fill="#1BA9F5"/>
<path d="M13.727 125.426C13.3735 125.073 12.8078 125.497 12.6663 125.638C12.5249 125.78 12.3128 126.275 12.5956 126.558C12.8785 126.841 13.3027 126.699 13.5149 126.487C13.6563 126.346 14.0806 125.78 13.727 125.426Z" fill="#1BA9F5"/>
<path d="M28.5763 123.588C28.2227 123.234 27.3035 123.729 27.0206 124.577C26.8085 125.355 27.7984 125.78 28.2227 125.78C28.7177 125.85 28.9298 123.941 28.5763 123.588Z" fill="#1BA9F5"/>
<path d="M22.9194 123.305C22.7073 123.376 22.4244 123.658 22.4952 123.871C22.5659 124.083 22.9901 124.224 23.1315 124.224C23.273 124.224 23.7679 123.871 23.6972 123.517C23.6265 123.305 23.1316 123.234 22.9194 123.305Z" fill="#1BA9F5"/>
<path d="M9.0601 131.507C8.63583 131.224 8.35298 131.649 8.21156 131.79C8.07014 131.931 8.21157 132.356 8.35299 132.497C8.56512 132.568 8.98939 132.568 9.0601 132.497C9.20152 132.214 9.48436 131.79 9.0601 131.507Z" fill="#1BA9F5"/>
<path d="M18.3232 122.668C18.8889 122.103 18.9596 121.466 18.4646 121.254C18.0404 121.113 17.5454 121.042 17.1918 121.254C16.8383 121.466 16.909 122.385 17.404 122.598C17.6868 122.739 18.1818 122.668 18.3232 122.668Z" fill="#1BA9F5"/>
<path d="M70.6491 151.377C70.3663 151.377 70.1541 151.73 70.1541 151.872C70.1541 152.013 70.3663 152.65 70.6491 152.65C70.932 152.65 71.2148 152.084 71.2148 151.943C71.0734 151.801 70.9319 151.377 70.6491 151.377Z" fill="#1BA9F5"/>
<path d="M98.7212 149.043C98.2262 149.114 98.297 149.609 98.297 149.75C98.297 149.892 98.7212 150.175 98.8626 150.175C99.0748 150.104 99.3576 149.821 99.3576 149.68C99.2869 149.467 99.1455 149.043 98.7212 149.043Z" fill="#1BA9F5"/>
<path d="M102.115 142.962C101.974 141.972 100.418 142.114 100.277 142.538C100.135 142.962 100.489 144.164 101.055 144.164C101.833 144.235 102.398 143.952 102.115 142.962Z" fill="#1BA9F5"/>
<path d="M111.166 141.69C111.166 141.407 110.813 141.053 110.459 140.983C109.964 140.912 109.611 141.265 109.681 141.76C109.681 142.043 109.894 142.821 110.601 142.821C111.308 142.68 111.237 141.902 111.166 141.69Z" fill="#1BA9F5"/>
<path d="M108.904 131.79C109.186 131.507 108.055 129.952 107.631 129.952C107.136 129.881 106.782 130.942 107.207 131.649C107.489 132.497 108.55 132.144 108.904 131.79Z" fill="#1BA9F5"/>
<path d="M120.429 135.255C120.288 135.396 120.217 135.891 120.359 136.033C120.5 136.174 120.924 136.315 121.207 136.174C121.419 136.103 121.702 135.538 121.561 135.255C121.349 135.043 120.571 135.113 120.429 135.255Z" fill="#1BA9F5"/>
<path d="M97.9434 141.478C97.4485 141.407 97.307 142.114 97.307 142.397C97.307 142.68 97.4485 143.104 97.8727 143.104C98.297 143.104 98.4384 142.68 98.5091 142.468C98.5798 142.114 98.5091 141.478 97.9434 141.478Z" fill="#1BA9F5"/>
<path d="M122.551 118.426C122.268 118.426 122.056 118.779 122.056 118.921C122.056 119.062 122.268 119.699 122.551 119.699C122.834 119.699 123.116 119.133 123.116 118.991C123.046 118.779 122.834 118.426 122.551 118.426Z" fill="#1BA9F5"/>
<path d="M106.004 135.679C105.58 135.962 105.58 137.376 106.217 137.588C106.641 137.73 107.419 137.376 107.419 136.952C107.56 136.386 106.358 135.467 106.004 135.679Z" fill="#1BA9F5"/>
<path d="M104.025 133.275C103.812 133.063 103.317 133.416 103.247 133.628C103.176 133.84 103.105 134.194 103.388 134.335C103.671 134.477 103.954 134.335 104.166 134.123C104.166 133.982 104.307 133.416 104.025 133.275Z" fill="#1BA9F5"/>
<path d="M130.47 115.739C130.612 115.739 130.824 115.385 130.895 115.173C130.895 115.032 130.753 114.607 130.47 114.607C130.187 114.607 130.046 115.173 130.046 115.314C130.046 115.456 130.258 115.809 130.47 115.739Z" fill="#1BA9F5"/>
<path d="M114.702 134.053C115.833 134.053 117.035 132.851 116.965 131.932C116.894 131.012 116.045 130.305 115.055 130.305C113.853 130.376 112.934 131.295 113.076 132.427C113.217 133.417 113.924 134.124 114.702 134.053Z" fill="#1BA9F5"/>
<path d="M125.945 129.456C127.147 129.386 128.066 128.466 127.995 127.547C127.925 126.628 126.511 125.355 125.662 125.355C124.672 125.355 123.753 126.416 123.894 127.547C123.894 128.396 125.026 129.527 125.945 129.456Z" fill="#1BA9F5"/>
<path d="M96.9535 132.426C96.4585 132.497 96.0342 132.921 96.1757 133.345C96.2464 133.699 96.5292 134.123 96.8828 134.194C97.1656 134.335 98.0849 133.84 98.0849 133.275C98.0141 132.78 97.5899 132.356 96.9535 132.426Z" fill="#1BA9F5"/>
<path d="M89.3874 133.487C89.8824 133.699 90.4481 134.689 91.0845 135.043C92.0744 135.609 93.2058 135.609 93.7008 134.548C94.2665 133.275 93.7715 132.356 92.7815 131.79C91.3673 131.083 90.9431 132.639 90.1652 131.861C89.3874 131.083 90.5188 130.8 89.4581 129.74C88.3975 128.679 86.9125 129.032 86.6297 130.022C86.4176 131.083 87.1954 131.578 87.054 131.861C86.9125 132.144 86.2054 132.851 86.7711 133.417C88.1146 134.619 88.8924 133.275 89.3874 133.487Z" fill="#1BA9F5"/>
<path d="M80.1243 142.468C80.0536 142.963 80.69 143.458 81.185 143.245C81.4678 143.104 81.6799 142.75 81.7507 142.68C81.6799 141.902 81.185 141.548 80.7607 141.69C80.5486 141.76 80.2657 142.185 80.1243 142.468Z" fill="#1BA9F5"/>
<path d="M83.4477 150.033C83.0235 150.033 82.4578 150.882 82.4578 151.447C82.4578 152.013 82.9528 152.508 83.5892 152.437C84.2256 152.367 84.5791 152.013 84.5791 151.447C84.5791 150.74 83.9427 149.963 83.4477 150.033Z" fill="#1BA9F5"/>
<path d="M81.6093 136.881C81.6093 136.316 80.5486 135.538 79.9122 135.609C79.4172 135.679 78.7809 136.316 78.7809 136.74C78.8516 137.801 79.4172 138.649 80.1243 138.649C80.7607 138.578 81.6093 137.588 81.6093 136.881Z" fill="#1BA9F5"/>
<path d="M69.7299 148.619C69.447 148.619 69.3056 149.185 69.3056 149.326C69.3056 149.468 69.5884 149.751 69.7299 149.751C69.8713 149.751 70.0834 149.397 70.1541 149.185C70.2248 149.114 70.0127 148.619 69.7299 148.619Z" fill="#1BA9F5"/>
<path d="M79.3465 141.831C79.2051 141.265 78.498 141.124 78.0737 141.124C77.5787 141.053 77.4373 141.619 77.4373 142.043C77.508 142.538 77.9323 142.963 78.3565 142.821C78.7808 142.68 79.5586 142.468 79.3465 141.831Z" fill="#1BA9F5"/>
<path d="M89.741 143.033C89.8117 143.104 90.0238 142.892 89.9531 142.821C89.9531 142.68 89.8824 142.468 89.741 142.468C89.5995 142.468 89.5995 142.609 89.4581 142.75C89.5288 142.821 89.5995 143.033 89.741 143.033Z" fill="#1BA9F5"/>
<path d="M78.003 144.73C77.2959 144.589 76.5181 145.225 76.5181 145.791C76.5181 146.357 77.0838 147.064 77.7202 146.993C78.2858 146.993 78.7808 146.215 78.7808 145.225C78.5687 145.154 78.2858 144.73 78.003 144.73Z" fill="#1BA9F5"/>
<path d="M73.0533 139.78C72.0633 139.922 71.2148 140.912 71.2148 141.901C71.2148 142.467 72.1341 143.104 72.7705 143.033C73.8311 142.962 74.4675 142.326 74.3968 141.265C74.3968 140.417 73.6897 139.709 73.0533 139.78Z" fill="#1BA9F5"/>
<path d="M89.246 145.791C89.741 145.296 89.741 145.154 89.6703 144.659C89.5996 144.164 89.3874 143.952 89.246 143.811C88.8217 144.094 87.8318 144.094 87.8318 144.659C87.7611 145.296 88.6096 145.578 88.9632 145.932C89.0339 145.861 89.1753 145.861 89.246 145.791Z" fill="#1BA9F5"/>
<path d="M85.569 139.286C85.4983 138.932 85.2155 138.083 84.7205 138.154C84.2255 138.225 83.9427 139.073 83.872 139.427C83.872 139.993 84.367 140.205 84.9326 140.205C85.569 140.134 85.6398 139.639 85.569 139.286Z" fill="#1BA9F5"/>
<path d="M89.246 137.306C88.3975 137.306 87.8318 137.871 87.8318 138.578C87.9025 139.498 88.6803 140.417 89.3874 140.275C90.1652 140.205 91.0138 139.356 91.0845 138.578C91.0845 138.013 90.0945 137.306 89.246 137.306Z" fill="#1BA9F5"/>
<path d="M0.999064 113.971C0.716222 113.83 0.221243 113.9 0.00911117 114.112C-0.415153 114.395 -0.203017 115.314 0.221247 115.456C0.50409 115.597 0.928358 115.456 1.06978 115.456C1.56475 114.82 1.49404 114.183 0.999064 113.971Z" fill="#1BA9F5"/>
<path d="M-0.556522 111.708C-0.910075 111.355 -1.33434 111.637 -1.61719 111.92C-1.90003 112.345 -1.97074 112.981 -1.47577 113.193C-1.12221 113.264 -0.415099 113.688 -0.132256 113.122C0.150587 112.557 -0.34439 111.92 -0.556522 111.708Z" fill="#1BA9F5"/>
<path d="M4.81748 111.001C5.24174 110.577 5.0296 109.375 4.46392 108.951C4.03965 108.668 3.19113 108.668 2.83758 109.021C2.13047 109.87 1.98904 110.86 2.55473 111.284C3.12042 111.708 4.39321 111.567 4.81748 111.001Z" fill="#1BA9F5"/>
<path d="M-0.910091 102.728C-1.19293 102.87 -1.40506 102.94 -1.6172 103.152C-2.39501 103.93 -2.11217 105.203 -1.12222 106.193C-0.415114 106.9 0.716259 106.9 1.42337 106.193C1.6355 105.981 1.84763 105.627 1.91834 105.274C1.06981 104.425 0.0798586 103.577 -0.910091 102.728Z" fill="#1BA9F5"/>
</g>
</svg>
