<?xml version="1.0" encoding="UTF-8"?>
<svg width="32px" height="32px" viewBox="0 0 32 32" version="1.1" xmlns="http://www.w3.org/2000/svg" xmlns:xlink="http://www.w3.org/1999/xlink">
    <!-- Generator: Sketch 55.1 (78136) - https://sketchapp.com -->
    <title>icon / product-logo / 32x32px / cloud / color-reverse</title>
    <desc>Created with Sketch.</desc>
    <g id="icon-/-product-logo-/-32x32px-/-cloud-/-color-reverse" stroke="none" stroke-width="1" fill="none" fill-rule="evenodd">
        <g id="Group-10" transform="translate(1.000000, 0.000000)">
            <path d="M16,0.0004 C11.063,0.0004 6.651,2.2364 3.717,5.7504 C5.669,8.0884 8.277,9.8584 11.258,10.7824 C11.968,11.0024 12.735,10.9174 13.404,10.5944 C14.189,10.2144 15.069,10.0004 16,10.0004 C16.931,10.0004 17.811,10.2144 18.596,10.5944 C19.265,10.9174 20.032,11.0024 20.742,10.7824 C23.723,9.8584 26.33,8.0884 28.283,5.7504 C25.349,2.2364 20.937,0.0004 16,0.0004" id="Fill-1" fill="#0077CC"></path>
            <path d="M13.4141,10.5922 C13.4111,10.5942 13.4071,10.5922 13.4041,10.5942 C12.7351,10.9172 11.9681,11.0022 11.2581,10.7822 C8.2781,9.8592 5.6711,8.0882 3.7181,5.7512 C1.3981,8.5282 0.0001,12.1002 0.0001,16.0002 C0.0001,18.7922 0.7191,21.4152 1.9761,23.7002 C4.2571,21.2012 7.1381,19.3542 10.3701,18.3522 C10.4021,18.3422 10.4361,18.3392 10.4701,18.3292 C10.1671,17.6132 10.0001,16.8262 10.0001,16.0002 C10.0001,13.6132 11.3961,11.5592 13.4141,10.5922" id="Fill-3" fill="#FFFFFF"></path>
            <path d="M20.7422,21.2172 C20.0322,20.9972 19.2642,21.0822 18.5962,21.4062 C17.8102,21.7852 16.9302,22.0002 16.0002,22.0002 C15.0692,22.0002 14.1892,21.7852 13.4042,21.4062 C12.7352,21.0822 11.9682,20.9972 11.2582,21.2172 C8.2772,22.1422 5.6692,23.9122 3.7172,26.2502 C6.6512,29.7632 11.0632,32.0002 16.0002,32.0002 C20.9362,32.0002 25.3482,29.7632 28.2832,26.2502 C26.3302,23.9122 23.7222,22.1422 20.7422,21.2172" id="Fill-5" fill="#00BFB3"></path>
        </g>
    </g>
</svg>