<?xml version="1.0" encoding="UTF-8"?>
<svg width="32px" height="32px" viewBox="0 0 32 32" version="1.1" xmlns="http://www.w3.org/2000/svg" xmlns:xlink="http://www.w3.org/1999/xlink">
    <!-- Generator: Sketch 55.1 (78136) - https://sketchapp.com -->
    <title>icon-paper-airplane-32-color</title>
    <desc>Created with Sketch.</desc>
    <g id="icon-paper-airplane-32-color" stroke="none" stroke-width="1" fill="none" fill-rule="evenodd">
        <polygon id="Stroke-1" fill="#00BFB3" fill-rule="nonzero" points="29.2443646 1.85002541 14.1133646 12.3260254 15.2518354 13.9703746 30.3828354 3.49437459"></polygon>
        <polygon id="Stroke-3" fill="#00BFB3" fill-rule="nonzero" points="28.9914 2.10300132 18.5164 17.2340013 20.1608 18.3723987 30.6358 3.24139868"></polygon>
        <path d="M13.8903315,18.5954685 L12.9932487,22.1837997 L20.9048281,30.0966151 L31.4858449,0.999955072 L2.3891849,11.5809719 L10.3020003,19.4925513 L13.8903315,18.5954685 Z M6.0242151,12.3872281 L28.1415551,4.34424493 L20.0985719,26.4615849 L15.2081513,21.5704003 L16.6390685,15.8467315 L10.9153997,17.2776487 L6.0242151,12.3872281 Z" id="Stroke-5" fill="#535966" fill-rule="nonzero"></path>
        <polygon id="Stroke-8" fill="#00BFB3" fill-rule="nonzero" points="9.49999322 21.5715932 6.99999322 24.0715932 8.41420678 25.4858068 10.9142068 22.9858068"></polygon>
        <polygon id="Stroke-9" fill="#00BFB3" fill-rule="nonzero" points="4.49999322 16.5715932 1.99999322 19.0715932 3.41420678 20.4858068 5.91420678 17.9858068"></polygon>
        <polygon id="Stroke-11" fill="#00BFB3" fill-rule="nonzero" points="14.4999932 26.5715932 11.9999932 29.0715932 13.4142068 30.4858068 15.9142068 27.9858068"></polygon>
        <polygon id="Stroke-13" fill="#00BFB3" fill-rule="nonzero" points="5.49999322 25.5715932 2.99999322 28.0715932 4.41420678 29.4858068 6.91420678 26.9858068"></polygon>
    </g>
</svg>