<svg xmlns="http://www.w3.org/2000/svg" width="227" height="267" viewBox="0 0 227 267">
  <g fill="none" fill-rule="evenodd" transform="translate(-11)">
    <circle cx="302.5" cy="363.5" r="302.5" fill="#7DE2D1"/>
    <g fill="#FB744E" transform="translate(103.864)">
      <polygon points="80.136 16 96.136 16 96.136 0 80.136 0"/>
      <polygon points="80.136 56 96.136 56 96.136 40 80.136 40"/>
      <polygon points="80.136 96 96.136 96 96.136 80 80.136 80"/>
      <polygon points="80.136 136 96.136 136 96.136 120 80.136 120"/>
      <polygon points="80.136 176 96.136 176 96.136 160 80.136 160"/>
      <polygon points="40.136 56 56.136 56 56.136 40 40.136 40"/>
      <polygon points="40.136 96 56.136 96 56.136 80 40.136 80"/>
      <polygon points="40 136 56 136 56 120 40 120"/>
      <polygon points="40 176 56 176 56 160 40 160"/>
      <polygon points="40 216 56 216 56 200 40 200"/>
      <polygon points=".136 96 16.136 96 16.136 80 .136 80"/>
      <polygon points="0 136 16 136 16 120 0 120"/>
      <polygon points="0 176 16 176 16 160 0 160"/>
      <polygon points="0 216 16 216 16 200 0 200"/>
      <polygon points="0 256 16 256 16 240 0 240"/>
    </g>
  </g>
</svg>
