<?xml version="1.0" encoding="UTF-8"?>
<svg width="32px" height="32px" viewBox="0 0 32 32" version="1.1" xmlns="http://www.w3.org/2000/svg" xmlns:xlink="http://www.w3.org/1999/xlink">
    <!-- Generator: Sketch 55.1 (78136) - https://sketchapp.com -->
    <title>icon-browser-heart-32-color</title>
    <desc>Created with Sketch.</desc>
    <g id="icon-browser-heart-32-color" stroke="none" stroke-width="1" fill="none" fill-rule="evenodd">
        <polygon id="Stroke-1" fill="#00BFB3" fill-rule="nonzero" points="1 10 31 10 31 8 1 8"></polygon>
        <path d="M29,32 L3,32 C1.34371525,32 0,30.6562847 0,29 L0,3 C0,1.34371525 1.34371525,0 3,0 L29,0 C30.6562847,0 32,1.34371525 32,3 L32,29 C32,30.6562847 30.6562847,32 29,32 Z M29,30 C29.5517153,30 30,29.5517153 30,29 L30,3 C30,2.44828475 29.5517153,2 29,2 L3,2 C2.44828475,2 2,2.44828475 2,3 L2,29 C2,29.5517153 2.44828475,30 3,30 L29,30 Z" id="Stroke-3" fill="#535966" fill-rule="nonzero"></path>
        <path d="M16.2471711,14.2467154 C17.9106317,12.5845615 20.6043683,12.5845615 22.2681068,14.2469932 C23.9306311,15.9095175 23.9306311,18.6046825 22.2681068,20.2672068 L16,26.5353136 L9.73189322,20.2672068 C8.06936893,18.6046825 8.06936893,15.9095175 9.73217111,14.2467154 C11.3956317,12.5845615 14.0893683,12.5845615 15.7531068,14.2469932 L16,14.4938865 L16.2471711,14.2467154 Z M20.8538932,18.8529932 C21.7353689,17.9715175 21.7353689,16.5426825 20.8541711,15.6614846 C19.9716317,14.7796385 18.5433683,14.7796385 17.6611068,15.6612068 L16,17.3223136 L15.2928932,16.6152068 L14.3391711,15.6614846 C13.4566317,14.7796385 12.0283683,14.7796385 11.1461068,15.6612068 C10.2646311,16.5426825 10.2646311,17.9715175 11.1461068,18.8529932 L16,23.7068864 L20.8538932,18.8529932 Z" id="Stroke-5" fill="#00BFB3" fill-rule="nonzero"></path>
        <polygon id="Stroke-7" fill="#535966" fill-rule="nonzero" points="5 6 8 6 8 4 5 4"></polygon>
        <polygon id="Stroke-9" fill="#535966" fill-rule="nonzero" points="11 6 14 6 14 4 11 4"></polygon>
    </g>
</svg>