<?xml version="1.0" encoding="UTF-8"?>
<svg width="32px" height="32px" viewBox="0 0 32 32" version="1.1" xmlns="http://www.w3.org/2000/svg" xmlns:xlink="http://www.w3.org/1999/xlink">
    <!-- Generator: Sketch 55.1 (78136) - https://sketchapp.com -->
    <title>icon-three-people-32-color</title>
    <desc>Created with Sketch.</desc>
    <g id="icon-three-people-32-color" stroke="none" stroke-width="1" fill="none" fill-rule="evenodd">
        <path d="M13.1164645,9.83900345 C11.8924708,7.49450243 9.57379474,5.9998 7,5.9998 C3.1166335,5.9998 0,9.36613731 0,13.4808 L0,15.9998 L2,15.9998 L2,13.4808 C2,10.4377444 4.2571057,7.9998 7,7.9998 C8.80647463,7.9998 10.4548815,9.06242268 11.3435355,10.7645965 L13.1164645,9.83900345 Z" id="Stroke-1" fill="#00BFB3" fill-rule="nonzero"></path>
        <path d="M11,4 C11,6.20928475 9.20928475,8 7,8 C4.79071525,8 3,6.20928475 3,4 C3,1.79071525 4.79071525,0 7,0 C9.20928475,0 11,1.79071525 11,4 Z M9,4 C9,2.89528475 8.10471525,2 7,2 C5.89528475,2 5,2.89528475 5,4 C5,5.10471525 5.89528475,6 7,6 C8.10471525,6 9,5.10471525 9,4 Z" id="Stroke-3" fill="#00BFB3" fill-rule="nonzero"></path>
        <path d="M20.657149,10.764243 C21.5447365,9.0624581 23.192969,7.9998 24.9995,7.9998 C27.7430211,7.9998 29.9995,10.4373479 29.9995,13.4808 L29.9995,15.9998 L31.9995,15.9998 L31.9995,13.4808 C31.9995,9.36578766 28.8835489,5.9998 24.9995,5.9998 C22.4254744,5.9998 20.106697,7.49477571 18.883851,9.83935699 L20.657149,10.764243 Z" id="Stroke-5" fill="#00BFB3" fill-rule="nonzero"></path>
        <path d="M21,4 C21,6.20928475 22.7907153,8 25,8 C27.2092847,8 29,6.20928475 29,4 C29,1.79071525 27.2092847,0 25,0 C22.7907153,0 21,1.79071525 21,4 Z M23,4 C23,2.89528475 23.8952847,2 25,2 C26.1047153,2 27,2.89528475 27,4 C27,5.10471525 26.1047153,6 25,6 C23.8952847,6 23,5.10471525 23,4 Z" id="Stroke-7" fill="#00BFB3" fill-rule="nonzero"></path>
        <path d="M26,32 L26,28 C26,22.4767153 21.5232847,18 16,18 C10.4767153,18 6,22.4767153 6,28 L6,32 L8,32 L8,28 C8,23.5812847 11.5812847,20 16,20 C20.4187153,20 24,23.5812847 24,28 L24,32 L26,32 Z" id="Stroke-9" fill="#535966" fill-rule="nonzero"></path>
        <path d="M22,14 C22,17.3142847 19.3142847,20 16,20 C12.6864008,20 10,17.3139703 10,14 C10,10.6860297 12.6864008,8 16,8 C19.3142847,8 22,10.6857153 22,14 Z M20,14 C20,11.7902847 18.2097153,10 16,10 C13.7909084,10 12,11.790661 12,14 C12,16.209339 13.7909084,18 16,18 C18.2097153,18 20,16.2097153 20,14 Z" id="Stroke-11" fill="#535966" fill-rule="nonzero"></path>
    </g>
</svg>