<svg width="32" height="32" viewBox="0 0 32 32" fill="none" xmlns="http://www.w3.org/2000/svg">
<g clip-path="url(#clip0)">
<path fill-rule="evenodd" clip-rule="evenodd" d="M26 5L14.5085 5L14.5085 3L26 3C28.2091 3 30 4.79086 30 7C30 9.20914 28.2091 11 26 11L25.6152 11L23.4961 9.28372L21.3508 11L14.5085 11L14.5085 9L20.6492 9L23.5039 6.71628L26.2966 8.97816C27.2605 8.83487 28 8.00379 28 7C28 5.89543 27.1045 5 26 5Z" fill="#00BFB3"/>
<path fill-rule="evenodd" clip-rule="evenodd" d="M9 2C6.23858 2 4 4.23858 4 7C4 9.76142 6.23858 12 9 12C11.7614 12 14 9.76142 14 7C14 4.23858 11.7614 2 9 2ZM2 7C2 3.13401 5.13401 0 9 0C12.866 0 16 3.13401 16 7C16 10.866 12.866 14 9 14C5.13401 14 2 10.866 2 7Z" fill="#00BFB3"/>
<circle cx="7" cy="7" r="1" fill="#00BFB3"/>
<path d="M30.8331 25.2929L26.5451 21.0049C24.6215 19.0813 22.0111 18 19.291 18H13.126C11.4697 18 10.126 19.3437 10.126 21C10.126 22.6563 11.4697 24 13.126 24H18.126V22H13.126C12.5743 22 12.126 21.5517 12.126 21C12.126 20.4483 12.5743 20 13.126 20H19.291C21.4807 20 23.5824 20.8706 25.1309 22.4191L29.4189 26.7071L30.8331 25.2929Z" fill="#535766"/>
<path d="M11.7845 20.2474L4.91648 14.2374C3.90815 13.3559 2.43408 13.2594 1.32025 14.0019C-0.107389 14.9542 -0.431633 16.9158 0.614291 18.2757L6.41938 25.8208C8.44494 28.4561 11.5806 30 14.9059 30H21.2109C21.427 30 21.6286 30.114 21.7398 30.299L22.7165 31.9285L24.4319 30.9002L23.4547 29.2699C22.9813 28.4821 22.129 28 21.2109 28H14.9059C12.2017 28 9.65199 26.7446 8.00481 24.6016L2.19951 17.0562C1.85962 16.6143 1.96515 15.9759 2.42985 15.6659C2.79178 15.4246 3.27171 15.4561 3.59976 15.7428L10.4674 21.7525L11.7845 20.2474Z" fill="#535766"/>
</g>
<defs>
<clipPath id="clip0">
<rect width="32" height="32" fill="white"/>
</clipPath>
</defs>
</svg>
