<?xml version="1.0" encoding="UTF-8"?>
<svg width="32px" height="32px" viewBox="0 0 32 32" version="1.1" xmlns="http://www.w3.org/2000/svg" xmlns:xlink="http://www.w3.org/1999/xlink">
    <!-- Generator: Sketch 55.1 (78136) - https://sketchapp.com -->
    <title>icon-presentation-stand-32-color</title>
    <desc>Created with Sketch.</desc>
    <g id="icon-presentation-stand-32-color" stroke="none" stroke-width="1" fill="none" fill-rule="evenodd">
        <polygon id="Stroke-1" fill="#00BFB3" fill-rule="nonzero" points="15 21 15 27 17 27 17 21"></polygon>
        <polygon id="Stroke-2" fill="#00BFB3" fill-rule="nonzero" points="21.0206645 31.7719893 22.2919355 30.2280107 16.0003562 25.0476916 9.70773148 30.2279555 10.9788685 31.7720445 16.0002438 27.6383084"></polygon>
        <path d="M0,22 L32,22 L32,0 L0,0 L0,22 Z M2,20 L2,2 L30,2 L30,20 L2,20 Z" id="Stroke-4" fill="#535966" fill-rule="nonzero"></path>
        <path d="M15,11 C15,13.7612847 12.7612847,16 10,16 C7.23871525,16 5,13.7612847 5,11 C5,8.23871525 7.23871525,6 10,6 C12.7612847,6 15,8.23871525 15,11 Z M13,11 C13,9.34328475 11.6567153,8 10,8 C8.34328475,8 7,9.34328475 7,11 C7,12.6567153 8.34328475,14 10,14 C11.6567153,14 13,12.6567153 13,11 Z" id="Stroke-6" fill="#00BFB3" fill-rule="nonzero"></path>
        <polygon id="Stroke-7" fill="#00BFB3" fill-rule="nonzero" points="11 10 11 7 9 7 9 12 14 12 14 10"></polygon>
        <polygon id="Stroke-8" fill="#535966" fill-rule="nonzero" points="18 10 27 10 27 8 18 8"></polygon>
        <polygon id="Stroke-9" fill="#535966" fill-rule="nonzero" points="18 14 24 14 24 12 18 12"></polygon>
    </g>
</svg>