<svg id="Layer_1" data-name="Layer 1" xmlns="http://www.w3.org/2000/svg" viewBox="0 0 128 128"><defs><style>.cls-1{fill:#ecf0f6;}.cls-2{fill:#fff;}.cls-3{fill:#ced5e1;}.cls-4{fill:#07c;}.cls-5{fill:none;}.cls-6{fill:#343741;}.cls-7{fill:#1ba9f5;}.cls-8{fill:#0269b3;}</style></defs><title>illustration-flexible-128-white-bg</title><circle class="cls-1" cx="64" cy="64" r="60"/><path class="cls-2" d="M115.17,49.54c.16-.26-.07-.47-.33-.58s-.66,0-.67.29-.11.69.25.78S115.05,49.74,115.17,49.54Z"/><path class="cls-2" d="M114.1,50.86a.73.73,0,0,0-.22-.57c-.22-.18-.7.06-.73.36a1,1,0,0,0,.14.48C113.71,51.29,114.08,51.14,114.1,50.86Z"/><path class="cls-2" d="M116.16,47.55a.87.87,0,0,0,1.11-.35,1.32,1.32,0,0,0-.61-1.55.87.87,0,0,0-.92.33,1.32,1.32,0,0,0-1.07-.19,1.26,1.26,0,0,0-.64,1.53,1.23,1.23,0,0,0,1.48.73A1.48,1.48,0,0,0,116.16,47.55Z"/><path class="cls-2" d="M106.14,21.46s.06,0,.1-.07c-.31-.31-.64-.6-.95-.9a.61.61,0,0,0-.05.56A.65.65,0,0,0,106.14,21.46Z"/><path class="cls-2" d="M112.1,47.71c-.14.29.13.78.66,1,.12,0,.39-.1.5-.26a.71.71,0,1,0-1.16-.79Z"/><path class="cls-2" d="M114.67,44.92a.69.69,0,0,0,.77-.43.49.49,0,0,0,0-.41c-.22-.24-.48-.44-.74-.68,0-.81-.27-1.38-.75-1.4a1.21,1.21,0,0,0-.9.53.32.32,0,0,0-.24.13.26.26,0,0,0,0,.23.86.86,0,0,0-.06.23c0,.56.23.73,1.35.84C114.15,44.4,114.09,44.85,114.67,44.92Z"/><path class="cls-2" d="M112.84,38.84c-.53.23-.71.53-.54.91a.82.82,0,0,0,1.09.55,1.41,1.41,0,0,0,.4-1.24C113.67,38.71,113.32,38.63,112.84,38.84Z"/><path class="cls-2" d="M110,31.35a.7.7,0,0,0,.32,0,2.43,2.43,0,0,1,.33.46,1,1,0,0,0,1.1.61c.49-.08.68-.43.39-1.1-.22-.21-.55-.57-.93-.88a.19.19,0,0,0,0-.07.81.81,0,0,0-.73-.89c-.51-.11-1.22.22-1.3.6A1.15,1.15,0,0,0,110,31.35Z"/><path class="cls-2" d="M112.77,30a.76.76,0,0,0,.35-.44c-.45-.65-.91-1.29-1.39-1.91a.52.52,0,0,0-.29.12.58.58,0,0,0-.11.85.79.79,0,0,0,.27.2.72.72,0,0,0,.05.55C112,30,112.31,30.22,112.77,30Z"/><path class="cls-2" d="M117.06,36.6a.78.78,0,0,0,.5.87.43.43,0,0,0,.25,0c-.17-.35-.35-.69-.53-1A.24.24,0,0,0,117.06,36.6Z"/><path class="cls-2" d="M120.44,43.6c-.29-.8-.6-1.58-.92-2.36a3.71,3.71,0,0,0-.37.21.91.91,0,0,0-.07,1.5A6.91,6.91,0,0,0,120.44,43.6Z"/><path class="cls-2" d="M116.87,40.31a1.52,1.52,0,0,0,.45.38,4.46,4.46,0,0,0,.52.31c.59.31,1,.26,1.32-.16a1.2,1.2,0,0,0,.11-.23c-.22-.52-.46-1-.7-1.54a8.38,8.38,0,0,1-1-1c-.33-.41-1-.66-1.28-.41a.78.78,0,0,0,0,.93c.39.28.2.58.24.9A2,2,0,0,0,116.87,40.31Z"/><path class="cls-2" d="M110.4,27.52c.68.36,1,.37,1.25,0-.28-.38-.57-.74-.87-1.11C110.35,26.69,110.39,27.12,110.4,27.52Z"/><path class="cls-2" d="M109,26.71a.66.66,0,0,0,.48-.37,1.09,1.09,0,0,0-.21-.76c-.38-.35-.67,0-1,.25C108.31,26.33,108.45,26.72,109,26.71Z"/><path class="cls-2" d="M45.27,18.14a.85.85,0,0,0,.09-1c-.49-.51-1.11-.66-1.43-.34A1.24,1.24,0,0,0,44,18.21,1.14,1.14,0,0,0,45.27,18.14Z"/><path class="cls-2" d="M67.16,4.65c-.32.56-.21.94.37,1.29a.93.93,0,0,0,1.24-.11,1.41,1.41,0,0,0-.47-1.66l-.51,0A1.13,1.13,0,0,0,67.16,4.65Z"/><path class="cls-2" d="M115.25,53.46c.25-.14.41-.39.23-.64s-.58-.61-.8-.5-.19.55-.17.83l0,0a.5.5,0,0,0-.69.34.42.42,0,0,0,.32.6c.21,0,.76.13.84-.15a.59.59,0,0,0-.1-.41A.53.53,0,0,0,115.25,53.46Z"/><path class="cls-2" d="M61.37,10.81c-.11.1-.2.61-.06.73s.67,0,.71-.13.12-.61,0-.69A.68.68,0,0,0,61.37,10.81Z"/><path class="cls-2" d="M64.57,4.59a1.11,1.11,0,0,0-.12-.27.81.81,0,0,0,.19-.3L64,4h-.42s0,.07,0,.1a.27.27,0,0,0-.08.07,6.83,6.83,0,0,0-.36.94c-.77.26-1.19.74-1,1.21A1.33,1.33,0,0,0,63.57,7c.54-.17.61-.48.3-1.56C64.28,5.26,64.72,5.15,64.57,4.59Z"/><path class="cls-2" d="M71.25,7.09c.32-.08.69-.06.88-.35s.76-1.11.42-1.66-.73-.12-1.09-.17a.87.87,0,0,0-.83.37,1.2,1.2,0,0,0-.64.33A1.07,1.07,0,0,0,70,6.91a.42.42,0,0,1-.33-.11c-.27-.25-.86-.25-1.33.35s-.16,1.53.4,1.56.71-.27.85-.13.27.6.64.59S71,8.11,71,7.93s-.21-.5-.06-.7A1.28,1.28,0,0,0,71.25,7.09Z"/><path class="cls-2" d="M82.05,7a1.19,1.19,0,0,0-1.26.23,1.23,1.23,0,0,0,.43,1.3A.56.56,0,0,0,82,8.35C82.42,7.76,82.43,7.22,82.05,7Z"/><path class="cls-2" d="M72.9,7c-.16.24,0,.57.1.79s.54.14.71-.09.14-.59-.1-.7S73.07,6.79,72.9,7Z"/><path class="cls-2" d="M62.08,13.73a.91.91,0,0,0,1.11,0,1.52,1.52,0,0,0,.1-1.52,1.12,1.12,0,0,0-1.4.27C61.53,12.84,61.6,13.3,62.08,13.73Z"/><path class="cls-2" d="M44.15,13.06a1.48,1.48,0,0,0-1.58,0,1,1,0,0,0,0,1.35,1.11,1.11,0,0,0,1.41.08A1.08,1.08,0,0,0,44.15,13.06Z"/><path class="cls-2" d="M82.52,9.11a.7.7,0,1,0,.75-1.19.77.77,0,0,0-1,.29A.68.68,0,0,0,82.52,9.11Z"/><path class="cls-2" d="M117.27,42.66a1,1,0,0,0,.51-1.15.84.84,0,0,0-.9-.51c-.63.22-1,.71-.86,1.12A1.1,1.1,0,0,0,117.27,42.66Z"/><path class="cls-2" d="M60.88,8.27l0,0A.86.86,0,0,0,60.63,7a1.06,1.06,0,0,0-1.58.32,1.13,1.13,0,0,0,.2,1.49.94.94,0,0,0,.87.06.5.5,0,0,0,.5-.17A1.09,1.09,0,0,0,60.88,8.27Z"/><path class="cls-2" d="M59.47,9.63a.68.68,0,0,0-.58.66.5.5,0,0,0,.36.59c.49.16.74-.13,1-.51C60.06,10,60,9.55,59.47,9.63Z"/><path class="cls-2" d="M57.16,4.4l0,0A1.46,1.46,0,0,0,57,4.9a.74.74,0,0,0-.17-.3l-.16-.14-1,.14a1.78,1.78,0,0,1,.32.68.68.68,0,0,0,.58.23A.72.72,0,0,0,57,5.16a.69.69,0,0,0,.26.62.79.79,0,0,0,.86-.36c.12-.47.46-.4.75-.55a1,1,0,0,0,.28-.23s0,0,0,0a1.12,1.12,0,0,0,1.13,0,.65.65,0,0,0,.12-.47c.38.31.82.39,1.08.15a.64.64,0,0,0,.19-.29C60.15,4.12,58.64,4.23,57.16,4.4Z"/><path class="cls-2" d="M45.26,9.25a1,1,0,0,0-1.6.06,1,1,0,0,0-.12,1.59,1.17,1.17,0,0,0,1.77-.07A1.2,1.2,0,0,0,45.26,9.25Z"/><path class="cls-2" d="M116.78,49c-.12.06-.17.4-.12.58a.32.32,0,0,0,.53.2c.16-.14.56-.51.45-.73S117,48.89,116.78,49Z"/><path class="cls-2" d="M93.39,16.53a.42.42,0,0,0,.69-.17,2.14,2.14,0,0,0,0-.62.64.64,0,0,0-.91.24C93,16.25,93.19,16.4,93.39,16.53Z"/><path class="cls-2" d="M92.83,12.62a.72.72,0,0,0,.57-.24.51.51,0,0,0,0-.52c-.23-.35-.57-.32-.94-.09C92.47,12.11,92.39,12.5,92.83,12.62Z"/><path class="cls-2" d="M90.68,22.72a.64.64,0,0,0,.63-.61c0-.53-.61-.88-.82-.88a.94.94,0,0,0-.57,1.05A.65.65,0,0,0,90.68,22.72Z"/><path class="cls-2" d="M67.63,6.48a.65.65,0,0,0-.92-.18,1.1,1.1,0,0,0-.14,1.36.75.75,0,0,0,1,.08A.94.94,0,0,0,67.63,6.48Z"/><path class="cls-2" d="M88.52,14A1.25,1.25,0,0,0,90,13.24a1.61,1.61,0,0,0-1-1.62,1.27,1.27,0,0,0-1.33,1A1.23,1.23,0,0,0,88.52,14Z"/><path class="cls-2" d="M88.07,9.52a.82.82,0,0,0,.31,1.3,1,1,0,0,0,1.07.07.66.66,0,0,0,.84,0,.55.55,0,0,0,.21-.35,3.74,3.74,0,0,0-.12-.45q-1-.47-1.95-.9A1.07,1.07,0,0,0,88.07,9.52Z"/><path class="cls-2" d="M95.1,18a.84.84,0,0,0,1-.72.55.55,0,0,0-.45-.64.7.7,0,0,0-.84.29A.78.78,0,0,0,95.1,18Z"/><path class="cls-2" d="M91.23,11.19a.61.61,0,0,0,.84-.13s0-.05,0-.07c-.39-.21-.79-.41-1.19-.61A.68.68,0,0,0,91.23,11.19Z"/><path class="cls-2" d="M103,19.43a.76.76,0,0,0,0,.68.39.39,0,0,0,.6.27c.26-.15.48-.33.37-.68S103.13,19.27,103,19.43Z"/><path class="cls-2" d="M103.19,23.83a1,1,0,0,0,.9-.54.89.89,0,0,0-.62-.83.66.66,0,0,0-.8.58A.73.73,0,0,0,103.19,23.83Z"/><path class="cls-2" d="M104.45,20.11a.77.77,0,0,0,.39-.05l-1.07-1v0A1.19,1.19,0,0,0,104.45,20.11Z"/><path class="cls-2" d="M67.18,10a.19.19,0,0,0,0-.23.2.2,0,0,0-.28,0,.2.2,0,0,0,0,.27C67,10.09,67.14,10.05,67.18,10Z"/><path class="cls-2" d="M97.62,14.3c-.87-.59-1.75-1.15-2.65-1.69a1.73,1.73,0,0,1,.15.2,1.57,1.57,0,0,0,0,1.75,1.65,1.65,0,0,0,2.45-.22Z"/><path class="cls-2" d="M96.55,22.77a.94.94,0,0,0,1-.92c.06-.46-.26-.76-.88-.85s-.9.15-.93.53A1.69,1.69,0,0,0,96.55,22.77Z"/><path class="cls-2" d="M91.9,14.32a1.76,1.76,0,0,0,0-.61.64.64,0,0,0-.91.23c-.14.28,0,.43.22.56A.44.44,0,0,0,91.9,14.32Z"/><path class="cls-2" d="M65.93,9.94a.69.69,0,0,0,.92-.2.63.63,0,0,0-.23-.83.57.57,0,0,0-.84.12A.63.63,0,0,0,65.93,9.94Z"/><path class="cls-2" d="M118.48,55a1,1,0,0,0,1.21-.12c.36-.6-.13-1.15-.4-1.42s-1,.17-1.17.75A.65.65,0,0,0,118.48,55Z"/><path class="cls-2" d="M121.49,51.42a.79.79,0,0,0,.23-1.05,2.15,2.15,0,0,0-.75-.12c-.36.07-.49.58-.3,1A.59.59,0,0,0,121.49,51.42Z"/><path class="cls-2" d="M119.84,45c-.26.47.12,1.25.76,1.56a.88.88,0,0,0,.82,0c-.21-.69-.44-1.37-.68-2.05A1.09,1.09,0,0,0,119.84,45Z"/><path class="cls-2" d="M116.48,52.6a1.07,1.07,0,0,0,1.15-.56.83.83,0,0,0-.3-.92c-.59-.28-1.21-.18-1.38.22A1.19,1.19,0,0,0,116.48,52.6Z"/><path class="cls-2" d="M118.5,44.67a.73.73,0,0,0,.37-.51.55.55,0,0,0-.24-.46c-.38-.18-.65,0-.85.41C117.93,44.41,118.07,44.78,118.5,44.67Z"/><path class="cls-2" d="M117.56,56.23a.72.72,0,0,0,.43-.84.71.71,0,0,0-.8-.36.83.83,0,0,0-.43.86A.65.65,0,0,0,117.56,56.23Z"/><path class="cls-2" d="M120.58,49.31a1.49,1.49,0,0,0-.59-1.74l-.17-.07a.64.64,0,0,0-.84-.24,1.17,1.17,0,0,0-.65,1l0,.05a1.1,1.1,0,0,0,.45,1.48A1.44,1.44,0,0,0,120.58,49.31Z"/><path class="cls-2" d="M64.56,7.06a.64.64,0,0,0,.91-.18.58.58,0,0,0-.26-.81.67.67,0,0,0-.9.26A.51.51,0,0,0,64.56,7.06Z"/><path class="cls-2" d="M122.53,50.84c-.06-.29-.13-.58-.2-.87,0,0,0,0,0,.05A.65.65,0,0,0,122.53,50.84Z"/><path class="cls-2" d="M55,4.72l0,0-.89.15A1.32,1.32,0,0,0,55,4.72Z"/><path class="cls-2" d="M67,4.31a1.53,1.53,0,0,0,.16-.22c-.65,0-1.31,0-2-.06a.8.8,0,0,0,.14.24A1.27,1.27,0,0,0,67,4.31Z"/><path class="cls-2" d="M54.21,6.1a.74.74,0,0,0-.14-.93c-.27-.17-.91-.09-1,.13a.92.92,0,0,0,.28,1.08A.66.66,0,0,0,54.21,6.1Z"/><path class="cls-2" d="M123.9,60.65a1.17,1.17,0,0,0,0,.59Z"/><path class="cls-2" d="M96.52,35.72a.59.59,0,0,0-.27.53c0,.14.39.49.56.43s.25-.52.2-.62S96.66,35.69,96.52,35.72Z"/><path class="cls-2" d="M79.58,17.67a5.71,5.71,0,0,0,.44-.85,1.31,1.31,0,0,0-.61-1.4.53.53,0,0,0-.72.07,3.76,3.76,0,0,0-.91,2,1.23,1.23,0,0,0,.06.34.83.83,0,0,0,1.23.46.49.49,0,0,0,.32-.17A.61.61,0,0,0,79.58,17.67Z"/><path class="cls-2" d="M79,22.24c.3-.26,0-1.11-.27-1.14s-.81.72-.57,1A.65.65,0,0,0,79,22.24Z"/><path class="cls-2" d="M79.24,25.89a.61.61,0,0,0-.09-.58.41.41,0,0,0-.66.09c-.09.16-.24.62.1.82S79.17,26,79.24,25.89Z"/><path class="cls-2" d="M78.62,19.22c-.05-.18-.41-.16-.49-.11a.44.44,0,0,0-.2.41c0,.15.3.18.43.15S78.68,19.39,78.62,19.22Z"/><path class="cls-2" d="M87.93,32.56c0,.07.13.29.19.29s.33-.1.37-.21a.37.37,0,0,0-.2-.47C88,32.09,88,32.43,87.93,32.56Z"/><path class="cls-2" d="M89.6,30.77a.34.34,0,0,0,.27.39.36.36,0,0,0,.46-.35A.37.37,0,0,0,90,30.4.41.41,0,0,0,89.6,30.77Z"/><path class="cls-2" d="M90.7,26c.07-.47-.12-.76-.53-.82-.58-.09-1.24.29-1.29.74s.43.86.9.91A.91.91,0,0,0,90.7,26Z"/><path class="cls-2" d="M84,8.18c0,.07,0,.18.13.19a.18.18,0,0,0,.22-.16c0-.13-.12-.19-.18-.2S84,8.13,84,8.18Z"/><path class="cls-2" d="M60.08,17.81a.38.38,0,0,0-.12.5c.15.22.41,0,.52-.09a.35.35,0,0,0,0-.34A.52.52,0,0,0,60.08,17.81Z"/><path class="cls-2" d="M61.21,12.86a.9.9,0,0,0-.16-1.22,1.34,1.34,0,0,0-1.63.39,1,1,0,0,0,1.79.83Z"/><path class="cls-2" d="M59,15a1.19,1.19,0,0,0-1.75.11,1.08,1.08,0,0,0-.06,1.6,1.36,1.36,0,0,0,1.8.05A1.43,1.43,0,0,0,59,15Z"/><path class="cls-2" d="M73.58,14.6c-.44-.85-1.22-.24-1.3-.87s.53-.42.37-1.3-1-1.25-1.48-.82-.28,1-.41,1-.79.2-.7.69c-.12-.06-.26-.09-.33,0s0,.45.06.53a.39.39,0,0,0,.45.05.3.3,0,0,0,0-.08c.34.39.9.19,1,.41s.08.95.28,1.39c.27.62.87,1,1.49.66A1.16,1.16,0,0,0,73.58,14.6Z"/><path class="cls-2" d="M72.17,21.36c-.08.12-.17.39,0,.53a.4.4,0,0,0,.52-.1c.09-.1.27-.45,0-.65S72.24,21.24,72.17,21.36Z"/><path class="cls-2" d="M69,11.56a1,1,0,0,0,0-1.21c-.54-.44-1.15,0-1.45.19s0,1,.57,1.26A.63.63,0,0,0,69,11.56Z"/><path class="cls-2" d="M68.08,18.8c0,.11,0,.2,0,.25a.24.24,0,0,0,.19,0c0-.09.08-.21,0-.27S68.17,18.79,68.08,18.8Z"/><path class="cls-2" d="M89.12,16.45a1.09,1.09,0,0,0,.08-.15c.24-.05.63-.16.65-.38s-.52-.46-.72-.48a.16.16,0,0,0-.1,0h0a1.38,1.38,0,0,0-1.35.1A.89.89,0,0,0,88,16.85C88.3,17.09,88.78,16.93,89.12,16.45Z"/><path class="cls-2" d="M115.11,85c.08-.16-.17-.36-.28-.43a.36.36,0,0,0-.36.12c0,.11.09.31.19.4S115,85.21,115.11,85Z"/><path class="cls-2" d="M94.57,31.85c0,.26,0,.58.36.57s.54-.21.57-.37-.18-.45-.25-.61C94.76,31.37,94.61,31.6,94.57,31.85Z"/><path class="cls-2" d="M116.16,65.91c.1-.28.08-.55-.18-.69a3.7,3.7,0,0,0-2.09-.63.88.88,0,0,0-.33.12.83.83,0,0,0,0,1.51,5.38,5.38,0,0,0,1.3.5A1.32,1.32,0,0,0,116.16,65.91Z"/><path class="cls-2" d="M115.21,79.73a.38.38,0,0,0-.15-.41c-.1-.07-.47-.09-.54.05s.15.43.25.47A.38.38,0,0,0,115.21,79.73Z"/><path class="cls-2" d="M120.72,70.61a1.38,1.38,0,0,0,.38-1.27,1.17,1.17,0,0,0-.91-.93l-.12,0a1.11,1.11,0,0,0,.61-.55c.16-.38-.09-.81-.63-1.06a.94.94,0,0,0-1.15.25,1.22,1.22,0,0,0,.41,1.39.55.55,0,0,0,.18.06,1.21,1.21,0,0,0-.41.38,2.05,2.05,0,0,0-.31,1.4.93.93,0,0,1-.12.52.85.85,0,0,0,.37,1.37.41.41,0,0,0-.15.2c-.1.28.14.66.5.82a.78.78,0,0,0,1-.31A.66.66,0,0,0,120,72h0a1.27,1.27,0,0,0,.29-.58A1.23,1.23,0,0,1,120.72,70.61Z"/><path class="cls-2" d="M123.71,67.74a.69.69,0,0,0-.87.35.72.72,0,0,0,.37.93.71.71,0,0,0,.57,0c0-.39.06-.77.08-1.16Z"/><path class="cls-2" d="M122,77a.61.61,0,0,0,.26.81l.08,0c.11-.42.21-.85.3-1.28A.69.69,0,0,0,122,77Z"/><path class="cls-2" d="M114.87,73.53c-.11-.37-.4-.44-1.12-.31-.08.37-.31.76.15,1a.6.6,0,0,0,.85-.13A.78.78,0,0,0,114.87,73.53Z"/><path class="cls-2" d="M104.15,27.53a1,1,0,0,0,1.18-1,1.76,1.76,0,0,0,0-.61,1.41,1.41,0,0,0,.84-.06.76.76,0,0,0,.37-.76,1.43,1.43,0,0,0,1.33-1A1.18,1.18,0,0,0,107,22.7a1.89,1.89,0,0,0-1.61,1.13.83.83,0,0,0,.09.55h-.06a1.27,1.27,0,0,0-.59.84,1.62,1.62,0,0,0-.55-.17,1.28,1.28,0,0,0-1.39,1.14C102.82,26.74,103.47,27.42,104.15,27.53Z"/><path class="cls-2" d="M97.7,29.19c1,.19,1,.12,1-.72-.42-.3-.76-.18-1.06.22-1.12-.49-1.65,0-1.53,1.27a1.1,1.1,0,0,1-.21.14c-.33.13-.37.4-.33.71s.22.43.5.53c.67.22,1,.07,1.14-.62C97.39,30.21,97.55,29.69,97.7,29.19Z"/><path class="cls-2" d="M96.1,24.53a1,1,0,0,0-.84-1.17,1.32,1.32,0,0,0-1.41,1.14,1.33,1.33,0,0,0,1,1.22C95.5,25.8,96,25.31,96.1,24.53Z"/><path class="cls-2" d="M103.12,32.37c-.09-.22-.5-.28-.84-.13a.38.38,0,0,0-.22.56c.14.27.34.47.69.35A.69.69,0,0,0,103.12,32.37Z"/><path class="cls-2" d="M102.37,51.15c-.08,0-.3.22-.24.39s.39.12.51.08a.32.32,0,0,0,.15-.34C102.74,51.17,102.5,51.14,102.37,51.15Z"/><path class="cls-2" d="M102.61,29.57a1.14,1.14,0,0,0-1.31,1.08,1.15,1.15,0,0,0,1,1.15c.56.07,1.11-.51,1.19-1.24A.88.88,0,0,0,102.61,29.57Z"/><path class="cls-2" d="M57.1,19.92c-.17.16-.08.57.19.83a.36.36,0,0,0,.59,0c.2-.23.32-.49.08-.77A.68.68,0,0,0,57.1,19.92Z"/><path class="cls-2" d="M116.81,58.62c.61-.16.5.46,1.34.17s1.1-1.18.6-1.57-1-.15-1.07-.27-.31-.76-.78-.59c-1,.36-.44,1.17-.71,1.36s-.92.22-1.33.48c-.57.36-.89,1-.44,1.57a1.47,1.47,0,0,0,.35.32.66.66,0,0,0,.23.17c.3.16.8.65,1.21.39s.12-.6.15-.82v0C116.76,59.31,116.28,58.76,116.81,58.62Z"/><path class="cls-2" d="M33.62,14.48c.33.14.92-.45.8-.71s-.9-.36-1.05,0A.61.61,0,0,0,33.62,14.48Z"/><path class="cls-2" d="M111.89,65c-.14.06-.14.33-.09.45s.32.28.49.2.09-.43,0-.51A.43.43,0,0,0,111.89,65Z"/><path class="cls-2" d="M112.79,62.27a1.06,1.06,0,0,0-.21-.74c-.17-.19-.67,0-.74.32a1.41,1.41,0,0,0,.1.54C112.38,62.61,112.76,62.54,112.79,62.27Z"/><path class="cls-2" d="M25.33,18.16c-.13.22-.36.81-.2,1s.76-.13.78-.22c.08-.28.24-.63,0-.88S25.4,18,25.33,18.16Z"/><path class="cls-2" d="M123,59.17a.42.42,0,0,0,.68-.19c.06-.2.15-.58-.11-.7a.35.35,0,0,0-.2-.05.89.89,0,0,0,.21-.91l.09.08c-.06-.59-.14-1.18-.22-1.76a.36.36,0,0,1-.1-.55s0-.05,0-.07c0-.28-.1-.56-.14-.85a1.69,1.69,0,0,0-.42-.36,1.17,1.17,0,0,0-.68-.13.32.32,0,0,0,0-.09,1,1,0,0,0-1.16-.33,1,1,0,0,0,.06,1.19.61.61,0,0,0,.35.15c.1.4.33.52.22.66s-.56.35-.49.71,1.15.62,1.33.57.6-.38.8,0a1.76,1.76,0,0,1,.17.42.59.59,0,0,0-.7-.15c-.55.23-.92.89-.73,1.3a.91.91,0,0,0,.87.41h0C122.55,58.64,122.7,59,123,59.17Z"/><path class="cls-2" d="M118.92,63.8a1.31,1.31,0,0,0-.58-1.49,1,1,0,0,0-1,.61.84.84,0,0,0,.51,1.19C118.31,64.31,118.78,64.19,118.92,63.8Z"/><path class="cls-2" d="M117.57,79.61c-.29-.1-.42.08-.52.3a.43.43,0,0,0,.28.66,2.18,2.18,0,0,0,.61-.09A.65.65,0,0,0,117.57,79.61Z"/><path class="cls-2" d="M85.09,10.23a.93.93,0,0,0,.74,1,.63.63,0,0,0,.83-.42,1.08,1.08,0,0,0-.72-1.16A.75.75,0,0,0,85.09,10.23Z"/><path class="cls-2" d="M91.34,19.34a.59.59,0,0,0,.59.61.78.78,0,0,0,.73-.78c-.14-.12-.33-.4-.58-.49S91.37,18.93,91.34,19.34Z"/><path class="cls-2" d="M85.54,8l-.8-.32A1.37,1.37,0,0,0,85.54,8Z"/><path class="cls-2" d="M91.91,15.09a1.13,1.13,0,0,0-1.19.78A1.2,1.2,0,0,0,91.6,17c.37.06.83-.38.9-.87S92.39,15.17,91.91,15.09Z"/><path class="cls-2" d="M100.24,23.9a1.12,1.12,0,0,0,.74,1.22c.35.05,1-.66,1-1.1a.9.9,0,0,0-1.78-.12Z"/><path class="cls-2" d="M101.68,28c-.13.07-.37.22-.29.36a.44.44,0,0,0,.42.19c.11,0,.4-.29.32-.43A.43.43,0,0,0,101.68,28Z"/><path class="cls-2" d="M40.75,22.7a.65.65,0,0,0,.09-.86.67.67,0,0,0-.93-.08.51.51,0,0,0-.08.82A.63.63,0,0,0,40.75,22.7Z"/><path class="cls-2" d="M46.4,14.05a.61.61,0,0,0,.12.9c.25.18.52.39.75.17.39-.42.43-.83.19-1.08A.7.7,0,0,0,46.4,14.05Z"/><path class="cls-2" d="M40.9,26.37a.77.77,0,0,0,0-.95.59.59,0,0,0-.85,0,.73.73,0,0,0-.07,1A.71.71,0,0,0,40.9,26.37Z"/><path class="cls-2" d="M44.46,8.27a1.41,1.41,0,0,0,2-.08,1.32,1.32,0,0,0,.22-1.65c-.86.26-1.72.54-2.56.84A1.06,1.06,0,0,0,44.46,8.27Z"/><path class="cls-2" d="M34.32,23.31a.71.71,0,0,0,0,1,.66.66,0,0,0,1,0,.7.7,0,0,0,0-.93A.67.67,0,0,0,34.32,23.31Z"/><path class="cls-2" d="M53.51,22.39a.43.43,0,0,0,.05.46c.11.09.34.26.45.14a.45.45,0,0,0,0-.46C54,22.44,53.62,22.26,53.51,22.39Z"/><path class="cls-2" d="M49.94,19.45a.78.78,0,0,0-1,.07.92.92,0,0,0-.08,1.19,1.2,1.2,0,0,0,1.37.09C50.45,20.55,50.3,19.82,49.94,19.45Z"/><path class="cls-2" d="M49.19,27.3a.48.48,0,0,0,.05.52.45.45,0,0,0,.42,0,.4.4,0,0,0,0-.41C49.62,27.33,49.32,27.14,49.19,27.3Z"/><path class="cls-2" d="M47.71,11a1.06,1.06,0,0,0-1.28,0,.94.94,0,0,0,.14,1.17.57.57,0,0,0,.84-.11C47.83,11.59,47.94,11.21,47.71,11Z"/><path class="cls-2" d="M37.75,13.64a.88.88,0,0,0-1.31.06A1.05,1.05,0,0,0,36.29,15a1.27,1.27,0,0,0,1.44,0A.87.87,0,0,0,37.75,13.64Z"/><path class="cls-2" d="M35.71,11.14c.46.52,1,.39,1.49.1.22.31.32.76.84.58a.6.6,0,0,0,.44-.66c0-.54-.49-.54-.9-.57,0-.15,0-.29-.08-.43l-1.83.94S35.69,11.13,35.71,11.14Z"/><path class="cls-2" d="M54,11.85c-.26-.42-.65-.47-1.17,0a13.2,13.2,0,0,0-.52,1.31.59.59,0,0,0,.42.75.62.62,0,0,0,.79-.36,1.8,1.8,0,0,1,.32-.49A1,1,0,0,0,54,11.85Z"/><path class="cls-2" d="M35.48,16.42A.83.83,0,0,0,34,16.36a4.79,4.79,0,0,0-.55,1.27A1.29,1.29,0,0,0,34.16,19c.28.12,1,.14,1.05-.47-.35-1,.39-1,.37-1.74A1,1,0,0,0,35.48,16.42Z"/><path class="cls-2" d="M38.52,18.88a.47.47,0,0,0,0-.74.65.65,0,0,0-.59.07c-.13.11-.32.54-.19.7S38.36,19,38.52,18.88Z"/><path class="cls-2" d="M40.81,17.58c-.32-.33-.78-.27-1.21.16a.71.71,0,0,0-.14,1,1.4,1.4,0,0,0,1.44.13A.85.85,0,0,0,40.81,17.58Z"/><path class="cls-2" d="M31.45,19.94a.19.19,0,0,0,0,.26c0,.05.2,0,.24,0a.18.18,0,1,0-.27-.23Z"/><path class="cls-2" d="M85.53,23.1a1.13,1.13,0,0,0-.35-1.47,1.21,1.21,0,0,0-1.73.35,1,1,0,0,0,.2,1.38A1.5,1.5,0,0,0,85.53,23.1Z"/><path class="cls-2" d="M85.08,27.69a.68.68,0,0,0,.73-.49.58.58,0,0,0-.45-.71.67.67,0,0,0-.72.49C84.56,27.31,84.78,27.69,85.08,27.69Z"/><path class="cls-2" d="M86.89,21.56a.7.7,0,0,0-.5-.71.82.82,0,0,0-.81.52.62.62,0,0,0,.51.69A.71.71,0,0,0,86.89,21.56Z"/><path class="cls-2" d="M86.09,26.67a.59.59,0,0,0,.48-.36c0-.19-.38-.4-.51-.39a.48.48,0,0,0-.32.38A.5.5,0,0,0,86.09,26.67Z"/><path class="cls-2" d="M82.64,15.33a.67.67,0,0,0-.21,1.1.94.94,0,0,0,.77.17.75.75,0,0,0,.39-.57A.77.77,0,0,0,82.64,15.33Z"/><path class="cls-2" d="M82.66,25.17c.49,0,.41-.45.56-.63A1.06,1.06,0,0,0,83.09,23,.94.94,0,0,0,82,23.2a.74.74,0,0,0-.13,1C82,24.5,82.18,25.18,82.66,25.17Z"/><path class="cls-2" d="M81.53,20.19c.19,0,.23-.67.14-1.07a.7.7,0,0,0,.13.16s.31-.09.31-.16,0-.4-.16-.48-.36.2-.36.26h0l-.06-.08c-.23-.18-.75.21-.83.71S81.28,20.24,81.53,20.19Z"/><path class="cls-2" d="M98.57,28.32a.48.48,0,0,0,.21-.37c0-.09-.31-.34-.41-.3s-.14.39-.11.52S98.52,28.36,98.57,28.32Z"/><path class="cls-2" d="M85.22,15.5a.65.65,0,0,0-.92.11.68.68,0,0,0,.13.93.75.75,0,0,0,1-.14A.65.65,0,0,0,85.22,15.5Z"/><path class="cls-2" d="M93.61,21.49a.68.68,0,0,0,.14-1.36.75.75,0,0,0-.71.63A.66.66,0,0,0,93.61,21.49Z"/><path class="cls-2" d="M98.48,33.12a.66.66,0,0,0,.38-.77A.65.65,0,0,0,98,32a.53.53,0,0,0-.36.75A.63.63,0,0,0,98.48,33.12Z"/><path class="cls-2" d="M93,18.34a.36.36,0,0,0-.43.09c-.08.08-.16.44,0,.53s.45-.08.51-.18S93.08,18.43,93,18.34Z"/><path class="cls-2" d="M92.51,24.73a1.85,1.85,0,0,0-.4-1.92,1.25,1.25,0,0,0-1.66.46,1.39,1.39,0,0,0,.36,1.7A1.26,1.26,0,0,0,92.51,24.73Z"/><path class="cls-2" d="M87.36,18.85a.62.62,0,0,0,0-.87.83.83,0,0,0-.59-.2c-.38,0-.49.34-.46,1.06C86.65,19,87,19.27,87.36,18.85Z"/><path class="cls-2" d="M92.4,30.78c.11,0,.49,0,.49-.21s-.23-.33-.32-.33-.42,0-.43.16A.47.47,0,0,0,92.4,30.78Z"/><path class="cls-2" d="M75.45,16.33a.47.47,0,0,0-.72.21.83.83,0,0,0,0,.66c.11.15.73.21.89,0A.61.61,0,0,0,75.45,16.33Z"/><path class="cls-2" d="M74.13,9A.84.84,0,0,0,73,9.1a1.06,1.06,0,0,0,.12,1.29,1.16,1.16,0,0,0,1.48-.26C74.75,9.84,74.53,9.3,74.13,9Z"/><path class="cls-2" d="M74.77,19.11a1.23,1.23,0,0,0,.55,0c.28-.4.26-.79,0-.86a1,1,0,0,0-.76.1C74.34,18.47,74.48,19,74.77,19.11Z"/><path class="cls-2" d="M99.28,26.54c.06-.4-.47-.55-.69-.67s-.54.11-.6.45.09.61.43.58S99.22,26.94,99.28,26.54Z"/><path class="cls-2" d="M74.32,23.36c.24-.55-.53-1-.79-.87s-.45.86-.18,1.07S74.08,23.92,74.32,23.36Z"/><path class="cls-2" d="M70.34,17.36c.22-.3,0-1-.42-1.28a.8.8,0,0,0-1.15.14,1.08,1.08,0,0,0,.16,1.41A1.14,1.14,0,0,0,70.34,17.36Z"/><path class="cls-2" d="M70.15,25.77a.44.44,0,0,0,.42-.09.36.36,0,0,0-.09-.51c-.25-.14-.4.12-.46.22A.38.38,0,0,0,70.15,25.77Z"/><path class="cls-2" d="M75.31,13.84c.14-.12,0-.4-.11-.5a.33.33,0,0,0-.37,0c-.09.08,0,.32,0,.44S75.17,14,75.31,13.84Z"/><path class="cls-2" d="M76.61,13.86a.84.84,0,0,0,1.25-.33c.27-.47.22-.95-.14-1.15a1.32,1.32,0,0,0-1.56.37A1,1,0,0,0,76.61,13.86Z"/><path class="cls-2" d="M80.13,6.38a.65.65,0,0,0,.54.17.76.76,0,0,0,.31-.1c-1-.3-2-.56-3.06-.81A1,1,0,0,0,78.22,7a1.56,1.56,0,0,0,1.15.24.29.29,0,0,0,.14.08c.11,0,.46,0,.49-.2a.26.26,0,0,0-.1-.2A.73.73,0,0,0,80,6.87,1.12,1.12,0,0,0,80.13,6.38Z"/><path class="cls-2" d="M82.33,12.66a.56.56,0,0,0,.09-.17,1,1,0,0,0,.22.35,1.3,1.3,0,0,0-.11.46.89.89,0,0,0,.86,1.07,1,1,0,0,0,1-.8.74.74,0,0,1,.13.08A.85.85,0,0,0,86,13.48a.52.52,0,0,0,.18.18.77.77,0,0,0,.88-.38.79.79,0,0,0-.16-1.09.64.64,0,0,0-.89.28h0a1.23,1.23,0,0,0-.54-.37,1.27,1.27,0,0,1-.74-.53,1.36,1.36,0,0,0-1.2-.55,1.19,1.19,0,0,0-1.06.76l0,.12a1.08,1.08,0,0,0-.46-.68c-.35-.22-.81,0-1.13.47a.93.93,0,0,0,.08,1.17A1.21,1.21,0,0,0,82.33,12.66Z"/><path class="cls-2" d="M85.52,18.51c.29,0,.56-.13.53-.43s-.18-.83-.42-.85-.53.5-.62.72S85.22,18.5,85.52,18.51Z"/><path class="cls-2" d="M76,10.25c0-.13-.18-.28-.3-.33s-.37,0-.4.21.27.3.39.33A.34.34,0,0,0,76,10.25Z"/><path class="cls-2" d="M77.31,10.08A1.42,1.42,0,0,0,79.14,10a1.47,1.47,0,0,0-.38-1.8,1.37,1.37,0,0,0-1.68.44A1.07,1.07,0,0,0,77.31,10.08Z"/><path class="cls-2" d="M76.56,6.58a1,1,0,0,0,.13-.34h0c.48.16.74-.13,1-.52l-.07-.15c-1-.23-1.93-.43-2.91-.6a.88.88,0,0,0-.24.23,1.09,1.09,0,0,0,.41,1.62A1.1,1.1,0,0,0,76.56,6.58Z"/><path class="cls-2" d="M116.05,72a.7.7,0,0,0,.62-1.24.68.68,0,0,0-.9.26A.76.76,0,0,0,116.05,72Z"/><path class="cls-2" d="M67.79,18.22a.39.39,0,0,0-.66,0c-.13.17-.33.68-.2.81s.64,0,.85-.08S68,18.5,67.79,18.22Z"/><path class="cls-2" d="M116.15,70.14a.77.77,0,0,0,.56-1,.67.67,0,0,0-1.12,0,.88.88,0,0,0-.06.78A.72.72,0,0,0,116.15,70.14Z"/><path class="cls-2" d="M116.53,75.67a.64.64,0,0,0,1-.24,1.4,1.4,0,0,0-.29-1.32.89.89,0,0,0-1.22.47C115.77,75,116,75.4,116.53,75.67Z"/><path class="cls-2" d="M111.26,55.41c0-.08,0-.14-.07-.23s-.19,0-.24.08a.28.28,0,0,0,0,.19C111.08,55.46,111.21,55.49,111.26,55.41Z"/><path class="cls-2" d="M113.09,68.51c.14-.26-.32-.71-.83-.72s-.6.66-.52.9S113,68.76,113.09,68.51Z"/><path class="cls-2" d="M117.74,86.15c.36-.16.26-.06.59.17a.67.67,0,0,0,1.13-.33,1.33,1.33,0,0,0-.91-1.52,1.55,1.55,0,0,0-1.77,1.13C116.7,86.14,117.39,86.32,117.74,86.15Z"/><path class="cls-2" d="M111.74,49.59a1.1,1.1,0,0,0-1.38-.39A1,1,0,0,0,111.3,51,1.05,1.05,0,0,0,111.74,49.59Z"/><path class="cls-2" d="M98.83,22.74c.11,0,.4-.25.3-.42a.48.48,0,0,0-.5-.15.42.42,0,0,0-.16.39A.4.4,0,0,0,98.83,22.74Z"/><path class="cls-2" d="M110.24,70.85a1,1,0,0,0-1.33.4,1.5,1.5,0,0,0,.52,1.82,1.12,1.12,0,0,0,1.4-.56A1.2,1.2,0,0,0,110.24,70.85Z"/><path class="cls-2" d="M122,74.13c-.22.5-.1,1.07.26,1.22a1,1,0,0,0,.67,0c.11-.55.21-1.1.3-1.66A.82.82,0,0,0,122,74.13Z"/><path class="cls-2" d="M106.72,74a.52.52,0,0,0-.43-.26.54.54,0,0,0-.31.4c0,.11.23.43.42.43S106.75,74.12,106.72,74Z"/><path class="cls-2" d="M120.84,81.79c-.08.37-.2.73-.31,1.09a.54.54,0,0,0,.13.87c.28-.81.55-1.63.8-2.47A.6.6,0,0,0,120.84,81.79Z"/><path class="cls-2" d="M121.52,64.86a1.45,1.45,0,0,0,1.72-.62,1.37,1.37,0,0,0-.68-1.61,1.08,1.08,0,0,0-1.42.44A1.41,1.41,0,0,0,121.52,64.86Z"/><path class="cls-2" d="M64.22,15.3a.78.78,0,0,0-.6.14c-.21.19,0,.71.25.78a1.08,1.08,0,0,0,.5-.07C64.59,15.75,64.5,15.36,64.22,15.3Z"/><path class="cls-2" d="M119.27,77.15c-.29-.1-.42.09-.52.3a.44.44,0,0,0,.28.67,1.85,1.85,0,0,0,.61-.1A.65.65,0,0,0,119.27,77.15Z"/><path class="cls-2" d="M100.8,42.94a.38.38,0,0,0,.23-.61c-.11-.19-.51-.56-.68-.49s-.25.6-.23.82S100.45,43.05,100.8,42.94Z"/><path class="cls-2" d="M108.82,80.21a1.84,1.84,0,0,0,1.84-.67A1.26,1.26,0,0,0,110,78a1.41,1.41,0,0,0-1.64.6A1.26,1.26,0,0,0,108.82,80.21Z"/><path class="cls-2" d="M103.78,36.29a.49.49,0,0,0,.21-.37.36.36,0,0,0-.41-.3c-.26.06-.14.39-.12.52A.42.42,0,0,0,103.78,36.29Z"/><path class="cls-2" d="M100,35.16a.77.77,0,0,0,.55-.31c.23-.46,0-.76-.51-1-.35.22-.76.35-.67.84A.57.57,0,0,0,100,35.16Z"/><path class="cls-2" d="M100.15,20.31a1.21,1.21,0,0,0-.18-.62.59.59,0,0,0,.64-.5.68.68,0,0,0-.82-.75c-.45.07-.61-.2-.89-.46a3.25,3.25,0,0,0,.25-.34.47.47,0,0,0,.21-.06.52.52,0,0,0,.06.2.73.73,0,0,0,.79.33c.31-.12.31-.66.25-.94a1.17,1.17,0,0,0-.83-.59c0-.17.06-.16.29-.39L100,16c-.43-.32-.87-.63-1.31-.94a1.9,1.9,0,0,0-.62.61.89.89,0,0,0-.09.38c-.33,0-.52.22-.6.66A1,1,0,0,0,98,18.06a2.86,2.86,0,0,1-.69.21.63.63,0,0,0-.68.53.92.92,0,0,0,.26,1c1.09.82,1.49.8,2.45-.14l.09-.06h0a1.54,1.54,0,0,0-.28.45.42.42,0,0,0,.31.6A.51.51,0,0,0,100.15,20.31Z"/><path class="cls-2" d="M104.36,47c.11,0,.38-.28.32-.43s-.42-.18-.52-.13a.39.39,0,0,0-.21.4C104,47,104.25,47,104.36,47Z"/><path class="cls-2" d="M99.54,26.67a.19.19,0,0,0,.1-.26.21.21,0,0,0-.26-.07c-.06,0-.08.19,0,.23S99.45,26.71,99.54,26.67Z"/><path class="cls-2" d="M101.34,27.21a1.07,1.07,0,0,0,.43-1.05.68.68,0,0,0-.9-.27.63.63,0,0,0-.26.89C100.79,27.18,101.08,27.35,101.34,27.21Z"/><path class="cls-2" d="M108.05,41a1.13,1.13,0,0,0,.26-1.41c-.22-.46-.67-.56-1.25-.27a.89.89,0,0,0-.39,1C106.84,40.68,107.75,41.11,108.05,41Z"/><path class="cls-2" d="M107.57,62c.58.16.92-.66.75-.91s-.91-.32-1.09,0S107,61.85,107.57,62Z"/><path class="cls-2" d="M104.74,58.63a.36.36,0,0,0,.5-.16c.09-.27-.18-.38-.3-.43a.39.39,0,0,0-.35.19A.44.44,0,0,0,104.74,58.63Z"/><path class="cls-2" d="M106.85,43.4c-.14-.19-.57-.59-.81-.49s-.14.72-.07.94.34.35.63.18S107,43.65,106.85,43.4Z"/><path class="cls-2" d="M106,36.74c.1-.4-.32-.85-.91-1a.75.75,0,0,0-.79.53.93.93,0,0,0,.56,1.05A1.09,1.09,0,0,0,106,36.74Z"/><path class="cls-2" d="M105.77,67.25a.65.65,0,0,0,.56-.18.41.41,0,0,0-.18-.64c-.17-.07-.65-.15-.8.21S105.62,67.2,105.77,67.25Z"/><path class="cls-2" d="M110.05,39.67c-.07-.14-.5-.41-.66-.32s-.22.64-.15.7.53.34.66.23A.68.68,0,0,0,110.05,39.67Z"/><path class="cls-2" d="M114.69,62.12a.47.47,0,0,0-.31-.68.83.83,0,0,0-.64.13.74.74,0,0,0,.16.88A.61.61,0,0,0,114.69,62.12Z"/><path class="cls-2" d="M119.58,61.57a.68.68,0,0,0,.37-.79.57.57,0,0,0-.75-.38.66.66,0,0,0-.37.79A.56.56,0,0,0,119.58,61.57Z"/><path class="cls-2" d="M120.77,52.33a.57.57,0,0,0-.24-.82.63.63,0,0,0-.88.28.69.69,0,0,0,.33.88A.63.63,0,0,0,120.77,52.33Z"/><path class="cls-2" d="M114.15,56.61a.8.8,0,0,0-.3-1.11,1.15,1.15,0,0,0-1.24.19c-.06-.13-.17-.32-.36-.28s-.21.36-.17.41a.56.56,0,0,0,.36.21,1.15,1.15,0,0,0,.5,1.19C113.27,57.39,113.92,57.06,114.15,56.61Z"/><path class="cls-2" d="M111.83,38.33a.68.68,0,0,0-.39-.78.5.5,0,0,0-.69.12c-.32.39-.15.74.11,1.13C111.29,38.75,111.73,38.82,111.83,38.33Z"/><path class="cls-2" d="M111.53,42.26c-.09-.06-.46-.09-.53.06s.15.43.25.47a.37.37,0,0,0,.43-.11C111.76,42.53,111.63,42.33,111.53,42.26Z"/><path class="cls-2" d="M111.79,47.08c.41-.15.6-.46.5-.79a1.09,1.09,0,0,0-1.21-.63.75.75,0,0,0-.45.92A.94.94,0,0,0,111.79,47.08Z"/><path class="cls-2" d="M120.71,60.37c.3.13.81-.16,1-.59a.84.84,0,0,0-.25-1.14,1.06,1.06,0,0,0-1.26.3A1.17,1.17,0,0,0,120.71,60.37Z"/><path class="cls-2" d="M40.92,12.49a.89.89,0,0,0,.15-1.17.74.74,0,0,0-1-.11,1,1,0,0,0,0,1.28A.57.57,0,0,0,40.92,12.49Z"/><path class="cls-2" d="M29.48,15a.1.1,0,0,0,0-.05l-.26.19A.59.59,0,0,0,29.48,15Z"/><path class="cls-2" d="M110.26,36.07a1.25,1.25,0,0,0,1.43-.51,1,1,0,0,0,.76-.43,5.25,5.25,0,0,0,.37-.79c.13,0,.28,0,.41-.08l.23-.11a1.57,1.57,0,0,0,.42,0,.72.72,0,0,0-.18.48c0,.38-.84.21-.83.74s-.58.76-.49,1.4.59,1.2,1.1.93a2.19,2.19,0,0,0,.92-1.15.55.55,0,0,0,.86-.31.56.56,0,0,0-.58-.59c.49-.12,1.42-.5,1.09-1.35a1.14,1.14,0,0,0-1.22-.58h0a1.26,1.26,0,0,0,0-1.12,1.12,1.12,0,0,0-.85-.55,1.58,1.58,0,0,0-.29-.22.75.75,0,0,0-.57-.07,1.19,1.19,0,0,0-.86,1.46c0,.14.05.28.08.43a7.82,7.82,0,0,0-.78.14l-.08,0c-.4-.12-1,.23-1.32.71A1.17,1.17,0,0,0,110.26,36.07Z"/><path class="cls-2" d="M41.39,15.63a.66.66,0,0,0-.92.12.55.55,0,0,0,.05.83.71.71,0,0,0,.94,0A.68.68,0,0,0,41.39,15.63Z"/><path class="cls-2" d="M31,24.72a.59.59,0,0,0,.12-.88.53.53,0,0,0-.51-.1.68.68,0,0,0-.37.48C30.22,24.65,30.74,24.79,31,24.72Z"/><path class="cls-2" d="M123.53,67.5a1.82,1.82,0,0,0,.35.12c0-.48.05-1,.07-1.45a1.3,1.3,0,0,0-.68.55A.54.54,0,0,0,123.53,67.5Z"/><path class="cls-2" d="M30.21,18.5A.93.93,0,0,0,30,17.26a.87.87,0,0,0-1.31,0,.86.86,0,0,0-.12,1.23A1.28,1.28,0,0,0,30.21,18.5Z"/><path class="cls-2" d="M110.44,66.06c0-.29-.83-.7-1.09-.42a.67.67,0,0,0,0,.86C109.65,66.75,110.45,66.35,110.44,66.06Z"/><path class="cls-2" d="M108.64,28.43a1.09,1.09,0,0,0-.28-.86.6.6,0,0,0,.29-.6c0-.45-.43-.54-.84-.66-.27.31-.64.6-.34,1a.44.44,0,0,0,.09.11,1.52,1.52,0,0,0-.66,1,.65.65,0,0,0,.63.68C108.11,29.18,108.61,28.87,108.64,28.43Z"/><path class="cls-2" d="M109.07,33.94a.73.73,0,0,0,.46-.41c.1-.45-.28-.56-.61-.67-.35.22-.55.49-.34.86A.57.57,0,0,0,109.07,33.94Z"/><path class="cls-2" d="M108.34,31.81a.31.31,0,0,0-.12-.48.72.72,0,0,0-.56.11c-.17.08-.36.13-.45.31s.13.43.42.42A1,1,0,0,0,108.34,31.81Z"/><path class="cls-2" d="M105.64,28.52c-.17.15-.36.31-.34.52s.6.47.89.31.22-.37.13-.58A.44.44,0,0,0,105.64,28.52Z"/><path class="cls-2" d="M107,35.93c.61-.21.83-.91.54-1.67a1.07,1.07,0,0,0-1.46-.64,1.36,1.36,0,0,0-.71,1.66A1.43,1.43,0,0,0,107,35.93Z"/><path class="cls-2" d="M108.23,43a.65.65,0,0,0,.9.41.72.72,0,0,0,.35-.87.76.76,0,0,0-1-.34A.61.61,0,0,0,108.23,43Z"/><path class="cls-2" d="M105.85,31.85a.52.52,0,0,0,.37-.73.58.58,0,0,0-.71-.34c-.26.06-.5.73-.31.92A.74.74,0,0,0,105.85,31.85Z"/><path class="cls-2" d="M67,20.28a.62.62,0,0,0,.59-.44.88.88,0,0,0,.1-.56c-.31,0-.8-.37-1-.1s.1.73.14,1Z"/><path class="cls-2" d="M108.9,60.21c.11.08.49.21.65,0s-.18-.52-.31-.58-.41-.1-.52.12A.4.4,0,0,0,108.9,60.21Z"/><path class="cls-2" d="M43.05,8.36a.72.72,0,0,0,0-.58c-1,.37-2,.77-2.92,1.19a1.76,1.76,0,0,0,.81.54A2.26,2.26,0,0,0,43.05,8.36Z"/><path class="cls-2" d="M110.66,54.84c0-.3.25-.83,0-1s-.71.19-1,.27l0,.21c.1.38.23.43.51.53A.82.82,0,0,0,110.66,54.84Z"/><path class="cls-2" d="M107.53,49.43a.55.55,0,0,0,.26.79c.38.17,1,.05,1.09-.22s-.2-.78-.51-.92A.61.61,0,0,0,107.53,49.43Z"/><path class="cls-2" d="M109.78,56.27a.67.67,0,0,0-.39-.78.5.5,0,0,0-.69.12c-.33.39-.15.74.11,1.13C109.24,56.69,109.68,56.75,109.78,56.27Z"/><path class="cls-2" d="M105.61,32.44a1,1,0,0,0,.81,1.07c.48.1.79-.17.91-.79.08-.42-.2-1-.52-1.07A1.15,1.15,0,0,0,105.61,32.44Z"/><path class="cls-2" d="M108.73,45.13c-.06,0-.08.19-.06.24s.13.13.21.09a.19.19,0,0,0,.11-.25A.22.22,0,0,0,108.73,45.13Z"/><path class="cls-2" d="M59.44,24.88a.63.63,0,0,0,.05-.92.66.66,0,0,0-.86-.06.65.65,0,0,0,0,.93A.51.51,0,0,0,59.44,24.88Z"/><path class="cls-2" d="M57.94,11.92a1.21,1.21,0,0,0-2.39-.23c-.11.46.49,1,1.14,1.12A1.18,1.18,0,0,0,57.94,11.92Z"/><path class="cls-2" d="M62,16.33c0-.12-.05-.4-.19-.54a.71.71,0,1,0-.95,1C61.08,17,61.6,16.82,62,16.33Z"/><path class="cls-2" d="M56.34,15.28a.36.36,0,0,0,0-.45c-.15-.11-.38.12-.46.22a.32.32,0,0,0,.07.36C56,15.48,56.24,15.37,56.34,15.28Z"/><path class="cls-2" d="M55.77,16.53c-.13-.1-.35,0-.43.09s-.15.44,0,.53.45-.08.5-.18S55.91,16.62,55.77,16.53Z"/><path class="cls-2" d="M43.44,21c.34-.35.42-.93.16-1.17a1.29,1.29,0,0,0-1.6,0A.81.81,0,0,0,42.13,21,.88.88,0,0,0,43.44,21Z"/><path class="cls-2" d="M56.39,13.81a.71.71,0,0,0-.55-.28c-.45.07-.41.46-.4.81.33.24.66.33.93,0A.56.56,0,0,0,56.39,13.81Z"/><path class="cls-2" d="M61.86,21.6a.57.57,0,0,0,.83-.14c.22-.35.18-1-.07-1.11s-.8.09-1,.37A.61.61,0,0,0,61.86,21.6Z"/><path class="cls-2" d="M66,13.41a1.67,1.67,0,0,0,.71-.33c.22-.18.2-.45-.07-.65a.57.57,0,0,0-.52-.15.72.72,0,0,0-.27-.3.79.79,0,0,0-1,.17c-.37.54-.36,1.17,0,1.4A1.15,1.15,0,0,0,66,13.41Z"/><path class="cls-2" d="M65.11,11.3a.66.66,0,0,0,0-1,.71.71,0,0,0-.94,0,.75.75,0,0,0,0,1A.61.61,0,0,0,65.11,11.3Z"/><path class="cls-2" d="M66.76,16a.41.41,0,0,0,.63-.24c.08-.2.25-.73,0-.85s-.73.18-.86.36S66.46,15.8,66.76,16Z"/><path class="cls-2" d="M63.07,14.06c-.24-.2-.48,0-.63.24s-.08.65.19.71.67.21.81-.14S63.24,14.2,63.07,14.06Z"/><path class="cls-2" d="M63.21,24.9c.13-.07.33-.54.21-.67s-.58-.06-.65,0-.23.46-.14.58S63.08,25,63.21,24.9Z"/><path class="cls-2" d="M63.61,8.67A1.5,1.5,0,0,0,61.8,9c-.39.51-.16,1.27.54,1.78a1.07,1.07,0,0,0,1.52-.24A1.43,1.43,0,0,0,63.61,8.67Z"/><path class="cls-2" d="M55.71,18.23a.73.73,0,0,0-.09-.66.51.51,0,0,0-.81-.08.57.57,0,0,0-.06.78C54.9,18.5,55.61,18.47,55.71,18.23Z"/><path class="cls-2" d="M48.75,14a.72.72,0,0,0,0,.94c.39.34.78.14,1.16,0,.08-.77,0-1.06-.42-1.18A.65.65,0,0,0,48.75,14Z"/><path class="cls-2" d="M51.21,13.07c.48-.52.54-.92.18-1.28a1.08,1.08,0,0,0-1.27.07,1.21,1.21,0,0,0,.17,1.29A.62.62,0,0,0,51.21,13.07Z"/><path class="cls-2" d="M49.16,17.57c.42-.28.74-.55.54-1a.64.64,0,0,0-.52-.3,1,1,0,0,0-.63.47C48.37,17.2,48.82,17.33,49.16,17.57Z"/><path class="cls-2" d="M48.79,10a1.11,1.11,0,0,1,1,.74,1,1,0,0,0,1.16.3,1.24,1.24,0,0,0,.39-.81.54.54,0,0,0,.16-.21A.58.58,0,0,0,51,9.24a.39.39,0,0,0-.45-.18,1.56,1.56,0,0,1-1.28-.29.53.53,0,0,0-.81.23C48.3,9.35,48.42,9.91,48.79,10Z"/><path class="cls-2" d="M45.84,21.08a.73.73,0,0,0-.94,0,.77.77,0,0,0,0,1,.61.61,0,0,0,.85,0A.66.66,0,0,0,45.84,21.08Z"/><path class="cls-2" d="M55,26a.4.4,0,0,0,0-.35.5.5,0,0,0-.42-.06c-.09.05-.2.41-.13.49S54.85,26.05,55,26Z"/><path class="cls-2" d="M45.75,24.57a.39.39,0,0,0,0-.66c-.23-.19-.48-.33-.76-.09a.79.79,0,0,0,.08.95A.75.75,0,0,0,45.75,24.57Z"/><path class="cls-2" d="M44.86,28.69a.73.73,0,0,0,0-.86c-.22-.24-.72,0-1,.11s-.41.83-.19,1.08S44.67,28.89,44.86,28.69Z"/><path class="cls-2" d="M53.17,18.16c-.24-.2-.42-.07-.59.09a.43.43,0,0,0,0,.72c.19.11.42.23.6.13A.77.77,0,0,0,53.17,18.16Z"/><path class="cls-2" d="M54.87,9.23a.69.69,0,0,0,.51,0c.34-.17.5.71,1,.5s.92.27,1.49-.05.9-1,.46-1.36a2.22,2.22,0,0,0-1.46-.44.59.59,0,0,0-.32.08,1,1,0,0,0-.13-1.16c-.33-.22-.88,0-1.2.47a.77.77,0,0,0-.89.15,1.14,1.14,0,0,0-.09,1.35h0a1.25,1.25,0,0,0-1.06.38,1.27,1.27,0,0,0,.14,1.65,1.07,1.07,0,0,0,1.43,0A1.73,1.73,0,0,0,54.87,9.23Z"/><path class="cls-2" d="M52.34,7.93l0,0,.7-.67a5.18,5.18,0,0,0-.31-.54.71.71,0,0,0-.64-.26.9.9,0,0,0-.26-.64l-.09-.09a.46.46,0,0,0-.11-.47l-1.79.41a.13.13,0,0,0,.07.06c.54.16.48.63.57,1a.66.66,0,0,0,1,.51l.13-.06a.6.6,0,0,0,.14.29A2.85,2.85,0,0,0,52.34,7.93Z"/><path class="cls-2" d="M55,16.33c.25,0,.35-.27.23-.54a1,1,0,0,0-.59-.53.32.32,0,0,0-.4.29c0,.2.15.33.31.48S54.82,16.32,55,16.33Z"/><path class="cls-2" d="M53.09,25.56a.19.19,0,0,0,0-.23.2.2,0,0,0-.28,0,.21.21,0,0,0,0,.27S53.05,25.61,53.09,25.56Z"/><path class="cls-2" d="M52.81,24.29c.31-.31.36-.65.14-.83a1.09,1.09,0,0,0-1.14,0,.66.66,0,0,0,.08.93A.62.62,0,0,0,52.81,24.29Z"/><path class="cls-3" d="M33.42,38a12.23,12.23,0,0,0-3.65-3.33,20.26,20.26,0,0,1-3.59-2.27c-1-.89-2.05-1.73-3.11-2.55-1.32-1-6.45-6.92-8.45-4.28s4.89,5.79,6.28,6.74a48.35,48.35,0,0,1,6.62,5.08,12,12,0,0,0,4.34,2.64,1.39,1.39,0,0,0,1.56-2Z"/><path class="cls-3" d="M27.47,24.18a10.64,10.64,0,0,0-5.23-1.83,21.81,21.81,0,0,0-4,.11c-1.88,0-4.34-.11-5.46,1.76-.81,1.35-.47,3.09-.21,4.53.58,3.15,1,6.56,3.34,9a1.47,1.47,0,0,0,2.48-1c0-2.66-1.34-4.95-2.25-7.39-.32-.86-.91-2.63-.59-3.55.07-.18-.19.11.38-.21a4.09,4.09,0,0,1,3.49-.24c2.17.7,5.32,1.49,7.53.74.72-.24,1.19-1.29.49-1.85Z"/><path class="cls-3" d="M100.94,39.35a10.22,10.22,0,0,0,3.38-3.13c.34-.51.31-1.16.6-1.62a6.56,6.56,0,0,1,1.18-1c1-.85,1.84-1.77,2.71-2.71,1.1-1.19,7-5.52,4.35-7.57s-5.92,4.28-7,5.64c-.78,1-1.49,2-2.22,2.94a14.42,14.42,0,0,1-2.41,2.14,10.44,10.44,0,0,0-2.57,3.73c-.44,1.19,1,2.06,2,1.55Z"/><path class="cls-3" d="M114.15,34.59c2.49-2.32,2.07-6.06,2.32-9.06.13-1.52-.13-3.37-1.57-4.22-1.22-.72-2.69-.5-4-.37-2.89.28-5.91.36-8.18,2.4-1,.94-.1,2.33,1,2.48,3.31.42,6.38-1.83,9.66-1.71.17,0-.17-.4,0,0a4,4,0,0,1,0,3.34c-.73,2-1.76,4.5-1.11,6.64a1.13,1.13,0,0,0,1.86.49Z"/><path class="cls-3" d="M28.65,88.43a10.35,10.35,0,0,0-3.4,3.15c-.34.51-.32,1.16-.6,1.62a6.8,6.8,0,0,1-1.2,1c-1,.86-1.85,1.79-2.73,2.73-1.1,1.2-7,5.56-4.38,7.61s5.95-4.32,7.07-5.68c.79-1,1.51-2,2.24-3a14.63,14.63,0,0,1,2.43-2.16A10.44,10.44,0,0,0,30.67,90c.45-1.19-1.05-2.07-2-1.55Z"/><path class="cls-3" d="M15.34,93.22c-2.49,2.34-2.09,6.1-2.34,9.12-.13,1.54.14,3.4,1.58,4.25,1.23.72,2.7.51,4,.37,2.9-.28,5.94-.37,8.23-2.41,1-.94.11-2.34-1-2.48-3.34-.42-6.41,1.88-9.73,1.72-.18,0,.16.4,0,0a4,4,0,0,1,0-3.38c.73-2,1.77-4.53,1.11-6.69a1.12,1.12,0,0,0-1.85-.49Z"/><path class="cls-3" d="M97.5,91.41a10.11,10.11,0,0,0,3.28,3.06,12.93,12.93,0,0,1,3,1.76c.82.75,1.66,1.47,2.53,2.17,1.33,1.07,6.21,6.67,8.2,4.08S110,97,108.63,96.07c-1-.73-2.07-1.44-3.16-2.08a8.8,8.8,0,0,1-2.31-2.15,10.2,10.2,0,0,0-4.1-2.46,1.4,1.4,0,0,0-1.56,2Z"/><path class="cls-4" d="M24.61,32.87s5.2,12.25,5.2,32.46S24.61,95,24.61,95,39,91,65.33,91s39.72,4,39.72,4-5-11.55-5-31,5-31.11,5-31.11-16,4-38.77,4A226.82,226.82,0,0,1,24.61,32.87Z"/><path class="cls-3" d="M103.33,104.24c1.26,1.18,3,1.45,4.68,1.72a17,17,0,0,0,3.58-.15c1.74,0,4,.13,5-1.6.75-1.26.44-2.83.2-4.17-.5-2.82-.84-6-3-8a1.47,1.47,0,0,0-2.48,1c-.11,2.39,1.14,4.46,2,6.62a6.49,6.49,0,0,1,.53,3.08c0-.08-.16.29,0,0s-.09,0-.26.07a3.73,3.73,0,0,1-2.92.19c-1.9-.67-4.91-1.41-6.82-.62a1.13,1.13,0,0,0-.49,1.86Z"/><path class="cls-5" d="M105.31,93.55a173.8,173.8,0,0,0-80.43,0V31.43h80.43a95,95,0,0,0,0,62.12Z"/><rect class="cls-6" x="41.78" y="61.13" width="6.5" height="22.03"/><rect class="cls-7" x="41.78" y="57.63" width="6.5" height="9.49"/><path class="cls-8" d="M61.45,74c-.05-.05-.31,0-.33,0a.48.48,0,0,0,0,.41c.06.06.43.1.49,0S61.54,74.13,61.45,74Z"/><path class="cls-8" d="M39.68,90.69a.47.47,0,0,0,.25.46.62.62,0,0,0,.69-.11c.24-.25.05-1-.26-1.07S39.71,90.51,39.68,90.69Z"/><path class="cls-8" d="M61.24,75.91a.18.18,0,0,0,0,.26c.1.06.21,0,.24-.07s0-.2-.08-.22S61.28,75.84,61.24,75.91Z"/><path class="cls-8" d="M62.37,83.5a.7.7,0,0,0-.32-.56.37.37,0,0,0-.62.1c-.14.25-.21.52.07.73S62.34,83.71,62.37,83.5Z"/><path class="cls-8" d="M43.22,84.94a.61.61,0,0,0,0-.39.29.29,0,0,0,0-.38.34.34,0,0,0-.55,0,.36.36,0,0,0-.1.24.71.71,0,0,0-.07.09.2.2,0,0,1,0,.08.68.68,0,0,0-.86-.23c-.75.3-.64.83-.53,1s-.05.69-.25.5-.54-.17-1,.31a1,1,0,0,0-.22,1.39l0,0c-.33.32-.36.64-.08.93a1.07,1.07,0,0,0,1.41.19.68.68,0,0,0,.14-.42,1.08,1.08,0,0,0,.2.29,1.17,1.17,0,0,0,.54-.06.77.77,0,0,0,.25-.93c.35-.42.28-.78.65-1s.42-.65.22-1.2c0-.07-.06-.16-.09-.24A.43.43,0,0,0,43.22,84.94Z"/><path class="cls-8" d="M54.8,81.21c-.31-.31-.61-.52-1-.34a.5.5,0,0,0-.86-.43.45.45,0,0,0,0,.66.49.49,0,0,0,.61.17.4.4,0,0,0,0,.19,1,1,0,0,0,.58.49C54.62,82,54.65,81.57,54.8,81.21Z"/><path class="cls-8" d="M42.92,89.49a.48.48,0,0,0-.61-.07l-.05-.06c-.3-.2-.65-.08-.89.3a1.07,1.07,0,0,0-.19.56.44.44,0,0,0-.35.21,1.19,1.19,0,0,0,0,.48c.33.28.71.28.82,0,0,0,0,0,0-.06a.86.86,0,0,0,1.07-.29.52.52,0,0,0,0-.29,1.6,1.6,0,0,0,.3-.17C43.25,89.94,43.11,89.68,42.92,89.49Z"/><path class="cls-8" d="M37.24,88.4a1,1,0,0,0-.15-1,.58.58,0,0,0-.87,0,.62.62,0,0,0-.11.17.7.7,0,0,0-.4,0,1.25,1.25,0,0,0-.79,1.14.61.61,0,0,0,.49.66,1,1,0,0,0,1.2-.47.88.88,0,0,0,.1-.22l0-.07-.06-.14A.65.65,0,0,0,37.24,88.4Z"/><path class="cls-8" d="M56.15,84.72a.79.79,0,0,0-1,.13c-.38.56-.39,1.17,0,1.4,0,0,.11,0,.16,0-.2.32-.11.7.29,1.06a.87.87,0,0,0,1,0,1.46,1.46,0,0,0,.1-1.46.48.48,0,0,0-.24-.11A1.12,1.12,0,0,0,56.15,84.72Z"/><path class="cls-8" d="M54.3,75.84c.18-.19,0-.85-.25-.89a.71.71,0,0,0-.59.22.5.5,0,0,0,.1.78A.56.56,0,0,0,54.3,75.84Z"/><path class="cls-8" d="M59.9,84.21a.59.59,0,0,0-.19-.79.64.64,0,0,0-.94.15.7.7,0,0,0,.19.89A.73.73,0,0,0,59.9,84.21Z"/><path class="cls-8" d="M56,72.4c-.26-.14-.53-.19-.73.09a.66.66,0,0,0,.12.82c.19.12.54,0,.73-.36A.34.34,0,0,0,56,72.4Z"/><path class="cls-8" d="M54.91,89.69a.54.54,0,0,0,.52,0,.64.64,0,0,0,.08.14,1.09,1.09,0,0,0,1.13,0,1.37,1.37,0,0,0,.31.26.68.68,0,0,0,1-.08,1.32,1.32,0,0,0-.18-1.37.74.74,0,0,0-1,.09.63.63,0,0,0-.12-.18.74.74,0,0,0-.91,0l-.12.16a.57.57,0,0,0-.16-.15.65.65,0,0,0-.85.25A.61.61,0,0,0,54.91,89.69Z"/><path class="cls-8" d="M54.73,77.87a.41.41,0,0,0,.67-.17c.06-.2.13-.44,0-.59s-.73,0-.87.23S54.55,77.75,54.73,77.87Z"/><path class="cls-8" d="M55.75,83.94a.64.64,0,0,0,.11-.88,1.32,1.32,0,0,0-1.36-.13c-.34.33-.3.74.12,1.14S55.35,84.36,55.75,83.94Z"/><path class="cls-8" d="M45.6,57.63h.34a.15.15,0,0,0,0-.07C45.81,57.5,45.69,57.56,45.6,57.63Z"/><path class="cls-8" d="M40.51,82.84a.4.4,0,0,0,.05.44c.1.09.32.25.42.13A.4.4,0,0,0,41,83C40.94,82.88,40.61,82.72,40.51,82.84Z"/><path class="cls-8" d="M41.78,75.18a.54.54,0,0,0-.36-.26.72.72,0,0,0-.37.06,1,1,0,0,0-.11-.17,1.89,1.89,0,0,0-.74-.46,1.36,1.36,0,0,0-.57-.07,5.46,5.46,0,0,0-.57,0c-.64.06-.94.33-1,.83a1,1,0,0,0,.34.77l-.07.13a5.26,5.26,0,0,0-.19,1c0,.27.11.4.41.43.07,0,.21-.11.22-.19a1.45,1.45,0,0,1,.51-.71.38.38,0,0,0,0-.32,8.47,8.47,0,0,1,1.52.26,1.35,1.35,0,0,0,.89-.06Z"/><path class="cls-8" d="M37.68,86.71a.9.9,0,0,0,.58-.38A.61.61,0,0,0,38.6,86a.84.84,0,0,0-.22-.73,2.09,2.09,0,0,0-1-.82.36.36,0,0,0,0-.11.22.22,0,0,0-.22-.26c-.13,0-.38,0-.44.24a.17.17,0,0,0,0,.12c-.32.16-.44.56-.55.59s-.66-.58-1.26-.51a.45.45,0,0,0-.11,0,.13.13,0,0,0,0-.06.41.41,0,0,0-.76-.07c-.17.4-.48.79-.33,1.31l.16.1s0,0,0,0a1.47,1.47,0,0,0,.35,1,1.52,1.52,0,0,0,1.91,0,1,1,0,0,0,.22-.69h0C36.63,86.16,37.08,86.84,37.68,86.71Z"/><path class="cls-8" d="M37.22,77.88c.16-.2-.11-.83-.61-.87h-.1a1,1,0,0,0-.75-.33.85.85,0,0,0-.82.65c0,.4.48,1.19.81,1.21a.78.78,0,0,0,.64-.39A.81.81,0,0,0,37.22,77.88Z"/><path class="cls-8" d="M38,75.93a.54.54,0,0,0-.19-.74.79.79,0,0,0-.23-.09,2.7,2.7,0,0,0,.22-.45.88.88,0,0,0-.35-1.1A.94.94,0,0,0,37,73c-.23-.1-.73.19-.85.49l-.7.14A1.51,1.51,0,0,0,34,73a1.58,1.58,0,0,0-.81,2.21.64.64,0,0,1-.06.71.58.58,0,0,0,0,.43,1.54,1.54,0,0,0-.56.36.41.41,0,0,0-.07.11.29.29,0,0,0-.18,0,.46.46,0,0,0-.27.42c0,.11.16.17.29.18a1,1,0,0,0,.3.57,1.06,1.06,0,0,0,1,.3.56.56,0,0,0,.29.49.79.79,0,0,0,1-.26.76.76,0,0,0-.35-1.06.29.29,0,0,0-.1,0,1,1,0,0,0-.22-.85l.06-.13a.74.74,0,0,0,.65-.58.4.4,0,0,1,0-.11c.32-.22.65-.42,1-.64a2.41,2.41,0,0,0,1,.49,1.31,1.31,0,0,0,.13.64C37.38,76.21,37.76,76.35,38,75.93Z"/><path class="cls-8" d="M41.78,78.75a.79.79,0,0,0-.18-.32.62.62,0,0,0-.26-.09.64.64,0,0,0-.6-.64.71.71,0,0,0-.75.5,1,1,0,0,0,.37.76c-.22.39-.12.69.37,1a.89.89,0,0,0,.52.12.41.41,0,0,0-.19.27.56.56,0,0,0,.44.67.5.5,0,0,0,.28,0v-.92l-.09,0h-.17a.68.68,0,0,0,.26-.22Z"/><path class="cls-8" d="M35.86,78.6c-.3,0-.57.14-.58.45a1,1,0,0,0,.2.72c.41.37.73,0,1.12-.25C36.5,79,36.4,78.61,35.86,78.6Z"/><path class="cls-8" d="M41.31,81.76c.08.23.14.46.21.69a.72.72,0,0,0,.26.33V81.05a.75.75,0,0,0-.26,0C41.22,81.15,41.2,81.47,41.31,81.76Z"/><path class="cls-8" d="M29.25,84.36c.2,0,.66-.33.87-.68a.78.78,0,0,0,.93-.1s0-.06.05-.08a2.15,2.15,0,0,0,.33.35.79.79,0,0,0,1-.17,1,1,0,0,0-.06-1.15,1.18,1.18,0,0,0-1-.1.49.49,0,0,0-.11-.2.62.62,0,0,0-.47-.12,1,1,0,0,0-.43-.42l-.09,0a1.17,1.17,0,0,1,.41,0,1,1,0,0,0,1.1-.56,2.49,2.49,0,0,0-.8-1.75l-.32,0a1.54,1.54,0,0,0-.38-.85h0s0,0,.05-.08a.22.22,0,0,0-.17-.32.22.22,0,0,0-.32.16,1.07,1.07,0,0,0-.76.1c-.21,1.66-.46,3.18-.73,4.58a.68.68,0,0,0,.28-.07.45.45,0,0,0,.33,0,.43.43,0,0,0-.07.1C28.6,83.39,29,84.31,29.25,84.36Z"/><path class="cls-8" d="M26.65,90a.43.43,0,0,0,0-.2l-.15.46A.44.44,0,0,0,26.65,90Z"/><path class="cls-8" d="M33,84.14c.8.28.93.16.81-.66.27-.33.57-.55.64-.82a1.63,1.63,0,0,0-.13-.94c-.14-.36-.61-.4-1-.08s-.49.48-.49.72a2.81,2.81,0,0,0,.44.94C33.06,83.49,32.79,83.73,33,84.14Z"/><path class="cls-8" d="M33.56,46.37a.73.73,0,0,0-.87.58.63.63,0,0,0,.6.66h0a1.24,1.24,0,0,0-.11.61,1.12,1.12,0,0,1-.15.85,1.33,1.33,0,0,0,0,1.27,1.14,1.14,0,0,0,1.09.6h.12a1.08,1.08,0,0,0-.4.68c0,.39.31.71.87.79s.94-.23,1-.55A1.17,1.17,0,0,0,35,50.69h-.18a1.13,1.13,0,0,0,.26-.46,2,2,0,0,0-.1-1.37.89.89,0,0,1,0-.51.81.81,0,0,0-.72-1.15.4.4,0,0,0,.08-.23C34.26,46.69,33.94,46.41,33.56,46.37Z"/><path class="cls-8" d="M34.66,43.76a1.28,1.28,0,0,0,.64,1.12.85.85,0,0,0,1-.77c.08-.39-.27-.74-.82-.84A.61.61,0,0,0,34.66,43.76Z"/><path class="cls-8" d="M34.51,34.62h0Z"/><path class="cls-8" d="M41.78,64.4a1.1,1.1,0,0,0-.72.8.79.79,0,0,0,.45.71,1,1,0,0,0-.9.35.62.62,0,0,0,0,.89,1,1,0,0,0,1.14,0h0V66a.53.53,0,0,0-.17-.08h.17Z"/><path class="cls-8" d="M62.57,79.6a.59.59,0,0,0-.72,0c-.45.29-.5.51-.29,1.1A9.57,9.57,0,0,0,61,81.75a.42.42,0,0,0,.56.53c.38-.22.87-.34,1.06-.84-.06-.18-.14-.38-.21-.58C62.76,80.37,62.83,79.82,62.57,79.6Z"/><path class="cls-8" d="M46.18,55.5c-.08.28.31.43.44.44s.41,0,.45-.25a.39.39,0,0,0-.3-.41C46.64,55.24,46.26,55.23,46.18,55.5Z"/><path class="cls-8" d="M59.46,87.06a1.16,1.16,0,0,0,.15-.4,1,1,0,0,0,.49.22,1,1,0,0,0,.95-.42.86.86,0,0,0,0-.85,1,1,0,0,0-.75-.57c-.35,0-.74-.17-.95,0a.64.64,0,0,0-.23.5,1.36,1.36,0,0,1,0,.2.82.82,0,0,0-1,.14,1.24,1.24,0,0,0,.37,1.49A.77.77,0,0,0,59.46,87.06Z"/><path class="cls-8" d="M48.21,48.4c0-.37-.4-.43-.55-.43a.65.65,0,0,0-.47.32.39.39,0,0,0,.35.53C47.71,48.83,48.17,48.78,48.21,48.4Z"/><path class="cls-8" d="M58.25,89.09a.33.33,0,0,0,.16.38.47.47,0,0,0,.47-.17c.07-.13-.09-.33-.23-.38A.33.33,0,0,0,58.25,89.09Z"/><path class="cls-8" d="M47,54.3c.23.18.93,0,1-.28s0-.77-.56-.76S46.82,54.13,47,54.3Z"/><path class="cls-8" d="M48.28,76.36a1.64,1.64,0,0,0,.52-1.2,1.09,1.09,0,0,0-.52-.81Z"/><path class="cls-8" d="M46.94,83.61c.36.1.83-.12.82-.45H46.52C46.53,83.38,46.68,83.53,46.94,83.61Z"/><path class="cls-8" d="M48.23,88.06a2.19,2.19,0,0,0,.27.13,1.51,1.51,0,0,0,.38,1.12.83.83,0,0,0,1.25,0,1,1,0,0,0,0-1.54,1,1,0,0,0-.3-.21,1.14,1.14,0,0,0-.55-1.37,1.15,1.15,0,0,0-1.47.38A1,1,0,0,0,48.23,88.06Z"/><path class="cls-8" d="M63.37,85.46A1,1,0,0,0,63,86.75c.24.48.54.42.67.74a.69.69,0,0,0,.1.17.57.57,0,0,0,.24.45A.68.68,0,0,0,65,88,.55.55,0,0,0,65,87.6a.41.41,0,0,0,.19-.45c-.09-.51-.43-.52-.58-.48s-.43-.12-.29-.22.19-.31,0-.68A.65.65,0,0,0,63.37,85.46Z"/><path class="cls-8" d="M48.3,68.91h0v1.38a1.9,1.9,0,0,0,.26-.34A.88.88,0,0,0,48.3,68.91Z"/><path class="cls-8" d="M31.29,92.64c.1-.2,1.11-.27,1.35-1a1.16,1.16,0,0,0-.21-1.16,1,1,0,0,0,.28.23.74.74,0,0,0,1.12-.3s0-.08.05-.11a.75.75,0,0,0,.77-.13.64.64,0,0,0,0-.89.69.69,0,0,0-.85,0,.91.91,0,0,0-.24-.24,1,1,0,0,0-1.38.3.93.93,0,0,0,.16,1.08,1.72,1.72,0,0,0-.49-.36,2.18,2.18,0,0,0-2.19.81c-.26.55.3,1.06.25,1.22s-.61.25-1,.6a1.75,1.75,0,0,0-1.42-.3.64.64,0,0,1-.68-.22l-.09,0h0a.61.61,0,0,0,.05-.12,1.18,1.18,0,0,0,1.45-.31,1.26,1.26,0,0,0,.18-.78.74.74,0,0,0,.59-.25,1,1,0,0,0,.34-1.33,2.71,2.71,0,0,1,.64.23.59.59,0,0,0,.83,0,.87.87,0,0,0,.4-.92,2,2,0,0,0-.61-1.19,1.17,1.17,0,0,0,.94-.25.77.77,0,0,0,.16-.15,1,1,0,0,0,.35.81c.34.35.76.41,1,.15a1.66,1.66,0,0,0,.13-1.4.87.87,0,0,0-1.22,0A1.09,1.09,0,0,0,32,86a.87.87,0,0,0-1.07-.71,2.56,2.56,0,0,0-1,.42c-.25.17-.45.29-.72.16s-.64,0-.78.4a2.05,2.05,0,0,0-.66-.56c-.29,1.27-.59,2.4-.89,3.41.36,0,.71,0,1.09,0v0a.76.76,0,0,0-.31,1,1.77,1.77,0,0,0-1.17.29c-.29.89-.56,1.66-.81,2.29a.57.57,0,0,0,.27.46l.27.2a.62.62,0,0,0-.15.66,2.58,2.58,0,0,0,.3.63c1.17-.27,2.93-.63,5.26-1C31.45,93.14,31.22,92.77,31.29,92.64Zm-1.74-5.5.08,0,.06-.06a.61.61,0,0,1,.45.18l.15.08a2.36,2.36,0,0,0-.82,0A.47.47,0,0,1,29.55,87.14Z"/><path class="cls-8" d="M53.82,85c-.08,0-.23,0-.29,0a1.31,1.31,0,0,1-.83.25c-.14,0-.33.31-.34.49a.7.7,0,0,0,.27.54.58.58,0,0,0,.52-.06,6.32,6.32,0,0,0,.74-.63C54.09,85.43,54.05,85.24,53.82,85Z"/><path class="cls-8" d="M49,90.59a2.18,2.18,0,0,0-1.51-1.77c-.61-.06-.89.64-1.07.65s-.39-.4-.8-.68a.14.14,0,0,0,.08-.05A1.16,1.16,0,0,0,46,88a1.06,1.06,0,0,0,1.14-.45,1.34,1.34,0,0,0-.49-1.87,1.3,1.3,0,0,0-1.83.37,1,1,0,0,0,0,1.11.93.93,0,0,0-.21,1.51h0A1.94,1.94,0,0,0,43.41,90a1.77,1.77,0,0,0,.21,1.31,1.54,1.54,0,0,0,.74.55s0,0,0,.06l1.18-.11a.45.45,0,0,0,0-.11,4.15,4.15,0,0,0,.43-.4,1.06,1.06,0,0,0,.18.33,1,1,0,0,0,.16.12l2.27-.18A1.48,1.48,0,0,0,49,90.59Z"/><path class="cls-8" d="M61.34,88a.6.6,0,0,0-.82.09.63.63,0,0,0,.12.88.49.49,0,0,0,.78-.09A.6.6,0,0,0,61.34,88Z"/><path class="cls-8" d="M32,72.7a.63.63,0,0,0-.13-.11l.09-.08a.66.66,0,0,0,.09-.84A.75.75,0,0,0,31,71.53a.79.79,0,0,0,.16,1,1.52,1.52,0,0,0-.29.2,1,1,0,0,0-.28,1,.93.93,0,0,0-.81.26,2.76,2.76,0,0,1,.09-.68.59.59,0,0,0-.18-.81l-.09-.06c0,.82-.11,1.61-.18,2.38l.06,0c.32.73.76,1,1.27.72a.68.68,0,0,0,.33.22c.46,0,.79-.24.89-.77s-.08-.72-.56-.84A.9.9,0,0,0,32,74,1,1,0,0,0,32,72.7Z"/><path class="cls-8" d="M64.35,79a.4.4,0,0,0-.07-.39.39.39,0,0,0-.39,0c-.07.09-.18.42,0,.5A.41.41,0,0,0,64.35,79Z"/><path class="cls-8" d="M61,89.32a.27.27,0,0,0,.31.43c.15-.11.18-.22.07-.37A.23.23,0,0,0,61,89.32Z"/><path class="cls-8" d="M48.28,82a1,1,0,0,0,0-1.09h0Z"/><path class="cls-8" d="M51.17,85.42c.29-.27.19-.85-.2-1.24a.47.47,0,0,0-.73,0l0,0A1,1,0,0,0,50,84c-.49-.3-.87-.32-1.05-.06a1,1,0,0,0,.26,1.2.74.74,0,0,0,.72-.08.5.5,0,0,0,.12.24A1,1,0,0,0,51.17,85.42Z"/><path class="cls-8" d="M49.12,72.1c0,.15.15.3.26.33s.44,0,.47-.19-.26-.36-.36-.37S49.15,71.94,49.12,72.1Z"/><path class="cls-8" d="M51,55.56c-.1,0-.39,0-.41.29s.27.3.39.31.28-.18.28-.27A.47.47,0,0,0,51,55.56Z"/><path class="cls-8" d="M49.64,64.62c0,.24.4.65.72.7a.59.59,0,0,0,.67-.56.54.54,0,0,0-.46-.66C50.18,64.06,49.66,64.34,49.64,64.62Z"/><path class="cls-8" d="M53.34,89.6a.48.48,0,0,0,.1-.71c-.3-.42-.63-.61-.85-.48a1.06,1.06,0,0,0-.23,1.06A.91.91,0,0,0,53.34,89.6Z"/><path class="cls-8" d="M53.19,88A1.06,1.06,0,0,0,53,86.65a1,1,0,0,0-1.34.17,1.41,1.41,0,0,0,.31,1.48A1,1,0,0,0,53.19,88Z"/><path class="cls-8" d="M52,90.75a.56.56,0,0,0-.17-.79.85.85,0,0,0-1.13.1.69.69,0,0,0,.11,1A1,1,0,0,0,52,90.75Z"/><path class="cls-8" d="M49.79,75.24a.67.67,0,0,0-.15.57c.17.41.52.29.84.2.16-.36.17-.68-.19-.86A.5.5,0,0,0,49.79,75.24Z"/><path class="cls-8" d="M52.15,83.33a.46.46,0,0,0-.29.2.67.67,0,0,0,.23,1,.57.57,0,0,0,.81-.3.91.91,0,0,0,.13-.55.42.42,0,0,0,.16-.09.93.93,0,0,0,.09-1,.9.9,0,0,0-1.07,0A.62.62,0,0,0,52.15,83.33Z"/><path class="cls-8" d="M52.48,64.31c.09-.15-.11-.61-.24-.78s-.48-.13-.69.14a.38.38,0,0,0,.14.62C51.87,64.38,52.4,64.46,52.48,64.31Z"/><path class="cls-8" d="M50.84,74.16a1,1,0,0,0,1.5-.27,1.3,1.3,0,0,0-.33-1.7,1.38,1.38,0,0,0-1.64.35A1.15,1.15,0,0,0,50.84,74.16Z"/><path class="cls-8" d="M51.85,76.85c.19,0,.29-.21.39-.38s.22-.29.19-.49-.33-.27-.55-.11a1,1,0,0,0-.37.67A.29.29,0,0,0,51.85,76.85Z"/><path class="cls-8" d="M48.28,78.47a1.1,1.1,0,0,0,.46.5l.58.12a.26.26,0,0,0-.23.1.77.77,0,0,0,.1.89.74.74,0,0,0-.25.25,1,1,0,0,0,.33,1.16,1.16,1.16,0,0,0,1.17-.42.59.59,0,0,0-.27-.84,1.75,1.75,0,0,0-.31-.15.46.46,0,0,0,.22-.36c0-.19-.38-.39-.61-.56a.37.37,0,0,0-.14-.07c.23,0,.48.08.74.1a.56.56,0,0,0,.62-.55.59.59,0,0,0-.51-.66,1.91,1.91,0,0,1-.52-.19.91.91,0,0,0-1.2.1,1,1,0,0,0-.18.25Z"/><path class="cls-8" d="M53.25,71c.17-.19-.1-.38-.19-.47s-.31,0-.33,0a.5.5,0,0,0,0,.4A.35.35,0,0,0,53.25,71Z"/><path class="cls-8" d="M51.15,81.68a.6.6,0,0,0,.39.65.69.69,0,0,0,.88-.21c.24-.44,0-.76-.26-1.08C51.42,81.12,51.17,81.28,51.15,81.68Z"/><path class="cls-8" d="M36.26,39.33c0-.15-.25-.35-.36-.36s-.34.06-.37.22.15.31.26.34S36.23,39.48,36.26,39.33Z"/><path class="cls-8" d="M39.43,82.28c-.08-.79-.31-1.13-.85-1.18,0,0,0,0,0,0a.52.52,0,0,0,0-.48,1,1,0,0,0,.67-.21,4.22,4.22,0,0,0-.06.42c.32.35.57.26.75.09s.31-.46.06-.63a.78.78,0,0,0-.56-.1c.13-.27.09-.71-.14-.81h0c0-.36-.28-.6-.78-.66a.65.65,0,0,0-.74.47c-.38.13-.41.27-.36.91h0a1.06,1.06,0,0,0-.17.1c-.4.31-.82.6-1.22.89-.25-1.09-.43-1.15-1.32-.74a1.05,1.05,0,0,0,.18.87.6.6,0,0,0,.44.31c.07,0,.12.06.2.08,0,1.7.84,2.14,2.25,1.33a1.89,1.89,0,0,1,.27.2.69.69,0,0,0,1,.08A.85.85,0,0,0,39.43,82.28Z"/><path class="cls-8" d="M43.7,83.66c.13-.12,0-.38-.11-.48l-.05,0h-1a1.71,1.71,0,0,0,.66.06.44.44,0,0,0,0,.37C43.3,83.65,43.57,83.78,43.7,83.66Z"/><path class="cls-8" d="M33.44,81.42c.29-.21.68-.32.73-.62a.61.61,0,0,0-.13-.53c-.11-.14-.15-.33-.4-.45a1.5,1.5,0,0,0-.77-.11.58.58,0,0,0,.13-.2.57.57,0,0,0-.35-.75.85.85,0,0,0-.67.07c-.41.35-.2.73.05,1.12l.34,0a1,1,0,0,0-.37.8.84.84,0,0,0,.5.69A1,1,0,0,0,33.44,81.42Z"/><path class="cls-8" d="M27.26,41.56s0,0,0,0c.14.64.29,1.31.44,2a1.59,1.59,0,0,0,0-.44.55.55,0,0,0,.45,0A.82.82,0,0,0,28.32,42,1,1,0,0,0,27.26,41.56Z"/><path class="cls-8" d="M45.43,84.25c.06,0,.07-.3,0-.33a.46.46,0,0,0-.4-.06.33.33,0,0,0-.12.47C45.07,84.54,45.32,84.32,45.43,84.25Z"/><path class="cls-8" d="M45.54,41.73c0-.1-.33-.33-.5-.27s-.2.5-.14.6a.47.47,0,0,0,.47.12A.51.51,0,0,0,45.54,41.73Z"/><path class="cls-8" d="M29.42,37a.7.7,0,0,0-.83.49,1.75,1.75,0,0,1-.33.6.92.92,0,0,0-.34,1,1.28,1.28,0,0,0,1.24.46c.33-.12.69-.22.65-.71s0-.73,0-1.09A.53.53,0,0,0,29.42,37Z"/><path class="cls-8" d="M44.84,50.44a.62.62,0,0,0-.25-.78c-.34-.15-1,.44-.87.7S44.67,50.77,44.84,50.44Z"/><path class="cls-8" d="M37.14,49.34a.64.64,0,0,0,1-.27.85.85,0,0,0-.16-.73.7.7,0,0,0-.66-.11A.73.73,0,0,0,37.14,49.34Z"/><path class="cls-8" d="M36.92,46.48a.67.67,0,0,0-.22,1.31.66.66,0,0,0,.75-.49A.74.74,0,0,0,36.92,46.48Z"/><path class="cls-8" d="M26.71,33.46a.45.45,0,0,0,.29-.13l-.47-.09C26.54,33.33,26.61,33.45,26.71,33.46Z"/><path class="cls-8" d="M38.26,43.82a.59.59,0,0,0-.75.36.77.77,0,0,0,.07.59c.2.31.49.28,1.11,0C38.66,44.38,38.76,44,38.26,43.82Z"/><path class="cls-8" d="M33.36,39a1.87,1.87,0,0,0-.53.26.63.63,0,0,0,.57.7c.3,0,.36-.2.4-.42S33.65,39,33.36,39Z"/><path class="cls-8" d="M30.83,34c-.36-.12-.94-.06-.94.62a1.29,1.29,0,0,0,1.26,1.15,1.51,1.51,0,0,0,1.3-1.52l-1.12-.18C31.16,34.23,31.15,34.14,30.83,34Z"/><path class="cls-8" d="M32,42a.62.62,0,0,0,.57.7c.3,0,.36-.2.4-.42s-.15-.58-.44-.53A1.63,1.63,0,0,0,32,42Z"/><path class="cls-8" d="M28.87,43.39a.67.67,0,0,0,.53.8.63.63,0,0,0,.65-.6.58.58,0,0,0-.46-.67A.56.56,0,0,0,28.87,43.39Z"/><path class="cls-8" d="M70.5,89.25a.78.78,0,0,0,0,1.1,1.16,1.16,0,0,0,1.34.31A1.11,1.11,0,0,0,72,89.22,1.14,1.14,0,0,0,70.5,89.25Z"/><path class="cls-8" d="M67.2,85.46a.56.56,0,0,0,.34.9.58.58,0,0,0,.52-.54C68.05,85.5,67.86,85.42,67.2,85.46Z"/><path class="cls-8" d="M71.28,83.33a.59.59,0,0,0,.52-.54.53.53,0,0,0-.86-.36A.56.56,0,0,0,71.28,83.33Z"/><path class="cls-8" d="M69.43,90.51a.78.78,0,0,0-.31-.58c-.43-.18-.72.09-1,.47a1.12,1.12,0,0,0,.36.59h.62A.55.55,0,0,0,69.43,90.51Z"/><path class="cls-8" d="M38.53,52.1c0,.29.08.52.35.58a3.55,3.55,0,0,0,2.09,0,1,1,0,0,0,.28-.2.8.8,0,0,0-.43-1.38A4.9,4.9,0,0,0,39.5,51,1.25,1.25,0,0,0,38.53,52.1Z"/><path class="cls-8" d="M24.77,94.8a1,1,0,0,0,.39-.32,1.26,1.26,0,0,0,.17-1A16.1,16.1,0,0,1,24.61,95l.23-.06A.46.46,0,0,0,24.77,94.8Z"/><path class="cls-8" d="M65.33,91h1.28A1.16,1.16,0,0,0,65.33,91Z"/><path class="cls-8" d="M76,91a1,1,0,0,0,0-1.28c-.3-.36-.69-.34-1.15.06a1,1,0,0,0-.23,1.12,1,1,0,0,0,.64.29h.06A1,1,0,0,0,76,91Z"/><path class="cls-8" d="M73.41,86.3a1,1,0,0,0,0-1.09.83.83,0,0,0-1-.26,3.93,3.93,0,0,0-.74.37l-.36-.18a1.24,1.24,0,0,0-1.37.28,1.43,1.43,0,0,0-.17,1.41.74.74,0,0,0,.39.39,1.15,1.15,0,0,0,1.51-.6c.06-.12.12-.25.19-.37.23.12.45.25.67.35A.6.6,0,0,0,73.41,86.3Z"/><path class="cls-8" d="M78.23,87.52c-.31.23-.26.82.11,1.27a.72.72,0,0,0,.91.06.89.89,0,0,0,.19-1.12A1,1,0,0,0,78.23,87.52Z"/><path class="cls-8" d="M40.26,91.81a.82.82,0,0,0-1.1.21,1.12,1.12,0,0,0-.25.45l1.77-.21A1.12,1.12,0,0,0,40.26,91.81Z"/><path class="cls-8" d="M26.23,37.7c.16-.06.3-.16.32-.31,0-.31-.38-.47-.57-.54h0C26.06,37.12,26.14,37.41,26.23,37.7Z"/><path class="cls-8" d="M37.54,92.54a.74.74,0,0,0,.12-.88,2.27,2.27,0,0,0-.25-.38.77.77,0,0,0,.49-.43.6.6,0,0,0,0-.35.86.86,0,0,0,.45,0c.49-.15.93-.36,1.06-.93a.92.92,0,0,0-.88-1.18A1.36,1.36,0,0,0,37,89.46l0,.07c.08.14.15.3.24.44a.56.56,0,0,0-.53.2.81.81,0,0,0-.11.75,1.29,1.29,0,0,0-.63.22,1.88,1.88,0,0,1-.86.21h0a.55.55,0,0,0-.53,0,.79.79,0,0,0-.49.19,1,1,0,0,0-.73.88,1.26,1.26,0,0,0,.14.83c1.21-.19,2.55-.39,4-.58A.34.34,0,0,0,37.54,92.54Z"/><path class="cls-8" d="M43.59,91.85a.52.52,0,0,0-.19-.33,1.27,1.27,0,0,0-1.55.33.65.65,0,0,0-.05.29l2.09-.21A1.11,1.11,0,0,0,43.59,91.85Z"/><path class="cls-8" d="M58.75,91a.73.73,0,0,0-.68-.19.44.44,0,0,0-.53.23s0,0,0,.08h0l1.27,0A.26.26,0,0,0,58.75,91Z"/><path class="cls-8" d="M66.62,83.9a.37.37,0,0,0,0-.34.34.34,0,0,0,.27-.09c.08-.11.22-.25.09-.41a.23.23,0,0,0-.35,0,.84.84,0,0,0-.17.25,1.49,1.49,0,0,0-.37-.38.69.69,0,0,0-.81.16c-.18.26.11.69.3.88S66.44,84.17,66.62,83.9Z"/><path class="cls-8" d="M64.2,91c-.16-.16-.36-.27-.59-.09l-.07.09h.66Z"/><path class="cls-8" d="M32,61.92a.62.62,0,0,0-.81.16.69.69,0,0,0,.11.9.67.67,0,0,0,.82-.15A.77.77,0,0,0,32,61.92Z"/><path class="cls-8" d="M31.87,58.16s0-.07,0-.11a.71.71,0,0,0-.83-.54c-.31,0-1-.09-1.16.34s.22.53.32.74a1.1,1.1,0,0,0,.52.5,0,0,0,0,1,0,0,1.27,1.27,0,0,0,1,1.4,1,1,0,0,0,1.23-1c.09-.76-.25-1.26-.89-1.34Z"/><path class="cls-8" d="M34.21,67.09c.61,0,.89-.21,1-.86,0-.49-.23-1-.6-1a1.36,1.36,0,0,0-1.25,1.1C33.28,66.69,33.7,67.05,34.21,67.09Z"/><path class="cls-8" d="M34.57,60.74c.15-.21-.1-.52-.38-.58s-.56.12-.56.37,0,.57.29.61S34.43,60.93,34.57,60.74Z"/><path class="cls-8" d="M35.42,66.89a.3.3,0,0,0-.52.13c-.06.19-.18.7,0,.82s.62-.26.71-.43S35.56,67,35.42,66.89Z"/><path class="cls-8" d="M33.92,54.56a1.39,1.39,0,0,0-1.4,1,1.31,1.31,0,0,0,1.07,1.28,1,1,0,0,0,1.18-.8C34.86,55.39,34.45,54.64,33.92,54.56Z"/><path class="cls-8" d="M30.81,71.36a1.28,1.28,0,0,0,1.29-.94,1.29,1.29,0,0,0-.54-1.23,1.22,1.22,0,0,0-.1-.45.48.48,0,0,0,.17-.1c.25-.25.08-.72-.26-.91a.57.57,0,0,0-.77.26h0a1.33,1.33,0,0,0-.83.18c0,.63,0,1.26-.06,1.87l.1,0a.35.35,0,0,0,0,.14A1.2,1.2,0,0,0,30.81,71.36Z"/><path class="cls-8" d="M30.85,54.25c.34,0,.87-.46.95-.9a.53.53,0,0,0-.46-.65c-.66-.09-1.14.12-1.2.56A1.15,1.15,0,0,0,30.85,54.25Z"/><path class="cls-8" d="M29.56,54.29a.63.63,0,0,0-.23.13c0,.36.08.71.11,1.06a1,1,0,0,0,.39.1,1.09,1.09,0,0,0-.22.46,1.35,1.35,0,0,0,1,1.33,1,1,0,0,0,1.12-.82c.1-.77-.28-1.41-.86-1.47a1,1,0,0,0-.48.08.59.59,0,0,0-.07-.54A.65.65,0,0,0,29.56,54.29Z"/><path class="cls-8" d="M35.92,58.44c-.32,0-.7.37-.78.83a.8.8,0,0,0,.54,1,1,1,0,0,0,1.07-.62A1.11,1.11,0,0,0,35.92,58.44Z"/><path class="cls-8" d="M37.3,57.9a.65.65,0,0,0,.73.4.47.47,0,0,0,.48-.46c.05-.48-.27-.66-.69-.84C37.51,57.27,37.13,57.45,37.3,57.9Z"/><path class="cls-8" d="M37.52,54.21c-.52-.05-.91.2-.93.59a1.26,1.26,0,0,0,.95,1.2.94.94,0,0,0,.78-.84A.8.8,0,0,0,37.52,54.21Z"/><path class="cls-8" d="M39.5,64.29a1.06,1.06,0,0,0,1.11-.48.85.85,0,0,0-.43-1.24.83.83,0,0,0-1.14.15c-.31.06-.6.22-.65.45-.17.65.43,1,.75,1.18A.38.38,0,0,0,39.5,64.29Z"/><path class="cls-8" d="M30.17,60.08l-.45-.64c0,.54.05,1.09.06,1.63a.57.57,0,0,0,.47-.23C30.45,60.58,30.34,60.32,30.17,60.08Z"/><path class="cls-8" d="M35.25,71.85a.89.89,0,0,0,.19-1.12,1.14,1.14,0,0,0-.39-.25.45.45,0,0,0,.27-.54.51.51,0,0,0-.37-.4,1,1,0,0,0-.33-.93.85.85,0,0,0-.49-.09s0-.06,0-.1a.56.56,0,0,0-.47-.65.53.53,0,0,0-.67.45.65.65,0,0,0,.27.67h0A.91.91,0,0,0,33.65,70a1.08,1.08,0,0,0,.72.22.5.5,0,0,0,.1.17.69.69,0,0,0-.25.1c-.3.23-.25.82.12,1.27A.72.72,0,0,0,35.25,71.85Z"/><path class="cls-8" d="M34.93,62.75a.27.27,0,0,1-.18-.07c-.27-.24-.37-.69-.76-.74s-1.28-.21-1.61.31.19.67.3,1a.81.81,0,0,0,.9.57,7.05,7.05,0,0,0,.85-.32.31.31,0,0,0,.19.16,2.33,2.33,0,0,0,.4.08A.42.42,0,0,1,35,64c-.1.34.14.85.85,1s1.39-.49,1.19-1-.53-.51-.46-.69.41-.47.24-.78-1.22-.25-1.37-.15-.28.29-.48.33Z"/><path class="cls-8" d="M33.71,71.44a1,1,0,0,0-.72.8c0,.25.46.6.78.6a.46.46,0,0,0,.44-.56C34.16,71.76,34,71.43,33.71,71.44Z"/><path class="cls-8" d="M39,68.82a1.22,1.22,0,0,0-.3-1.56,1.19,1.19,0,0,0-1.56.22,1.13,1.13,0,0,0-.11.22.79.79,0,0,0-.22-.06.55.55,0,0,0-.59.55.65.65,0,0,0,.59.68.66.66,0,0,0,.21,0,.71.71,0,0,0,.17.21A1.53,1.53,0,0,0,39,68.82Z"/><path class="cls-8" d="M41.79,48.32c-.14-.2-1.12.27-1.18.54s.49.56,1,.43S41.94,48.52,41.79,48.32Z"/><path class="cls-8" d="M40.94,55.15a.44.44,0,0,0,.47.54.81.81,0,0,0,.55-.3c.09-.15-.11-.72-.39-.75A.58.58,0,0,0,40.94,55.15Z"/><path class="cls-8" d="M41.78,57.63h.38a.83.83,0,0,0-.33-.4,1.12,1.12,0,0,0-1.64.24c-.55.73.29,1.16-.22,1.48s-.58-.29-1.27.21-.67,1.4-.11,1.62.94-.15,1.06-.06.49.6.87.32c.81-.61.08-1.19.27-1.44s.67-.43,1-.73Z"/><path class="cls-8" d="M41.78,69.75c-.18-.18-.41-.19-.82,0a1.63,1.63,0,0,0,.52-1,1,1,0,0,0-.82-1.23,1.37,1.37,0,0,0-1.53,1,1.26,1.26,0,0,0,.36,1h0a.63.63,0,0,0-.38.74.47.47,0,0,0,.22.33,8.66,8.66,0,0,0,1,.14c.41.66.95,1,1.35.71a.71.71,0,0,0,.16-.18ZM40.41,70l0,0h.1Z"/><path class="cls-8" d="M43,55.11c.21.12.61-.21.58-.51s-.18-.36-.24-.46c-.46-.08-.79.09-.74.35A1,1,0,0,0,43,55.11Z"/><path class="cls-8" d="M42.68,43.67a1.07,1.07,0,0,0-1.13.9,1.15,1.15,0,0,0,1,1.35.91.91,0,0,0,1.11-.73A1.44,1.44,0,0,0,42.68,43.67Z"/><path class="cls-8" d="M38.84,73.88a.8.8,0,0,0,1-.08,1.41,1.41,0,0,0,.31-.79,1.07,1.07,0,0,0,.88-.77c.11-.5-.46-1.1-1.14-1.21a.83.83,0,0,0-1,.76,1.15,1.15,0,0,0,.09.65,1,1,0,0,0-.35.25A1,1,0,0,0,38.84,73.88Z"/><path class="cls-8" d="M42.68,51.71c.11-.09,0-.34,0-.44s-.37-.17-.5,0,0,.42.11.47A.41.41,0,0,0,42.68,51.71Z"/><path class="cls-8" d="M38.11,65.81a.55.55,0,0,0,.45.68.6.6,0,0,0,.73-.5.67.67,0,0,0-.55-.71A.59.59,0,0,0,38.11,65.81Z"/><path class="cls-8" d="M31.21,51.22a.71.71,0,0,0-.75.59.75.75,0,0,0,.65.72.65.65,0,0,0,.7-.56A.71.71,0,0,0,31.21,51.22Z"/><path class="cls-8" d="M30.32,45.17a1.31,1.31,0,0,0-1.14,1,.72.72,0,0,0,.71.82.79.79,0,0,0,1-.79C31,45.69,30.68,45.2,30.32,45.17Z"/><path class="cls-8" d="M41.24,37a1.77,1.77,0,0,0-1.49,1.13,1.2,1.2,0,0,0,1.07,1.25,1.34,1.34,0,0,0,1.33-1A1.21,1.21,0,0,0,41.24,37Z"/><path class="cls-8" d="M30.31,66.73l.46.15a.61.61,0,0,0,.73-.22.89.89,0,0,0,0-1,.64.64,0,0,0-.39-.37.85.85,0,0,0,.48-.68.49.49,0,0,0-.48-.57,1,1,0,0,0-.72.25.69.69,0,0,0,.29,1,2.12,2.12,0,0,1-.71,0,.3.3,0,0,0-.16,0c0,.7,0,1.38,0,2.06A5.43,5.43,0,0,0,30.31,66.73Z"/><path class="cls-8" d="M28.53,48.38c.1.64.2,1.3.29,2,.05.31.1.62.14.94a1.23,1.23,0,0,0,.42-.17,1.22,1.22,0,0,0,.18-1.46c-.18-.34-.4-.6-.16-1s-.1-.56-.42-.69A.68.68,0,0,0,28.53,48.38Z"/><path class="cls-8" d="M37,72.59c.4-.06.5-.36.46-.77-.29-.17-.59-.39-.88-.06a.71.71,0,0,0,0,.59A.49.49,0,0,0,37,72.59Z"/><path class="cls-8" d="M29.42,76.07a.81.81,0,0,0-.12-.14c-.05.42-.09.84-.14,1.24A.92.92,0,0,0,29.42,76.07Z"/><rect class="cls-7" x="68.7" y="48.84" width="6.5" height="9"/><rect class="cls-6" x="55.21" y="54.71" width="6.5" height="28.45"/><rect class="cls-6" x="68.63" y="57.87" width="6.5" height="25.29"/><rect class="cls-6" x="82.06" y="56.37" width="6.5" height="26.79"/><rect class="cls-7" x="55.24" y="51.31" width="6.5" height="21.04"/><rect class="cls-7" x="82.02" y="47.64" width="6.5" height="16.03"/></svg>