<?xml version="1.0" encoding="utf-8"?>
<!-- Generator: Adobe Illustrator 25.0.1, SVG Export Plug-In . SVG Version: 6.00 Build 0)  -->
<svg version="1.1" id="Layer_1" xmlns="http://www.w3.org/2000/svg" xmlns:xlink="http://www.w3.org/1999/xlink" x="0px" y="0px"
	 viewBox="0 0 680 400" style="enable-background:new 0 0 680 400;" xml:space="preserve">
<style type="text/css">
	.st0{clip-path:url(#SVGID_2_);}
	.st1{fill:#E6EBF2;}
	.st2{fill:#FEC514;}
	.st3{fill:#00BFB3;}
	.st4{fill:#D3DAE0;}
	.st5{fill:#F9B110;}
	.st6{fill:none;}
</style>
<g>
	<g>
		<g>
			<defs>
				<rect id="SVGID_1_" y="58" width="355" height="342"/>
			</defs>
			<clipPath id="SVGID_2_">
				<use xlink:href="#SVGID_1_"  style="overflow:visible;"/>
			</clipPath>
			<g class="st0">
				<path class="st1" d="M299.9,133.4c0.2-0.1,0.1-0.4,0-0.5s-0.3-0.1-0.4,0s-0.2,0.3-0.1,0.4C299.5,133.5,299.7,133.6,299.9,133.4z
					"/>
				<path class="st1" d="M302,148.3c0.4-0.4,0.5-1.1,0.1-1.6s-1-0.5-1.6-0.1s-0.7,1.2-0.2,1.7C300.6,148.7,301.6,148.7,302,148.3z"
					/>
				<path class="st1" d="M302.2,127.3c0.3-0.1,0.7-0.4,0.7-0.7c0.1-0.7-0.8-1.1-1.2-1s-0.8,0.9-0.4,1.5
					C301.5,127.2,302,127.3,302.2,127.3z"/>
				<path class="st1" d="M303.8,138.5c0.7-0.6,1-1.5,0.5-2c-0.6-0.7-1.9-0.9-2.7-0.3c-0.5,0.4-0.5,1.5,0,2.1
					C302.3,139,303.1,139.1,303.8,138.5z"/>
				<path class="st1" d="M295.8,127.1c0.5-0.4,0.6-1.1,0.2-1.7c-0.4-0.5-1.1-0.6-1.7-0.2c-0.4,0.3-0.5,1.1-0.2,1.6
					C294.6,127.4,295.3,127.5,295.8,127.1z"/>
				<path class="st1" d="M288.5,134.8c0.2-0.2,0.7-0.8,0.5-1.1s-1-0.2-1.3-0.1c-0.4,0.2-0.6,1-0.2,1.2
					C287.8,135,288.3,135,288.5,134.8z"/>
				<path class="st1" d="M287.8,142.6c0.6,0.7,1.4,0.8,2.2,0.2c0.7-0.6,1-1.7,0.6-2.2c-0.4-0.6-1.9-0.7-2.4-0.3
					C287.3,141,287.2,141.8,287.8,142.6z"/>
				<path class="st1" d="M321,160.8c0.1,0.5,0.7,0.9,1.3,0.7c0.5-0.2,0.8-0.8,0.7-1.3c-0.1-0.6-0.8-0.9-1.2-0.7
					C321.2,159.7,320.9,160.2,321,160.8z"/>
				<path class="st1" d="M292.3,138.4c0.5,1.2,1.7,1.4,2.5,0.5c0.5-0.6,0.9-1.3,1.2-2c0.3-0.8-0.2-2-0.9-2.4
					c-0.4-0.3-1.6-0.5-1.9,0.5c0.4,1.7-0.9,1.5-1,2.8C292.2,138.1,292.3,138.3,292.3,138.4z"/>
				<path class="st1" d="M321.1,154.4c0.2-0.1,0.1-0.5,0-0.7c0-0.1-0.5-0.4-0.7-0.2c-0.3,0.2,0,0.7,0.1,0.9
					C320.5,154.4,320.9,154.5,321.1,154.4z"/>
				<path class="st1" d="M312.9,143.2c0.2-0.1,0.5-0.6,0.3-0.8s-0.7-0.1-0.9,0c-0.1,0.1-0.3,0.4-0.1,0.6
					C312.4,143.2,312.7,143.3,312.9,143.2z"/>
				<path class="st1" d="M318.3,151.3c0.5-0.7-0.3-1.6-1-1.6s-0.4-0.1-0.7-0.7c-0.3-0.6-1.1-1.3-2-0.4c-0.9,0.8-0.5,2.2,0.1,3
					C315.4,152.3,317.6,152.3,318.3,151.3z"/>
				<path class="st1" d="M312.9,154.4c-0.2,0.1-0.4,0.4-0.4,0.6s0.3,0.6,0.7,0.5s0.3-0.6,0.2-0.9C313.4,154.5,313,154.3,312.9,154.4
					z"/>
				<path class="st1" d="M286.7,122.3c0.6-0.4,0.7-1.2,0.3-1.7c-0.3-0.4-1.2-0.5-1.6-0.2c-0.4,0.4-0.5,1.2-0.2,1.6
					C285.6,122.5,286.2,122.6,286.7,122.3z"/>
				<path class="st1" d="M307.1,147.7c0.4-0.4,0.1-1.1,0-1.4c-0.2-0.4-0.6-0.7-1.1-0.4s-0.8,1-0.4,1.3
					C305.9,147.5,306.6,148,307.1,147.7z"/>
				<path class="st1" d="M306.5,151.6c-0.3,0.5,0.4,1.8,1,2.1s1.1,0.6,1.7-0.1c0.4-0.5,0.9-0.9,1.3-1.4c0.7-0.3,0.8-0.9,0.5-1.4
					c-0.3-0.6-0.9-0.7-1.6-0.4c-0.4,0.1-0.8,0.3-1.2,0.3C307.5,150.7,306.9,150.9,306.5,151.6z"/>
				<path class="st1" d="M309.7,137.8c0.3-0.3,0.8-1.3,0.6-1.6c-0.2-0.4-1.3,0-1.4,0.2c-0.2,0.4-0.5,1-0.2,1.5
					C309,138.3,309.6,138,309.7,137.8z"/>
				<path class="st1" d="M312.2,159.5C312.3,159.5,312.3,159.5,312.2,159.5c0.4,0.4,0.7,0.3,1.1,0c0.5-0.3,0.5-0.9,0.1-1.2
					c-0.3-0.2-0.7-0.3-1-0.4c-0.1,0.1-0.2,0.2-0.3,0.4c-0.1-0.1-0.2-0.1-0.4,0c-0.4,0.1-0.6,0.5-0.4,0.9
					C311.5,159.6,311.9,159.7,312.2,159.5z"/>
				<path class="st1" d="M293.7,149.2c-0.1-0.7-0.5-1.4-1.2-1.7c-0.7-0.2-1.2-0.2-1.7,0L293.7,149.2z"/>
				<path class="st1" d="M264.1,114.5c-0.1,0.5,0.2,1.2,0.7,1.3c0.5,0.2,1.3-0.2,1.5-0.7s-0.2-1.1-0.7-1.3
					C265,113.7,264.3,114,264.1,114.5z"/>
				<path class="st1" d="M286.1,128.4c0.6-0.3,0.7-0.8,0.3-1.4s-1-0.7-1.5-0.4c-0.5,0.3-0.6,1-0.4,1.4
					C284.8,128.6,285.5,128.7,286.1,128.4z"/>
				<path class="st1" d="M265.2,119.4c0.2-0.1,0.1-0.4,0-0.5s-0.3-0.1-0.4,0s-0.2,0.3-0.1,0.4C264.8,119.4,265,119.6,265.2,119.4z"
					/>
				<path class="st1" d="M264.9,120.6c0,0.2,0,0.4,0.1,0.7c-0.6,0.4-0.7,1-0.4,1.3c0.4,0.4,1.5,0.6,1.9,0.3c0.4-0.3,0.5-1.1,0.1-1.6
					c0,0-0.1,0-0.1-0.1c0.1-0.1,0.1-0.2,0.1-0.2c0.2-0.4-0.3-1-0.8-1C265.4,119.9,264.9,120,264.9,120.6z"/>
				<path class="st1" d="M263.8,96.4c0.4,0.2,0.6-0.4,0.7-0.6c0.1-0.1-0.2-0.5-0.3-0.5c-0.2,0-0.6,0.1-0.7,0.3
					C263.5,95.7,263.4,96.2,263.8,96.4z"/>
				<path class="st1" d="M259.3,107.9c1,0.3,2.2-0.2,2.3-1c0.1-0.6-0.5-1.5-1.3-1.7c-0.7-0.2-1.5,0.4-1.7,1.2
					C258.4,107.2,258.6,107.7,259.3,107.9z"/>
				<path class="st1" d="M260.7,99c0.4,0,0.6-0.4,0.7-0.5c0-0.2,0-0.6-0.4-0.7s-0.8,0.1-0.8,0.5C260,98.7,260.3,99,260.7,99z"/>
				<path class="st1" d="M261.6,118.4c0.2,0.1,0.5,0.3,0.7,0.2c0.2-0.1,0.4-0.7,0.3-0.8c-0.1-0.2-0.7-0.1-0.9,0
					C261.6,117.9,261.6,118.4,261.6,118.4z"/>
				<path class="st1" d="M262.5,123.9c0.1,0.2,0.6,0.5,0.8,0.4c0.2-0.2,0.1-0.7,0-0.8c-0.2-0.2-0.5-0.5-0.7-0.3
					C262.5,123.3,262.4,123.7,262.5,123.9z"/>
				<path class="st1" d="M267.7,106.5c0.5,0.2,1.1-0.2,1.3-0.7s-0.1-1.2-0.6-1.3c-0.6-0.1-1.1,0.1-1.3,0.7
					C266.8,105.7,267.1,106.4,267.7,106.5z"/>
				<path class="st1" d="M280,128.8c-0.7,0.5-0.9,1.5-0.5,1.9c0.6,0.7,1.9,0.8,2.7,0.3c0.5-0.3,0.5-1.3,0-1.9
					C281.5,128.4,280.7,128.3,280,128.8z"/>
				<path class="st1" d="M258,114.4c0.4,0,1.3-0.8,1.1-1.7c-0.1-0.5-0.5-0.9-1.2-0.9c-0.6,0-1.1,0.3-1.2,0.9
					C256.7,113.6,257.7,114.4,258,114.4z"/>
				<path class="st1" d="M285.7,135.3c0.6-0.5,0.8-1.1,0.5-1.7c-0.4-0.6-1.9-0.9-2.4-0.6c-0.7,0.5-0.8,1.4-0.2,2.2
					C284.1,135.9,284.8,135.9,285.7,135.3z"/>
				<path class="st1" d="M280.8,117.1c0.3-0.1,0.9-1.3,0.6-1.8s-1.6,0-2,0.3c-0.3,0.2-0.5,1-0.2,1.4
					C279.4,117.5,280.3,117.3,280.8,117.1z"/>
				<path class="st1" d="M278.2,135.9c0.6-0.4,0.7-1.8,0.2-2.4c-0.4-0.5-1.6-0.6-2.2-0.2c-0.5,0.3-0.7,1.3-0.4,1.7
					C276.5,135.9,277.6,136.3,278.2,135.9z"/>
				<path class="st1" d="M266.6,128.8c-0.2,0.8,0.6,1.8,1.5,1.9c0.5,0.1,1,0,1.3-0.4c0.4,0.1,0.8,0,1-0.2c0.6-0.6,0.8-1.5,0.4-2
					c-0.3-0.4-1.1-0.7-1.7-0.7c-0.2-0.1-0.3-0.1-0.5-0.2C267.7,127.1,266.9,127.7,266.6,128.8z"/>
				<path class="st1" d="M276.9,123.8L276.9,123.8c0.4,0.2,0.7,0.3,1.1,0.1c0.4-0.3,0.4-1.4,0.1-1.6c0,0-0.1,0-0.2,0
					c-0.6-0.4-1.1-0.9-1.8-0.3c-0.4,0.4-0.5,0.9-0.3,1.5C276.1,123.7,276.4,123.9,276.9,123.8z"/>
				<path class="st1" d="M270.8,112.8c0.7,0.4,1.3,0.3,1.9-0.1s0.7-1.1,0.4-1.7c-0.2-0.5-0.4-1.7-1.2-1.8c-0.8-0.1-0.8,0.7-1.1,0.9
					C270.1,110.9,270.1,112.3,270.8,112.8z"/>
				<path class="st1" d="M276.3,126.5c-0.6,0.4-0.7,1.1-0.3,1.7c0.4,0.4,1.2,0.6,1.6,0.2c0.5-0.4,0.6-1.2,0.2-1.7
					C277.3,126.3,276.7,126.2,276.3,126.5z"/>
				<path class="st1" d="M282.2,138.4c0.4,0.4,1.1,0.4,1.6,0s0.5-0.9,0.1-1.4c-0.4-0.4-1.1-0.5-1.6-0.2S281.8,138,282.2,138.4z"/>
				<path class="st1" d="M247.9,120c-0.1,0.6,0.1,0.9,0.6,1.2c0.6,0.2,1.1,0.1,1.5-0.3c0.5-0.7,0.1-1.6-0.4-1.9
					S248.1,119.1,247.9,120z"/>
				<path class="st1" d="M247.1,118.9c0.2,0.3,1,0.2,1.1,0.1c0.2-0.2,0.5-0.7,0.4-0.9s-0.7-0.3-1-0.2
					C247.4,117.9,247,118.6,247.1,118.9z"/>
				<path class="st1" d="M254,118.7c-0.5,0.4-0.7,1-0.3,1.5c0.3,0.4,1,0.6,1.4,0.3c0.5-0.3,0.6-1,0.2-1.6
					C255,118.4,254.5,118.3,254,118.7z"/>
				<path class="st1" d="M245.7,103.3c-0.4,0-1.3-0.2-1.5,0.4c-0.2,0.7,0.7,1,1,1.3c0.4,0.3,0.9-0.1,1.1-0.6
					C246.5,103.8,246.3,103.3,245.7,103.3z"/>
				<path class="st1" d="M253.7,122.6c-0.3,1.1,0,1.7,0.8,1.9s2-0.4,2.1-1.1c0.2-0.7-0.5-1.9-1.3-2.1
					C254.7,121.1,253.9,121.8,253.7,122.6z"/>
				<path class="st1" d="M261.2,129.4c0.3-1-0.3-2.2-1.3-2.5c-0.8-0.2-1.6-0.1-2.2,0.4L261.2,129.4z"/>
				<path class="st1" d="M247.5,113.6c0.8,0.2,1.5-0.1,1.7-0.7c0.1-0.6-0.6-2.1-1.1-2.2c-0.8-0.2-1.7,0.3-1.9,1.3
					C246,112.8,246.5,113.3,247.5,113.6z"/>
				<path class="st1" d="M259.9,123.8c0.2-0.4,0-0.8-0.5-0.8c-0.4,0-1.3,0.1-1.4,0.5s0.8,0.9,1.1,1
					C259.4,124.5,259.8,124,259.9,123.8z"/>
				<path class="st1" d="M256.6,126.1c-0.3-0.4-0.6-0.4-1-0.1l1.3,0.8C256.9,126.6,256.8,126.3,256.6,126.1z"/>
				<path class="st1" d="M271.1,116c-0.1,0.1-0.2,0.5-0.2,0.7c0.1,0.2,0.6,0.6,0.8,0.3c0.2-0.2,0.2-0.7,0-0.9
					C271.7,116,271.3,115.9,271.1,116z"/>
				<path class="st1" d="M131,98c0.4-0.3,0.8-0.6,0.6-1.2c-0.2-0.5-1.3-0.7-1.6-0.4c-0.2,0.3-0.2,0.8,0,1.1
					C130.1,98,130.5,98.3,131,98z"/>
				<path class="st1" d="M138.7,96.7c0.8-0.4,1.2-1.7,0.8-2.6c-0.2-0.5-1.2-0.7-1.8-0.4c-0.9,0.5-1.2,1.3-0.8,2.1
					C137.3,96.6,138.2,97,138.7,96.7z"/>
				<path class="st1" d="M146.8,95.6c0.5-0.3,0.6-1,0.3-1.5s-0.8-0.7-1.4-0.4c-0.5,0.3-0.7,1-0.5,1.5
					C145.5,95.6,146.3,95.9,146.8,95.6z"/>
				<path class="st1" d="M237.1,107.6c-0.5-0.1-1.5,0.3-1.6,0.7c-0.1,0.5,0.4,1.4,0.9,1.5c0.7,0.2,1.3-0.1,1.5-0.8
					C238,108.4,237.6,107.7,237.1,107.6z"/>
				<path class="st1" d="M124.7,108.9c0.1-0.1,0.3-0.3,0.2-0.4c-0.1-0.2-0.3-0.2-0.4-0.1c-0.1,0-0.1,0.3-0.1,0.4
					C124.4,108.8,124.6,109,124.7,108.9z"/>
				<path class="st1" d="M236.2,101.2c-1-0.3-1.9,0.4-2.2,1.4c-0.4,1.4,0.1,2.3,1.5,2.7c1.1,0.3,2.3-0.5,2.6-1.7
					C238.3,102.8,237.3,101.5,236.2,101.2z"/>
				<path class="st1" d="M321.9,166.4l3.4,2.1c0.8-0.7,1.1-2,0.5-2.8c-0.6-0.7-2.5-1-3.3-0.5C322.2,165.5,322,165.9,321.9,166.4z"/>
				<path class="st1" d="M233.4,107.2c0.3-0.9-0.5-2.1-1.5-2.3s-2.4,0.5-2.6,1.4c-0.3,1.1,0.3,2.3,1.2,2.5
					C231.4,109,233.2,108,233.4,107.2z"/>
				<path class="st1" d="M226.4,104.8c0.1,0,0.3-0.4,0.2-0.6s-0.5-0.2-0.7-0.2c-0.1,0-0.5,0.4-0.4,0.7
					C225.7,105,226.2,104.9,226.4,104.8z"/>
				<path class="st1" d="M216.2,100c0.5-0.2,0.7-0.9,0.4-1.2c-0.3-0.2-0.8-0.9-1.3-0.5s-0.3,1.1-0.2,1.5
					C215.3,100.3,215.8,100.2,216.2,100z"/>
				<path class="st1" d="M193.3,87.4c-0.2,0.1-0.4,0.2-0.5,0.4l2.7,1.7c0.1-0.4,0.1-1-0.1-1.4C195,87.1,194.2,86.9,193.3,87.4z"/>
				<path class="st1" d="M199.6,91.8c-0.1,0-0.1,0-0.2,0l0.7,0.4C200.2,91.9,199.7,91.7,199.6,91.8z"/>
				<path class="st1" d="M184.3,81.9c-0.2-0.2-0.5-0.5-0.6-0.7c-0.4-1.1-1.1-1.5-2.2-1c0-0.2,0-0.3-0.1-0.4c-0.3-0.4-1-0.5-1.6-0.2
					c-0.1,0-0.2,0.1-0.3,0.2l6,3.6C185.3,82.8,184.8,82.3,184.3,81.9z"/>
				<path class="st1" d="M263.1,129.8c-0.1,0.1-0.3,0.3-0.3,0.6l1.3,0.8c0.3-0.3,0.3-0.8,0-1C263.8,130,263.5,129.7,263.1,129.8z"/>
				<path class="st1" d="M338.7,170.3c0.4,0.2,0.8,0.2,1.2-0.2c0.6-0.6,0.3-1.2-0.1-1.9c-0.7,0.1-1.5-0.1-1.7,0.8
					C337.9,169.5,338.1,170,338.7,170.3z"/>
				<path class="st1" d="M333.8,170.3c0.4-0.1,0.4-0.6,0.3-0.7c-0.1-0.2-0.4-0.3-0.6-0.4c-0.1,0-0.4,0.4-0.3,0.5
					C333.3,169.9,333.5,170.3,333.8,170.3z"/>
				<path class="st1" d="M350.4,177.9c0.1,0,0.5-0.4,0.4-0.7s-0.6-0.2-0.9-0.2c-0.1,0-0.3,0.4-0.3,0.6
					C349.7,177.9,350.2,177.9,350.4,177.9z"/>
				<path class="st1" d="M271.9,120.4c0.3,0.2,0.6-0.3,0.7-0.4c0-0.2-0.1-0.5-0.3-0.7c-0.1-0.1-0.5,0.1-0.6,0.2
					C271.7,119.8,271.6,120.2,271.9,120.4z"/>
				<path class="st1" d="M269.6,133.3c-0.4,0.2-0.7,0.4-0.9,0.6l1.7,1l0.1-0.1C270.8,134.1,270.1,133.8,269.6,133.3z"/>
				<path class="st1" d="M327.1,162.6c-0.2,1,0.6,2.2,1.5,2.1c0.8,0,1.3-0.5,1.5-1.2c0.3-0.7-0.1-1.3-0.6-1.6s-1.3-1.1-2-0.7
					C326.7,161.6,327.1,162.2,327.1,162.6z"/>
				<path class="st1" d="M316.6,162.4c0.2-0.2,0.1-0.8,0-0.9c-0.1-0.2-0.5-0.3-0.7-0.2s-0.2,0.6-0.1,0.7
					C315.9,162.2,316.4,162.5,316.6,162.4z"/>
				<path class="st1" d="M295.2,143.4c0.2-0.4,0.1-1.1-0.3-1.3c-0.5-0.3-1.6,0.6-1.5,1C293.6,143.6,294.9,143.9,295.2,143.4z"/>
				<path class="st1" d="M294.1,147.7c0.4,0,0.9-0.2,1.1-0.4c0.4-0.6-0.1-1-0.5-1.3c-0.7,0-1.2,0.3-1.1,1.1
					C293.5,147.3,293.9,147.7,294.1,147.7z"/>
				<path class="st1" d="M281.6,136c0.1-0.3-0.4-0.6-0.6-0.6c-0.1,0-0.5,0.1-0.6,0.3s0.2,0.5,0.4,0.6
					C281,136.4,281.5,136.3,281.6,136z"/>
				<path class="st1" d="M326,168.9c-0.1-0.1-0.3-0.2-0.5-0.3L326,168.9z"/>
				<path class="st1" d="M303.3,144.1c0.5-0.3,0.6-1,0.2-1.5c-0.4-0.6-1-0.7-1.5-0.3s-0.7,1-0.3,1.5
					C302,144.2,302.8,144.4,303.3,144.1z"/>
				<path class="st1" d="M277.8,139.6l2.3,1.4c0-0.3-0.1-0.5-0.3-0.8C279.4,139.6,278.5,139.4,277.8,139.6z"/>
				<path class="st1" d="M289.2,146.5l1.7,1c0-0.1-0.1-0.2-0.2-0.2C290.3,146.6,289.7,146.4,289.2,146.5z"/>
				<path class="st1" d="M301.2,153.8l2.2,1.4c0-0.6-0.3-1.2-0.8-1.4C302.1,153.5,301.6,153.6,301.2,153.8z"/>
				<path class="st1" d="M131.4,89.3c0.5-0.2,0.8-0.8,0.5-1.3c-0.3-0.6-1-0.9-1.6-0.7c-0.5,0.2-0.8,1-0.5,1.5
					C130.1,89.3,130.9,89.5,131.4,89.3z"/>
				<path class="st1" d="M165.9,80.3c-0.8,0.5-1.3,1.7-0.9,2.5c0.4,0.8,1.1,1.3,1.9,1.3c-0.2,0.3-0.4,0.6-0.4,1.1l2.7-1.6
					c-0.2-0.1-0.4-0.1-0.5-0.1h-0.1c0.5-0.5,0.5-1.3,0.1-2.1c-0.1-0.3-0.3-0.6-0.5-0.8c0.2-0.1,0.5-0.2,0.6-0.5
					c0.4-0.6-0.1-1.6-0.8-1.9c-0.6-0.3-1.6-0.1-2,0.4C165.3,79.2,165.7,80.1,165.9,80.3z"/>
				<path class="st1" d="M164.7,69.7c-0.6,0.2-0.9,0.8-0.8,1.5c0.1,0.4,0.2,0.8,0.1,1.2c-0.2,0.7-0.1,1.4,0.5,1.8
					c0.4,0.4,1.9,0,2.3-0.5s0.8-1,0.3-1.7c-0.4-0.5-0.7-1.1-1.1-1.6C165.8,69.7,165.3,69.5,164.7,69.7z"/>
				<path class="st1" d="M166.1,66.2c0.9-0.5,1.3-2.6,0.5-3.5c-0.6-0.7-1.6,0-1.8,0.6s-0.2,0.4-0.9,0.6s-1.5,0.8-0.8,1.8
					C163.7,66.7,165.1,66.7,166.1,66.2z"/>
				<path class="st1" d="M169.9,61.2c0.1,0,0.3-0.4,0.2-0.6c-0.1-0.2-0.5-0.2-0.7-0.2c-0.1,0-0.5,0.4-0.4,0.7
					C169.2,61.4,169.7,61.3,169.9,61.2z"/>
				<path class="st1" d="M160,74.4c0.3-0.2,1-0.9,0.7-1.4s-1-0.3-1.4-0.2c-0.4,0.1-0.8,0.4-0.6,1C159,74.2,159.6,74.7,160,74.4z"/>
				<path class="st1" d="M160.1,79.8c0.5-0.3,0.7-1.2,0.4-1.7s-1-0.7-1.6-0.4c-0.5,0.3-0.7,0.9-0.4,1.5S159.5,80.1,160.1,79.8z"/>
				<path class="st1" d="M170,79.7c0.3,0.6,1,0.9,1.6,0.7c0.5-0.2,0.7-0.9,0.4-1.5c-0.3-0.5-0.8-0.8-1.3-0.6
					C170,78.5,169.7,79.1,170,79.7z"/>
				<path class="st1" d="M164,86.3c0.6-0.2,0.8-0.7,0.5-1.3c-0.2-0.6-0.8-0.9-1.4-0.7c-0.6,0.2-0.9,1-0.6,1.5
					C162.7,86.3,163.4,86.5,164,86.3z"/>
				<path class="st1" d="M157.8,87.2c-0.4,0.6-0.5,1.1-0.4,1.6c-0.1,0-0.2,0.1-0.3,0.1c-1.1,0.4-1.2,1.3-1,2.3
					c-0.6,0.2-1.4,0.1-1.4,1l6.2-3.8c0.1-0.6,0-1.4-0.4-1.7C160,86.2,158.4,86.2,157.8,87.2z"/>
				<path class="st1" d="M183.9,62.1c0.9-0.5,1.4-1.9,1-2.8c-0.5-1.1-1.8-1.6-2.7-1.2c-0.8,0.5-1.5,2.3-1.1,3.1
					C181.5,62.2,182.9,62.6,183.9,62.1z"/>
				<path class="st1" d="M188,80.5c0.6,0.2,1.5-0.5,1.3-1.4c-0.1-0.4-0.6-0.8-0.9-0.9c-0.3-0.1-0.9,0.2-1.1,0.5
					C186.8,79.4,187.4,80.4,188,80.5z"/>
				<path class="st1" d="M185,76.5c-0.5,0.2-0.8,0.9-0.5,1.5s0.9,0.9,1.4,0.7c0.6-0.2,0.9-0.9,0.6-1.5
					C186.3,76.6,185.5,76.2,185,76.5z"/>
				<path class="st1" d="M192.8,70.2c0.9-0.5,1.3-1.4,0.9-2.2c-0.5-1.1-2.1-1.8-2.9-1.3c-0.8,0.5-1.2,1.5-0.8,2.4
					C190.5,70.3,191.8,70.7,192.8,70.2z"/>
				<path class="st1" d="M184.4,71.2c-0.6,0.2-0.9,0.7-0.8,1.3c0.1,0.3,0.4,0.7,0.7,0.8c0.6,0.3,1,0,1.6-1.1
					C185.5,71.7,185.3,70.9,184.4,71.2z"/>
				<path class="st1" d="M157.2,67c0.2-0.1,0.4-0.4,0.3-0.6c0-0.2-0.5-0.6-0.7-0.5c-0.3,0.1-0.2,0.7-0.2,0.9
					C156.7,66.9,157,67.1,157.2,67z"/>
				<path class="st1" d="M176.6,67.2c0.2-0.1,0.6-0.5,0.5-0.7s-0.7-0.3-0.9-0.2c-0.2,0.1-0.4,0.4-0.3,0.7
					C176,67.2,176.4,67.3,176.6,67.2z"/>
				<path class="st1" d="M174.8,75.1c0.4-0.3,0.3-0.6,0.2-1c-0.2-0.5-0.8-0.7-1.2-0.4c-0.3,0.3-0.4,0.7-0.5,0.9
					C173.6,75.2,174.3,75.4,174.8,75.1z"/>
				<path class="st1" d="M173.4,70.2c0.4-0.3,0.3-0.6,0.2-1c-0.2-0.5-0.8-0.7-1.2-0.4c-0.3,0.3-0.4,0.7-0.5,0.9
					C172.3,70.4,173,70.5,173.4,70.2z"/>
				<path class="st1" d="M192.6,62.2c0.2,0.1,0.7-0.1,0.8-0.3s0-0.7-0.2-0.8c-0.1-0.1-0.8-0.2-1,0.1C192,61.4,192.4,62.1,192.6,62.2
					z"/>
				<path class="st1" d="M181,75.7c0.8-0.3,1.1-1.2,0.7-2.1c-0.3-0.7-1.1-0.9-2-0.5c-0.7,0.3-1,0.9-0.7,1.5S180.5,75.9,181,75.7z"/>
				<path class="st1" d="M135.5,99.6c0.5-0.3,0.8-1,0.5-1.5s-1.1-0.8-1.6-0.5s-0.7,0.8-0.4,1.4C134.3,99.7,134.9,100,135.5,99.6z"/>
				<path class="st1" d="M137.8,81.5c0.7-0.3,0.9-1,0.6-1.6s-1-0.8-1.6-0.5s-0.8,1-0.5,1.6C136.5,81.5,137.2,81.8,137.8,81.5z"/>
				<path class="st1" d="M137.1,91.2c0.6-0.2,0.9-0.8,0.6-1.4c-0.2-0.6-0.7-0.8-1.3-0.6c-0.6,0.3-0.9,0.8-0.7,1.4
					C136,91.1,136.6,91.4,137.1,91.2z"/>
				<path class="st1" d="M139.4,74.5c0.2-0.1,0.5-0.5,0.4-0.8c0-0.3-0.3-0.8-0.6-0.9c-0.7-0.2-1.2,0.5-1.2,0.9
					C138,74.2,138.7,74.8,139.4,74.5z"/>
				<path class="st1" d="M125.3,94.3c0.5-0.2,0.5-1.1,0.4-1.6c-0.1-0.3-1.1-1.1-1.6-0.9s-0.3,1.6-0.1,2
					C124.1,94.2,124.8,94.6,125.3,94.3z"/>
				<path class="st1" d="M126.7,109.3l1.8-1.1c0-0.1,0-0.3-0.1-0.4c-0.2-0.5-1-0.7-1.5-0.4c-0.5,0.3-0.7,0.9-0.4,1.5
					C126.6,109.1,126.7,109.2,126.7,109.3z"/>
				<path class="st1" d="M123.2,102.3c0.2-0.1,0.7-0.5,0.5-0.7c-0.2-0.3-0.7-0.3-0.9-0.2c-0.2,0.1-0.3,0.5-0.3,0.7
					C122.7,102.2,123.1,102.3,123.2,102.3z"/>
				<path class="st1" d="M122.9,111.7l0.6-0.4c0-0.1,0.1-0.2,0-0.2c0-0.2-0.6-0.6-0.7-0.5s-0.2,0.7-0.2,0.9
					C122.6,111.6,122.7,111.7,122.9,111.7z"/>
				<path class="st1" d="M140.9,100.7l2.7-1.6V99c-0.3-0.6-1.6-1-2.3-0.7c-0.5,0.3-0.9,1.4-0.6,2.1
					C140.6,100.5,140.7,100.6,140.9,100.7z"/>
				<path class="st1" d="M144,93.5c0.7-0.3,0.9-1.1,0.4-2c-0.3-0.7-1-1-1.5-0.8c-0.6,0.3-1.3,1.7-1,2.2C142.2,93.8,143,94,144,93.5z
					"/>
				<path class="st1" d="M151.5,69.5c0.5-0.2,0.3-0.9,0.2-1c-0.3-0.3-1.1-1-1.5-0.9c-0.4,0.2-0.2,1.3-0.1,1.4
					C150.5,69.2,151,69.7,151.5,69.5z"/>
				<path class="st1" d="M157.5,86.1c0.2,0,0.7-0.2,0.8-0.4c0.1-0.4,0-0.9-0.2-1.1c-0.5-0.5-1-0.1-1.4,0.3
					C156.5,85.5,156.7,86.1,157.5,86.1z"/>
				<path class="st1" d="M153.6,85.4c0.5-0.1,1.1-1.2,0.6-1.7c-0.3-0.3-1.1-0.3-1.3,0C152.5,84.2,153.1,85.5,153.6,85.4z"/>
				<path class="st1" d="M155.9,77.5c0.5-0.2,0.8-1,0.7-1.5c-0.2-0.5-0.9-0.8-1.5-0.5s-0.9,0.9-0.6,1.4
					C154.7,77.4,155.4,77.7,155.9,77.5z"/>
				<path class="st1" d="M150.6,87.7c-0.6,0.3-1.1,1.7-0.7,2.3c0.5,1,1.3,1.3,2.2,0.8c0.8-0.5,1.1-1.3,0.6-2.1
					C152.2,87.9,151.2,87.4,150.6,87.7z"/>
				<path class="st1" d="M145.2,77.7c0.1-0.1,0.3-0.3,0.2-0.4c-0.1-0.2-0.3-0.2-0.4-0.1c-0.1,0-0.1,0.3-0.1,0.4
					C144.9,77.6,145.1,77.7,145.2,77.7z"/>
				<path class="st1" d="M144.3,89.6c0.2-0.2,0.3-0.7,0.2-1s-0.7-0.8-1-0.7s-0.4,0.9-0.4,1.2C143.2,89.6,144,89.9,144.3,89.6z"/>
				<path class="st1" d="M145.6,84.1c1.8,0,1.3,1.2,2.6,1.6c0.2,0.1,0.5,0,0.6,0c1.3-0.3,1.7-1.4,0.9-2.4c-0.5-0.6-1.1-1.1-1.7-1.6
					c-0.7-0.5-2-0.2-2.6,0.5C145.1,82.5,144.7,83.6,145.6,84.1z"/>
				<path class="st1" d="M150.5,76.5c0.9-0.5,1.1-1.3,0.6-2.1c-0.4-0.9-1.3-1.2-1.9-0.9c-0.8,0.5-1.2,1.7-0.8,2.6
					C148.7,76.7,149.7,76.9,150.5,76.5z"/>
				<path class="st1" d="M239.2,98c1.1,0.3,2.2-0.4,2.4-1.6c0.2-0.9-0.5-1.9-1.4-2.1s-2,0.6-2.2,1.9C237.7,97.1,238.2,97.8,239.2,98
					z"/>
				<path class="st1" d="M224.8,95c-0.2,0.7,0.2,1.4,1.1,1.6c0.8,0.3,2.1-0.1,2.3-0.8c0.3-0.9-0.3-2-1.1-2.3
					C226.2,93.3,225.1,94,224.8,95z"/>
				<path class="st1" d="M223.3,106.3c0.9-0.6,2-1.7,1.6-3.5c-0.2-1.1-0.8-1.8-1.5-2.1c-0.9-0.4-1.7,0.5-2.6,0.5
					c-1.7-0.1-2.4,0.9-2.5,2c-0.1-0.1-0.3-0.1-0.4-0.2L223.3,106.3z"/>
				<path class="st1" d="M227.9,102.8c0.1,0.3,0.5,0.3,0.7,0.3c0.2-0.1,0.6-0.5,0.5-0.7s-0.7-0.3-0.9-0.2
					C228,102.2,227.7,102.5,227.9,102.8z"/>
				<path class="st1" d="M232.5,93.7c0.7,0.3,2-0.4,2.2-1.1s-0.4-1.7-1.2-2s-1.4,0.1-1.7,1.2C231.6,92.5,232,93.6,232.5,93.7z"/>
				<path class="st1" d="M220.5,85.4c0.4-0.2,0.5-0.9,0.3-1.3c-0.3-0.5-1.3-0.6-1.6,0.2C219,85.2,220,85.6,220.5,85.4z"/>
				<path class="st1" d="M221.4,92.1c0.2,0.2,0.7,0.3,1,0.2c1.2-0.2,1.8-1.1,1.7-2.3c0-0.2,0-0.5-0.1-0.7c0.5,0,0.9,0,1.3-0.1
					c0.8-0.1,1.1-0.5,1.1-1.3s-0.4-1.3-1.1-1.6c-0.7-0.3-1.3,0-1.7,0.5c-0.3,0.3-0.5,0.8-0.8,1.3c-0.2,0-0.5,0-0.7,0.1
					c-0.9,0.2-1.7,0.9-1.8,1.7C220.3,90.7,220.7,91.5,221.4,92.1z"/>
				<path class="st1" d="M220.2,99.4c0.6-0.2,0.9-1.1,0.7-1.6s-1.2-0.7-2.1-0.3c-0.1,0.2-0.3,0.6-0.2,0.9
					C218.8,99.2,219.6,99.6,220.2,99.4z"/>
				<path class="st1" d="M236.2,87.1c0.5,0.2,1.3-0.2,1.4-0.7c0.2-0.7-0.2-1.7-0.7-1.9c-0.7-0.2-1.8,0.2-2,0.8
					C234.6,86,235.2,86.8,236.2,87.1z"/>
				<path class="st1" d="M223.3,97.4c-0.8,0.1-1,0.8-1,1.6c0.5,0.4,1,0.8,1.7,0.4c0.5-0.3,0.7-0.9,0.3-1.4
					C224.1,97.6,223.6,97.3,223.3,97.4z"/>
				<path class="st1" d="M228.5,101.3c0,0.8,0.6,1,1.3,1.3c0.5-0.5,1.2-0.9,0.8-1.7c0-0.1-0.1-0.1-0.1-0.2c0.6-0.3,1.2-1,1.3-1.5
					c0.1-0.6-0.3-1.1-0.9-1.3c-1-0.2-1.9,0.2-2,0.9c-0.1,0.6,0,1.1,0.3,1.5C228.7,100.4,228.5,100.8,228.5,101.3z"/>
				<path class="st1" d="M252.8,113.4c-0.6-0.1-1.3,0.3-1.4,1c-0.1,0.6,0.3,1.2,0.9,1.3c0.5,0.1,1.2-0.4,1.3-0.9
					C253.8,114.1,253.4,113.5,252.8,113.4z"/>
				<path class="st1" d="M256.2,98.8c0.2,0,0.7,0.1,0.8-0.2c0-0.3-0.2-0.6-0.4-0.7c-0.2-0.1-0.8,0-0.9,0.3
					C255.6,98.5,256.1,98.8,256.2,98.8z"/>
				<path class="st1" d="M249.2,107.8c-0.3,1,0.2,1.9,1.2,2.1c1.1,0.3,2.4-0.5,2.6-1.6c0.2-0.8-0.6-2-1.5-2.3
					C250.4,105.7,249.5,106.5,249.2,107.8z"/>
				<path class="st1" d="M254.8,118.4c0.6,0.3,1.3-0.3,1.4-1c0.1-0.5-0.3-1.1-0.9-1.1c-0.6-0.1-1.2,0.4-1.4,1.2
					C254.2,117.7,254.4,118.2,254.8,118.4z"/>
				<path class="st1" d="M253.2,95.7c0.1-0.4,0-1-0.5-1c-0.4,0-1,0.2-1,0.5c-0.1,0.3,0.2,0.8,0.3,1.1
					C252.7,96.5,253,96.1,253.2,95.7z"/>
				<path class="st1" d="M247.3,100.5c1.8,1,2.8,0.4,2.8-1.9c0.1-0.1,0.2-0.2,0.4-0.2c0.6-0.2,0.7-0.6,0.7-1.1s-0.3-0.8-0.7-1
					c-1.1-0.5-1.6-0.3-2,0.8c-0.3,0.8-0.7,1.7-1,2.5c-1.6-0.5-1.8-0.4-1.9,1C246.1,101.2,246.7,101.1,247.3,100.5z"/>
				<path class="st1" d="M241.6,114.1c-0.1,0.2,0,0.7,0.2,1.1c-0.6,0-1,0.2-1.2,0.7c-0.2,0.7,0.3,1.4,1.2,1.4c0.8,0,1,0.5,1.4,0.9
					l-0.1,0.1l2.5,1.6c0.1-0.6-0.1-1.1-0.9-1.6c0.6-0.1,0.9-0.3,1.2-0.2c0.6,0.1,1-0.2,1.2-0.8c0.2-0.6,0.3-1.2-0.2-1.8
					c-1.7-1.6-2.3-1.6-4.2-0.2c0,0-0.1,0-0.2,0.1c0.2-0.2,0.5-0.5,0.6-0.7c0.2-0.4,0.1-0.9-0.4-1.1
					C242.2,113.4,241.7,113.6,241.6,114.1z"/>
				<path class="st1" d="M241.1,105.8c-0.6-0.1-1.8,0.9-2,1.7c-0.1,0.5,0.4,1.3,1,1.5c0.9,0.2,1.8-0.2,2-0.9
					C242.3,107.1,241.8,106,241.1,105.8z"/>
				<path class="st1" d="M244.3,91.3c0.6-0.3,1.3-0.4,1.3-1.3c0-0.5-0.4-0.9-1-1c-0.3,0-0.8,0.2-1,0.4
					C243.1,90.3,243.5,90.8,244.3,91.3z"/>
				<path class="st1" d="M210.5,95.9c-0.5,0.7-0.2,1.8,0.6,2.3c0.1,0,0.1,0.1,0.2,0.1c-0.4-0.2-1-0.3-1.4-0.1l2.2,1.3
					c0-0.2,0-0.4-0.1-0.6s-0.4-0.4-0.6-0.6c0.7,0.3,1,0,1.5,0.4s0.9,0.2,1.4-0.2c0.4-0.3,0.9-0.7,0.9-1.2c0.2,0.1,0.4,0.1,0.5,0.1
					c0.5-0.1,0.7-1,0.3-1.3c-0.2-0.2-0.6-0.3-0.8-0.3c-0.4,0.2-0.6,0.5-0.7,0.8c-0.4-0.3-0.8,0-1,0.1c-0.2,0.2-0.8,0.2-0.6-0.1
					c0.1-0.3,0-0.6-0.7-1C211.5,95.1,210.9,95.2,210.5,95.9z"/>
				<path class="st1" d="M203,69.7c0.3-0.2,0.9-0.7,0.6-1.3c-0.3-0.6-1-0.3-1.2-0.1c-0.2,0.1-0.4,0.6-0.4,0.9
					C202.1,69.8,202.6,69.9,203,69.7z"/>
				<path class="st1" d="M199.7,84.1c-0.5,0.2-0.7,0.9-0.4,1.4c0.2,0.5,0.8,0.7,1.2,0.3c0.3-0.3,0.6-0.7,0.5-1
					C201,84.5,200.2,83.9,199.7,84.1z"/>
				<path class="st1" d="M217.6,93.4c0.4-0.2,0.5-0.9,0.3-1.3c-0.3-0.5-0.7-0.4-1.6,0.2C216.1,93.3,217.2,93.7,217.6,93.4z"/>
				<path class="st1" d="M203.2,87.8c-0.2-0.1-0.4-0.1-0.6-0.1c-1.4,0-2.1,0.8-2.2,1.9c-0.1,1.6,1.6,1.4,1.1,2.4
					c-0.2,0.4-0.5,0.5-0.7,0.6l3.5,2.1l0.1-0.1c0.3-0.9,0-1.3-0.3-1.7c0.3,0.1,0.6,0,0.8-0.3c0.4-0.7,1-1.3,0.8-2.2
					c-0.3-0.2-0.6-0.5-0.9-0.7c0-1-0.4-1.9-1-2C203.6,87.7,203.4,87.7,203.2,87.8z M203.4,92.2c0-0.1,0-0.2,0.1-0.3
					c0,0.2,0,0.3,0.1,0.5c0,0.1,0,0.1,0.1,0.2C203.5,92.5,203.4,92.4,203.4,92.2z"/>
				<path class="st1" d="M200.6,74.7c-0.1-0.5-0.7-1-1.1-0.9c-0.7,0.1-1,1.6-0.6,1.9C199.2,76,200.6,75.4,200.6,74.7z"/>
				<path class="st1" d="M198,90.7c0.6,0,1.6-1.5,1.3-2.1s-1.8-0.3-2,0.4S197.5,90.6,198,90.7z"/>
				<path class="st1" d="M192.8,83.3c0.3,0.4,0.6,0.7,1.1,0.5c1.2-0.4,2.3-1,3.1-2c0.1-0.2,0.2-0.5,0.2-0.6c0.2-1.3-0.8-2.1-2-1.6
					c-0.7,0.3-1.4,0.7-2,1.1C192.5,81.2,192.4,82.5,192.8,83.3z"/>
				<path class="st1" d="M197.9,79.1c0.2,0,0.6-0.2,0.6-0.4c0.1-0.2-0.3-0.5-0.5-0.6s-0.7,0.1-0.8,0.4
					C197.2,78.8,197.8,79.1,197.9,79.1z"/>
				<path class="st1" d="M207.6,78.3c0.5,0,1.4-0.8,1.2-1.4c-0.3-0.8-0.7-1.2-1.6-0.6C206.4,76.9,207.1,78.3,207.6,78.3z"/>
				<path class="st1" d="M202.4,83.4c0.4,0,0.7-0.9,0.4-1.3c-0.2-0.3-0.6-0.4-0.8-0.5c-0.8,0.3-1.1,0.9-0.8,1.2
					C201.5,83.2,202,83.4,202.4,83.4z"/>
				<path class="st1" d="M192.8,76.5c0.2,0.5,1.3,0.4,1.8-0.3c0.6-0.6-0.2-1.5-0.6-1.7C193.6,74.3,192.6,76,192.8,76.5z"/>
				<path class="st1" d="M214.5,89.2c0.6-0.2,0.5-1.1,0.7-1.6c-0.1-0.1-0.2-0.2-0.2-0.3c-0.6-0.3-0.8-0.2-1.2,0.1
					c-0.4,0.3-0.6,0.6-0.6,0.7C213.6,88.5,214,89.4,214.5,89.2z"/>
				<path class="st1" d="M213.3,90.1c0.3,0.1,0.6-0.3,0.6-0.5s0.1-0.6-0.2-0.7s-0.5,0.1-0.5,0.3C213.1,89.4,213,90,213.3,90.1z"/>
				<path class="st1" d="M215.2,77.3c0.1-0.1,0.2-0.5,0.2-0.7c-0.1-0.2-0.5-0.3-0.7-0.2c-0.2,0.1-0.6,0.4-0.3,0.8
					C214.6,77.6,215,77.4,215.2,77.3z"/>
				<path class="st1" d="M209.7,94.8c0.3,0.4,1.2,0.4,1.5,0.2c0.5-0.2,0.6-0.8,0.3-1.3s-0.8-0.5-1.1-0.2
					C210.1,93.7,209.4,94.4,209.7,94.8z"/>
				<path class="st1" d="M207.6,88.6c-0.6,0.2-0.9,1.4-0.5,2.2c0.3,0.8,1.1,1.1,1.8,0.8c0.8-0.4,1.4-1.5,1-2.2
					C209.5,88.7,208.3,88.2,207.6,88.6z"/>
				<path class="st1" d="M208.1,80c-0.2,0.1-0.8,0.4-0.6,0.9c0.1,0.5,0.9,0.3,1.1,0.2c0.2-0.1,0.6-0.4,0.4-0.8
					C208.8,80,208.3,80,208.1,80z"/>
				<path class="st1" d="M212.1,88.5c0.1-0.2,0.2-0.3,0.2-0.4s-0.3-0.2-0.3-0.2c-0.1,0.1-0.3,0.2-0.2,0.4
					C211.8,88.5,212,88.4,212.1,88.5z"/>
				<path class="st2" d="M305.5,322l-128,78l-128-78l128-78L305.5,322z"/>
				<path class="st1" d="M355,222.3L177.5,330.4L0,222.3l177.5-108.1L355,222.3z"/>
				<path class="st3" d="M106.6,287.2l70.9,43.2l70.8-43.2L177.5,244L106.6,287.2z"/>
				<path class="st4" d="M188.9,121.6c0.2,0,0.4-0.1,0.6-0.2l-1.9-1.1C187.5,120.9,188.1,121.5,188.9,121.6z"/>
				<path class="st4" d="M179.1,115.2c-0.8-0.3-1.2,0-1.6,0.6c-0.4,0.6-0.2,1.1,0.1,1.7c0.9,1.5,1.6,1.7,2.9,0.9
					c0.7-0.4,1.3-0.8,2-1.2l-3.2-1.9C179.2,115.3,179.1,115.2,179.1,115.2z"/>
				<path class="st4" d="M183.4,126.5c0.3-0.1,0.5-0.7,0.6-0.9c-0.3-0.7-0.8-0.7-1.2-0.6c-0.4,0.2-0.8,0.6-0.5,1
					C182.6,126.3,183.1,126.6,183.4,126.5z"/>
				<path class="st4" d="M183.1,121.5c0.2-0.1,0.2-0.6,0.2-0.7c-0.1-0.2-0.3-0.5-0.6-0.5c-0.1-0.2-0.2-0.5-0.4-0.8
					c-0.6,0-1-0.1-1.5-0.1c-0.8-0.1-1.6,0.5-1.8,1.3c-0.1,0.5,0.3,1.4,0.8,1.3c0.7,0,1.5,0.1,2.2-0.5c0.2-0.1,0.3-0.3,0.4-0.4
					C182.6,121.4,182.9,121.6,183.1,121.5z"/>
				<path class="st4" d="M184.3,122.8c-0.1,0.4,0.8,1.2,1.6,0.9c0.3-0.1,0.6-0.5,0.6-0.8c0.1-0.6-0.3-1.1-0.9-1.2
					C184.8,121.6,184.4,122.3,184.3,122.8z"/>
				<path class="st4" d="M198.6,128.3c0.6,0.2,1.4,0.2,1.8,0c0,0,0.1,0,0.1-0.1l-2.5-1.5c0,0.1-0.1,0.1-0.1,0.2
					c-0.1-0.1-0.3-0.2-0.5-0.2c-0.6-0.1-0.9,0.2-1.1,0.7c-0.2,0.6,0,1.1,0.5,1.4C197.5,129.2,198.4,128.7,198.6,128.3z"/>
				<path class="st4" d="M199.9,135.1c0.4-0.2,0.7-0.4,0.9-0.7c0.5,0,0.9-0.4,1-1c0-0.4-0.3-0.9-0.8-1.1v-0.1
					c-0.4-1-1.8-1.4-2.8-0.9c-0.8,0.4-1.1,1.9-0.7,3C197.8,135.3,198.9,135.6,199.9,135.1z"/>
				<path class="st4" d="M211.5,146.4c-0.5,0.1-0.6,0.6-0.4,1c0.2,0.4,0.4,0.8,1,0.6c0.5-0.2,0.8-0.8,0.5-1.5
					C212.3,146.5,211.9,146.3,211.5,146.4z"/>
				<path class="st4" d="M213.8,136.6c0.2,0.8,0.6,1.2,1.1,1c0.3-0.1,0.4-0.2,0.5-0.4l-1.7-1C213.7,136.4,213.7,136.5,213.8,136.6z"
					/>
				<path class="st4" d="M212.8,138.2c0.1-0.2,0.2-0.6,0.2-0.9c0-0.1,0-0.2,0.1-0.2c0.1-0.7-0.4-1.3-1.1-1.5
					c-1.1-0.4-1.9-0.1-2.4,0.5s0,1.8,0.8,2.5C210.9,139.1,212.4,138.9,212.8,138.2z"/>
				<path class="st4" d="M196.9,134c0.1-0.6-0.6-1.4-1.4-1.5c-1.1-0.1-1.6,0.2-1.8,1c-0.1,0.8,0.5,1.9,1.3,2
					C195.8,135.5,196.8,134.7,196.9,134z"/>
				<path class="st4" d="M184,119.8c0.5,0.7,1,1.3,1.8,0.9c0.4-0.2,0.7-0.6,0.6-1l-1.6-1C184.5,118.9,184.3,119.4,184,119.8z"/>
				<path class="st4" d="M232.1,147.5c-0.2,0.1-0.4,0.3-0.5,0.5c-0.4,0.6-0.5,1.4-0.3,2.1c-0.2,0.2-0.3,0.5-0.4,0.9
					c0.5,0.4,1,0.9,1.6,0.3c0.7,0.1,1.4-0.1,1.8-0.7c0.3-0.5,0.5-1,0.4-1.5L232.1,147.5C232.2,147.5,232.1,147.5,232.1,147.5z"/>
				<path class="st4" d="M164.8,135.3c0,0.7,0.2,1.2,0.9,1.2c0.2,0,0.7-0.3,0.7-0.5c0.1-0.3,0-0.8-0.2-1
					C165.7,134.5,165.3,134.9,164.8,135.3z"/>
				<path class="st4" d="M163.8,132c0.3-0.1,0.6-0.1,1-0.1c0.9,0.1,1.5-0.2,1.8-1s0-1.3-1.2-1.5c-0.5,0.1-1.4,0.3-2.2,0.6
					c-0.5,0.2-0.8,0.7-0.6,1.3C162.8,131.8,163.2,132.2,163.8,132z"/>
				<path class="st4" d="M164.1,127.4c0.1-0.6-0.7-1.6-1.4-1.6c-0.6,0-1.5,0.9-1.5,1.5c-0.1,0.6,0.3,1.1,1,1.1
					C163.4,128.6,164,128.3,164.1,127.4z"/>
				<path class="st4" d="M215.9,145.1c1.2-0.4,1.4-1.4,1.4-2.2c-0.1-0.8-0.8-2.1-2.2-1.7c-1.4,0.4-2,1.4-1.8,2.3v0.1
					c-0.4,0.1-0.7,0.4-0.8,0.8c-0.1,0.5,0.3,1,0.8,1.2c0.5,0.1,1.2-0.2,1.2-0.7C215,145.1,215.5,145.2,215.9,145.1z"/>
				<path class="st4" d="M226,151.8c0,0.2,0.2,0.8,0.6,0.8c0.2,0,0.5-0.3,0.6-0.6c0.3,0.1,0.6,0.1,0.9-0.1c0.7-0.6,1-1.1,0.7-1.5
					s-1.4-0.6-1.8-0.3c-0.3,0.2-0.4,0.7-0.3,1.2h-0.1C226.4,151.2,226,151.5,226,151.8z"/>
				<path class="st4" d="M194.3,138c0,0.2,0.4,0.6,0.7,0.7c0.4,0.1,0.8-0.1,0.7-0.6c-0.1-0.3-0.2-1.2-0.6-1.3
					C194.7,136.8,194.3,137.7,194.3,138z"/>
				<path class="st4" d="M201.7,129.7c0.1,0.2,0.3,0.4,0.5,0.5c0,0.1-0.1,0.2-0.1,0.3c0,0.5,0.5,1.1,1,1.2c0.6,0.1,1.2-0.4,1.2-0.9
					c0-0.1,0-0.1,0-0.2l-2.6-1.6C201.6,129.2,201.6,129.5,201.7,129.7z"/>
				<path class="st4" d="M203.7,132.7c-0.9,0.3-1.3,1.7-0.8,2.6c0.2,0.5,0.8,0.9,1.4,1.1c0.3,0.3,0.9,0.5,1.4,0.4
					c0.4-0.1,0.7-0.5,0.7-1c0.4-0.6,0.6-1.3,0.3-1.8C206.3,133.1,204.5,132.4,203.7,132.7z"/>
				<path class="st4" d="M215.4,152c0.3-0.1,0.4-0.3,0.3-0.5c-0.1-0.3-0.2-0.4-0.6-0.3c-0.3,0.1-0.4,0.3-0.3,0.6
					C214.9,152,215.1,152.1,215.4,152z"/>
				<path class="st4" d="M173.4,144.9c0.7,0.1,2.1-0.8,2.1-1.4c0-0.7-0.8-1.5-1.8-1.6c-0.9-0.1-1.4,0.5-1.5,1.5
					C172.2,144,172.8,144.8,173.4,144.9z"/>
				<path class="st4" d="M189.6,140.5c1,0.2,2.1-0.5,2.3-1.5c0.2-1.1-0.4-2.3-1.2-2.4c-1-0.2-2.6,0.8-2.7,1.7
					C187.9,139.3,188.6,140.3,189.6,140.5z"/>
				<path class="st4" d="M189.3,131c-0.2-0.2-0.7-0.2-0.9-0.1c-0.6,0.4-0.5,0.9-0.2,1.6c0.6,0.1,1.2,0.2,1.4-0.5
					C189.8,131.6,189.5,131.2,189.3,131z"/>
				<path class="st4" d="M190,128.1c0.1,0,0.1,0.1,0.2,0.1c0.9,0.4,1.9,0.6,2.7-0.1c0.5-0.4,0.7-1,0.7-1.6c0.2,0.2,0.5,0.3,0.8,0.2
					c0.6-0.3,0.3-1.1,0.3-1.6s-0.6-0.6-1.2-0.4c-0.1,0-0.2,0.1-0.3,0.2c-0.2-0.3-0.4-0.6-0.7-0.8c-0.4-0.4-0.4-0.6-0.4-1l-1.9-1.2
					c-0.2,0.2-0.2,0.4-0.2,0.8s0,0.9-0.1,1.2c-0.2,0.3-0.4,0.7-0.6,1c-0.6-0.4-1.4-0.2-2.4,0.6c-0.1-0.1-0.3-0.1-0.4-0.2
					c-0.5-0.3-0.9-0.2-1.3,0.2c-0.4,0.3-0.4,0.7-0.3,1.2c0.2,0.7,0.4,1,0.8,1.1c0,0.1,0,0.3,0,0.4c0.1,1.1,1,1.8,2.1,1.4
					C188.5,129.3,189.1,128.7,190,128.1z"/>
				<path class="st4" d="M183.1,131.1c-0.2,1.1,0.1,2,0.8,2.2c0.7,0.1,1.6-0.5,1.8-1.3c0.2-0.6-0.4-1.5-1.2-1.7
					C184.1,130.1,183.2,130.5,183.1,131.1z"/>
				<path class="st4" d="M190.7,148.9c1,0.1,1.7-0.4,1.8-1.4c0.1-0.9-0.6-1.7-1.6-1.8c-0.8-0.1-1.6,0.7-1.7,1.6
					C189,148.2,189.6,148.8,190.7,148.9z"/>
				<path class="st4" d="M192.6,136.2c0.8-0.4,1-1.2,0.6-2.1c-0.5-1-1.7-1.4-2.7-0.8c-0.8,0.4-1.1,1.6-0.7,2.4
					C190.3,136.5,191.6,136.7,192.6,136.2z"/>
				<path class="st4" d="M200.5,144.9c-0.2-0.5-0.7-1-1.2-1.2c-0.1-0.4-0.3-0.6-0.7-0.6s-1.4,0.3-1.4,0.7c0,0.2,0.2,0.4,0.4,0.6
					c-0.3,0.5-0.4,1-0.2,1.5c0.3,0.8,1.5,1.2,2.5,0.8C200.6,146.5,200.8,145.7,200.5,144.9z"/>
				<path class="st4" d="M202.3,140.1c0.6-0.5,0.4-1.1,0.2-1.8c-0.7-0.1-1.4-0.3-1.8,0.5c0,0.1,0,0.1-0.1,0.2c-0.6-0.3-1.5-0.3-2,0
					s-0.7,0.9-0.4,1.5c0.4,0.9,1.3,1.3,2,0.9c0.5-0.3,0.8-0.7,0.9-1.2C201.5,140.4,202,140.3,202.3,140.1z"/>
				<path class="st4" d="M194.1,141.8c-0.3-0.7-1.5-1.2-2.2-0.9s-1.1,1.3-0.8,2.1s0.9,0.9,1.9,0.5
					C193.8,143.2,194.3,142.3,194.1,141.8z"/>
				<path class="st4" d="M229.8,146l-3.4-2.1c-0.4,0.6-0.5,1.4-0.2,2.1c0.4,0.8,1.8,1.4,2.6,1C229.3,146.9,229.6,146.5,229.8,146z"
					/>
				<path class="st4" d="M200.6,150.2c0.1-0.1-0.1-0.5-0.3-0.5s-0.7-0.1-0.8,0.3s0.3,0.6,0.4,0.6
					C200.2,150.5,200.4,150.4,200.6,150.2z"/>
				<path class="st4" d="M175.9,116.4c-0.1,0-0.3,0.5-0.2,0.5c0.1,0.2,0.4,0.4,0.6,0.3c0.2,0,0.6-0.3,0.5-0.7
					C176.6,116.2,176.1,116.4,175.9,116.4z"/>
				<path class="st4" d="M173.1,120.7c0.3,0.2,0.5,0.6,0.8,0.6c0.4,0,1-0.1,1.3-0.4c0.4-0.4,0.2-0.9-0.2-1.3
					c-0.3-0.3-0.6-0.6-0.8-0.9c-0.7-0.7-3.2-0.5-3.6,0.4c0,0.1-0.1,0.2-0.1,0.3c0.3,0.9-0.4,1.3-0.8,1.8c-0.6,0.7-0.4,1.3,0.3,1.8
					c0.1,0,0.1,0.1,0.2,0.1c-0.1,0.1-0.2,0.3-0.2,0.5c-0.1,0.4,0.1,0.8,0.1,1.2H170c0.5,0.1,1,0.2,1.6,0.2c0.2-0.4,0.3-0.6,0.4-1
					s0-0.8-0.3-1.1c0.3-0.2,0.5-0.5,0.6-1C172.4,121.5,172.3,121,173.1,120.7z"/>
				<path class="st4" d="M240.3,154.4c0.2-0.2,0.4-0.6,0.4-1c-0.1-0.6-0.5-0.8-1.7-0.8c-0.2,0.6-0.7,1.1-0.1,1.8
					C239.3,154.7,239.8,154.8,240.3,154.4z"/>
				<path class="st4" d="M241.8,153.3l-1.3-0.8v0.1C240.8,153.2,241.3,153.5,241.8,153.3z"/>
				<path class="st4" d="M173.6,135.8c-0.4,0.3-0.6,0.6-0.4,1.1c0.3,0.8,0.9,0.8,1.7,0.8c0.3-0.7,0.8-1.2,0.2-1.8
					C174.6,135.5,174.1,135.5,173.6,135.8z"/>
				<path class="st4" d="M203.7,144.7c-0.5-0.2-1.1,0.1-1.3,0.6c-0.1,0.3,0,0.9,0.2,1.1c0.6,0.5,1.2,0.3,1.8-0.2
					C204.4,145.6,204.4,144.9,203.7,144.7z"/>
				<path class="st4" d="M177,125.1c0.7,0.1,1.4-0.6,1.6-1.6c0.1-0.9-0.2-1.3-1.3-1.5c-0.8-0.1-1.5,0.4-1.5,1.1
					C175.6,123.7,176.5,125,177,125.1z"/>
				<path class="st4" d="M178.5,145c0.7,0.1,1.3-0.3,1.4-0.9c0.1-0.6-0.4-1.2-0.9-1.3c-0.6-0.1-1.2,0.5-1.3,1.1
					C177.6,144.4,177.9,144.9,178.5,145z"/>
				<path class="st4" d="M176.1,140.3c0-0.3-0.5-0.7-0.7-0.7c-0.3,0-1,0.3-1,0.7c0,0.3,0.7,0.9,0.9,0.8
					C175.6,140.9,176.2,140.6,176.1,140.3z"/>
				<path class="st4" d="M162.7,136.5c0.2-0.3,0.3-1,0.1-1.3c-0.2-0.5-0.6-0.3-0.8-0.2c-0.3,0.2-0.3,0.5-0.3,0.9
					c0,0.3-0.1,0.6,0.1,0.9C162,137.1,162.5,137,162.7,136.5z"/>
				<path class="st4" d="M177.4,136.4c0.9,0.1,1.7-0.3,1.7-1.1c0-0.5-0.9-1.5-1.4-1.6c-0.6-0.1-1,0.3-1.1,1.2
					C176.5,135.9,176.7,136.4,177.4,136.4z"/>
				<path class="st4" d="M293.3,194.3c-0.5-0.8-1.3-0.9-2.1-0.4s-1.1,1.4-0.7,1.9c0.5,0.7,1.8,1,2.6,0.5
					C293.6,196.1,293.7,195,293.3,194.3z"/>
				<path class="st4" d="M301.6,190.4c-0.1-0.5-1.3-0.9-1.7-0.4c-0.3,0.4-0.2,1.1,0.1,1.3C300.6,191.6,301.7,190.8,301.6,190.4z"/>
				<path class="st4" d="M302.4,195.6c0-0.2,0-0.5,0-0.6c-0.4-1.2-1.5-1.5-2.4-0.7c-0.5,0.5-1,1.2-1.4,1.8c-0.4,0.7,0,1.9,0.7,2.4
					c0.4,0.3,1.5,0.6,1.9-0.4C300.9,196.6,302.1,196.9,302.4,195.6z"/>
				<path class="st4" d="M297.9,205.7c-0.5,0.3-0.7,1-0.3,1.6c0.3,0.6,1,0.7,1.6,0.3c0.5-0.3,0.6-1,0.3-1.5
					C299.1,205.5,298.4,205.3,297.9,205.7z"/>
				<path class="st4" d="M291.7,205c-0.3,0.1-0.7,0.4-0.8,0.6c-0.1,0.7,0.7,1.1,1,1.1c0.4,0,0.9-0.8,0.5-1.4
					C292.4,205.1,291.9,204.9,291.7,205z"/>
				<path class="st4" d="M247.7,179.4c-0.1,0.1-0.3,0.7-0.1,0.8c0.2,0.2,0.7-0.1,0.8-0.3c0.1-0.1,0.1-0.5-0.1-0.6
					C248.2,179.3,247.8,179.3,247.7,179.4z"/>
				<path class="st4" d="M272.8,179.7c-0.2,0.2-0.4,1-0.1,1.2s1-0.1,1.2-0.3c0.4-0.3,0.2-1.1-0.2-1.2
					C273.4,179.3,273,179.4,272.8,179.7z"/>
				<path class="st4" d="M249.7,171c0.7-0.2,1.2-0.6,1.3-1.3c0.1-0.5-0.9-1.6-1.5-1.7s-1.2-0.2-1.6,0.6c-0.2,0.6-0.5,1.1-0.8,1.7
					c-0.5,0.5-0.5,1.1,0,1.5s1.1,0.4,1.7-0.1C249,171.4,249.3,171.1,249.7,171z"/>
				<path class="st4" d="M310.6,195.8c-0.5,0.3-0.6,0.9-0.2,1.4c0.3,0.5,1,0.6,1.5,0.3c0.3-0.2,0.5-0.7,0.4-1.2l-1.2-0.7
					C311,195.6,310.8,195.7,310.6,195.8z"/>
				<path class="st4" d="M253.2,173.4c-0.4-0.1-1.2-0.4-1.5,0c-0.3,0.5,0.2,1,0.4,1.3c0.3,0.3,0.7,0.5,1.1,0
					C253.6,174.4,253.7,173.6,253.2,173.4z"/>
				<path class="st4" d="M252.3,183.4c-0.1,0.4-0.3,1.4,0,1.7s1.2-0.4,1.2-0.6c0-0.5,0.2-1.1-0.2-1.4
					C252.8,182.7,252.3,183.2,252.3,183.4z"/>
				<path class="st4" d="M314.1,203.6c-0.5-0.7-1.8-1-2.6-0.5c-0.5,0.3-0.6,1.2-0.2,1.8c0.6,0.8,1.4,1,2.1,0.6
					C314.1,205,314.5,204.1,314.1,203.6z"/>
				<path class="st4" d="M324.4,207.6c0.5-0.3,0.5-1.5,0.1-2.3c-0.3-0.5-1.2-0.6-1.7-0.3c-0.6,0.5-0.9,1.4-0.6,1.9
					C322.7,207.5,323.9,207.9,324.4,207.6z"/>
				<path class="st4" d="M326.1,224.6c0.8,0.1,0.7-0.7,1-0.9c0.7-0.7,0.8-2.1,0.1-2.5c-0.6-0.4-1.3-0.3-1.9,0.1
					c-0.6,0.4-0.7,1.1-0.4,1.7C325.1,223.3,325.3,224.5,326.1,224.6z"/>
				<path class="st4" d="M320.4,217.6c-0.3,0.2-0.2,0.7-0.1,0.9s0.5,0.3,0.7,0.2c0.1-0.1,0.3-0.5,0.2-0.6
					C321,217.9,320.6,217.4,320.4,217.6z"/>
				<path class="st4" d="M321.9,212.4c0.4-0.4,0.5-0.9,0.2-1.4c-0.2-0.4-0.6-0.6-1-0.5c-0.8,0.2-0.9,0.8-1,1.6
					C320.8,212.4,321.3,212.9,321.9,212.4z"/>
				<path class="st4" d="M347.1,223.8c-1.1-0.3-2.3,0.5-2.5,1.6c-0.2,0.8,0.6,2,1.5,2.2c0.1,0,0.1,0,0.2,0l1.7-1
					c0.1-0.2,0.2-0.5,0.3-0.7C348.5,224.8,348,224,347.1,223.8z"/>
				<path class="st4" d="M327.8,212.9c-0.3-0.5-1.4-0.7-1.8-0.5s-0.5,0.8-0.3,1.3c-0.2,0.1-0.3,0.3-0.3,0.4c0,0.2,0.1,0.5,0.3,0.6
					c0.1,0.1,0.5-0.1,0.5-0.2c0-0.1,0-0.1,0-0.2c0.3,0.1,0.7,0.1,1.1-0.1C327.9,213.8,328.1,213.2,327.8,212.9z"/>
				<path class="st4" d="M315.8,198.8c-0.6,0.4-0.8,1.7-0.4,2.3c0.3,0.5,1.5,0.7,2.1,0.4c0.5-0.3,0.8-1.2,0.5-1.6l-0.1-0.1l-1.8-1.1
					C316,198.7,315.9,198.7,315.8,198.8z"/>
				<path class="st4" d="M247.2,166.5c0.5-0.2,0.7-1.1,0.3-2c-0.2-0.1-0.6-0.3-0.9-0.2c-0.7,0.2-1.1,1-0.9,1.6
					C245.9,166.3,246.7,166.7,247.2,166.5z"/>
				<path class="st4" d="M311.6,216.7c-0.3,0.1-1,1.2-0.7,1.7s1.6,0.1,2-0.1c0.3-0.2,0.6-0.9,0.3-1.4
					C313,216.4,312.1,216.5,311.6,216.7z"/>
				<path class="st4" d="M327.3,216.3c0.1-0.1,0.2-0.2,0.1-0.4c-0.1-0.1-0.3-0.2-0.4-0.1c-0.2,0.1-0.1,0.4-0.1,0.4
					S327.2,216.4,327.3,216.3z"/>
				<path class="st4" d="M186.4,145.2c0.4-0.1,0.6-0.6,0.7-1.1c0.2-0.2,0.3-0.4,0.3-0.6c0.1-0.7-0.1-1.2-0.7-1.4
					c-0.5-0.1-1.2,0.2-1.6,0.6c-0.5,0.4-0.7,1-0.6,1.5C184.8,144.9,185.7,145.4,186.4,145.2z"/>
				<path class="st4" d="M179.9,153.7c0,0.2,0.1,0.6,0.4,0.6s0.5-0.2,0.6-0.4s-0.1-0.8-0.3-0.8C180.2,153,179.9,153.5,179.9,153.7z"
					/>
				<path class="st4" d="M182.1,130.5c0.3,0,0.6-0.2,0.9-0.3c0.3-0.1,0.6-0.3,0.9-0.5c0.9-0.6,1.2-1.2,0.9-2
					c-0.4-0.9-1.2-1.2-2.2-0.9c-1,0.3-2,0.7-3.1,0.9c-0.9,0.1-1.8,0.9-1.7,1.5s1.1,0.9,1.3,0.8c0.7-0.3,1,0.2,1.5,0.4
					C181.1,130.5,181.6,130.5,182.1,130.5z"/>
				<path class="st4" d="M182,146.1c0,0.1,0.2,0.3,0.3,0.3s0.3-0.1,0.3-0.2c0-0.1-0.1-0.4-0.3-0.4S182,146,182,146.1z"/>
				<path class="st4" d="M164.9,144.9c-0.1-0.1-0.6-0.1-0.8,0.3c-0.1,0.4,0.4,0.5,0.6,0.6c0.1,0,0.5-0.2,0.5-0.3
					C165.2,145.3,165.1,145,164.9,144.9z"/>
				<path class="st4" d="M185,160.2c-0.1,0.1,0.1,0.6,0.4,0.7s0.5-0.4,0.5-0.6c0-0.1-0.2-0.5-0.4-0.5S185.1,160,185,160.2z"/>
				<path class="st4" d="M246.4,162.1c0.2,0,0.5,0,0.6,0c0.4-0.6,0.1-1.3-0.3-1.5c-0.4-0.2-0.6-0.1-0.8,0.2c-0.2,0-0.5,0.1-0.6,0.1
					c-0.5,0.2-0.4,0.7-0.2,1.1c0.2,0.5,0.8,0.7,1.2,0.4C246.3,162.3,246.4,162.2,246.4,162.1z"/>
				<path class="st4" d="M173.3,133.8c1,0.4,2.2,0.2,2.3-0.8s-0.4-1.6-0.9-2.4c-0.4-0.6-1.2-0.3-1-1.1s0.5-2.5-1-2.7
					c-0.7-0.1-1.6,0.5-1.9,1.2c-0.3-0.5-0.9-0.9-1.6-1c-0.9-0.1-2,0.9-2,1.8c-0.1,0.9,0.6,1.8,1.4,1.9c0.8,0.1,1.8-0.7,2.2-1.4
					c0.1,0.3,0.3,0.6,0.5,0.7c0.6,0.3-0.4,1.4,0.3,1.8C172.5,132.3,172.4,133.4,173.3,133.8z"/>
				<path class="st4" d="M167.5,140.7c0.2-1-0.6-2-1.9-2.2c-1.1-0.2-2,0.4-2.2,1.5s0.7,2.3,1.7,2.4
					C166.1,142.5,167.3,141.7,167.5,140.7z"/>
				<path class="st4" d="M170.8,133.4c-0.8-0.8-1.6-0.9-2.4-0.6s-0.8,1.6-0.3,2.6c0.3,0.7,1.8,1.2,2.4,0.7
					C171.2,135.7,171.6,134.2,170.8,133.4z"/>
				<path class="st4" d="M171.1,156.1c0.4,0.2,0.8-0.1,1-0.7c0.1-0.6-0.2-0.9-0.7-0.9c-0.4,0-1.2,0.2-1.3,0.5
					C170.1,155.4,170.8,156,171.1,156.1z"/>
				<path class="st4" d="M185,137.4c0.6,0.4,1.2,0.8,1.8,0.1c0.4-0.5,0.4-1,0.1-1.4c-0.1-0.2-0.4-0.4-0.6-0.3
					c-0.5,0.1-1,0.3-1.6,0.5c-0.1-0.1-0.2-0.1-0.3-0.2c0.7-0.2,0.8-0.8,0.7-1.6c-0.6-0.3-1.2-0.7-1.8-0.2c-0.4,0.4-0.5,0.9-0.1,1.3
					c0,0,0,0,0.1,0.1c-0.5-0.1-1,0.1-1.2,0.4c-0.4,0.7-0.1,2.1,0.6,2.6C183.4,139.2,183.9,138.9,185,137.4z"/>
				<path class="st4" d="M234.6,161.7c0.8-0.3,1.2-1.7,0.7-2.8c-0.4-0.8-1.2-1.1-2-0.7c-0.9,0.4-1.3,1.1-1.1,2
					c-0.2-0.4-0.4-0.8-0.8-1c-0.8-0.5-2.3-0.3-2.8,0.5c-0.6,1-0.5,2.3,0.3,2.8s2.6,0.2,3.2-0.5c0.3-0.4,0.4-0.9,0.2-1.4v0.1
					C232.7,161.5,233.7,162,234.6,161.7z"/>
				<path class="st4" d="M218.9,153.3c-0.2,0.2,0,0.6,0.1,0.8c0.2,0.1,0.6,0.2,0.8-0.1c0.2-0.2,0.1-0.5,0-0.7
					C219.6,153.1,219.1,153.1,218.9,153.3z"/>
				<path class="st4" d="M249,161.6c0.2-0.2,0.3-0.6,0.3-0.8c-0.4-0.7-1-0.9-1.3-0.5c-0.2,0.2-0.4,0.7-0.3,1
					C247.8,161.8,248.7,162,249,161.6z"/>
				<path class="st4" d="M244.5,155.5c-0.1-0.2-0.1-0.3-0.2-0.4c-0.6-0.5-1.5-0.3-2.1,0.4c-0.4,0.5-0.2,1.4,0.6,1.9
					c0.6,0.5,1.3,0.4,1.6-0.1c0.1-0.1,0.1-0.2,0.1-0.3c0.5,0.7,1.2,1.1,1.8,0.8c0.4-0.2,0.7-0.8,0.7-1.3l-2.2-1.3
					C244.6,155.2,244.5,155.3,244.5,155.5z"/>
				<path class="st4" d="M194.2,156.6c-0.2,0.5,0.4,1.4,1.2,1.1c0.8-0.4,0.4-1.5-0.1-1.7C194.9,155.8,194.3,156.1,194.2,156.6z"/>
				<path class="st4" d="M217.7,138.9c0.2,0.4,0.2,0.9,0.8,1.2c0.4,0.1,0.8,0,1.1-0.3l-2-1.2C217.6,138.7,217.6,138.8,217.7,138.9z"
					/>
				<path class="st4" d="M197.2,154.1c-0.4,0.3-0.6,0.6-0.4,1.1c0.3,0.8,0.9,0.8,1.7,0.8c0.3-0.7,0.8-1.2,0.2-1.8
					C198.2,153.8,197.7,153.7,197.2,154.1z"/>
				<path class="st4" d="M199.8,151.1c0-0.3-0.2-0.7-0.4-0.9c-0.9-0.7-1.9-0.7-2.8,0.1c-0.2,0.2-0.3,0.3-0.5,0.5
					c-0.3-0.3-0.6-0.7-0.9-1c-0.6-0.5-1-0.5-1.6,0s-0.8,1.1-0.5,1.8c0.2,0.7,0.8,0.9,1.4,1c0.5,0,0.9-0.1,1.4-0.2
					c0.2,0.2,0.3,0.3,0.5,0.5c0.7,0.6,1.8,0.8,2.4,0.3C199.5,152.8,199.8,152,199.8,151.1z"/>
				<path class="st4" d="M202.6,158.2c-0.2,0.1-0.5,0.3-0.4,0.6s0.4,0.3,0.5,0.2c0.2-0.1,0.7-0.4,0.5-0.7
					C203.2,158.1,202.7,158.2,202.6,158.2z"/>
				<path class="st4" d="M203.1,153.1c-0.4-0.2-1,0.2-1.2,0.6c-0.2,0.5,0.1,0.8,1.2,1.1C204,154.4,203.6,153.3,203.1,153.1z"/>
				<path class="st4" d="M222.5,166.1c0.7-0.4,0.9-1,0.5-1.9c-0.4-0.7-1-0.9-1.9-0.4c-0.6,0.3-0.9,0.9-0.7,1.4
					S221.9,166.4,222.5,166.1z"/>
				<path class="st4" d="M316.8,208c0.6-0.4,0.8-1,0.5-1.6c-0.3-0.5-1.1-0.7-1.5-0.4c-0.5,0.3-0.7,1.2-0.3,1.7
					C315.8,208.1,316.3,208.3,316.8,208z"/>
				<path class="st4" d="M315.8,212c0.4-0.2,0.6-0.6,0.3-1s-0.6-0.7-1.2-0.4c-0.4,0.2-0.5,1.4-0.2,1.6
					C315,212.3,315.5,212.1,315.8,212z"/>
				<path class="st4" d="M310.2,201c0.7-0.4,0.9-1.3,0.3-2.1c-0.4-0.7-1.2-0.7-2-0.2c-0.7,0.4-0.9,1-0.6,1.6
					C308.2,200.8,309.6,201.3,310.2,201z"/>
				<path class="st4" d="M306.3,200.1c0.4-0.1,0.7-0.9,0.3-1.2c-0.2-0.2-0.7-0.2-1-0.1c-0.2,0.1-0.7,0.7-0.6,1.1
					C305.2,200.2,306,200.2,306.3,200.1z"/>
				<path class="st4" d="M307.4,213.1c0.4-0.3,0.6-1.1,0.3-1.5c-0.3-0.5-0.9-0.6-1.4-0.4c-0.6,0.3-0.8,1.1-0.5,1.6
					C306.1,213.2,306.9,213.4,307.4,213.1z"/>
				<path class="st4" d="M308.5,207.1c0.5-0.2,0.7-0.9,0.5-1.3c-0.3-0.5-0.9-0.7-1.5-0.5c-0.6,0.3-0.7,0.7-0.4,1.3
					C307.4,207.2,307.9,207.4,308.5,207.1z"/>
				<path class="st4" d="M157.5,136.2c0-0.5-0.3-0.6-0.7-0.7c-0.5-0.1-1,0.3-0.9,0.8c0.1,0.4,0.1,0.8,0.4,0.9
					C156.6,137.3,157.5,136.7,157.5,136.2z"/>
				<path class="st4" d="M158.5,128.7c1.1-0.7,1.4-1.1,1.1-1.7c-0.2-0.5-0.5-0.7-1.1-0.7s-1.2,0.4-1.2,1
					C157.3,128,158,128.3,158.5,128.7z"/>
				<path class="st4" d="M159.1,143.1c-0.4-0.1-0.8,0.5-0.9,1.1c-0.1,0.5,0.1,0.7,0.6,0.8c0.5,0,1-0.1,1.1-0.7
					C160,143.8,159.6,143.1,159.1,143.1z"/>
				<path class="st4" d="M156.1,130c0.1-0.2,0.1-0.8-0.1-1c-0.3-0.2-0.9-0.5-1.2-0.4c-0.8,0.2-0.5,1-0.5,1.6
					C155.1,130.6,155.7,130.7,156.1,130z"/>
				<path class="st4" d="M155,151.1c0.6,0.1,1.2-0.3,1.3-0.9c0.1-0.5-0.3-1.1-0.8-1.2c-0.6-0.1-1.1,0.3-1.2,0.9
					C154.1,150.6,154.3,151,155,151.1z"/>
				<path class="st4" d="M283.2,189.4c0.1,0,0.3-0.4,0.2-0.5c-0.1-0.2-0.5-0.3-0.7-0.3s-0.5,0.5-0.4,0.8
					C282.5,189.6,283,189.5,283.2,189.4z"/>
				<path class="st4" d="M287.9,181.7c0.1,0,0.3,0,0.4,0l-2.7-1.6c-0.5,0.3-0.7,0.7-0.4,1.2c0.1,0.2,0.3,0.4,0.5,0.5
					c-0.3,0-0.6,0.2-0.8,0.4c-0.3,0.5-0.1,1.3,0.4,1.6s1,0.2,1.4-0.3c0.4-0.6,0.3-1.3-0.2-1.6c0.1,0,0.2,0,0.3-0.1
					C287.2,181.8,287.6,181.6,287.9,181.7z"/>
				<path class="st4" d="M285.4,193.7c-0.1,0.1-0.2,0.3-0.2,0.6c-0.3,0.4-0.7,1-0.5,1.3c0.2,0.4,1.3,0.1,1.3-0.1v-0.1
					c0.4-0.2,0.9-0.6,1.1-0.8c0.2-0.3,0.2-1.1-0.2-1.4C286.5,192.9,285.7,193.3,285.4,193.7z"/>
				<path class="st4" d="M287.2,186.6c-0.4-0.2-0.9-0.4-1.3,0.1c-0.3,0.4,0.1,1.5,0.4,1.5c0.4,0.1,0.7-0.2,1-0.5
					C287.7,187.3,287.7,186.8,287.2,186.6z"/>
				<path class="st4" d="M276.1,174.9c-0.3,0.5-0.2,1,0.3,1.3s1.2,0.1,1.5-0.3c0.1-0.1,0.1-0.3,0.1-0.4l-1.6-1
					C276.4,174.6,276.2,174.7,276.1,174.9z"/>
				<path class="st4" d="M289.7,186.6c0.5-0.2,0.8-0.9,0.5-1.3c-0.3-0.3-1-0.9-1.4-0.6c-0.4,0.3-0.2,1-0.1,1.3
					C288.9,186.5,289.2,186.8,289.7,186.6z"/>
				<path class="st4" d="M293.7,189c-0.3-0.5-1-0.7-1.5-0.5c-0.5,0.3-0.7,0.9-0.4,1.5s0.9,0.8,1.4,0.5
					C293.8,190.1,294,189.5,293.7,189z"/>
				<path class="st4" d="M306.5,193.6c0.2-0.1,0.4-0.3,0.5-0.5l-2.6-1.6c-0.4,0.5-0.5,1.2-0.2,1.6
					C304.5,193.7,305.9,194,306.5,193.6z"/>
				<path class="st4" d="M295.4,186l-1.9-1.2c-0.2,0.4-0.2,0.9,0.1,1.2c0.3,0.5,0.9,0.6,1.5,0.2C295.2,186.2,295.3,186.1,295.4,186z
					"/>
				<path class="st4" d="M294.9,199.7c0.1-0.1,0.2-0.2,0.1-0.4s-0.3-0.2-0.4-0.1c-0.2,0.1-0.1,0.4-0.1,0.4
					C294.5,199.7,294.8,199.7,294.9,199.7z"/>
				<path class="st4" d="M294.7,191.7c0.1-0.1,0.1-0.6-0.1-0.7c-0.2-0.1-0.7-0.3-0.9-0.1c-0.2,0.3,0.1,0.7,0.2,0.8
					C294.2,192,294.6,191.9,294.7,191.7z"/>
				<path class="st4" d="M163.9,124.2c-0.1,0.8,0.3,1.6,0.8,1.8c0.5,0.2,1.8-0.3,2.1-0.9c0.2-0.5,0.6-1,0.1-1.4
					c-0.7-0.5-0.8-1.2-0.9-2c0-0.2-0.1-0.3-0.1-0.4l-1.8,1.1C164.3,123.1,164.2,123.7,163.9,124.2z"/>
				<path class="st4" d="M337.5,228.4c0.7,0.2,1.5-0.4,1.7-1.2s-0.1-1.3-0.7-1.4c-0.9-0.3-2.1,0.3-2.3,1
					C336,227.4,336.7,228.3,337.5,228.4z"/>
				<path class="st4" d="M337.8,217.6c0.5-0.3,0.7-0.9,0.4-1.5c-0.3-0.4-0.9-0.7-1.4-0.4s-0.7,0.9-0.4,1.5
					C336.7,217.7,337.2,217.9,337.8,217.6z"/>
				<path class="st4" d="M331.5,218.8c-0.2,0.5,0.2,1.1,0.7,1.2c0.6,0.2,1.3-0.2,1.4-0.7s-0.2-1.1-0.7-1.3
					C332.4,218,331.7,218.4,331.5,218.8z"/>
				<path class="st4" d="M329.6,229.1c0.6,0.1,1-0.1,1.3-0.7c0.2-0.5-0.1-1.1-0.6-1.2s-1.1,0.2-1.3,0.7S329.1,229.1,329.6,229.1z"/>
				<path class="st4" d="M332.3,212c-0.4-0.1-0.9,0.7-1.1,1.1c-0.2,0.4,0.3,0.9,0.8,1s0.9-0.1,0.9-0.6
					C332.9,213.1,332.7,212.1,332.3,212z"/>
				<path class="st4" d="M339.7,221.9c0.6,0,1-0.3,1.1-0.9c0.1-0.9-0.8-1.6-1.2-1.6s-1.3,0.8-1.1,1.6
					C338.6,221.6,339,222,339.7,221.9z"/>
				<path class="st4" d="M349.8,220.2c-0.8-0.2-1.5,0.1-1.6,0.7c-0.1,0.6,0.6,2,1.1,2.2c0.8,0.2,1.6-0.3,1.9-1.3
					C351.3,221,350.8,220.4,349.8,220.2z"/>
				<path class="st4" d="M329.1,206.9c0.2,0,0.4,0,0.6,0l-1.9-1.1C328,206.4,328.4,206.8,329.1,206.9z"/>
				<path class="st4" d="M342.7,215.5c-0.5-0.3-1.2,0.3-1.3,0.9c-0.1,0.5,0.3,1,0.9,1.1c0.5,0.1,1.2-0.4,1.3-1.2
					C343.3,216.2,343.1,215.7,342.7,215.5z"/>
				<path class="st4" d="M344.4,218c-0.1-0.3-0.9-0.3-1.1-0.2c-0.2,0.2-0.5,0.7-0.4,0.9s0.7,0.4,0.9,0.3c0,0,0.1-0.1,0.2-0.1
					c0,0.1-0.1,0.1-0.1,0.2c-0.1,0.6,0.2,1.2,0.8,1.3s1.3-0.3,1.3-0.9c0.1-0.6-0.3-1.2-0.9-1.3c-0.3-0.1-0.6,0.1-0.9,0.3
					C344.4,218.3,344.5,218.1,344.4,218z"/>
				<path class="st4" d="M148.4,145.8c0,0.2,0.4,0.5,0.6,0.6c0.1,0,0.5-0.2,0.5-0.3c0-0.2-0.2-0.5-0.3-0.6
					C149,145.4,148.4,145.6,148.4,145.8z"/>
				<path class="st4" d="M159.1,154.9c-0.3,0-0.8,0.2-0.9,0.4s0.3,0.7,0.5,0.8s1-0.1,1.1-0.4C159.9,155.4,159.3,154.9,159.1,154.9z"
					/>
				<path class="st4" d="M152,142.1c0.3,0,0.6-0.2,0.6-0.4c0.1-0.2-0.1-0.8-0.3-0.8c-0.3,0-0.5,0.4-0.6,0.5
					C151.7,141.6,151.7,142.1,152,142.1z"/>
				<path class="st4" d="M151.1,134.9c0.6,0.1,1.4-0.9,1.5-1.7c0.1-0.6-0.5-1.2-1.1-1.3c-0.8,0-1.6,0.5-1.6,1.1
					C149.7,133.8,150.4,134.8,151.1,134.9z"/>
				<path class="st4" d="M150.3,141.2c0-0.6-0.6-1.4-1.1-1.5s-1.1,0.4-1.1,1c-0.1,0.6,0.4,1,1,1.1
					C149.8,141.9,150.3,141.7,150.3,141.2z"/>
				<path class="st4" d="M160.7,138.8c0.2-0.5-0.2-1.1-0.7-1.1s-0.9,0.2-1.1,0.7c-0.1,0.4,0.6,1.3,1,1.2
					C160.4,139.4,160.6,139.1,160.7,138.8z"/>
				<path class="st4" d="M147.4,143.2c0,0.1,0.2,0.3,0.3,0.3s0.3-0.1,0.3-0.2s-0.1-0.4-0.3-0.4S147.4,143.1,147.4,143.2z"/>
				<path class="st4" d="M329.1,211.4c-0.2,0.2-0.2,0.6-0.1,0.8s0.5,0.5,0.7,0.4c0.2-0.2,0.3-0.5,0.2-0.7
					C329.9,211.6,329.4,211.2,329.1,211.4z"/>
				<path class="st4" d="M329.3,217.6c0.1,0.2,0.7,0.1,0.9,0.1c0.1,0,0.2-0.5,0.2-0.5c-0.2-0.2-0.5-0.3-0.7-0.3
					S329.2,217.5,329.3,217.6z"/>
				<path class="st4" d="M178.6,148.2c0-0.5-0.2-0.9-0.7-0.9c-0.4,0-1.3,0.3-1.4,0.7s0.9,0.8,1.3,0.9
					C178.2,149,178.6,148.7,178.6,148.2z"/>
				<path class="st4" d="M141.3,141.2c0.2,0,0.5-0.2,0.6-0.4c0-0.2,0-0.8-0.3-0.8s-0.6,0.4-0.6,0.6
					C140.9,140.9,141.1,141.2,141.3,141.2z"/>
				<path class="st4" d="M263.5,167c-0.2,0.8,0.6,2.1,1.7,2.2c0.7,0,1.2-0.2,1.6-0.5c0.1,0.1,0.1,0.1,0.2,0.2
					c0.3,0.2,0.6,0.3,0.9,0.4l-4.2-2.6C263.5,166.7,263.5,166.8,263.5,167z"/>
				<path class="st4" d="M229.2,175.3c0.4-0.2,0.7-1.2,0.3-1.6c-0.4-0.4-1.3-0.5-1.6,0.2c-0.1,0.3,0.4,0.8,0.7,1.3
					C228.6,175.2,228.8,175.5,229.2,175.3z"/>
				<path class="st4" d="M227.6,162.7c0.1-0.3,0-0.8-0.1-1s-0.6-0.3-0.9-0.2c-0.5,0.1-1.1,0.4-1.6,0.6c-0.4,0.2-0.5,0.5-0.2,1
					c0.1,0,0.3,0.2,0.5,0.1c0.5-0.2,1-0.1,1.5,0.1C227,163.4,227.5,163,227.6,162.7z"/>
				<path class="st4" d="M228.7,158.3c0.5-0.1,1.1-1.1,1-1.6c-0.1-0.4-1-0.9-1.5-0.8c-0.5,0.1-0.7,0.6-0.6,1.1
					C227.8,157.9,228.3,158.4,228.7,158.3z"/>
				<path class="st4" d="M224.7,154.3c-0.3-0.6-1.6-0.9-2.2-0.5c-0.5,0.3-0.7,1.5-0.4,2s1.1,0.7,1.5,0.5
					C224.6,155.6,225.1,154.9,224.7,154.3z"/>
				<path class="st4" d="M223.5,171.1c0.4-0.2,0.6-0.6,0.4-1.1c-0.2-0.5-0.6-0.8-1.1-0.6s-0.8,0.8-0.5,1.3S223.1,171.3,223.5,171.1z
					"/>
				<path class="st4" d="M226,167.9c0.5-0.3,0.7-0.9,0.4-1.5c-0.3-0.5-1-0.8-1.4-0.6c-0.5,0.2-0.9,1.2-0.7,1.6
					C224.5,167.9,225.5,168.2,226,167.9z"/>
				<path class="st4" d="M237.6,172.2c0.2-0.2-0.2-0.6-0.3-0.8c-0.1-0.1-0.5-0.1-0.6,0.1c-0.1,0.2,0,0.5,0.2,0.7
					C237,172.3,237.4,172.4,237.6,172.2z"/>
				<path class="st4" d="M240.1,159.1c0.9-0.4,1.4-1.4,1-2.3c-0.4-1-1.8-1.7-2.9-1.3c-0.9,0.4-1.5,1.9-1.1,2.8
					C237.5,159.3,238.7,159.6,240.1,159.1z"/>
				<path class="st4" d="M236.7,152.7c0.6-0.3,0.8-0.9,0.5-1.4s-0.9-0.6-1.4-0.3s-0.7,1-0.4,1.5C235.8,153,236.2,153,236.7,152.7z"
					/>
				<path class="st4" d="M230.1,166.5c0.7-0.3,1.2-1.2,1-1.7c-0.3-0.6-1.3-1.1-1.8-0.9c-0.6,0.3-0.8,1.3-0.4,2.1
					C229.2,166.6,229.6,166.7,230.1,166.5z"/>
				<path class="st4" d="M215.7,159.9c0.4-0.2,0.5-0.4,0.6-0.7s0.3-0.5,0.3-1c-0.1-0.5-0.4-1.3-1.1-1.6c-0.7-0.3-1.3-0.2-1.8,0.1
					s-0.6,1-0.5,1.4s0.3,1.2,0.9,1.4C214.7,159.6,215.3,160.1,215.7,159.9z"/>
				<path class="st4" d="M208.6,167.5c0.9-0.2,1.1-0.6,1.1-1.6c0.5-0.5,1.1-1,1.5-1.5s0-1.3-0.6-1.2c-0.7,0.1-1.6,0.1-2.2,0.8
					c0,0.3,0,0.7,0,1.1c-0.8,0.6-1.2,1.5-0.9,2C207.7,167.4,208.1,167.6,208.6,167.5z"/>
				<path class="st4" d="M212.4,171.1c0.7-0.2,1.1-1.1,0.8-1.6s-2.1-0.2-2.4,0.3C210.6,170.4,211.8,171.4,212.4,171.1z"/>
				<path class="st4" d="M220.5,160c0.4,0.6,1.5,0.8,2.3,0.3c0.8-0.4,0.9-1.1,0.4-2.1c-0.3-0.5-1.2-0.8-1.7-0.6
					C220.8,158,220.2,159.5,220.5,160z"/>
				<path class="st4" d="M208.7,150.2c0.5-0.3,1.6-0.6,1.6-1.4c0-0.8-0.7-0.7-1-0.9c-0.8-0.7-2.1-0.5-2.5,0.2
					c-0.3,0.7-0.2,1.3,0.3,1.9C207.5,150.6,208.2,150.5,208.7,150.2z"/>
				<path class="st4" d="M208.4,154.8c-0.3,0.1-0.5,0.4-0.3,1.1c0.2,0.7,0.6,1.1,1.3,1c0.8-0.1,1.5-1,1.4-1.9s-0.7-1-0.7-1.6
					s-0.4-0.8-1-0.9s-1.6-0.3-1.7,0.6c-0.1,0.9,0.4,1.1,0.7,1.1S208.7,154.7,208.4,154.8z"/>
				<path class="st4" d="M213.8,167.9c0.3-0.2,0.2-0.5,0.2-0.6c-0.1-0.2-0.4-0.5-0.8-0.4c-0.4,0.1-0.2,0.7-0.1,0.8
					C213.2,167.9,213.5,168.1,213.8,167.9z"/>
				<path class="st4" d="M222,151.2c0.9-0.4,1-0.9,0.6-1.8s-1-1.2-1.6-0.9s-1.1,1.7-0.9,2.2C220.4,151.3,221.2,151.5,222,151.2z"/>
				<path class="st4" d="M220.9,143.2c0.8,1.3,1.3,1.3,2.8,0.8c0.5-0.2,0.8-0.6,0.9-1.1l-3-1.9C220.7,141.4,220.4,142.4,220.9,143.2
					z"/>
				<path class="st4" d="M218.1,148.5c0.4-0.8,0.3-1.7-0.4-2.2c-0.3-0.2-0.8-0.3-1.1-0.2c-1.1,0.3-1.6,1.1-1.5,2.5
					c0.4,0.2,0.8,0.5,1.2,0.6C217,149.4,217.8,149.1,218.1,148.5z"/>
				<path class="st4" d="M239.1,163.7c0,0.2,0.1,0.4,0.1,0.5c0.3,0.5,1.3,0.8,1.9,0.5c1-0.5,1.3-1.4,0.8-2.2
					c-0.4-0.8-1.3-1.2-1.9-0.8c-0.4,0.3-0.8,0.7-0.9,1.2c-0.1-0.1-0.7-0.3-0.9-0.1s0.1,0.7,0.3,0.8S238.9,163.8,239.1,163.7z"/>
				<path class="st4" d="M256.6,172.8c0.5,0.3,1.1,0.2,1.5-0.4c0.4-0.6,0.3-1.3-0.3-1.6c-0.5-0.3-1.3,0-1.6,0.5
					S256.1,172.5,256.6,172.8z"/>
				<path class="st4" d="M266.8,182c0.5,0.1,1.6-0.1,1.6-1.1c-0.9-1.5,0.3-1.7,0.1-2.9c0-0.2-0.2-0.4-0.3-0.5c-0.8-1-2-0.8-2.5,0.4
					c-0.3,0.7-0.4,1.5-0.5,2.2C265.1,180.9,266,181.8,266.8,182z"/>
				<path class="st4" d="M271.4,174.5c0.6-0.9,0.4-1.7-0.4-2.2s-1.6-0.3-2.1,0.5c-0.5,0.7-0.4,1.8,0.2,2.2S271.1,175.1,271.4,174.5z
					"/>
				<path class="st4" d="M270.4,190.3c0.3-0.4,0.1-1.2-0.3-1.5c-0.6-0.4-1.3-0.3-1.6,0.2s-0.2,1.2,0.3,1.6
					C269.3,191,270,190.9,270.4,190.3z"/>
				<path class="st4" d="M264.6,174.9c0.6,0.1,1.4-1,1.1-1.4s-1.6-0.3-1.7,0.3C263.9,174.2,264.2,174.8,264.6,174.9z"/>
				<path class="st4" d="M264.5,169.9c-0.1-0.2-0.5-0.5-0.7-0.4c-0.3,0.1-0.8,0.4-0.9,0.7c-0.2,0.6,0.4,0.8,0.9,1
					C264.4,171,264.7,170.6,264.5,169.9z"/>
				<path class="st4" d="M205,144.2c0.2,0.9,1.4,0.9,2,1.7c1.4,1.8,2.9,1,3.9-0.1c0.4-0.4,0.5-0.9,0.6-1.4c0.1-0.7-0.2-1.3-0.8-1.8
					c-0.5-0.6-0.5-1.4-1.2-1.7c-1-0.4-2.7-0.6-3.8,0.8c-0.2,0.3-0.4,0.6-0.5,0.9c-0.1-0.4-0.4-0.8-0.8-0.8c-0.5-0.1-1.1,0.4-1.2,0.8
					c-0.1,0.5,0.4,1.2,0.8,1.3c0.3,0.1,0.7-0.1,0.9-0.4C205,143.8,205,144,205,144.2z"/>
				<path class="st4" d="M278.7,186.1c0.3-0.4,0.3-1.1-0.1-1.4c-0.4-0.4-1.1-0.3-1.5,0.1c-0.4,0.5-0.4,1,0.1,1.4
					S278.3,186.6,278.7,186.1z"/>
				<path class="st4" d="M263.4,192.3c0.3-0.2,0.5-1-0.1-1.5c-0.2-0.1-0.7-0.2-0.9,0s-0.5,0.6-0.5,0.9
					C262.1,192.4,263,192.5,263.4,192.3z"/>
				<path class="st4" d="M280,192c0.3-0.5,0.1-1.2-0.3-1.5c-0.5-0.3-1.1-0.2-1.4,0.2c-0.4,0.5-0.3,1.3,0.2,1.7
					C279,192.6,279.8,192.5,280,192z"/>
				<path class="st4" d="M277.8,179.9c0.5-0.7,0.3-1.5-0.5-2.1c-0.2-0.2-0.4-0.2-0.7-0.2c0-0.2-0.1-0.3-0.1-0.4
					c-0.1-0.1-0.4-0.3-0.6-0.2s-0.2,0.5-0.1,0.7l0.1,0.1c-0.2,0.1-0.4,0.3-0.5,0.6c-0.4,0.6-0.4,1.3,0.1,1.7
					C275.9,180.5,277.4,180.3,277.8,179.9z"/>
				<path class="st4" d="M281.5,183.3C281.5,183.3,281.5,183.2,281.5,183.3c0.4-0.1,0.8-0.3,1-0.7c0.4-0.7,0.4-1.6-0.1-1.9
					c-0.2-0.1-0.5-0.2-0.7-0.2v-0.1c-0.6-0.8-2.6-1-3.5-0.1c-0.6,0.7,0.2,1.5,0.8,1.6s0.4,0.1,0.7,0.8
					C280,183.4,280.6,184,281.5,183.3z"/>
				<path class="st4" d="M262.9,184.8c0.1,0.1,0.3,0,0.4-0.1c0-0.1,0.1-0.3,0-0.4s-0.3-0.1-0.5,0.1
					C262.6,184.6,262.8,184.8,262.9,184.8z"/>
				<path class="st4" d="M254.8,169.1c0.6-0.3,0.8-0.8,0.5-1.3c-0.3-0.6-1.2-1.1-1.6-0.9c-0.4,0.2-0.6,1.2-0.3,1.7
					C253.6,169.2,254.3,169.4,254.8,169.1z"/>
				<path class="st4" d="M258,165.2c0.4-0.6,0.5-1.2,0.4-1.7l-2.3-1.4c-0.4,0.1-0.8,0.4-1.1,0.9c-0.2,0.3-0.3,0.6-0.4,0.8
					c-0.2-0.2-0.4-0.3-0.7-0.3c-0.7,0-1.3,0.9-1.2,1.6c0.1,0.6,0.7,1.4,1.3,1.5c0.9,0.1,1.4-0.6,1.5-0.9
					C256.3,166.1,257.5,165.9,258,165.2z"/>
				<path class="st4" d="M240.5,171.1c-0.3,0.1-0.2,0.6-0.1,0.8c0,0.1,0.4,0.3,0.6,0.2s0.2-0.5,0.2-0.7
					C241.1,171.3,240.8,170.9,240.5,171.1z"/>
				<path class="st4" d="M241.6,174.8c0.6-0.2,0.4,0,0.9,0.4s1.4,0.8,1.9-0.2s-0.2-2.2-1-2.7c-0.9-0.6-2.8,0.1-3.2,1.3
					C239.9,174.4,241,174.9,241.6,174.8z"/>
				<path class="st4" d="M252.9,162.4c0.4-0.5,0.3-1.3-0.2-1.6s-1.1-0.1-1.5,0.4c-0.3,0.5-0.2,1.1,0.2,1.4
					C251.9,163,252.5,162.9,252.9,162.4z"/>
				<path class="st4" d="M260.3,182.5c0.4-0.5,0-1.5-0.7-2c-0.8-0.5-1.6-0.3-2.1,0.5s-0.4,1.7,0.2,2
					C258.5,183.5,259.7,183.2,260.3,182.5z"/>
				<path class="st4" d="M261.7,165.9c0.1-0.1,0.1-0.2,0.1-0.3l-1.7-1.1c-0.4,0.5-0.4,1.2,0.1,1.5
					C260.6,166.4,261.4,166.3,261.7,165.9z"/>
				<path class="st4" d="M258,176.9c0.4-0.5,0.3-1.2-0.2-1.5c-0.4-0.3-1.2-0.2-1.6,0.2s-0.2,1.1,0.3,1.5
					C257.1,177.5,257.7,177.4,258,176.9z"/>
				<path class="st4" d="M242.5,165.6c0.3,0.1,0.8,0,1,0c0.4-0.6,0.1-1.3-0.3-1.5c-0.4-0.2-0.7,0-0.9,0.3
					C242,164.9,242.1,165.4,242.5,165.6z"/>
				<path class="st5" d="M265.2,341c0.2,0.7,1.1,1.3,1.8,1.2c0.6-0.2,1-1.1,0.7-2.1c-0.1-0.5-0.9-0.9-1.4-0.7
					C265.6,339.6,265,340.5,265.2,341z"/>
				<path class="st5" d="M270.7,327.6c-0.2-0.6-1.1-1-1.6-0.8c-0.7,0.2-1.5,1.7-1.2,2.2c0.3,0.7,1.4,1,2.3,0.6
					C270.9,329.3,271.1,328.6,270.7,327.6z"/>
				<path class="st5" d="M267,344.3c-0.2,0.3-0.4,0.5-0.6,0.8s-0.3,0.6-0.4,0.9l5.6-3.4c-0.4-0.1-0.9,0-1,0.2
					c-0.5,0.6-1,0.3-1.5,0.3s-1,0.3-1.4,0.5C267.5,343.8,267.3,344,267,344.3z"/>
				<path class="st5" d="M291.3,319.7c0.2,0.5,1.2,1,1.7,0.8s0.8-0.9,0.5-1.4c-0.2-0.6-0.8-0.8-1.4-0.5
					C291.4,318.8,291.1,319.2,291.3,319.7z"/>
				<path class="st5" d="M269.6,332.4c0.2-0.1,0.7-0.8,0.6-1s-1-0.4-1.1-0.3c-0.3,0.2-0.6,0.8-0.4,1.1
					C268.8,332.4,269.4,332.5,269.6,332.4z"/>
				<path class="st5" d="M277.4,339.1c-0.6,0-0.2-1.4-1.1-1.5c-0.8,0-1.2-1.1-2.2-1s-2.1,0.8-1.7,1.7c0,0.1,0.1,0.1,0.1,0.2
					c-0.5,0.4-0.7,1.2-0.5,1.8c0.2,0.8,0.9,1,1.9,0.7c0.4-0.1,0.8-0.5,1-0.9c0.3,0,0.5-0.1,0.7,0.1L277.4,339.1z"/>
				<path class="st5" d="M277.1,322.3c-0.1-0.4-0.6-0.3-0.8-0.2c-0.1,0-0.2,0.2-0.3,0.4c-0.1,0-0.1,0-0.2,0
					c-0.6,0.2-0.8,0.6-0.5,1.1c0.2,0.3,0.6,1.2,1.2,1s0.4-1.1,0.4-1.5c0-0.1,0-0.1,0-0.1C277,322.7,277.2,322.5,277.1,322.3z"/>
				<path class="st5" d="M282.5,321.9c0.4-0.1,0.5-0.8,0.3-1.4c-0.2-0.4-0.5-0.6-0.9-0.4c-0.5,0.2-0.8,0.5-0.7,1.1
					C281.4,321.7,282.1,322.1,282.5,321.9z"/>
				<path class="st5" d="M290.8,314.6c-0.3-0.6-0.7-0.8-1.5-0.5s-1.5,0.6-1.5,1.9c-0.4-0.4-0.7-0.6-0.9-0.8
					c-0.3-0.6-0.7-0.7-1.3-0.6c-0.6,0.2-1.2,0.4-1.3,1.2c-0.3,2.2,0,2.8,2.1,3.4c0,0,0.1,0,0.2,0.1c-0.3-0.1-0.7-0.1-0.9-0.1
					c-0.4,0.1-0.8,0.4-0.6,0.9c0.1,0.6,0.6,0.9,1.1,0.7c0.2-0.1,0.6-0.4,0.8-0.7c0.3,0.5,0.7,0.7,1.2,0.5c0.7-0.2,1-1.1,0.4-1.8
					c-0.5-0.6-0.2-1.1,0-1.7c1.6,0.4,2.4-0.3,2.4-1.7c0-0.1,0-0.3-0.1-0.4c0-0.1,0-0.1-0.1-0.2L290.8,314.6
					C290.9,314.7,290.8,314.6,290.8,314.6z"/>
				<path class="st5" d="M234.1,358.1c0,0.4,0.3,1,0.6,1.2c0.4,0.3,0.7-0.1,0.8-0.2c0.1-0.3,0-0.6-0.2-0.9c-0.1-0.3-0.2-0.6-0.5-0.7
					C234.4,357.2,234.1,357.6,234.1,358.1z"/>
				<path class="st5" d="M268.2,337.9c0.2,0.4,1.4,1,2,0.8s0.8-0.7,0.5-1.5c-0.3-0.9-0.8-1.2-1.4-1
					C268.3,336.4,267.9,337.2,268.2,337.9z"/>
				<path class="st5" d="M254.6,351.8c0.5-0.2,0.7-1.3,0.4-1.5s-0.7-0.2-1.1-0.1c-0.4,0.1-0.7,0.5-0.4,1
					C253.7,351.6,254,352,254.6,351.8z"/>
				<path class="st5" d="M263.3,325.2c-0.5,0.1-0.6,0.5-0.4,1c0.2,0.4,0.6,0.8,1,0.5c0.3-0.2,1.1-0.9,0.9-1.3
					C264.7,325,263.6,325.1,263.3,325.2z"/>
				<path class="st5" d="M251.7,354.8l1.4-0.8c-0.2,0-0.4,0-0.6,0C252,354.2,251.8,354.5,251.7,354.8z"/>
				<path class="st5" d="M255.4,351.8c-0.8-0.1-1.4,0.8-1.3,1.3c0,0.1,0,0.1,0.1,0.2l2-1.2C255.9,351.9,255.7,351.8,255.4,351.8z"/>
				<path class="st5" d="M253.3,343.8c0.4-0.2,0.3-1.1,0.2-1.4c-0.1-0.2-0.6-0.3-0.9-0.3c-0.4,0.1-0.7,0.5-0.4,0.9
					C252.3,343.2,252.9,343.9,253.3,343.8z"/>
				<path class="st5" d="M264.5,322.8c0.2,0.3,0.7,0.6,1,0.5s0.5-0.6,0.7-0.8c-0.3-0.8-0.7-0.8-1.1-0.7
					C264.6,321.9,264.3,322.3,264.5,322.8z"/>
				<path class="st5" d="M265.6,318.4c0.2-0.1,0.3-0.6,0.2-0.7c-0.1-0.2-0.3-0.6-0.6-0.5c-0.2,0.1-0.4,0.5-0.3,0.7
					C265,318,265.4,318.5,265.6,318.4z"/>
				<path class="st5" d="M264.6,332.4c0.2,0.3,0.6,0.6,0.9,0.6c0.8,0,1.1-0.7,1.1-1.5c-0.4-0.2-0.7-0.5-1.1-0.5
					c0.3-0.3,0.4-0.8,0.3-1.2c-0.2-0.5-0.7-0.8-1.3-0.6c-0.7,0.2-1,0.8-0.8,1.4c0.1,0.4,0.6,0.7,1,0.7
					C264.4,331.5,264.3,332,264.6,332.4z"/>
				<path class="st5" d="M261.9,346.1c0.3-0.6,0-1.1-0.6-1.5c-0.5,0.2-1.2,0.4-1,1.1c0,0.3,0.5,0.6,0.8,0.7
					C261.4,346.5,261.8,346.3,261.9,346.1z"/>
				<path class="st5" d="M234.8,354.1c-0.3,0.3-0.3,0.7-0.2,1.1c0.1,0.5,0.7,0.8,1.2,0.6c0.5-0.2,0.7-0.7,0.5-1.2
					C236.2,354.2,235.1,353.8,234.8,354.1z"/>
				<path class="st5" d="M282.3,329.4c0,0.4,0.2,1,0.5,1.2c0.4,0.3,0.7,0,0.8-0.1c0.1-0.3,0-0.6-0.1-0.9s-0.2-0.6-0.5-0.8
					C282.7,328.6,282.3,328.9,282.3,329.4z"/>
				<path class="st5" d="M278.9,332.3c0.3,0.9,1.3,1.3,2.4,0.9c1.3-0.5,1.8-1.4,1.3-2.7c-0.3-1-1.7-1.6-2.7-1.1
					C279,329.8,278.5,331.2,278.9,332.3z"/>
				<path class="st5" d="M283.4,325.5c-0.3,0.3-0.4,0.7-0.3,1c0,0.3,0.3,0.6,0.6,0.7c-0.2,0.3-0.2,0.6-0.1,0.8
					c0.2,0.5,1.1,1,1.5,0.9c0.5-0.2,0.9-1,0.7-1.5c-0.1-0.4-0.5-0.7-0.9-0.8c0-0.2,0.1-0.3,0-0.5
					C284.8,325.6,283.7,325.2,283.4,325.5z"/>
				<path class="st5" d="M278,332.8c-0.6-0.5-2.1-0.3-2.5,0.4c-0.4,0.7-0.1,2.2,1,2.6s1.9,0.1,2.4-0.5S278.9,333.5,278,332.8z"/>
				<path class="st5" d="M292.3,322.2c-0.6,0.2-0.9,1-0.6,1.5s1.1,0.9,1.6,0.7c0.4-0.2,0.8-1.3,0.6-1.8
					C293.6,322.3,292.7,322,292.3,322.2z"/>
				<path class="st5" d="M289.9,326.9c0.2,0.7,1.5,1.3,2.1,1c0.7-0.3,0.8-1.2,0.4-2.3c-0.2-0.5-1.1-0.8-1.6-0.6
					C290.3,325.4,289.7,326.5,289.9,326.9z"/>
				<path class="st5" d="M236.9,362.5c-0.4-0.3-1-0.4-1.4,0.1c-0.2,0.2-0.5,0.4-0.8,0.6c-0.8,0.4-1.1,1-1,1.8c0,0.3,0.1,0.4,0.3,0.6
					l4.3-2.6c-0.3,0.1-0.6,0.2-1,0.4C237.4,363,237.3,362.7,236.9,362.5z"/>
				<path class="st5" d="M239.7,355.9c0.5-0.2,0.7-0.7,0.4-1.1c-0.2-0.3-0.5-0.6-0.9-0.6c-0.3,0-0.8,1-0.5,1.5
					C239,356.1,239.3,356.1,239.7,355.9z"/>
				<path class="st5" d="M264.9,342c-0.7,0.2-1.2,1.2-1.1,2c0.1,0.6,1.1,1.2,1.8,1c0.6-0.1,1.1-0.9,0.9-1.4
					C266.3,342.5,265.6,341.8,264.9,342z"/>
				<path class="st5" d="M262.2,348.4l2.8-1.7c-0.6-0.4-1.4-0.3-1.9,0.3C262.8,347.3,262.5,347.8,262.2,348.4z"/>
				<path class="st5" d="M293.4,325.6c-0.5,0.2-0.8,1.4-0.6,2.2c0.2,0.5,1,0.9,1.6,0.6c0.7-0.3,1.2-1.1,1-1.7
					C295.1,326,294,325.4,293.4,325.6z"/>
				<path class="st5" d="M303.9,322.2c-0.2-0.7-1.1-1.2-1.7-1.1c-0.8,0.2-1.5,1.3-1.2,2c0.1,0.4,0.6,0.6,1.1,0.7c0,0.1,0,0.1,0,0.2
					l1.6-1C304,322.7,304,322.4,303.9,322.2z"/>
				<path class="st5" d="M289.6,320.8c0.2-0.1,0.3-0.6,0.3-0.7c-0.1-0.2-0.3-0.6-0.6-0.5c-0.2,0.1-0.4,0.5-0.4,0.7
					C289,320.4,289.4,320.9,289.6,320.8z"/>
				<path class="st5" d="M299.7,325c-0.3,0.2-0.4,0.5-0.5,0.8l1.8-1.1C300.5,324.6,300.1,324.7,299.7,325z"/>
				<path class="st5" d="M285.2,331.2c-0.9,0.3-1.4,1.5-1,2.5c-0.3,0-0.5,0-0.8,0.3c-0.2,0.2-0.5,0.4-0.8,0.5
					c-0.9,0.4-1.2,0.9-1.1,1.7c0,0.2,0.1,0.3,0.1,0.4l6.6-4C287.7,331.8,286,330.9,285.2,331.2z"/>
				<path class="st5" d="M305.1,321.8l-0.5-0.3C304.7,321.6,304.8,321.7,305.1,321.8z"/>
				<path class="st5" d="M292.8,317c0.2-0.1,0.2-0.3,0.2-0.4s-0.3-0.2-0.4-0.1c-0.1,0-0.2,0.2-0.2,0.3
					C292.4,316.9,292.6,317,292.8,317z"/>
				<path class="st5" d="M296.4,319.8c-0.5,0.7-1.1,1.7-1.7,2.7c-0.1,0.1,0.1,0.5,0.2,0.6c0.4,0.5,0.6,0.9,0.5,1.6
					c0,0.8,0.9,1.5,1.6,1.2c0.7-0.4,1.6-0.7,1.6-1.8c0-0.5,0.2-1,0.7-1.5c0.6-0.5,0.7-1.6,0.3-2.1
					C299.4,320,297.3,319.5,296.4,319.8z"/>
				<path class="st5" d="M287.8,326c-0.3,0-0.9,0.9-0.6,1.4c0.2,0.5,0.6,0.4,0.9,0.3c0.5-0.2,0.8-0.7,0.5-1.1
					C288.3,326.3,288.1,325.9,287.8,326z"/>
				<path class="st5" d="M279.7,337c-0.1,0-0.1,0.1-0.2,0.1c-0.5,0.2-0.9,0.7-1.1,1.3l2.5-1.5C280.5,336.9,280,336.9,279.7,337z"/>
				<path class="st5" d="M279.9,325.8c0.2,0.5,1.7,0.9,2.4,0.6c0.5-0.2,0.8-1.1,0.6-1.6c-0.3-0.9-1.2-1.4-1.9-1.1
					C280.2,324.1,279.6,325.1,279.9,325.8z"/>
				<path class="st5" d="M213.6,376.3c0.1,0.3,0.5,0.5,0.8,0.6c0.2,0,0.7-0.2,0.8-0.4c0.3-0.6,0-1.1-0.7-1.4
					C214,375.3,213.4,375.6,213.6,376.3z"/>
				<path class="st5" d="M219.6,373.5c-0.4-1-1.2-1.7-1.9-1.4s-1.1,1.3-0.9,2.1c0.2,0.5,0.8,0.9,1.5,0.9l1.1-0.7
					C219.6,374.1,219.7,373.8,219.6,373.5z"/>
				<path class="st5" d="M213.1,369.9c-0.1,0.6,0.2,1,0.7,1.3c0.2,0.1,0.5,0.1,0.7,0c0.4-0.4,0.7-0.8,1.1-1.2c1.3,0,2.3-0.5,2.3-1.3
					s-1-1.8-1.9-1.9s-1.2,0.4-1.4,2.2C214,369.1,213.2,369,213.1,369.9z"/>
				<path class="st5" d="M214.8,355.6c-0.4,0.1-0.6,0.6-0.3,1s0.6,0.7,1,0.4c0.3-0.2,1-1,0.8-1.3
					C216.1,355.4,215.1,355.4,214.8,355.6z"/>
				<path class="st5" d="M258.3,322.2c0,0.2,0.4,0.7,0.7,0.6s0.4-0.7,0.3-0.8c-0.1-0.2-0.4-0.5-0.6-0.4
					C258.4,321.6,258.3,322,258.3,322.2z"/>
				<path class="st5" d="M216.2,359.3c-0.7,0.3-1,0.9-0.7,1.5c0.2,0.5,1,0.8,1.4,0.6c0.5-0.2,0.8-1.1,0.5-1.6
					C217.3,359.3,216.8,359.1,216.2,359.3z"/>
				<path class="st5" d="M250.8,333.1c0.4,0.9,1.3,1.2,2.3,0.9c0.7-0.3,1.1-1.4,0.8-2.2c-0.3-0.9-1.2-1.2-2.1-0.7
					C250.8,331.4,250.4,332.2,250.8,333.1z"/>
				<path class="st5" d="M251.4,319c0.2-0.1,0.3-0.5,0.3-0.7c0-0.1-0.3-0.5-0.6-0.4s-0.2,0.6-0.2,0.8S251.2,319.1,251.4,319z"/>
				<path class="st5" d="M248.9,349.8c0.2,0.5,1,0.8,1.7,0.5c0.1-0.3,0.3-0.8,0.3-1.2c-0.1-0.6-0.9-0.9-1.5-0.6
					C248.8,348.7,248.6,349.3,248.9,349.8z"/>
				<path class="st5" d="M250.2,343.9c0.3-0.2,0.3-0.7,0.2-0.8c-0.1-0.2-0.5-0.3-0.6-0.3c-0.2,0-0.4,0.4-0.3,0.6
					C249.6,343.6,249.9,344.1,250.2,343.9z"/>
				<path class="st5" d="M217.2,371c-0.1,0.3,0.3,0.9,0.5,1c0.3,0.1,0.8,0,1-0.2c0.1-0.2-0.1-0.8-0.3-0.9
					C218.2,370.7,217.4,370.7,217.2,371z"/>
				<path class="st5" d="M155.3,376.1c0.1-0.4-0.3-0.7-0.4-0.7c-0.2-0.1-0.6-0.1-0.7,0.3c-0.2,0.4,0,0.8,0.4,0.9
					C154.9,376.7,155.2,376.5,155.3,376.1z"/>
				<path class="st5" d="M162.2,379c0.7,0.3,1.3,0.1,1.5-0.5c0.4-0.9,0-2.1-0.7-2.4c-0.6-0.2-1.5,0.4-1.8,1.1
					C161,377.9,161.4,378.7,162.2,379z"/>
				<path class="st5" d="M162,370.7c0.5,0.3,1.1,0,1.3-0.5s0-1.1-0.5-1.3c-0.5-0.3-1.2-0.1-1.3,0.4
					C161.4,369.9,161.5,370.4,162,370.7z"/>
				<path class="st5" d="M153.8,379.9c-0.1,0.2-0.1,0.8,0.1,0.9c0.3,0.1,0.6-0.2,0.7-0.4c0.1-0.2,0.2-0.7-0.1-0.8
					C154.2,379.5,153.9,379.7,153.8,379.9z"/>
				<path class="st5" d="M212.6,360.6c0.2-0.1,0.2-0.3,0.1-0.4c0-0.1-0.3-0.1-0.4-0.1c-0.1,0.1-0.2,0.2-0.2,0.3
					C212.2,360.5,212.4,360.7,212.6,360.6z"/>
				<path class="st5" d="M210.3,353.5c0.2-0.1,0.3-0.7,0.2-0.9c-0.1-0.2-0.4-0.4-0.7-0.3s-0.3,0.5-0.3,0.7
					C209.6,353.1,210,353.6,210.3,353.5z"/>
				<path class="st5" d="M216.6,345.9c-0.5,0-0.6,0.6-0.5,1.1c0.2,0.6,0.7,0.6,1,0.4s0.9-0.9,0.8-1.1
					C217.8,346.1,217,345.8,216.6,345.9z"/>
				<path class="st5" d="M162.4,388.2c1,0.4,1.8,0,2.2-0.9c0.4-1-0.2-2.3-1.3-2.7c-0.8-0.3-2,0.4-2.4,1.2
					C160.6,386.8,161.2,387.8,162.4,388.2z"/>
				<path class="st5" d="M209.5,365.2c0.2,0.7,0.8,1,1.3,0.8c0.7-0.2,1.2-1.3,1-2c-0.2-0.6-0.9-0.9-1.5-0.7
					C209.6,363.5,209.2,364.5,209.5,365.2z"/>
				<path class="st5" d="M187.4,390.3c0.5,0.3,1.4,0,1.6-0.5c0.5-1,0.3-2-0.3-2.3c-0.7-0.3-1.7,0.1-2.1,0.9
					C186.3,388.9,186.7,389.9,187.4,390.3z"/>
				<path class="st5" d="M195.7,379.3c0.6,0.2,1.3-0.2,1.5-0.8c0.2-0.5-0.1-1.1-0.6-1.3c-0.7-0.3-1.3,0-1.5,0.6
					C194.9,378.4,195.2,379.1,195.7,379.3z"/>
				<path class="st5" d="M259.1,313.6c0.2,0,0.6-0.2,0.5-0.7s-0.6-0.3-0.9-0.2c-0.1,0-0.3,0.4-0.3,0.5
					C258.7,313.4,258.9,313.6,259.1,313.6z"/>
				<path class="st5" d="M198.5,385.2c-0.4,0.6-1,1-0.6,1.7c0.1,0.2,0.3,0.3,0.4,0.4l1.6-1C199.9,385.5,199.3,385.3,198.5,385.2z"/>
				<path class="st5" d="M233.2,366.1c-0.4-0.2-0.8-0.2-1.2,0s-0.7,0.7-0.9,1.3L233.2,366.1z"/>
				<path class="st5" d="M202.3,383.6c-0.5,0.3-0.8,0.9-0.5,1.4c0,0.1,0.1,0.1,0.1,0.1l1.9-1.1C203.5,383.6,202.8,383.3,202.3,383.6
					z"/>
				<path class="st5" d="M191.3,391.1c-0.4-0.3-0.9-0.4-1.4-0.5c-0.3-0.1-0.7,0-1,0.1c-0.2,0-0.4,0.1-0.5,0.1
					c-0.1-0.2-0.3-0.3-0.4-0.2c-0.2,0.1-0.3,0.3-0.3,0.4c-0.8,0.3-1.2,0.9-1,1.6c0.1,0.6,0.4,1,0.9,1.2l4.1-2.5
					C191.5,391.3,191.4,391.2,191.3,391.1z"/>
				<path class="st5" d="M228.1,353.4c-0.1-0.4-0.6-0.3-0.8-0.2c-0.1,0-0.3,0.4-0.3,0.5c0.1,0.2,0.4,0.4,0.6,0.4
					C227.7,354.1,228.2,353.9,228.1,353.4z"/>
				<path class="st5" d="M228.9,365c1.1,0.3,1.9-0.1,2.3-0.7c0.4-0.6-0.2-1.8-1.1-2.4c-0.6-0.5-2.1-0.1-2.5,0.6
					C227.3,363.3,227.8,364.7,228.9,365z"/>
				<path class="st5" d="M206.4,374.9c0.4-0.2,0.2-1.1,0.1-1.4c-0.1-0.2-0.7-0.3-1-0.2c-0.4,0.1-0.6,0.5-0.3,0.9
					C205.4,374.4,206,375.1,206.4,374.9z"/>
				<path class="st5" d="M193.9,386.5c-0.1,0.5,0.5,1.7,1,1.9c0.6,0.3,1.1-0.1,1.4-0.9c0.3-0.9,0.2-1.4-0.4-1.7
					C194.9,385.5,194.1,385.8,193.9,386.5z"/>
				<path class="st5" d="M275.3,307.5c-0.4,0.4-0.4,0.9,0,1.5c0.4,0.5,0.8,0.7,1.4,0.4c0.8-0.4,0.8-1.6,0.6-1.9
					S275.9,306.9,275.3,307.5z"/>
				<path class="st5" d="M270.6,311.5c0.7-0.3,1-0.8,0.8-1.4c-0.3-0.9-1.4-1.6-2.1-1.3c-0.6,0.2-0.9,1.3-0.6,2
					C268.9,311.5,269.8,311.8,270.6,311.5z"/>
				<path class="st5" d="M267.4,322.5c-0.4,0.3-0.4,0.7-0.4,1.1c0.2,1.2,0.6,1.5,1.8,1.2c0.9-0.2,1.7-0.4,2.6-0.6
					c0.5,1.6,0.6,1.6,1.9,0.9c0.1-0.8-0.3-1.2-1.2-1.4c-0.2-2-1.3-2.4-3-1.2c-0.1-0.1-0.3-0.1-0.4-0.2
					C268.2,322,267.8,322.2,267.4,322.5z"/>
				<path class="st5" d="M183.8,388.8c0.7-0.3,0.7-0.8,0.5-1.5c-0.5-0.2-1.1-0.4-1.5,0.2c-0.1,0.2,0,0.7,0.2,1
					C183.1,388.7,183.6,388.9,183.8,388.8z"/>
				<path class="st5" d="M257.2,334.4c0.2,0.7,0.7,1,1.2,0.9c0.7-0.2,1.3-1.2,1.2-1.9c-0.1-0.6-0.8-1-1.5-0.9
					C257.5,332.7,257,333.6,257.2,334.4z"/>
				<path class="st5" d="M276.2,311c0.1,0.3,0.8,0.5,1,0.4c0.3-0.1,0.7-0.5,0.6-0.8c0-0.2-0.6-0.5-0.8-0.5
					C276.8,310.2,276.1,310.7,276.2,311z"/>
				<path class="st5" d="M178.8,390.5c-1.3,0.7-1.6,2.6-0.6,4c0.4,0.5,0.3,0.8,0.1,1.2c-0.2,0.7,0.4,1.4,1,1.5
					c0.7,0.1,0.9-0.2,1.1-0.8c0.1-0.4,0.2-0.9,0.4-1.2c0.6-0.7,1.3-1.3,2-1.9c2,0.9,2.7,0.6,3.1-1.3c0.2-1.1-0.6-2-1.7-1.8
					c-0.8,0.1-1.5,0.6-2.5,0.9C180.8,390.5,179.9,389.9,178.8,390.5z"/>
				<path class="st5" d="M285.6,311.7c0.1,0.5,0.9,1.1,1.8,0.8c0.5-0.2,0.7-0.6,0.6-1.2l-1.5-0.9
					C285.9,310.6,285.5,311.3,285.6,311.7z"/>
				<path class="st5" d="M274.2,317.4c0.4,1,1.5,1.3,2.7,0.8c1-0.4,1.4-1.2,1-2.2s-1.7-1.6-2.8-1.1
					C274.4,315.3,273.9,316.6,274.2,317.4z"/>
				<path class="st5" d="M153.1,372.8c0.2-0.4-0.3-0.6-0.5-0.7c-0.1-0.1-0.5,0.1-0.5,0.2c0,0.2,0,0.6,0.2,0.7
					C152.4,373,152.9,373.2,153.1,372.8z"/>
				<path class="st5" d="M199.2,379.4c-0.1,0.3,0,0.6,0.2,1c-0.2-0.3-1.4-0.5-2,0.1c-0.4,0.4-0.4,1,0,1.5c0.1,0.2,0.3,0.3,0.4,0.3
					v0.1c0,0.3,0.3,0.8,0.6,0.9c0.2,0.1,1.1-0.1,1.1-0.4c0.1-0.2-0.2-0.6-0.4-0.8c0.4-0.5,0.4-1.3,0.3-1.6c0.2,0.4,0.7,0.7,1.1,0.9
					c0.8,0.3,1.4-0.1,1.8-1.2c0.2-0.6-0.2-1.5-0.8-1.7C200.9,378.3,199.4,378.8,199.2,379.4z"/>
				<path class="st5" d="M195,373.6c-0.5,0.2-0.7,0.8-0.5,1.3s0.9,0.9,1.4,0.7c0.4-0.2,0.7-0.9,0.6-1.3
					C196.3,373.8,195.5,373.4,195,373.6z"/>
				<path class="st5" d="M199.4,369.8c-0.4,0.1-0.6,0.8-0.3,1.2c0.2,0.4,0.7,0.7,1.1,0.4c0.3-0.2,1-1,0.8-1.3
					C200.7,369.7,199.8,369.8,199.4,369.8z"/>
				<path class="st5" d="M195.1,365.8c-0.2,0.1-0.3,0.4-0.3,0.6c0,0.1,0.4,0.4,0.5,0.3c0.2-0.1,0.6-0.3,0.5-0.6
					C195.7,365.7,195.2,365.8,195.1,365.8z"/>
				<path class="st5" d="M198.2,373.6c-0.4-0.2-0.8,0-0.9,0.5c-0.1,0.5-0.1,0.9,0.4,1c0.4,0.1,1.4,0,1.5-0.4
					C199.4,374.4,198.5,373.8,198.2,373.6z"/>
				<path class="st5" d="M197,367.8c-0.3-0.1-0.6,0.1-0.7,0.3c-0.1,0.2-0.1,0.8,0.1,0.9c0.2,0.1,0.7-0.3,0.8-0.5
					C197.3,368.3,197.3,367.9,197,367.8z"/>
				<path class="st5" d="M191.5,382.1c-0.2,0.1-0.3,0.2-0.4,0.4c-0.6-0.6-1.1-0.5-2.5,0.7c-0.5-0.5-1-1.1-1.7-0.5
					c-0.4,0.4-0.6,0.9-0.4,1.4c0.1,0.2,0.3,0.5,0.5,0.5c0.5,0,1.1-0.1,1.7-0.1c0.9,1,1.9,1.3,2.5,0.7c0.1-0.1,0.2-0.3,0.3-0.5
					c0.4,0.2,1,0.3,1.5,0.1c0.7-0.3,1-0.8,0.7-1.5C193.3,382.4,192.2,381.8,191.5,382.1z"/>
				<path class="st5" d="M189.3,370c-0.7-0.2-1.3,0.1-1.6,0.7c-0.3,0.5-1.1,1.3-0.6,2c0.4,0.7,1,0.2,1.4,0.2c1,0.2,2.1-0.7,2-1.5
					C190.5,370.7,190,370.3,189.3,370z"/>
				<path class="st5" d="M193.6,360.3c0-0.1-0.1-0.1-0.2-0.2c-0.3-0.1-0.6,0.3-0.7,0.5c-0.1,0.1,0,0.5,0.2,0.6
					c0.1,0.1,0.4-0.1,0.5-0.2c0.1,0.5,0.2,0.9,0.7,1c0.6,0.1,1-0.1,1.3-0.7c0.2-0.4,0.2-0.8-0.2-1.1
					C194.8,359.7,194.2,360,193.6,360.3z"/>
				<path class="st5" d="M192.9,375.2c-0.1,0.1,0,0.4,0.2,0.4c0.2,0.1,0.3-0.1,0.4-0.2c0-0.1-0.1-0.3-0.2-0.3
					C193.2,375,193,375,192.9,375.2z"/>
				<path class="st5" d="M220.6,356.7c-0.6,0.3-1.3,1.8-1.1,2.3c0.3,0.6,1.5,0.8,2.3,0.4s0.9-1.1,0.4-2.1
					C222.1,356.7,221.2,356.4,220.6,356.7z"/>
				<path class="st5" d="M186.3,377.1c-0.5,0.2-0.9,0.8-0.6,1.2c0.3,0.5,0.7,0.8,1.3,0.6c0.4-0.1,0.7-0.6,0.7-1
					c0.1,0.2,0.2,0.3,0.4,0.4c0.7,0.3,1.8,0,2.1-0.7c0.3-0.5,0-1.3-0.6-1.6c-0.6-0.3-1.6,0.1-1.9,0.8c-0.1,0.3-0.2,0.5-0.1,0.8
					C187.3,377.1,186.8,376.9,186.3,377.1z"/>
				<path class="st5" d="M210.2,379.5c-0.1-0.1-0.5,0.1-0.5,0.2c0,0.2,0,0.5,0.1,0.6l0.8-0.5C210.5,379.7,210.3,379.6,210.2,379.5z"
					/>
				<path class="st5" d="M208,371.4c0.4,1,1.5,1.7,2.3,1.4c0.9-0.3,1.8-2,1.4-2.8c-0.4-0.9-1.6-1.4-2.5-1
					C208.2,369.3,207.6,370.5,208,371.4z"/>
				<path class="st5" d="M221.7,362.2c0.2-0.1,0.7-0.8,0.5-1.1c-0.1-0.3-1.1-0.4-1.2-0.2c-0.2,0.3-0.5,0.9-0.4,1.1
					C220.9,362.2,221.5,362.3,221.7,362.2z"/>
				<path class="st5" d="M202,349.3c-0.3,0.1-0.2,0.6-0.1,0.8c0,0.1,0.4,0.3,0.6,0.2s0.2-0.5,0.2-0.7
					C202.6,349.6,202.3,349.2,202,349.3z"/>
				<path class="st5" d="M207.2,376.1c-0.7,0.3-1.2,1.5-0.9,2.2c0.2,0.6,1.3,0.9,2,0.5c1-0.4,1.3-1,1-1.7
					C209,376.3,207.9,375.8,207.2,376.1z"/>
				<path class="st5" d="M203.8,362.3c-0.9,0.5-1.2,1.3-0.8,2.1c0.4,0.8,1.4,1.1,2.3,0.7c0.7-0.3,1-1.5,0.6-2.3
					C205.6,362.1,204.7,361.8,203.8,362.3z"/>
				<path class="st5" d="M202.5,381.3c0.3,0.5,1,0.7,1.7,0.4c0.1-0.3,0.3-0.8,0.2-1.2c-0.1-0.6-1-0.8-1.6-0.5
					C202.4,380.2,202.2,380.8,202.5,381.3z"/>
				<path class="st5" d="M206.3,368c-0.4-0.3-0.9-0.1-1.1,0.5c-0.3,0.5,0,0.9,0.5,1c0.3,0.1,1.3,0,1.4-0.3
					C207.1,368.9,206.6,368.3,206.3,368z"/>
				<path class="st5" d="M172.6,382.6c-0.5-0.2-1.1,0.2-1.2,0.7s0.2,1.2,1,1.5c0.3-0.2,0.8-0.4,1-0.7
					C173.7,383.5,173.2,382.8,172.6,382.6z"/>
				<path class="st5" d="M171.9,395.2c1,1.4,2,1.4,2.9,0.3c0.1-0.1,0.2-0.2,0.2-0.4c0.5-0.9,0.3-1.4-0.6-1.8
					c-0.8-0.3-1.5-0.6-2.3,0.4c-0.1-0.6-0.2-0.9-0.1-1.2c0.1-0.6,0-1-0.6-1.3s-1.2-0.4-1.7,0c-1.5,1.2-1.8,1.9-1.1,3.3l2.4,1.4
					C171.1,395.6,171.5,395.5,171.9,395.2z"/>
				<path class="st5" d="M169.9,380.5c0.1-0.3-0.6-1.4-1.5-1.3c-0.5,0-0.9,0.4-1,1.1c-0.1,0.6,0.2,1.1,0.7,1.2
					C169,381.7,169.8,380.8,169.9,380.5z"/>
				<path class="st5" d="M165.1,389.6c-0.3,0.8,0.1,1.7,1.1,2c0.7,0.3,1.3-0.1,1.7-1.1c0.3-0.8,0.1-1.5-0.5-1.7
					C166.8,388.7,165.3,389.2,165.1,389.6z"/>
				<path class="st5" d="M168.3,365.4c-0.5,0.2-1.7,0.2-1.8,1s0.6,0.8,0.8,1.1c0.6,0.8,2,1,2.5,0.4s0.5-1.2,0.1-1.9
					C169.6,365.3,169,365.2,168.3,365.4z"/>
				<path class="st5" d="M273.6,302.6l-0.8-0.5C273,302.4,273.3,302.5,273.6,302.6z"/>
				<path class="st5" d="M280.7,307.3c-0.5,0.2-0.7,0.8-0.4,1.3c0.2,0.5,1,0.8,1.7,0.5c0.1-0.3,0.3-0.8,0.3-1.2l-1.1-0.7
					C281,307.2,280.8,307.2,280.7,307.3z"/>
				<path class="st5" d="M177,367.1c-0.2,0-0.5,0-0.7,0.2c-0.1,0.1,0,0.5,0.1,0.6c0.2,0.1,0.6,0.2,0.8-0.1
					C177.5,367.4,177.1,367.1,177,367.1z"/>
				<path class="st5" d="M151.6,384.2c0.3-0.7,0-1.1-0.4-1.2c-0.4-0.2-0.9-0.2-1,0.4L151.6,384.2z"/>
				<path class="st5" d="M176.1,373.5c-0.1,0.5,0,0.9,0.5,1c0.4,0.1,1.4,0,1.5-0.4s-0.6-1-0.9-1.3
					C176.9,372.6,176.2,373,176.1,373.5z"/>
				<path class="st5" d="M265.4,299.2c0.4,0.7,1,0.2,1.3,0.3c0.5,0.1,1,0,1.4-0.3l-2.4-1.5C265.4,298.2,265.1,298.8,265.4,299.2z"/>
				<path class="st5" d="M233.1,344.2c-0.5,0.1-1,0.7-0.7,1.2c0.2,0.5,0.7,0.8,1.3,0.7c0.5-0.1,0.9-0.7,0.7-1.2
					C234.2,344.4,233.6,344.1,233.1,344.2z"/>
				<path class="st5" d="M185.6,370.7c-1-0.3-1.8,0.1-2,1c-0.3,0.9,0.2,1.8,1.2,2.1c0.7,0.3,1.8-0.3,2-1.2
					C187.1,371.8,186.6,371,185.6,370.7z"/>
				<path class="st5" d="M179.6,362.1c-0.4,0.6-1,1-0.6,1.7c0.3,0.5,0.8,0.6,1.4,0.4c0.5-0.2,0.7-0.5,0.6-1
					C181,362.5,180.4,362.3,179.6,362.1z"/>
				<path class="st5" d="M182.2,380.1c-0.4,1-0.1,2.3,0.7,2.6c0.9,0.4,2.7-0.2,3-1c0.4-0.9-0.2-2.2-1.1-2.5
					C183.8,378.8,182.6,379.2,182.2,380.1z"/>
				<path class="st5" d="M178.3,380.1c0,0.3,0,1.2,0.3,1.4c0.4,0.1,1-0.7,1-1c0.1-0.2-0.3-0.7-0.6-0.8
					C178.8,379.5,178.3,379.6,178.3,380.1z"/>
				<path class="st5" d="M171.5,372.5c-0.4-0.2-1.1,0.1-1.3,0.6s0,1.3,0.5,1.5c0.4,0.2,1.1-0.1,1.3-0.5
					C172.2,373.6,171.9,372.7,171.5,372.5z"/>
				<path class="st5" d="M174.1,390.9c0.5,0.2,0.9,0,1.2-0.5s0.2-1.1-0.1-1.5c-0.6-0.6-1.6-0.3-1.9,0.1
					C173,389.5,173.2,390.6,174.1,390.9z"/>
				<path class="st5" d="M176.2,383.9c-0.2,0.6,0.3,1.5,1,1.8c1,0.4,1.6,0.2,1.9-0.5c0.3-0.8-0.1-1.9-0.8-2.2
					C177.7,382.6,176.5,383.1,176.2,383.9z"/>
				<path class="st5" d="M169,386.8c0.5,0.1,1.2-0.2,1.4-0.7s-0.2-1.2-0.7-1.4c-0.6-0.2-1.2,0.1-1.4,0.6
					C168.1,386,168.4,386.7,169,386.8z"/>
				<path class="st5" d="M221.6,365.9c-0.9,0.4-1.2,1.2-0.9,1.8c0.2,0.4,1.5,0.8,2,0.6c0.6-0.2,0.7-0.8,0.3-1.6
					C222.7,366,222.3,365.7,221.6,365.9z"/>
				<path class="st5" d="M181.3,386.5c-0.1,0-0.3,0.4-0.2,0.5c0.1,0.2,0.4,0.4,0.6,0.3c0.2,0,0.6-0.3,0.5-0.7
					C182,386.3,181.5,386.5,181.3,386.5z"/>
				<path class="st5" d="M266,315.7c-0.5,0-0.7,0.5-0.5,1.1c0.1,0.6,0.6,0.7,1,0.5c0.3-0.2,1-0.8,0.9-1.1
					C267.2,315.9,266.3,315.7,266,315.7z"/>
				<path class="st5" d="M262.7,313.7c-0.2,0.1-0.5,0.3-0.4,0.7s0.5,0.6,0.9,0.4s0.5-0.6,0.3-0.9
					C263.4,313.6,262.9,313.6,262.7,313.7z"/>
				<path class="st5" d="M264.3,303.5c-0.5,0.1-0.9,0.8-0.7,1.2c0.3,0.5,0.7,0.8,1.3,0.7c0.5-0.1,0.8-0.7,0.7-1.2
					S264.9,303.4,264.3,303.5z"/>
				<path class="st5" d="M277.5,325.3c-0.9,0.3-1.5,1.6-1.3,2.6c0.3,1,1.4,1.5,2.7,1.1c1-0.3,1.6-1.3,1.2-2.3
					C279.8,325.6,278.4,324.9,277.5,325.3z"/>
				<path class="st5" d="M280,310.9c-0.6,0.2-0.8,0.9-0.6,1.4c0.3,0.6,1,0.8,1.5,0.6s0.8-0.9,0.5-1.4
					C281.2,310.9,280.5,310.7,280,310.9z"/>
				<path class="st5" d="M272.1,330.6c-0.8,0.4-1.2,1.5-0.9,2.3c0.1,0.2,0.3,0.4,0.5,0.6c-0.2,0.1-0.5,0.2-0.7,0.3
					c0,0.7-0.1,1.4,0.7,1.7c0.5,0.2,1,0,1.3-0.6c0.2-0.4,0.2-0.8-0.1-1.1c0.3,0,0.7-0.1,1-0.2c0.8-0.3,1.1-1.1,0.8-2
					C274.3,330.6,273.2,330.2,272.1,330.6z"/>
				<path class="st5" d="M257.7,344.3c-0.3,0.1-0.7,0.8-0.5,1.3s1.1,0.5,1.6,0.4c0.3-0.1,1.1-1,0.9-1.6
					C259.5,344,258.2,344.1,257.7,344.3z"/>
				<path class="st5" d="M260.4,339.4c-0.1,0.6,0.1,1.1,0.6,1.3c0.2,0.1,0.5,0.2,0.7,0c0.4-0.3,0.8-0.7,1.2-1.1
					c1.3,0.1,2.3-0.3,2.4-1.1c0.1-0.8-0.8-1.9-1.7-2s-1.2,0.3-1.6,2.1C261.3,338.6,260.6,338.5,260.4,339.4z"/>
				<path class="st5" d="M256.5,338c-1,0.3-1.6,1.4-1.4,2.3c0.3,1.1,1.3,1.8,2.2,1.6c1-0.3,1.9-1.9,1.6-2.7
					C258.7,338.4,257.5,337.7,256.5,338z"/>
				<path class="st5" d="M260.4,329.5c-0.1,0-0.2,0.2-0.2,0.3c0,0.1,0.2,0.3,0.4,0.2c0.2-0.1,0.2-0.3,0.2-0.4
					S260.5,329.4,260.4,329.5z"/>
				<path class="st5" d="M259.6,350l0.8-0.5C260.1,349.6,259.8,349.8,259.6,350z"/>
				<path class="st5" d="M281,315.4c-0.5,0.2-1.3,1.6-1.2,2.1c0.3,0.8,1.2,1.1,2.1,0.8c0.7-0.3,0.9-1,0.5-2
					C282.2,315.6,281.6,315.2,281,315.4z"/>
				<path class="st5" d="M220.5,373.8l1.4-0.9c-0.4,0.1-0.8,0.3-1.1,0.6C220.7,373.6,220.6,373.7,220.5,373.8z"/>
				<path class="st5" d="M233.9,359.1c0.2-0.1,0.3-0.6,0.3-0.7c-0.1-0.2-0.3-0.6-0.6-0.5s-0.4,0.5-0.4,0.7
					C233.2,358.7,233.6,359.2,233.9,359.1z"/>
				<path class="st5" d="M233.7,350.7c0.4-0.2,0.4-0.8,0.2-1.4c-0.2-0.4-0.5-0.6-0.9-0.3c-0.4,0.2-0.8,0.6-0.6,1.1
					C232.6,350.5,233.3,350.9,233.7,350.7z"/>
				<path class="st5" d="M232.6,363.4c0.2,0.3,0.7,0.7,1,0.6s0.5-0.6,0.7-0.8c-0.2-0.8-0.7-0.8-1.1-0.7
					C232.8,362.6,232.4,363,232.6,363.4z"/>
				<path class="st5" d="M185.2,387.3c-0.2,0.1-0.5,0.3-0.3,0.7c0.1,0.4,0.5,0.6,0.9,0.4s0.4-0.6,0.2-0.9S185.4,387.2,185.2,387.3z"
					/>
				<path class="st5" d="M296.8,317.8c0.1,0.9,0.8,1,1.6,1.1c0.2-0.3,0.4-0.6,0.5-0.9l-1.7-1C296.9,317.2,296.7,317.5,296.8,317.8z"
					/>
				<path class="st5" d="M281.9,314.2c0.1,0.5,0.8,0.8,1.2,0.7c0.6-0.2,0.9-0.7,0.7-1.4c-0.2-0.6-0.6-0.9-1.2-0.7
					C282,313.1,281.7,313.6,281.9,314.2z"/>
				<path class="st5" d="M180,398.5l1.2-0.7C180.7,397.6,180.3,397.9,180,398.5z"/>
				<path class="st5" d="M225,367.9c0.5,0.8,1.2,1.1,2,1.5c0.2,0.1,0.5,0.1,0.7,0l2.2-1.3c-0.3-0.3-0.3-1.3-1-1.3
					c-0.8,0-1.3-1-2.3-0.8C225.4,366.2,224.5,367,225,367.9z"/>
				<path class="st5" d="M240.5,342.6c-0.1,0-0.3,0.4-0.2,0.5c0.1,0.2,0.4,0.4,0.6,0.3c0.2,0,0.6-0.5,0.5-0.7
					C241.3,342.6,240.8,342.5,240.5,342.6z"/>
				<path class="st5" d="M236.7,337.5c-0.7-0.3-1.3,0-1.6,0.6c-0.3,0.5-1.2,1.2-0.8,1.9c0.4,0.7,1,0.3,1.3,0.4
					c1,0.2,2.2-0.5,2.2-1.3C237.8,338.2,237.4,337.8,236.7,337.5z"/>
				<path class="st5" d="M237.9,349.7c-0.6,0.2-1,1.3-0.7,2s1.1,1,1.9,0.8c0.7-0.3,1-0.7,0.8-1.4
					C239.6,350.1,238.6,349.4,237.9,349.7z"/>
				<path class="st5" d="M254,345c-0.7,0.2-1.3,1.4-1,2.1c0.2,0.6,1.2,1,1.9,0.7c1-0.3,1.4-0.9,1.1-1.7
					C255.8,345.4,254.7,344.8,254,345z"/>
				<path class="st5" d="M240,348.4c0,0.2,0.5,0.7,0.7,0.5c0.2-0.1,0.3-0.6,0.2-0.7c-0.1-0.2-0.4-0.6-0.6-0.5
					C240,347.9,239.9,348.3,240,348.4z"/>
				<path class="st5" d="M233,341.6c-0.6,0.2-0.9,0.8-0.6,1.4c0.2,0.5,0.8,0.8,1.3,0.6c0.6-0.2,0.8-0.8,0.6-1.4
					C234,341.6,233.6,341.4,233,341.6z"/>
				<path class="st5" d="M223.2,363.6c0.1,0.7,0,1.4,0.8,1.6c0.6,0.1,1-0.1,1.3-0.7c0.2-0.4,0.2-0.8-0.2-1.1
					C224.4,362.8,223.8,363.1,223.2,363.6z"/>
				<path class="st5" d="M227.2,339.4c-0.2,0-0.8,0.6-0.7,0.9s0.9,0.4,1,0.3c0.3-0.2,0.6-0.6,0.6-0.8
					C228,339.6,227.4,339.3,227.2,339.4z"/>
				<path class="st5" d="M227.5,351.3c-0.1,0-0.3,0.4-0.2,0.5c0.1,0.2,0.4,0.4,0.6,0.4c0.2,0,0.6-0.3,0.5-0.7
					C228.3,351.1,227.7,351.3,227.5,351.3z"/>
				<path class="st5" d="M231.1,354.3c-0.1,0.1-0.2,0.1-0.3,0.3c-0.6-0.3-1.3-0.5-1.9-0.2c-0.9,0.4-1.4,1.8-1.1,2.7
					c0.4,1,1.5,1.4,2.8,0.9c1-0.4,1.4-1.4,1-2.4c0,0,0-0.1-0.1-0.1c0.4-0.2,0.5-0.5,0.3-0.9C231.6,354.2,231.3,354.3,231.1,354.3z"
					/>
				<path class="st5" d="M231.5,359.7c-0.2,0.1-0.4,0.6-0.3,0.8c0.1,0.3,0.4,0.7,0.7,0.8c0.7,0.2,0.9-0.5,1.1-1
					C232.6,359.7,232.1,359.4,231.5,359.7z"/>
				<path class="st5" d="M246.7,338.1c-0.4,0-0.7,0.7-0.4,1.2c0.2,0.4,0.6,0.7,1,0.5c0.3-0.2,1.1-0.9,0.9-1.2
					C248,338.3,247.1,338.1,246.7,338.1z"/>
				<path class="st5" d="M244.8,353.4c-0.5,0.2-0.7,1.5-0.4,2.2c0.1,0.1,0.2,0.3,0.3,0.3c-0.4-0.1-0.8-0.1-1.2,0.1
					c-0.8,0.3-1.3,1.6-1,2.4c0.2,0.5,0.5,0.8,0.9,1c-0.2,0.1-0.3,0.3-0.3,0.6l3.2-1.9c0-0.2,0-0.5-0.1-0.8c-0.1-0.5-0.5-0.8-0.9-1.1
					c0.3,0,0.5,0,0.7-0.1c0.7-0.4,1.1-1.2,0.8-1.8C246.6,353.6,245.4,353.1,244.8,353.4z"/>
				<path class="st5" d="M243.9,348.6c-0.4,0.4-0.5,0.9-0.1,1.4c0.3,0.5,0.8,0.7,1.4,0.5c0.8-0.4,0.9-1.5,0.7-1.9
					C245.7,348.3,244.5,348,243.9,348.6z"/>
				<path class="st5" d="M247.8,353.4c0.2,0.6,1,0.9,1.5,0.6c0.5-0.2,0.8-0.9,0.6-1.4s-0.9-0.8-1.4-0.6
					C247.9,352.3,247.6,352.9,247.8,353.4z"/>
				<path class="st5" d="M242.8,333.8c-0.2,0.1-0.4,0.4-0.4,0.6c0,0.1,0.4,0.4,0.5,0.3c0.2-0.1,0.6-0.2,0.6-0.6
					C243.4,333.7,242.9,333.7,242.8,333.8z"/>
				<path class="st5" d="M241.4,342.7c0.2,0.6,0.8,1,1.3,0.8s0.8-0.8,0.7-1.3s-0.9-0.9-1.4-0.8C241.6,341.6,241.3,342.2,241.4,342.7
					z"/>
				<path class="st5" d="M242.9,346.4c-0.6,0.3-0.9,0.8-0.7,1.2c0.3,0.5,1.3,0.9,1.8,0.7c0.5-0.2,0.7-0.9,0.4-1.5
					C244.1,346.3,243.5,346.2,242.9,346.4z"/>
				<path class="st5" d="M241.7,328.3c0,0.7-0.1,1.4,0.7,1.7c0.5,0.2,1,0,1.3-0.6c0.3-0.4,0.2-0.8-0.1-1.2
					C243,327.6,242.4,327.9,241.7,328.3z"/>
				<path class="st5" d="M243.5,344.8c0.2-0.1,0.2-0.3,0.1-0.4c0-0.1-0.3-0.1-0.4-0.1c-0.1,0.1-0.2,0.2-0.2,0.3
					S243.3,344.9,243.5,344.8z"/>
			</g>
		</g>
	</g>
</g>
<rect class="st6" width="680" height="400"/>
</svg>
