<?xml version="1.0" encoding="utf-8"?>
<!-- Generator: Adobe Illustrator 25.0.0, SVG Export Plug-In . SVG Version: 6.00 Build 0)  -->
<svg version="1.1" id="Layer_1" xmlns="http://www.w3.org/2000/svg" xmlns:xlink="http://www.w3.org/1999/xlink" x="0px" y="0px"
	 viewBox="0 0 680 400" style="enable-background:new 0 0 680 400;" xml:space="preserve">
<style type="text/css">
	.st0{clip-path:url(#SVGID_2_);}
	.st1{fill:#E6EBF2;}
	.st2{fill:#D3DAE0;}
	.st3{fill:#41A3DB;}
	.st4{fill:#0D90E0;}
	.st5{fill:#294492;}
	.st6{fill:none;}
</style>
<g>
	<defs>
		<rect id="SVGID_1_" y="73" width="384.1" height="327"/>
	</defs>
	<clipPath id="SVGID_2_">
		<use xlink:href="#SVGID_1_"  style="overflow:visible;"/>
	</clipPath>
	<g class="st0">
		<path class="st1" d="M339.5,195c0.5,0.1,1.5-0.4,1.5-0.8c0.1-0.6-0.5-1.4-1.1-1.5s-1.1,0.3-1.2,0.9
			C338.6,194.2,339,194.9,339.5,195z"/>
		<path class="st1" d="M341.7,196.3c-0.8-0.2-1.4,0.3-1.6,1.2c-0.2,0.8,0.3,1.3,1.3,1.5c0.7,0.1,1.2-0.1,1.4-0.6
			C342.9,197.8,342.2,196.4,341.7,196.3z"/>
		<path class="st1" d="M342.2,186.9c0.3-0.2,0.2-0.9,0.2-1.4c0-0.1,0-0.4-0.4-0.5c-0.4-0.1-1.2,0.5-1.2,1.1
			C340.8,186.7,341.6,187.2,342.2,186.9z"/>
		<path class="st1" d="M298.1,151.8c0.2,0.1,0.8-0.1,0.8-0.3c0-0.2-0.4-0.6-0.6-0.6c-0.2,0-0.6,0.1-0.6,0.4
			C297.7,151.6,297.9,151.8,298.1,151.8z"/>
		<path class="st1" d="M334,206c0.5,0.1,1.5-0.7,1.5-1.3c0.1-0.5-0.4-1.2-0.9-1.3c-1.1-0.2-1.9,0.2-2,0.8
			C332.5,204.9,333.3,205.9,334,206z"/>
		<path class="st1" d="M330.2,199.3c-0.2,0.4,0.2,1.3,0.7,1.5c0.4,0.2,0.9,0,1.1-0.5c0.3-0.8,0.3-1.5-0.1-1.7
			C331.5,198.4,330.4,198.9,330.2,199.3z"/>
		<path class="st1" d="M335.5,195.8c-0.3,0.2-0.5,0.6-0.5,0.9c0,0.2,0.3,0.6,0.6,0.7c0.5,0.2,1.1,0.3,1.6,0.5
			c0.5,0.1,0.7-0.1,0.8-0.7c-0.1-0.1-0.2-0.4-0.3-0.4c-0.6-0.2-0.8-0.6-1.1-1C336.4,195.7,335.8,195.7,335.5,195.8z"/>
		<path class="st1" d="M343.4,193.5c0.5,0.2,1.1-0.2,1.2-0.7c0.1-0.6-0.2-0.9-0.7-1c-0.5-0.1-0.8,0.1-1,0.6
			C342.7,192.8,342.9,193.3,343.4,193.5z"/>
		<path class="st1" d="M330.8,180.2c-0.2,0-0.5,0.2-0.6,0.4c-0.1,0.1,0,0.6,0.3,0.7c0.3,0.1,0.5-0.4,0.6-0.6
			C331.1,180.6,331,180.2,330.8,180.2z"/>
		<path class="st1" d="M334.9,193.8c0.6,0.2,1.4-0.5,1.6-1.5c0.1-0.6-0.2-0.9-0.7-1c-0.8-0.2-1.7,0.2-1.8,0.7
			C333.9,192.7,334.4,193.7,334.9,193.8z"/>
		<path class="st1" d="M353.1,214.5c0.1-0.3-0.2-0.5-0.3-0.5c-0.2,0-0.7-0.1-0.8,0.2c-0.1,0.3,0.3,0.6,0.5,0.6
			S353,214.8,353.1,214.5z"/>
		<path class="st1" d="M353.1,200.5c0.6-0.3,0.2-1.7-0.5-2c-0.7-0.3-1.6,0.2-1.6,0.8C351,199.8,352.5,200.8,353.1,200.5z"/>
		<path class="st1" d="M354,276.4c0.5-0.2,0.5-0.6,0-1.6c-0.8-0.3-1.4,0.7-1.2,1.2C353,276.3,353.6,276.5,354,276.4z"/>
		<path class="st1" d="M352.7,250c0.2-0.5-0.1-0.9-0.5-1.1c-0.4-0.2-0.8,0-1.1,0.4c-0.3,0.5-0.1,1,0.3,1.2
			C351.9,250.7,352.6,250.5,352.7,250z"/>
		<path class="st1" d="M344.1,212.2c-0.5,0.8-0.1,1.2-0.4,1.7c-0.3,0.5-0.2,0.8,0.2,1.3c0.4,0.5,1.1,1.2,1.7,0.6
			c0.7-0.6,0.3-1.1,0.1-1.3c-0.2-0.2-0.2-0.7,0.1-0.6c0.3,0.1,0.6,0,0.9-0.7c0.3-0.7,0.2-1.2-0.4-1.6
			C345.6,211.1,344.5,211.4,344.1,212.2z"/>
		<path class="st1" d="M350.2,218.6c0.5-0.3,0.4-0.7-0.3-1.6c-0.9-0.1-1.2,0.9-1,1.3C349.1,218.7,349.8,218.8,350.2,218.6z"/>
		<path class="st1" d="M345.9,226.4c-0.3,0.8,0.2,2,0.8,2.2c0.8,0.3,1.9-0.3,2.2-1.1c0.3-0.8-0.5-1.9-1.4-2.2
			C346.8,225.1,346.2,225.6,345.9,226.4z"/>
		<path class="st1" d="M349.3,206c0.7,0.4,1.3,0.9,2.2,0.8c0.2-0.3,0.4-0.6,0.6-0.9c1,0,1.9-0.4,1.9-1c0.1-0.5-0.2-0.9-0.6-1.1
			c-0.8-0.4-1.2-0.2-1.9,0.6c-0.7,0.1-1.4,0.1-2.1,0.3C348.9,204.8,348.7,205.7,349.3,206z"/>
		<path class="st1" d="M349.5,201.4c0.4,0.1,0.6-0.4,0.5-0.5c0-0.2-0.1-0.5-0.4-0.6c-0.3-0.1-0.5,0.2-0.5,0.3
			C349.1,200.8,349.1,201.2,349.5,201.4z"/>
		<path class="st1" d="M328.3,195.9c1.1,0.3,2-0.2,2.3-1.4c0.2-0.9-0.3-1.9-1.2-2.2c-0.8-0.3-2,0.6-2.2,1.8
			C326.9,195,327.4,195.7,328.3,195.9z"/>
		<path class="st1" d="M311.3,170.9c0.1,0.5,1.6,0.7,1.9,0.2c0.2-0.4,0-1.2-0.4-1.4C312.3,169.4,311.2,170.4,311.3,170.9z"/>
		<path class="st1" d="M307.8,160.8c-0.2,1.2,0.5,2.2,1.7,2.4c1,0.1,1.8-0.4,1.9-1.2c0.2-1.1-0.7-2.6-1.6-2.7
			C308.9,159.2,308,159.9,307.8,160.8z"/>
		<path class="st1" d="M312.8,186.2c0,0.3,0,1.3,0.5,1.3s1-0.7,1.1-1c0.1-0.5-0.2-0.9-0.8-1C313.1,185.4,312.8,185.8,312.8,186.2z"
			/>
		<path class="st1" d="M306.8,151.7c1,0.1,2.2-0.8,2.3-1.7c0.2-1.1-0.6-2.3-1.5-2.4c-0.9-0.1-2.5,1-2.6,1.9
			C304.8,150.5,305.7,151.6,306.8,151.7z"/>
		<path class="st1" d="M302.2,172.8c0,0.1,0,0.4,0.2,0.6c0,0.1,0,0.2-0.1,0.3c0,0.5,0.1,0.9,0.6,1c1.2,0.3,2.4,0.5,3.6,0.1
			c0.2-0.1,0.4-0.3,0.5-0.3c0.8-1,0.5-2.1-0.7-2.4c-0.7-0.2-1.5-0.2-2.3-0.2c-0.4,0-0.8,0.3-1.1,0.6h-0.1
			C302.6,172.4,302.2,172.6,302.2,172.8z"/>
		<path class="st1" d="M300,168.8c0.4,0.5,1.4,0.4,1.8-0.4c0.1-0.3,0-1-0.2-1.3c-0.2-0.2-0.8-0.3-1.1-0.2
			C299.6,167.3,299.6,168.4,300,168.8z"/>
		<path class="st1" d="M314.5,156.9c0.2-0.1,0.4-0.5,0.3-0.8c0-0.2-0.5-0.6-0.9-0.5c-0.3,0.1-0.4,0.9-0.3,1
			C313.8,156.8,314.3,157,314.5,156.9z"/>
		<path class="st1" d="M299.3,166.1c0.6,0.1,1.2-0.3,1.3-0.8c0.1-0.6-0.3-1.3-0.9-1.4c-0.6-0.1-1.1,0.3-1.2,0.9
			C298.4,165.5,298.8,166,299.3,166.1z"/>
		<path class="st1" d="M302.9,161c0-0.6,0.2-1.4-0.7-1.6c-0.6-0.2-1.1,0-1.3,0.6c-0.1,0.3-0.1,0.8,0.1,1
			C301.3,161.5,301.8,161.5,302.9,161z"/>
		<path class="st1" d="M316.9,177.8c0.4,0.3,1.6,0.1,1.7-0.4c0.2-0.6,0.1-1-0.4-1.2c0.3-0.2,0.5-0.6,0.6-0.9
			c0.1-0.6-0.2-1.1-0.9-1.2c-0.6-0.1-1.1,0.2-1.2,0.7c-0.1,0.5,0.1,1.1,0.4,1.5C316.6,176.5,316.6,177.5,316.9,177.8z"/>
		<path class="st1" d="M325,189c1,0.1,2.1-0.6,2.3-1.5c0.1-0.6-0.5-1.4-1.2-1.5c-1.1-0.2-1.8,0.3-2,1.3
			C323.9,188,324.3,188.9,325,189z"/>
		<path class="st1" d="M323.6,181.1c0.2,0,0.5-0.3,0.5-0.5c0-0.2-0.2-0.5-0.4-0.6c-0.2,0-0.7,0-0.7,0.5
			C322.9,181.1,323.4,181.1,323.6,181.1z"/>
		<path class="st1" d="M231.1,104.4c0.3,0.2,0.7,0.4,1,0.6c0-0.1-0.1-0.2-0.2-0.3C231.8,104.5,231.4,104.4,231.1,104.4z"/>
		<path class="st1" d="M321.5,182.9c0.7,0.3,1.5-0.1,1.7-0.7c0.2-0.6-0.3-1.4-0.8-1.5c-0.5-0.1-1.2,0.5-1.5,1.4
			C321,182.4,321.2,182.8,321.5,182.9z"/>
		<path class="st1" d="M318,168.4c0.3,0,1.1-0.1,1.2-0.7c0.1-0.6-0.7-0.8-0.9-0.8c-0.3,0-0.7,0.3-0.8,0.5
			C317.2,167.9,317.6,168.4,318,168.4z"/>
		<path class="st1" d="M316.1,180.6c0.2,0,0.7,0,0.8-0.4c0.1-0.4-0.3-0.6-0.5-0.7c-0.2-0.1-0.9-0.1-1,0.4
			C315.2,180.3,315.8,180.5,316.1,180.6z"/>
		<path class="st1" d="M330.3,178.4c0.3,0.1,0.5-0.2,0.6-0.4c0.1-0.2,0-0.8-0.3-0.8c-0.3-0.1-0.6,0.4-0.7,0.6
			C330,177.9,330.1,178.3,330.3,178.4z"/>
		<path class="st1" d="M320.5,186.4c0.5,0.2,0.7-0.3,0.8-0.7c0.1-0.5-0.2-1.1-0.7-1c-0.3,0.1-1.2,0.1-1.2,0.7
			C319.4,185.9,320.1,186.2,320.5,186.4z"/>
		<path class="st1" d="M314.7,188.1c0,0.2,0.1,0.2,0.2,0.3c0.1-0.1,0.3-0.1,0.3-0.2c0-0.1-0.1-0.3-0.1-0.3
			C315,188,314.8,188,314.7,188.1z"/>
		<path class="st1" d="M341.3,206.1c-0.2,0.4-0.5,1.3-0.2,2c0.3,0.6,0.9,1,1.5,1s1.1-0.4,1.3-0.8c0.2-0.4,0.5-1.1,0.1-1.6
			c-0.3-0.5-0.5-1.2-1-1.3c-0.5-0.1-0.7,0-0.9,0.1C341.9,205.7,341.6,205.7,341.3,206.1z"/>
		<path class="st1" d="M315.9,188.8c0.1,0.2,0.1,0.5,0.1,0.7c0,0,0,0,0,0.1c-0.1,0.6,0.6,1.6,1.3,1.7c0.5,0.1,1.3-0.3,1.4-0.8
			c0.3-1-0.1-2-0.8-2.2c-0.3-0.1-0.7,0.1-1,0.3C316.3,188.5,316,188.7,315.9,188.8z"/>
		<path class="st1" d="M304.9,182.9c-0.3,0.3-0.4,0.6-0.4,0.9c1.8,1,3.5,2.1,5.2,3.2c0.8,0.5,1.6,1.1,2.3,1.6
			c0.3-0.2,0.5-0.5,0.5-0.8c0.1-0.8-0.6-1.8-1.3-2c-0.3-0.1-0.6,0.1-0.9,0.3c0.2-0.9-0.3-2-1-2.1c-0.3-0.1-0.7,0-1,0.2
			c0.2-0.6,0.1-1.3-0.5-1.8C306.6,181.8,305.6,182.1,304.9,182.9z"/>
		<path class="st1" d="M285.9,171.8c0.3-0.1,0.5-0.1,0.7-0.3c0.6-0.5,0.8-1.6,0.4-2.5c-0.3-0.6-0.7-1.1-0.2-1.8
			c0.3-0.5-0.1-1-0.7-1.2c-0.8,0.3-1,0.8-0.7,1.5c-0.3,0.2-0.6,0.4-0.8,0.5C284.9,169.3,285.4,170.6,285.9,171.8z"/>
		<path class="st1" d="M300.4,177.2c-0.6-0.1-1.1,0.1-1.4,0.4c-0.8-0.2-1.3-0.1-1.4,0.9c-0.1,0.9,1,1.2,1.5,1
			c0.3,0.5,0.8,0.8,1.2,0.8c0.2,0,0.4-0.1,0.6-0.2c-0.1,0.3-0.1,0.8,0.3,0.9c0.5,0.2,0.8-0.5,0.8-0.7c0-0.2,0-0.7-0.4-0.8
			c-0.1,0-0.2,0-0.3,0c0.1-0.2,0.2-0.4,0.2-0.6C301.9,177.9,301.4,177.3,300.4,177.2z"/>
		<path class="st1" d="M308.1,167.3c-0.2-0.4-2,0.4-2.1,0.9c-0.1,0.5,0.8,1,1.6,0.8C308.5,168.8,308.3,167.6,308.1,167.3z"/>
		<path class="st1" d="M308.5,172.3c-0.2,0.2,0,0.7,0.2,0.8c0.2,0.1,0.5,0.2,0.7,0c0.2-0.2,0.1-0.6-0.1-0.8
			C309.3,172.3,308.8,172.1,308.5,172.3z"/>
		<path class="st1" d="M309.2,177.9c0.1,0.4,0.3,0.9,0.7,1.1c0.4,0.2,1.1-0.3,1-0.8c0-0.3-0.3-0.6-0.4-0.8
			C309.7,177.1,309.2,177.4,309.2,177.9z"/>
		<path class="st1" d="M309.5,181.7c0,0.1,0,0.4,0.2,0.4c0.2,0,0.2-0.1,0.3-0.2c-0.1-0.1-0.1-0.3-0.2-0.4
			C309.7,181.5,309.5,181.6,309.5,181.7z"/>
		<path class="st1" d="M310.2,180c-0.1,0.5,0.1,0.8,0.2,0.9c0.5-0.1,1.4,0.1,1.6-0.4c0.2-0.6-0.6-1.1-0.8-1.5c-0.1,0-0.2,0-0.3,0
			C310.3,179.3,310.2,179.5,310.2,180z"/>
		<path class="st1" d="M306.3,178.9c-0.1,0.5,0.3,1,0.8,0.9c0.4,0,0.8-0.2,1-0.5c0.2-0.3-0.2-1.3-0.6-1.3
			C306.9,178,306.4,178.4,306.3,178.9z"/>
		<path class="st1" d="M358.1,236.9c0.2-0.7-0.2-1.7-0.8-2c-0.6-0.2-1.4,0.4-1.7,1.4c-0.2,0.5,0.2,1.2,0.8,1.4
			C356.9,237.9,357.9,237.5,358.1,236.9z"/>
		<path class="st1" d="M356,258.3c0,0.2-0.1,0.7,0.2,0.8c0.3,0.2,0.6-0.3,0.6-0.4c0-0.2,0-0.5-0.3-0.7
			C356.2,257.8,356,258.2,356,258.3z"/>
		<path class="st1" d="M358.1,257.4c-0.1,0.5,1.2,1.7,1.8,1.5c0.6-0.2,0.5-1.7-0.1-2C359.1,256.7,358.2,256.9,358.1,257.4z"/>
		<path class="st1" d="M358.1,221.2c0.5-0.3,0.5-1.3-0.3-1.6c-0.9-0.1-1.2,0.9-1,1.3C357,221.3,357.7,221.4,358.1,221.2z"/>
		<path class="st1" d="M351.3,285c0.4-0.7-0.1-1.8-0.9-2.3c-0.2,1.1-0.4,2.1-0.6,3.2C350.4,285.8,351.1,285.5,351.3,285z"/>
		<path class="st1" d="M277.2,147.8c0.1-0.6-0.3-1.1-0.9-1.2c-0.7-0.1-1.2,0.2-1.3,0.8c-0.1,0.6,0.3,1.2,0.8,1.3
			C276.4,148.7,277.1,148.3,277.2,147.8z"/>
		<path class="st1" d="M188.3,82.8c0.4-0.3,0.5-1.2,0.1-1.6c-0.3-0.4-1-0.4-1.4,0c-0.4,0.4-0.5,1.2-0.1,1.6
			C187.2,83.1,187.9,83.1,188.3,82.8z"/>
		<path class="st1" d="M352.5,220.9c-0.9-0.1-1.7,0.4-2.2,1.1c-0.2,0.2-0.3,0.6-0.2,0.9c0.3,1.1,1.1,1.7,2.3,1.6
			c0.2,0,0.5,0,0.7-0.1c0,0.5,0,0.9,0.1,1.3c0.1,0.8,0.5,1.1,1.3,1c0.7,0,1.3-0.4,1.5-1.1c0.3-0.7-0.1-1.2-0.5-1.7
			c-0.3-0.3-0.8-0.5-1.2-0.7c0-0.2,0-0.5-0.1-0.7C354,221.8,353.3,220.9,352.5,220.9z"/>
		<path class="st1" d="M290.6,175.4c0.1-0.6-0.2-1-0.8-1.1c-1.1-0.2-2,0.2-2.1,0.9c0,0.3,0.1,0.7,0.3,1c0.6,0.2,1.3,0.5,1.9,0.7
			c0-0.1-0.1-0.2-0.2-0.3C290.2,176.3,290.5,175.8,290.6,175.4z"/>
		<path class="st1" d="M332.8,208.3c-0.2-0.1-0.4-0.1-0.6-0.1c0.5,0.7,1.1,1.4,1.6,2.1c0.1-0.1,0.2-0.3,0.2-0.4
			C334.1,209.2,333.7,208.6,332.8,208.3z"/>
		<path class="st1" d="M318.8,184.5c0.2-0.4-0.3-1.1-0.8-1.1c-0.3,0-0.6,0.3-0.7,0.4c-0.1,0.7,0.3,1.3,0.7,1.2
			C318.3,185.1,318.7,184.8,318.8,184.5z"/>
		<path class="st1" d="M335.8,208.1c0,0.2,0.4,0.5,0.7,0.5s0.4-0.4,0.3-0.7c0-0.2-0.4-0.5-0.6-0.4
			C336,207.6,335.8,207.8,335.8,208.1z"/>
		<path class="st1" d="M337.8,200.6c-0.8-0.2-1.4,0.3-1.6,1.4c-0.1,0.6,0.4,1.4,1,1.5c0.7,0.1,2.1-0.7,2.2-1.2
			C339.6,201.6,338.8,200.8,337.8,200.6z"/>
		<path class="st1" d="M289.7,171.8c-0.6-0.1-1.3,0.4-1.3,1c0,0.6,0.5,1.2,1.1,1.3c0.6,0,1.2-0.4,1.2-0.9
			C290.7,172.5,290.3,171.9,289.7,171.8z"/>
		<path class="st1" d="M288.4,161.3c-0.8-0.1-1.9,0.8-2,1.7c-0.1,0.7,0.3,1.3,1.2,1.4c1,0.2,1.6-0.3,1.8-1.3
			C289.5,162.3,289,161.4,288.4,161.3z"/>
		<path class="st1" d="M338.6,216.9c-0.2-0.1-0.3,0-0.5,0c0.3,0.4,0.5,0.9,0.8,1.4c0.1-0.1,0.1-0.2,0.1-0.3
			C339.2,217.5,339.2,217,338.6,216.9z"/>
		<path class="st1" d="M294.2,177.6c-0.5-0.1-1,0.1-1.4,0.4c0.9,0.4,1.9,0.8,2.8,1.2C295.3,178.4,294.8,177.7,294.2,177.6z"/>
		<path class="st1" d="M328.8,204.1c0.2,0.2,0.3,0.4,0.5,0.6C329.3,204.4,329.1,204.2,328.8,204.1z"/>
		<path class="st1" d="M336.7,214.6c-0.2-0.4-0.3-0.8-0.5-1.2c-0.1-0.2-0.3-0.3-0.5-0.5C336,213.5,336.3,214.1,336.7,214.6z"/>
		<path class="st1" d="M352.9,245.4c0.5-0.1,0.9-0.4,0.9-1c0-0.3-0.2-0.8-0.4-1c-0.7-0.4-1.3,0-1.8,0.7
			C351.9,244.8,352.1,245.5,352.9,245.4z"/>
		<path class="st1" d="M351.5,241.8c-0.4-0.1-1.3,0.3-1.4,0.9c-0.1,0.6,0.6,1.3,1.2,1c0.3-0.1,0.4-0.9,0.5-1.3
			C351.9,242.3,351.9,242,351.5,241.8z"/>
		<path class="st1" d="M339.6,219.3c0.9,1.5,1.7,3.1,2.4,4.6c0.1-0.7-0.6-1.4-0.6-2.2C341.4,220,340.6,219.4,339.6,219.3z"/>
		<path class="st1" d="M322.1,196.9c0.6,0.1,1.1-0.3,1.2-0.9c0.1-0.4-0.1-0.7-0.3-0.9c0.9,0.1,2.1-0.7,2.3-1.6
			c0.3-1-0.5-2.1-1.9-2.4c-1-0.3-1.9,0.3-2.2,1.2c-0.3,0.9,0.2,2.1,1.1,2.6c-0.6,0-1.4,0.4-1.4,0.9c0,0.1,0,0.2,0.1,0.3
			c0.3,0.3,0.7,0.6,1,0.9C322,196.9,322,196.9,322.1,196.9z"/>
		<path class="st1" d="M350.8,232.1c-0.7-0.2-1.7,0.2-1.8,0.7c-0.2,0.7,0.4,1.9,1.1,2.1c0.7,0.2,1.6-0.4,1.9-1.2
			C352.2,233,351.8,232.4,350.8,232.1z"/>
		<path class="st1" d="M344.6,225c0.3-0.2,0.6-0.7,0.5-1c-0.1-0.8-0.8-1-1.6-0.9c-0.4,0.5-0.8,1-0.4,1.6
			C343.6,225.1,344.2,225.3,344.6,225z"/>
		<path class="st1" d="M338.8,212.4c0.1-0.3,0-0.5-0.3-0.6c-0.3-0.1-0.5,0-0.6,0.2c-0.1,0.3-0.1,0.5,0.2,0.6
			C338.5,212.7,338.7,212.7,338.8,212.4z"/>
		<path class="st1" d="M344.7,230c0,0.1,0.1,0.2,0.1,0.4C344.8,230.2,344.8,230.1,344.7,230z"/>
		<path class="st1" d="M347.8,238.7c0.2,0.7,0.4,1.4,0.6,2.1c0.1-0.1,0.1-0.3,0.2-0.4C348.7,239.7,348.4,239.1,347.8,238.7z"/>
		<path class="st1" d="M257.9,109c0.4-0.1,0.3-0.6,0.2-0.7c-0.1-0.2-0.4-0.3-0.6-0.3c-0.1,0-0.3,0.4-0.3,0.5
			C257.3,108.6,257.5,109,257.9,109z"/>
		<path class="st1" d="M195.6,79.1c0.3-0.2,0.1-0.7,0-0.7c-0.2-0.1-0.5-0.2-0.7-0.1c-0.1,0-0.2,0.5-0.1,0.6
			C195,79,195.3,79.3,195.6,79.1z"/>
		<path class="st1" d="M201.8,91.5c0.7,0.2,1.3,0.4,2,0.6c0-0.1-0.1-0.3-0.2-0.4C203.2,91.2,202.4,91.2,201.8,91.5z"/>
		<path class="st1" d="M236.7,96.2c0.4-0.1,0.2-0.7,0.1-0.9c0-0.1-0.5-0.3-0.5-0.2c-0.2,0.1-0.4,0.4-0.3,0.6
			C236,95.9,236.3,96.4,236.7,96.2z"/>
		<path class="st1" d="M199.8,85.3c-0.6,0.7-0.5,1.7,0.2,2.4c0.5,0.5,1.7,0.4,2.4-0.2c0.6-0.7,0.5-1.6-0.3-2.3
			C201.3,84.6,200.4,84.6,199.8,85.3z"/>
		<path class="st1" d="M200,77.3c0.5,0,0.8-0.1,1-0.6c0.3-0.8-0.2-1.2-0.9-1.7c-0.6,0.3-1.3,0.5-1.2,1.3
			C199,76.9,199.4,77.2,200,77.3z"/>
		<path class="st1" d="M178.9,83.5c0.7-0.7,0.9-1.9,0.3-2.4c-0.5-0.4-1.5-0.3-2.1,0.3c-0.5,0.5-0.4,1.5,0.2,2
			C177.8,83.9,178.4,83.9,178.9,83.5z"/>
		<path class="st1" d="M181.9,75.8c0.4-0.3,0.4-1,0.1-1.4c-0.3-0.4-1.1-0.5-1.4-0.1c-0.3,0.4-0.4,1-0.1,1.4
			C180.8,76.1,181.5,76.1,181.9,75.8z"/>
		<path class="st1" d="M181.5,86.5c-0.1,0.2-0.2,0.4-0.2,0.6c0.8,0.1,1.6,0.2,2.4,0.3c0-0.5-0.3-1.2-0.9-1.5
			C182.4,85.8,181.8,86,181.5,86.5z"/>
		<path class="st1" d="M188.7,76.3c0.7-0.3,0.9-0.9,0.9-1.7c0-0.8-0.6-1.1-1.2-1.2c-0.5-0.1-1.6-0.5-2.1,0.2c-0.5,0.7,0.2,1,0.3,1.4
			C186.8,75.9,188,76.6,188.7,76.3z"/>
		<path class="st1" d="M207.4,92.7c0.1-0.1,0-0.3-0.1-0.4c-0.1-0.1-0.3-0.1-0.4,0c-0.1,0.1-0.2,0.3,0,0.5
			C207.1,92.9,207.3,92.8,207.4,92.7z"/>
		<path class="st1" d="M231.9,102.7c0.1,0.2,0.6,0.2,0.7,0.2c0.2-0.1,0.6-0.4,0.4-0.6c-0.1-0.2-0.5-0.3-0.7-0.3
			C232.2,102,231.7,102.5,231.9,102.7z"/>
		<path class="st1" d="M231.9,99.5c0.2-0.1,0.2-0.8,0.1-1s-0.9-0.5-1.1-0.3c-0.2,0.2-0.1,1,0.1,1.1
			C231.1,99.5,231.7,99.7,231.9,99.5z"/>
		<path class="st1" d="M236.1,100.2c0.3-0.2,0.3-0.7,0.1-0.8c-0.1-0.2-0.3-0.5-0.7-0.3s-0.5,0.5-0.3,0.9
			C235.4,100.4,235.8,100.4,236.1,100.2z"/>
		<path class="st1" d="M228.5,102.9c0-0.1,0-0.3-0.1-0.4c-0.2-0.4-0.6-0.8-1-0.4l-0.1,0.1C227.7,102.4,228.1,102.6,228.5,102.9z"/>
		<path class="st1" d="M212.9,87.2c-0.2,0.1-0.4,0.7-0.2,0.9c0.2,0.2,0.8,0,0.9-0.1c0.1-0.1,0.3-0.5,0.1-0.7
			C213.5,87,213.1,87.1,212.9,87.2z"/>
		<path class="st1" d="M213.4,79.6c0.1-0.1,0.3-0.5,0.1-0.7s-0.7,0.1-0.8,0.2c-0.1,0.1-0.2,0.5,0,0.6
			C212.8,79.8,213.2,79.7,213.4,79.6z"/>
		<path class="st1" d="M212.8,94.4c0.3-0.3-0.2-1.2-0.5-1.5c-0.3-0.4-0.7-0.3-1.1,0.1c-0.3,0.4-0.4,0.8,0,1.1
			C211.6,94.3,212.5,94.7,212.8,94.4z"/>
		<path class="st1" d="M222.2,92.6c0.2-0.2,0-1.1-0.1-1.4c-0.2-0.4-0.8-0.4-1.2,0c-0.5,0.4-0.3,0.8,0,1.1
			C221.2,92.5,222,92.8,222.2,92.6z"/>
		<path class="st1" d="M171.2,78c0.3,0.3,0.7,0.2,0.9-0.1c0.2-0.3,0-0.7-0.1-0.8c-0.2-0.1-0.5-0.3-0.8,0S170.9,77.7,171.2,78z"/>
		<path class="st1" d="M193.8,85.4c0.3-0.3-0.1-1.2-0.3-1.5c-0.2-0.4-0.9-0.3-1.2,0.1s-0.4,0.9,0,1.1
			C192.6,85.3,193.5,85.7,193.8,85.4z"/>
		<path class="st1" d="M352.4,289.8c-0.6-0.3-1.7-0.1-1.9,0.4c-0.3,0.7,0.1,1.9,0.8,2.2c0.7,0.3,1.7-0.1,2-0.9
			C353.7,290.9,353.4,290.3,352.4,289.8z"/>
		<path class="st1" d="M346.5,308.4c-0.3-0.1-0.8,0.1-1.1,0.2c-0.3,0.7,0,1.1,0.4,1.3c0.4,0.2,0.9,0.2,1.1-0.3
			C346.9,309.1,346.8,308.5,346.5,308.4z"/>
		<path class="st1" d="M171.5,74c0.4-0.3,0-0.7-0.2-0.9c-0.1-0.1-0.5-0.1-0.6,0c-0.1,0.2-0.2,0.5-0.1,0.7
			C170.7,73.9,171.1,74.2,171.5,74z"/>
		<path class="st1" d="M358.6,284.3c0.4-0.6,0.2-1.2-0.3-1.7c-0.3-0.4-0.7-0.6-1.1-0.9c0-0.2,0-0.5,0-0.7c0-0.9-0.6-1.8-1.4-2
			c-0.9-0.2-1.7,0.1-2.4,0.7c-0.2,0.2-0.4,0.6-0.3,0.9c0.1,1.2,0.8,1.9,2,2c0.2,0,0.5,0,0.7,0c0,0.5-0.1,0.9-0.1,1.3
			c0,0.8,0.3,1.1,1.1,1.2C357.7,285.3,358.3,285,358.6,284.3z"/>
		<path class="st1" d="M351.2,301.8c0.2,0.7,0.2,1.4,1.1,1.4c0.5,0,1-0.3,1-0.8c0-0.3,0-0.8-0.3-1
			C352.4,300.8,351.9,301.2,351.2,301.8z"/>
		<path class="st1" d="M357,272.9c0.2,0,0.5,0.2,0.7-0.1c0.2-0.3-0.1-0.5-0.2-0.6c-0.2-0.1-0.7-0.2-0.9,0.1
			C356.4,272.6,356.8,272.8,357,272.9z"/>
		<path class="st1" d="M361.4,278.6c-0.8-0.3-1.4,0.7-1.2,1.2c0.2,0.4,0.8,0.6,1.2,0.5C361.9,280,362.2,279,361.4,278.6z"/>
		<path class="st1" d="M359.7,262.2c-0.8-0.5-1.1-0.4-1.9,0.3c-0.7,0-1.4-0.1-2.1-0.1c-0.7,0.1-1,0.9-0.4,1.2
			c0.6,0.5,1.1,1.1,2.1,1.1c0.2-0.2,0.5-0.5,0.8-0.7c1,0.2,1.9-0.1,2.1-0.7C360.3,262.9,360.1,262.5,359.7,262.2z"/>
		<path class="st1" d="M358.3,293.6c-0.6-0.3-1.5,0.2-1.9,1.1c-0.2,0.5,0,1.2,0.5,1.5c0.6,0.3,1.6,0.1,1.9-0.5
			C359.1,295,358.9,293.9,358.3,293.6z"/>
		<path class="st1" d="M347.4,295.1c-0.4,1.1-0.8,2.2-1.1,3.3c0.1,0.1,0.3,0.1,0.4,0.2c0.8,0.3,1.9-0.2,2.2-1.1
			C349.2,296.7,348.5,295.5,347.4,295.1z"/>
		<path class="st1" d="M164.8,86c0.6,0,1.2,0,1.7,0c0.1-0.6-0.2-0.9-0.6-1.1c-0.4-0.2-0.8-0.1-1.2,0.1c-0.5,0.3-0.8,0.6-0.8,1
			C164.2,86,164.5,86,164.8,86z"/>
		<path class="st1" d="M165.5,83.8c0.6-0.6,0.4-1,0.1-1.3c-0.3-0.3-0.8-0.5-1.1-0.1c-0.2,0.3-0.3,0.9-0.1,1.1
			C164.7,83.8,165.2,83.8,165.5,83.8z"/>
		<path class="st1" d="M169.7,81.5c0.1-0.2,0.4-0.6,0.2-0.7c-0.2-0.2-0.6-0.1-0.8,0c-0.2,0.1-0.4,0.7-0.2,0.9
			C169.1,81.9,169.6,81.6,169.7,81.5z"/>
		<path class="st1" d="M157.3,86.3c-0.1-0.1-0.1-0.1-0.2-0.2c-0.4-0.2-0.9-0.1-1.2,0.3C156.4,86.3,156.8,86.3,157.3,86.3z"/>
		<path class="st1" d="M343.1,311.9c-0.3-0.1-0.6,0.2-0.7,0.4c-0.1,0.2-0.2,0.7,0.1,0.8c0.3,0.1,0.6-0.1,0.7-0.3
			C343.3,312.7,343.4,312,343.1,311.9z"/>
		<path class="st1" d="M334.8,321.9c-0.3-0.2-0.8-0.1-1.1,0.1c-0.1,0.1-0.2,0.3-0.3,0.4c-0.2,0.4,0,1,0.5,1.3
			c0.5,0.3,1.2,0.1,1.3-0.4C335.4,322.7,335.3,322.2,334.8,321.9z"/>
		<path class="st1" d="M343.8,320c-0.2,0.4,0.3,0.6,0.5,0.7c0.1,0.1,0.5-0.1,0.5-0.2c0-0.2,0-0.6-0.2-0.7
			C344.5,319.7,344,319.6,343.8,320z"/>
		<path class="st1" d="M344.6,307.7c0.5,0.1,0.8-0.2,1-0.6c0.6-1,0.5-1.5-0.5-2.1c-0.4-0.2-0.8-0.5-1.2-0.7
			c-0.3,0.7-0.6,1.4-0.9,2.1c0.2,0,0.3,0.1,0.5,0.1c0,0.1,0.1,0.3,0.1,0.4C343.7,307.5,344.1,307.6,344.6,307.7z"/>
		<path class="st1" d="M342.4,316.1c-0.4-0.1-0.7,0.1-0.8,0.4c-0.1,0.4,0.3,0.7,0.4,0.7c0.2,0.1,0.6,0.1,0.7-0.3
			C343,316.7,342.8,316.3,342.4,316.1z"/>
		<path class="st1" d="M265.8,134.7c0.4,0.8,1.2,0.9,2.1,0.3c0.5-0.3,0.8-1.2,0.6-1.7c-0.3-0.6-1.8-1.2-2.3-1
			C265.5,132.8,265.3,133.9,265.8,134.7z"/>
		<path class="st1" d="M281.4,155.1c-0.1,0.1-0.3,0.3-0.2,0.4c0.1,0.1,0.3,0.1,0.4,0.1s0.1-0.3,0.1-0.4
			C281.7,155.2,281.5,155.1,281.4,155.1z"/>
		<path class="st1" d="M280.9,148.4c0.4,0,1.3-0.2,1.4-0.7c0.1-0.5-0.6-0.8-1-0.9c-0.4-0.2-0.8-0.1-1,0.4
			C280.1,147.7,280.4,148.5,280.9,148.4z"/>
		<path class="st1" d="M283.5,146.2c0.6-0.2,0.8-0.7,0.5-1.3c-0.3-0.6-0.9-0.8-1.4-0.6s-0.7,0.9-0.5,1.3
			C282.2,146.3,282.8,146.5,283.5,146.2z"/>
		<path class="st1" d="M283,164.5c0.1,0.1,0.2,0.1,0.3,0.1c0.5,0.1,1.1-0.4,1.2-0.9c0.1-0.6-0.3-1.2-0.8-1.3c-0.1,0-0.1,0-0.2,0
			c0.2-0.9-0.3-1.6-0.8-2l-0.1-0.1c0.7-0.2,1.1-0.7,1.3-1.7c0.1-0.3,0.1-0.7,0-0.9c0.2,0.1,0.5,0.1,0.8,0c0.7-0.3,0.8-1.4,0.4-2
			c-0.3-0.5-1.2-0.9-1.8-0.8c-0.9,0.3-1,1.1-1,1.4c-1,0-1.9,0.6-2.1,1.5c0,0.1,0,0.2,0,0.3C281.2,160.3,282.1,162.4,283,164.5z"/>
		<path class="st1" d="M282.8,152.3c-0.2,0.1-0.4,0.4-0.3,0.6c0,0.2,0.5,0.5,0.7,0.5c0.2-0.1,0.2-0.7,0.1-0.9
			C283.3,152.4,282.9,152.3,282.8,152.3z"/>
		<path class="st1" d="M278.7,130.3c0.3-0.1,0.4-1,0.3-1.4c-0.1-0.5-0.6-0.6-1.1-0.4c-0.6,0.2-0.6,0.7-0.3,1
			C277.7,129.8,278.4,130.4,278.7,130.3z"/>
		<path class="st1" d="M276.7,139.8c0.5,0.1,0.7-0.5,0.7-0.7c0-0.4-0.3-1.4-0.7-1.5c-0.4-0.1-0.9,0.9-0.8,1.1
			C276.1,139,276.2,139.6,276.7,139.8z"/>
		<path class="st1" d="M278.1,150.5c-0.6-0.1-1,0.3-1.1,1c0,0.3,0,0.5,0.1,0.7v0.1c0,0.1,0.1,0.1,0.1,0.1c0.1,0.2,0.3,0.5,0.4,0.7
			h0.1c0.1-0.1,0.3-0.2,0.4-0.4c0.5-0.1,1-0.6,1-1.1C279.2,151.1,278.7,150.5,278.1,150.5z"/>
		<path class="st1" d="M278.4,154.4C278.3,154.4,278.3,154.4,278.4,154.4c0.3,0.7,0.6,1.4,1,2.1c0.4-0.3,0.5-0.8,0.3-1.4
			C279.3,154.4,278.8,154.2,278.4,154.4z"/>
		<path class="st1" d="M291.4,155.9c-0.1,0.7,0.4,1.2,1,1.2c0.5,0,0.6-0.3,0.7-0.7c0.1-0.5-0.2-1-0.7-0.9
			C291.9,155.6,291.6,155.8,291.4,155.9z"/>
		<path class="st1" d="M292.4,164.5c-0.1,0.6,0.4,1.1,1,1.2c-0.1,0.3-0.2,0.6-0.2,1.1c0,0.5,0,1-0.3,1.5c-0.5,0.7-0.3,1.5,0,2.2
			c0.2,0.7,1.1,1.1,1.9,1.1c0.1,0,0.1,0,0.2,0c-0.4,0.3-0.7,0.7-0.7,1.2c-0.1,0.7,0.5,1.2,1.5,1.4c0.7,0.1,1.6-0.4,1.7-0.9
			c0.1-0.8-0.6-1.9-1.3-2c-0.1,0-0.2,0-0.3,0c0.2-0.2,0.4-0.4,0.5-0.8c0.3-0.8,0.1-1.6-0.1-2.4c-0.1-0.3-0.1-0.6,0-0.9
			c0.3-1.1-0.1-1.8-1.2-2c0.1-0.1,0.1-0.3,0.2-0.4c0-0.5-0.5-1-1.2-1.1C293.2,163.4,292.5,163.9,292.4,164.5z"/>
		<path class="st1" d="M282.7,141c0.2,0,0.5-0.2,0.6-0.3c0.1-0.1,0-0.7-0.3-0.8s-0.5,0.4-0.6,0.6C282.3,140.6,282.5,140.9,282.7,141
			z"/>
		<path class="st1" d="M294,152.5c0.5,0,0.6-0.3,0.7-0.7c0.1-0.5-0.2-1-0.7-0.9c-0.4,0.1-0.7,0.3-0.9,0.4
			C292.9,152,293.4,152.5,294,152.5z"/>
		<path class="st1" d="M296.1,143.3c0.1,0,0.5-0.1,0.5-0.3s-0.3-0.5-0.5-0.6c-0.1-0.1-0.6,0-0.7,0.3
			C295.4,143,295.9,143.2,296.1,143.3z"/>
		<path class="st1" d="M275,146.1c0.2,0.4,0.9,0.4,1.4,0.1c0.4-0.2,0.5-0.5,0.3-0.9c-0.3-0.4-0.6-0.8-1.2-0.5
			C275.1,144.9,274.8,145.7,275,146.1z"/>
		<path class="st1" d="M285.6,139.9c0.2-0.1,0.5-0.6,0.4-0.9c-0.1-0.2-0.7-0.8-1-0.7c-0.3,0.1-0.4,0.9-0.3,1
			C284.9,139.7,285.3,140,285.6,139.9z"/>
		<path class="st1" d="M286.6,151.7c0.6-0.2,1.2-0.3,1.1-1.2c0-0.6,0-1.3,0-1.9c0.3-0.7,0-1.2-0.6-1.3c-0.6-0.2-1.1,0.1-1.5,0.8
			c-0.2,0.4-0.3,0.8-0.6,1c-0.6,0.5-0.8,1.1-0.6,1.8C284.7,151.4,286,151.9,286.6,151.7z"/>
		<path class="st1" d="M287.2,157.4c-0.6-0.1-1.1,0.2-1.3,0.8c-0.1,0.7,0.3,1.3,0.9,1.4c0.5,0.1,1.1-0.4,1.2-1
			S287.8,157.5,287.2,157.4z"/>
		<path class="st1" d="M290.3,145.2c1,0.1,2.5-1.4,2.3-2.6c-0.1-0.9-1.3-0.9-1.8-0.5c-0.5,0.4-0.4,0.2-1,0c-0.6-0.2-1.6-0.2-1.7,1
			C288.1,144.3,289.2,145.1,290.3,145.2z"/>
		<path class="st1" d="M274.5,115.1c0.1,0,0.5-0.4,0.4-0.7c-0.1-0.3-0.6-0.2-0.8-0.1c-0.1,0-0.3,0.4-0.2,0.6
			C273.9,115.1,274.3,115.1,274.5,115.1z"/>
		<path class="st1" d="M253.1,112.4c-0.4,0.3-0.7,0.7-0.3,1.1c0.3,0.3,1,1,1.4,0.8c0.3-0.2,0.3-1.2,0.2-1.6
			C254.2,112.3,253.5,112.2,253.1,112.4z"/>
		<path class="st1" d="M253.3,121.4c0.8,0.8,1.6,1.6,2.5,2.4c0.1-0.4,0.1-0.9-0.1-1.3C255.2,121.5,254.1,121.1,253.3,121.4z"/>
		<path class="st1" d="M261.5,119c0.8-0.4,1-1.3,0.5-2.2c-0.5-0.9-1.3-1.2-2.2-0.7c-0.8,0.5-1.1,1.5-0.6,2.4
			C259.6,119.2,260.7,119.4,261.5,119z"/>
		<path class="st1" d="M240.6,107.6c0.9-0.4,1.4-1.5,1.1-2.2c-0.3-0.6-1.4-0.8-2.1-0.4c-0.6,0.3-0.9,1.2-0.5,2
			C239.5,107.7,240,107.9,240.6,107.6z"/>
		<path class="st1" d="M260.7,124.9c0.6-0.2,0.9-1,0.7-1.6c-0.3-0.7-1.2-1-2-0.7c-0.7,0.3-1,0.8-0.8,1.4
			C258.9,124.7,260,125.2,260.7,124.9z"/>
		<path class="st1" d="M251.1,119.4c0-0.2,0-0.3,0-0.4c-0.1-0.3-0.5-0.5-0.8-0.3C250.6,118.9,250.9,119.2,251.1,119.4z"/>
		<path class="st1" d="M243.8,113.2c0.3-0.3,0.4-1.4-0.2-1.9c-0.4-0.3-1-0.3-1.4,0.1c-0.1,0.1-0.2,0.2-0.3,0.3
			C242.5,112.2,243.2,112.7,243.8,113.2z"/>
		<path class="st1" d="M246,101.3c0.5-0.2,0.7-0.8,0.5-1.3s-0.8-0.8-1.3-0.6c-0.5,0.3-0.7,0.8-0.5,1.3
			C244.8,101.3,245.5,101.5,246,101.3z"/>
		<path class="st1" d="M249.7,110c0.5-0.2,0.8-1,0.6-1.5c-0.2-0.5-0.9-0.7-1.3-0.5c-0.5,0.2-0.9,1-0.6,1.4
			C248.6,109.9,249.3,110.2,249.7,110z"/>
		<path class="st1" d="M252.3,104c0.8-0.1,1.2-0.6,1.4-1.3c0.2-0.7-0.2-1.2-0.8-1.5c-0.5-0.2-1.4-1-2-0.5c-0.7,0.5-0.1,1-0.2,1.4
			C250.6,103,251.4,104.1,252.3,104z"/>
		<path class="st1" d="M272,123.1c0.2-0.1,0.4-0.4,0.3-0.7c-0.1-0.3-0.5-0.3-0.7-0.2c-0.2,0.1-0.6,0.5-0.5,0.7
			C271.2,123.1,271.8,123.2,272,123.1z"/>
		<path class="st1" d="M262.6,108.6c0.5,0.2,0.8,0.1,1.1-0.3c0.5-0.7,0.2-1.2-0.3-1.9c-0.7,0.1-1.4,0.1-1.6,0.9
			C261.8,107.9,262,108.3,262.6,108.6z"/>
		<path class="st1" d="M272.7,144.8c0.6-0.1,1-0.6,1.1-1.3c0.1-0.9-0.3-1.7-1-1.8c-0.6,0-1.1,0.2-1.6,0.6c0-0.3,0-0.6-0.2-0.9
			c-0.2-0.4-0.7-0.8-1.2-0.9C270.8,141.9,271.8,143.4,272.7,144.8z"/>
		<path class="st1" d="M273.9,140.7c0.4-0.1,0.2-0.7,0.1-0.9c0-0.1-0.5-0.3-0.5-0.2c-0.2,0.1-0.4,0.4-0.3,0.6
			C273.2,140.4,273.5,140.9,273.9,140.7z"/>
		<path class="st1" d="M269.2,129c0.4-0.2,0.2-1.2,0-1.6c-0.2-0.4-0.6-0.6-1.1-0.2c-0.4,0.3-0.7,0.7-0.4,1.1
			C268.1,128.6,268.8,129.2,269.2,129z"/>
		<path class="st1" d="M263.6,130c0.3,0.5,1.1,0.8,1.6,0.5c0.5-0.3,0.7-0.8,0.4-1.3c-0.3-0.7-0.9-0.9-1.5-0.6
			C263.6,128.8,263.3,129.5,263.6,130z"/>
		<path class="st1" d="M264.6,125.6c0.1,0,0.1-0.3,0.1-0.4c-0.1-0.1-0.2-0.2-0.4-0.1c-0.1,0.1-0.3,0.3-0.2,0.4
			C264.3,125.7,264.5,125.6,264.6,125.6z"/>
		<path class="st1" d="M296,159.1c-0.1,0.7,0.5,1.9,1.1,2c0.8,0.2,1.5-0.4,1.7-1.3c0.2-0.7-0.4-1.3-1.4-1.5
			C296.6,158.1,296,158.5,296,159.1z"/>
		<path class="st1" d="M256.3,195.2c-39.1,0-146.2,0-185.2,0C31.8,195.2,0,226.9,0,266.1s31.8,70.9,71.1,70.9
			c20.8,0,164.4,0,185.2,0c39.3,0,71.1-31.7,71.1-70.9S295.6,195.2,256.3,195.2z"/>
		<path class="st1" d="M164.8,314.5c55.7,0,100.9-45.1,100.9-100.7c0-55.6-45.2-100.7-100.9-100.7c-55.7,0-100.9,45.1-100.9,100.7
			C63.9,269.4,109.1,314.5,164.8,314.5z"/>
		<path class="st2" d="M125.8,220.2c-0.1,0.1-0.1,0.2-0.2,0.3c0.6,0.7,1.2,1.4,1.7,2.1c0.2,0,0.4-0.1,0.5-0.2c0.5-0.5,0.5-2,0.1-2.4
			C127.3,219.4,126.4,219.5,125.8,220.2z"/>
		<path class="st2" d="M122.6,217.2c0.9,0.9,1.7,1.9,2.6,2.8c0.8-0.3,1.6-1.4,1.5-2.3c-0.1-1.1-1.2-1.8-2.6-1.7
			C123.4,216.1,122.8,216.5,122.6,217.2z"/>
		<path class="st2" d="M131.3,215.8C131.3,215.8,131.3,215.7,131.3,215.8c-0.1-0.1-0.1-0.1-0.2-0.1l-0.1-0.1c-0.6-0.4-1.4-0.4-1.7,0
			c-0.1,0.1-0.2,0.3-0.3,0.5c-0.3,0.5-0.5,1.1-0.4,1.7c0.1,0.9,0.8,1.4,1.7,1.3c1.1-0.1,1.8-0.9,1.6-2.1
			C131.9,216.4,131.7,216.1,131.3,215.8z"/>
		<path class="st2" d="M103.8,183.3c-0.3-0.7-0.5-1.4-1.4-1.1c-0.6,0.2-0.9,0.6-0.9,1.2c0,0.2,0.1,0.5,0.3,0.6
			c0.5,0.2,1,0.3,1.6,0.5c0.5,1.2,1.3,1.9,2.1,1.6c0.7-0.3,1.3-1.6,1-2.5C106.1,182.8,105.6,182.7,103.8,183.3z"/>
		<path class="st2" d="M121.6,196.6c-0.3,0.2-0.8,0.7-0.8,1c-0.1,0.5,0.3,0.6,0.5,0.6c0.3,0,0.5-0.3,0.8-0.5
			c0.2-0.2,0.5-0.4,0.5-0.8C122.6,196.6,122.1,196.4,121.6,196.6z"/>
		<path class="st2" d="M118.1,199.7c-0.3-0.1-0.6-0.3-0.8-0.5c-0.7-0.6-1.3-0.6-2.1-0.2c-0.7,0.5-0.7,1.1,0.2,1.9
			c0.5,0.2,1.3,0.6,2.2,0.8c0.5,0.1,1.1-0.1,1.2-0.8C118.9,200.5,118.8,200,118.1,199.7z"/>
		<path class="st2" d="M103.4,200.3c0.4-0.4,0.4-1.9,0-2.3c-0.5-0.5-1.5-0.3-2.2,0.4c-0.6,0.7-0.6,1.2,0.2,2
			C102,200.9,102.9,200.8,103.4,200.3z"/>
		<path class="st2" d="M115,192.5c-0.8,0-2,1-1.8,2.1c0.2,1.1,0.8,1.7,1.6,1.8c0.8,0.2,1.5-0.9,1.8-2
			C116.8,193.7,115.8,192.6,115,192.5z"/>
		<path class="st2" d="M118.7,206.3c-0.1,0.4,0,0.7,0.2,1c-0.2,0.3-0.4,0.9-0.3,1.4c0.2,0.1,0.5,0.5,0.8,0.5c0.7,0,1.4-0.6,1.4-1.2
			c0-0.2-0.1-0.3-0.2-0.5l0.1-0.1c0.5-0.7,0.2-1.3-0.1-1.9C119.3,205.4,118.9,205.6,118.7,206.3z"/>
		<path class="st2" d="M130.3,226.6c-0.2-0.4-0.4-0.7-0.8-0.8c0.2,0.3,0.5,0.7,0.7,1C130.3,226.6,130.3,226.6,130.3,226.6z"/>
		<path class="st2" d="M139.1,226.5c0.5-0.1,1.1-1.2,1-1.8c-0.1-0.5-0.8-1-1.3-0.9c-1.1,0.2-1.7,0.8-1.6,1.5
			C137.3,226,138.4,226.6,139.1,226.5z"/>
		<path class="st2" d="M137.7,230.7c0.1,0.9,0.6,1.5,1.3,1.4c0.6-0.1,1.6-1.3,1.5-1.8c-0.1-0.8-0.8-1.2-1.7-1.1
			C137.9,229.2,137.6,229.6,137.7,230.7z"/>
		<path class="st2" d="M118.3,212.2c0.2,0.6,1,0.6,1.3,0.6c0.5,0,0.6-0.5,0.5-1c0-0.1,0-0.2-0.1-0.3c0.3,0,0.6-0.2,0.8-0.5
			c0.3-0.4,0.6-0.9,0.2-1.3c-0.7-0.6-1.4-0.6-1.8-0.2c-0.4,0.4-0.4,1-0.1,1.5C118.9,211.3,118.1,211.6,118.3,212.2z"/>
		<path class="st2" d="M103.8,202.9c-0.3-0.3-0.9-0.5-1.3-0.4c0,0,0,0-0.1,0c0.5,0.3,1,0.5,1.5,0.8
			C103.9,203.1,103.9,202.9,103.8,202.9z"/>
		<path class="st2" d="M136.7,238.8c0.5-0.3,0.9-0.9,0.8-1.5c0.7-0.1,0.9-0.9,0.8-1.3c-0.1-0.3-0.9-0.6-1.4-0.2
			c-0.3-0.3-0.8-0.4-1.7-0.3C135.8,236.5,136.3,237.6,136.7,238.8z"/>
		<path class="st2" d="M137.5,240.7c0.4,0.9,0.7,1.9,1,2.8c0.1,0,0.2-0.1,0.3-0.1c0.5-0.3,0.5-0.8,0.5-1.4c0-0.5,0.1-0.9-0.4-1.3
			C138.5,240.5,137.9,240.5,137.5,240.7z"/>
		<path class="st2" d="M135.7,228.9c-0.5,0.5-0.5,1.2,0,1.6s1.2,0.4,1.6-0.1c0.5-0.5,0.4-1.2-0.1-1.6
			C136.9,228.4,136.1,228.4,135.7,228.9z"/>
		<path class="st2" d="M114.3,209.5c-0.1,0.1-0.1,0.1-0.1,0.2c1.1,0.8,2.1,1.6,3.1,2.5c0.1-0.2,0.2-0.3,0.3-0.5c0-0.4-0.6-0.8-1-0.7
			c0.1-0.3-0.1-0.7-0.4-1C115.3,209.3,114.7,209.1,114.3,209.5z"/>
		<path class="st2" d="M115.3,203.4c-0.4,0.5-0.3,1.7,0.2,2.1c0.5,0.3,1.7,0.1,2.1-0.4c0.4-0.5,0.3-1.1-0.2-1.5
			C116.6,202.8,115.9,202.7,115.3,203.4z"/>
		<path class="st2" d="M139.5,216.6c-0.6,0-1-0.3-1.4-0.5c-0.2-0.1-0.8,0.1-1,0.3c-0.2,0.2-0.3,0.7-0.2,1c0.1,0.2,0.5,0.4,0.8,0.4
			c0.6,0,1.1,0,1.7-0.1c0.5-0.1,0.6-0.4,0.5-0.9C139.8,216.8,139.6,216.6,139.5,216.6z"/>
		<path class="st2" d="M136,183.8c0.2-0.2,0.2-0.8,0-1c-0.1-0.2-0.9-0.5-1.1-0.3c-0.2,0.2,0,1,0.1,1.1
			C135.3,183.8,135.8,183.9,136,183.8z"/>
		<path class="st2" d="M100,187.3c-0.5,0.4-0.5,1.5,0,2.1c0.4,0.4,1.3,0.5,1.7,0.1c0.8-0.8,1-1.7,0.5-2.3
			C101.8,186.8,100.6,186.8,100,187.3z"/>
		<path class="st2" d="M144.4,214.6c0.4-0.4-0.3-1.5-0.6-1.9c-0.3-0.2-1-0.3-1.4,0c-0.4,0.3,0,1.2,0.3,1.6
			C142.8,214.7,144,215,144.4,214.6z"/>
		<path class="st2" d="M139.3,213.3c0.1,0.6,0.7,1.1,1.2,1c0.5-0.1,1.2-0.9,1.2-1.3c-0.1-0.6-1-1.2-1.5-1.1
			C139.6,212.1,139.2,212.7,139.3,213.3z"/>
		<path class="st2" d="M138,199.8c0.1-0.1,0-0.3-0.1-0.4c-0.1-0.1-0.3-0.1-0.4,0c-0.1,0.1-0.1,0.3,0,0.5
			C137.7,200,137.9,199.9,138,199.8z"/>
		<path class="st2" d="M143.6,211.6c0.5,0,1-0.5,0.9-1c-0.1-0.6-0.5-0.8-1-0.7c-0.5,0-0.7,0.4-0.7,0.9
			C142.8,211.2,143.1,211.6,143.6,211.6z"/>
		<path class="st2" d="M135.8,211.6c-0.1,0.2-0.2,0.3-0.3,0.5c-0.7,0.2-1.2,0.8-1.1,1.3c0.1,0.7,0.9,1.4,1.4,1.4
			c0.6-0.1,1.1-0.9,1-1.8c0.2-0.1,0.4-0.2,0.4-0.3c0.1-0.3-0.1-0.7-0.4-1.1C136.6,211.3,136.1,211.2,135.8,211.6z"/>
		<path class="st2" d="M138.6,205.5c0.2,0.6,1.1,0.8,1.6,0.3c0.2-0.2-0.1-0.9-0.3-1.4c0-0.1-0.1-0.4-0.5-0.4
			C139,204.1,138.4,204.9,138.6,205.5z"/>
		<path class="st2" d="M138.7,197.2c0.1-0.1-0.1-0.7-0.2-0.9c-0.1-0.1-0.5-0.1-0.6,0c-0.1,0.2-0.2,0.5-0.1,0.7
			C137.9,197.1,138.5,197.3,138.7,197.2z"/>
		<path class="st2" d="M142,205.6c0.1-0.1,0.1-0.5,0-0.7c-0.1-0.1-0.5-0.1-0.7,0c-0.1,0.1-0.4,0.7-0.2,0.8
			C141.4,205.9,141.8,205.8,142,205.6z"/>
		<path class="st2" d="M97.3,198c-1.2,0.1-1.3,0.2-1.4,1.5c0.1,0.1,0.1,0.1,0.2,0.2c0.9,0.3,1.8,0.7,2.6,1c0.2-0.1,0.4-0.2,0.5-0.3
			c0.4-0.4,0.5-1.3,0.1-1.6C98.7,198.5,98.1,198,97.3,198z"/>
		<path class="st2" d="M142.8,236.8c-1.3,0-1.8,0.9-2,1.7c-0.2,0.8,0.2,2.2,1.6,2.3c1.5,0,2.3-0.8,2.4-1.7
			C145,238.1,143.8,236.8,142.8,236.8z"/>
		<path class="st2" d="M87.3,183.1c-0.4,0.3-0.6,1.3,0.1,2c0.4,0.4,0.9,0.3,1.3,0c0.5-0.4,0.6-0.9,0.4-1.4
			C88.8,182.9,87.8,182.8,87.3,183.1z"/>
		<path class="st2" d="M98.4,191.4c-0.2,0.9,0.3,1.7,1.3,2c1,0.3,2.1,0.6,3,1c0.8,0.4,2,0.3,2.2-0.2c0.2-0.5-0.4-1.3-0.7-1.4
			c-0.8-0.2-0.7-0.7-1-1.2c-0.2-0.4-0.7-0.7-1.1-1c-0.3-0.2-0.6-0.2-0.9-0.3c-0.3-0.1-0.7-0.1-1-0.1
			C99.2,190.2,98.6,190.5,98.4,191.4z"/>
		<path class="st2" d="M97.3,186.7c0.7,0,1-0.5,1-1.2c-0.4-0.4-0.9-0.8-1.5-0.4c-0.2,0.2-0.3,0.7-0.2,1
			C96.6,186.4,97,186.7,97.3,186.7z"/>
		<path class="st2" d="M83.7,196.3c0.4,0.1,0.9,0.1,1.3,0.2c0,0,0-0.1-0.1-0.1C84.5,196.4,84.1,196.4,83.7,196.3z"/>
		<path class="st2" d="M145.4,231.2c0.3,0,0.5-0.1,0.5-0.5c0-0.3-0.1-0.5-0.5-0.5c-0.3,0-0.4,0.1-0.5,0.4
			C144.9,231,145,231.2,145.4,231.2z"/>
		<path class="st2" d="M143.8,256.9c0.6-0.1,1.4-1,1.3-1.5c-0.1-0.7-1.1-1.6-1.8-1.5c-0.7,0.1-1.1,1-0.9,2.1
			C142.5,256.5,143.3,257,143.8,256.9z"/>
		<path class="st2" d="M142.7,258c-0.1-0.5-0.6-0.9-1.1-1c0.1,0.8,0.2,1.5,0.3,2.3C142.5,259.1,142.8,258.5,142.7,258z"/>
		<path class="st2" d="M142,216.4c0.1,0.8,0.7,1.2,1.7,1c0.7-0.1,1.1-0.6,1.1-1.1c-0.1-0.6-1.2-1.7-1.7-1.6
			C142.2,214.9,141.8,215.5,142,216.4z"/>
		<path class="st2" d="M150.7,252.3c0.9-0.1,1.7-1.2,1.6-2.2c-0.1-1-1.3-1.9-2.2-1.8c-1.1,0.1-2,1.1-1.8,2
			C148.3,251.1,149.8,252.3,150.7,252.3z"/>
		<path class="st2" d="M151.2,268.5c0.6-0.1,1.7-1.3,1.6-1.8c-0.1-0.9-0.9-1.4-1.9-1.2c-0.8,0.1-1.1,0.7-1,1.8
			C150.1,268.1,150.6,268.6,151.2,268.5z"/>
		<path class="st2" d="M150.6,256.9c0.6-0.1,1.1-0.7,1-1.2c-0.1-0.5-0.8-1.3-1.3-1.2c-0.5,0.1-1.1,0.8-1.1,1.3
			C149.4,256.6,149.9,257,150.6,256.9z"/>
		<path class="st2" d="M148.1,236c-0.1-0.4-0.2-0.9-0.8-0.8c-0.5,0-1,0.5-1,1.3c0.3,0.1,0.7,0.4,1.1,0.4
			C147.9,236.9,148.1,236.5,148.1,236z"/>
		<path class="st2" d="M155.5,255.2c0.9-0.2,1.7-1.5,1.6-2.6c-0.1-1-1-1.6-2.1-1.5c-1.4,0.2-2,1-1.9,2.4
			C153.2,254.6,154.4,255.4,155.5,255.2z"/>
		<path class="st2" d="M147.6,242.7c0.8,0.7,2.4,1.4,3.9,0.4c0.9-0.6,1.3-1.3,1.4-2.1c0-0.9-1.1-1.3-1.4-2.2
			c-0.8-2.1-2.4-1.9-3.8-1.1c-0.5,0.3-0.8,0.7-1,1.1c-0.3,0.6-0.2,1.3,0.2,2C147.3,241.4,147,242.1,147.6,242.7z"/>
		<path class="st2" d="M153.2,219.9c-0.5,0.4-0.4,1.2,0.2,1.3c0.7,0.1,1.5,0.4,2.3-0.1c0.1-0.3,0.2-0.7,0.3-1c0.9-0.3,1.6-1,1.5-1.6
			c-0.1-0.5-0.5-0.8-1-0.8c-0.9-0.1-1.2,0.2-1.5,1.2C154.4,219.3,153.8,219.5,153.2,219.9z"/>
		<path class="st2" d="M155.7,240.7c0.2-0.3,0.3-0.9,0.2-1.1c-0.4-0.7-1.1-0.6-1.8-0.3c-0.2,0.6-0.4,1.2,0.2,1.7
			C154.8,241.2,155.4,241.1,155.7,240.7z"/>
		<path class="st2" d="M158.2,246.5c-0.2-1-0.9-1.6-1.6-1.5c-0.6,0.1-1,0.4-1.2,0.8c-0.3-0.3-0.7-0.3-1.1-0.2
			c-0.7,0.2-0.7,0.9-0.7,1.6c0.6,0.3,1.2,0.8,1.8,0.1c0-0.1,0.1-0.1,0.1-0.2c0.5,0.4,1.3,0.7,1.9,0.6
			C157.9,247.7,158.3,247.2,158.2,246.5z"/>
		<path class="st2" d="M96.1,195.8c0.3-0.3,0.1-1.4-0.8-1.7c-0.3-0.1-0.8,0.1-1,0.3c-0.4,0.4-0.4,1,0,1.4
			C94.9,196.4,95.8,196.1,96.1,195.8z"/>
		<path class="st2" d="M160.1,236.9c0.6,1,1.6,1.2,2.7,0.7c0.2-0.1,0.4-0.2,0.6-0.3c0.2,0.4,0.3,0.8,0.6,1.2
			c0.4,0.7,0.8,0.8,1.6,0.5c0.7-0.3,1.1-0.8,1.1-1.6c0-0.7-0.5-1.1-1.1-1.4c-0.4-0.2-0.9-0.2-1.4-0.3c-0.1-0.2-0.2-0.4-0.3-0.6
			c-0.5-0.7-1.4-1.3-2.2-1c-0.9,0.3-1.4,0.9-1.7,1.8C159.9,236.2,160,236.6,160.1,236.9z"/>
		<path class="st2" d="M155.2,214.8c0.4-0.5-0.4-1.7-1.1-1.7c-0.7,0-1.4,0.7-1.2,1.3C153,214.9,154.7,215.2,155.2,214.8z"/>
		<path class="st2" d="M171,248.6c0.7,0,1.5-0.7,1.4-1.3c-0.1-0.8-0.8-1.6-1.5-1.6c-0.7,0-1.2,0.9-1.2,1.9
			C169.8,248.1,170.5,248.6,171,248.6z"/>
		<path class="st2" d="M165.6,246.4c-0.1-0.8-0.6-1.2-1.7-1.1c-0.7,0.1-1.5,0.8-1.5,1.3c0,0.8,1,1.6,1.8,1.6
			C165,248.1,165.7,247.2,165.6,246.4z"/>
		<path class="st2" d="M162.2,252.4c-0.9,0.1-1.3,0.8-1.2,1.8c0.2,1.1,1.2,1.8,2.3,1.6c0.9-0.2,1.5-1.2,1.4-2.1
			C164.6,252.8,163.4,252.2,162.2,252.4z"/>
		<path class="st2" d="M153,277c0.1,0.3,1.2,0.9,1.9,0.4c0.4-0.3,0.6-0.8,0.4-1.4c-0.2-0.6-0.7-0.9-1.2-0.7
			C153.2,275.5,152.9,276.7,153,277z"/>
		<path class="st2" d="M152.4,257.4c-0.5,0.1-1,0.9-1,1.4c0.1,0.9,0.8,1.6,1.6,1.5c0.9-0.1,1.7-1,1.6-1.7
			C154.6,258,153.2,257.3,152.4,257.4z"/>
		<path class="st2" d="M157.4,233c0.3,0.3,1,0.2,1.3-0.2c0.3-0.4,0.1-0.8-0.8-1.4C157,231.5,157,232.7,157.4,233z"/>
		<path class="st2" d="M159.5,228.3c0.2-0.1,0.6-0.1,0.5-0.5c0-0.4-0.3-0.4-0.4-0.4c-0.2,0-0.7,0.2-0.7,0.5
			C158.9,228.2,159.4,228.3,159.5,228.3z"/>
		<path class="st2" d="M167,232.5c0.3-0.4,0.1-1.4-0.8-1.4c-0.9,0.2-0.9,1.3-0.5,1.6C166.1,232.9,166.8,232.8,167,232.5z"/>
		<path class="st2" d="M142.4,228c0.2-0.1,0.2-0.5,0.1-0.8c-0.1-0.2-0.5-0.4-0.7-0.2c-0.2,0.2-0.3,0.5-0.2,0.7
			C141.7,228,142.2,228.1,142.4,228z"/>
		<path class="st2" d="M141.5,235c0.2,0.3,0.7,0.5,1,0.6c1.1,0,1.9-0.5,2.2-1.9c-0.3-0.3-0.6-0.7-1-1c-0.7-0.4-1.6-0.4-2,0.1
			C141.2,233.4,141,234.4,141.5,235z"/>
		<path class="st2" d="M133.8,228.6c0.4-0.1,0.8-1,0.7-1.6c-0.1-0.5-0.6-0.7-1.1-0.5c-0.8,0.3-1.3,0.8-1.2,1.2
			C132.2,228.2,133.3,228.8,133.8,228.6z"/>
		<path class="st2" d="M126.4,211.5c-0.1-0.6-1-1.1-1.7-1c-1.1,0.2-1.6,0.9-1.5,1.9c0.1,0.6,0.4,1,0.8,1.2c-0.4,0.7-0.4,1.3,0,1.7
			c0.5,0.5,1.9,0.3,2.4-0.2c0.4-0.4,0.3-1.6-0.2-2.1c-0.1-0.1-0.2-0.1-0.3-0.2C126.3,212.4,126.5,211.9,126.4,211.5z"/>
		<path class="st2" d="M94.6,198.4c0-0.9-0.1-1.6-1-1.8c-0.5-0.1-1,0.1-1.1,0.6c-0.1,0.4-0.1,1,0.1,1.3c0.3,0.1,0.6,0.2,0.9,0.3
			C93.8,198.7,94.2,198.5,94.6,198.4z"/>
		<path class="st2" d="M91.9,196c0.5-0.5,0.4-1.4-0.3-1.9c-0.4-0.4-1.1-0.2-1.6,0.3s-0.5,1.5,0,1.8C90.7,196.5,91.3,196.6,91.9,196z
			"/>
		<path class="st2" d="M110.5,207.1c0.6,0.4,1.1,0.8,1.7,1.2c0.2-0.1,0.3-0.3,0.3-0.5c0.1-0.9,0.6-1.4,1.2-1.6
			c0.6-0.6,0.7-1.5,0.4-1.9l-0.1-0.1c0.2-0.3,0.4-0.8,0.4-1.2c-0.1-0.6-0.6-1-1.2-0.9c-0.6,0.1-1,0.5-0.9,1.1c0,0.2,0.1,0.3,0.2,0.5
			c-0.2,0-0.4,0.1-0.6,0.1c-0.4,0.2-1.1,0.5-0.9,1.1C111.2,205.7,110.9,206.4,110.5,207.1z"/>
		<path class="st2" d="M141.5,244.1c-0.7-0.1-1.1,0.5-1,1.4c0,0.1,0.1,0.2,0.1,0.3c0,0.5-0.2,0.7-0.7,0.6c-0.2-0.1-0.3-0.2-0.5-0.3
			c0.6,2.1,1.1,4.2,1.6,6.4c0.4,0.1,0.9-0.1,1.3-0.6c0.7-0.9,0.6-1.8-0.4-2.4c-0.3-0.2-0.6-0.2-1.2-0.5c0.3-0.4,0.5-0.8,0.8-0.9
			c0.9-0.4,1.1-1,0.9-1.8c0-0.2,0-0.5,0-0.7C142.3,244.7,142,244.2,141.5,244.1z"/>
		<path class="st2" d="M140.9,220.1c-0.1,0-0.2,0.1-0.3,0.1c0-0.3-0.1-0.6-0.3-0.8c-0.4-0.3-1.2-0.3-1.6,0.1c-0.4,0.4-0.4,1,0,1.4
			c0.3,0.3,0.8,0.4,1.2,0.3c0,0.2,0,0.5,0,0.7c0.1,0.6,0.9,1.2,1.5,1.1c0.7-0.1,1.8-1.4,1.6-1.9
			C142.9,220.4,141.8,219.9,140.9,220.1z"/>
		<path class="st2" d="M143.6,244.2c-0.6,0.5-0.8,2.1,0.1,2.8c0.9,0.7,1.8,0.7,2.4,0.3c0.7-0.4,0.5-1.7,0-2.6
			C145.8,243.9,144.3,243.7,143.6,244.2z"/>
		<path class="st2" d="M77.9,195.5c0.1-0.1,0.2-0.3,0.2-0.6c0,0,0.1,0,0.1-0.1c0.4-0.6,0.4-1.9-0.1-2.3c-0.4-0.3-1.6,0.1-2.1,0.7
			c-0.1,0.1-0.1,0.3-0.2,0.4c-0.3,0.3-0.4,1-0.4,1.5C76.1,195.4,77,195.4,77.9,195.5z"/>
		<path class="st2" d="M152.1,216.8c0.4,0,0.4-0.6,0.3-0.7c-0.1-0.2-0.3-0.5-0.6-0.4c-0.3,0.1-0.4,0.4-0.3,0.5
			C151.5,216.4,151.7,216.8,152.1,216.8z"/>
		<path class="st2" d="M74.5,189.1c0.1-0.3,0.3-0.7,0.1-1c-0.2-0.3-1.2-0.2-1.5,0.2v0.1c-0.4-0.2-0.9-0.1-1.2,0.2
			c-0.3,0.4-0.4,1.5-0.1,1.7c0.4,0.4,1.3,0.3,1.7,0c0.2-0.2,0.4-0.5,0.4-0.8C74.1,189.5,74.4,189.4,74.5,189.1z"/>
		<path class="st2" d="M150.9,230.5c-0.2,0.6,0.1,0.9,0.7,1.2c0.6,0.3,1.4,0.8,1.8,0c0.4-0.8-0.1-1.2-0.3-1.3
			c-0.2-0.1-0.5-0.6-0.2-0.6c0.3,0,0.6-0.2,0.6-1c0.1-0.8-0.2-1.2-1-1.4c-0.8-0.2-1.7,0.5-1.9,1.4
			C150.4,229.7,151.1,229.9,150.9,230.5z"/>
		<path class="st2" d="M91.8,168.7c0.4-0.4,0.4-1.2,0.1-1.6c-0.3-0.4-1.1-0.3-1.4,0c-0.4,0.4-0.5,1.2-0.1,1.6
			C90.7,169.1,91.4,169.1,91.8,168.7z"/>
		<path class="st2" d="M81.3,195.4c0.2-0.3,0.1-1.2-0.3-1.6c-0.5-0.4-1.3-0.4-1.6,0.1c-0.4,0.5-0.3,1.3,0.1,1.7l0.1,0.1
			c0.2,0,0.4,0,0.6,0.1C80.6,195.8,81.1,195.6,81.3,195.4z"/>
		<path class="st2" d="M88.9,192.1c-0.1,0.1-0.4,0.7-0.1,0.9c0.3,0.2,0.7,0,0.8-0.2c0,0,0-0.1,0.1-0.2c0.1,0.1,0.2,0.2,0.3,0.3
			c0.6,0.4,0.9,0.1,1.3-0.3c0.2-0.3,0.5-0.7,0.8-0.9c0.8-0.4,1.6-0.7,2.5-1.1c1.6,1.6,2.3,1.6,3.3-0.1c0.6-0.9,0.2-2-0.9-2.3
			c-0.8-0.2-1.6,0-2.7-0.1c-0.5-0.8-1.2-1.8-2.4-1.7c-1.5,0.2-2.5,1.9-2,3.5c0.2,0.6,0,0.8-0.3,1.2c-0.2,0.2-0.2,0.6-0.2,0.9
			C89.3,192,89,192,88.9,192.1z"/>
		<path class="st2" d="M104.9,203.7c0.9,0.5,1.7,1,2.6,1.5c0.6-0.3,0.8-0.9,0.5-1.6c0-0.1-0.1-0.1-0.1-0.2c0.2,0,0.3-0.1,0.5-0.2
			c0.3-0.3,0.4-0.7,0.6-1.1c-0.4-0.4-0.7-0.7-1.2-1.1c-0.3,0.2-0.6,0.3-0.9,0.6c-0.3,0.3-0.5,0.7-0.4,1.1c-0.4,0-0.7,0.2-1,0.5
			C105.3,203.4,105.1,203.6,104.9,203.7z"/>
		<path class="st2" d="M88.4,197.3c0.3-0.5,0.2-1.1-0.4-1.4c-0.3-0.2-0.9-0.3-1.2-0.1c-0.5,0.3-0.6,0.6-0.5,1
			C87.1,197,87.7,197.2,88.4,197.3z"/>
		<path class="st2" d="M148.4,226.4c0.6-0.2,0.8-0.7,0.9-1.1c0.1-0.4,0-1.2-0.4-1.6c-0.5-0.4-0.8-1-1.4-0.9
			c-0.5,0.1-0.6,0.2-0.8,0.5s-0.5,0.4-0.6,0.9c-0.1,0.5,0,1.4,0.5,1.9S147.8,226.6,148.4,226.4z"/>
		<path class="st2" d="M135.2,299.8c-0.3,0-0.5,0.6-0.4,0.8c0,0.2,0.3,0.5,0.5,0.5c0.3,0,0.4-0.4,0.4-0.6
			C135.7,300.3,135.4,299.7,135.2,299.8z"/>
		<path class="st2" d="M138.8,287.9c-0.3,0.8-0.5,1.7-0.8,2.5c0.7-0.1,1.2-0.9,1.2-1.6C139.1,288.4,139,288.1,138.8,287.9z"/>
		<path class="st2" d="M66.5,195.2c0,0.1,0,0.1,0,0.1c0.8,0,1.5-0.1,2.3-0.1c0.4-0.1,0.7-0.2,0.9-0.5c0.6-0.7,0.6-2.6,0-3.3
			c-0.6-0.7-2-0.5-2.7,0.2c-0.6,0.7-0.6,2.1-0.1,2.8C66.7,194.7,66.6,194.9,66.5,195.2z"/>
		<path class="st2" d="M142.3,283.3c-0.1-1.1-0.9-2-1.8-2c-0.3,1.3-0.6,2.6-1,3.9c0.3,0.1,0.6,0.2,0.9,0.2
			C141.6,285.2,142.4,284.3,142.3,283.3z"/>
		<path class="st2" d="M69.1,188.9c0.6-0.6,0.6-1.7,0.2-2.5c0.2-0.2,0.4-0.4,0.4-0.8s-0.5-0.5-0.9-0.3c-0.1,0.1-0.2,0.2-0.3,0.3
			c-0.1,0-0.3,0-0.4,0c-0.4,1.3-0.7,2.6-1,3.9C67.7,189.8,68.4,189.6,69.1,188.9z"/>
		<path class="st2" d="M144.4,279c0.7-0.1,1.5-1.1,1.4-1.9c-0.1-0.6-1-1.2-1.8-1.1c-1.1,0.1-1.5,0.6-1.4,1.4
			C142.7,278.2,143.7,279.1,144.4,279z"/>
		<path class="st2" d="M144.8,280.3c-0.4,0.1-0.5,1-0.5,1.4c0,0.2,0.6,0.4,0.9,0.4c0.4,0,0.8-0.3,0.6-0.8
			C145.7,281.1,145.2,280.3,144.8,280.3z"/>
		<path class="st2" d="M70,179.5c-0.4,1-0.7,2.1-1.1,3.2c0.4-0.1,0.7-0.3,1-0.6C70.4,181.3,70.4,180.2,70,179.5z"/>
		<path class="st2" d="M143.1,290c-0.8,0.1-1.4,1.1-1.2,2c0.2,0.9,0.9,1.4,2,1.2c1-0.2,1.5-0.9,1.3-1.8
			C145,290.4,144.1,289.8,143.1,290z"/>
		<path class="st2" d="M141.9,304.9c-0.2,0-0.4,0.4-0.4,0.6c0,0.1,0.2,0.6,0.5,0.5c0.3,0,0.4-0.6,0.4-0.8
			C142.3,305.1,142.1,304.8,141.9,304.9z"/>
		<path class="st2" d="M81.3,176.7c-0.3,0.4-0.3,1.1,0.1,1.4c0.4,0.4,1.1,0.3,1.5-0.2c0.4-0.5,0.4-1-0.1-1.4
			C82.3,176.2,81.7,176.3,81.3,176.7z"/>
		<path class="st2" d="M80,178.3c0.7-0.8,0.6-2.3-0.2-3c-0.6-0.5-2-0.4-2.6,0.2c-0.7,0.7-0.5,1.9,0.5,2.8
			C78.3,179,79.3,179,80,178.3z"/>
		<path class="st2" d="M82.4,169.8c0.7-0.7,0.8-2,0.2-2.5c-0.5-0.4-1.6-0.2-2.1,0.3c-0.5,0.5-0.4,1.5,0.2,2
			C81.3,170.3,81.9,170.3,82.4,169.8z"/>
		<path class="st2" d="M82.1,171.5c0.2-0.2,0.1-0.8,0-1c-0.1-0.2-1-0.4-1.1-0.2c-0.2,0.2,0,1,0.2,1.1
			C81.3,171.6,81.9,171.7,82.1,171.5z"/>
		<path class="st2" d="M144.3,269.9c-0.6,0.1-0.8,0.4-0.8,1c0,0.6,0.3,1.1,0.8,1.2c0.8,0.2,1.5-0.5,1.6-1
			C145.9,270.6,145.2,269.7,144.3,269.9z"/>
		<path class="st2" d="M72.6,184.1c-0.4-0.1-0.7,0.1-1,0.3c-0.4,0.3-0.4,1,0,1.4c0.2,0.1,0.4,0.2,0.5,0.2c0.1,0.4,0.3,0.7,0.5,0.9
			c0.4,0.3,1.3,0.2,1.7-0.2c0.7-0.7,0.7-1.6,0.1-2.2C74,184,73.1,183.9,72.6,184.1z"/>
		<path class="st2" d="M76.4,181c0.3-0.4,0.2-0.7-0.1-1c-0.4-0.3-0.9-0.4-1.3,0c-0.3,0.4-0.3,1.2,0.1,1.4
			C75.4,181.8,76.1,181.5,76.4,181z"/>
		<path class="st2" d="M71.9,177.1c0.3-0.3-0.1-0.7-0.2-0.8c-0.1-0.1-0.3-0.1-0.5,0c-0.1,0.2-0.1,0.3-0.2,0.5c0,0.1,0,0.2,0.1,0.3
			C71.2,177.2,71.6,177.4,71.9,177.1z"/>
		<path class="st2" d="M71.8,180.7c0.5,0.5,1.2-0.1,1.6-0.3c0.4-0.2,0.4-0.8,0-1.2c-0.4-0.4-0.9-0.5-1.2,0
			C72,179.6,71.4,180.2,71.8,180.7z"/>
		<path class="st2" d="M71.1,195.2c0.6,0,1.1,0,1.7,0c0-0.1,0.1-0.2,0.1-0.2c-0.5-0.6-1.1-1.1-1.8-0.7c-0.2,0.1-0.5,0.7-0.4,0.9
			C70.9,195.2,71,195.2,71.1,195.2z"/>
		<path class="st2" d="M152.1,271.9c-0.1-0.6-0.8-1-1.4-0.9c-0.5,0.1-1,0.7-0.9,1.3c0.1,0.5,0.8,0.9,1.3,0.9
			C151.7,273.1,152.2,272.5,152.1,271.9z"/>
		<path class="st2" d="M166.9,269.1c-0.3,0.1-0.4,0.5-0.4,0.7c0.1,0.2,0.2,0.7,0.5,0.6c0.3-0.1,0.5-0.4,0.5-0.6
			C167.4,269.6,167.1,269,166.9,269.1z"/>
		<path class="st2" d="M159.4,275.8c0.1,1,1,1.9,1.7,1.7c0.6-0.1,1.2-1,1.1-1.8c-0.1-0.7-0.9-1.2-1.7-1.1
			C159.7,274.7,159.3,275.1,159.4,275.8z"/>
		<path class="st2" d="M165.2,262.1c-0.9,0-1.8,0-2.6,0c-0.1-1.6-0.3-1.7-1.6-1.3c-0.3,0.8,0,1.3,0.8,1.6c-0.3,2,0.7,2.6,2.7,1.9
			c0.1,0.1,0.2,0.2,0.3,0.3c0.4,0.5,0.8,0.4,1.3,0.2c0.5-0.2,0.6-0.5,0.6-1C166.7,262.5,166.4,262.1,165.2,262.1z"/>
		<path class="st2" d="M161.5,287.1c-0.9-0.4-2.2,0.1-2.4,0.9c-0.1,0.8,0.2,1.3,0.8,1.7c0.6,0.4,1.2,0.2,1.7-0.2
			c0.4-0.4,1.4-1,1.1-1.7C162.5,287,161.8,287.3,161.5,287.1z"/>
		<path class="st2" d="M164.6,281.9c-0.5,0-1,0.5-0.9,1c0,0.5,0.6,0.9,1.1,0.9c0.6,0,1.1-0.5,0.9-1
			C165.5,282.3,165.2,281.9,164.6,281.9z"/>
		<path class="st2" d="M170.3,255.1c-0.8-0.2-1.2,0.4-1.4,1.3c0.5,0.5,0.9,1.1,1.6,0.7c0.5-0.2,0.7-0.7,0.5-1.2
			C170.9,255.5,170.6,255.1,170.3,255.1z"/>
		<path class="st2" d="M172.1,275.2c-0.2,0-0.6,0.1-0.7,0.5c0,0.4,0.6,0.4,0.8,0.4c0.1,0,0.4-0.3,0.4-0.4
			C172.5,275.5,172.3,275.2,172.1,275.2z"/>
		<path class="st2" d="M168.4,273.1c-0.4,0.1-0.6,0.4-0.5,0.8c0.1,0.4,0.5,0.4,0.7,0.4c0.2,0,0.5-0.2,0.5-0.6
			C169.1,273.2,168.8,273,168.4,273.1z"/>
		<path class="st2" d="M168.2,265.9c0.4,0,0.9-0.3,0.7-0.8c-0.1-0.3-0.6-0.8-0.8-0.8c-0.3,0-0.6,0.5-0.9,0.7
			C167.3,265.8,167.7,265.9,168.2,265.9z"/>
		<path class="st2" d="M149.6,276.5c0.5-0.1,0.8-0.6,0.7-1.2c-0.1-0.5-0.8-1-1.6-0.8c-0.1,0.3-0.5,0.7-0.5,1.1
			C148.2,276.2,149,276.6,149.6,276.5z"/>
		<path class="st2" d="M149.9,285.5c-0.4,0.1-1.2,0.7-1.2,1s1,0.6,1.4,0.7c0.4,0.1,0.8-0.6,0.7-1.1
			C150.7,285.6,150.4,285.3,149.9,285.5z"/>
		<path class="st2" d="M81.8,182.5c0.6-0.6,0.6-1.4,0.2-1.8c-0.5-0.4-2.1-0.5-2.4-0.1c-0.6,0.6-0.5,1.6,0.3,2.3
			C80.4,183.4,81.1,183.2,81.8,182.5z"/>
		<path class="st2" d="M146.7,263.6l-0.1-0.1c0.3,0.1,0.6,0.2,0.8,0.3c0.4,0.1,0.8-0.2,0.8-0.8c0-0.6-0.4-1-0.9-0.9
			c-0.2,0-0.6,0.3-0.9,0.6c-0.2-0.6-0.6-0.9-1.1-0.8c-0.7,0.1-1.2,0.8-0.8,1.6c0.3,0.7-0.1,1.1-0.3,1.6c-0.9-0.4-1.5-0.4-2-0.1
			c0,0.4,0,0.8,0,1.2c0,0.6,0,1.2,0,1.8c0.2,0,0.4,0.1,0.7,0c0.8-0.1,1.6-0.2,1.8-1.5c0.3,0.5,0.6,0.7,0.6,1
			c0.2,0.6,0.5,0.9,1.1,0.9c0.6,0,1.2-0.2,1.5-0.9C148.8,265.3,148.6,264.7,146.7,263.6z"/>
		<path class="st2" d="M152.9,296.1c-0.5-0.3-1-0.2-1.4,0.3c-0.3,0.4-0.4,0.7-0.1,1.2c0.5,0.7,1.1,0.6,1.8,0.3
			C153.3,297.1,153.6,296.4,152.9,296.1z"/>
		<path class="st2" d="M155.1,282.6c-0.5,0.1-1,0.6-0.9,1.1c0,0.5,0.7,1.1,1.2,1.1s0.9-0.6,0.9-1.1
			C156.2,283.1,155.6,282.5,155.1,282.6z"/>
		<path class="st2" d="M157.7,260.7c-0.7,0.1-0.7,1-0.8,1.4c-0.1,0.5,0.4,0.8,1,0.8c0.6-0.1,0.9-0.4,0.7-0.9
			C158.5,261.5,158.3,260.6,157.7,260.7z"/>
		<path class="st2" d="M153.3,291.3c-0.2,0-0.7,0.1-0.7,0.5c0,0.4,0.5,0.5,0.6,0.5c0.2-0.1,0.4-0.3,0.5-0.5
			C153.7,291.6,153.4,291.3,153.3,291.3z"/>
		<path class="st2" d="M155.8,266.6c-1,0.1-1.6,0.9-1.5,1.9c0.1,1.1,1.3,1.9,2.4,1.7c0.8-0.2,1.6-1.3,1.5-2.2
			C158.1,267,157.1,266.4,155.8,266.6z"/>
		<path class="st2" d="M160.6,241.6c0-0.8-1.1-1.6-2.1-1.5c-0.7,0-1.2,0.7-1.1,1.6c0,0.9,0.9,1.8,1.5,1.8
			C159.8,243.4,160.7,242.5,160.6,241.6z"/>
		<path class="st2" d="M81.1,187.3c0,0,0,0.1,0,0.2c-0.1-0.3-0.2-0.6-0.3-0.8c0.1-0.2,0.3-0.6,0.1-0.7c-0.2-0.1-0.6-0.1-0.7,0.1
			c-0.1,0.1-0.1,0.2-0.2,0.4c-0.1,0-0.2,0.1-0.3,0.2c-0.4,0.4-0.5,0.9-0.1,1.3c0.2,0.2,0.6,0.3,1,0.4c-0.3,0.5-0.3,1,0.1,1.3
			c0.4,0.4,1,0.4,1.5,0c0.4,0.3,1.1,0.2,1.5-0.3c0.2-0.3,0.2-0.5,0.2-0.8H84c0.4,1.6,1.3,2.1,2.6,1.3c0.1-0.1,0.2-0.2,0.4-0.2
			c0.8-0.6,0.8-1.2,0.1-1.9c-0.6-0.6-1.2-1.1-2.3-0.5c0.2-0.6,0.2-0.9,0.4-1.1c0.4-0.5,0.3-1-0.1-1.4c-0.4-0.5-0.9-0.8-1.6-0.6
			C81,184.5,80.7,185.1,81.1,187.3z"/>
		<path class="st2" d="M123,193.4c0.7-0.8,0.7-2.3-0.1-3c-0.7-0.6-2.2-0.6-2.9,0.1c-0.8,0.7-0.6,1.9,0.3,2.9
			C121.1,194.2,122.3,194.2,123,193.4z"/>
		<path class="st2" d="M122.9,206.6c0.1,0.4,0.5,0.9,0.8,1c0.8,0.3,1-0.5,1.4-1.1c-0.5-0.7-1-1.2-1.7-0.8
			C123.1,205.9,122.8,206.4,122.9,206.6z"/>
		<path class="st2" d="M125.8,197.3c0.4-0.3,0.3-1.4-0.1-1.6c-0.4-0.1-0.7,0-1.1,0.2c-0.5,0.3-0.5,1-0.1,1.4
			C124.9,197.6,125.3,197.6,125.8,197.3z"/>
		<path class="st2" d="M124.7,187.8c-0.1,0.2-0.2,0.5-0.1,0.7c0.1,0.1,0.5,0.4,0.8,0.2c0.3-0.3-0.1-0.7-0.2-0.9
			C125.2,187.7,124.7,187.7,124.7,187.8z"/>
		<path class="st2" d="M112.7,186c-0.1,0.3,0,0.8,0.2,1c0.2,0.2,1,0.3,1.2,0c0.2-0.2-0.1-1.1-0.3-1.2
			C113.5,185.7,112.8,185.7,112.7,186z"/>
		<path class="st2" d="M115.2,179.2c0.3,0.2,1.3,0.5,1.6,0.2c0.3-0.3-0.3-1.2-0.5-1.5c-0.3-0.3-0.8-0.3-1.1,0.2
			C114.9,178.5,114.8,178.9,115.2,179.2z"/>
		<path class="st2" d="M136.3,190.4c0.5-0.4,0.5-0.9,0-1.4c-0.4-0.4-1.1-0.4-1.5,0c-0.4,0.4-0.4,1.1,0,1.4
			C135.2,190.9,135.8,190.8,136.3,190.4z"/>
		<path class="st2" d="M116.5,172.2c-0.1,0.1-0.4,0.7-0.2,0.9c0.2,0.2,0.8,0,0.9-0.2c0.1-0.1,0.2-0.5,0-0.7
			C117,172,116.7,172.1,116.5,172.2z"/>
		<path class="st2" d="M116.7,164.6c0.1-0.1,0.3-0.5,0.1-0.7c-0.2-0.2-0.7,0.1-0.8,0.2c-0.1,0.1-0.1,0.5,0,0.6
			C116.1,164.8,116.5,164.7,116.7,164.6z"/>
		<path class="st2" d="M119.2,196.5c0.4-0.6,0.5-1.1-0.1-1.5c-0.2-0.1-0.7-0.1-0.9,0c-0.2,0.2-0.5,0.7-0.4,0.9
			C118,196.6,118.6,196.5,119.2,196.5z"/>
		<path class="st2" d="M132.8,219.9c-0.4,0.4-0.5,1.1-0.1,1.5c0.2,0.2,0.4,0.3,0.6,0.3c0.1,0.4,0.7,0.9,1.2,1
			c0.5,0.1,0.9-0.3,0.9-0.9c0-0.9-0.2-1.5-0.7-1.5c-0.1,0-0.2,0-0.2,0c0-0.1-0.1-0.3-0.2-0.4C133.8,219.6,133.2,219.5,132.8,219.9z"
			/>
		<path class="st2" d="M133.4,198.9c0.1-0.2,0.4-0.6,0.2-0.7c-0.2-0.1-0.6-0.1-0.8,0s-0.4,0.7-0.2,0.9
			C132.9,199.2,133.3,199,133.4,198.9z"/>
		<path class="st2" d="M132.9,213.2c0.4-0.4,0.3-1-0.1-1.4c-0.5-0.5-1.2-0.5-1.6,0c-0.4,0.4-0.3,1.2,0.1,1.6
			C131.6,213.7,132.5,213.6,132.9,213.2z"/>
		<path class="st2" d="M136.1,201.5c0.4-0.5,0.3-1.1-0.2-1.5c-0.5-0.5-1.1-0.5-1.4-0.2c-0.3,0.5-0.3,1.5,0.1,1.9
			C134.9,202.1,135.7,202,136.1,201.5z"/>
		<path class="st2" d="M126.8,204.1c0,0.1,0.2,0.6,0.5,0.5c0.3-0.1,0.4-0.6,0.4-0.8c0-0.1-0.3-0.4-0.5-0.4
			C127,203.5,126.8,203.8,126.8,204.1z"/>
		<path class="st2" d="M124.7,176.9c0.3,0.2,1.2,0.5,1.3,0.3c0.2-0.2,0-1.1-0.2-1.4c-0.2-0.4-0.8-0.4-1.2,0S124.4,176.6,124.7,176.9
			z"/>
		<path class="st2" d="M125.8,200.8c-0.1,0.2-0.2,0.5-0.2,0.6c0,0.2,0.3,0.5,0.5,0.5c0.2,0,0.4-0.4,0.4-0.6c0,0,0-0.1,0-0.2
			c0.2,0,0.4-0.1,0.5-0.4c0.2-0.3,0.3-0.7,0.2-1c-0.2-0.3-1.2-0.3-1.6,0.1C125.4,200.3,125.6,200.6,125.8,200.8z"/>
		<path class="st2" d="M130.3,206.9c0.5-0.6,0.5-1.8,0-2.3c-0.4-0.4-1.6-0.1-2.2,0.6c-0.4,0.4-0.3,1.3,0.2,1.7
			C128.9,207.3,129.9,207.3,130.3,206.9z"/>
		<path class="st2" d="M129.7,192.9c0.3-0.4,0.3-0.7-0.1-1c-0.4-0.3-0.8-0.5-1.3-0.1c-0.3,0.3-0.4,1.1,0,1.4
			C128.6,193.6,129.2,193.4,129.7,192.9z"/>
		<path class="st2" d="M117.7,185.6c0.4-0.5,0.3-1.4-0.1-1.8c-0.5-0.5-2.2-0.5-2.5,0c-0.4,0.6-0.2,1.7,0.5,2.3
			C116.3,186.5,117,186.4,117.7,185.6z"/>
		<path class="st2" d="M92.3,181.4c0.8,0.7,1.4,0.8,2,0.2c0.6-0.6,0.6-1.8,0.1-2.3s-1.8-0.5-2.4,0.1
			C91.6,179.8,91.7,180.8,92.3,181.4z"/>
		<path class="st2" d="M91.9,162.2c0.7-0.4,0.9-1,0.8-1.7c-0.1-0.8-0.6-1.1-1.3-1.2c-0.5,0-1.6-0.4-2.1,0.2c-0.4,0.7,0.2,1,0.3,1.3
			C90,161.9,91.2,162.6,91.9,162.2z"/>
		<path class="st2" d="M96.5,177.5c0.1-0.2,0-0.7-0.2-1c-0.2-0.3-0.7-0.4-0.9,0.1c-0.2,0.3-0.5,1.1-0.2,1.4
			C95.5,178.3,96.3,177.7,96.5,177.5z"/>
		<path class="st2" d="M89.3,178.4c0.5-0.4,0.3-1.2-0.2-1.6c-0.4-0.3-1-0.2-1.4,0.2c-0.3,0.4-0.3,1.2,0.4,1.7
			C88.4,178.7,88.9,178.7,89.3,178.4z"/>
		<path class="st2" d="M85.1,162c0.4-0.3,0.4-1,0-1.4c-0.4-0.4-1.1-0.5-1.4-0.1c-0.3,0.5-0.4,1,0,1.4C84,162.4,84.7,162.4,85.1,162z
			"/>
		<path class="st2" d="M84.9,183.8c-0.1,0.2-0.1,0.6,0,0.7c0.1,0.1,0.7,0.2,0.8,0.1s-0.1-0.7-0.2-0.8
			C85.4,183.7,85,183.7,84.9,183.8z"/>
		<path class="st2" d="M85.4,174.2c0.7,0.5,1.8,0,2-0.3c0.2-0.3-0.1-1.5-0.9-1.8c-0.5-0.2-1,0-1.3,0.6
			C84.9,173.3,84.9,173.9,85.4,174.2z"/>
		<path class="st2" d="M95.8,170.9c0.3,0.2,1.3,0.5,1.5,0.2c0.2-0.3-0.2-1.2-0.4-1.5c-0.2-0.4-0.9-0.2-1.2,0.2
			C95.5,170.2,95.4,170.7,95.8,170.9z"/>
		<path class="st2" d="M85.6,177.7c-0.4-0.4-1.2-0.4-1.5,0.1c-0.4,0.5-0.3,1.3,0.2,1.6c0.4,0.3,1.2,0.3,1.5-0.2
			C86.1,178.9,86,178.1,85.6,177.7z"/>
		<path class="st2" d="M111.1,190.2c0.1,0.6,0.5,0.9,1.1,0.9c0.5,0,0.8-0.2,1-0.7c0.2-0.8-0.3-1.2-0.9-1.6
			C111.7,189.2,111,189.4,111.1,190.2z"/>
		<path class="st2" d="M107.7,190.4c0.4,0.4,1,0.3,1.6-0.3c0.6-0.7,0.7-1.3,0.2-1.7c-0.7-0.6-1.6-0.7-2-0.1
			C107.1,188.7,107.3,190,107.7,190.4z"/>
		<path class="st2" d="M98.9,164.8c0.3-0.2,0.1-0.7,0-0.7c-0.2-0.1-0.5-0.1-0.7-0.1c-0.1,0-0.2,0.5-0.1,0.6
			C98.3,164.7,98.6,165,98.9,164.8z"/>
		<path class="st2" d="M108.4,194.6c0,0.7,0.8,0.9,0.2,1.4c-0.6,0.5-1.8,1.7-0.7,2.8c0.5,0.5,1.6,0.5,2.2,0
			c-0.1,0.6,0.2,1.3,0.7,1.7c0.7,0.6,2.1,0.4,2.7-0.4c0.6-0.7,0.5-1.8-0.1-2.3s-1.9-0.5-2.6-0.1c0.1-0.3,0.1-0.6,0-0.8
			c-0.3-0.6,1.1-0.9,0.7-1.7c-0.4-0.7,0.4-1.5-0.2-2.4c-0.6-0.9-1.7-1.4-2.3-0.7C108.5,193,108.5,193.7,108.4,194.6z"/>
		<path class="st2" d="M113.5,182.2c0.4-0.4,0.3-1-0.1-1.4c-0.5-0.5-1.2-0.5-1.6,0c-0.4,0.4-0.3,1.2,0.1,1.6
			C112.3,182.7,113.1,182.6,113.5,182.2z"/>
		<path class="st2" d="M111.2,177.8c0.1-0.1,0-0.3-0.1-0.4c-0.1-0.1-0.3-0.1-0.4,0c-0.1,0.1-0.1,0.3,0,0.5
			C110.9,178,111.1,177.9,111.2,177.8z"/>
		<path class="st2" d="M98.6,180.7c0.7,0.7,2.5,0.8,3.2,0.1c0.7-0.7,0.6-2.1-0.1-2.7c-0.8-0.7-2-0.8-2.7-0.1
			C98.2,178.8,98,180.1,98.6,180.7z"/>
		<path class="st2" d="M103.2,162.8c0.5,0,0.8-0.2,1-0.7c0.2-0.8-0.3-1.2-0.9-1.6c-0.6,0.4-1.3,0.6-1.1,1.4
			C102.2,162.4,102.6,162.7,103.2,162.8z"/>
		<path class="st2" d="M105.3,177c-0.5,0.5-0.6,1.1-0.2,1.5c0.5,0.6,1.7,0.6,2.2,0.1c0.5-0.4,0.5-1.2,0.1-1.7
			C106.9,176.4,105.8,176.4,105.3,177z"/>
		<path class="st2" d="M103.4,170.8c-0.6,0.7-0.5,1.7,0.3,2.4c0.6,0.5,1.8,0.3,2.3-0.3c0.6-0.7,0.5-1.6-0.4-2.2
			C104.8,170,104,170.1,103.4,170.8z"/>
		<path class="st3" d="M349.8,302.5c-8.3-2.8-16.9-3.3-25-1.8c-5.4-29.1-26-54.6-56.2-64.6c-44.1-14.8-91.9,9-106.7,53.1
			c-1.3,3.8-2.2,7.6-2.9,11.4c-23.7-3.7-47.4,10.1-55.2,33.5c-8.8,26.2,5.4,54.6,31.6,63.3c4.9,1.6,9.9,2.5,14.8,2.6
			c0.2,0,0.5,0,0.7,0H240c0.4,0,0.8,0,1.2,0h91.6c0.2,0,0.5,0,0.7,0h1.8c20.4-0.6,39.3-13.7,46.2-34.1
			C390.2,339.6,376.1,311.3,349.8,302.5z"/>
		<path class="st4" d="M358,366.3c0.3-0.4-0.1-1.6-0.7-1.6c-0.5,0-0.9,0.5-0.9,0.9C356.4,366.2,357.7,366.6,358,366.3z"/>
		<path class="st4" d="M364.6,375c0.7,0.3,1.6,0,1.8-0.6c0.3-0.6,0-1.3-0.6-1.6c-0.4-0.2-1,0-1.4,0.3c0.1-0.8-0.5-1.1-1.2-1.4
			c-0.6,0.5-1.2,0.8-0.9,1.5c0.2,0.5,0.7,0.8,1.2,0.7c0.1,0,0.2,0,0.3-0.1C363.9,374.4,364.1,374.8,364.6,375z"/>
		<path class="st4" d="M363.9,389.3c-0.8,0.1-0.7,0.7-0.8,1.3c1.6-1.1,3.1-2.4,4.6-3.7c0-0.2-0.1-0.3-0.2-0.4
			c-0.2-0.2-0.5-0.3-0.9-0.3c0.2-0.1,0.4-0.3,0.5-0.5c0.2-0.7-0.1-1.4-0.8-1.6c-0.6-0.1-1.1,0.2-1.3,0.8c-0.1,0.5-0.2,1.1,0.3,1.2
			c0.1,0,0.1,0,0.2,0c-0.2,0-0.3,0.1-0.4,0.2c-0.4,0.3-1,0.7-0.7,1.3c0.3,0.6,0.3,1.2,0.1,1.8C364.3,389.4,364.1,389.3,363.9,389.3z
			"/>
		<path class="st4" d="M359,378.8c0.5,0.2,1.2-0.2,1.3-0.8c0.1-0.6-0.2-1.1-0.8-1.3c-0.6-0.2-1,0.1-1.2,0.7
			C358.1,377.9,358.4,378.6,359,378.8z"/>
		<path class="st4" d="M367,378.9c0.8,0,1.4-1.1,1.4-2.2c0.1-0.8-1.1-1.8-1.9-1.7s-1.8,1.3-1.5,2.4
			C365.5,378.4,366.2,378.9,367,378.9z"/>
		<path class="st4" d="M381.5,361.5c-0.8-0.3-2.3,0.4-2.7,1.3c-0.4,0.9,0.1,1.8,1,2.2c0.7,0.3,1.3,0.4,1.8,0.3
			c0.3-1,0.6-1.9,0.8-2.9C382.2,362,381.9,361.7,381.5,361.5z"/>
		<path class="st4" d="M371.3,376.8c-1.2-0.4-2.1-0.1-2.5,1c-0.4,1.1,0.1,2.1,1.4,2.6c0.8,0.3,1.9-0.3,2.3-1.2
			C373,378.1,372.5,377.2,371.3,376.8z"/>
		<path class="st4" d="M373.5,377.2c-0.2,0.4-0.2,0.8-0.1,1.2c-0.2,0.2-0.3,0.5-0.3,0.7c0,0.5,0.4,0.6,0.6,0.6
			c0.1,0,0.2-0.1,0.3-0.2c0.1,0.1,0.2,0.1,0.2,0.2c0.8-1.1,1.6-2.3,2.3-3.5C375.1,375.7,373.9,376,373.5,377.2z"/>
		<path class="st4" d="M379.6,370.3c0,0.1,0,0.1,0,0.2c0.1-0.3,0.2-0.5,0.4-0.8C379.8,369.9,379.7,370.1,379.6,370.3z"/>
		<path class="st4" d="M369.7,385c-0.5-0.1-0.8,0.1-1.1,0.6c-0.1,0.2-0.1,0.4-0.1,0.7C368.9,385.8,369.3,385.4,369.7,385z"/>
		<path class="st4" d="M365.7,359.7c0.2-0.5,0-1-0.6-1.3c-0.6-0.3-1.2-0.1-1.5,0.5c-0.2,0.6,0.1,1.3,0.6,1.4c0.1,0,0.3,0.1,0.4,0
			c-0.1,0.1-0.1,0.1-0.2,0.2c-0.2,0.4-0.3,0.9,0.2,1.1c0.4,0.1,1.3,0.3,1.6,0c0.2-0.3-0.5-1.1-0.8-1.4c-0.1-0.1-0.2-0.1-0.3-0.1
			C365.5,360.1,365.6,359.9,365.7,359.7z"/>
		<path class="st4" d="M370.1,361.4c-0.2,0.8-0.8,1.2-0.7,2c0.2,1,1.1,2.5,2.9,2.7c1.1,0.1,1.9-0.2,2.4-0.8c0.6-0.7,0-1.7,0.3-2.6
			c0.1-0.2,0.1-0.3,0.1-0.5c0.3,0.2,0.6,0.2,1.1,0c0.5-0.2,0.8-0.7,0.5-1.2c-0.2-0.4-0.6-0.8-1-0.9c-0.4-0.1-0.7,0.1-0.9,0.4
			c-0.5-0.6-1.3-1-2.2-1.1c-0.5-0.1-1,0.1-1.5,0.3C370.6,360,370.2,360.6,370.1,361.4z"/>
		<path class="st4" d="M362.4,363.3c-0.3,0-0.6,0.2-0.8,0.5c-0.3,0.5-0.1,1.2,0.3,1.5c0.2,0.1,0.4,0.1,0.6,0.1
			c0.1,0.2,0.3,0.4,0.5,0.5c0,0.1-0.1,0.2-0.1,0.3c-0.4,1.1,0.1,1.7,0.9,2.3c-0.2,0-0.4,0.1-0.4,0.3c0,0.1,0,0.3,0,0.4
			c-0.2,0.3-0.2,0.6,0.2,1c0.4,0.4,0.9,0.4,1.3,0.2c0.8-0.5,0.4-1.1,0.2-1.7c0.3-0.2,0.5-0.4,0.8-0.6c0.1,0.1,0.2,0.2,0.4,0.3
			c0.1,0,0.1,0.1,0.2,0.1c0.2,0.2,0.4,0.4,0.5,0.7c0.4-0.1,0.8-0.1,1.2-0.2c0.6-0.2,1.2-1.2,1.2-1.7c-0.1-0.4-0.5-0.8-1.1-1
			c-0.1-0.2-0.2-0.3-0.4-0.4c-0.3-0.2-0.9-0.2-1.4-0.1c-0.3-0.4-0.6-0.8-1-1c0-0.2,0.1-0.3,0.1-0.5c0.1-0.8-0.9-1.9-1.7-1.9
			C363.3,362.4,362.7,362.8,362.4,363.3z"/>
		<path class="st4" d="M348.4,381c0.3-0.3-0.2-1.4-1-1.5c-0.3,0-0.7,0.2-0.9,0.5c-0.3,0.5-0.2,1.1,0.3,1.4
			C347.4,381.8,348.1,381.3,348.4,381z"/>
		<path class="st4" d="M343.7,380.1c-0.5-0.3-1.1-0.1-1.5,0.5c-0.4,0.6-0.2,1.5,0.3,1.7c0.7,0.3,1.3,0.2,1.8-0.4
			C344.7,381.3,344.4,380.5,343.7,380.1z"/>
		<path class="st4" d="M380.1,351.3c0.6,0.1,1.3-0.3,1.4-0.8c0.2-0.6-0.2-1.2-0.7-1.4c-0.6-0.2-1.3,0.2-1.5,0.7
			C379.2,350.4,379.5,351.1,380.1,351.3z"/>
		<path class="st4" d="M370.8,348.6c-0.8-0.3-1.8,0-2,0.6c-0.2,0.8,0.5,2,1.3,2.3c0.7,0.3,1.3-0.1,1.6-0.9
			C372.1,349.6,371.8,348.9,370.8,348.6z"/>
		<path class="st4" d="M353.9,389.1c0.7,0.3,1.3,0,1.5-0.6c0-0.1,0-0.2,0-0.4c0.1,0.3,0.2,0.6,0.3,0.9c0.3,1,2.6,1.8,3.4,1.2
			c0.1-0.1,0.2-0.1,0.2-0.2c0.1-0.9,0.9-1,1.5-1.3c0.8-0.4,1-1,0.5-1.8c0-0.1-0.1-0.1-0.1-0.2c0.2-0.1,0.3-0.2,0.4-0.3
			c0.2-0.3,0.3-0.8,0.4-1.2h0.1c-0.3-0.2-0.7-0.5-1-0.7c0.3-1,0-1.9-0.6-2.1c-0.7-0.2-1.8,0.4-2.1,1.1c-0.2,0.6,0.4,1.6,1,1.9
			c0.1,0,0.3,0.1,0.4,0.1c-0.1,0.2-0.1,0.5,0,0.7c-0.4,0.1-0.7,0.3-0.9,0.6c-0.3,0.4-0.5,0.9-1.3,0.8c-0.1-0.3-0.2-0.7-0.5-0.9
			c-0.4-0.2-0.9-0.3-1.3-0.2c-0.4,0.1-0.5,0.5-0.4,1c-0.1-0.2-0.3-0.5-0.6-0.5c-0.6-0.2-1.3,0.2-1.5,0.8
			C353.1,388.3,353.4,388.9,353.9,389.1z"/>
		<path class="st4" d="M354.8,384.8c0.6,0.1,1.2,0,1.4-0.5c0.3-0.5,0.1-2-0.3-2.3c-0.3-0.2-0.8-0.2-1.3,0c-0.1-0.1-0.2-0.1-0.3-0.2
			c-0.5-0.2-1.3,0.3-1.5,1c-0.3,0.9,0.1,1.7,0.9,2C354.1,385,354.5,385,354.8,384.8z"/>
		<path class="st4" d="M378.6,352.9c-0.3-0.7-1.4-1.1-2.4-0.8c-0.6,0.2-1.2,0.5-1.8-0.1c-0.5-0.4-1,0-1.3,0.5c0.2,0.8,0.6,1.1,1.3,1
			c0.4,0.8,0.5,1.4,0.9,1.8c0.3,0.5,1.2,0.7,1.9,0.7c-0.3,0.3-0.6,0.7-0.7,1.2c-0.4,1.5-0.1,2.1,1.1,2.5c1.2,0.4,2.2-0.2,2.6-1.5
			c0-0.1,0-0.2,0.1-0.3c0.2,0.6,0.6,1.1,1.1,1.3c0.6,0.2,1.4-0.3,1.6-1c0.3-0.9,0-1.6-1-2c-0.7-0.3-1.7,0-1.8,0.5
			c0,0.1,0,0.2-0.1,0.2c-0.2-0.6-0.7-1.1-1.4-1.3c-0.2-0.1-0.5-0.1-0.7-0.1C378.6,354.9,378.9,353.6,378.6,352.9z"/>
		<path class="st4" d="M360.6,361c0.1-0.1-0.1-0.3-0.1-0.4c-0.1,0-0.3-0.1-0.4,0.1c-0.1,0.1-0.1,0.4,0.1,0.5
			C360.3,361.3,360.5,361.1,360.6,361z"/>
		<path class="st4" d="M348.8,380.6c-0.3,0.6-0.1,1.2,0.5,1.4c0.5,0.2,1.1,0,1.3-0.5c0.2-0.5,0-1.2-0.6-1.4
			C349.5,379.8,349.1,380,348.8,380.6z"/>
		<path class="st4" d="M351.6,378.2c0.9,0.1,1.9,0.2,2.8,0.5c0.2,0.4,0.4,0.8,0.7,0.9c0.8,0.3,1.5-0.1,1.9-1.1
			c0.2-0.6,0-1.1-0.5-1.4c-0.1-0.1-0.3-0.2-0.4-0.2c0,0-0.1,0-0.1-0.1c-0.1,0-0.2,0-0.3-0.1c-0.4-0.2-0.4-0.6-0.7-0.9
			c-0.1-0.1-0.3-0.3-0.4-0.4c0-0.3-0.3-0.7-0.5-0.8c-0.2-0.1-1-0.1-1.2,0.2h-0.1c-0.3,0-0.7,0-1,0c-1.1,0.1-1.6,0.6-1.7,1.4
			C349.9,377.3,350.6,378,351.6,378.2z"/>
		<path class="st4" d="M354.6,361.1c-0.4,0.6-0.4,1.2,0,1.5c0.6,0.5,1.8,0.4,2.2-0.2c0.4-0.5,0.3-1.3-0.2-1.7
			C356.1,360.3,355,360.5,354.6,361.1z"/>
		<path class="st4" d="M354.1,367.5c-0.4-0.6-0.7-1.3-1.6-0.8c-0.4,0.2-0.6,0.5-0.7,0.8c-0.1,0-0.2,0-0.3,0
			c-0.8,0.1-1.5,1.3-1.4,2.1c0,0.5,0.5,1.5,1.5,1.2c1.2-1.2,1.7-0.1,2.8-0.7c0.1-0.1,0.3-0.2,0.3-0.3c0.5,0.4,1,0.5,1.4,0.2
			c0.7-0.4,1-1.8,0.6-2.6C356.3,366.7,355.8,366.7,354.1,367.5z"/>
		<path class="st4" d="M351,372.2c-0.4,0.5-0.3,1.6,0.3,2.1c0.4,0.4,1.4,0.3,1.7-0.1c0.7-0.9,0.8-1.9,0.2-2.3
			C352.6,371.4,351.5,371.5,351,372.2z"/>
		<path class="st4" d="M348.7,384.7c0.5,0.3,0.9,0.5,1.3,0.8c0.6,0.4,1.7,0.2,2.2-0.4c0.3-0.4,0.3-1.4-0.1-1.6
			c-0.7-0.3-1.3-0.7-2.2-0.5C348.8,383.3,348.7,383.4,348.7,384.7z"/>
		<path class="st4" d="M334.5,392c0.5,0.1,1.8-1.1,1.7-1.8c0-0.4-0.2-0.6-0.4-0.8c0-0.1,0-0.1,0-0.2c-0.2-0.6-0.8-0.9-1.5-0.7
			c-0.5,0.2-0.8,0.8-0.7,1.4c0,0,0,0,0,0.1C333.6,390.7,334.1,391.9,334.5,392z"/>
		<path class="st4" d="M337.5,383.4c-0.9,0-2.1,0.1-3.2,0.1c-0.1,0-0.3,0.3-0.4,0.5c-0.1,0.6-0.4,1-1,1.3c-0.7,0.5-0.7,1.6,0,1.9
			c0.7,0.3,1.5,0.8,2.4,0.3c0.4-0.3,1-0.4,1.6-0.2c0.8,0.2,1.7-0.4,1.9-1C339,385.9,338.2,383.9,337.5,383.4z"/>
		<path class="st4" d="M337.5,389.1c-0.4,0.5-0.1,1.4,0.8,2.1c0.4,0.3,1.3,0.2,1.7-0.3c0.4-0.6,0.4-1.6-0.1-2
			C339.2,388.4,337.9,388.5,337.5,389.1z"/>
		<path class="st4" d="M357.7,393.7c0.2,0,0.4,0,0.5,0c0.8-0.4,1.6-0.9,2.4-1.4c-0.2-0.2-0.4-0.4-0.6-0.4c-0.6-0.2-1.3,0.1-1.7,0.5
			c-0.3-0.3-0.8-0.3-1.1,0.2c0,0,0,0.1-0.1,0.1c-0.3-0.4-0.8-0.7-1.5-0.4c-1.3,0.5-1.1,1.4-0.9,1.8c0.2,0.4-0.1,1.2-0.4,0.9
			c-0.3-0.3-0.9-0.3-1.8,0.5c-0.4,0.4-0.7,0.8-0.7,1.3c2.1-0.8,4.1-1.7,6-2.8C357.7,393.8,357.7,393.8,357.7,393.7z"/>
		<path class="st4" d="M345.5,397.7c-0.6,0.1-1,0.6-1.2,1.2c0.8-0.2,1.6-0.4,2.4-0.6c-0.1-0.2-0.1-0.3-0.2-0.5
			C346.3,397.7,345.8,397.6,345.5,397.7z"/>
		<path class="st4" d="M359.5,341.9c0,0.4,0.2,0.7,0.2,1c0.7,0.2,1.2-0.2,1.4-0.7c0.1-0.5-0.2-0.7-0.6-0.8
			C360,341.1,359.5,341.4,359.5,341.9z"/>
		<path class="st4" d="M369,372.8c0.2,1.1,2.2,2.5,3.3,2.4c0.8,0.4,1.8,0.2,2.3-0.6c0.1-0.1,0.1-0.2,0.2-0.4
			c0.5,0.3,1.1,0.5,1.7,0.4c1.3-0.2,2.2-2.1,2.1-3c-0.1-0.9-0.3-1.6-0.9-2.1c-0.4-0.3-0.9-0.6-1.5-0.6c0-0.4-0.3-0.7-0.7-0.9
			c-0.5-0.2-1.3,0.2-1.4,0.7c-0.1,0.3,0,0.7,0.2,0.9c-0.5,0.6-0.9,1.5-1.2,1.5c-0.4,0-1.4-1.3-2.7-1
			C369.3,370.5,368.9,371.7,369,372.8z"/>
		<path class="st4" d="M360.7,375.6c-0.5,0.8-0.3,1.6-0.2,2.5c0.1,0.7,1,0.8,0.4,1.4c-0.6,0.6-1.5,2-0.3,2.9
			c0.6,0.4,1.7,0.3,2.2-0.3c0,0.6,0.4,1.2,1,1.6c0.8,0.5,2.2,0.1,2.6-0.8c0.4-0.8,0.2-1.8-0.4-2.3c0.1-0.1,0.1-0.2,0.2-0.3
			c0.2-0.7-0.4-2.1-1.1-2.4c-0.5-0.2-1,0-1.4,0.3c-0.4-0.7,0.1-1.5-0.5-2.3C362.3,375.1,361.1,374.7,360.7,375.6z M363.5,380.6
			c-0.1,0-0.1,0.1-0.2,0.1c0-0.1,0-0.2,0-0.4C363.3,380.5,363.4,380.6,363.5,380.6z"/>
		<path class="st4" d="M382.8,360.5c-0.1,0.2,0,0.4,0,0.6c0.1-0.3,0.1-0.6,0.2-1C382.9,360.3,382.8,360.4,382.8,360.5z"/>
		<path class="st4" d="M360.4,362.7c-0.6,0-0.7,0.6-0.8,1.1c0.4,0.5,0.9,0.8,1.5,0.3c0.2-0.2,0.3-0.7,0.2-0.8
			C361.2,363,360.8,362.7,360.4,362.7z"/>
		<path class="st4" d="M357.6,356.5c-0.5-0.1-1.2,0.3-1.3,0.8c-0.2,0.6,0.1,1.1,0.8,1.3c0.7,0.2,1.3-0.1,1.5-0.7
			C358.7,357.4,358.2,356.7,357.6,356.5z"/>
		<path class="st4" d="M373.5,356.9c-0.4,0.5-0.1,0.9,0.2,1.1c0.3,0.2,1.2,0.3,1.4,0.1c0.2-0.2-0.2-1-0.4-1.3
			C374.4,356.3,373.9,356.5,373.5,356.9z"/>
		<path class="st4" d="M357.5,370c-0.2,0.6,0.3,1.7,1,2c-0.2,0.5,0.2,1.7,0.6,2c0.5,0.4,1,0.2,1.5-0.6s0.5-1.4-0.1-1.7
			c0,0-0.1,0-0.1-0.1c0.1-0.1,0.2-0.3,0.3-0.5c0.2-0.9-0.1-1.6-1-1.9C358.7,369,357.7,369.3,357.5,370z"/>
		<path class="st4" d="M344,384.9c0.5,0.1,1.2-0.2,1.4-0.7c0.7,0.6,1.3-0.1,1.9-0.4c-0.2-0.9-0.3-1.6-1.2-1.6c-0.5,0-1,0.2-1,0.8
			v0.1c-0.1,0-0.1-0.1-0.2-0.1c-0.6-0.2-1.3,0.1-1.5,0.6C343.1,384.1,343.5,384.8,344,384.9z"/>
		<path class="st4" d="M368.3,383.2c0.2,0,0.6,0.1,0.9,0.2c0,0.4,0.3,0.7,0.8,0.8c0.1,0,0.2,0.1,0.3,0.1c0.4-0.5,0.9-1,1.3-1.4v-0.1
			v-0.1c0-0.5-0.2-1-0.9-1.1c-0.3-0.1-0.6-0.2-0.9-0.3c-0.8-0.5-1.4-0.4-2.1,0.2C367.2,381.9,367.3,382.5,368.3,383.2z"/>
		<path class="st4" d="M360.3,337.6c-0.1,0.2,0,0.6,0.3,0.7c0.3,0.1,0.6-0.1,0.7-0.3c0.1-0.2,0.1-0.8-0.2-0.9
			C360.8,337.1,360.4,337.5,360.3,337.6z"/>
		<path class="st4" d="M277,396.8c0.2,0.1,0.5,0.2,0.7,0.1c0.4-0.3,0.8-0.7,1.2-1.1c1.3,0.2,2.3-0.2,2.4-1c0.1-0.8-0.8-1.9-1.6-2.1
			c-0.9-0.2-1.2,0.2-1.6,2.1c-0.7-0.1-1.5-0.2-1.7,0.7C276.3,396,276.5,396.5,277,396.8z"/>
		<path class="st4" d="M292.4,379c0.1,0.2,0.4,0.4,0.6,0.4s0.6-0.2,0.6-0.6c-0.1-0.4-0.6-0.3-0.8-0.3
			C292.6,378.6,292.4,379,292.4,379z"/>
		<path class="st4" d="M291.7,389.6c-0.4,0.7-0.1,2.2,0.9,2.6c1.1,0.4,1.9,0.1,2.4-0.5c0.5-0.6,0-1.8-0.8-2.5
			C293.6,388.7,292.1,388.9,291.7,389.6z"/>
		<path class="st4" d="M293.8,366.7c-0.2,0-0.9,0.6-0.8,0.8c0.1,0.3,0.8,0.5,1,0.4c0.3-0.1,0.7-0.5,0.6-0.7
			C294.5,367,294,366.7,293.8,366.7z"/>
		<path class="st4" d="M295.9,387.3c-0.2,0.1-0.5,0.5-0.4,0.8s0.3,0.7,0.6,0.8c0.7,0.2,1-0.4,1.2-0.9
			C296.9,387.4,296.5,387,295.9,387.3z"/>
		<path class="st4" d="M293.8,381.7c-0.9,0.3-1.6,1.6-1.3,2.6c0.3,1,1.4,1.5,2.7,1.2c1-0.3,1.6-1.3,1.3-2.3
			C296.2,382.1,294.8,381.4,293.8,381.7z"/>
		<path class="st4" d="M350.2,390.8c0.4,0.2,0.9,0.1,1-0.4c0.1,0,0.2-0.1,0.3-0.2c0.6-0.3,0.7-0.9,0.6-1.6c-0.1-1.7-0.7-2.2-2.2-2.1
			c-1.2,0.1-2.3,0.2-3.4,0.3c-0.5-2.3-0.7-2.5-2.3-1.7c-0.2,1.2,0.3,1.8,1.4,2.2c0,2.9,1.4,3.7,3.9,2.4l0.1,0.1
			c0,0.1-0.1,0.1-0.1,0.2C349.4,390.4,349.8,390.6,350.2,390.8z"/>
		<path class="st4" d="M322.1,369.9c0.5,0.4,1.2-0.3,1.5-0.5c0.4-0.3,0.2-0.9-0.2-1.2c-0.5-0.4-1-0.3-1.2,0.2
			C322,368.8,321.6,369.6,322.1,369.9z"/>
		<path class="st4" d="M307.5,371.6c-0.1-0.2-0.6-0.3-0.8-0.3c-0.1,0-0.3,0.4-0.3,0.5c0.1,0.2,0.4,0.4,0.6,0.4
			C307.1,372.2,307.6,371.8,307.5,371.6z"/>
		<path class="st4" d="M288.4,394.6c0.4,0.9,1,1.3,1.8,1.7c0.6,0.4,1.2-0.3,1.4,0.6c0.1,0.8,0.6,2.4,2,2c0.7-0.2,1.3-1.2,1.1-1.9
			c0.5,0.3,1.2,0.5,1.8,0.2c0.9-0.3,1.4-1.6,1-2.5c-0.4-0.9-1.3-1.4-2.1-1.1c-0.7,0.3-1.3,1.4-1.4,2.2c-0.2-0.2-0.5-0.4-0.8-0.4
			c-0.6,0-0.2-1.4-1.1-1.5c-0.8-0.1-1.2-1.1-2.2-1C289.1,393,288.1,393.8,288.4,394.6z"/>
		<path class="st4" d="M301.7,380.9c-0.7-0.2-1.3-0.1-1.8,0.5c-0.2,0.3-0.3,0.6-0.3,0.9c-0.2,0.2-0.2,0.5-0.2,0.8
			c0,0.5,0.5,0.8,0.9,0.8c0.1,0.1,0.2,0.3,0.4,0.4c-0.1,0.2-0.1,0.4-0.2,0.7c-0.1,0.9,0.3,1.9,0.9,2.2c0.8,0.4,1.7,0.3,2.5-0.2
			c0.2-0.2,0.5-0.5,0.5-0.8c0.1-0.7-0.1-1.3-0.5-1.7c0.1,0,0.3,0,0.4-0.1c0.5-0.2,0.8-0.7,0.5-1.1c-0.2-0.3-0.4-0.7-0.8-0.6
			c-0.3,0-0.9,0.9-0.7,1.4c-0.2-0.1-0.3-0.2-0.6-0.2c-0.2-0.1-0.5-0.1-0.7-0.2c0.1-0.4,0.3-0.8,0.4-1.3
			C302.7,381.6,302.5,381.2,301.7,380.9z"/>
		<path class="st4" d="M296.4,384.9c-0.5,0.1-1,1-0.3,1.6c0.8,0.5,1.5-0.4,1.4-0.9C297.4,385.2,296.8,384.8,296.4,384.9z"/>
		<path class="st4" d="M333.1,381.4c-0.6-0.3-1.3-0.2-1.6,0.4c-0.3,0.5-0.1,1.4,0.4,1.7c0.4,0.2,1.5-0.1,1.8-0.6
			C333.9,382.5,333.5,381.6,333.1,381.4z"/>
		<path class="st4" d="M261.6,391.3c-0.6,0.8,0.6,1.8,1,1.6c0.5-0.1,1-1.3,0.6-1.7C262.7,390.6,262.2,390.4,261.6,391.3z"/>
		<path class="st4" d="M276.9,386c0.2-0.1,0.2-0.3,0.2-0.4c0-0.1-0.3-0.2-0.4-0.1c-0.1,0-0.2,0.2-0.2,0.3
			C276.6,385.9,276.7,386.1,276.9,386z"/>
		<path class="st4" d="M260,385c0.3-0.4,0.3-0.8-0.1-1.2c-0.6-0.6-1.2-0.4-1.9,0c0,0.7-0.2,1.4,0.6,1.7
			C259.1,385.7,259.6,385.5,260,385z"/>
		<path class="st4" d="M259,389.4c-0.2,0.1-0.4,0.4-0.4,0.6c0,0.1,0.3,0.4,0.4,0.4c0.2-0.1,0.6-0.2,0.6-0.6
			C259.6,389.3,259.1,389.3,259,389.4z"/>
		<path class="st4" d="M262.3,395c0.2,0.4,0.6,0.7,1,0.5c0.1,0,0.1-0.1,0.2-0.1c0.3,0.4,0.9,0,1.1-0.2c0.2-0.2,0.4-0.6,0.1-0.9
			c-0.1-0.1-0.3-0.2-0.5-0.2c-0.3-0.3-1.1-0.3-1.4-0.3C262.3,393.8,262.1,394.5,262.3,395z"/>
		<path class="st4" d="M257.4,398.3c0.1,0.5,0.6,0.8,1,0.9c0,0.1,0.1,0.1,0.2,0.2c0.4,0.2,0.9,0.2,1.3,0.1c0.4-0.2,0.3-1.1-0.1-1.3
			c-0.1-0.1-0.2-0.1-0.3-0.1c0,0,0,0,0-0.1c-0.1-0.5-0.9-1-1.3-0.9C257.6,397.1,257.2,397.8,257.4,398.3z"/>
		<path class="st4" d="M323.2,353.3c0.2-0.3-0.1-0.7-0.3-0.8c-0.2-0.1-0.5-0.2-0.8,0.1c-0.3,0.3-0.2,0.7,0.2,0.9
			C322.6,353.8,323,353.6,323.2,353.3z"/>
		<path class="st4" d="M269.2,399.6c0.4-0.1,0.3-1.1,0.2-1.4c-0.1-0.2-0.6-0.3-0.9-0.3c-0.4,0.1-0.7,0.4-0.4,0.8
			C268.3,399,268.8,399.8,269.2,399.6z"/>
		<path class="st4" d="M275.4,378.8c0.3-0.1,0.4-0.7,0.3-0.8c-0.1-0.2-0.4-0.5-0.6-0.4c-0.2,0.1-0.4,0.5-0.3,0.6
			C274.8,378.4,275.2,378.9,275.4,378.8z"/>
		<path class="st4" d="M273.4,390.3c0.2,0.7,0.7,1.1,1.2,0.9c0.7-0.1,1.4-1.1,1.2-1.9c-0.1-0.6-0.8-1-1.4-0.9
			C273.7,388.7,273.2,389.6,273.4,390.3z"/>
		<path class="st4" d="M307.1,377.4c0.6,0.4,1.6,0.4,2,0c0.1,0,0.3,0,0.4,0c0.5-0.2,0.8-0.8,0.6-1.4c-0.2-0.4-0.5-0.7-1-0.6
			c-0.1-0.1-0.2-0.2-0.3-0.3c-0.6-0.4-1.7-0.2-2.2,0.4C306.1,376.1,306.3,376.8,307.1,377.4z"/>
		<path class="st4" d="M317.4,397.7c1,0.9,1.9,0.5,2.6,0.1c0.2-0.1,0.4-0.4,0.6-0.7c0.4-0.3,0.5-0.7,0.3-1.1c0-0.1-0.1-0.2-0.2-0.3
			c-0.1-0.2-0.2-0.5-0.5-0.7c-1.1-1-2.3-1-2.9-0.3C316.6,395.2,316.6,397,317.4,397.7z"/>
		<path class="st4" d="M317.7,378.9c1.2,0.8,2.2,0.6,3-0.5c0.6-0.9,0.3-2.3-0.7-2.9c-0.8-0.5-2.3,0-2.9,0.9
			C316.5,377.2,316.8,378.3,317.7,378.9z"/>
		<path class="st4" d="M316.4,385.3c0.2,0.5,0.9,0.9,1.4,0.7c0.6-0.2,0.9-1,0.7-1.5s-0.7-0.8-1.3-0.6
			C316.6,384.1,316.2,384.7,316.4,385.3z"/>
		<path class="st4" d="M332.2,375c0,0,0,0.1,0,0.2c-0.1-0.3-0.3-0.6-0.5-0.7c-0.3-0.3-0.8-0.4-1.1,0c-0.4,0.4-0.4,1,0.1,1.3
			c0.2,0.1,0.7,0.2,1.1,0.2c-0.2,0.6-0.2,1,0.3,1.3c0.6,0.4,1.4,0.2,1.7-0.7c0.2-0.7,0.7-0.8,1.3-1c0.7,1.5,1.6,1.8,2.8,0.9
			c0.1-0.1,0.2-0.2,0.3-0.3c0.7-0.7,0.6-1.3-0.2-1.9c-0.7-0.5-1.4-0.9-2.4-0.1c0.1-0.6,0-0.9,0.2-1.2c0.3-0.6,0.2-1-0.3-1.4
			s-1-0.7-1.7-0.4C331.8,372.3,331.5,372.9,332.2,375z"/>
		<path class="st4" d="M323.6,396c-0.3,0.4-0.7,0.6-0.6,1.3c0.1,0.7,1.1,1.1,1.8,0.9c0.3-0.1,0.6-0.4,0.9-0.7
			c0.6,0.4,1.3,0.2,1.6-0.3c0.3-0.4,0.1-1.1-0.3-1.4c-0.4-0.2-0.9-0.2-1.3,0c-0.3-0.3-0.7-0.5-0.9-0.5
			C324.2,395.2,323.9,395.6,323.6,396z"/>
		<path class="st4" d="M329.9,381.9c-0.2-0.1-0.6-0.2-0.9-0.1c-0.2-0.4-0.9-0.7-1.3-0.5c-0.5,0.2-0.8,0.9-0.7,1.4
			c0.1,0.4,0.4,0.6,0.7,0.7c0.1,0.5,0.3,1,0.6,1.2c0.6,0.4,1.5,0,2.1-1C330.6,383.1,330.4,382.2,329.9,381.9z"/>
		<path class="st4" d="M338.2,371.9c0.5,0.3,0.9,0.2,1.3-0.2c0.4-0.4,0.5-1,0.2-1.4c-0.5-0.7-1.5-0.6-1.8-0.3
			C337.4,370.3,337.4,371.4,338.2,371.9z"/>
		<path class="st4" d="M325.8,395.4c0.3-0.1,0.9-0.5,0.8-0.9c-0.1-0.3-0.8-0.5-1.1-0.5c-0.5,0-0.9,0.7-0.6,1.1
			C325.1,395.3,325.6,395.5,325.8,395.4z"/>
		<path class="st4" d="M339,365c0.4-0.4,0.2-1.2-0.4-1.6c-0.5-0.3-1.1-0.1-1.3,0.4c-0.3,0.5-0.1,1.3,0.6,1.7
			C338.1,365.4,338.7,365.3,339,365z"/>
		<path class="st4" d="M333.5,400h0.3c-0.1-0.4-0.2-0.8,0.4-0.9c0.2,0.3,0.4,0.6,0.6,0.9h0.4c0.6,0,1.2,0,1.9-0.1
			c0-0.2,0-0.4,0.1-0.5c0.1-0.6-0.1-1.1-0.6-1.5h0.1c0.2-0.1,0.2-0.3,0.2-0.4c0.5,0.1,1-0.1,1.5-0.4c0.7-0.5,1-1.3,0.8-2.1
			c-0.3-0.9-0.8-1.4-1.8-1.2c-0.6,0.1-1.2,0.4-1.7,0.7c-0.4,0.3-0.8,0.5-1.2,0.3c-0.7-0.3-1.1,0-1.4,0.7c-1-1.3-2.1-1.5-3.3-0.8
			c-0.9,0.6-1,1.3-0.4,2.5c-0.3,0.7-0.6,1.2-0.7,1.7c0,0.1,0,0.2,0,0.3c-0.1,0.1-0.3,0.3-0.4,0.5c-0.1,0.2-0.1,0.5-0.1,0.6h4.7
			C333,400,333.3,400,333.5,400z M334.6,397.5c0.1-1,0.5-1.2,1.3-0.6c0.2,0.2,0.4,0.3,0.6,0.3c-0.1,0-0.2,0.2-0.2,0.3
			c-0.1,0-0.1-0.1-0.1-0.1c-0.5,0.2-1,0.5-1.6,0.7C334.6,397.9,334.6,397.7,334.6,397.5z"/>
		<path class="st4" d="M375.8,342.6c-1-0.5-1.8-0.3-2.2,0.8c-0.1-0.1-0.2-0.2-0.4-0.2c-0.5-0.1-1.1,0.3-1.3,1
			c-0.2,0.7,0.1,1.5,0.7,1.7c0.6,0.2,1.1-0.2,1.3-0.8c0.2,0.2,0.6,0.3,1,0.4c0.5,0.1,1,0.1,1.4,0.6c0.6,0.6,1.4,0.5,2.2,0.4
			c0.7-0.1,1.3-0.9,1.4-1.6c0-0.1,0-0.1,0-0.2c0.2,0.4,0.6,0.8,1,0.9c0.7,0.2,1.3-0.3,1.6-1.2c0.2-0.7-0.1-1.7-0.6-1.9
			c-0.7-0.3-2,0.2-2.2,0.9c0,0.1-0.1,0.2-0.1,0.3c-0.2-0.2-0.4-0.4-0.7-0.6c-0.8-0.4-1.5-0.4-2.3-0.3
			C376.4,342.7,376.1,342.7,375.8,342.6z"/>
		<path class="st4" d="M296.1,400h1.1c-0.1-0.1-0.1-0.2-0.2-0.3h0.1C296.7,399.8,296.4,399.9,296.1,400z"/>
		<path class="st4" d="M347.2,351.4c0.1,0.1,0.5,0,0.5-0.2c0.1-0.2-0.1-0.6-0.2-0.7s-0.7-0.1-0.8,0.2
			C346.6,350.9,347,351.2,347.2,351.4z"/>
		<path class="st4" d="M364.8,343.7c-0.5-0.2-1,0-1.1,0.6c0,0.4,0.2,0.7,0.2,1c0.7,0.2,1.2-0.2,1.4-0.7
			C365.5,344.1,365.2,343.9,364.8,343.7z"/>
		<path class="st4" d="M378.7,333.2c0.4,0.2,1.1-0.6,1.1-1.5c-0.1-0.8-1.2-0.9-1.6-0.7C377.8,331.2,378.3,333,378.7,333.2z"/>
		<path class="st4" d="M347.9,363.4c0.1,0,0.3,0.1,0.4,0c-0.4,0.9-0.3,1.9,0.3,2.4c0.8,0.6,2.6,0.4,3.1-0.4s0.3-2.1-0.5-2.7
			c-0.5-0.3-1.1-0.4-1.7-0.3c0-0.1,0.1-0.1,0.1-0.2c0.3-0.9-0.1-1.6-1-1.9s-1.7,0-1.9,0.7C346.5,362,347.1,363.1,347.9,363.4z"/>
		<path class="st4" d="M334.2,366.8c0.5,0.3,1.2,0.1,1.5-0.4c0.3-0.5,0.1-1.2-0.4-1.5c-0.5-0.3-1.2-0.2-1.5,0.3
			C333.4,365.7,333.6,366.5,334.2,366.8z"/>
		<path class="st4" d="M351.7,355.2c-0.5,0.8-0.2,1.8,0.7,2.4c0.1,0.1,0.3,0.1,0.5,0.2c-0.3,0.1-0.6,0.3-0.7,0.7
			c-0.2,0.6,0,1.2,0.5,1.4c0.6,0.2,1.2,0,1.4-0.6c0.2-0.5-0.1-1.3-0.6-1.5c-0.1,0-0.1,0-0.2,0c0.5-0.1,1-0.4,1.3-0.8
			c0.5-0.8,0.2-1.6-0.7-2.1c0.4,0,0.8-0.2,0.8-0.5c0-0.4,0.1-1.3-0.4-1.5c-0.5-0.2-0.9,0.5-1.1,0.8c-0.2,0.3-0.2,0.6,0,0.9
			C352.6,354.3,352.1,354.6,351.7,355.2z"/>
		<path class="st4" d="M376.9,337.4c-0.3,0.1-0.5,0.7-0.4,1.1c0.2,0.8,1.3,1.1,1.8,0.8c0.5-0.3,0.7-1.3-0.1-1.8
			C377.9,337.2,377.2,337.2,376.9,337.4z"/>
		<path class="st4" d="M364.8,349.6c-0.3,0.6,0,1.2,0.6,1.4c0.6,0.2,1.3,0,1.5-0.6c0.2-0.5-0.2-1.1-0.8-1.3
			C365.5,348.9,365,349.1,364.8,349.6z"/>
		<path class="st4" d="M361.6,353.1c0.1,0.9,0.9,1.2,1.2,1.2c-0.2,0.9,0.3,2,1.1,2.3c0.9,0.3,1.6,0.1,2.2-0.4c0,0.4,0.2,0.8,0.6,1.1
			c1.1,0.9,2.3,0.8,2.9,0.1c0.4-0.5,0.5-1.4,0.3-2.1c0.5,0.1,1-0.2,1.1-0.6c0.2-0.5-0.2-1.1-0.7-1.4c-0.6-0.2-1.2,0-1.4,0.6
			c0,0.1,0,0.1-0.1,0.2c-0.8-0.4-1.6,0-2.1,0.4l-0.1,0.1c0-0.7-0.5-1.2-1.4-1.5c-0.3-0.1-0.6-0.2-0.9-0.2c0.1-0.2,0.2-0.4,0.1-0.8
			c-0.2-0.7-1.2-1.1-1.9-0.8C362.1,351.7,361.5,352.4,361.6,353.1z"/>
		<path class="st4" d="M363.1,346.6c-0.1,0.1-0.1,0.5,0.1,0.6c0.2,0.1,0.5-0.1,0.7-0.2c0.1-0.1,0.2-0.6,0-0.8
			C363.7,346,363.3,346.4,363.1,346.6z"/>
		<path class="st4" d="M377.5,367.1c-0.3,0.8,0,1.7,0.5,1.9c0.8,0.3,2.2-0.3,2.5-1.2c0.2-0.5-0.3-1.2-0.9-1.5
			C378.7,366,377.9,366.3,377.5,367.1z"/>
		<path class="st4" d="M282.5,399.7c-0.1-0.6-0.4-1-0.7-1.3c0-0.3-0.1-0.6-0.4-0.8c-0.5-0.4-1-0.4-1.4,0c-0.4,0.5-0.5,1.4-0.3,1.8
			c-0.1,0.2-0.1,0.4,0,0.6h2.8C282.5,399.9,282.5,399.8,282.5,399.7z"/>
		<path class="st4" d="M273,398.5c-0.1-0.1-0.2-0.1-0.3-0.2c-0.7,0-0.8,0.1-1.1,0.5c-0.3,0.4-0.3,0.7-0.3,0.9c0.1,0,0.3,0.1,0.5,0.2
			h1.3C273.3,399.6,273,398.9,273,398.5z"/>
		<path class="st4" d="M272.6,394c-1,0.3-1.7,1.4-1.4,2.3c0.3,1.1,1.3,1.9,2.2,1.7c1-0.2,2-1.8,1.7-2.7
			C274.7,394.3,273.5,393.7,272.6,394z"/>
		<path class="st4" d="M279.6,381.3c-0.5,0.1-0.6,0.5-0.4,1c0.2,0.4,0.5,0.8,1,0.5c0.3-0.2,1.1-0.8,1-1.3
			C281.1,381.2,280,381.2,279.6,381.3z"/>
		<path class="st4" d="M280.7,385.1c-0.7,0.2-1,0.8-0.8,1.4c0.2,0.5,0.9,0.9,1.4,0.7c0.6-0.2,0.9-1,0.7-1.5
			C281.8,385.2,281.3,385,280.7,385.1z"/>
		<path class="st4" d="M252.8,392.9c-0.7-0.3-1.3,0-1.6,0.5c-0.3,0.5-1.2,1.2-0.8,1.9c0.4,0.7,1,0.3,1.3,0.4c1,0.3,2.2-0.4,2.2-1.3
			C253.9,393.7,253.5,393.2,252.8,392.9z"/>
		<path class="st4" d="M282.6,372c-0.5,0-0.7,0.5-0.6,1.1c0.1,0.6,0.6,0.7,1,0.5c0.3-0.1,1-0.8,0.9-1
			C283.8,372.4,282.9,372,282.6,372z"/>
		<path class="st4" d="M253.7,391.8c-0.6,0.3-0.3,1.8,0.1,1.9c0.5,0.1,1.5-0.9,1.2-1.5C254.8,391.8,254.1,391.5,253.7,391.8z"/>
		<path class="st4" d="M254.3,399.9c0.1-0.2,0-0.5,0-0.6c-0.3-1.2-1.5-1.6-2.4-0.8c-0.5,0.4-0.9,0.9-1.2,1.5h3.6
			C254.3,399.9,254.3,399.9,254.3,399.9z"/>
		<path class="st4" d="M254,396.1c-0.2,0-0.6,0.4-0.6,0.7c0,0.3,0.6,0.4,0.8,0.3s0.5-0.3,0.4-0.6C254.6,396.2,254.2,396.1,254,396.1
			z"/>
		<path class="st4" d="M254.3,385.8c-0.2,0.2-0.2,0.7,0,1c0.3,0.4,0.8,0.4,1.1,0c0.2-0.2,0.6-0.9,0.1-1.4
			C255,385,254.5,385.5,254.3,385.8z"/>
		<path class="st4" d="M299.3,385.3c-0.3-0.2-0.7,0.2-0.7,0.6c0,0.4,0.2,1,0.5,1.2c0.4,0.3,0.7,0,0.8-0.1c0.2-0.3,0-0.6-0.1-0.9
			C299.7,385.8,299.6,385.5,299.3,385.3z"/>
		<path class="st4" d="M299.3,369.5c-0.6,0.2-0.9,0.7-0.8,1.3c0.1,0.5,0.7,0.9,1.2,0.7c0.6-0.1,0.9-0.7,0.7-1.4
			C300.3,369.6,299.9,369.4,299.3,369.5z"/>
		<path class="st4" d="M305.5,393.3c0.4,0.4,0.8,0.4,1.3,0.2c0.5-0.3,0.9-0.9,0.7-1.4c-0.3-0.8-1.1-0.8-1.7-0.8
			C305.1,392.3,305,392.9,305.5,393.3z"/>
		<path class="st4" d="M297.8,377.9c0.1,0.5,0.8,0.9,1.2,0.7c0.4-0.1,0.5-0.8,0.3-1.4c-0.1-0.4-0.5-0.6-0.9-0.4
			C298,377,297.6,377.3,297.8,377.9z"/>
		<path class="st4" d="M304,396.6c-0.5,0.5-0.6,1-0.2,1.7c0.5,0.7,1.5,0.8,2.2,0.3c0,0.1,0,0.2,0,0.3c0.2,0.6,1.2,1.2,1.9,1
			c0.5-0.1,0.9-1.2,0.7-1.8c-0.2-0.5-0.7-0.7-1.3-0.5c-0.2,0.1-0.4,0.2-0.6,0.2c0.1-0.3,0.2-0.5,0.4-0.6c0.5-0.3,0.5-0.7,0.3-1.3
			c-0.2-0.6-0.6-1.5-1.4-1.2c-0.8,0.3-0.7,0.9-0.6,1.1c0.1,0.2-0.1,0.8-0.3,0.6C304.9,396,304.6,396,304,396.6z"/>
		<path class="st4" d="M283.4,400h4.8c0.1-0.3,0.1-0.6-0.1-0.8c-0.4-0.5-1.3-0.3-1.5-0.1c-0.5,0.6-1,0.2-1.5,0.2s-1,0.3-1.4,0.5
			C283.6,399.8,283.5,399.9,283.4,400z"/>
		<path class="st4" d="M285.8,388.7c0.2-0.1,0.8-0.7,0.6-1c-0.2-0.3-1-0.5-1.1-0.4c-0.3,0.2-0.6,0.8-0.5,1
			C285,388.6,285.6,388.8,285.8,388.7z"/>
		<path class="st4" d="M284.3,394.1c0.2,0.5,1.4,1,2,0.9c0.6-0.1,0.8-0.7,0.5-1.5c-0.3-0.9-0.7-1.2-1.4-1
			C284.5,392.7,284,393.4,284.3,394.1z"/>
		<path class="st4" d="M287.1,390.2c0,0.7-0.2,1.4,0.6,1.7c0.5,0.2,1,0,1.3-0.5c0.3-0.4,0.3-0.8-0.1-1.2
			C288.4,389.6,287.8,389.8,287.1,390.2z"/>
		<path class="st4" d="M285.4,383c-0.7,0.2-1.5,1.6-1.3,2.2c0.3,0.7,1.4,1,2.3,0.7c0.8-0.3,1-1,0.7-2
			C286.8,383.3,285.9,382.8,285.4,383z"/>
		<path class="st4" d="M297.5,392.7c0,0.7,0.4,1.1,1.2,0.9c0.2,0.1,0.5,0.2,0.7,0c0.1-0.1,0.1-0.2,0-0.3c0.4-0.3,1-0.8,1.5-1.3
			c0.4-0.4,0.4-1-0.1-1.4c-0.4-0.4-0.9-0.5-1.4-0.1c-0.2,0.2-0.5,0.4-0.8,0.5C297.8,391.4,297.4,391.9,297.5,392.7z"/>
		<path class="st4" d="M243.3,388.5c-0.6,0.7-0.5,1.8,0.2,2.5c0.9,0.8,2.2,0.8,2.9-0.1c0.7-0.8,0.7-1.7,0.1-2.3
			C245.6,387.9,243.9,387.8,243.3,388.5z"/>
		<path class="st4" d="M323,373.5c-0.2,0.3,0,1.1,0.3,1.7c-0.2,0.3-0.5,0.7-0.4,1c0.1,0.5,1,0.6,1.5,0.6c0.3,0,1.1-0.8,1.1-1.3
			c0.5-0.8,0.4-1.7-0.2-2.1C324.5,372.8,323.4,372.9,323,373.5z"/>
		<path class="st4" d="M249,394.4c-0.4,0-0.7,1.9-0.4,2.2c0.3,0.4,1.3-0.1,1.5-0.9C250.4,394.9,249.4,394.4,249,394.4z"/>
		<path class="st4" d="M243.4,382.6c-0.2-0.1-0.8,0.1-0.9,0.4c-0.1,0.3,0.5,0.8,0.7,0.8s0.6-0.3,0.6-0.5
			C243.9,383,243.6,382.7,243.4,382.6z"/>
		<path class="st4" d="M302.1,372.5c0.5,0.4,1.5,0.1,2.1-0.6c0.3-0.4,0.2-1.2-0.2-1.6c-0.6-0.4-1.6-0.4-2,0.1
			C301.6,371,301.6,372.1,302.1,372.5z"/>
		<path class="st4" d="M267,388.9c0.3,0.9,1.3,1.3,2.2,1c0.7-0.2,1.2-1.4,0.9-2.2c-0.3-0.9-1.1-1.2-2.1-0.8
			C267,387.2,266.6,388,267,388.9z"/>
		<path class="st4" d="M232.4,383.9c-0.6,0.7-0.5,2.6,0.1,3.2c0.7,0.7,2.1,0.6,2.8-0.3c0.6-0.7,0.6-2.3-0.1-2.9
			C234.4,383.2,233,383.2,232.4,383.9z"/>
		<path class="st4" d="M229.9,393.5c-0.1,0.1-0.2,0.5,0,0.7c0.2,0.2,0.6,0.1,0.7,0c0.1-0.1,0.4-0.7,0.2-0.9
			C230.6,393.1,230,393.3,229.9,393.5z"/>
		<path class="st4" d="M237.6,398c-0.5-0.5-1.3-0.4-2,0.3c-0.5,0.5-0.6,1.2-0.1,1.6h2.4C238.3,399.4,238.2,398.6,237.6,398z"/>
		<path class="st4" d="M217.9,397.7c1,0.7,2.2,0.1,2.9-0.6c0.7-0.8,0.2-2.8-0.9-3.4c-0.8-0.4-1.4,0.6-1.4,1.2c0.1,0.6,0,0.4-0.6,0.8
			C217.4,396.1,216.9,397,217.9,397.7z"/>
		<path class="st4" d="M227.5,397.1c-0.2,0.3-0.1,0.7-0.2,1c0.6,0.4,1.2,0.3,1.6-0.1c0.3-0.4,0.1-0.7-0.2-1
			C228.3,396.6,227.7,396.7,227.5,397.1z"/>
		<path class="st4" d="M221.7,390.6c-0.1,0.1-0.3,0.5-0.1,0.7c0.2,0.2,0.7-0.1,0.8-0.2c0.1-0.1,0.1-0.5,0-0.6
			C222.2,390.4,221.9,390.5,221.7,390.6z"/>
		<path class="st4" d="M267.6,373.8c-0.3,0.1-0.3,0.6-0.2,0.8c0,0.1,0.3,0.4,0.5,0.3c0.2-0.1,0.3-0.4,0.3-0.7
			C268.2,374.1,267.9,373.7,267.6,373.8z"/>
		<path class="st4" d="M241.6,399.5c-0.1,0.1-0.2,0.3-0.2,0.5h2.1c0-0.2-0.1-0.3-0.2-0.4C242.8,399.1,242,399.1,241.6,399.5z"/>
		<path class="st4" d="M305.9,376.4c-0.2,0.1-0.4,0.5-0.4,0.6c0,0.2,0.4,0.7,0.7,0.6c0.2-0.1,0.3-0.6,0.3-0.7
			C306.3,376.7,306.1,376.3,305.9,376.4z"/>
		<path class="st4" d="M244.9,400h1.2c-0.3-0.1-0.6-0.2-0.8-0.2C245.2,399.8,245,399.9,244.9,400z"/>
		<path class="st4" d="M239.1,394.9c-0.4,0.4-0.6,0.9-0.2,1.4c0.2,0.3,0.6,0.5,0.9,0.5c0.6,0,0.9-0.4,1.1-1.6
			C240.3,394.9,239.8,394.4,239.1,394.9z"/>
		<path class="st4" d="M250.1,400c-0.2-0.3-0.7-0.5-1.1-0.4c-0.3,0-0.5,0.2-0.6,0.4H250.1z"/>
		<path class="st4" d="M383.2,349.6c-0.6-0.2-1.1,0-1.3,0.5c-0.4,1.1-0.2,2,0.5,2.2c0.4,0.1,1.1-0.1,1.6-0.4c0-0.5,0-1,0-1.5
			C383.8,350,383.5,349.7,383.2,349.6z"/>
		<path class="st4" d="M382.3,337c-0.1-0.5-0.3-0.9-0.4-1.4v0.1C381.8,336.2,382,336.7,382.3,337z"/>
		<path class="st4" d="M334.5,361.3c0.8,0.4,1.7-0.3,1.9-0.6c0.2-0.3-0.3-1.5-1.2-1.6c-0.5-0.1-1,0.2-1.2,0.8S334,361.1,334.5,361.3
			z"/>
		<path class="st4" d="M351.6,338.3c-0.1,0.1-0.1,0.6,0.2,0.7c0.3,0.1,0.6-0.3,0.7-0.5c0.1-0.1-0.1-0.5-0.2-0.6
			C352,337.8,351.7,338.1,351.6,338.3z"/>
		<path class="st4" d="M367.7,323.1c0,0.3,0.8,0.5,1,0.4c0.2-0.1,0.4-0.5,0.4-0.7c-0.1-0.2-0.5-0.5-0.7-0.5
			C368.2,322.3,367.7,322.8,367.7,323.1z"/>
		<path class="st4" d="M349.1,346.6c0.2,0.5,0.7,0.8,1.2,0.7c0.5-0.1,0.8-0.3,0.8-0.8c0-0.1,0-0.2,0-0.3c1,0,1.8-0.9,2.1-1.7
			c0.3-1-0.9-2.7-2.1-2.8c-0.9,0-1.1,1.1-0.8,1.7c0.3,0.6,0.1,0.4-0.2,1c-0.1,0.2-0.2,0.5-0.2,0.7
			C349.4,345.5,348.8,345.8,349.1,346.6z"/>
		<path class="st4" d="M340.5,382.4c-0.4-0.1-0.9-0.1-1.2,0.1c-0.7,0.6-0.4,1.3,0.1,1.9c0.7,0,1.4,0,1.7-0.7
			C341.3,383.2,341.1,382.6,340.5,382.4z"/>
		<path class="st4" d="M341.5,390.2c-0.3,0.2-0.6,0.5-0.6,1c-0.4,0.1-0.8,0.6-0.6,1.2c0.1,0.2,0.4,0.5,0.7,0.5s0.8-0.2,0.9-0.4
			c0.1-0.2,0.1-0.4,0-0.5c0.3,0,0.4,0,0.5-0.2c0.3,0.4,0.8,0.7,1.1,0.8c0.1,0,0.4,0,0.6,0c-0.8,0.4-1.5,1.5-1.4,2.2
			c0,0.7,0.2,1.3,0.6,1.8c0.5,0.5,1.6,0.9,2.3,0.5c0.7-0.4,1.1-1.5,1.4-1.5s1.1,1.2,2.1,1c1-0.2,1.5-1.1,1.4-2.1
			c-0.1-0.9-1.6-2.1-2.5-2.1c-0.8,0.1-1.1,1.1-1.3,1.1c-0.2,0-1.1-1-2.2-0.9c-0.1,0-0.2,0-0.3,0.1c0.2-0.1,0.5-0.3,0.6-0.5
			c0.2-0.5-0.5-1.1-0.9-1.4c-0.2-0.1-1-0.1-1.5,0.2c0-0.1,0-0.1,0-0.2c0.5-0.6,1-0.9,1.1-1.4s0-1.1-0.2-1.6c-0.2-0.6-1-0.7-1.7-0.2
			c-0.4,0.3-0.9,0.8-0.9,1.2C340.7,389.1,341.2,389.6,341.5,390.2z"/>
		<path class="st4" d="M339.4,367.6c-0.6,0.3-0.5,1.2-0.2,1.5c0.3,0.3,1.1,0.2,1.4-0.5c0.1-0.2,0-0.7-0.2-0.8
			C340.2,367.6,339.7,367.4,339.4,367.6z"/>
		<path class="st4" d="M341.8,365.5c-0.4,0.5,0,1.5,0.6,2c0.9,0.6,1.5,0.6,2-0.1c0.5-0.7,0.3-1.9-0.3-2.3
			C343.5,364.6,342.3,364.8,341.8,365.5z"/>
		<path class="st4" d="M341.5,376.3c0.3,0.6,0.1,0.8-0.1,1.2c-0.3,0.6,0.1,1.4,0.7,1.7s1,0,1.2-0.5c0.2-0.4,0.3-0.8,0.7-1
			c0.7-0.5,1.5-1,2.3-1.5c1.8,1.3,2.5,1.2,3.3-0.6c0.4-1-0.1-2-1.3-2.1c-0.8-0.1-1.6,0.2-2.7,0.4c-0.6-0.8-1.5-1.6-2.6-1.3
			C341.5,372.9,340.7,374.7,341.5,376.3z"/>
		<path class="st4" d="M328.7,355.7c-0.4,0.6-0.1,1.5,0.6,2c0.7,0.4,1.2,0.4,1.6-0.2c0.6-0.8,0.5-2.1-0.2-2.5
			C330.1,354.7,329.1,355,328.7,355.7z"/>
		<path class="st4" d="M330.7,348.1c-0.3,0.5-0.3,1,0.2,1.4c0.4,0.4,1.1,0.3,1.4-0.2c0.3-0.4,0.2-1.1-0.2-1.4
			C331.7,347.5,331,347.6,330.7,348.1z"/>
		<path class="st4" d="M344.7,362.3c-0.1,0.3-0.3,1.2,0,1.4c0.4,0.2,1.1-0.4,1.2-0.7c0.1-0.2-0.1-0.7-0.4-0.9
			C345.3,361.8,344.8,361.8,344.7,362.3z"/>
		<path class="st4" d="M338.3,353.6c-0.3,0.5-0.3,1.3,0.2,1.6c0.4,0.3,1.1,0.2,1.4-0.2c0.3-0.4,0.2-1.3-0.2-1.6
			C339.4,353.1,338.7,353.2,338.3,353.6z"/>
		<path class="st4" d="M329.7,368.6c-0.5,0.7-0.2,1.6,0.6,2.2c0.6,0.4,1.3,0.2,1.9-0.7c0.5-0.7,0.4-1.4-0.1-1.8
			C331.6,368.1,330,368.2,329.7,368.6z"/>
		<path class="st4" d="M338.2,345.7c-0.5,0-1.7-0.2-2,0.6c-0.3,0.7,0.4,0.9,0.5,1.3c0.4,0.9,1.7,1.4,2.4,0.9
			c0.6-0.5,0.7-1.1,0.6-1.8C339.5,346,338.9,345.7,338.2,345.7z"/>
		<path class="st4" d="M361.5,326.9c-1.1-0.4-2.4,0.1-2.6,1c-0.3,0.9,0.5,2.6,1.4,2.9c0.9,0.4,2.2-0.3,2.5-1.4
			C363,328.5,362.3,327.1,361.5,326.9z"/>
		<path class="st4" d="M367.4,339.8c-0.3,0.7-0.1,1.3,0.5,1.5c0.6,0.2,1.9-0.2,2.1-0.7c0.3-0.7-0.1-1.6-1-1.9
			C368.5,338.5,367.8,338.9,367.4,339.8z"/>
		<path class="st4" d="M369.3,335.4c-0.3,0.5-0.1,1.1,0.3,1.4c0.3,0.2,0.7,0.2,1,0.1c0.6-0.2,0.7-0.7,0.3-1.9
			C370.4,334.9,369.7,334.6,369.3,335.4z"/>
		<path class="st4" d="M374.9,338c-0.6-0.2-1.4,0.1-1.6,0.6c-0.2,0.5,0.1,1.2,0.7,1.4c0.6,0.2,1.2,0,1.4-0.5
			C375.7,338.8,375.5,338.2,374.9,338z"/>
		<path class="st4" d="M373.6,326.7c-1.1-0.4-2.7,0.2-2.9,1.1c-0.3,0.9,0.2,1.9,1.1,2.2c1.1,0.4,2.3-0.1,2.6-1.2
			C374.7,327.9,374.4,327,373.6,326.7z"/>
		<path class="st4" d="M344,355.4c-0.1,0.2-0.2,0.5-0.1,0.7c-0.3,0.1-0.5,0.2-0.6,0.3c-0.2,0.4,0.7,1,0.9,1c0.5-0.1,1.1-0.1,1.3-0.6
			c0-0.1,0-0.1,0-0.2c0.1,0,0.2-0.1,0.3-0.2c0.2-0.3-0.4-1.1-0.6-1.4C344.9,354.7,344.3,354.9,344,355.4z"/>
		<path class="st4" d="M326.5,364c-0.6,0.8-0.2,1.9,0.9,2.7c0.9,0.6,1.8,0.4,2.4-0.4c0.6-0.9,0.3-2.3-0.7-2.9
			C328.4,363,327,363.3,326.5,364z"/>
		<path class="st4" d="M358,347.8c-0.6-0.1-1.2-0.2-1.8-0.3c-0.6-0.4-1.2-0.2-1.4,0.3c-0.3,0.6-0.1,1.2,0.5,1.6
			c0.3,0.2,0.7,0.5,0.9,0.8c0.4,0.6,0.9,1,1.6,0.9c0.6-0.1,1.3-1.3,1.2-1.9S358.9,347.9,358,347.8z"/>
		<path class="st4" d="M346.3,366.6c0,0.1,0.1,0.3,0.2,0.3s0.3,0,0.4-0.1s0-0.4-0.2-0.4C346.5,366.3,346.4,366.5,346.3,366.6z"/>
		<path class="st4" d="M346.3,349.3c-0.2-0.1-0.5-0.1-0.7,0c-0.1,0-0.1,0.5,0,0.6c0.2,0.1,0.6,0.4,0.8,0.1
			C346.7,349.7,346.4,349.3,346.3,349.3z"/>
		<path class="st4" d="M347.4,370.5c-0.2,0.2-0.2,0.7-0.1,1c0.1,0.2,0.5,0.5,0.7,0.4c0.7-0.1,0.9-0.6,0.8-1.3
			C348.5,370.3,348,369.9,347.4,370.5z"/>
		<path class="st4" d="M317.7,359.1c-0.4-0.3-0.9-0.4-1.1,0.1c-0.1,0.3-0.1,1,0.1,1.1c0.3,0.2,0.8,0.1,1.1,0.1
			C318.2,359.7,318,359.3,317.7,359.1z"/>
		<path class="st4" d="M303.7,399.4c-0.8-0.5-0.9-1.2-0.9-1.8c-0.2-0.8-0.9-1.4-1.5-1.3c-0.6,0-1.5,1.1-1.5,1.7
			c0,0.5-0.1,1.2,0.6,1.3c0.5,0.1,0.8,0.3,1.1,0.6h2.5C304,399.8,303.9,399.6,303.7,399.4z"/>
		<path class="st4" d="M301.3,394.8c0.2,0.6,1.3,1.1,1.9,0.9c0.5-0.2,0.9-1.4,0.7-2c-0.2-0.6-0.8-0.8-1.4-0.6
			C301.4,393.4,301,394,301.3,394.8z"/>
		<path class="st4" d="M312.9,394.8c-0.2,0.4-0.4,0.8,0,1.1s1.1,0.3,1.6-0.3c-0.1-0.3-0.2-0.8-0.5-1
			C313.6,394.2,313.2,394.4,312.9,394.8z"/>
		<path class="st4" d="M303.9,390.9c-0.1-0.4-0.7-0.8-1.1-0.7c-0.5,0.1-0.6,0.5-0.3,1.6C303.3,392.2,304,391.4,303.9,390.9z"/>
		<path class="st4" d="M317.2,399.9c0-0.4-0.1-0.9-0.4-1.1c-0.2-0.2-0.4-0.4-0.7-0.5c0-0.2,0-0.5,0-0.7c-0.2-0.8-1.3-1.4-2-1.2
			c-0.9,0.3-1.5,1.3-1.3,2c0.1,0.4,0.6,0.8,1.1,1c0,0.2,0,0.4,0.1,0.6L317.2,399.9z"/>
		<path class="st4" d="M309.9,382.4c-0.1-0.1-0.1-0.3-0.2-0.4c-0.7-0.5-1.9-0.4-2.5,0.3c-0.5,0.6-0.2,1.9,0.6,2.5
			c0.4,0.3,1,0.3,1.5-0.1c0.3,0.5,1,0.7,1.5,0.5c0.7-0.3,1.2-1.1,1-1.7C311.5,382.9,310.5,382.3,309.9,382.4z"/>
		<path class="st4" d="M307.3,389c0,0.3,0.3,0.8,0.5,0.8c0.4,0.1,1,0,1.3-0.2c0.6-0.6,0.1-1.1-0.3-1.7
			C308.1,388,307.4,388.2,307.3,389z"/>
		<path class="st4" d="M310,364.2c-0.5-0.1-1,0.1-1.2,0.6c-0.1,0.3-0.1,0.8,0.1,1c0.5,0.7,1.2,0.5,1.9,0
			C310.7,365.2,310.8,364.5,310,364.2z"/>
		<path class="st4" d="M314.2,393.8c0.5,0.1,1,0,1.5-0.2c0.6-0.3,0.9-0.8,1.1-1.5c0-0.1,0.1-0.2,0.1-0.3c0.3-0.6,0.8-1,0.7-1.7
			c-0.2-1-0.9-2.6-2.7-2.9c-1.1-0.2-1.9,0.1-2.4,0.7c-0.6,0.7-0.1,1.7-0.4,2.6C311.3,392.6,312.7,393.5,314.2,393.8z"/>
		<path class="st4" d="M310.5,388.4c0.5-0.3,1.1-0.7,0.9-1.4c-0.1-0.6-0.6-0.9-1.2-0.8c-0.3,0.1-0.8,0.4-0.9,0.7
			C309.2,387.7,309.8,388.1,310.5,388.4z"/>
		<path class="st4" d="M310.3,395.2c0.5-0.2,0.8-0.8,0.5-1.4c-0.2-0.5-0.5-1-1-0.8c-0.9,0.3-1.3,0.9-1.1,1.4
			C308.9,395.1,309.7,395.5,310.3,395.2z"/>
		<path class="st4" d="M315.9,372.6c-0.2,0-0.4,0.4-0.4,0.6c0,0.2,0.3,0.7,0.6,0.6c0.3-0.1,0.4-0.6,0.3-0.8
			C316.4,372.8,316.1,372.6,315.9,372.6z"/>
		<path class="st4" d="M320.4,380.6c0-0.1,0-0.2-0.1-0.2c-0.2-0.3-0.7-0.3-1.1-0.2c-0.4,0.1-0.8,0.4-0.5,0.9
			c0.1,0.2,0.2,0.4,0.3,0.5c-0.4,0.8-0.2,2.2,0.6,2.7c0.9,0.6,2.2,0.5,2.7-0.3s0.2-2.7-0.5-3.2C321.3,380.6,320.8,380.5,320.4,380.6
			z"/>
		<path class="st4" d="M321.4,348.7c-0.1-0.1-0.5,0-0.6,0.1c-0.1,0.2-0.1,0.6,0,0.7c0.1,0.1,0.5,0.4,0.8,0
			C322.1,349.2,321.6,348.9,321.4,348.7z"/>
		<path class="st4" d="M314.5,370c-0.8-0.4-1.9-0.2-2.4,0.6s-0.1,2,1,2.7c0.7,0.5,1.6,0.2,2.1-0.6
			C315.8,371.7,315.5,370.5,314.5,370z"/>
		<path class="st4" d="M320.8,357.5c0.2,0.1,0.7-0.1,0.7-0.2c0.1-0.2,0.3-0.6,0.1-0.8c-0.2-0.1-0.6,0-0.7,0.1
			C320.7,356.8,320.5,357.4,320.8,357.5z"/>
		<path class="st4" d="M321.8,387.6c-0.1,0-0.2,0-0.3,0c-0.4-0.5-0.9-0.7-1.6-0.4c-0.8,0.3-1.3,1-1.1,1.6c0.2,0.5,0.7,0.9,1.2,1.1
			c0.1,0.8,0.9,1.7,1.6,1.7c0.8,0,2-1,1.8-2.1C323.3,388.3,322.6,387.7,321.8,387.6z"/>
		<path class="st4" d="M324.8,377.5c-0.5-0.3-1.3-0.2-1.6,0.2c-0.3,0.4-0.2,1.5,0.1,1.7c0.4,0.3,1.4,0.1,1.7-0.3
			C325.5,378.6,325.4,377.9,324.8,377.5z"/>
		<path class="st4" d="M315,381.4c-0.1,0-0.1,0-0.2,0.1c-0.1-0.6-0.5-1.4-1-1.7s-1.1-0.1-1.5,0.4c-0.5,0.8-0.4,1.8,0.2,2.2
			c0.5,0.3,1,0.4,1.5,0.2c0,0.4,0.3,0.7,0.7,0.9c0.7,0.3,1.1-0.3,1.6-0.8C316,382,315.8,381.3,315,381.4z"/>
		<path class="st4" d="M325.1,386.8c-0.5,0.1-0.9,0.7-0.8,1.2c0.1,0.6,0.7,0.9,1.3,0.8c0.4-0.1,0.6-0.3,0.7-0.6c0,0.2,0,0.5,0.1,0.7
			c0.1,0.3,0.3,0.6,0.6,1.2c-0.5,0.1-0.9,0.3-1.2,0.2c-0.9-0.3-1.5,0-1.9,0.8c-0.1,0.2-0.3,0.3-0.5,0.5c-0.3,0.3-0.5,0.7-0.5,1
			c-0.4-0.2-0.8-0.3-1-0.3c-0.8,0.2-1.2,1-0.9,2c0.2,0.7,0.9,1,1.9,0.7c0.7-0.2,1.1-0.8,1-1.4c0-0.1-0.1-0.2-0.1-0.2
			c0.3,0,0.7-0.2,1-0.6c0.1-0.1,0-0.2,0.1-0.3c0.3-0.3,0.6-0.4,0.9,0c0.1,0.2,0.1,0.4,0.2,0.5c0.4,0.7,1.2,1,2,0.8
			c0.9-0.2,1.2-0.6,1.4-1.6c0.1-1-0.3-1.8-1-2.5c0.3-0.4,0.6-0.7,0.7-1.1c0.5-1.2-0.2-2-1.4-1.8c-0.7,0.1-1.2,0.5-1.4,1.1
			c0-0.1,0-0.2,0-0.3C326.2,387,325.7,386.6,325.1,386.8z"/>
		<path class="st4" d="M309.1,373.3c-0.1,0-0.2,0.2-0.2,0.3c0,0.1,0.2,0.3,0.4,0.2c0.2-0.1,0.2-0.3,0.2-0.4
			C309.5,373.4,309.2,373.3,309.1,373.3z"/>
		<path class="st4" d="M319.3,362.8c0-0.1-0.1-0.3-0.1-0.4c0-0.6-0.3-0.9-0.8-1c-0.5-0.2-0.8,0-1.1,0.4c-0.8,0.8-0.8,1.4,0.1,2.1
			c0.7,0.6,1.3,1.2,2,1.8c-1,1.3-0.9,1.5,0.3,2.1c0.7-0.4,0.8-1,0.4-1.7C321.6,364.7,321.3,363.6,319.3,362.8z"/>
		<path class="st5" d="M256.3,337.1c30.2,0,56-18.9,66.3-45.3c-7.6-25.2-27-46.6-54-55.6c-44.1-14.8-91.9,9-106.7,53.1
			c-1.3,3.8-2.2,7.6-2.9,11.4c-23.7-3.7-47.4,10.1-55.2,33.5c-0.3,1-0.6,2-0.9,3C152.6,337.1,240.4,337.1,256.3,337.1z"/>
	</g>
</g>
<rect class="st6" width="680" height="400"/>
</svg>
