<?xml version="1.0" encoding="utf-8"?>
<!-- Generator: Adobe Illustrator 24.0.3, SVG Export Plug-In . SVG Version: 6.00 Build 0)  -->
<svg version="1.1" id="Layer_1" xmlns="http://www.w3.org/2000/svg" xmlns:xlink="http://www.w3.org/1999/xlink" x="0px" y="0px"
	 viewBox="0 0 64 64" style="enable-background:new 0 0 64 64;" xml:space="preserve">
<style type="text/css">
	.st0{fill:#EF4E97;}
	.st1{fill:#333843;}
	.st2{fill:#00BFAC;}
	.st3{opacity:0.6;fill:none;stroke:#FFFFFF;stroke-width:5;stroke-miterlimit:10;}
	.st4{opacity:0.6;}
	.st5{fill:none;}
	.st6{fill:#FFFFFF;}
	.st7{fill:#00C2B5;}
	.st8{fill:#15CCBA;}
	.st9{fill:#F3BE45;}
	.st10{fill:#0077CC;}
	.st11{fill:#0077CB;}
	.st12{fill:#FDC414;}
	.st13{fill:#00BEB2;}
	.st14{fill:#343741;}
	.st15{fill:#F9734F;}
	.st16{fill:#1BA8F4;}
	.st17{fill:#005A9D;}
	.st18{fill:#7DE1D0;}
	.st19{fill:#019A8E;}
	.st20{fill:#535766;}
	.st21{fill:#1C1E23;}
	.st22{fill:#FFD836;}
	.st23{fill:#F5A700;}
	.st24{fill:#231F20;}
	.st25{fill:#F88FBF;}
	.st26{fill:#DC0A73;}
	.st27{fill:#FF967A;}
	.st28{fill:#E1543D;}
	.st29{fill:#0D8DDF;}
	.st30{fill:#3ECFC1;}
	.st31{fill:#0068B3;}
	.st32{fill:#01ACA0;}
	.st33{fill:none;stroke:#E5EAF1;stroke-width:1.5451;stroke-miterlimit:10;}
	.st34{fill:none;stroke:#E5EAF1;stroke-width:1.5142;}
	.st35{fill:#434753;}
	.st36{fill:#272A32;}
	.st37{fill:#8FD0FB;}
	.st38{fill:#DEE0E4;}
	.st39{fill:#F4C447;}
	.st40{fill:#171A1E;}
	.st41{fill:#343842;}
	.st42{fill:none;stroke:#FFFFFF;stroke-width:0.6726;stroke-miterlimit:10;}
	.st43{fill:none;stroke:#272A32;stroke-width:0.6726;stroke-miterlimit:10;}
</style>
<g>
	<g>
		<g>
			<g>
				<g>
					<path class="st13" d="M32.2,54.2c-12,0-21.8-9.8-21.8-21.8s9.8-21.8,21.8-21.8c12,0,21.8,9.8,21.8,21.8S44.2,54.2,32.2,54.2z
						 M32.2,11.8c-11.4,0-20.6,9.2-20.6,20.6S20.8,53,32.2,53s20.6-9.2,20.6-20.6S43.5,11.8,32.2,11.8z"/>
				</g>
			</g>
			<g>
				<g>
					<path class="st13" d="M32.2,63.8c-17.4,0-31.6-14.2-31.6-31.6c0-17.4,14.2-31.6,31.6-31.6c17.4,0,31.6,14.2,31.6,31.6
						C63.8,49.6,49.6,63.8,32.2,63.8z M32.2,1.8C15.4,1.8,1.7,15.4,1.7,32.2s13.7,30.4,30.4,30.4c16.8,0,30.4-13.7,30.4-30.4
						S48.9,1.8,32.2,1.8z"/>
				</g>
			</g>
			<g>
				<g>
					<g>
						<path class="st13" d="M17.3,34.9L16.7,35l0-0.1c-0.1-0.4-0.2-0.6-0.7-0.5c-0.1,0-0.3,0.1-0.4,0.1c-0.5,0.1-0.9-0.1-1.3-1
							l0.5-0.2c0.3,0.5,0.4,0.6,0.8,0.5c0.1,0,0.3-0.1,0.4-0.1c0.4-0.1,0.6,0.1,0.8,0.4c0-0.4,0.2-0.6,0.6-0.7c0.1,0,0.3,0,0.4-0.1
							c0.3-0.1,0.5-0.2,0.5-0.8l0.6,0c0,1-0.3,1.3-0.8,1.4c-0.1,0-0.3,0-0.4,0.1c-0.4,0.1-0.5,0.3-0.4,0.7L17.3,34.9z"/>
						<path class="st13" d="M16.7,35.1l0-0.2c-0.1-0.4-0.2-0.5-0.6-0.4c0,0-0.1,0-0.2,0c-0.1,0-0.1,0-0.2,0c-0.6,0.1-1-0.2-1.3-1.1
							l0,0l0.6-0.3l0,0c0.3,0.5,0.4,0.6,0.7,0.5c0.1,0,0.1,0,0.2,0c0.1,0,0.1,0,0.2,0c0.3-0.1,0.6,0,0.8,0.3
							c0.1-0.3,0.3-0.5,0.6-0.6c0.1,0,0.1,0,0.2,0c0.1,0,0.1,0,0.2,0c0.3-0.1,0.4-0.1,0.5-0.7l0,0l0.6,0l0,0c0,0.9-0.2,1.4-0.8,1.5
							c0,0-0.1,0-0.2,0c-0.1,0-0.1,0-0.2,0c-0.2,0-0.3,0.1-0.4,0.2c-0.1,0.1-0.1,0.2,0,0.4l0,0.2L16.7,35.1z M16.2,34.4
							c0.3,0,0.4,0.2,0.5,0.5l0,0.1l0.5-0.1l0-0.1c0-0.2,0-0.4,0-0.5c0.1-0.1,0.2-0.2,0.4-0.2c0,0,0.1,0,0.2,0c0.1,0,0.1,0,0.2,0
							c0.5-0.1,0.8-0.4,0.8-1.4l-0.5,0c-0.1,0.6-0.2,0.7-0.5,0.8c-0.1,0-0.1,0-0.2,0c-0.1,0-0.1,0-0.2,0c-0.3,0.1-0.5,0.3-0.6,0.7
							l0,0.1l-0.1-0.1c-0.2-0.3-0.4-0.5-0.8-0.4c-0.1,0-0.1,0-0.2,0c-0.1,0-0.1,0-0.2,0c-0.3,0.1-0.5,0-0.8-0.5l-0.4,0.2
							c0.4,0.9,0.8,1.1,1.2,1c0,0,0.1,0,0.2,0c0.1,0,0.1,0,0.2,0C16.1,34.4,16.1,34.4,16.2,34.4z"/>
					</g>
				</g>
				<g>
					<g>
						<path class="st13" d="M18.1,38.2l-0.7,0.2l0-0.2c-0.1-0.5-0.3-0.6-0.8-0.5c-0.1,0-0.3,0.1-0.4,0.1c-0.6,0.2-1,0-1.5-1l0.5-0.3
							c0.3,0.6,0.5,0.6,0.9,0.5c0.1,0,0.3-0.1,0.4-0.1c0.4-0.1,0.7,0,0.9,0.4c0-0.4,0.2-0.7,0.6-0.8c0.1,0,0.3-0.1,0.4-0.1
							c0.4-0.1,0.5-0.2,0.5-0.9l0.6,0c0.1,1.1-0.2,1.5-0.8,1.7c-0.1,0-0.3,0.1-0.4,0.1c-0.5,0.1-0.5,0.4-0.4,0.8L18.1,38.2z"/>
						<path class="st13" d="M17.4,38.4l-0.1-0.2c-0.1-0.2-0.1-0.4-0.2-0.4c-0.1-0.1-0.3-0.1-0.5,0c-0.1,0-0.1,0-0.2,0.1
							c-0.1,0-0.1,0-0.2,0.1c-0.7,0.2-1.1-0.1-1.6-1.1l0,0l0.6-0.4l0,0c0.3,0.6,0.5,0.6,0.8,0.5c0.1,0,0.1,0,0.2-0.1
							c0.1,0,0.2-0.1,0.2-0.1c0.4-0.1,0.7,0,0.9,0.3c0.1-0.4,0.3-0.6,0.6-0.7c0.1,0,0.1,0,0.2-0.1c0.1,0,0.2,0,0.2,0
							c0.3-0.1,0.5-0.2,0.5-0.9l0,0l0.7,0l0,0c0.1,1-0.1,1.5-0.8,1.7c0,0-0.1,0-0.2,0c-0.1,0-0.2,0-0.2,0c-0.4,0.1-0.5,0.3-0.4,0.8
							l0.1,0.2L17.4,38.4z M16.9,37.6c0.1,0,0.2,0,0.3,0.1c0.1,0.1,0.2,0.2,0.3,0.5l0,0.1l0.6-0.2l0-0.1c-0.1-0.5,0-0.7,0.5-0.9
							c0.1,0,0.1,0,0.2,0c0.1,0,0.2,0,0.2,0c0.5-0.1,0.8-0.5,0.7-1.6l-0.5,0c0,0.7-0.2,0.8-0.5,0.9c-0.1,0-0.1,0-0.2,0.1
							c-0.1,0-0.2,0-0.2,0.1c-0.4,0.1-0.6,0.3-0.6,0.8l0,0.1l-0.1-0.1c-0.2-0.4-0.5-0.5-0.9-0.4c-0.1,0-0.1,0-0.2,0.1
							c-0.1,0-0.2,0.1-0.2,0.1c-0.4,0.1-0.6,0.1-0.9-0.5l-0.5,0.3c0.5,1,0.9,1.1,1.5,1c0,0,0.1,0,0.2-0.1c0.1,0,0.2-0.1,0.2-0.1
							C16.7,37.6,16.8,37.6,16.9,37.6z"/>
					</g>
				</g>
				<g>
					<g>
						<path class="st13" d="M16.9,32.1l-0.6,0l0-0.1c0-0.4-0.2-0.6-0.6-0.6c-0.1,0-0.3,0-0.4,0c-0.5,0-0.9-0.2-1.1-1.2l0.5-0.2
							c0.2,0.6,0.3,0.6,0.7,0.6c0.1,0,0.3,0,0.4,0c0.4,0,0.6,0.2,0.8,0.5c0.1-0.4,0.3-0.6,0.7-0.6c0.1,0,0.3,0,0.4,0
							c0.3,0,0.5-0.1,0.6-0.7l0.6,0.1c-0.1,1-0.4,1.3-1,1.3c-0.1,0-0.3,0-0.4,0c-0.4,0-0.5,0.2-0.5,0.6L16.9,32.1z"/>
						<path class="st13" d="M16.2,32.2l0-0.2c0-0.4-0.2-0.5-0.5-0.5c0,0-0.1,0-0.2,0c-0.1,0-0.1,0-0.2,0c-0.6,0-1-0.3-1.2-1.2l0,0
							l0.6-0.2l0,0c0.2,0.6,0.3,0.6,0.6,0.6c0.1,0,0.1,0,0.2,0c0.1,0,0.1,0,0.2,0c0.3,0,0.6,0.1,0.7,0.4c0.1-0.3,0.3-0.5,0.7-0.5
							c0.1,0,0.3,0,0.4,0c0.3,0,0.4-0.1,0.6-0.7l0,0l0.6,0.1l0,0c-0.1,0.9-0.4,1.3-1,1.4c0,0-0.1,0-0.2,0c-0.1,0-0.1,0-0.2,0
							c-0.2,0-0.3,0.1-0.4,0.1c-0.1,0.1-0.1,0.2-0.1,0.4l0,0.2L16.2,32.2z M15.8,31.4c0.4,0,0.5,0.2,0.6,0.6l0,0.1l0.5,0l0-0.1
							c0-0.2,0-0.4,0.1-0.5c0.1-0.1,0.2-0.2,0.5-0.2c0.1,0,0.1,0,0.2,0c0.1,0,0.1,0,0.2,0c0.5,0,0.8-0.2,0.9-1.2l-0.5-0.1
							c-0.1,0.6-0.3,0.7-0.6,0.7c-0.1,0-0.3,0-0.4,0c-0.3,0-0.5,0.2-0.6,0.6l0,0.1l-0.1-0.1c-0.1-0.4-0.4-0.5-0.7-0.5
							c-0.1,0-0.1,0-0.2,0c-0.1,0-0.1,0-0.2,0c-0.3,0-0.5-0.1-0.7-0.6l-0.5,0.1c0.2,1,0.6,1.1,1.1,1.1c0,0,0.1,0,0.2,0
							C15.5,31.4,15.6,31.4,15.8,31.4C15.7,31.4,15.7,31.4,15.8,31.4z"/>
					</g>
				</g>
				<g>
					<g>
						<path class="st13" d="M16.8,29.2l-0.6-0.1l0-0.1c0.1-0.4,0-0.6-0.4-0.6c-0.1,0-0.3,0-0.3,0c-0.5-0.1-0.8-0.4-0.8-1.3l0.5,0
							c0.1,0.5,0.2,0.6,0.5,0.7c0.1,0,0.3,0,0.4,0.1c0.4,0.1,0.5,0.3,0.6,0.6c0.2-0.3,0.4-0.5,0.7-0.4c0.1,0,0.3,0.1,0.4,0.1
							c0.3,0.1,0.4,0,0.7-0.5l0.5,0.2c-0.3,0.9-0.7,1.1-1.2,1c-0.1,0-0.3-0.1-0.3-0.1c-0.4-0.1-0.5,0.1-0.6,0.4L16.8,29.2z"/>
						<path class="st13" d="M16.9,29.3l-0.7-0.1l0-0.2c0.1-0.4,0-0.5-0.4-0.6c0,0-0.1,0-0.2,0c-0.1,0-0.1,0-0.2,0
							c-0.6-0.1-0.8-0.5-0.8-1.4l0,0l0.6,0l0,0c0.1,0.5,0.2,0.6,0.4,0.7c0,0,0.1,0,0.2,0c0.1,0,0.1,0,0.2,0c0.3,0.1,0.5,0.2,0.6,0.5
							c0.2-0.3,0.4-0.4,0.7-0.3c0.1,0,0.1,0,0.2,0c0.1,0,0.1,0,0.2,0c0.3,0,0.4,0,0.6-0.5l0,0l0.5,0.3l0,0c-0.3,0.8-0.7,1.1-1.2,1
							c0,0-0.1,0-0.2,0c-0.1,0-0.1,0-0.2,0c-0.2,0-0.3,0-0.4,0c-0.1,0.1-0.1,0.2-0.2,0.4L16.9,29.3z M16.3,29.1l0.5,0.1l0-0.1
							c0-0.2,0.1-0.3,0.2-0.4c0.1-0.1,0.2-0.1,0.5-0.1c0,0,0.1,0,0.2,0c0.1,0,0.1,0,0.2,0c0.4,0.1,0.8,0,1.1-0.9l-0.4-0.2
							c-0.2,0.5-0.4,0.5-0.7,0.5c0,0-0.1,0-0.2,0c-0.1,0-0.1,0-0.2,0c-0.3-0.1-0.5,0.1-0.7,0.4l-0.1,0.1l0-0.1
							c0-0.3-0.2-0.5-0.5-0.6c-0.1,0-0.1,0-0.2,0c-0.1,0-0.1,0-0.2,0c-0.3-0.1-0.4-0.2-0.5-0.7l-0.4,0c0,0.9,0.3,1.1,0.7,1.2
							c0,0,0.1,0,0.2,0c0.1,0,0.1,0,0.2,0C16.3,28.4,16.4,28.6,16.3,29.1L16.3,29.1z"/>
					</g>
				</g>
				<g>
					<g>
						<path class="st13" d="M17.3,26.6l-0.4-0.2l0-0.1c0.1-0.3,0.1-0.4-0.2-0.5c-0.1,0-0.2-0.1-0.2-0.1c-0.4-0.1-0.5-0.4-0.4-1.1
							l0.4,0c0,0.4,0,0.5,0.3,0.6c0.1,0,0.2,0.1,0.3,0.1c0.3,0.1,0.3,0.3,0.3,0.5c0.2-0.2,0.4-0.3,0.6-0.2c0.1,0,0.2,0.1,0.3,0.1
							c0.2,0.1,0.3,0.1,0.6-0.3l0.3,0.2c-0.4,0.6-0.6,0.7-1,0.6c-0.1,0-0.2-0.1-0.2-0.1C17.6,26.1,17.5,26.2,17.3,26.6L17.3,26.6z"
							/>
						<path class="st13" d="M17.4,26.6l-0.5-0.2l0.1-0.1c0-0.1,0.1-0.2,0-0.3c0-0.1-0.1-0.1-0.2-0.2c0,0-0.1,0-0.1,0
							c0,0-0.1,0-0.1,0c-0.4-0.2-0.5-0.5-0.4-1.1l0,0l0.5,0l0,0c0,0.4,0,0.5,0.2,0.5c0,0,0.1,0,0.1,0c0,0,0.1,0,0.1,0
							c0.2,0.1,0.3,0.2,0.4,0.5c0.2-0.2,0.4-0.2,0.6-0.1c0,0,0.1,0,0.1,0.1c0,0,0.1,0,0.1,0.1c0.2,0.1,0.3,0.1,0.5-0.3l0,0l0.4,0.3
							l0,0c-0.3,0.6-0.6,0.7-1.1,0.6c0,0-0.1,0-0.1,0c0,0-0.1,0-0.1-0.1c-0.2-0.1-0.4,0-0.5,0.2L17.4,26.6z M17,26.4l0.3,0.1l0,0
							c0.1-0.3,0.3-0.4,0.6-0.3c0,0,0.1,0,0.1,0.1c0,0,0.1,0,0.1,0c0.3,0.1,0.6,0.1,0.9-0.5l-0.2-0.2c-0.2,0.3-0.4,0.3-0.6,0.3
							c0,0-0.1,0-0.1-0.1c0,0-0.1,0-0.1-0.1c-0.2-0.1-0.4,0-0.6,0.2L17.3,26l0-0.1c0-0.3-0.1-0.4-0.3-0.5c0,0-0.1,0-0.1,0
							c0,0-0.1,0-0.1,0c-0.2-0.1-0.3-0.2-0.3-0.6l-0.3,0c-0.1,0.7,0.1,0.9,0.4,1c0,0,0.1,0,0.1,0c0.1,0,0.1,0,0.1,0
							c0.2,0.1,0.2,0.1,0.3,0.2C17.1,26.1,17.1,26.2,17,26.4L17,26.4z"/>
					</g>
				</g>
				<g>
					<g>
						<path class="st13" d="M18.1,24.5l-0.4-0.2l0-0.1c0.1-0.3,0.1-0.4-0.2-0.5c-0.1,0-0.2-0.1-0.2-0.1c-0.3-0.2-0.5-0.4-0.3-1.1
							l0.4,0.1c-0.1,0.4,0,0.5,0.2,0.6c0.1,0,0.2,0.1,0.2,0.1c0.2,0.1,0.3,0.3,0.3,0.6c0.2-0.2,0.4-0.2,0.6-0.1
							c0.1,0,0.2,0.1,0.2,0.1c0.2,0.1,0.3,0.1,0.6-0.2l0.3,0.3c-0.4,0.5-0.7,0.6-1,0.4c0,0-0.2-0.1-0.2-0.1
							C18.4,24.1,18.3,24.2,18.1,24.5L18.1,24.5z"/>
						<path class="st13" d="M18.2,24.6l-0.5-0.2l0.1-0.1c0.1-0.1,0.1-0.2,0.1-0.3c0-0.1-0.1-0.1-0.2-0.2c0,0-0.1,0-0.1-0.1
							c0,0-0.1,0-0.1,0c-0.4-0.2-0.5-0.5-0.3-1.1l0,0l0.5,0.1l0,0c-0.1,0.4,0,0.5,0.2,0.5c0,0,0.1,0,0.1,0.1c0,0,0.1,0,0.1,0.1
							c0.2,0.1,0.3,0.3,0.3,0.5c0.2-0.1,0.4-0.2,0.6-0.1c0,0,0.1,0,0.1,0.1c0,0,0.1,0,0.1,0.1c0.2,0.1,0.3,0.1,0.5-0.2l0,0l0.3,0.3
							l0,0c-0.4,0.5-0.7,0.6-1.1,0.5c0,0-0.1,0-0.1-0.1c0,0-0.1,0-0.1-0.1c-0.2-0.1-0.3-0.1-0.4,0.2L18.2,24.6z M17.8,24.3l0.3,0.1
							l0,0c0.1-0.3,0.3-0.3,0.6-0.2c0,0,0.1,0,0.1,0.1c0,0,0.1,0,0.1,0.1c0.3,0.1,0.5,0.1,0.9-0.4l-0.2-0.2C19.4,24,19.2,24,19,23.9
							c0,0-0.1,0-0.1-0.1c0,0-0.1,0-0.1-0.1c-0.2-0.1-0.4-0.1-0.5,0.1L18.2,24l0-0.1c0-0.3,0-0.4-0.2-0.5c0,0-0.1,0-0.1-0.1
							c0,0-0.1,0-0.1-0.1c-0.2-0.1-0.3-0.2-0.2-0.6l-0.3-0.1c-0.2,0.6,0,0.8,0.3,1c0,0,0.1,0,0.1,0c0,0,0.1,0,0.1,0.1
							c0.1,0.1,0.2,0.1,0.2,0.2C17.9,24,17.9,24.1,17.8,24.3L17.8,24.3z"/>
					</g>
				</g>
				<g>
					<g>
						<path class="st13" d="M19.1,22.6l-0.3-0.2l0-0.1c0.1-0.2,0.1-0.3-0.1-0.5c0,0-0.1-0.1-0.2-0.1c-0.3-0.2-0.3-0.4-0.1-0.9
							l0.3,0.1c-0.1,0.3-0.1,0.4,0.1,0.5c0,0,0.1,0.1,0.2,0.1c0.2,0.1,0.2,0.3,0.2,0.5c0.2-0.1,0.3-0.2,0.5,0c0.1,0,0.1,0.1,0.2,0.1
							c0.2,0.1,0.2,0.1,0.5-0.1l0.2,0.2c-0.4,0.4-0.6,0.4-0.9,0.2c0,0-0.1-0.1-0.2-0.1C19.4,22.3,19.3,22.4,19.1,22.6L19.1,22.6z"/>
						<path class="st13" d="M20,22.7c-0.1,0-0.2,0-0.3-0.1c0,0,0,0-0.1-0.1c0,0-0.1-0.1-0.1-0.1c-0.2-0.1-0.3-0.1-0.4,0.1l-0.1,0.1
							l-0.4-0.3l0.1-0.1c0.1-0.1,0.1-0.2,0.1-0.2c0-0.1-0.1-0.1-0.1-0.2c0,0-0.1,0-0.1-0.1c0,0-0.1,0-0.1-0.1
							c-0.3-0.2-0.3-0.5-0.1-1l0,0l0.4,0.1l0,0c-0.1,0.3-0.1,0.4,0.1,0.5c0,0,0.1,0,0.1,0.1c0,0,0.1,0,0.1,0.1
							c0.2,0.1,0.2,0.2,0.2,0.4c0.2-0.1,0.3-0.1,0.5,0c0,0,0.1,0,0.1,0.1c0,0,0.1,0,0.1,0.1c0.1,0.1,0.2,0.1,0.5-0.1l0,0l0.3,0.3
							l0,0C20.4,22.6,20.2,22.7,20,22.7z M19.4,22.3c0.1,0,0.1,0,0.2,0.1c0,0,0.1,0,0.1,0.1c0,0,0.1,0,0.1,0.1
							c0.2,0.2,0.4,0.2,0.8-0.2l-0.1-0.2c-0.2,0.2-0.4,0.2-0.5,0.1c0,0-0.1,0-0.1-0.1c0,0-0.1-0.1-0.1-0.1c-0.2-0.1-0.3-0.1-0.5,0
							l-0.1,0.1l0-0.1c0.1-0.2,0-0.3-0.1-0.4c0,0-0.1,0-0.1-0.1c0,0-0.1,0-0.1-0.1c-0.2-0.1-0.2-0.2-0.1-0.5l-0.2-0.1
							c-0.2,0.5-0.1,0.7,0.1,0.8c0,0,0,0,0.1,0.1c0,0,0.1,0,0.1,0.1c0.1,0.1,0.2,0.2,0.2,0.2c0,0.1,0,0.2-0.1,0.3l0,0l0.2,0.1l0,0
							C19.2,22.4,19.3,22.3,19.4,22.3z"/>
					</g>
				</g>
				<g>
					<g>
						<path class="st13" d="M20.2,21l-0.2-0.2l0-0.1c0.1-0.2,0.1-0.3-0.1-0.4c0,0-0.1-0.1-0.1-0.1c-0.2-0.1-0.3-0.3-0.1-0.8l0.2,0.1
							c-0.1,0.3-0.1,0.3,0.1,0.4c0,0,0.1,0.1,0.2,0.1c0.2,0.1,0.2,0.2,0.1,0.4c0.1-0.1,0.3-0.1,0.4,0c0,0,0.1,0.1,0.1,0.1
							c0.1,0.1,0.2,0.1,0.4-0.1l0.2,0.2c-0.3,0.3-0.5,0.3-0.8,0.2c0,0-0.1-0.1-0.1-0.1C20.4,20.7,20.3,20.7,20.2,21L20.2,21z"/>
						<path class="st13" d="M21,21.1c-0.1,0-0.2,0-0.3-0.1c0,0,0,0-0.1-0.1c0,0-0.1,0-0.1-0.1c-0.1-0.1-0.2-0.1-0.3,0.1L20.2,21
							l-0.3-0.2l0.1-0.1c0.1-0.1,0.1-0.2,0-0.3c0,0,0,0-0.1,0c0,0-0.1,0-0.1,0c-0.3-0.2-0.3-0.4-0.1-0.8l0,0l0.3,0.1l0,0
							c-0.1,0.3,0,0.3,0.1,0.4c0,0,0,0,0.1,0c0,0,0.1,0,0.1,0.1c0.1,0.1,0.2,0.2,0.2,0.4c0.1-0.1,0.3-0.1,0.4,0c0,0,0.1,0,0.1,0.1
							c0,0,0.1,0,0.1,0.1c0.1,0.1,0.2,0.1,0.4-0.1l0,0l0.2,0.3l0,0C21.3,21,21.1,21.1,21,21.1z M20.4,20.7c0.1,0,0.1,0,0.2,0.1
							c0,0,0,0,0.1,0.1c0,0,0,0,0.1,0c0.2,0.1,0.3,0.1,0.7-0.2l-0.1-0.1c-0.2,0.1-0.3,0.2-0.4,0.1c0,0,0,0-0.1-0.1
							c0,0-0.1,0-0.1-0.1c-0.1-0.1-0.2-0.1-0.4,0l-0.1,0.1l0-0.1c0-0.2,0-0.3-0.1-0.4c0,0-0.1,0-0.1-0.1c0,0-0.1,0-0.1-0.1
							c-0.1-0.1-0.2-0.2-0.1-0.4l-0.2-0.1c-0.2,0.4-0.1,0.6,0.1,0.7c0,0,0,0,0.1,0c0,0,0.1,0,0.1,0c0.2,0.1,0.2,0.3,0.1,0.4l0,0
							l0.2,0.1l0,0C20.3,20.8,20.3,20.7,20.4,20.7z"/>
					</g>
				</g>
				<g>
					<g>
						<path class="st13" d="M20.2,41.5l-0.8,0.4l-0.1-0.2c-0.2-0.5-0.5-0.6-1-0.4c-0.1,0.1-0.3,0.2-0.4,0.2c-0.7,0.3-1.2,0.2-2-0.9
							l0.6-0.5c0.5,0.6,0.8,0.6,1.2,0.4c0.1-0.1,0.3-0.2,0.5-0.3c0.5-0.2,0.8-0.1,1.2,0.3c-0.1-0.5,0.1-0.9,0.6-1.1
							c0.1-0.1,0.4-0.1,0.5-0.2c0.4-0.2,0.5-0.4,0.4-1.2l0.7-0.1c0.4,1.3,0.1,1.8-0.6,2.1c-0.1,0-0.4,0.1-0.5,0.2
							c-0.5,0.2-0.6,0.5-0.3,1L20.2,41.5z"/>
						<path class="st13" d="M19.4,41.9l-0.1-0.2c-0.1-0.3-0.2-0.4-0.4-0.5c-0.1-0.1-0.3,0-0.6,0.1c-0.1,0-0.1,0.1-0.2,0.1
							c-0.1,0-0.2,0.1-0.2,0.1c-0.8,0.4-1.4,0.1-2.1-0.9l0,0l0.6-0.5l0,0c0.5,0.6,0.7,0.6,1.1,0.4c0.1,0,0.1-0.1,0.2-0.1
							c0.1,0,0.2-0.1,0.2-0.1c0.4-0.2,0.8-0.1,1.2,0.2c0-0.5,0.2-0.8,0.6-1c0.1,0,0.2-0.1,0.3-0.1c0.1,0,0.2-0.1,0.2-0.1
							c0.4-0.2,0.5-0.3,0.4-1.1l0,0l0.8-0.2l0,0c0.3,1.2,0.2,1.8-0.6,2.2c0,0-0.1,0.1-0.2,0.1c-0.1,0-0.2,0.1-0.2,0.1
							c-0.5,0.2-0.6,0.5-0.3,1l0.1,0.2L19.4,41.9z M18.8,41.1c0.1,0,0.1,0,0.2,0c0.2,0.1,0.3,0.2,0.4,0.5l0.1,0.1l0.7-0.3l-0.1-0.1
							c-0.3-0.5-0.2-0.9,0.4-1.1c0.1,0,0.2-0.1,0.2-0.1c0.1,0,0.2-0.1,0.2-0.1c0.6-0.3,0.9-0.7,0.6-2.1l-0.7,0.1
							c0.1,0.8,0,1-0.4,1.2c-0.1,0-0.2,0.1-0.2,0.1c-0.1,0-0.2,0.1-0.2,0.1c-0.4,0.2-0.6,0.5-0.5,1.1l0,0.1l-0.1-0.1
							c-0.4-0.4-0.7-0.5-1.1-0.3c-0.1,0-0.2,0.1-0.2,0.1c-0.1,0-0.2,0.1-0.2,0.1c-0.4,0.2-0.7,0.2-1.2-0.4l-0.5,0.4
							c0.8,1.1,1.4,1.1,1.9,0.9c0,0,0.1-0.1,0.2-0.1c0.1,0,0.2-0.1,0.2-0.1C18.5,41.1,18.6,41.1,18.8,41.1z"/>
					</g>
				</g>
				<g>
					<g>
						<path class="st13" d="M22.8,44.4l-0.6,0.5L22,44.8c-0.3-0.4-0.6-0.5-1.1-0.2c-0.1,0.1-0.3,0.3-0.4,0.3
							c-0.6,0.4-1.1,0.4-2.1-0.4l0.4-0.6c0.6,0.5,0.9,0.4,1.2,0.2c0.1-0.1,0.3-0.2,0.4-0.3c0.4-0.3,0.8-0.3,1.2,0
							c-0.2-0.5-0.1-0.8,0.3-1.2c0.1-0.1,0.3-0.2,0.4-0.3c0.3-0.3,0.4-0.5,0.1-1.2l0.7-0.3c0.6,1.2,0.5,1.7-0.1,2.2
							c-0.1,0.1-0.3,0.2-0.4,0.3c-0.4,0.3-0.4,0.6-0.1,1.1L22.8,44.4z"/>
						<path class="st13" d="M19.9,45.2c-0.4,0-0.9-0.2-1.4-0.7l0,0l0.5-0.7l0,0c0.6,0.5,0.8,0.4,1.1,0.2c0.1,0,0.1-0.1,0.2-0.2
							c0.1-0.1,0.1-0.1,0.2-0.2c0.4-0.3,0.7-0.3,1.1-0.1c-0.1-0.5,0-0.8,0.3-1.1c0.1,0,0.1-0.1,0.2-0.2c0.1-0.1,0.2-0.1,0.2-0.1
							c0.3-0.2,0.4-0.4,0.1-1.1l0,0l0.8-0.3l0,0c0.6,1.1,0.5,1.7-0.1,2.2c0,0-0.1,0.1-0.2,0.1c-0.1,0.1-0.2,0.1-0.2,0.1
							c-0.2,0.2-0.3,0.3-0.3,0.5c0,0.1,0.1,0.3,0.2,0.5l0.1,0.2L22.1,45L22,44.8c-0.3-0.4-0.6-0.5-1-0.2c0,0-0.1,0.1-0.2,0.2
							c-0.1,0.1-0.1,0.1-0.2,0.2C20.4,45.1,20.1,45.2,19.9,45.2z M18.5,44.5c1,0.9,1.5,0.8,2,0.4c0,0,0.1-0.1,0.2-0.1
							c0.1-0.1,0.1-0.1,0.2-0.2c0.4-0.3,0.8-0.3,1.1,0.2l0.1,0.1l0.6-0.4l-0.1-0.1c-0.2-0.2-0.3-0.4-0.3-0.6c0-0.2,0.1-0.3,0.4-0.5
							c0,0,0.1-0.1,0.2-0.2c0.1-0.1,0.1-0.1,0.2-0.1c0.5-0.4,0.7-0.9,0.1-2.1L22.6,41c0.3,0.7,0.2,0.9-0.2,1.2
							c-0.1,0-0.1,0.1-0.2,0.2c-0.1,0.1-0.2,0.1-0.2,0.2c-0.4,0.3-0.5,0.6-0.3,1.1l0,0.1l-0.1-0.1c-0.4-0.3-0.8-0.3-1.1,0
							c-0.1,0-0.1,0.1-0.2,0.2c-0.1,0.1-0.1,0.1-0.2,0.2c-0.3,0.3-0.6,0.3-1.2-0.1L18.5,44.5z"/>
					</g>
				</g>
			</g>
			<g>
				<g>
					<g>
						<path class="st13" d="M47.4,34.8c0.1-0.4,0-0.6-0.4-0.7c-0.1,0-0.3,0-0.4-0.1c-0.5-0.1-0.8-0.4-0.8-1.4l0.6,0
							c0,0.6,0.2,0.7,0.5,0.8c0.1,0,0.3,0,0.4,0.1c0.4,0.1,0.6,0.3,0.6,0.7c0.2-0.3,0.4-0.5,0.8-0.4c0.1,0,0.3,0.1,0.4,0.1
							c0.3,0.1,0.5,0,0.8-0.5l0.5,0.2c-0.4,0.9-0.8,1.1-1.3,1c-0.1,0-0.3-0.1-0.4-0.1c-0.4-0.1-0.6,0.1-0.7,0.5l0,0.1l-0.6-0.1
							L47.4,34.8z"/>
						<path class="st13" d="M48,35.1L47.3,35l0-0.2c0-0.2,0-0.3,0-0.4c-0.1-0.1-0.2-0.2-0.4-0.2c0,0-0.1,0-0.2,0c-0.1,0-0.1,0-0.2,0
							c-0.6-0.1-0.9-0.6-0.8-1.5l0,0l0.7,0l0,0c0,0.6,0.2,0.7,0.5,0.7c0.1,0,0.1,0,0.2,0c0.1,0,0.1,0,0.2,0c0.3,0.1,0.5,0.3,0.6,0.6
							c0.2-0.3,0.5-0.4,0.8-0.3c0.1,0,0.1,0,0.2,0c0.1,0,0.1,0,0.2,0c0.3,0.1,0.4,0,0.7-0.5l0,0l0.6,0.3l0,0
							c-0.3,0.9-0.7,1.2-1.3,1.1c0,0-0.1,0-0.2,0c-0.1,0-0.1,0-0.2,0c-0.4-0.1-0.5,0-0.6,0.4L48,35.1z M47.4,34.9l0.5,0.1l0-0.1
							c0.1-0.5,0.3-0.6,0.7-0.5c0,0,0.1,0,0.2,0c0.1,0,0.1,0,0.2,0c0.5,0.1,0.9,0,1.2-1l-0.4-0.2c-0.3,0.5-0.5,0.6-0.8,0.5
							c-0.1,0-0.1,0-0.2,0c-0.1,0-0.1,0-0.2,0c-0.3-0.1-0.6,0.1-0.8,0.4l-0.1,0.1l0-0.1c0-0.4-0.2-0.6-0.6-0.7c-0.1,0-0.1,0-0.2,0
							c-0.1,0-0.1,0-0.2,0c-0.3-0.1-0.5-0.2-0.5-0.8l-0.5,0c0,1,0.3,1.3,0.8,1.4c0,0,0.1,0,0.2,0c0.1,0,0.2,0,0.2,0
							c0.2,0,0.4,0.1,0.4,0.2C47.5,34.4,47.5,34.6,47.4,34.9L47.4,34.9z"/>
					</g>
				</g>
				<g>
					<g>
						<path class="st13" d="M46.6,38c0.1-0.5,0-0.7-0.4-0.8c-0.1,0-0.3-0.1-0.4-0.1c-0.6-0.2-0.9-0.6-0.8-1.7l0.6,0
							c0,0.7,0.1,0.8,0.5,0.9c0.1,0,0.3,0.1,0.4,0.1c0.4,0.1,0.6,0.4,0.6,0.8c0.2-0.4,0.5-0.5,0.9-0.4c0.1,0,0.3,0.1,0.4,0.1
							c0.4,0.1,0.5,0.1,0.9-0.5l0.5,0.3c-0.5,1-0.9,1.2-1.5,1c-0.1,0-0.3-0.1-0.4-0.1c-0.5-0.1-0.7,0-0.8,0.5l0,0.2l-0.7-0.2
							L46.6,38z"/>
						<path class="st13" d="M47.3,38.4l-0.8-0.2l0.1-0.2c0.1-0.4,0-0.6-0.4-0.8c-0.1,0-0.1,0-0.2,0c-0.1,0-0.2,0-0.2,0
							c-0.7-0.2-0.9-0.7-0.8-1.7l0,0l0.7,0l0,0c0,0.7,0.1,0.8,0.5,0.9c0.1,0,0.1,0,0.2,0c0.1,0,0.2,0,0.2,0.1
							c0.4,0.1,0.6,0.3,0.6,0.7c0.2-0.3,0.5-0.4,0.9-0.3c0.1,0,0.1,0,0.2,0.1c0.1,0,0.1,0,0.2,0.1c0.3,0.1,0.5,0.1,0.8-0.5l0,0
							l0.6,0.4l0,0c-0.4,0.9-0.9,1.3-1.6,1.1c0,0-0.1,0-0.2-0.1c-0.1,0-0.2-0.1-0.2-0.1c-0.4-0.1-0.6,0-0.7,0.4L47.3,38.4z
							 M46.6,38.1l0.6,0.2l0-0.1c0.1-0.5,0.4-0.6,0.8-0.5c0.1,0,0.1,0,0.2,0.1c0.1,0,0.1,0,0.2,0.1c0.5,0.1,1,0,1.5-1l-0.5-0.3
							c-0.3,0.6-0.6,0.6-0.9,0.5c-0.1,0-0.1,0-0.2-0.1c-0.1,0-0.2-0.1-0.2-0.1c-0.4-0.1-0.7,0-0.9,0.4l-0.1,0.1l0-0.1
							c0-0.4-0.2-0.7-0.6-0.8c-0.1,0-0.1,0-0.2-0.1c-0.1,0-0.2,0-0.2-0.1c-0.4-0.1-0.5-0.3-0.5-0.9l-0.5,0c-0.1,1.1,0.2,1.4,0.7,1.6
							c0,0,0.1,0,0.2,0c0.1,0,0.2,0,0.2,0.1c0.5,0.1,0.6,0.4,0.5,0.9L46.6,38.1z"/>
					</g>
				</g>
				<g>
					<g>
						<path class="st13" d="M47.8,32c0-0.4-0.1-0.6-0.5-0.6c-0.1,0-0.3,0-0.4,0c-0.5,0-0.9-0.3-1-1.3l0.6-0.1
							c0.1,0.6,0.3,0.7,0.6,0.7c0.1,0,0.3,0,0.4,0c0.4,0,0.6,0.2,0.7,0.6c0.1-0.4,0.4-0.5,0.8-0.5c0.1,0,0.3,0,0.4,0
							c0.3,0,0.5-0.1,0.7-0.6l0.5,0.2c-0.2,1-0.6,1.2-1.1,1.2c-0.1,0-0.3,0-0.4,0c-0.4,0-0.6,0.1-0.6,0.6l0,0.1l-0.6,0L47.8,32z"/>
						<path class="st13" d="M48.4,32.2l-0.7,0l0-0.2c0-0.2,0-0.3-0.1-0.4c-0.1-0.1-0.2-0.1-0.4-0.1c0,0-0.1,0-0.2,0
							c-0.1,0-0.1,0-0.2,0c-0.6,0-0.9-0.4-1-1.4l0,0l0.6-0.1l0,0c0.1,0.6,0.3,0.6,0.6,0.7c0.1,0,0.3,0,0.4,0c0.3,0,0.6,0.2,0.7,0.5
							c0.2-0.3,0.4-0.5,0.7-0.4c0.1,0,0.1,0,0.2,0c0.1,0,0.1,0,0.2,0c0.3,0,0.4,0,0.6-0.6l0,0l0.6,0.2l0,0c-0.2,0.9-0.6,1.3-1.2,1.2
							c0,0-0.1,0-0.2,0c-0.1,0-0.1,0-0.2,0c-0.4,0-0.5,0.1-0.5,0.5L48.4,32.2z M47.8,32l0.5,0l0-0.1c0-0.5,0.2-0.6,0.6-0.6
							c0,0,0.1,0,0.2,0c0.1,0,0.1,0,0.2,0c0.5,0,0.8-0.2,1.1-1.1L50,30.1c-0.2,0.5-0.4,0.6-0.7,0.6c-0.1,0-0.1,0-0.2,0
							c-0.1,0-0.1,0-0.2,0c-0.4,0-0.6,0.1-0.7,0.5l-0.1,0.1l0-0.1c-0.1-0.4-0.3-0.5-0.6-0.6c-0.1,0-0.3,0-0.4,0
							c-0.3,0-0.5-0.1-0.6-0.7L45.9,30c0.1,1,0.5,1.2,0.9,1.2c0,0,0.1,0,0.2,0c0.1,0,0.2,0,0.2,0c0.2,0,0.4,0.1,0.5,0.2
							C47.8,31.6,47.8,31.7,47.8,32L47.8,32z"/>
					</g>
				</g>
				<g>
					<g>
						<path class="st13" d="M47.8,29.1c-0.1-0.4-0.2-0.5-0.6-0.4c-0.1,0-0.3,0.1-0.3,0.1c-0.5,0.1-0.9-0.1-1.2-1l0.5-0.2
							c0.2,0.5,0.4,0.5,0.7,0.5c0.1,0,0.3-0.1,0.4-0.1c0.4-0.1,0.6,0.1,0.7,0.4c0-0.3,0.2-0.6,0.6-0.6c0.1,0,0.3,0,0.4-0.1
							c0.3-0.1,0.4-0.2,0.5-0.7l0.5,0c0,0.9-0.3,1.2-0.8,1.3c-0.1,0-0.3,0-0.3,0c-0.4,0.1-0.5,0.2-0.4,0.6l0,0.1l-0.6,0.1L47.8,29.1
							z"/>
						<path class="st13" d="M47.8,29.3l0-0.2c-0.1-0.4-0.2-0.5-0.5-0.4c0,0-0.1,0-0.2,0c-0.1,0-0.1,0-0.2,0c-0.6,0.1-0.9-0.2-1.2-1
							l0,0l0.5-0.3l0,0c0.2,0.5,0.4,0.5,0.6,0.5c0,0,0.1,0,0.2,0c0.1,0,0.1,0,0.2,0c0.3-0.1,0.5,0,0.7,0.3c0.1-0.3,0.3-0.5,0.6-0.5
							c0.1,0,0.1,0,0.2,0c0.1,0,0.1,0,0.2,0c0.3,0,0.4-0.1,0.4-0.7l0,0l0.6,0l0,0c0,0.9-0.2,1.3-0.8,1.4c0,0-0.1,0-0.2,0
							c-0.1,0-0.1,0-0.2,0c-0.2,0-0.3,0.1-0.3,0.2c-0.1,0.1-0.1,0.2,0,0.4l0,0.2L47.8,29.3z M47.4,28.6c0.3,0,0.4,0.2,0.5,0.5v0
							l0,0.1l0.5-0.1l0-0.1c0-0.2,0-0.4,0-0.5c0.1-0.1,0.2-0.2,0.4-0.2c0,0,0.1,0,0.2,0c0.1,0,0.1,0,0.2,0c0.4-0.1,0.7-0.3,0.7-1.2
							l-0.4,0c-0.1,0.5-0.2,0.6-0.5,0.7c0,0-0.1,0-0.2,0c-0.1,0-0.1,0-0.2,0c-0.3,0.1-0.5,0.2-0.5,0.6l0,0.1l-0.1-0.1
							c-0.2-0.3-0.4-0.4-0.7-0.4c-0.1,0-0.1,0-0.2,0c-0.1,0-0.1,0-0.2,0c-0.3,0.1-0.5,0-0.7-0.5l-0.4,0.2c0.3,0.8,0.7,1,1.1,0.9
							c0,0,0.1,0,0.2,0c0.1,0,0.1,0,0.2,0C47.3,28.6,47.3,28.6,47.4,28.6z"/>
					</g>
				</g>
				<g>
					<g>
						<path class="st13" d="M47.3,26.5c-0.1-0.3-0.2-0.4-0.5-0.3c-0.1,0-0.2,0.1-0.2,0.1c-0.4,0.1-0.7,0-1-0.6l0.3-0.2
							c0.2,0.3,0.4,0.4,0.6,0.3c0.1,0,0.2-0.1,0.3-0.1c0.3-0.1,0.4,0,0.6,0.2c0-0.3,0.1-0.4,0.3-0.5c0.1,0,0.2-0.1,0.3-0.1
							c0.2-0.1,0.3-0.2,0.3-0.6l0.4,0c0.1,0.7,0,1-0.4,1.1c-0.1,0-0.2,0.1-0.2,0.1c-0.3,0.1-0.3,0.2-0.2,0.5l0,0.1L47.3,26.5
							L47.3,26.5z"/>
						<path class="st13" d="M47.3,26.6l-0.1-0.1c0-0.1-0.1-0.2-0.2-0.2c-0.1,0-0.2,0-0.3,0c0,0-0.1,0-0.1,0.1c0,0-0.1,0-0.1,0
							c-0.4,0.2-0.7,0-1.1-0.6l0,0l0.4-0.3l0,0c0.2,0.3,0.3,0.3,0.5,0.3c0,0,0.1,0,0.1-0.1c0,0,0.1,0,0.1-0.1c0.2-0.1,0.4,0,0.6,0.1
							c0-0.2,0.1-0.4,0.4-0.5c0,0,0.1,0,0.1,0c0,0,0.1,0,0.1,0c0.2-0.1,0.3-0.1,0.2-0.5l0,0l0.5,0l0,0c0.1,0.7,0,1-0.4,1.1
							c0,0-0.1,0-0.1,0c0,0-0.1,0-0.1,0c-0.1,0-0.2,0.1-0.2,0.2c0,0.1,0,0.2,0,0.3l0.1,0.1L47.3,26.6z M47.4,26.4L47.4,26.4l0.3-0.1
							l0,0c-0.1-0.2-0.1-0.3,0-0.4c0-0.1,0.1-0.2,0.3-0.2c0,0,0.1,0,0.1,0c0,0,0.1,0,0.1,0c0.3-0.1,0.5-0.3,0.4-1l-0.3,0
							c0,0.4-0.1,0.5-0.3,0.6c0,0-0.1,0-0.1,0c0,0-0.1,0-0.1,0c-0.2,0.1-0.3,0.2-0.3,0.5l0,0.1l-0.1-0.1c-0.2-0.2-0.3-0.3-0.6-0.2
							c0,0-0.1,0-0.1,0.1c0,0-0.1,0-0.1,0.1c-0.2,0.1-0.4,0.1-0.6-0.3l-0.3,0.2c0.4,0.6,0.6,0.6,0.9,0.5c0,0,0.1,0,0.1,0
							c0,0,0.1,0,0.1-0.1c0.2-0.1,0.3-0.1,0.4,0C47.2,26.2,47.3,26.3,47.4,26.4L47.4,26.4z"/>
					</g>
				</g>
				<g>
					<g>
						<path class="st13" d="M46.5,24.4c-0.1-0.3-0.3-0.3-0.5-0.2c-0.1,0-0.2,0.1-0.2,0.1c-0.3,0.2-0.6,0.1-1-0.4l0.3-0.3
							c0.3,0.3,0.4,0.3,0.6,0.2c0.1,0,0.2-0.1,0.2-0.1c0.2-0.1,0.4-0.1,0.6,0.1c0-0.3,0-0.4,0.3-0.6c0.1,0,0.2-0.1,0.2-0.1
							c0.2-0.1,0.3-0.2,0.2-0.6l0.4-0.1c0.2,0.6,0.1,0.9-0.3,1.1c0,0-0.2,0.1-0.2,0.1c-0.3,0.1-0.3,0.3-0.2,0.5l0,0.1L46.5,24.4
							L46.5,24.4z"/>
						<path class="st13" d="M46.5,24.6l-0.1-0.1c-0.1-0.1-0.1-0.2-0.2-0.2c-0.1,0-0.2,0-0.3,0c0,0-0.1,0-0.1,0.1c0,0-0.1,0-0.1,0.1
							c-0.4,0.2-0.7,0.1-1.1-0.5l0,0l0.3-0.3l0,0c0.3,0.3,0.4,0.3,0.5,0.2c0,0,0.1,0,0.1-0.1c0,0,0.1,0,0.1-0.1
							c0.2-0.1,0.4-0.1,0.6,0.1c0-0.2,0.1-0.4,0.3-0.5c0,0,0.1,0,0.1-0.1c0,0,0.1,0,0.1-0.1c0.2-0.1,0.2-0.2,0.2-0.5l0,0l0.5-0.1
							l0,0c0.2,0.6,0.1,0.9-0.3,1.1c0,0-0.1,0-0.1,0c0,0-0.1,0-0.1,0.1c-0.2,0.1-0.3,0.2-0.1,0.5l0.1,0.1L46.5,24.6z M46.5,24.4
							L46.5,24.4l0.3-0.1l0,0c-0.1-0.3-0.1-0.5,0.2-0.6c0,0,0.1,0,0.1-0.1c0,0,0.1,0,0.1,0c0.3-0.1,0.4-0.4,0.3-1l-0.3,0.1
							c0.1,0.4,0,0.5-0.2,0.6c0,0-0.1,0-0.1,0.1c0,0-0.1,0-0.1,0.1c-0.2,0.1-0.3,0.3-0.2,0.5l0,0.1l-0.1-0.1
							c-0.2-0.2-0.3-0.2-0.5-0.1c0,0-0.1,0-0.1,0.1c0,0-0.1,0-0.1,0.1C45.4,24,45.3,24,45,23.7l-0.2,0.2c0.4,0.5,0.7,0.5,0.9,0.4
							c0,0,0.1,0,0.1-0.1c0,0,0.1-0.1,0.1-0.1c0.1-0.1,0.2-0.1,0.3,0C46.4,24.2,46.5,24.3,46.5,24.4L46.5,24.4z"/>
					</g>
				</g>
				<g>
					<g>
						<path class="st13" d="M45.5,22.5c-0.1-0.2-0.3-0.2-0.4-0.1c0,0-0.1,0.1-0.2,0.1c-0.3,0.2-0.5,0.2-0.9-0.2l0.2-0.2
							c0.3,0.2,0.4,0.2,0.5,0.1c0,0,0.1-0.1,0.2-0.1c0.2-0.1,0.3-0.1,0.5,0c-0.1-0.2,0-0.4,0.2-0.5c0.1,0,0.1-0.1,0.2-0.1
							c0.2-0.1,0.2-0.2,0.1-0.5l0.3-0.1c0.2,0.5,0.2,0.7-0.1,0.9c0,0-0.1,0.1-0.2,0.1c-0.2,0.1-0.2,0.3-0.1,0.5l0,0.1L45.5,22.5
							L45.5,22.5z"/>
						<path class="st13" d="M44.6,22.7c-0.2,0-0.4-0.1-0.6-0.4l0,0l0.3-0.3l0,0c0.2,0.2,0.3,0.2,0.5,0.1c0,0,0.1,0,0.1-0.1
							c0,0,0.1-0.1,0.1-0.1c0.2-0.1,0.3-0.1,0.5,0c0-0.2,0-0.3,0.2-0.4c0,0,0.1,0,0.1-0.1c0,0,0.1,0,0.1-0.1
							c0.1-0.1,0.2-0.2,0.1-0.5l0,0l0.4-0.1l0,0c0.2,0.5,0.2,0.8-0.1,1c0,0-0.1,0-0.1,0.1c0,0-0.1,0-0.1,0.1
							c-0.2,0.1-0.2,0.2-0.1,0.4l0.1,0.1l-0.4,0.3l-0.1-0.1c-0.1-0.2-0.2-0.2-0.4-0.1c0,0-0.1,0-0.1,0.1c0,0-0.1,0-0.1,0.1
							C44.9,22.7,44.7,22.7,44.6,22.7z M44.1,22.3c0.4,0.4,0.6,0.4,0.8,0.2c0,0,0,0,0.1-0.1c0,0,0.1-0.1,0.1-0.1
							c0.2-0.1,0.4-0.1,0.5,0.1v0l0,0l0.2-0.1l0,0c-0.2-0.2-0.1-0.4,0.1-0.5c0,0,0.1,0,0.1-0.1c0,0,0.1,0,0.1-0.1
							c0.2-0.2,0.3-0.3,0.1-0.8L45.9,21c0.1,0.3,0.1,0.4-0.1,0.5c0,0-0.1,0-0.1,0.1c0,0-0.1,0-0.1,0.1c-0.2,0.1-0.2,0.2-0.1,0.4
							l0,0.1l-0.1-0.1c-0.2-0.1-0.3-0.1-0.5,0c0,0-0.1,0-0.1,0.1c0,0-0.1,0.1-0.1,0.1c-0.2,0.1-0.3,0.1-0.5-0.1L44.1,22.3z"/>
					</g>
				</g>
				<g>
					<g>
						<path class="st13" d="M44.5,20.9c-0.1-0.2-0.2-0.2-0.4-0.1c0,0-0.1,0.1-0.1,0.1c-0.2,0.1-0.4,0.1-0.8-0.2l0.2-0.2
							c0.2,0.2,0.3,0.2,0.4,0.1c0,0,0.1-0.1,0.1-0.1c0.2-0.1,0.3-0.1,0.4,0c-0.1-0.2,0-0.3,0.1-0.4c0,0,0.1-0.1,0.2-0.1
							c0.1-0.1,0.2-0.2,0.1-0.4l0.2-0.1c0.2,0.4,0.1,0.6-0.1,0.8c0,0-0.1,0.1-0.1,0.1c-0.2,0.1-0.2,0.2-0.1,0.4l0,0.1L44.5,20.9
							L44.5,20.9z"/>
						<path class="st13" d="M43.7,21.1c-0.2,0-0.3-0.1-0.5-0.3l0,0l0.2-0.3l0,0c0.2,0.2,0.3,0.1,0.4,0.1c0,0,0,0,0.1-0.1
							c0,0,0.1,0,0.1-0.1c0.1-0.1,0.3-0.1,0.4,0c0-0.1,0-0.3,0.2-0.4c0,0,0.1,0,0.1-0.1c0,0,0.1,0,0.1,0c0.1-0.1,0.1-0.1,0.1-0.4
							l0,0l0.3-0.1l0,0c0.2,0.4,0.2,0.7-0.1,0.8c0,0,0,0-0.1,0c0,0-0.1,0-0.1,0c-0.1,0-0.1,0.1-0.1,0.1c0,0,0,0.1,0.1,0.2l0.1,0.1
							L44.5,21l-0.1-0.1c-0.1-0.1-0.1-0.1-0.1-0.1c0,0-0.1,0-0.2,0.1c0,0,0,0-0.1,0.1c0,0-0.1,0-0.1,0.1
							C43.9,21,43.8,21.1,43.7,21.1z M43.3,20.7c0.3,0.3,0.5,0.3,0.7,0.2c0,0,0,0,0.1,0c0,0,0.1,0,0.1-0.1c0.1-0.1,0.2-0.1,0.2-0.1
							c0.1,0,0.1,0.1,0.2,0.2l0,0l0.2-0.1l0,0c-0.1-0.1-0.1-0.2-0.1-0.2c0-0.1,0.1-0.1,0.1-0.2c0,0,0.1,0,0.1-0.1c0,0,0.1,0,0.1,0
							c0.2-0.1,0.2-0.3,0.1-0.7l-0.2,0.1c0.1,0.2,0,0.3-0.1,0.4c0,0-0.1,0-0.1,0.1c0,0-0.1,0-0.1,0c-0.1,0.1-0.2,0.2-0.1,0.4l0,0.1
							l-0.1-0.1c-0.1-0.1-0.2-0.1-0.4,0c0,0,0,0-0.1,0.1c0,0-0.1,0-0.1,0.1c-0.1,0.1-0.3,0.1-0.4-0.1L43.3,20.7z"/>
					</g>
				</g>
				<g>
					<g>
						<path class="st13" d="M44.5,41.3c0.2-0.5,0.2-0.8-0.3-1c-0.1-0.1-0.4-0.1-0.5-0.2c-0.7-0.3-0.9-0.9-0.6-2.2l0.7,0.1
							c-0.1,0.8,0,1,0.4,1.2c0.1,0.1,0.4,0.1,0.5,0.2c0.5,0.2,0.6,0.6,0.6,1.1c0.4-0.4,0.7-0.5,1.2-0.3c0.1,0.1,0.3,0.2,0.5,0.3
							c0.4,0.2,0.6,0.2,1.2-0.4l0.6,0.5c-0.8,1.1-1.4,1.2-2,0.9c-0.1,0-0.3-0.2-0.4-0.2c-0.5-0.2-0.8-0.1-1,0.4l-0.1,0.2l-0.8-0.4
							L44.5,41.3z"/>
						<path class="st13" d="M45.2,41.9l-0.8-0.4l0.1-0.2c0.1-0.3,0.2-0.4,0.1-0.6c0-0.2-0.2-0.3-0.4-0.4c-0.1,0-0.2-0.1-0.2-0.1
							c-0.1,0-0.2-0.1-0.2-0.1c-0.8-0.4-0.9-1-0.6-2.2l0,0L44,38l0,0c-0.1,0.8,0,0.9,0.4,1.1c0.1,0,0.2,0.1,0.2,0.1
							c0.1,0,0.2,0.1,0.3,0.1c0.4,0.2,0.6,0.5,0.6,1c0.4-0.3,0.7-0.4,1.2-0.2c0.1,0,0.2,0.1,0.2,0.1c0.1,0,0.2,0.1,0.2,0.1
							c0.4,0.2,0.6,0.2,1.1-0.4l0,0l0.6,0.5l0,0c-0.7,1-1.3,1.3-2.1,0.9c0,0-0.1-0.1-0.2-0.1c-0.1,0-0.2-0.1-0.2-0.1
							c-0.2-0.1-0.4-0.1-0.6-0.1c-0.1,0.1-0.3,0.2-0.4,0.5L45.2,41.9z M44.5,41.4l0.7,0.3l0.1-0.1c0.1-0.3,0.3-0.4,0.4-0.5
							c0.2-0.1,0.4,0,0.6,0.1c0.1,0,0.1,0.1,0.2,0.1c0.1,0,0.2,0.1,0.2,0.1c0.6,0.3,1.1,0.2,1.9-0.9l-0.5-0.4
							c-0.5,0.6-0.8,0.6-1.2,0.4c-0.1,0-0.1-0.1-0.2-0.1c-0.1,0-0.2-0.1-0.2-0.1c-0.4-0.2-0.8-0.1-1.1,0.3l-0.1,0.1l0-0.1
							c0.1-0.5-0.1-0.8-0.5-1.1c-0.1,0-0.2-0.1-0.2-0.1c-0.1,0-0.2-0.1-0.2-0.1c-0.4-0.2-0.6-0.4-0.4-1.2L43.2,38
							c-0.4,1.3,0,1.8,0.6,2.1c0,0,0.1,0.1,0.2,0.1c0.1,0,0.2,0.1,0.2,0.1c0.3,0.1,0.4,0.3,0.5,0.4c0.1,0.2,0,0.4-0.1,0.7v0
							L44.5,41.4z"/>
					</g>
				</g>
				<g>
					<g>
						<path class="st13" d="M42,43.9c0.3-0.4,0.3-0.7-0.1-1.1c-0.1-0.1-0.3-0.2-0.4-0.3c-0.6-0.5-0.7-1-0.1-2.2l0.7,0.3
							c-0.3,0.7-0.2,1,0.1,1.2c0.1,0.1,0.3,0.2,0.4,0.3c0.4,0.3,0.5,0.7,0.3,1.2c0.4-0.3,0.8-0.3,1.2,0c0.1,0.1,0.3,0.3,0.4,0.3
							c0.3,0.3,0.6,0.3,1.2-0.2l0.5,0.6c-1,0.9-1.6,0.9-2.2,0.5c-0.1-0.1-0.3-0.2-0.4-0.3c-0.4-0.3-0.7-0.3-1.1,0.2l-0.1,0.1
							L41.9,44L42,43.9z"/>
						<path class="st13" d="M44.9,44.9c-0.3,0-0.5-0.1-0.8-0.3c0,0-0.1-0.1-0.2-0.2c-0.1-0.1-0.2-0.1-0.2-0.2
							c-0.2-0.2-0.4-0.2-0.5-0.2c-0.2,0-0.3,0.1-0.5,0.4l-0.1,0.2L41.8,44l0.1-0.2c0.2-0.2,0.3-0.4,0.2-0.5c0-0.2-0.1-0.3-0.3-0.5
							c0,0-0.1-0.1-0.2-0.2c-0.1-0.1-0.2-0.1-0.2-0.1c-0.7-0.5-0.7-1.2-0.1-2.3l0,0l0.8,0.3l0,0c-0.3,0.7-0.2,0.9,0.1,1.2
							c0.1,0,0.1,0.1,0.2,0.1c0.1,0.1,0.2,0.1,0.2,0.2c0.4,0.3,0.5,0.7,0.4,1.1c0.4-0.2,0.8-0.2,1.2,0.1c0.1,0,0.1,0.1,0.2,0.2
							c0.1,0.1,0.1,0.1,0.2,0.2c0.3,0.2,0.5,0.3,1.2-0.2l0,0l0.5,0.7l0,0C45.7,44.6,45.3,44.9,44.9,44.9z M43.2,43.9
							c0.2,0,0.3,0.1,0.5,0.2c0.1,0,0.1,0.1,0.2,0.2c0.1,0.1,0.1,0.1,0.2,0.2c0.5,0.4,1.1,0.5,2.1-0.4l-0.4-0.5
							c-0.6,0.5-0.9,0.4-1.2,0.1c-0.1,0-0.1-0.1-0.2-0.2c-0.1-0.1-0.1-0.1-0.2-0.2c-0.4-0.3-0.7-0.3-1.2,0l-0.1,0.1l0-0.1
							c0.2-0.5,0.1-0.8-0.3-1.1c-0.1,0-0.1-0.1-0.2-0.2c-0.1-0.1-0.2-0.1-0.2-0.2c-0.4-0.3-0.5-0.5-0.2-1.2l-0.6-0.3
							c-0.6,1.2-0.4,1.7,0.1,2.1c0,0,0.1,0.1,0.2,0.1c0.1,0.1,0.2,0.1,0.2,0.2c0.2,0.2,0.4,0.4,0.4,0.5c0,0.2-0.1,0.4-0.3,0.6
							L41.9,44l0.6,0.5l0.1-0.1C42.8,44.1,43,44,43.2,43.9C43.2,43.9,43.2,43.9,43.2,43.9z"/>
					</g>
				</g>
			</g>
			<g>
				<path class="st13" d="M42.3,32.6c0-1.6-1-3.1-2.5-3.7c0.1-0.3,0.1-0.6,0.1-1c0-3.1-2.5-5.6-5.6-5.6c-1.8,0-3.4,0.8-4.5,2.2
					C29.3,24.2,28.7,24,28,24c-1.7,0-3,1.4-3,3c0,0.3,0.1,0.6,0.2,0.9c-1.5,0.6-2.5,2.1-2.5,3.7c0,1.7,1,3.1,2.5,3.7
					c-0.1,0.3-0.1,0.6-0.1,1c0,3.1,2.5,5.6,5.6,5.6c1.8,0,3.4-0.8,4.5-2.2c0.5,0.4,1.1,0.6,1.8,0.6c1.7,0,3-1.4,3-3
					c0-0.3-0.1-0.6-0.2-0.9C41.3,35.6,42.3,34.2,42.3,32.6z M28.8,28.4l-2.7-0.6C26,27.6,26,27.3,26,27.1c0-1.2,1-2.2,2.2-2.2
					c0.5,0,0.9,0.1,1.3,0.4L28.8,28.4z M29.5,30.9l-4,3.6c-1.2-0.5-1.9-1.6-1.9-2.9c0-1.3,0.9-2.5,2.1-2.9l3.1,0.7L29.5,30.9z
					 M36.2,35.8l2.7,0.6c0.1,0.2,0.1,0.5,0.1,0.7c0,1.2-1,2.2-2.2,2.2c-0.4,0-0.9-0.1-1.3-0.4L36.2,35.8z M41.3,32.5
					c0,1.3-0.9,2.5-2.1,2.9l-3.1-0.7l-0.8-1.5l4.1-3.6C40.6,30.1,41.3,31.3,41.3,32.5z M26.1,35.3l4.1-3.7l4.2,1.9l0.9,1.7l-0.7,3.6
					c-0.9,1.3-2.3,2-3.9,2c-2.6,0-4.7-2.1-4.7-4.7C26,35.9,26.1,35.6,26.1,35.3z M38.8,28.9l-4.2,3.7l-4.1-1.9L29.7,29l0.7-3.6
					c0.9-1.3,2.3-2,3.8-2c2.6,0,4.7,2.1,4.7,4.7C38.9,28.3,38.9,28.6,38.8,28.9z"/>
			</g>
			<g>
				<circle class="st13" cx="6.8" cy="39.7" r="0.8"/>
			</g>
			<g>
				<circle class="st13" cx="9.6" cy="45.6" r="0.8"/>
			</g>
			<g>
				<circle class="st13" cx="57.3" cy="39.7" r="0.8"/>
			</g>
			<g>
				<circle class="st13" cx="54.5" cy="45.6" r="0.8"/>
			</g>
		</g>
	</g>
	<g>
		<path class="st13" d="M16.9,52.3l-1.4-1.2l-0.4,0.5l1.1,0.9l-0.7,0.8l-1.1-0.9l-0.4,0.5l1.4,1.2l-0.7,0.8l-2.2-1.9l2.8-3.2
			l2.2,1.9L16.9,52.3z"/>
		<path class="st13" d="M19.5,57.7l-0.3-2.9L18,56.9l-1-0.5l2-3.8l1,0.5l0.3,2.9l1.1-2.1l1,0.5l-2,3.8L19.5,57.7z"/>
		<path class="st13" d="M26.6,57.2c0-0.3-0.2-0.6-0.7-0.7c-0.7-0.2-1.2,0.3-1.3,0.9c-0.2,0.6,0.1,1.3,0.7,1.5
			c0.5,0.1,0.8-0.1,0.9-0.3l-0.8-0.2l0.2-0.9l2,0.5l-0.1,0.3c-0.4,1.4-1.4,1.9-2.5,1.6c-1.2-0.3-1.9-1.4-1.5-2.7
			c0.3-1.3,1.5-1.9,2.6-1.6c0.9,0.2,1.5,0.8,1.6,1.7L26.6,57.2z"/>
		<path class="st13" d="M30.7,60.6l-1.1-0.1l0.3-4.2l1.1,0.1L30.7,60.6z"/>
		<path class="st13" d="M36.1,60.4l-1.9-2.2l0.3,2.4l-1.1,0.1l-0.5-4.2l1.1-0.1l1.9,2.2l-0.3-2.4l1.1-0.1l0.5,4.2L36.1,60.4z"/>
		<path class="st13" d="M41.7,55.6L40,56.2l0.2,0.6l1.3-0.5l0.3,0.9l-1.3,0.5l0.2,0.6l1.8-0.6l0.3,0.9l-2.8,1l-1.4-4l2.8-1
			L41.7,55.6z"/>
		<path class="st13" d="M46.1,53.2l-1.6,0.9l0.3,0.5l1.2-0.7l0.5,0.9l-1.2,0.7l0.3,0.6l1.6-0.9l0.5,0.9l-2.6,1.5l-2.2-3.7l2.6-1.5
			L46.1,53.2z"/>
		<path class="st13" d="M49.8,52.3L49.8,52.3l1,1.3L50,54.4l-2.9-3.2l1.2-1.1c0.6-0.5,1.4-0.8,2.1-0.1c0.4,0.4,0.4,0.9,0.2,1.4
			l2,0.6l-1,0.9L49.8,52.3z M48.8,51l-0.3,0.2l0.6,0.6l0.3-0.3c0.3-0.3,0.3-0.5,0.1-0.7C49.4,50.7,49.2,50.7,48.8,51z"/>
	</g>
	<g>
		<path class="st13" d="M26.6,17.8c-0.1,0-0.1,0.1-0.2,0.1c-0.5,0.2-1,0-1.2-0.5c-0.2-0.5,0-1,0.5-1.2c0.5-0.2,1,0,1.2,0.5
			c0.1,0.3,0.1,0.6,0,0.8l0.3,0.2L26.8,18L26.6,17.8z M25.8,16.6c-0.2,0.1-0.3,0.4-0.2,0.6c0.1,0.3,0.4,0.4,0.6,0.3c0,0,0,0,0,0
			L26,17.3l0.4-0.2l0.1,0.1c0-0.1,0-0.2,0-0.3C26.3,16.7,26.1,16.5,25.8,16.6z"/>
		<path class="st13" d="M27.3,16.7l-0.3-1l0.4-0.1l0.3,1c0.1,0.2,0.2,0.3,0.4,0.3c0.2-0.1,0.3-0.2,0.2-0.4l-0.3-1l0.4-0.1l0.3,1
			c0.1,0.5-0.1,0.9-0.5,1C27.8,17.4,27.5,17.2,27.3,16.7z"/>
		<path class="st13" d="M30.5,16.9l-0.1-0.3l-0.6,0.1L29.7,17L29.2,17l0.4-1.8l0.5-0.1l0.9,1.7L30.5,16.9z M29.8,16.2l0.3,0
			l-0.2-0.5l0,0L29.8,16.2z"/>
		<path class="st13" d="M32.5,15.4l-0.8,0l0,0.3l0.6,0l0,0.4l-0.6,0l0,0.3l0.8,0l0,0.4l-1.2,0l0-1.8l1.2,0L32.5,15.4z"/>
		<path class="st13" d="M33.5,16.1L33.5,16.1l-0.1,0.7l-0.5,0l0.2-1.8l0.7,0.1c0.3,0,0.6,0.2,0.6,0.6c0,0.2-0.2,0.4-0.4,0.4l0.4,0.8
			l-0.5,0L33.5,16.1z M33.6,15.5l-0.1,0l0,0.4l0.2,0c0.2,0,0.2-0.1,0.3-0.2C33.9,15.6,33.8,15.5,33.6,15.5z"/>
		<path class="st13" d="M36.1,15.9l-0.8-0.2L35.3,16l0.6,0.1l-0.1,0.4l-0.6-0.1l-0.1,0.3l0.8,0.2l-0.1,0.4L34.7,17l0.4-1.7l1.2,0.2
			L36.1,15.9z"/>
		<path class="st13" d="M37,16.8L37,16.8l-0.3,0.6l-0.4-0.1l0.5-1.7l0.6,0.2c0.3,0.1,0.6,0.3,0.5,0.7c-0.1,0.2-0.2,0.3-0.5,0.3
			l0.2,0.9l-0.5-0.2L37,16.8z M37.3,16.2l-0.1,0L37,16.5l0.1,0c0.2,0.1,0.2,0,0.3-0.1C37.5,16.4,37.5,16.3,37.3,16.2z"/>
		<path class="st13" d="M39.6,17.1l-0.7-0.3l-0.1,0.2l0.5,0.2l-0.2,0.4l-0.5-0.2l-0.1,0.2l0.7,0.3l-0.2,0.4l-1.1-0.5l0.7-1.6
			l1.1,0.5L39.6,17.1z"/>
	</g>
	<g>
		<path class="st13" d="M26.4,46.5L26,46.4l0.7-1.6l0.4,0.2L26.4,46.5z"/>
		<path class="st13" d="M28.1,47.1l-0.4-1.2l-0.3,1L27,46.8l0.5-1.7l0.4,0.1l0.4,1.2l0.3-1l0.4,0.1l-0.5,1.7L28.1,47.1z"/>
		<path class="st13" d="M29.7,47.4l-0.4-1.8l0.5,0.1l0.2,1.2l0,0l0.6-1.1l0.5,0.1l-0.9,1.7L29.7,47.4z"/>
		<path class="st13" d="M32.5,46.3l-0.8,0l0,0.3l0.6,0l0,0.4l-0.6,0l0,0.3l0.8,0l0,0.4l-1.2,0l0-1.8l1.2,0L32.5,46.3z"/>
		<path class="st13" d="M34.3,47.5l-0.8-0.9l0.1,1l-0.5,0.1l-0.2-1.8l0.5-0.1l0.8,0.9l-0.1-1l0.5-0.1l0.2,1.8L34.3,47.5z"/>
		<path class="st13" d="M35.7,47.2l-0.4,0.1l-0.4-1.7l0.4-0.1L35.7,47.2z"/>
		<path class="st13" d="M37.1,45.4l-0.7,0.2l0.1,0.2l0.6-0.2l0.1,0.4l-0.6,0.2l0.1,0.3l0.7-0.2l0.1,0.4l-1.2,0.4l-0.5-1.7L37,45
			L37.1,45.4z"/>
		<path class="st13" d="M38.7,44.7l-0.4,0.2l0.6,1.2l-0.4,0.2l-0.6-1.2l-0.4,0.2l-0.2-0.4l1.3-0.6L38.7,44.7z"/>
	</g>
	<g>
		<path class="st13" d="M5.4,29l-0.1,1.9l0.6,0L6,29.5l1,0.1L6.9,31l0.6,0l0.1-1.9l1,0.1l-0.2,3l-4.2-0.3l0.2-3L5.4,29z"/>
		<path class="st13" d="M5.1,25.2l3.2,0.8l0.4-1.6l1,0.3L9,27.4l-4.1-1.1L5.1,25.2z"/>
		<path class="st13" d="M11.5,20.7l-0.8-0.1l-0.6,1.3l0.6,0.6l-0.5,1L7,20.1l0.5-1.1l4.5,0.6L11.5,20.7z M9.4,21.1l0.4-0.7l-1.3-0.2
			l0,0L9.4,21.1z"/>
		<path class="st13" d="M11.9,17.9l0.5-0.9c0.3,0.1,0.6,0.1,0.8-0.2c0.2-0.2,0.2-0.5,0-0.6c-0.5-0.4-1.4,1.5-2.6,0.4
			c-0.6-0.5-0.7-1.4-0.1-2.1c0.5-0.6,1.2-0.8,1.9-0.5L11.8,15c-0.3-0.1-0.5-0.1-0.7,0.1c-0.2,0.2-0.2,0.4,0,0.5
			c0.5,0.4,1.4-1.5,2.6-0.4c0.7,0.5,0.7,1.4,0.1,2.2C13.3,18.1,12.5,18.3,11.9,17.9z"/>
		<path class="st13" d="M16.3,10.4l-0.9,0.7l2.1,2.5l-0.8,0.7l-2.1-2.5l-0.9,0.7l-0.6-0.8l2.6-2.2L16.3,10.4z"/>
		<path class="st13" d="M20.8,11.5L19.9,12l-2.1-3.7l0.9-0.5L20.8,11.5z"/>
		<path class="st13" d="M22.9,5.8c0.9-0.3,1.8-0.1,2.3,0.6l-1,0.5c-0.1-0.2-0.5-0.4-0.9-0.2c-0.6,0.2-0.8,0.8-0.6,1.5
			c0.2,0.6,0.8,1,1.4,0.8c0.4-0.1,0.6-0.4,0.6-0.8l1.1-0.2c0.1,0.9-0.4,1.6-1.3,1.9c-1.2,0.4-2.3-0.1-2.8-1.4
			C21.2,7.3,21.7,6.2,22.9,5.8z"/>
		<path class="st13" d="M32.1,4.2c1,0,1.7,0.5,2,1.3l-1.1,0.2c-0.1-0.2-0.4-0.5-0.8-0.5c-0.6,0-1,0.5-1,1.2c0,0.7,0.4,1.2,1.1,1.2
			c0.4,0,0.7-0.2,0.8-0.5l1.1,0.2c-0.2,0.8-0.9,1.3-1.9,1.4c-1.3,0-2.2-0.8-2.2-2.2C30,5.1,30.9,4.2,32.1,4.2z"/>
		<path class="st13" d="M39.2,6.2l-1.8-0.4l-0.1,0.6l1.4,0.3l-0.2,1l-1.4-0.3L36.9,8l1.8,0.4l-0.2,1l-2.9-0.6l0.9-4.2l2.9,0.6
			L39.2,6.2z"/>
		<path class="st13" d="M42.1,8.9l-0.1,0l-0.7,1.5l-1-0.4L42,6.1l1.5,0.6c0.7,0.3,1.3,0.9,0.9,1.8c-0.2,0.5-0.7,0.7-1.2,0.7l0.2,2.1
			l-1.2-0.5L42.1,8.9z M42.9,7.5l-0.3-0.1l-0.3,0.8l0.3,0.2c0.4,0.2,0.6,0.1,0.7-0.2C43.4,8,43.4,7.7,42.9,7.5z"/>
		<path class="st13" d="M49.2,11.3l-0.9-0.7l-1.9,2.6l-0.9-0.6l1.9-2.6l-0.9-0.7L47,8.5l2.8,2L49.2,11.3z"/>
		<path class="st13" d="M49.3,15.9l-0.8-0.8l3-3l0.8,0.8L49.3,15.9z"/>
		<path class="st13" d="M54.9,17.8l-1-1.5l-0.6,0.4l0.8,1.1l-0.8,0.6l-0.8-1.1l-1.3,0.9l-0.6-0.9l3.5-2.5l1.7,2.4L54.9,17.8z"/>
		<path class="st13" d="M53.6,22.3l-0.5-1l3.8-1.9l0.5,1L53.6,22.3z"/>
		<path class="st13" d="M58.4,26l-0.5-1.8l-0.6,0.2l0.4,1.4l-1,0.3l-0.4-1.4l-0.6,0.2l0.5,1.8l-1,0.3l-0.8-2.8l4.1-1.2l0.8,2.8
			L58.4,26z"/>
		<path class="st13" d="M55.7,29.9l-0.1-1.2l4.2-0.3l0.1,1.3c0.1,1.5-0.7,2.5-2,2.6C56.5,32.4,55.8,31.5,55.7,29.9z M58.9,29.9
			l0-0.3l-2.2,0.2l0,0.3c0.1,0.8,0.5,1.2,1.2,1.2C58.6,31.1,59,30.7,58.9,29.9z"/>
	</g>
</g>
<rect x="0" y="0" class="st5" width="64" height="64"/>
</svg>
