<svg width="200" height="200" xmlns="http://www.w3.org/2000/svg" fill="none">
 <defs>
  <clipPath id="clip0">
   <rect id="svg_1" fill="white" height="200" width="200"/>
  </clipPath>
 </defs>
 <g>
  <title>background</title>
  <rect fill="none" id="canvas_background" height="811" width="1662" y="-1" x="-1"/>
 </g>
 <g>
  <title>Layer 1</title>
  <g id="svg_2" clip-path="url(#clip0)">
   <path id="svg_3" fill="#4284f4" d="m65.3399,78.69c-2.9205,-6.068 -4.2225,-12.7879 -3.7797,-19.5076c0.4428,-6.7196 2.6153,-13.2106 6.3067,-18.8429c3.6915,-5.6323 8.7764,-10.2145 14.7611,-13.3019c5.9848,-3.0874 12.6661,-4.5751 19.395,-4.3186c6.73,0.2565 13.278,2.2484 19.011,5.7824c5.732,3.534 10.453,8.4901 13.705,14.387c3.252,5.897 4.925,12.5345 4.855,19.2684c-0.07,6.7338 -1.88,13.3351 -5.254,19.1632l-31.52,54.68l9.45,16.37l36.28,-62.84c7.161,-12.7193 9.015,-27.7498 5.161,-41.8283c-3.854,-14.0785 -13.105,-26.0686 -25.746,-33.3673c-12.641,-7.29867 -27.65,-9.31677 -41.7697,-5.61615c-14.1196,3.70065 -26.2096,12.82125 -33.6454,25.38175c-3.949,6.7481 -6.408,14.2632 -7.2118,22.0405c-0.8037,7.7772 0.0663,15.6364 2.5518,23.0495c2.5277,-0.3164 5.0725,-0.4767 7.62,-0.48l9.83,-0.02z"/>
   <path id="svg_4" fill="#ea4335" d="m192.49,110.49c-3.917,-6.878 -9.278,-12.8246 -15.714,-17.4321c-6.436,-4.6074 -13.793,-7.7659 -21.566,-9.2579c-0.986,2.3581 -2.119,4.6525 -3.39,6.87l-4.94,8.55c6.742,0.4142 13.261,2.57 18.922,6.256c5.66,3.686 10.267,8.777 13.372,14.776c3.105,5.999 4.601,12.701 4.342,19.45c-0.258,6.75 -2.263,13.318 -5.818,19.061c-3.555,5.744 -8.539,10.467 -14.464,13.71c-5.926,3.242 -12.591,4.892 -19.345,4.789c-6.754,-0.103 -13.366,-1.956 -19.19,-5.378c-5.824,-3.421 -10.661,-8.295 -14.039,-14.144l-31.4699,-54.5l-18.8901,0l36.1801,62.68c1.244,2.139 2.6235,4.197 4.1299,6.16l0.3,0.39c5.153,6.633 11.763,11.991 19.318,15.66c7.555,3.669 15.853,5.551 24.252,5.5l0,0c9.729,-0.001 19.286,-2.563 27.711,-7.428c8.426,-4.865 15.422,-11.862 20.286,-20.287c4.865,-8.426 7.426,-17.983 7.426,-27.712c0.001,-9.729 -2.559,-19.287 -7.423,-27.713l0.01,0z"/>
   <path id="svg_5" fill="#34a853" d="m88.1499,159.66c-3.659,5.57 -8.6829,10.112 -14.5933,13.191c-5.9104,3.08 -12.5108,4.596 -19.1727,4.404c-6.6619,-0.193 -13.1637,-2.087 -18.8865,-5.503c-5.7228,-3.416 -10.4761,-8.24 -13.8075,-14.012c-3.4272,-5.938 -5.2314,-12.674 -5.2315,-19.53c0,-6.856 1.8041,-13.591 5.2312,-19.529c3.4272,-5.939 8.3566,-10.87 14.2931,-14.3c5.9365,-3.43 12.6711,-5.2377 19.5272,-5.241l63.0701,0l9.42,-16.36l-72.4901,0c-7.3411,-0.0986 -14.6287,1.2622 -21.4396,4.0033c-6.811,2.7411 -13.0095,6.808 -18.2357,11.9645c-5.2262,5.1562 -9.37592,11.3002 -12.20828,18.0732c-2.83235,6.774 -4.29087,14.042 -4.29087,21.384c0,7.342 1.45852,14.611 4.29087,21.384c2.83236,6.773 6.98208,12.917 12.20828,18.073c5.2262,5.157 11.4247,9.224 18.2357,11.965c6.8109,2.741 14.0985,4.102 21.4396,4.003c7.9404,0.047 15.796,-1.634 23.0223,-4.925c7.2264,-3.291 13.6507,-8.114 18.8277,-14.135c-1.6176,-2.089 -3.0942,-4.284 -4.42,-6.57l-4.79,-8.34z"/>
  </g>
 </g>
</svg>