<svg id="Layer_1" data-name="Layer 1" xmlns="http://www.w3.org/2000/svg" viewBox="0 0 34.44 34.44"><defs><style>.cls-1{fill:#eee;}.cls-2{fill:#9f9f9f;}</style></defs><title>icon-twitter-inactive</title><g id="Twitter"><circle id="back" class="cls-1" cx="17.22" cy="17.22" r="17.22"/><path id="Twitter-2" data-name="Twitter" class="cls-2" d="M26.92,12.54a7.18,7.18,0,0,1-2,.56,3.54,3.54,0,0,0,1.55-1.95A7.12,7.12,0,0,1,24.2,12a3.52,3.52,0,0,0-6.09,2.41,3.59,3.59,0,0,0,.09.81,10,10,0,0,1-7.27-3.69A3.56,3.56,0,0,0,12,16.24a3.56,3.56,0,0,1-1.59-.44v0a3.53,3.53,0,0,0,2.83,3.46,3.59,3.59,0,0,1-.93.12,3.71,3.71,0,0,1-.67-.06A3.54,3.54,0,0,0,15,21.81a7.12,7.12,0,0,1-4.38,1.51,7.58,7.58,0,0,1-.84-.05,10,10,0,0,0,15.43-8.45c0-.15,0-.3,0-.45A7.29,7.29,0,0,0,26.92,12.54Z"/></g></svg>