<?xml version="1.0" encoding="utf-8"?>
<!-- Generator: Adobe Illustrator 24.0.3, SVG Export Plug-In . SVG Version: 6.00 Build 0)  -->
<svg version="1.1" id="Layer_1" xmlns="http://www.w3.org/2000/svg" xmlns:xlink="http://www.w3.org/1999/xlink" x="0px" y="0px"
	 viewBox="0 0 64 64" style="enable-background:new 0 0 64 64;" xml:space="preserve">
<style type="text/css">
	.st0{fill:#EF4E97;}
	.st1{fill:#333843;}
	.st2{fill:#00BFAC;}
	.st3{opacity:0.6;fill:none;stroke:#FFFFFF;stroke-width:5;stroke-miterlimit:10;}
	.st4{opacity:0.6;}
	.st5{fill:none;}
	.st6{fill:#FFFFFF;}
	.st7{fill:#00C2B5;}
	.st8{fill:#15CCBA;}
	.st9{fill:#F3BE45;}
	.st10{fill:#0077CC;}
	.st11{fill:#0077CB;}
	.st12{fill:#FDC414;}
	.st13{fill:#00BEB2;}
	.st14{fill:#343741;}
	.st15{fill:#F9734F;}
	.st16{fill:#1BA8F4;}
	.st17{fill:#005A9D;}
	.st18{fill:#7DE1D0;}
	.st19{fill:#019A8E;}
	.st20{fill:#535766;}
	.st21{fill:#1C1E23;}
	.st22{fill:#FFD836;}
	.st23{fill:#F5A700;}
	.st24{fill:#231F20;}
	.st25{fill:#F88FBF;}
	.st26{fill:#DC0A73;}
	.st27{fill:#FF967A;}
	.st28{fill:#E1543D;}
	.st29{fill:#0D8DDF;}
	.st30{fill:#3ECFC1;}
	.st31{fill:#0068B3;}
	.st32{fill:#01ACA0;}
	.st33{fill:none;stroke:#E5EAF1;stroke-width:1.5451;stroke-miterlimit:10;}
	.st34{fill:none;stroke:#E5EAF1;stroke-width:1.5142;}
	.st35{fill:#434753;}
	.st36{fill:#272A32;}
	.st37{fill:#8FD0FB;}
	.st38{fill:#DEE0E4;}
	.st39{fill:#F4C447;}
	.st40{fill:#171A1E;}
	.st41{fill:#343842;}
	.st42{fill:none;stroke:#FFFFFF;stroke-width:0.6726;stroke-miterlimit:10;}
	.st43{fill:none;stroke:#272A32;stroke-width:0.6726;stroke-miterlimit:10;}
</style>
<g>
	<g>
		<g>
			<g>
				<g>
					<path class="st10" d="M31.9,54.2c-12,0-21.8-9.8-21.8-21.8s9.8-21.8,21.8-21.8c12,0,21.8,9.8,21.8,21.8S43.9,54.2,31.9,54.2z
						 M31.9,11.8c-11.4,0-20.6,9.3-20.6,20.6S20.5,53,31.9,53s20.6-9.3,20.6-20.6S43.2,11.8,31.9,11.8z"/>
				</g>
			</g>
			<g>
				<g>
					<path class="st10" d="M31.9,63.8c-17.4,0-31.6-14.2-31.6-31.6c0-17.4,14.2-31.6,31.6-31.6c17.4,0,31.6,14.2,31.6,31.6
						C63.5,49.6,49.3,63.8,31.9,63.8z M31.9,1.7C15.1,1.7,1.4,15.4,1.4,32.2s13.7,30.5,30.5,30.5c16.8,0,30.5-13.7,30.5-30.5
						S48.7,1.7,31.9,1.7z"/>
				</g>
			</g>
			<g>
				<g>
					<g>
						<path class="st10" d="M17,34.9L16.4,35l0-0.1c-0.1-0.4-0.2-0.6-0.7-0.5c-0.1,0-0.3,0.1-0.4,0.1c-0.5,0.1-0.9-0.1-1.3-1
							l0.5-0.3c0.3,0.5,0.4,0.6,0.8,0.5c0.1,0,0.3-0.1,0.4-0.1c0.4-0.1,0.6,0.1,0.8,0.4c0-0.4,0.2-0.6,0.6-0.7c0.1,0,0.3,0,0.4-0.1
							c0.3-0.1,0.5-0.2,0.5-0.8l0.6,0c0,1-0.3,1.3-0.8,1.4c-0.1,0-0.3,0-0.4,0.1c-0.4,0.1-0.5,0.3-0.4,0.7L17,34.9z"/>
						<path class="st10" d="M16.4,35.1l0-0.2c-0.1-0.4-0.2-0.5-0.6-0.4c0,0-0.1,0-0.2,0c-0.1,0-0.1,0-0.2,0c-0.6,0.1-1-0.2-1.3-1.1
							l0,0l0.6-0.3l0,0c0.3,0.5,0.4,0.6,0.7,0.5c0.1,0,0.1,0,0.2,0c0.1,0,0.1,0,0.2,0c0.3-0.1,0.6,0,0.8,0.3
							c0.1-0.3,0.3-0.5,0.6-0.6c0.1,0,0.1,0,0.2,0c0.1,0,0.1,0,0.2,0c0.3-0.1,0.4-0.1,0.5-0.7l0,0l0.7,0l0,0c0,0.9-0.2,1.4-0.8,1.5
							c0,0-0.1,0-0.2,0c-0.1,0-0.1,0-0.2,0c-0.2,0-0.3,0.1-0.4,0.2c-0.1,0.1-0.1,0.2,0,0.4l0,0.2L16.4,35.1z M15.9,34.4
							c0.3,0,0.4,0.2,0.5,0.5l0,0.1l0.5-0.1l0-0.1c0-0.2,0-0.4,0-0.5c0.1-0.1,0.2-0.2,0.4-0.2c0,0,0.1,0,0.2,0c0.1,0,0.1,0,0.2,0
							c0.5-0.1,0.8-0.4,0.8-1.4l-0.5,0c-0.1,0.6-0.2,0.7-0.5,0.8c-0.1,0-0.1,0-0.2,0c-0.1,0-0.1,0-0.2,0c-0.3,0.1-0.5,0.3-0.6,0.7
							l0,0.1l-0.1-0.1c-0.2-0.3-0.4-0.5-0.8-0.4c-0.1,0-0.1,0-0.2,0c-0.1,0-0.1,0-0.2,0c-0.3,0.1-0.5,0-0.8-0.5l-0.4,0.2
							c0.4,0.9,0.8,1.1,1.2,1c0,0,0.1,0,0.2,0c0.1,0,0.1,0,0.2,0C15.8,34.4,15.8,34.4,15.9,34.4z"/>
					</g>
				</g>
				<g>
					<g>
						<path class="st10" d="M17.8,38.2l-0.7,0.2l0-0.2c-0.1-0.5-0.3-0.6-0.8-0.5c-0.1,0-0.3,0.1-0.4,0.1c-0.6,0.2-1.1,0-1.5-1
							l0.5-0.3c0.3,0.6,0.5,0.6,0.9,0.5c0.1,0,0.3-0.1,0.4-0.1c0.4-0.1,0.7,0,0.9,0.4c0-0.4,0.2-0.7,0.6-0.8c0.1,0,0.3-0.1,0.4-0.1
							c0.4-0.1,0.5-0.2,0.5-0.9l0.6,0c0.1,1.1-0.2,1.5-0.8,1.7c-0.1,0-0.3,0.1-0.4,0.1c-0.5,0.1-0.5,0.4-0.4,0.8L17.8,38.2z"/>
						<path class="st10" d="M17.1,38.4L17,38.2c-0.1-0.2-0.1-0.4-0.2-0.4c-0.1-0.1-0.3-0.1-0.5,0c-0.1,0-0.1,0-0.2,0.1
							c-0.1,0-0.1,0-0.2,0.1c-0.7,0.2-1.1-0.1-1.6-1.1l0,0l0.6-0.4l0,0c0.3,0.6,0.5,0.6,0.8,0.5c0.1,0,0.1,0,0.2-0.1
							c0.1,0,0.2-0.1,0.2-0.1c0.4-0.1,0.7,0,0.9,0.3c0.1-0.4,0.3-0.6,0.6-0.7c0.1,0,0.1,0,0.2-0.1c0.1,0,0.2,0,0.2,0
							c0.3-0.1,0.5-0.2,0.5-0.9l0,0l0.7,0l0,0c0.1,1-0.1,1.5-0.8,1.7c0,0-0.1,0-0.2,0c-0.1,0-0.2,0-0.2,0c-0.4,0.1-0.5,0.3-0.4,0.8
							l0.1,0.2L17.1,38.4z M16.6,37.6c0.1,0,0.2,0,0.3,0.1c0.1,0.1,0.2,0.2,0.3,0.5l0,0.1l0.6-0.2l0-0.1c-0.1-0.5,0-0.7,0.5-0.9
							c0.1,0,0.1,0,0.2,0c0.1,0,0.2,0,0.2,0c0.5-0.1,0.8-0.5,0.7-1.6l-0.5,0c0,0.7-0.2,0.8-0.5,0.9c-0.1,0-0.1,0-0.2,0.1
							c-0.1,0-0.2,0-0.2,0.1c-0.4,0.1-0.6,0.3-0.6,0.8l0,0.1l-0.1-0.1c-0.2-0.4-0.5-0.5-0.9-0.4c-0.1,0-0.1,0-0.2,0.1
							c-0.1,0-0.2,0.1-0.2,0.1c-0.4,0.1-0.6,0.1-0.9-0.5l-0.5,0.3c0.5,1,0.9,1.1,1.5,1c0,0,0.1,0,0.2-0.1c0.1,0,0.2-0.1,0.2-0.1
							C16.4,37.7,16.5,37.6,16.6,37.6z"/>
					</g>
				</g>
				<g>
					<g>
						<path class="st10" d="M16.6,32.1l-0.6,0l0-0.1c0-0.4-0.2-0.6-0.6-0.6c-0.1,0-0.3,0-0.4,0c-0.5,0-0.9-0.2-1.1-1.2l0.5-0.2
							c0.2,0.6,0.3,0.6,0.7,0.6c0.1,0,0.3,0,0.4,0c0.4,0,0.6,0.2,0.8,0.5c0.1-0.4,0.3-0.6,0.7-0.6c0.1,0,0.3,0,0.4,0
							c0.3,0,0.5-0.1,0.6-0.7l0.6,0.1c-0.1,1-0.4,1.3-1,1.3c-0.1,0-0.3,0-0.4,0c-0.4,0-0.5,0.2-0.5,0.6L16.6,32.1z"/>
						<path class="st10" d="M15.9,32.2l0-0.2c0-0.4-0.2-0.5-0.5-0.5c0,0-0.1,0-0.2,0c-0.1,0-0.1,0-0.2,0c-0.6,0-1-0.3-1.2-1.2l0,0
							l0.6-0.2l0,0c0.2,0.6,0.3,0.6,0.6,0.6c0.1,0,0.1,0,0.2,0c0.1,0,0.1,0,0.2,0c0.3,0,0.6,0.1,0.7,0.4c0.1-0.3,0.3-0.5,0.7-0.5
							c0.1,0,0.3,0,0.4,0c0.3,0,0.4-0.1,0.6-0.7l0,0l0.6,0.1l0,0c-0.1,0.9-0.4,1.3-1,1.4c0,0-0.1,0-0.2,0c-0.1,0-0.1,0-0.2,0
							c-0.2,0-0.3,0.1-0.4,0.1c-0.1,0.1-0.1,0.2-0.1,0.4l0,0.2L15.9,32.2z M15.4,31.4c0.4,0,0.5,0.2,0.6,0.6l0,0.1l0.5,0l0-0.1
							c0-0.2,0-0.4,0.1-0.5c0.1-0.1,0.2-0.2,0.5-0.2c0.1,0,0.1,0,0.2,0c0.1,0,0.1,0,0.2,0c0.5,0,0.8-0.2,0.9-1.2L18,29.9
							c-0.1,0.6-0.3,0.7-0.6,0.7c-0.1,0-0.3,0-0.4,0c-0.3,0-0.5,0.2-0.6,0.6l0,0.1l-0.1-0.1c-0.1-0.4-0.4-0.5-0.7-0.5
							c-0.1,0-0.1,0-0.2,0c-0.1,0-0.1,0-0.2,0c-0.3,0-0.5-0.1-0.7-0.6l-0.5,0.1c0.2,1,0.6,1.2,1.1,1.1c0,0,0.1,0,0.2,0
							C15.2,31.4,15.3,31.4,15.4,31.4C15.4,31.4,15.4,31.4,15.4,31.4z"/>
					</g>
				</g>
				<g>
					<g>
						<path class="st10" d="M16.5,29.2L16,29.1l0-0.1c0.1-0.4,0-0.6-0.4-0.6c-0.1,0-0.3,0-0.3,0c-0.5-0.1-0.8-0.4-0.8-1.3l0.5,0
							c0.1,0.5,0.2,0.6,0.5,0.7c0.1,0,0.3,0,0.4,0.1c0.4,0.1,0.5,0.3,0.6,0.6c0.2-0.3,0.4-0.5,0.7-0.4c0.1,0,0.3,0.1,0.4,0.1
							c0.3,0.1,0.4,0,0.7-0.5l0.5,0.2c-0.3,0.9-0.7,1.1-1.2,1c-0.1,0-0.3-0.1-0.3-0.1c-0.4-0.1-0.5,0.1-0.6,0.4L16.5,29.2z"/>
						<path class="st10" d="M16.6,29.3l-0.7-0.1l0-0.2c0.1-0.4,0-0.5-0.4-0.6c0,0-0.1,0-0.2,0c-0.1,0-0.1,0-0.2,0
							c-0.6-0.1-0.8-0.5-0.8-1.4l0,0l0.6,0l0,0c0.1,0.5,0.2,0.6,0.4,0.7c0,0,0.1,0,0.2,0c0.1,0,0.1,0,0.2,0c0.3,0.1,0.5,0.2,0.6,0.5
							c0.2-0.3,0.4-0.4,0.7-0.3c0.1,0,0.1,0,0.2,0c0.1,0,0.1,0,0.2,0c0.3,0,0.4,0,0.6-0.5l0,0l0.5,0.3l0,0c-0.3,0.8-0.7,1.1-1.2,1
							c0,0-0.1,0-0.2,0c-0.1,0-0.1,0-0.2,0c-0.2,0-0.3,0-0.4,0c-0.1,0.1-0.1,0.2-0.2,0.4L16.6,29.3z M16,29.1l0.5,0.1l0-0.1
							c0-0.2,0.1-0.3,0.2-0.4c0.1-0.1,0.2-0.1,0.5-0.1c0,0,0.1,0,0.2,0c0.1,0,0.1,0,0.2,0c0.4,0.1,0.8,0,1.1-0.9l-0.4-0.2
							c-0.2,0.5-0.4,0.5-0.7,0.5c0,0-0.1,0-0.2,0c-0.1,0-0.1,0-0.2,0c-0.3-0.1-0.5,0.1-0.7,0.4l-0.1,0.1l0-0.1
							c0-0.3-0.2-0.5-0.5-0.6c-0.1,0-0.1,0-0.2,0c-0.1,0-0.1,0-0.2,0C15.1,27.6,15,27.5,15,27l-0.4,0c0,0.9,0.3,1.2,0.7,1.2
							c0,0,0.1,0,0.2,0c0.1,0,0.1,0,0.2,0C16,28.4,16.1,28.6,16,29.1L16,29.1z"/>
					</g>
				</g>
				<g>
					<g>
						<path class="st10" d="M17,26.5l-0.4-0.2l0-0.1c0.1-0.3,0.1-0.4-0.2-0.5c-0.1,0-0.2-0.1-0.2-0.1c-0.4-0.1-0.5-0.4-0.4-1.1
							l0.4,0c0,0.4,0,0.5,0.3,0.6c0.1,0,0.2,0.1,0.3,0.1c0.3,0.1,0.3,0.3,0.3,0.5c0.2-0.2,0.4-0.3,0.6-0.2c0.1,0,0.2,0.1,0.3,0.1
							c0.2,0.1,0.3,0.1,0.6-0.3l0.3,0.2c-0.4,0.6-0.6,0.7-1,0.6c-0.1,0-0.2-0.1-0.2-0.1C17.3,26.1,17.2,26.2,17,26.5L17,26.5z"/>
						<path class="st10" d="M17.1,26.6l-0.5-0.2l0.1-0.1c0-0.1,0.1-0.2,0-0.3c0-0.1-0.1-0.1-0.2-0.2c0,0-0.1,0-0.1,0
							c0,0-0.1,0-0.1,0c-0.4-0.2-0.5-0.5-0.4-1.1l0,0l0.5,0l0,0c0,0.4,0,0.5,0.2,0.5c0,0,0.1,0,0.1,0c0,0,0.1,0,0.1,0
							c0.2,0.1,0.3,0.2,0.4,0.5c0.2-0.2,0.4-0.2,0.6-0.1c0,0,0.1,0,0.1,0.1c0,0,0.1,0,0.1,0.1c0.2,0.1,0.3,0.1,0.5-0.3l0,0l0.4,0.3
							l0,0c-0.3,0.6-0.6,0.7-1.1,0.6c0,0-0.1,0-0.1,0c0,0-0.1,0-0.1-0.1c-0.2-0.1-0.4,0-0.5,0.2L17.1,26.6z M16.7,26.4l0.3,0.1l0,0
							c0.1-0.3,0.3-0.4,0.6-0.3c0,0,0.1,0,0.1,0.1c0,0,0.1,0,0.1,0c0.3,0.1,0.6,0.1,0.9-0.5l-0.3-0.2c-0.2,0.3-0.4,0.3-0.6,0.3
							c0,0-0.1,0-0.1-0.1c0,0-0.1,0-0.1-0.1c-0.2-0.1-0.4,0-0.6,0.2L17,26l0-0.1c0-0.3-0.1-0.4-0.3-0.5c0,0-0.1,0-0.1,0
							c0,0-0.1,0-0.1,0c-0.2-0.1-0.3-0.2-0.3-0.6l-0.3,0c-0.1,0.7,0.1,0.9,0.4,1c0,0,0.1,0,0.1,0c0.1,0,0.1,0,0.1,0
							c0.2,0.1,0.2,0.1,0.3,0.2C16.8,26.1,16.8,26.2,16.7,26.4L16.7,26.4z"/>
					</g>
				</g>
				<g>
					<g>
						<path class="st10" d="M17.8,24.5l-0.4-0.2l0-0.1c0.1-0.3,0.1-0.4-0.2-0.5c-0.1,0-0.2-0.1-0.2-0.1c-0.3-0.2-0.5-0.4-0.3-1.1
							l0.4,0.1c-0.1,0.4,0,0.5,0.2,0.6c0.1,0,0.2,0.1,0.2,0.1c0.2,0.1,0.3,0.3,0.3,0.6c0.2-0.2,0.4-0.2,0.6-0.1
							c0.1,0,0.2,0.1,0.2,0.1c0.2,0.1,0.3,0.1,0.6-0.2l0.3,0.3c-0.4,0.5-0.7,0.6-1,0.4c0,0-0.2-0.1-0.2-0.1
							C18.1,24.1,18,24.2,17.8,24.5L17.8,24.5z"/>
						<path class="st10" d="M17.9,24.6l-0.5-0.2l0.1-0.1c0.1-0.1,0.1-0.2,0.1-0.3c0-0.1-0.1-0.1-0.2-0.2c0,0-0.1,0-0.1-0.1
							c0,0-0.1,0-0.1,0c-0.4-0.2-0.5-0.5-0.3-1.1l0,0l0.5,0.1l0,0c-0.1,0.4,0,0.5,0.2,0.5c0,0,0.1,0,0.1,0.1c0,0,0.1,0,0.1,0.1
							c0.2,0.1,0.3,0.3,0.3,0.5c0.2-0.1,0.4-0.2,0.6-0.1c0,0,0.1,0,0.1,0.1c0,0,0.1,0,0.1,0.1c0.2,0.1,0.3,0.1,0.5-0.2l0,0l0.4,0.3
							l0,0c-0.4,0.5-0.7,0.6-1.1,0.5c0,0-0.1,0-0.1-0.1c0,0-0.1,0-0.1-0.1c-0.2-0.1-0.3-0.1-0.5,0.2L17.9,24.6z M17.5,24.3l0.3,0.1
							l0,0c0.1-0.3,0.3-0.3,0.6-0.2c0,0,0.1,0,0.1,0.1c0,0,0.1,0,0.1,0.1c0.3,0.1,0.5,0.1,0.9-0.4l-0.2-0.2
							c-0.3,0.3-0.4,0.3-0.6,0.2c0,0-0.1,0-0.1-0.1c0,0-0.1,0-0.1-0.1c-0.2-0.1-0.4-0.1-0.5,0.1L17.9,24l0-0.1c0-0.3,0-0.4-0.2-0.5
							c0,0-0.1,0-0.1-0.1c0,0-0.1,0-0.1-0.1c-0.2-0.1-0.3-0.2-0.2-0.6l-0.3-0.1c-0.2,0.6,0,0.8,0.3,1c0,0,0.1,0,0.1,0
							c0,0,0.1,0,0.1,0.1c0.1,0.1,0.2,0.1,0.2,0.2C17.6,24,17.6,24.1,17.5,24.3L17.5,24.3z"/>
					</g>
				</g>
				<g>
					<g>
						<path class="st10" d="M18.8,22.6l-0.3-0.2l0-0.1c0.1-0.2,0.1-0.3-0.1-0.5c0,0-0.1-0.1-0.2-0.1c-0.3-0.2-0.3-0.4-0.1-0.9
							l0.3,0.1c-0.1,0.3-0.1,0.4,0.1,0.5c0,0,0.1,0.1,0.2,0.1c0.2,0.1,0.2,0.3,0.2,0.5c0.2-0.1,0.3-0.2,0.5,0c0.1,0,0.1,0.1,0.2,0.1
							c0.2,0.1,0.2,0.1,0.5-0.1l0.2,0.2c-0.4,0.4-0.6,0.4-0.9,0.2c0,0-0.1-0.1-0.2-0.1C19.1,22.3,19,22.3,18.8,22.6L18.8,22.6z"/>
						<path class="st10" d="M19.7,22.7c-0.1,0-0.2,0-0.3-0.1c0,0,0,0-0.1-0.1c0,0-0.1-0.1-0.1-0.1c-0.2-0.1-0.3-0.1-0.4,0.1
							l-0.1,0.1l-0.4-0.3l0.1-0.1c0.1-0.1,0.1-0.2,0.1-0.2c0-0.1-0.1-0.1-0.1-0.2c0,0-0.1,0-0.1-0.1c0,0-0.1,0-0.1-0.1
							c-0.3-0.2-0.3-0.5-0.1-1l0,0l0.4,0.1l0,0c-0.1,0.3-0.1,0.4,0.1,0.5c0,0,0.1,0,0.1,0.1c0,0,0.1,0,0.1,0.1
							C19,21.7,19,21.8,19,22c0.2-0.1,0.3-0.1,0.5,0c0,0,0.1,0,0.1,0.1c0,0,0.1,0,0.1,0.1c0.1,0.1,0.2,0.1,0.5-0.1l0,0l0.3,0.3l0,0
							C20.1,22.6,19.9,22.7,19.7,22.7z M19.1,22.3c0.1,0,0.1,0,0.2,0.1c0,0,0.1,0,0.1,0.1c0,0,0.1,0,0.1,0.1
							c0.2,0.2,0.4,0.2,0.8-0.2l-0.1-0.2c-0.2,0.2-0.4,0.2-0.5,0.1c0,0-0.1,0-0.1-0.1c0,0-0.1-0.1-0.1-0.1c-0.2-0.1-0.3-0.1-0.5,0
							l-0.1,0.1l0-0.1c0.1-0.2,0-0.3-0.1-0.4c0,0-0.1,0-0.1-0.1c0,0-0.1,0-0.1-0.1c-0.2-0.1-0.2-0.2-0.1-0.5l-0.2-0.1
							c-0.2,0.5-0.1,0.7,0.1,0.8c0,0,0,0,0.1,0.1c0,0,0.1,0,0.1,0.1c0.1,0.1,0.2,0.2,0.2,0.2c0,0.1,0,0.2-0.1,0.3l0,0l0.2,0.1l0,0
							C18.9,22.4,19,22.3,19.1,22.3z"/>
					</g>
				</g>
				<g>
					<g>
						<path class="st10" d="M19.9,20.9l-0.2-0.2l0-0.1c0.1-0.2,0.1-0.3-0.1-0.4c0,0-0.1-0.1-0.1-0.1c-0.2-0.1-0.3-0.3-0.1-0.8
							l0.2,0.1c-0.1,0.3-0.1,0.3,0.1,0.4c0,0,0.1,0.1,0.2,0.1c0.2,0.1,0.2,0.2,0.1,0.4c0.1-0.1,0.3-0.1,0.4,0c0,0,0.1,0.1,0.1,0.1
							c0.1,0.1,0.2,0.1,0.4-0.1l0.2,0.2c-0.3,0.3-0.5,0.3-0.8,0.2c0,0-0.1-0.1-0.1-0.1C20.1,20.7,20,20.7,19.9,20.9L19.9,20.9z"/>
						<path class="st10" d="M20.7,21.1c-0.1,0-0.2,0-0.3-0.1c0,0,0,0-0.1-0.1c0,0-0.1,0-0.1-0.1c-0.1-0.1-0.2-0.1-0.3,0.1L19.9,21
							l-0.3-0.2l0.1-0.1c0.1-0.1,0.1-0.2,0-0.3c0,0,0,0-0.1,0c0,0-0.1,0-0.1,0c-0.3-0.2-0.3-0.4-0.1-0.8l0,0l0.3,0.1l0,0
							c-0.1,0.3,0,0.3,0.1,0.4c0,0,0,0,0.1,0c0,0,0.1,0,0.1,0.1c0.1,0.1,0.2,0.2,0.2,0.4c0.1-0.1,0.3-0.1,0.4,0c0,0,0.1,0,0.1,0.1
							c0,0,0.1,0,0.1,0.1c0.1,0.1,0.2,0.1,0.4-0.1l0,0l0.2,0.3l0,0C21,21,20.8,21.1,20.7,21.1z M20.1,20.7c0.1,0,0.1,0,0.2,0.1
							c0,0,0,0,0.1,0.1c0,0,0,0,0.1,0.1c0.2,0.1,0.3,0.1,0.7-0.2L21,20.6c-0.2,0.1-0.3,0.2-0.4,0.1c0,0,0,0-0.1-0.1
							c0,0-0.1,0-0.1-0.1c-0.1-0.1-0.2-0.1-0.4,0l-0.1,0.1l0-0.1c0-0.2,0-0.3-0.1-0.4c0,0-0.1,0-0.1-0.1c0,0-0.1,0-0.1-0.1
							c-0.1-0.1-0.2-0.2-0.1-0.4l-0.2-0.1c-0.2,0.4-0.1,0.6,0.1,0.7c0,0,0,0,0.1,0c0,0,0.1,0,0.1,0c0.2,0.1,0.2,0.3,0.1,0.4l0,0
							l0.2,0.1l0,0C20,20.8,20,20.7,20.1,20.7z"/>
					</g>
				</g>
				<g>
					<g>
						<path class="st10" d="M19.9,41.5l-0.8,0.4l-0.1-0.2c-0.2-0.5-0.5-0.6-1-0.4c-0.1,0.1-0.3,0.2-0.4,0.2c-0.7,0.3-1.2,0.2-2-0.9
							l0.6-0.5c0.5,0.6,0.8,0.6,1.2,0.4c0.1-0.1,0.3-0.2,0.5-0.3c0.5-0.2,0.8-0.1,1.2,0.3c-0.1-0.5,0.1-0.9,0.6-1.1
							c0.1-0.1,0.4-0.1,0.5-0.2c0.4-0.2,0.5-0.4,0.4-1.2l0.7-0.1c0.4,1.3,0.1,1.8-0.6,2.2c-0.1,0-0.4,0.1-0.5,0.2
							c-0.5,0.2-0.6,0.5-0.3,1L19.9,41.5z"/>
						<path class="st10" d="M19.1,41.9L19,41.7c-0.1-0.3-0.2-0.4-0.4-0.5c-0.1-0.1-0.3,0-0.6,0.1c-0.1,0-0.1,0.1-0.2,0.1
							c-0.1,0-0.2,0.1-0.2,0.1c-0.8,0.4-1.4,0.1-2.1-0.9l0,0l0.6-0.5l0,0c0.5,0.6,0.7,0.6,1.1,0.4c0.1,0,0.1-0.1,0.2-0.1
							c0.1,0,0.2-0.1,0.2-0.1c0.4-0.2,0.8-0.1,1.2,0.2c0-0.5,0.2-0.8,0.6-1c0.1,0,0.2-0.1,0.3-0.1c0.1,0,0.2-0.1,0.2-0.1
							c0.4-0.2,0.5-0.3,0.4-1.1l0,0l0.8-0.2l0,0c0.3,1.2,0.2,1.8-0.6,2.2c0,0-0.1,0.1-0.2,0.1c-0.1,0-0.2,0.1-0.2,0.1
							c-0.5,0.2-0.6,0.5-0.3,1l0.1,0.2L19.1,41.9z M18.5,41.1c0.1,0,0.1,0,0.2,0c0.2,0.1,0.3,0.2,0.4,0.5l0.1,0.1l0.7-0.3l-0.1-0.1
							c-0.3-0.5-0.2-0.9,0.4-1.1c0.1,0,0.2-0.1,0.2-0.1c0.1,0,0.2-0.1,0.2-0.1c0.6-0.3,0.9-0.7,0.6-2.1l-0.7,0.1
							c0.1,0.8,0,1-0.4,1.2c-0.1,0-0.2,0.1-0.2,0.1c-0.1,0-0.2,0.1-0.2,0.1C19.1,39.7,19,40,19,40.5l0,0.1L19,40.6
							c-0.4-0.4-0.7-0.5-1.1-0.3c-0.1,0-0.2,0.1-0.2,0.1c-0.1,0-0.2,0.1-0.2,0.1c-0.4,0.2-0.7,0.2-1.2-0.4l-0.5,0.4
							c0.8,1.1,1.4,1.1,1.9,0.9c0,0,0.1-0.1,0.2-0.1c0.1,0,0.2-0.1,0.2-0.1C18.2,41.1,18.3,41.1,18.5,41.1z"/>
					</g>
				</g>
				<g>
					<g>
						<path class="st10" d="M22.5,44.4l-0.6,0.5l-0.1-0.1c-0.3-0.4-0.6-0.5-1.1-0.2c-0.1,0.1-0.3,0.3-0.4,0.3
							c-0.6,0.4-1.2,0.4-2.1-0.4l0.4-0.6c0.6,0.5,0.9,0.4,1.2,0.2c0.1-0.1,0.3-0.2,0.4-0.3c0.4-0.3,0.8-0.3,1.2,0
							c-0.2-0.5-0.1-0.8,0.3-1.2c0.1-0.1,0.3-0.2,0.4-0.3c0.3-0.3,0.4-0.5,0.1-1.2l0.7-0.3c0.6,1.2,0.5,1.7-0.1,2.2
							c-0.1,0.1-0.3,0.2-0.4,0.3c-0.4,0.3-0.4,0.6-0.1,1.1L22.5,44.4z"/>
						<path class="st10" d="M19.6,45.3c-0.4,0-0.9-0.2-1.4-0.7l0,0l0.5-0.7l0,0c0.6,0.5,0.8,0.4,1.1,0.2c0.1,0,0.1-0.1,0.2-0.2
							c0.1-0.1,0.1-0.1,0.2-0.2c0.4-0.3,0.7-0.3,1.1-0.1c-0.1-0.5,0-0.8,0.3-1.1c0.1,0,0.1-0.1,0.2-0.2c0.1-0.1,0.2-0.1,0.2-0.1
							c0.3-0.2,0.4-0.4,0.1-1.1l0,0l0.8-0.3l0,0c0.6,1.1,0.5,1.7-0.1,2.2c0,0-0.1,0.1-0.2,0.1c-0.1,0.1-0.2,0.1-0.2,0.1
							c-0.2,0.2-0.3,0.3-0.3,0.5c0,0.1,0.1,0.3,0.2,0.5l0.1,0.2L21.8,45l-0.1-0.2c-0.3-0.4-0.6-0.5-1-0.2c0,0-0.1,0.1-0.2,0.2
							c-0.1,0.1-0.1,0.1-0.2,0.2C20.1,45.2,19.8,45.3,19.6,45.3z M18.2,44.5c1,0.9,1.5,0.8,2,0.4c0,0,0.1-0.1,0.2-0.1
							c0.1-0.1,0.1-0.1,0.2-0.2c0.4-0.3,0.8-0.3,1.1,0.2l0.1,0.1l0.6-0.5l-0.1-0.1c-0.2-0.2-0.3-0.4-0.3-0.6c0-0.2,0.1-0.3,0.4-0.5
							c0,0,0.1-0.1,0.2-0.2c0.1-0.1,0.1-0.1,0.2-0.1c0.5-0.4,0.7-0.9,0.1-2.1l-0.6,0.3c0.3,0.7,0.2,0.9-0.2,1.2
							c-0.1,0-0.1,0.1-0.2,0.2c-0.1,0.1-0.2,0.1-0.2,0.2c-0.4,0.3-0.5,0.6-0.3,1.1l0,0.1l-0.1-0.1c-0.4-0.3-0.8-0.3-1.1,0
							c-0.1,0-0.1,0.1-0.2,0.2C20,44,19.9,44,19.8,44.1c-0.3,0.3-0.6,0.3-1.2-0.1L18.2,44.5z"/>
					</g>
				</g>
			</g>
			<g>
				<g>
					<g>
						<path class="st10" d="M47.1,34.8c0.1-0.4,0-0.6-0.4-0.7c-0.1,0-0.3,0-0.4-0.1c-0.5-0.1-0.8-0.4-0.8-1.4l0.6,0
							c0,0.6,0.2,0.7,0.5,0.8c0.1,0,0.3,0,0.4,0.1c0.4,0.1,0.6,0.3,0.6,0.7c0.2-0.3,0.4-0.5,0.8-0.4c0.1,0,0.3,0.1,0.4,0.1
							c0.3,0.1,0.5,0,0.8-0.5l0.5,0.3c-0.4,0.9-0.8,1.1-1.3,1c-0.1,0-0.3-0.1-0.4-0.1c-0.4-0.1-0.6,0.1-0.7,0.5l0,0.1l-0.6-0.1
							L47.1,34.8z"/>
						<path class="st10" d="M47.7,35.1L47,35l0-0.2c0-0.2,0-0.3,0-0.4c-0.1-0.1-0.2-0.2-0.4-0.2c0,0-0.1,0-0.2,0c-0.1,0-0.1,0-0.2,0
							c-0.6-0.1-0.9-0.6-0.8-1.5l0,0l0.7,0l0,0c0,0.6,0.2,0.7,0.5,0.7c0.1,0,0.1,0,0.2,0c0.1,0,0.1,0,0.2,0c0.3,0.1,0.5,0.3,0.6,0.6
							c0.2-0.3,0.5-0.4,0.8-0.3c0.1,0,0.1,0,0.2,0c0.1,0,0.1,0,0.2,0c0.3,0.1,0.4,0,0.7-0.5l0,0l0.6,0.3l0,0
							c-0.3,0.9-0.7,1.2-1.3,1.1c0,0-0.1,0-0.2,0c-0.1,0-0.1,0-0.2,0c-0.4-0.1-0.5,0-0.6,0.4L47.7,35.1z M47.1,34.9l0.5,0.1l0-0.1
							c0.1-0.5,0.3-0.6,0.7-0.5c0,0,0.1,0,0.2,0c0.1,0,0.1,0,0.2,0c0.5,0.1,0.9,0,1.2-1l-0.4-0.2c-0.3,0.5-0.5,0.6-0.8,0.5
							c-0.1,0-0.1,0-0.2,0c-0.1,0-0.1,0-0.2,0c-0.3-0.1-0.6,0.1-0.8,0.4l-0.1,0.1l0-0.1c0-0.4-0.2-0.6-0.6-0.7c-0.1,0-0.1,0-0.2,0
							c-0.1,0-0.1,0-0.2,0c-0.3-0.1-0.5-0.2-0.5-0.8l-0.5,0c0,1,0.3,1.3,0.8,1.4c0,0,0.1,0,0.2,0c0.1,0,0.2,0,0.2,0
							c0.2,0,0.4,0.1,0.4,0.2C47.2,34.4,47.2,34.6,47.1,34.9L47.1,34.9z"/>
					</g>
				</g>
				<g>
					<g>
						<path class="st10" d="M46.4,38c0.1-0.5,0-0.7-0.4-0.8c-0.1,0-0.3-0.1-0.4-0.1c-0.6-0.2-0.9-0.6-0.8-1.7l0.6,0
							c0,0.7,0.1,0.8,0.5,0.9c0.1,0,0.3,0.1,0.4,0.1c0.4,0.1,0.6,0.4,0.6,0.8c0.2-0.4,0.5-0.5,0.9-0.4c0.1,0,0.3,0.1,0.4,0.1
							c0.4,0.1,0.5,0.1,0.9-0.5l0.5,0.3c-0.5,1-0.9,1.2-1.5,1c-0.1,0-0.3-0.1-0.4-0.1c-0.5-0.1-0.7,0-0.8,0.5l0,0.2l-0.7-0.2
							L46.4,38z"/>
						<path class="st10" d="M47,38.4l-0.8-0.2l0.1-0.2c0.1-0.4,0-0.6-0.4-0.8c-0.1,0-0.1,0-0.2,0c-0.1,0-0.2,0-0.2,0
							c-0.7-0.2-0.9-0.7-0.8-1.7l0,0l0.7,0l0,0c0,0.7,0.1,0.8,0.5,0.9c0.1,0,0.1,0,0.2,0c0.1,0,0.2,0,0.2,0.1
							c0.4,0.1,0.6,0.3,0.6,0.7c0.2-0.3,0.5-0.4,0.9-0.3c0.1,0,0.1,0,0.2,0.1c0.1,0,0.1,0,0.2,0.1c0.3,0.1,0.5,0.1,0.8-0.5l0,0
							l0.6,0.4l0,0c-0.5,0.9-0.9,1.3-1.6,1.1c0,0-0.1,0-0.2-0.1c-0.1,0-0.2-0.1-0.2-0.1c-0.4-0.1-0.6,0-0.7,0.4L47,38.4z M46.4,38.1
							l0.6,0.2l0-0.1c0.1-0.5,0.4-0.6,0.8-0.5c0.1,0,0.1,0,0.2,0.1c0.1,0,0.1,0,0.2,0.1c0.5,0.1,1,0,1.5-1l-0.5-0.3
							c-0.3,0.6-0.6,0.6-0.9,0.5c-0.1,0-0.1,0-0.2-0.1c-0.1,0-0.2-0.1-0.2-0.1c-0.4-0.1-0.7,0-0.9,0.4l-0.1,0.1l0-0.1
							c0-0.4-0.2-0.7-0.6-0.8c-0.1,0-0.1,0-0.2-0.1c-0.1,0-0.2,0-0.2-0.1c-0.4-0.1-0.5-0.3-0.5-0.9l-0.5,0c-0.1,1.1,0.2,1.4,0.7,1.6
							c0,0,0.1,0,0.2,0c0.1,0,0.2,0,0.2,0.1c0.5,0.1,0.6,0.4,0.5,0.9L46.4,38.1z"/>
					</g>
				</g>
				<g>
					<g>
						<path class="st10" d="M47.5,32c0-0.4-0.1-0.6-0.5-0.6c-0.1,0-0.3,0-0.4,0c-0.5,0-0.9-0.3-1-1.3l0.6-0.1
							c0.1,0.6,0.3,0.7,0.6,0.7c0.1,0,0.3,0,0.4,0c0.4,0,0.6,0.2,0.7,0.6c0.1-0.4,0.4-0.5,0.8-0.5c0.1,0,0.3,0,0.4,0
							c0.3,0,0.5-0.1,0.7-0.6l0.5,0.2c-0.2,1-0.6,1.2-1.1,1.2c-0.1,0-0.3,0-0.4,0c-0.4,0-0.6,0.1-0.6,0.6l0,0.1l-0.6,0L47.5,32z"/>
						<path class="st10" d="M48.2,32.2l-0.7,0l0-0.2c0-0.2,0-0.3-0.1-0.4c-0.1-0.1-0.2-0.1-0.4-0.1c0,0-0.1,0-0.2,0
							c-0.1,0-0.1,0-0.2,0c-0.6,0-0.9-0.4-1-1.4l0,0l0.6-0.1l0,0c0.1,0.6,0.3,0.6,0.6,0.7c0.1,0,0.3,0,0.4,0c0.4,0,0.6,0.2,0.7,0.5
							c0.2-0.3,0.4-0.5,0.7-0.4c0.1,0,0.1,0,0.2,0c0.1,0,0.1,0,0.2,0c0.3,0,0.4,0,0.6-0.6l0,0l0.6,0.2l0,0c-0.2,0.9-0.6,1.3-1.2,1.2
							c0,0-0.1,0-0.2,0c-0.1,0-0.1,0-0.2,0c-0.4,0-0.5,0.1-0.5,0.5L48.2,32.2z M47.6,32l0.5,0l0-0.1c0-0.5,0.2-0.6,0.6-0.6
							c0,0,0.1,0,0.2,0c0.1,0,0.1,0,0.2,0c0.5,0,0.8-0.2,1.1-1.1l-0.5-0.1c-0.2,0.5-0.4,0.6-0.7,0.6c-0.1,0-0.1,0-0.2,0
							c-0.1,0-0.1,0-0.2,0c-0.4,0-0.6,0.1-0.7,0.5l-0.1,0.1l0-0.1c-0.1-0.4-0.3-0.5-0.6-0.6c-0.1,0-0.3,0-0.4,0
							c-0.3,0-0.5-0.1-0.6-0.7L45.7,30c0.1,1,0.5,1.2,0.9,1.2c0,0,0.1,0,0.2,0c0.1,0,0.2,0,0.2,0c0.2,0,0.4,0.1,0.5,0.2
							C47.5,31.6,47.6,31.7,47.6,32L47.6,32z"/>
					</g>
				</g>
				<g>
					<g>
						<path class="st10" d="M47.6,29.1c-0.1-0.4-0.2-0.5-0.6-0.4c-0.1,0-0.3,0.1-0.3,0.1c-0.5,0.1-0.9-0.1-1.2-1l0.5-0.2
							c0.2,0.5,0.4,0.5,0.7,0.5c0.1,0,0.3-0.1,0.4-0.1c0.4-0.1,0.6,0.1,0.7,0.4c0-0.3,0.2-0.6,0.6-0.6c0.1,0,0.3,0,0.4-0.1
							c0.3-0.1,0.4-0.2,0.5-0.7l0.5,0c0,0.9-0.3,1.2-0.8,1.3c-0.1,0-0.3,0-0.3,0c-0.4,0.1-0.5,0.2-0.4,0.6l0,0.1l-0.6,0.1L47.6,29.1
							z"/>
						<path class="st10" d="M47.6,29.3l0-0.2c-0.1-0.4-0.2-0.5-0.5-0.4c0,0-0.1,0-0.2,0c-0.1,0-0.1,0-0.2,0c-0.6,0.1-0.9-0.2-1.2-1
							l0,0l0.5-0.3l0,0c0.2,0.5,0.4,0.5,0.6,0.5c0,0,0.1,0,0.2,0c0.1,0,0.1,0,0.2,0c0.3-0.1,0.6,0,0.7,0.3c0.1-0.3,0.3-0.5,0.6-0.5
							c0.1,0,0.1,0,0.2,0c0.1,0,0.1,0,0.2,0c0.3,0,0.4-0.1,0.4-0.7l0,0l0.6,0l0,0c0,0.9-0.2,1.3-0.8,1.4c0,0-0.1,0-0.2,0
							c-0.1,0-0.1,0-0.2,0c-0.2,0-0.3,0.1-0.3,0.2c-0.1,0.1-0.1,0.2,0,0.4l0,0.2L47.6,29.3z M47.1,28.6c0.3,0,0.4,0.2,0.5,0.5v0
							l0,0.1l0.5-0.1l0-0.1c0-0.2,0-0.4,0-0.5c0.1-0.1,0.2-0.2,0.4-0.2c0,0,0.1,0,0.2,0c0.1,0,0.1,0,0.2,0c0.4-0.1,0.7-0.3,0.7-1.2
							l-0.4,0c-0.1,0.5-0.2,0.6-0.5,0.7c0,0-0.1,0-0.2,0c-0.1,0-0.1,0-0.2,0c-0.3,0.1-0.5,0.2-0.5,0.6l0,0.1l-0.1-0.1
							C47.5,28,47.3,27.9,47,28c-0.1,0-0.1,0-0.2,0c-0.1,0-0.1,0-0.2,0c-0.3,0.1-0.5,0-0.7-0.5l-0.4,0.2c0.3,0.9,0.7,1,1.1,0.9
							c0,0,0.1,0,0.2,0c0.1,0,0.1,0,0.2,0C47,28.6,47.1,28.6,47.1,28.6z"/>
					</g>
				</g>
				<g>
					<g>
						<path class="st10" d="M47,26.5c-0.1-0.3-0.2-0.4-0.5-0.3c-0.1,0-0.2,0.1-0.2,0.1c-0.4,0.1-0.7,0-1-0.6l0.3-0.2
							c0.2,0.3,0.4,0.4,0.6,0.3c0.1,0,0.2-0.1,0.3-0.1c0.3-0.1,0.4,0,0.6,0.2c0-0.3,0.1-0.4,0.3-0.5c0.1,0,0.2-0.1,0.3-0.1
							c0.2-0.1,0.3-0.2,0.3-0.6l0.4,0c0.1,0.7,0,1-0.4,1.1c-0.1,0-0.2,0.1-0.2,0.1c-0.3,0.1-0.3,0.2-0.2,0.5l0,0.1L47,26.5L47,26.5z
							"/>
						<path class="st10" d="M47.1,26.6L47,26.5c0-0.1-0.1-0.2-0.2-0.2c-0.1,0-0.2,0-0.3,0c0,0-0.1,0-0.1,0.1c0,0-0.1,0-0.1,0
							c-0.4,0.2-0.7,0-1.1-0.6l0,0l0.4-0.3l0,0c0.2,0.3,0.3,0.3,0.5,0.3c0,0,0.1,0,0.1-0.1c0,0,0.1,0,0.1-0.1c0.2-0.1,0.4,0,0.6,0.1
							c0-0.2,0.1-0.4,0.4-0.5c0,0,0.1,0,0.1,0c0,0,0.1,0,0.1,0c0.2-0.1,0.3-0.1,0.2-0.5l0,0l0.5,0l0,0c0.1,0.7,0,1-0.4,1.1
							c0,0-0.1,0-0.1,0c0,0-0.1,0-0.1,0c-0.1,0-0.2,0.1-0.2,0.2c0,0.1,0,0.2,0,0.3l0.1,0.1L47.1,26.6z M47.1,26.4L47.1,26.4l0.3-0.1
							l0,0c-0.1-0.2-0.1-0.3,0-0.4c0-0.1,0.1-0.2,0.3-0.2c0,0,0.1,0,0.1,0c0,0,0.1,0,0.1,0c0.3-0.1,0.5-0.3,0.4-1l-0.3,0
							c0,0.4-0.1,0.5-0.3,0.6c0,0-0.1,0-0.1,0c0,0-0.1,0-0.1,0c-0.2,0.1-0.3,0.2-0.3,0.5l0,0.1L47,25.9c-0.2-0.2-0.3-0.3-0.6-0.2
							c0,0-0.1,0-0.1,0.1c0,0-0.1,0-0.1,0.1c-0.2,0.1-0.4,0.1-0.6-0.3l-0.3,0.2c0.4,0.6,0.6,0.6,0.9,0.5c0,0,0.1,0,0.1,0
							c0,0,0.1,0,0.1-0.1c0.2-0.1,0.3-0.1,0.4,0C47,26.2,47,26.3,47.1,26.4L47.1,26.4z"/>
					</g>
				</g>
				<g>
					<g>
						<path class="st10" d="M46.2,24.4c-0.1-0.3-0.3-0.3-0.5-0.2c-0.1,0-0.2,0.1-0.2,0.1c-0.3,0.2-0.6,0.1-1-0.4l0.3-0.3
							c0.3,0.3,0.4,0.3,0.6,0.2c0.1,0,0.2-0.1,0.2-0.1c0.2-0.1,0.4-0.1,0.6,0.1c0-0.3,0-0.4,0.3-0.6c0.1,0,0.2-0.1,0.2-0.1
							c0.2-0.1,0.3-0.2,0.2-0.6l0.4-0.1c0.2,0.6,0.1,0.9-0.3,1.1c0,0-0.2,0.1-0.2,0.1c-0.3,0.1-0.3,0.3-0.2,0.5l0,0.1L46.2,24.4
							L46.2,24.4z"/>
						<path class="st10" d="M46.3,24.6l-0.1-0.1c-0.1-0.1-0.1-0.2-0.2-0.2c-0.1,0-0.2,0-0.3,0c0,0-0.1,0-0.1,0.1c0,0-0.1,0-0.1,0.1
							c-0.4,0.2-0.7,0.1-1.1-0.5l0,0l0.3-0.3l0,0c0.3,0.3,0.4,0.3,0.5,0.2c0,0,0.1,0,0.1-0.1c0,0,0.1,0,0.1-0.1
							c0.2-0.1,0.4-0.1,0.6,0.1c0-0.2,0.1-0.4,0.3-0.5c0,0,0.1,0,0.1-0.1c0,0,0.1,0,0.1-0.1c0.2-0.1,0.2-0.2,0.2-0.5l0,0l0.5-0.1
							l0,0c0.2,0.6,0.1,0.9-0.3,1.1c0,0-0.1,0-0.1,0c0,0-0.1,0-0.1,0.1c-0.2,0.1-0.3,0.2-0.1,0.5l0.1,0.1L46.3,24.6z M46.3,24.4
							L46.3,24.4l0.3-0.1l0,0c-0.1-0.3-0.1-0.5,0.2-0.6c0,0,0.1,0,0.1-0.1c0,0,0.1,0,0.1,0c0.3-0.1,0.4-0.4,0.3-1l-0.3,0.1
							c0.1,0.4,0,0.5-0.2,0.6c0,0-0.1,0-0.1,0.1c0,0-0.1,0-0.1,0.1c-0.2,0.1-0.3,0.3-0.2,0.5l0,0.1l-0.1-0.1
							c-0.2-0.2-0.3-0.2-0.5-0.1c0,0-0.1,0-0.1,0.1c0,0-0.1,0-0.1,0.1C45.2,24,45,24,44.8,23.7l-0.2,0.2c0.4,0.5,0.7,0.5,0.9,0.4
							c0,0,0.1,0,0.1-0.1c0,0,0.1-0.1,0.1-0.1c0.1-0.1,0.2-0.1,0.3,0C46.1,24.2,46.2,24.3,46.3,24.4L46.3,24.4z"/>
					</g>
				</g>
				<g>
					<g>
						<path class="st10" d="M45.3,22.5c-0.1-0.2-0.3-0.2-0.4-0.1c0,0-0.1,0.1-0.2,0.1c-0.3,0.2-0.5,0.2-0.9-0.2l0.2-0.2
							c0.3,0.2,0.4,0.2,0.5,0.1c0,0,0.1-0.1,0.2-0.1c0.2-0.1,0.3-0.1,0.5,0c-0.1-0.2,0-0.4,0.2-0.5c0.1,0,0.1-0.1,0.2-0.1
							c0.2-0.1,0.2-0.2,0.1-0.5l0.3-0.1c0.2,0.5,0.2,0.7-0.1,0.9c0,0-0.1,0.1-0.2,0.1c-0.2,0.1-0.2,0.3-0.1,0.5l0,0.1L45.3,22.5
							L45.3,22.5z"/>
						<path class="st10" d="M44.4,22.7c-0.2,0-0.4-0.1-0.6-0.4l0,0L44,22l0,0c0.2,0.2,0.3,0.2,0.5,0.1c0,0,0.1,0,0.1-0.1
							c0,0,0.1-0.1,0.1-0.1c0.2-0.1,0.3-0.1,0.5,0c0-0.2,0-0.3,0.2-0.4c0,0,0.1,0,0.1-0.1c0,0,0.1,0,0.1-0.1
							c0.1-0.1,0.2-0.2,0.1-0.5l0,0l0.4-0.1l0,0c0.2,0.5,0.2,0.8-0.1,1c0,0-0.1,0-0.1,0.1c0,0-0.1,0-0.1,0.1
							c-0.2,0.1-0.2,0.2-0.1,0.4l0.1,0.1l-0.4,0.3l-0.1-0.1c-0.1-0.2-0.2-0.2-0.4-0.1c0,0-0.1,0-0.1,0.1c0,0-0.1,0-0.1,0.1
							C44.6,22.7,44.5,22.7,44.4,22.7z M43.8,22.3c0.4,0.4,0.6,0.4,0.8,0.2c0,0,0,0,0.1-0.1c0,0,0.1-0.1,0.1-0.1
							c0.2-0.1,0.4-0.1,0.5,0.1v0l0,0l0.2-0.1l0,0c-0.2-0.2-0.1-0.4,0.1-0.5c0,0,0.1,0,0.1-0.1c0,0,0.1,0,0.1-0.1
							c0.2-0.2,0.3-0.3,0.1-0.8L45.7,21c0.1,0.3,0.1,0.4-0.1,0.5c0,0-0.1,0-0.1,0.1c0,0-0.1,0-0.1,0.1c-0.2,0.1-0.2,0.2-0.1,0.4
							l0,0.1l-0.1-0.1c-0.2-0.1-0.3-0.1-0.5,0c0,0-0.1,0-0.1,0.1c0,0-0.1,0.1-0.1,0.1c-0.2,0.1-0.3,0.1-0.5-0.1L43.8,22.3z"/>
					</g>
				</g>
				<g>
					<g>
						<path class="st10" d="M44.2,20.9c-0.1-0.2-0.2-0.2-0.4-0.1c0,0-0.1,0.1-0.1,0.1c-0.2,0.1-0.4,0.1-0.8-0.2l0.2-0.2
							c0.2,0.2,0.3,0.2,0.4,0.1c0,0,0.1-0.1,0.1-0.1c0.2-0.1,0.3-0.1,0.4,0c-0.1-0.2,0-0.3,0.1-0.4c0,0,0.1-0.1,0.2-0.1
							c0.1-0.1,0.2-0.2,0.1-0.4l0.2-0.1c0.2,0.4,0.1,0.6-0.1,0.8c0,0-0.1,0.1-0.1,0.1c-0.2,0.1-0.2,0.2-0.1,0.4l0,0.1L44.2,20.9
							L44.2,20.9z"/>
						<path class="st10" d="M43.4,21.1c-0.2,0-0.3-0.1-0.5-0.3l0,0l0.2-0.3l0,0c0.2,0.2,0.3,0.1,0.4,0.1c0,0,0,0,0.1-0.1
							c0,0,0.1,0,0.1-0.1c0.1-0.1,0.3-0.1,0.4,0c0-0.1,0-0.3,0.2-0.4c0,0,0.1,0,0.1-0.1c0,0,0.1,0,0.1,0c0.1-0.1,0.1-0.1,0.1-0.4
							l0,0l0.3-0.1l0,0c0.2,0.4,0.2,0.7-0.1,0.8c0,0,0,0-0.1,0c0,0-0.1,0-0.1,0c-0.1,0-0.1,0.1-0.1,0.1c0,0,0,0.1,0.1,0.2l0.1,0.1
							L44.2,21l-0.1-0.1c-0.1-0.1-0.1-0.1-0.1-0.1c0,0-0.1,0-0.2,0.1c0,0,0,0-0.1,0.1c0,0-0.1,0-0.1,0.1
							C43.6,21,43.5,21.1,43.4,21.1z M43,20.7c0.3,0.3,0.5,0.3,0.7,0.2c0,0,0,0,0.1,0c0,0,0.1,0,0.1-0.1c0.1-0.1,0.2-0.1,0.2-0.1
							c0.1,0,0.1,0.1,0.2,0.2l0,0l0.2-0.1l0,0c-0.1-0.1-0.1-0.2-0.1-0.2c0-0.1,0.1-0.1,0.1-0.2c0,0,0.1,0,0.1-0.1c0,0,0.1,0,0.1,0
							c0.2-0.1,0.2-0.3,0.1-0.7l-0.2,0.1c0.1,0.2,0,0.3-0.1,0.4c0,0-0.1,0-0.1,0.1c0,0-0.1,0-0.1,0c-0.1,0.1-0.2,0.2-0.1,0.4l0,0.1
							l-0.1-0.1c-0.1-0.1-0.2-0.1-0.4,0c0,0,0,0-0.1,0.1c0,0-0.1,0-0.1,0.1c-0.1,0.1-0.3,0.1-0.4-0.1L43,20.7z"/>
					</g>
				</g>
				<g>
					<g>
						<path class="st10" d="M44.3,41.3c0.2-0.5,0.2-0.8-0.3-1c-0.1-0.1-0.4-0.1-0.5-0.2c-0.7-0.3-0.9-0.9-0.6-2.2l0.7,0.1
							c-0.1,0.8,0,1,0.4,1.2c0.1,0.1,0.4,0.1,0.5,0.2c0.5,0.2,0.6,0.6,0.6,1.1c0.4-0.4,0.7-0.5,1.2-0.3c0.1,0.1,0.3,0.2,0.5,0.3
							c0.4,0.2,0.6,0.2,1.2-0.4l0.6,0.5c-0.8,1.1-1.4,1.2-2,0.9c-0.1,0-0.3-0.2-0.4-0.2c-0.5-0.2-0.8-0.1-1,0.4L45,41.8l-0.8-0.4
							L44.3,41.3z"/>
						<path class="st10" d="M45,41.9l-0.8-0.4l0.1-0.2c0.1-0.3,0.2-0.4,0.1-0.6c0-0.2-0.2-0.3-0.4-0.4c-0.1,0-0.2-0.1-0.2-0.1
							c-0.1,0-0.2-0.1-0.2-0.1c-0.8-0.4-0.9-1-0.6-2.2l0,0l0.8,0.2l0,0c-0.1,0.8,0,0.9,0.4,1.1c0.1,0,0.2,0.1,0.2,0.1
							c0.1,0,0.2,0.1,0.3,0.1c0.4,0.2,0.6,0.5,0.6,1c0.4-0.3,0.7-0.4,1.2-0.2c0.1,0,0.2,0.1,0.2,0.1c0.1,0,0.2,0.1,0.2,0.1
							c0.4,0.2,0.6,0.2,1.1-0.4l0,0l0.6,0.5l0,0c-0.7,1-1.3,1.3-2.1,0.9c0,0-0.1-0.1-0.2-0.1c-0.1,0-0.2-0.1-0.2-0.1
							c-0.2-0.1-0.4-0.1-0.6-0.1c-0.1,0.1-0.3,0.2-0.4,0.5L45,41.9z M44.3,41.4l0.7,0.3l0.1-0.1c0.1-0.3,0.3-0.4,0.4-0.5
							c0.2-0.1,0.4,0,0.6,0.1c0.1,0,0.1,0.1,0.2,0.1c0.1,0,0.2,0.1,0.2,0.1c0.6,0.3,1.1,0.2,1.9-0.9L48,40.2
							c-0.5,0.6-0.8,0.6-1.2,0.4c-0.1,0-0.1-0.1-0.2-0.1c-0.1,0-0.2-0.1-0.2-0.1c-0.4-0.2-0.8-0.1-1.2,0.3l-0.1,0.1l0-0.1
							c0.1-0.5-0.1-0.8-0.5-1.1c-0.1,0-0.2-0.1-0.2-0.1c-0.1,0-0.2-0.1-0.2-0.1c-0.4-0.2-0.6-0.4-0.4-1.2L43,38
							c-0.4,1.3,0,1.8,0.6,2.1c0,0,0.1,0.1,0.2,0.1c0.1,0,0.2,0.1,0.2,0.1c0.3,0.1,0.4,0.3,0.5,0.4c0.1,0.2,0,0.4-0.1,0.7v0
							L44.3,41.4z"/>
					</g>
				</g>
				<g>
					<g>
						<path class="st10" d="M41.7,43.9c0.3-0.4,0.3-0.7-0.1-1.1c-0.1-0.1-0.3-0.2-0.4-0.3c-0.6-0.5-0.7-1-0.1-2.2l0.7,0.3
							c-0.3,0.7-0.2,1,0.1,1.2c0.1,0.1,0.3,0.2,0.4,0.3c0.4,0.3,0.5,0.7,0.3,1.2c0.4-0.3,0.8-0.3,1.2,0c0.1,0.1,0.3,0.3,0.4,0.3
							c0.3,0.3,0.6,0.3,1.2-0.2l0.5,0.6c-1,0.9-1.6,0.9-2.2,0.5c-0.1-0.1-0.3-0.2-0.4-0.3c-0.4-0.3-0.7-0.3-1.1,0.2l-0.1,0.1
							L41.6,44L41.7,43.9z"/>
						<path class="st10" d="M44.6,44.9c-0.3,0-0.5-0.1-0.8-0.3c0,0-0.1-0.1-0.2-0.2c-0.1-0.1-0.2-0.1-0.2-0.2
							c-0.2-0.2-0.4-0.2-0.5-0.2c-0.2,0-0.3,0.1-0.5,0.4l-0.1,0.2L41.5,44l0.1-0.2c0.2-0.2,0.3-0.4,0.2-0.5c0-0.2-0.1-0.3-0.3-0.5
							c0,0-0.1-0.1-0.2-0.2c-0.1-0.1-0.2-0.1-0.2-0.1c-0.7-0.5-0.7-1.2-0.1-2.3l0,0l0.8,0.3l0,0c-0.3,0.7-0.2,0.9,0.1,1.2
							c0.1,0,0.1,0.1,0.2,0.1c0.1,0.1,0.2,0.1,0.2,0.2c0.4,0.3,0.5,0.7,0.4,1.1c0.4-0.2,0.8-0.2,1.2,0.1c0.1,0,0.1,0.1,0.2,0.2
							c0.1,0.1,0.1,0.1,0.2,0.2c0.3,0.2,0.5,0.3,1.2-0.2l0,0l0.5,0.7l0,0C45.5,44.6,45,44.9,44.6,44.9z M43,44
							c0.2,0,0.3,0.1,0.5,0.2c0.1,0,0.1,0.1,0.2,0.2c0.1,0.1,0.1,0.1,0.2,0.2c0.5,0.4,1.1,0.5,2.1-0.4l-0.4-0.5
							c-0.6,0.5-0.9,0.4-1.2,0.1c-0.1,0-0.1-0.1-0.2-0.2c-0.1-0.1-0.1-0.1-0.2-0.2c-0.4-0.3-0.7-0.3-1.2,0l-0.1,0.1l0-0.1
							c0.2-0.5,0.1-0.8-0.3-1.1c-0.1,0-0.1-0.1-0.2-0.2c-0.1-0.1-0.2-0.1-0.2-0.2c-0.4-0.3-0.5-0.5-0.2-1.2l-0.6-0.3
							c-0.6,1.2-0.4,1.7,0.1,2.1c0,0,0.1,0.1,0.2,0.1c0.1,0.1,0.2,0.1,0.2,0.2c0.2,0.2,0.4,0.4,0.4,0.5c0,0.2-0.1,0.4-0.3,0.6
							L41.7,44l0.6,0.5l0.1-0.1C42.5,44.1,42.7,44,43,44C42.9,44,42.9,44,43,44z"/>
					</g>
				</g>
			</g>
			<g>
				<path class="st10" d="M42,32.6c0-1.6-1-3.1-2.5-3.7c0.1-0.3,0.1-0.6,0.1-1c0-3.1-2.5-5.6-5.6-5.6c-1.8,0-3.4,0.8-4.5,2.2
					C29,24.1,28.4,24,27.8,24c-1.7,0-3,1.4-3,3c0,0.3,0.1,0.6,0.2,0.9c-1.5,0.6-2.5,2.1-2.5,3.7c0,1.7,1,3.1,2.5,3.7
					c-0.1,0.3-0.1,0.7-0.1,1c0,3.1,2.5,5.6,5.6,5.6c1.8,0,3.4-0.8,4.5-2.2c0.5,0.4,1.1,0.6,1.8,0.6c1.7,0,3-1.4,3-3
					c0-0.3-0.1-0.6-0.2-0.9C41,35.7,42,34.2,42,32.6z M28.5,28.4l-2.7-0.6c-0.1-0.2-0.1-0.5-0.1-0.7c0-1.2,1-2.2,2.2-2.2
					c0.5,0,0.9,0.1,1.3,0.4L28.5,28.4z M29.2,30.9l-4,3.6c-1.2-0.5-1.9-1.6-1.9-2.9c0-1.3,0.9-2.5,2.1-2.9l3.1,0.7L29.2,30.9z
					 M35.9,35.8l2.7,0.6c0.1,0.2,0.1,0.5,0.1,0.7c0,1.2-1,2.2-2.2,2.2c-0.4,0-0.9-0.1-1.3-0.4L35.9,35.8z M41.1,32.5
					c0,1.3-0.9,2.5-2.1,2.9l-3.1-0.7l-0.8-1.5l4.1-3.6C40.3,30.1,41.1,31.3,41.1,32.5z M25.8,35.3l4.1-3.7l4.2,1.9l0.9,1.7l-0.7,3.6
					c-0.9,1.3-2.3,2-3.9,2c-2.6,0-4.7-2.1-4.7-4.7C25.7,35.9,25.8,35.6,25.8,35.3z M38.6,28.9l-4.2,3.7l-4.2-1.9L29.4,29l0.7-3.6
					c0.9-1.3,2.3-2,3.9-2c2.6,0,4.7,2.1,4.7,4.7C38.7,28.3,38.6,28.6,38.6,28.9z"/>
			</g>
			<g>
				<circle class="st10" cx="6.5" cy="39.7" r="0.8"/>
			</g>
			<g>
				<circle class="st10" cx="9.3" cy="45.6" r="0.8"/>
			</g>
			<g>
				<circle class="st10" cx="57" cy="39.7" r="0.8"/>
			</g>
			<g>
				<circle class="st10" cx="54.2" cy="45.6" r="0.8"/>
			</g>
		</g>
	</g>
	<g>
		<path class="st10" d="M14.3,54.3l0.3-0.8l-1.2-1L12.7,53l-0.9-0.8l4.2-2.4l1,0.8l-1.8,4.6L14.3,54.3z M14.4,52l0.7,0.6l0.6-1.3
			l0,0L14.4,52z"/>
		<path class="st10" d="M20.4,58l-0.5-3.2l-1.1,2.4l-1.1-0.5l2-4.2l1.1,0.5l0.5,3.2l1.1-2.4l1.1,0.5l-2,4.2L20.4,58z"/>
		<path class="st10" d="M27.4,60.1l-0.1-0.9L25.8,59l-0.4,0.8l-1.2-0.2l2.5-4.2l1.3,0.3l0.7,4.8L27.4,60.1z M26.3,58l0.9,0.2
			L27,56.7l0,0L26.3,58z"/>
		<path class="st10" d="M32.5,55.8l0.1,3.5l1.8-0.1l0,1.1l-2.9,0.1l-0.2-4.6L32.5,55.8z"/>
		<path class="st10" d="M37.3,59.9l-0.4-1.8l-2.1-2.4l1.3-0.3l1.2,1.4l0,0l0.5-1.8l1.2-0.3l-1,3l0.4,1.8L37.3,59.9z"/>
		<path class="st10" d="M41.4,57.6l1-0.7c0.2,0.3,0.5,0.3,0.8,0.2c0.3-0.1,0.4-0.4,0.3-0.6c-0.3-0.7-2,0.8-2.8-0.9
			c-0.4-0.8,0-1.6,0.9-2c0.8-0.4,1.6-0.2,2.1,0.5l-1,0.7c-0.2-0.3-0.4-0.3-0.7-0.2c-0.3,0.1-0.3,0.3-0.3,0.5c0.3,0.7,2-0.8,2.8,0.8
			c0.4,0.8,0,1.7-1,2.1C42.7,58.4,41.9,58.3,41.4,57.6z"/>
		<path class="st10" d="M48.2,50.9l-1,0.8l2.1,2.8l-0.9,0.7l-2.1-2.8l-1,0.8l-0.7-0.9l3-2.2L48.2,50.9z"/>
	</g>
	<g>
		<path class="st10" d="M27,18.2l-0.4,0.2l-0.6-1.7l0.4-0.2L27,18.2z"/>
		<path class="st10" d="M27.9,17.9L27.4,18L27,16.3l0.5-0.1c0.6-0.2,1.1,0.1,1.2,0.6C28.8,17.4,28.5,17.7,27.9,17.9z M27.6,16.5
			l-0.1,0l0.2,0.9l0.1,0c0.3-0.1,0.5-0.3,0.4-0.6C28.2,16.6,27.9,16.5,27.6,16.5z"/>
		<path class="st10" d="M30.3,16.1l-0.8,0.1l0,0.3l0.6-0.1l0.1,0.4l-0.6,0.1l0,0.3l0.8-0.1l0.1,0.4l-1.2,0.2L29,15.8l1.2-0.2
			L30.3,16.1z"/>
		<path class="st10" d="M30.8,16.9l0.4-0.1c0,0.1,0.1,0.2,0.3,0.2c0.1,0,0.2-0.1,0.2-0.2c0-0.3-0.8,0-0.9-0.7c0-0.3,0.3-0.6,0.6-0.6
			c0.3,0,0.6,0.2,0.7,0.5l-0.4,0.1c0-0.1-0.1-0.2-0.2-0.2c-0.1,0-0.2,0.1-0.2,0.1c0,0.3,0.8,0,0.9,0.7c0,0.4-0.3,0.6-0.7,0.6
			C31.2,17.4,30.9,17.2,30.8,16.9z"/>
		<path class="st10" d="M34,16.1l-0.5,0l-0.1,1.4l-0.5,0L33,16l-0.5,0l0-0.4l1.4,0.1L34,16.1z"/>
		<path class="st10" d="M35.3,17.7l-0.4-0.1l0.4-1.7l0.4,0.1L35.3,17.7z"/>
		<path class="st10" d="M36.9,18.2L36.5,17l-0.3,1l-0.4-0.1l0.5-1.7l0.4,0.1l0.4,1.2l0.3-1l0.4,0.1l-0.5,1.7L36.9,18.2z"/>
	</g>
	<g>
		<path class="st10" d="M27.4,47.6l-0.3-1.2l-0.3,1l-0.4-0.1l0.6-1.7l0.4,0.1l0.3,1.2l0.3-1l0.4,0.1l-0.6,1.7L27.4,47.6z"/>
		<path class="st10" d="M29.3,48.1c-0.5-0.1-0.8-0.5-0.8-1.1c0.1-0.5,0.5-0.8,1.1-0.8c0.5,0.1,0.8,0.5,0.8,1.1
			C30.3,47.8,29.8,48.2,29.3,48.1z M29.5,46.7c-0.3,0-0.5,0.1-0.5,0.4c0,0.3,0.1,0.5,0.4,0.6c0.3,0,0.5-0.1,0.5-0.4
			C29.9,47,29.8,46.7,29.5,46.7z"/>
		<path class="st10" d="M32,46.9l-0.5,0l-0.1,1.4l-0.5,0l0.1-1.4l-0.5,0l0-0.4l1.4,0.1L32,46.9z"/>
		<path class="st10" d="M32.9,48.2l-0.5,0l-0.1-1.8l0.5,0L32.9,48.2z"/>
		<path class="st10" d="M34.6,46.6l-0.5,0.1l0.2,1.3l-0.5,0.1l-0.2-1.3l-0.5,0.1l-0.1-0.4l1.4-0.2L34.6,46.6z"/>
		<path class="st10" d="M35.8,47.8l-0.4,0.1l-0.4-1.7l0.4-0.1L35.8,47.8z"/>
		<path class="st10" d="M37.4,47.2L37.2,47l-0.6,0.2l0,0.3l-0.5,0.2l0-1.9l0.5-0.2l1.2,1.5L37.4,47.2z M36.6,46.7l0.3-0.1l-0.3-0.4
			l0,0L36.6,46.7z"/>
	</g>
	<g>
		<path class="st10" d="M5.1,29L5,30.9l0.6,0l0.1-1.4l1,0.1L6.6,31l0.6,0l0.1-1.9l1,0.1l-0.2,3l-4.3-0.3l0.2-3L5.1,29z"/>
		<path class="st10" d="M4.8,25.2L8,26.1l0.4-1.6l1,0.3l-0.7,2.6l-4.1-1.1L4.8,25.2z"/>
		<path class="st10" d="M11.2,20.7l-0.8-0.1l-0.6,1.3l0.6,0.6l-0.5,1l-3.1-3.3L7.2,19l4.5,0.6L11.2,20.7z M9,21.1l0.4-0.7l-1.3-0.2
			l0,0L9,21.1z"/>
		<path class="st10" d="M11.6,17.9l0.5-0.9c0.3,0.1,0.6,0.1,0.8-0.2c0.2-0.2,0.2-0.5,0-0.6c-0.5-0.4-1.4,1.5-2.6,0.4
			c-0.6-0.5-0.7-1.4-0.1-2.1c0.5-0.6,1.2-0.8,1.9-0.5L11.5,15c-0.3-0.1-0.5-0.1-0.7,0.1c-0.2,0.2-0.2,0.4,0,0.5
			c0.5,0.4,1.4-1.5,2.6-0.4c0.7,0.5,0.7,1.4,0.1,2.2C13,18.1,12.2,18.3,11.6,17.9z"/>
		<path class="st10" d="M16,10.4l-0.9,0.7l2.1,2.5l-0.8,0.7l-2.1-2.5l-0.9,0.7l-0.6-0.8l2.6-2.2L16,10.4z"/>
		<path class="st10" d="M20.5,11.4L19.6,12l-2.1-3.7l0.9-0.6L20.5,11.4z"/>
		<path class="st10" d="M22.6,5.8c0.9-0.3,1.8-0.1,2.3,0.6l-1,0.5c-0.1-0.2-0.5-0.4-0.9-0.2c-0.6,0.2-0.8,0.8-0.6,1.5
			c0.2,0.6,0.8,1,1.4,0.8c0.4-0.1,0.6-0.4,0.6-0.8l1.1-0.2c0.1,0.9-0.4,1.6-1.3,1.9c-1.2,0.4-2.3-0.1-2.8-1.4
			C20.9,7.3,21.4,6.2,22.6,5.8z"/>
		<path class="st10" d="M31.8,4.2c1,0,1.7,0.5,2,1.3l-1.1,0.2c-0.1-0.2-0.4-0.5-0.8-0.5c-0.6,0-1,0.5-1,1.2c0,0.7,0.4,1.2,1.1,1.2
			c0.4,0,0.7-0.2,0.8-0.5l1.1,0.2c-0.2,0.8-0.9,1.3-1.9,1.4c-1.3,0-2.2-0.8-2.2-2.2C29.7,5.1,30.6,4.2,31.8,4.2z"/>
		<path class="st10" d="M39,6.2l-1.8-0.4L37,6.4l1.4,0.3l-0.2,1l-1.4-0.3L36.7,8l1.8,0.4l-0.2,1l-2.9-0.6l0.9-4.2l2.9,0.6L39,6.2z"
			/>
		<path class="st10" d="M41.8,8.9l-0.1,0L41,10.4l-1-0.4L41.8,6l1.5,0.6c0.7,0.3,1.3,0.9,0.9,1.8c-0.2,0.5-0.7,0.7-1.2,0.7l0.2,2.1
			L42,10.8L41.8,8.9z M42.7,7.5l-0.3-0.1L42,8.2l0.3,0.2c0.4,0.2,0.6,0.1,0.7-0.2C43.2,7.9,43.1,7.7,42.7,7.5z"/>
		<path class="st10" d="M48.9,11.3L48,10.6l-1.9,2.7l-0.9-0.6l1.9-2.7l-0.9-0.7l0.6-0.8l2.8,2L48.9,11.3z"/>
		<path class="st10" d="M49,15.9l-0.8-0.8l3-3l0.8,0.8L49,15.9z"/>
		<path class="st10" d="M54.7,17.8l-1-1.5l-0.6,0.4l0.8,1.1L53,18.4l-0.8-1.1L51,18.3l-0.6-0.9l3.5-2.5l1.7,2.4L54.7,17.8z"/>
		<path class="st10" d="M53.4,22.3l-0.5-1l3.8-1.9l0.5,1L53.4,22.3z"/>
		<path class="st10" d="M58.1,26l-0.5-1.8L57,24.4l0.4,1.4l-1,0.3L56,24.7l-0.6,0.2l0.5,1.8L55,27l-0.8-2.8l4.1-1.2l0.8,2.8L58.1,26
			z"/>
		<path class="st10" d="M55.4,29.9l-0.1-1.2l4.3-0.3l0.1,1.3c0.1,1.5-0.7,2.5-2,2.6C56.2,32.4,55.5,31.5,55.4,29.9z M58.7,29.9
			l0-0.3l-2.3,0.2l0,0.3c0.1,0.8,0.5,1.2,1.2,1.2C58.4,31.1,58.7,30.7,58.7,29.9z"/>
	</g>
</g>
<rect x="0" y="0" class="st5" width="64" height="64"/>
</svg>
