<?xml version="1.0" encoding="utf-8"?>
<!-- Generator: Adobe Illustrator 24.0.3, SVG Export Plug-In . SVG Version: 6.00 Build 0)  -->
<svg version="1.1" id="Layer_1" xmlns="http://www.w3.org/2000/svg" xmlns:xlink="http://www.w3.org/1999/xlink" x="0px" y="0px"
	 viewBox="0 0 64 64" style="enable-background:new 0 0 64 64;" xml:space="preserve">
<style type="text/css">
	.st0{fill:#EF4E97;}
	.st1{fill:#333843;}
	.st2{fill:#00BFAC;}
	.st3{opacity:0.6;fill:none;stroke:#FFFFFF;stroke-width:5;stroke-miterlimit:10;}
	.st4{opacity:0.6;}
	.st5{fill:none;}
	.st6{fill:#FFFFFF;}
	.st7{fill:#00C2B5;}
	.st8{fill:#15CCBA;}
	.st9{fill:#F3BE45;}
	.st10{fill:#0077CC;}
	.st11{fill:#0077CB;}
	.st12{fill:#FDC414;}
	.st13{fill:#00BEB2;}
	.st14{fill:#343741;}
	.st15{fill:#F9734F;}
	.st16{fill:#1BA8F4;}
	.st17{fill:#005A9D;}
	.st18{fill:#7DE1D0;}
	.st19{fill:#019A8E;}
	.st20{fill:#535766;}
	.st21{fill:#1C1E23;}
	.st22{fill:#FFD836;}
	.st23{fill:#F5A700;}
	.st24{fill:#231F20;}
	.st25{fill:#F88FBF;}
	.st26{fill:#DC0A73;}
	.st27{fill:#FF967A;}
	.st28{fill:#E1543D;}
	.st29{fill:#0D8DDF;}
	.st30{fill:#3ECFC1;}
	.st31{fill:#0068B3;}
	.st32{fill:#01ACA0;}
	.st33{fill:none;stroke:#E5EAF1;stroke-width:1.5451;stroke-miterlimit:10;}
	.st34{fill:none;stroke:#E5EAF1;stroke-width:1.5142;}
	.st35{fill:#434753;}
	.st36{fill:#272A32;}
	.st37{fill:#8FD0FB;}
	.st38{fill:#DEE0E4;}
	.st39{fill:#F4C447;}
	.st40{fill:#171A1E;}
	.st41{fill:#343842;}
	.st42{fill:none;stroke:#FFFFFF;stroke-width:0.6726;stroke-miterlimit:10;}
	.st43{fill:none;stroke:#272A32;stroke-width:0.6726;stroke-miterlimit:10;}
</style>
<g>
	<g>
		<g>
			<path class="st0" d="M32.1,53.6c-11.8,0-21.4-9.6-21.4-21.4s9.6-21.4,21.4-21.4c11.8,0,21.4,9.6,21.4,21.4S43.9,53.6,32.1,53.6z
				 M32.1,11.9C21,11.9,11.9,21,11.9,32.2S21,52.5,32.1,52.5s20.3-9.1,20.3-20.3S43.3,11.9,32.1,11.9z"/>
		</g>
	</g>
	<g>
		<g>
			<path class="st0" d="M32.1,63.3C15,63.3,1,49.3,1,32.2C1,15.1,15,1.1,32.1,1.1c17.1,0,31.1,13.9,31.1,31.1
				C63.2,49.3,49.3,63.3,32.1,63.3z M32.1,2.3C15.6,2.3,2.2,15.7,2.2,32.2s13.4,29.9,29.9,29.9c16.5,0,29.9-13.4,29.9-29.9
				S48.6,2.3,32.1,2.3z"/>
		</g>
	</g>
	<g>
		<g>
			<g>
				<path class="st0" d="M17.5,34.6l-0.6,0.1l0-0.1c-0.1-0.4-0.2-0.5-0.6-0.5c-0.1,0-0.3,0.1-0.4,0.1c-0.5,0.1-0.9-0.1-1.3-1
					l0.5-0.2c0.3,0.5,0.4,0.6,0.7,0.5c0.1,0,0.3-0.1,0.4-0.1c0.4-0.1,0.6,0.1,0.8,0.4c0-0.4,0.2-0.6,0.6-0.7c0.1,0,0.3,0,0.4-0.1
					c0.3-0.1,0.4-0.2,0.5-0.8l0.6,0c0,1-0.3,1.3-0.8,1.4c-0.1,0-0.3,0-0.4,0.1c-0.4,0.1-0.5,0.3-0.4,0.7L17.5,34.6z"/>
				<path class="st0" d="M16.9,34.8l0-0.2c-0.1-0.4-0.2-0.5-0.6-0.4c0,0-0.1,0-0.2,0c-0.1,0-0.1,0-0.2,0c-0.6,0.1-1-0.2-1.3-1l0,0
					l0.6-0.3l0,0c0.3,0.5,0.4,0.5,0.7,0.5c0.1,0,0.1,0,0.2,0c0.1,0,0.1,0,0.2,0c0.3-0.1,0.6,0,0.8,0.3c0.1-0.3,0.3-0.5,0.6-0.6
					c0.1,0,0.1,0,0.2,0c0.1,0,0.1,0,0.2,0c0.3-0.1,0.4-0.1,0.5-0.7l0,0l0.6,0l0,0c0,0.9-0.2,1.3-0.8,1.5c0,0-0.1,0-0.2,0
					c-0.1,0-0.1,0-0.2,0c-0.2,0-0.3,0.1-0.4,0.2c-0.1,0.1-0.1,0.2,0,0.4l0,0.2L16.9,34.8z M16.4,34.1c0.3,0,0.4,0.2,0.5,0.5l0,0.1
					l0.5-0.1l0-0.1c0-0.2,0-0.4,0-0.5c0.1-0.1,0.2-0.2,0.4-0.2c0,0,0.1,0,0.2,0c0.1,0,0.1,0,0.2,0c0.5-0.1,0.8-0.4,0.8-1.3l-0.5,0
					c-0.1,0.6-0.2,0.7-0.5,0.8c-0.1,0-0.1,0-0.2,0c-0.1,0-0.1,0-0.2,0c-0.3,0.1-0.5,0.3-0.6,0.6l0,0.1L17,33.8
					c-0.2-0.3-0.4-0.4-0.8-0.4c-0.1,0-0.1,0-0.2,0c-0.1,0-0.1,0-0.2,0c-0.3,0.1-0.5,0-0.8-0.5l-0.4,0.2c0.4,0.9,0.7,1,1.2,1
					c0,0,0.1,0,0.2,0c0.1,0,0.1,0,0.2,0C16.3,34.1,16.4,34.1,16.4,34.1z"/>
			</g>
		</g>
		<g>
			<g>
				<path class="st0" d="M18.3,37.8L17.6,38l0-0.1c-0.1-0.4-0.3-0.6-0.8-0.5c-0.1,0-0.3,0.1-0.4,0.1c-0.6,0.2-1,0-1.5-1l0.5-0.3
					c0.3,0.6,0.5,0.6,0.9,0.5c0.1,0,0.3-0.1,0.4-0.1c0.4-0.1,0.7,0,0.9,0.4c0-0.4,0.2-0.7,0.6-0.8c0.1,0,0.3-0.1,0.4-0.1
					c0.3-0.1,0.5-0.2,0.5-0.9l0.6,0c0.1,1.1-0.2,1.5-0.8,1.6c-0.1,0-0.3,0.1-0.4,0.1c-0.4,0.1-0.5,0.3-0.4,0.8L18.3,37.8z"/>
				<path class="st0" d="M17.6,38l-0.1-0.2c-0.1-0.2-0.1-0.4-0.2-0.4c-0.1-0.1-0.3-0.1-0.5,0c0,0-0.1,0-0.2,0.1
					c-0.1,0-0.1,0-0.2,0.1c-0.7,0.2-1.1-0.1-1.6-1.1l0,0l0.6-0.4l0,0c0.3,0.6,0.5,0.6,0.8,0.5c0.1,0,0.1,0,0.2-0.1
					c0.1,0,0.2-0.1,0.2-0.1c0.4-0.1,0.7,0,0.9,0.3c0.1-0.4,0.3-0.6,0.6-0.7c0.1,0,0.1,0,0.2-0.1c0.1,0,0.2,0,0.2,0
					c0.3-0.1,0.5-0.2,0.5-0.8l0,0l0.7,0l0,0c0.1,1-0.1,1.5-0.8,1.7c0,0-0.1,0-0.2,0c-0.1,0-0.2,0-0.2,0c-0.4,0.1-0.5,0.3-0.4,0.7
					l0.1,0.2L17.6,38z M17.1,37.3c0.1,0,0.2,0,0.3,0.1c0.1,0.1,0.2,0.2,0.3,0.5l0,0.1l0.6-0.2l0-0.1c-0.1-0.5,0-0.7,0.5-0.8
					c0.1,0,0.1,0,0.2,0c0.1,0,0.1,0,0.2,0c0.5-0.1,0.8-0.5,0.7-1.6l-0.5,0c0,0.6-0.2,0.8-0.5,0.9c-0.1,0-0.1,0-0.2,0
					c-0.1,0-0.2,0-0.2,0c-0.4,0.1-0.6,0.3-0.6,0.8l0,0.1l-0.1-0.1c-0.2-0.4-0.5-0.5-0.9-0.4c-0.1,0-0.1,0-0.2,0.1
					c-0.1,0-0.2,0-0.2,0.1c-0.4,0.1-0.6,0-0.9-0.5L15,36.5c0.5,1,0.9,1.1,1.4,1c0,0,0.1,0,0.2-0.1c0.1,0,0.2-0.1,0.2-0.1
					C16.9,37.3,17,37.3,17.1,37.3z"/>
			</g>
		</g>
		<g>
			<g>
				<path class="st0" d="M17.1,31.8l-0.6,0l0-0.1c0-0.4-0.2-0.6-0.6-0.6c-0.1,0-0.3,0-0.4,0c-0.5,0-0.9-0.2-1.1-1.2l0.5-0.2
					c0.2,0.6,0.3,0.6,0.7,0.6c0.1,0,0.3,0,0.4,0c0.4,0,0.6,0.2,0.7,0.5c0.1-0.4,0.3-0.6,0.7-0.6c0.1,0,0.3,0,0.4,0
					c0.3,0,0.5-0.1,0.6-0.7l0.5,0.1c-0.1,1-0.4,1.3-1,1.3c-0.1,0-0.3,0-0.4,0c-0.4,0-0.5,0.2-0.5,0.6L17.1,31.8z"/>
				<path class="st0" d="M16.5,31.9l0-0.2c0-0.4-0.2-0.5-0.5-0.5c0,0-0.1,0-0.2,0c-0.1,0-0.1,0-0.2,0c-0.6,0-1-0.3-1.2-1.2l0,0
					l0.6-0.2l0,0c0.2,0.5,0.3,0.6,0.6,0.6c0.1,0,0.1,0,0.2,0c0.1,0,0.1,0,0.2,0c0.3,0,0.6,0.1,0.7,0.4c0.1-0.3,0.3-0.5,0.7-0.5
					c0.1,0,0.3,0,0.4,0c0.3,0,0.4-0.1,0.6-0.6l0,0l0.6,0.1l0,0c-0.1,0.9-0.4,1.3-1,1.3c0,0-0.1,0-0.2,0c-0.1,0-0.1,0-0.2,0
					c-0.2,0-0.3,0.1-0.4,0.1c-0.1,0.1-0.1,0.2-0.1,0.4l0,0.2L16.5,31.9z M16,31.1c0.4,0,0.5,0.2,0.5,0.6l0,0.1l0.5,0l0-0.1
					c0-0.2,0-0.4,0.1-0.5c0.1-0.1,0.2-0.2,0.5-0.2c0,0,0.1,0,0.2,0c0.1,0,0.1,0,0.2,0c0.5,0,0.8-0.2,0.9-1.2l-0.5-0.1
					c-0.1,0.6-0.3,0.7-0.6,0.7c-0.1,0-0.3,0-0.4,0c-0.3,0-0.5,0.2-0.6,0.6l0,0.1l0-0.1c-0.1-0.4-0.3-0.5-0.7-0.5c-0.1,0-0.1,0-0.2,0
					c-0.1,0-0.1,0-0.2,0c-0.3,0-0.5-0.1-0.7-0.6l-0.4,0.1c0.2,1,0.6,1.1,1.1,1.1c0,0,0.1,0,0.2,0C15.8,31.1,15.9,31.1,16,31.1
					C15.9,31.1,16,31.1,16,31.1z"/>
			</g>
		</g>
		<g>
			<g>
				<path class="st0" d="M17.1,29l-0.6-0.1l0-0.1c0.1-0.4,0-0.5-0.4-0.6c-0.1,0-0.3,0-0.3,0c-0.5-0.1-0.7-0.4-0.7-1.3l0.5,0
					c0,0.5,0.2,0.6,0.5,0.7c0.1,0,0.3,0,0.4,0.1c0.3,0.1,0.5,0.3,0.5,0.6c0.2-0.3,0.4-0.4,0.7-0.4c0.1,0,0.3,0.1,0.4,0.1
					c0.3,0.1,0.4,0,0.7-0.5l0.5,0.2c-0.3,0.8-0.7,1-1.2,0.9c-0.1,0-0.2-0.1-0.3-0.1c-0.4-0.1-0.5,0.1-0.6,0.4L17.1,29z"/>
				<path class="st0" d="M17.1,29.1l-0.6-0.1l0-0.2c0.1-0.4,0-0.5-0.4-0.6c0,0-0.1,0-0.2,0c-0.1,0-0.1,0-0.2,0
					C15.2,28,15,27.6,15,26.8l0,0l0.6,0l0,0c0,0.5,0.2,0.6,0.4,0.7c0,0,0.1,0,0.2,0c0.1,0,0.1,0,0.2,0c0.3,0.1,0.5,0.2,0.6,0.5
					c0.2-0.3,0.4-0.4,0.7-0.3c0.1,0,0.1,0,0.2,0c0.1,0,0.1,0,0.2,0c0.3,0.1,0.4,0,0.6-0.5l0,0l0.5,0.3l0,0c-0.3,0.8-0.7,1.1-1.2,1
					c0,0-0.1,0-0.2,0c-0.1,0-0.1,0-0.2,0c-0.2,0-0.3,0-0.4,0c-0.1,0.1-0.1,0.2-0.2,0.4L17.1,29.1z M16.6,28.9l0.5,0.1l0-0.1
					c0-0.2,0.1-0.3,0.2-0.4c0.1-0.1,0.2-0.1,0.4-0.1c0,0,0.1,0,0.2,0c0.1,0,0.1,0,0.1,0c0.4,0.1,0.8,0,1.1-0.9l-0.4-0.2
					c-0.2,0.5-0.4,0.5-0.7,0.5c0,0-0.1,0-0.2,0c-0.1,0-0.1,0-0.2,0c-0.3-0.1-0.5,0-0.7,0.4l-0.1,0.1l0-0.1c0-0.3-0.2-0.5-0.5-0.6
					c-0.1,0-0.1,0-0.2,0c-0.1,0-0.1,0-0.2,0c-0.3-0.1-0.4-0.2-0.5-0.7l-0.4,0c0,0.9,0.3,1.1,0.7,1.2c0,0,0.1,0,0.2,0
					c0.1,0,0.1,0,0.2,0C16.5,28.2,16.6,28.4,16.6,28.9L16.6,28.9z"/>
			</g>
		</g>
		<g>
			<g>
				<path class="st0" d="M17.6,26.4l-0.4-0.2l0-0.1c0.1-0.3,0.1-0.4-0.2-0.5c-0.1,0-0.2-0.1-0.2-0.1c-0.4-0.1-0.5-0.4-0.4-1.1l0.4,0
					c0,0.4,0,0.5,0.3,0.6c0.1,0,0.2,0.1,0.3,0.1c0.3,0.1,0.3,0.3,0.3,0.5c0.2-0.2,0.3-0.3,0.6-0.2c0.1,0,0.2,0.1,0.3,0.1
					c0.2,0.1,0.3,0.1,0.6-0.3l0.3,0.2c-0.4,0.6-0.6,0.7-1,0.5c-0.1,0-0.2-0.1-0.2-0.1C17.8,26,17.7,26,17.6,26.4L17.6,26.4z"/>
				<path class="st0" d="M17.6,26.5l-0.5-0.2l0.1-0.1c0-0.1,0.1-0.2,0-0.3c0-0.1-0.1-0.1-0.2-0.2c0,0-0.1,0-0.1,0c0,0-0.1,0-0.1,0
					c-0.4-0.2-0.5-0.5-0.4-1.1l0,0l0.5,0l0,0c0,0.4,0,0.5,0.2,0.5c0,0,0.1,0,0.1,0c0,0,0.1,0,0.1,0c0.2,0.1,0.3,0.2,0.4,0.5
					c0.2-0.2,0.4-0.2,0.6-0.1c0,0,0.1,0,0.1,0.1c0,0,0.1,0,0.1,0.1c0.2,0.1,0.3,0.1,0.5-0.2l0,0l0.4,0.3l0,0
					c-0.3,0.6-0.6,0.7-1.1,0.6c0,0-0.1,0-0.1,0c0,0-0.1,0-0.1-0.1c-0.2-0.1-0.3,0-0.4,0.2L17.6,26.5z M17.2,26.2l0.3,0.1l0,0
					c0.1-0.3,0.3-0.4,0.6-0.3c0,0,0.1,0,0.1,0.1c0,0,0.1,0,0.1,0c0.3,0.1,0.6,0.1,0.9-0.5L19,25.4c-0.2,0.3-0.4,0.3-0.6,0.2
					c0,0-0.1,0-0.1-0.1c0,0-0.1,0-0.1-0.1c-0.2-0.1-0.4,0-0.6,0.2l-0.1,0.1l0-0.1c0-0.3-0.1-0.4-0.3-0.5c0,0-0.1,0-0.1,0
					c0,0-0.1,0-0.1,0c-0.2-0.1-0.3-0.2-0.3-0.6l-0.3,0c-0.1,0.7,0.1,0.9,0.4,1c0,0,0.1,0,0.1,0c0,0,0.1,0,0.1,0
					c0.1,0.1,0.2,0.1,0.3,0.2C17.3,25.9,17.3,26,17.2,26.2L17.2,26.2z"/>
			</g>
		</g>
		<g>
			<g>
				<path class="st0" d="M18.4,24.4L18,24.2l0-0.1c0.1-0.2,0.1-0.4-0.1-0.5c-0.1,0-0.2-0.1-0.2-0.1c-0.3-0.2-0.4-0.4-0.3-1.1
					l0.4,0.1c-0.1,0.4,0,0.5,0.2,0.6c0.1,0,0.2,0.1,0.2,0.1c0.2,0.1,0.3,0.3,0.3,0.5c0.2-0.2,0.4-0.2,0.6-0.1c0.1,0,0.2,0.1,0.2,0.1
					c0.2,0.1,0.3,0.1,0.6-0.2l0.3,0.2c-0.4,0.5-0.7,0.6-1,0.4c0,0-0.2-0.1-0.2-0.1C18.7,24,18.5,24.1,18.4,24.4L18.4,24.4z"/>
				<path class="st0" d="M18.4,24.5l-0.4-0.2l0.1-0.1c0.1-0.1,0.1-0.2,0.1-0.3c0-0.1-0.1-0.1-0.2-0.2c0,0-0.1,0-0.1-0.1
					c0,0-0.1,0-0.1,0c-0.4-0.2-0.5-0.5-0.3-1.1l0,0l0.4,0.1l0,0c-0.1,0.4,0,0.4,0.2,0.5c0,0,0.1,0,0.1,0.1c0,0,0.1,0,0.1,0.1
					c0.2,0.1,0.3,0.3,0.3,0.5c0.2-0.1,0.4-0.1,0.6,0c0,0,0.1,0,0.1,0.1c0,0,0.1,0,0.1,0.1c0.2,0.1,0.3,0.1,0.5-0.2l0,0l0.3,0.3l0,0
					c-0.4,0.5-0.7,0.6-1.1,0.4c0,0-0.1,0-0.1-0.1c0,0-0.1,0-0.1-0.1c-0.2-0.1-0.3-0.1-0.4,0.2L18.4,24.5z M18.1,24.2l0.3,0.1l0,0
					c0.1-0.3,0.3-0.3,0.6-0.2c0,0,0.1,0,0.1,0.1c0,0,0.1,0,0.1,0.1c0.3,0.1,0.5,0.1,0.9-0.4l-0.2-0.2c-0.3,0.3-0.4,0.3-0.6,0.2
					c0,0-0.1,0-0.1-0.1c0,0-0.1,0-0.1-0.1c-0.2-0.1-0.4-0.1-0.5,0.1l-0.1,0.1l0-0.1c0-0.2,0-0.4-0.2-0.5c0,0-0.1,0-0.1-0.1
					c0,0-0.1,0-0.1-0.1c-0.2-0.1-0.3-0.2-0.2-0.6l-0.3-0.1c-0.2,0.6,0,0.8,0.2,1c0,0,0.1,0,0.1,0c0,0,0.1,0,0.1,0.1
					c0.1,0.1,0.2,0.1,0.2,0.2C18.2,23.9,18.2,24,18.1,24.2L18.1,24.2z"/>
			</g>
		</g>
		<g>
			<g>
				<path class="st0" d="M19.3,22.5L19,22.3l0-0.1c0.1-0.2,0.1-0.3-0.1-0.4c0,0-0.1-0.1-0.2-0.1c-0.2-0.2-0.3-0.4-0.1-0.9l0.3,0.1
					c-0.1,0.3-0.1,0.4,0.1,0.5c0,0,0.1,0.1,0.2,0.1c0.2,0.1,0.2,0.3,0.1,0.5c0.2-0.1,0.3-0.1,0.5,0c0.1,0,0.1,0.1,0.2,0.1
					c0.1,0.1,0.2,0.1,0.5-0.1l0.2,0.2c-0.4,0.4-0.6,0.4-0.9,0.2c0,0-0.1-0.1-0.2-0.1C19.6,22.2,19.5,22.3,19.3,22.5L19.3,22.5z"/>
				<path class="st0" d="M20.3,22.7c-0.1,0-0.2,0-0.3-0.1c0,0,0,0-0.1-0.1c0,0-0.1,0-0.1-0.1c-0.2-0.1-0.3-0.1-0.4,0.1l-0.1,0.1
					L19,22.3l0.1-0.1c0.1-0.1,0.1-0.2,0.1-0.2c0-0.1,0-0.1-0.1-0.2c0,0-0.1,0-0.1-0.1c0,0-0.1,0-0.1-0.1c-0.3-0.2-0.3-0.5-0.1-1l0,0
					l0.4,0.1l0,0c-0.1,0.3-0.1,0.4,0.1,0.4c0,0,0.1,0,0.1,0.1c0,0,0.1,0,0.1,0.1c0.2,0.1,0.2,0.2,0.2,0.4c0.2-0.1,0.3-0.1,0.5,0
					c0,0,0.1,0,0.1,0.1c0,0,0.1,0,0.1,0.1c0.1,0.1,0.2,0.1,0.4-0.1l0,0l0.3,0.3l0,0C20.6,22.5,20.4,22.7,20.3,22.7z M19.6,22.2
					c0.1,0,0.1,0,0.2,0.1c0,0,0.1,0,0.1,0.1c0,0,0.1,0,0.1,0.1c0.2,0.1,0.4,0.2,0.8-0.2l-0.1-0.2c-0.2,0.2-0.3,0.2-0.5,0.1
					c0,0-0.1,0-0.1-0.1c0,0-0.1-0.1-0.1-0.1c-0.2-0.1-0.3-0.1-0.5,0l-0.1,0.1l0-0.1c0.1-0.2,0-0.3-0.1-0.4c0,0-0.1,0-0.1-0.1
					c0,0-0.1,0-0.1-0.1c-0.2-0.1-0.2-0.2-0.1-0.5l-0.2-0.1c-0.2,0.5-0.1,0.7,0.1,0.8c0,0,0,0,0.1,0.1c0,0,0.1,0,0.1,0.1
					c0.1,0.1,0.2,0.2,0.2,0.2c0,0.1,0,0.2-0.1,0.3l0,0l0.2,0.1l0,0C19.4,22.3,19.5,22.2,19.6,22.2z"/>
			</g>
		</g>
		<g>
			<g>
				<path class="st0" d="M20.4,20.9l-0.2-0.2l0-0.1c0.1-0.2,0.1-0.3,0-0.4c0,0-0.1-0.1-0.1-0.1c-0.2-0.1-0.3-0.3-0.1-0.8l0.2,0.1
					c-0.1,0.3-0.1,0.3,0.1,0.4c0,0,0.1,0.1,0.2,0.1c0.1,0.1,0.2,0.2,0.1,0.4c0.1-0.1,0.3-0.1,0.4,0c0,0,0.1,0.1,0.1,0.1
					c0.1,0.1,0.2,0.1,0.4-0.1l0.2,0.2C21.4,21,21.2,21,21,20.9c0,0-0.1-0.1-0.1-0.1C20.7,20.7,20.6,20.7,20.4,20.9L20.4,20.9z"/>
				<path class="st0" d="M21.2,21c-0.1,0-0.2,0-0.3-0.1c0,0,0,0-0.1-0.1c0,0-0.1,0-0.1-0.1c-0.1-0.1-0.2-0.1-0.3,0.1L20.4,21
					l-0.3-0.2l0.1-0.1c0.1-0.1,0.1-0.2,0-0.3c0,0,0,0-0.1,0c0,0-0.1,0-0.1,0c-0.2-0.2-0.3-0.4-0.1-0.8l0,0l0.3,0.1l0,0
					c-0.1,0.3,0,0.3,0,0.4c0,0,0,0,0.1,0c0,0,0.1,0,0.1,0.1c0.1,0.1,0.2,0.2,0.2,0.3c0.1-0.1,0.3-0.1,0.4,0c0,0,0,0,0.1,0.1
					c0,0,0,0,0.1,0.1c0.1,0.1,0.2,0.1,0.4-0.1l0,0l0.2,0.3l0,0C21.5,20.9,21.4,21,21.2,21z M20.7,20.7c0.1,0,0.1,0,0.2,0.1
					c0,0,0,0,0.1,0.1c0,0,0,0,0.1,0c0.2,0.1,0.3,0.1,0.7-0.2l-0.1-0.1c-0.2,0.1-0.3,0.2-0.4,0c0,0,0,0-0.1-0.1c0,0-0.1,0-0.1-0.1
					c-0.1-0.1-0.2-0.1-0.4,0l-0.1,0.1l0-0.1c0-0.2,0-0.3-0.1-0.4c0,0,0,0-0.1-0.1c0,0-0.1,0-0.1-0.1c-0.1-0.1-0.2-0.2-0.1-0.4
					L20,19.5c-0.2,0.4-0.1,0.5,0.1,0.7c0,0,0,0,0.1,0c0,0,0.1,0,0.1,0c0.2,0.1,0.2,0.3,0.1,0.4l0,0l0.2,0.1l0,0
					C20.5,20.7,20.6,20.7,20.7,20.7z"/>
			</g>
		</g>
		<g>
			<g>
				<path class="st0" d="M20.3,41.1l-0.7,0.4l-0.1-0.2c-0.2-0.5-0.5-0.6-1-0.4c-0.1,0.1-0.3,0.2-0.4,0.2c-0.7,0.3-1.2,0.2-2-0.9
					l0.6-0.5c0.5,0.6,0.7,0.6,1.1,0.4c0.1-0.1,0.3-0.2,0.5-0.2c0.5-0.2,0.8-0.1,1.2,0.3c-0.1-0.5,0.1-0.9,0.6-1.1
					c0.1-0.1,0.4-0.1,0.5-0.2c0.4-0.2,0.5-0.4,0.4-1.1l0.7-0.1c0.3,1.3,0.1,1.8-0.6,2.1c-0.1,0-0.3,0.1-0.5,0.2
					c-0.5,0.2-0.6,0.5-0.3,1L20.3,41.1z"/>
				<path class="st0" d="M19.5,41.5l-0.1-0.2c-0.1-0.3-0.2-0.4-0.4-0.5c-0.1-0.1-0.3,0-0.6,0.1c-0.1,0-0.1,0.1-0.2,0.1
					c-0.1,0-0.2,0.1-0.2,0.1c-0.7,0.3-1.3,0.1-2-0.9l0,0l0.6-0.5l0,0c0.5,0.6,0.7,0.6,1.1,0.4c0.1,0,0.1-0.1,0.2-0.1
					c0.1,0,0.2-0.1,0.2-0.1c0.4-0.2,0.8-0.1,1.1,0.2c0-0.5,0.2-0.8,0.6-1c0.1,0,0.2-0.1,0.2-0.1c0.1,0,0.2-0.1,0.2-0.1
					c0.4-0.2,0.5-0.3,0.4-1.1l0,0l0.8-0.1l0,0c0.3,1.2,0.1,1.8-0.6,2.2c0,0-0.1,0.1-0.2,0.1c-0.1,0-0.2,0.1-0.2,0.1
					c-0.5,0.2-0.5,0.5-0.3,1l0.1,0.2L19.5,41.5z M18.9,40.7c0.1,0,0.1,0,0.2,0c0.2,0.1,0.3,0.2,0.4,0.5l0.1,0.1l0.7-0.3l-0.1-0.1
					c-0.3-0.5-0.2-0.8,0.4-1.1c0.1,0,0.2-0.1,0.2-0.1c0.1,0,0.2-0.1,0.2-0.1c0.6-0.3,0.9-0.7,0.6-2l-0.6,0.1c0.1,0.8,0,1-0.4,1.2
					c-0.1,0-0.2,0.1-0.2,0.1c-0.1,0-0.2,0.1-0.2,0.1c-0.4,0.2-0.6,0.5-0.5,1l0,0.1l-0.1-0.1c-0.4-0.4-0.7-0.5-1.1-0.3
					c-0.1,0-0.2,0.1-0.2,0.1c-0.1,0-0.2,0.1-0.2,0.1c-0.4,0.2-0.7,0.2-1.2-0.4l-0.5,0.4c0.8,1.1,1.3,1.1,1.9,0.9
					c0,0,0.1-0.1,0.2-0.1c0.1,0,0.2-0.1,0.2-0.1C18.6,40.7,18.8,40.7,18.9,40.7z"/>
			</g>
		</g>
		<g>
			<g>
				<path class="st0" d="M22.8,44l-0.6,0.5l-0.1-0.1c-0.3-0.4-0.6-0.5-1-0.2c-0.1,0.1-0.3,0.2-0.4,0.3c-0.6,0.4-1.1,0.4-2.1-0.4
					l0.4-0.6c0.6,0.5,0.8,0.4,1.2,0.2c0.1-0.1,0.3-0.2,0.4-0.3c0.4-0.3,0.8-0.3,1.2,0c-0.2-0.5-0.1-0.8,0.3-1.1
					c0.1-0.1,0.3-0.2,0.4-0.3c0.3-0.3,0.4-0.5,0.1-1.2l0.7-0.3c0.6,1.1,0.5,1.7-0.1,2.1c-0.1,0.1-0.3,0.2-0.4,0.3
					c-0.4,0.3-0.4,0.6-0.1,1L22.8,44z"/>
				<path class="st0" d="M19.9,44.8c-0.4,0-0.8-0.2-1.4-0.7l0,0l0.5-0.6l0,0c0.6,0.5,0.8,0.4,1.1,0.2c0.1,0,0.1-0.1,0.2-0.2
					c0.1-0.1,0.1-0.1,0.2-0.2c0.4-0.3,0.7-0.3,1.1-0.1c-0.1-0.5,0-0.8,0.4-1.1c0.1,0,0.1-0.1,0.2-0.2c0.1-0.1,0.2-0.1,0.2-0.1
					c0.3-0.2,0.4-0.4,0.1-1.1l0,0l0.8-0.3l0,0c0.6,1.1,0.5,1.7-0.1,2.2c0,0-0.1,0.1-0.2,0.1c-0.1,0.1-0.2,0.1-0.2,0.1
					c-0.2,0.2-0.3,0.3-0.3,0.5c0,0.1,0.1,0.3,0.2,0.5l0.1,0.2l-0.7,0.5L22,44.3c-0.3-0.4-0.6-0.5-1-0.2c0,0-0.1,0.1-0.2,0.2
					c-0.1,0.1-0.1,0.1-0.2,0.1C20.4,44.7,20.2,44.8,19.9,44.8z M18.6,44c1,0.9,1.5,0.8,2,0.4c0,0,0.1-0.1,0.2-0.1
					c0.1-0.1,0.1-0.1,0.2-0.2c0.4-0.3,0.7-0.3,1.1,0.2l0.1,0.1l0.6-0.4l-0.1-0.1c-0.2-0.2-0.3-0.4-0.2-0.6c0-0.2,0.1-0.3,0.4-0.5
					c0,0,0.1-0.1,0.2-0.1c0.1,0,0.1-0.1,0.2-0.1c0.5-0.4,0.7-0.9,0.1-2l-0.6,0.2c0.3,0.7,0.2,0.9-0.2,1.2c-0.1,0-0.1,0.1-0.2,0.1
					c-0.1,0.1-0.2,0.1-0.2,0.1c-0.4,0.3-0.5,0.6-0.3,1.1l0,0.1l-0.1-0.1c-0.4-0.3-0.8-0.3-1.1,0c-0.1,0-0.1,0.1-0.2,0.2
					c-0.1,0.1-0.1,0.1-0.2,0.2c-0.3,0.3-0.6,0.3-1.2-0.1L18.6,44z"/>
			</g>
		</g>
	</g>
	<g>
		<g>
			<g>
				<path class="st0" d="M47.1,34.7c0.1-0.4,0-0.6-0.4-0.7c-0.1,0-0.3,0-0.4-0.1c-0.5-0.1-0.8-0.4-0.8-1.4l0.6,0
					c0,0.6,0.2,0.7,0.5,0.8c0.1,0,0.3,0,0.4,0.1c0.4,0.1,0.5,0.3,0.6,0.7c0.2-0.3,0.4-0.5,0.8-0.4c0.1,0,0.3,0.1,0.4,0.1
					c0.3,0.1,0.5,0,0.7-0.5l0.5,0.2c-0.4,0.9-0.8,1.1-1.3,1c-0.1,0-0.3-0.1-0.4-0.1c-0.4-0.1-0.6,0.1-0.7,0.5l0,0.1L47,34.8
					L47.1,34.7z"/>
				<path class="st0" d="M47.7,35L47,34.9l0-0.2c0-0.2,0-0.3,0-0.4c-0.1-0.1-0.2-0.2-0.4-0.2c0,0-0.1,0-0.2,0c-0.1,0-0.1,0-0.2,0
					c-0.6-0.1-0.8-0.6-0.8-1.5l0,0l0.6,0l0,0c0,0.6,0.2,0.7,0.5,0.7c0.1,0,0.1,0,0.2,0c0.1,0,0.1,0,0.2,0c0.3,0.1,0.5,0.3,0.6,0.6
					c0.2-0.3,0.5-0.4,0.8-0.3c0.1,0,0.1,0,0.2,0c0.1,0,0.1,0,0.2,0c0.3,0.1,0.4,0,0.7-0.5l0,0l0.6,0.3l0,0c-0.3,0.9-0.7,1.2-1.3,1
					c0,0-0.1,0-0.2,0c-0.1,0-0.1,0-0.2,0c-0.4-0.1-0.5,0-0.6,0.4L47.7,35z M47.1,34.8l0.5,0.1l0-0.1c0.1-0.4,0.3-0.6,0.7-0.5
					c0,0,0.1,0,0.2,0c0.1,0,0.1,0,0.2,0c0.5,0.1,0.8,0,1.2-0.9l-0.4-0.2c-0.3,0.5-0.5,0.6-0.8,0.5c-0.1,0-0.1,0-0.2,0
					c-0.1,0-0.1,0-0.2,0c-0.3-0.1-0.6,0-0.8,0.4l-0.1,0.1l0-0.1c0-0.4-0.2-0.6-0.5-0.6c-0.1,0-0.1,0-0.2,0c-0.1,0-0.1,0-0.2,0
					c-0.3-0.1-0.5-0.2-0.5-0.8l-0.5,0c0,1,0.3,1.2,0.7,1.3c0,0,0.1,0,0.2,0c0.1,0,0.1,0,0.2,0c0.2,0,0.4,0.1,0.4,0.2
					C47.2,34.3,47.2,34.5,47.1,34.8L47.1,34.8z"/>
			</g>
		</g>
		<g>
			<g>
				<path class="st0" d="M46.3,37.8c0.1-0.4,0-0.7-0.4-0.8c-0.1,0-0.3-0.1-0.4-0.1c-0.6-0.2-0.9-0.6-0.8-1.7l0.6,0
					c0,0.7,0.1,0.8,0.5,0.9c0.1,0,0.3,0.1,0.4,0.1c0.4,0.1,0.6,0.4,0.6,0.8c0.2-0.3,0.5-0.5,0.9-0.4c0.1,0,0.3,0.1,0.4,0.1
					c0.3,0.1,0.5,0.1,0.9-0.5l0.5,0.3c-0.5,1-0.9,1.2-1.5,1c-0.1,0-0.3-0.1-0.4-0.1c-0.4-0.1-0.6,0-0.8,0.5l0,0.1L46.3,38L46.3,37.8
					z"/>
				<path class="st0" d="M46.9,38.2L46.2,38l0.1-0.2c0.1-0.4,0-0.6-0.4-0.7c0,0-0.1,0-0.2,0c-0.1,0-0.1,0-0.2,0
					c-0.7-0.2-0.9-0.7-0.8-1.7l0,0l0.7,0l0,0c0,0.7,0.1,0.8,0.4,0.8c0.1,0,0.1,0,0.2,0c0.1,0,0.2,0,0.2,0.1c0.4,0.1,0.6,0.3,0.6,0.7
					c0.2-0.3,0.5-0.4,0.9-0.3c0.1,0,0.1,0,0.2,0.1c0.1,0,0.1,0,0.2,0.1c0.3,0.1,0.5,0.1,0.8-0.5l0,0l0.6,0.4l0,0
					c-0.4,0.9-0.9,1.2-1.6,1c0,0-0.1,0-0.2-0.1c-0.1,0-0.2-0.1-0.2-0.1c-0.4-0.1-0.6,0-0.7,0.4L46.9,38.2z M46.3,38l0.6,0.2l0-0.1
					c0.1-0.5,0.4-0.6,0.8-0.5c0.1,0,0.1,0,0.2,0.1c0.1,0,0.1,0,0.2,0.1c0.5,0.1,1,0,1.4-1l-0.5-0.3c-0.3,0.5-0.6,0.6-0.9,0.5
					c-0.1,0-0.1,0-0.2-0.1c-0.1,0-0.2-0.1-0.2-0.1c-0.4-0.1-0.6,0-0.9,0.4l-0.1,0.1l0-0.1c0-0.4-0.2-0.7-0.6-0.8
					c-0.1,0-0.1,0-0.2-0.1c-0.1,0-0.2,0-0.2-0.1c-0.4-0.1-0.5-0.2-0.5-0.9l-0.5,0c-0.1,1.1,0.2,1.4,0.7,1.6c0,0,0.1,0,0.2,0
					c0.1,0,0.2,0,0.2,0.1c0.5,0.1,0.6,0.4,0.4,0.9L46.3,38z"/>
			</g>
		</g>
		<g>
			<g>
				<path class="st0" d="M47.5,31.9c0-0.4-0.1-0.6-0.5-0.6c-0.1,0-0.3,0-0.4,0c-0.5,0-0.9-0.3-1-1.3l0.5-0.1
					c0.1,0.6,0.3,0.7,0.6,0.7c0.1,0,0.3,0,0.4,0c0.4,0,0.6,0.2,0.7,0.6c0.1-0.3,0.4-0.5,0.7-0.5c0.1,0,0.3,0,0.4,0
					c0.3,0,0.5-0.1,0.7-0.6l0.5,0.2c-0.2,1-0.6,1.2-1.1,1.2c-0.1,0-0.3,0-0.4,0c-0.4,0-0.6,0.1-0.6,0.5l0,0.1l-0.6,0L47.5,31.9z"/>
				<path class="st0" d="M48.1,32.1l-0.7,0l0-0.2c0-0.2,0-0.3-0.1-0.4c-0.1-0.1-0.2-0.1-0.4-0.1c0,0-0.1,0-0.2,0c-0.1,0-0.1,0-0.2,0
					c-0.6,0-0.9-0.4-1-1.3l0,0l0.6-0.1l0,0c0.1,0.6,0.3,0.6,0.5,0.7c0.1,0,0.3,0,0.4,0c0.3,0,0.6,0.2,0.7,0.5
					c0.2-0.3,0.4-0.4,0.7-0.4c0.1,0,0.1,0,0.2,0c0.1,0,0.1,0,0.2,0c0.3,0,0.4,0,0.6-0.6l0,0l0.6,0.2l0,0c-0.2,0.9-0.6,1.2-1.2,1.2
					c0,0-0.1,0-0.2,0c-0.1,0-0.1,0-0.2,0c-0.4,0-0.5,0.1-0.5,0.5L48.1,32.1z M47.5,32l0.5,0l0-0.1c0-0.5,0.2-0.6,0.6-0.6
					c0,0,0.1,0,0.2,0c0.1,0,0.1,0,0.2,0c0.5,0,0.8-0.1,1.1-1.1l-0.4-0.1c-0.2,0.5-0.4,0.6-0.7,0.6c-0.1,0-0.1,0-0.2,0
					c-0.1,0-0.1,0-0.2,0c-0.3,0-0.6,0.1-0.7,0.5l-0.1,0.1l0-0.1c-0.1-0.4-0.3-0.5-0.6-0.6c-0.1,0-0.3,0-0.4,0
					c-0.3,0-0.5-0.1-0.6-0.7L45.7,30c0.1,1,0.5,1.2,0.9,1.2c0,0,0.1,0,0.2,0c0.1,0,0.1,0,0.2,0c0.2,0,0.4,0.1,0.5,0.2
					C47.5,31.5,47.5,31.7,47.5,32L47.5,32z"/>
			</g>
		</g>
		<g>
			<g>
				<path class="st0" d="M47.6,29.1c-0.1-0.4-0.2-0.5-0.6-0.4c-0.1,0-0.3,0.1-0.3,0.1c-0.5,0.1-0.8-0.1-1.1-1l0.5-0.2
					c0.2,0.5,0.4,0.5,0.7,0.5c0.1,0,0.3-0.1,0.4-0.1c0.3-0.1,0.6,0.1,0.7,0.4c0-0.3,0.2-0.5,0.6-0.6c0.1,0,0.3,0,0.4,0
					c0.3-0.1,0.4-0.2,0.5-0.7l0.5,0c0,0.9-0.3,1.2-0.8,1.3c-0.1,0-0.3,0-0.3,0c-0.4,0.1-0.5,0.2-0.4,0.6l0,0.1l-0.6,0.1L47.6,29.1z"
					/>
				<path class="st0" d="M47.5,29.3l0-0.2c-0.1-0.4-0.2-0.5-0.5-0.4c0,0-0.1,0-0.2,0c-0.1,0-0.1,0-0.2,0c-0.6,0.1-0.9-0.2-1.2-1l0,0
					l0.5-0.3l0,0c0.2,0.5,0.4,0.5,0.6,0.5c0,0,0.1,0,0.2,0c0.1,0,0.1,0,0.2,0c0.3-0.1,0.5,0,0.7,0.3c0.1-0.3,0.3-0.5,0.6-0.5
					c0.1,0,0.1,0,0.2,0c0.1,0,0.1,0,0.2,0c0.3,0,0.4-0.1,0.4-0.6l0,0l0.6,0.1l0,0c0,0.8-0.2,1.2-0.8,1.3c0,0-0.1,0-0.2,0
					c-0.1,0-0.1,0-0.2,0c-0.2,0-0.3,0.1-0.3,0.2c-0.1,0.1-0.1,0.2,0,0.4l0,0.2L47.5,29.3z M47.1,28.6c0.3,0,0.4,0.2,0.5,0.5v0l0,0.1
					l0.5-0.1l0-0.1c0-0.2,0-0.3,0-0.5c0.1-0.1,0.2-0.2,0.4-0.2c0,0,0.1,0,0.2,0c0.1,0,0.1,0,0.2,0c0.4-0.1,0.7-0.3,0.7-1.2l-0.4,0
					c-0.1,0.5-0.2,0.6-0.5,0.7c0,0-0.1,0-0.2,0c-0.1,0-0.1,0-0.2,0c-0.3,0.1-0.5,0.2-0.5,0.6l0,0.1l-0.1-0.1
					c-0.2-0.3-0.4-0.4-0.7-0.4c-0.1,0-0.1,0-0.2,0c-0.1,0-0.1,0-0.2,0c-0.3,0.1-0.5,0-0.7-0.5l-0.4,0.2c0.3,0.8,0.7,1,1.1,0.9
					c0,0,0.1,0,0.2,0c0.1,0,0.1,0,0.2,0C47,28.6,47.1,28.6,47.1,28.6z"/>
			</g>
		</g>
		<g>
			<g>
				<path class="st0" d="M47.1,26.5c-0.1-0.3-0.2-0.4-0.5-0.3c-0.1,0-0.2,0.1-0.2,0.1c-0.4,0.1-0.6,0-1-0.6l0.3-0.2
					c0.2,0.3,0.4,0.4,0.6,0.3c0.1,0,0.2-0.1,0.3-0.1c0.3-0.1,0.4,0,0.6,0.2c0-0.3,0.1-0.4,0.3-0.5c0.1,0,0.2-0.1,0.3-0.1
					c0.2-0.1,0.3-0.2,0.3-0.6l0.4,0c0.1,0.7,0,0.9-0.4,1.1c-0.1,0-0.2,0.1-0.2,0.1c-0.3,0.1-0.3,0.2-0.2,0.5l0,0.1L47.1,26.5
					L47.1,26.5z"/>
				<path class="st0" d="M47.1,26.7l0-0.1c0-0.1-0.1-0.2-0.2-0.2c-0.1,0-0.2,0-0.3,0c0,0-0.1,0-0.1,0.1c0,0-0.1,0-0.1,0
					c-0.4,0.2-0.7,0-1-0.6l0,0l0.4-0.3l0,0c0.2,0.3,0.3,0.3,0.5,0.3c0,0,0.1,0,0.1-0.1c0,0,0.1,0,0.1-0.1c0.2-0.1,0.4,0,0.6,0.1
					c0-0.2,0.1-0.4,0.4-0.5c0,0,0.1,0,0.1,0c0,0,0.1,0,0.1,0c0.2-0.1,0.3-0.1,0.2-0.5l0,0l0.5,0l0,0c0.1,0.6,0,1-0.4,1.1
					c0,0-0.1,0-0.1,0c0,0-0.1,0-0.1,0c-0.1,0-0.2,0.1-0.2,0.2c0,0.1,0,0.2,0,0.3l0,0.1L47.1,26.7z M47.1,26.5L47.1,26.5l0.3-0.1l0,0
					c-0.1-0.2-0.1-0.3,0-0.4c0-0.1,0.1-0.2,0.3-0.2c0,0,0.1,0,0.1,0c0,0,0.1,0,0.1,0c0.3-0.1,0.5-0.3,0.4-1l-0.3,0
					c0,0.4-0.1,0.5-0.3,0.6c0,0-0.1,0-0.1,0c0,0-0.1,0-0.1,0c-0.2,0.1-0.3,0.2-0.3,0.5l0,0.1L47,26c-0.2-0.2-0.3-0.3-0.5-0.2
					c0,0-0.1,0-0.1,0.1c0,0-0.1,0-0.1,0.1c-0.2,0.1-0.4,0.1-0.6-0.3l-0.2,0.2c0.3,0.6,0.6,0.6,0.9,0.5c0,0,0.1,0,0.1,0
					c0,0,0.1,0,0.1-0.1c0.2-0.1,0.3-0.1,0.4,0C47,26.2,47,26.3,47.1,26.5L47.1,26.5z"/>
			</g>
		</g>
		<g>
			<g>
				<path class="st0" d="M46.3,24.5c-0.1-0.2-0.3-0.3-0.5-0.2c-0.1,0-0.2,0.1-0.2,0.1c-0.3,0.2-0.6,0.1-1-0.4l0.3-0.2
					c0.3,0.3,0.4,0.3,0.6,0.2c0.1,0,0.2-0.1,0.2-0.1c0.2-0.1,0.4-0.1,0.6,0.1c0-0.2,0-0.4,0.3-0.5c0.1,0,0.2-0.1,0.2-0.1
					c0.2-0.1,0.3-0.2,0.2-0.6l0.4-0.1c0.2,0.6,0.1,0.9-0.3,1.1c0,0-0.2,0.1-0.2,0.1c-0.2,0.1-0.3,0.3-0.2,0.5l0,0.1L46.3,24.5
					L46.3,24.5z"/>
				<path class="st0" d="M46.3,24.7l-0.1-0.1c-0.1-0.1-0.1-0.2-0.2-0.2c-0.1,0-0.1,0-0.3,0c0,0-0.1,0-0.1,0.1c0,0-0.1,0-0.1,0.1
					c-0.4,0.2-0.7,0.1-1.1-0.5l0,0l0.3-0.3l0,0c0.3,0.3,0.3,0.3,0.5,0.2c0,0,0.1,0,0.1-0.1c0,0,0.1,0,0.1-0.1
					c0.2-0.1,0.4-0.1,0.6,0.1c0-0.2,0.1-0.4,0.3-0.5c0,0,0.1,0,0.1-0.1c0,0,0.1,0,0.1-0.1c0.2-0.1,0.2-0.2,0.2-0.5l0,0l0.4-0.1l0,0
					c0.2,0.6,0.1,0.9-0.3,1.1c0,0-0.1,0-0.1,0c0,0-0.1,0-0.1,0.1c-0.2,0.1-0.3,0.2-0.1,0.5l0.1,0.1L46.3,24.7z M46.3,24.5L46.3,24.5
					l0.3-0.1l0,0c-0.1-0.3-0.1-0.4,0.2-0.6c0,0,0.1,0,0.1-0.1c0,0,0.1,0,0.1,0c0.3-0.1,0.4-0.4,0.3-1L47,22.8c0.1,0.4,0,0.5-0.2,0.6
					c0,0-0.1,0-0.1,0.1c0,0-0.1,0-0.1,0.1c-0.2,0.1-0.3,0.2-0.2,0.5l0,0.1L46.2,24c-0.2-0.2-0.3-0.2-0.5-0.1c0,0-0.1,0-0.1,0.1
					c0,0-0.1,0-0.1,0.1c-0.2,0.1-0.3,0.1-0.6-0.2L44.6,24c0.4,0.5,0.6,0.5,0.9,0.4c0,0,0.1,0,0.1-0.1c0,0,0.1-0.1,0.1-0.1
					c0.1-0.1,0.2-0.1,0.3,0C46.2,24.3,46.2,24.3,46.3,24.5L46.3,24.5z"/>
			</g>
		</g>
		<g>
			<g>
				<path class="st0" d="M45.4,22.6c-0.1-0.2-0.2-0.2-0.4-0.1c0,0-0.1,0.1-0.2,0.1c-0.2,0.2-0.5,0.2-0.9-0.2l0.2-0.2
					c0.3,0.2,0.3,0.2,0.5,0.1c0,0,0.1-0.1,0.2-0.1c0.2-0.1,0.3-0.1,0.5,0c-0.1-0.2,0-0.4,0.2-0.5c0.1,0,0.1-0.1,0.2-0.1
					c0.1-0.1,0.2-0.2,0.1-0.5L46,21c0.2,0.5,0.2,0.7-0.1,0.9c0,0-0.1,0.1-0.2,0.1c-0.2,0.1-0.2,0.3-0.1,0.4l0,0.1L45.4,22.6
					L45.4,22.6z"/>
				<path class="st0" d="M44.5,22.8c-0.2,0-0.4-0.1-0.6-0.4l0,0l0.3-0.3l0,0c0.2,0.2,0.3,0.2,0.4,0.1c0,0,0.1,0,0.1-0.1
					c0,0,0.1-0.1,0.1-0.1c0.2-0.1,0.3-0.1,0.5,0c0-0.2,0-0.3,0.2-0.4c0,0,0.1,0,0.1-0.1c0,0,0.1,0,0.1-0.1c0.1-0.1,0.2-0.2,0.1-0.4
					l0,0l0.4-0.1l0,0c0.2,0.5,0.2,0.8-0.1,1c0,0-0.1,0-0.1,0.1c0,0-0.1,0-0.1,0.1c-0.2,0.1-0.2,0.2-0.1,0.4l0.1,0.1l-0.4,0.2
					l-0.1-0.1c-0.1-0.2-0.2-0.2-0.4-0.1c0,0-0.1,0-0.1,0.1c0,0-0.1,0-0.1,0.1C44.7,22.8,44.6,22.8,44.5,22.8z M43.9,22.4
					c0.4,0.4,0.6,0.3,0.8,0.2c0,0,0,0,0.1-0.1c0,0,0.1-0.1,0.1-0.1c0.2-0.1,0.4-0.1,0.5,0.1v0l0,0l0.2-0.1l0,0
					c-0.2-0.2-0.1-0.4,0.1-0.5c0,0,0.1,0,0.1-0.1c0,0,0.1,0,0.1-0.1c0.2-0.1,0.3-0.3,0.1-0.8l-0.2,0.1c0.1,0.3,0.1,0.4-0.1,0.5
					c0,0-0.1,0-0.1,0.1c0,0-0.1,0-0.1,0.1c-0.2,0.1-0.2,0.2-0.1,0.4l0,0.1l-0.1-0.1c-0.2-0.1-0.3-0.1-0.5,0c0,0-0.1,0-0.1,0.1
					c0,0-0.1,0-0.1,0.1c-0.2,0.1-0.3,0.1-0.5-0.1L43.9,22.4z"/>
			</g>
		</g>
		<g>
			<g>
				<path class="st0" d="M44.3,21c-0.1-0.2-0.2-0.2-0.4-0.1c0,0-0.1,0.1-0.1,0.1c-0.2,0.1-0.4,0.1-0.7-0.2l0.2-0.2
					c0.2,0.2,0.3,0.2,0.4,0.1c0,0,0.1-0.1,0.1-0.1c0.1-0.1,0.3-0.1,0.4,0c-0.1-0.2,0-0.3,0.1-0.4c0,0,0.1-0.1,0.2-0.1
					c0.1-0.1,0.2-0.2,0.1-0.4l0.2-0.1c0.2,0.4,0.1,0.6-0.1,0.8c0,0-0.1,0.1-0.1,0.1c-0.2,0.1-0.2,0.2-0.1,0.4l0,0.1L44.3,21L44.3,21
					z"/>
				<path class="st0" d="M43.5,21.2c-0.2,0-0.3-0.1-0.5-0.3l0,0l0.2-0.3l0,0c0.2,0.2,0.3,0.1,0.4,0.1c0,0,0,0,0.1-0.1
					c0,0,0.1,0,0.1-0.1c0.1-0.1,0.3-0.1,0.4,0c0-0.1,0-0.3,0.2-0.3c0,0,0.1,0,0.1-0.1c0,0,0.1,0,0.1,0c0.1-0.1,0.1-0.1,0.1-0.4l0,0
					l0.3-0.1l0,0c0.2,0.4,0.2,0.6-0.1,0.8c0,0,0,0-0.1,0c0,0-0.1,0-0.1,0c-0.1,0-0.1,0.1-0.1,0.1c0,0,0,0.1,0.1,0.2l0.1,0.1
					l-0.3,0.2L44.3,21c-0.1-0.1-0.1-0.1-0.1-0.1c0,0-0.1,0-0.2,0.1c0,0,0,0-0.1,0.1c0,0-0.1,0-0.1,0.1
					C43.7,21.1,43.6,21.2,43.5,21.2z M43.1,20.8c0.3,0.3,0.5,0.3,0.6,0.2c0,0,0,0,0.1,0c0,0,0.1,0,0.1-0.1c0.1-0.1,0.2-0.1,0.2-0.1
					c0.1,0,0.1,0.1,0.2,0.2l0,0l0.2-0.1l0,0c-0.1-0.1-0.1-0.2-0.1-0.2c0-0.1,0.1-0.1,0.1-0.2c0,0,0,0,0.1-0.1c0,0,0.1,0,0.1,0
					c0.2-0.1,0.2-0.3,0.1-0.7l-0.2,0.1c0.1,0.2,0,0.3-0.1,0.4c0,0-0.1,0-0.1,0.1c0,0-0.1,0-0.1,0c-0.1,0.1-0.2,0.2-0.1,0.4l0,0.1
					l-0.1-0.1c-0.1-0.1-0.2-0.1-0.4,0c0,0,0,0-0.1,0.1c0,0-0.1,0-0.1,0.1c-0.1,0.1-0.2,0.1-0.4-0.1L43.1,20.8z"/>
			</g>
		</g>
		<g>
			<g>
				<path class="st0" d="M44.2,41.1c0.2-0.5,0.2-0.8-0.3-1c-0.1-0.1-0.4-0.1-0.5-0.2c-0.7-0.3-0.9-0.8-0.5-2.1l0.7,0.1
					c-0.1,0.8,0,1,0.4,1.2c0.1,0.1,0.3,0.1,0.5,0.2c0.5,0.2,0.6,0.6,0.5,1.1c0.3-0.4,0.7-0.5,1.2-0.3c0.1,0.1,0.3,0.2,0.5,0.2
					c0.4,0.2,0.6,0.2,1.1-0.4l0.6,0.5c-0.8,1.1-1.3,1.2-2,0.9c-0.1,0-0.3-0.2-0.4-0.2c-0.5-0.2-0.8-0.1-1,0.4l-0.1,0.2l-0.7-0.4
					L44.2,41.1z"/>
				<path class="st0" d="M44.9,41.6l-0.8-0.4l0.1-0.2c0.1-0.3,0.2-0.4,0.1-0.6c0-0.1-0.2-0.3-0.4-0.4c-0.1,0-0.1-0.1-0.2-0.1
					c-0.1,0-0.2-0.1-0.2-0.1c-0.7-0.4-0.9-1-0.6-2.2l0,0l0.8,0.2l0,0c-0.1,0.8,0,0.9,0.4,1.1c0.1,0,0.1,0.1,0.2,0.1
					c0.1,0,0.2,0.1,0.2,0.1c0.4,0.2,0.6,0.5,0.6,1c0.4-0.3,0.7-0.4,1.1-0.2c0.1,0,0.2,0.1,0.2,0.1c0.1,0,0.2,0.1,0.2,0.1
					c0.4,0.2,0.6,0.2,1.1-0.4l0,0l0.6,0.5l0,0c-0.7,1-1.3,1.3-2.1,0.9c0,0-0.1-0.1-0.2-0.1c-0.1,0-0.2-0.1-0.2-0.1
					c-0.2-0.1-0.4-0.1-0.6-0.1c-0.1,0.1-0.3,0.2-0.4,0.4L44.9,41.6z M44.2,41.2l0.7,0.3l0.1-0.1c0.1-0.3,0.3-0.4,0.4-0.5
					c0.2-0.1,0.4,0,0.6,0.1c0.1,0,0.1,0.1,0.2,0.1c0.1,0,0.2,0.1,0.2,0.1c0.6,0.3,1.1,0.2,1.9-0.8L47.9,40c-0.5,0.6-0.8,0.6-1.2,0.4
					c-0.1,0-0.1-0.1-0.2-0.1c-0.1,0-0.2-0.1-0.2-0.1c-0.4-0.2-0.8-0.1-1.1,0.2L45,40.4l0-0.1c0.1-0.5-0.1-0.8-0.5-1
					c-0.1,0-0.2-0.1-0.2-0.1c-0.1,0-0.2-0.1-0.2-0.1c-0.4-0.2-0.5-0.4-0.4-1.2L43,37.8c-0.4,1.3,0,1.7,0.5,2c0,0,0.1,0.1,0.2,0.1
					c0.1,0,0.2,0.1,0.2,0.1c0.3,0.1,0.4,0.3,0.5,0.4c0,0.2,0,0.4-0.1,0.6v0L44.2,41.2z"/>
			</g>
		</g>
		<g>
			<g>
				<path class="st0" d="M41.7,43.6c0.3-0.4,0.3-0.7-0.1-1.1c-0.1-0.1-0.3-0.2-0.4-0.3c-0.6-0.5-0.7-1-0.1-2.2l0.7,0.3
					c-0.3,0.7-0.2,0.9,0.1,1.2c0.1,0.1,0.3,0.2,0.4,0.3c0.4,0.3,0.5,0.7,0.3,1.2c0.4-0.3,0.8-0.3,1.2,0c0.1,0.1,0.3,0.3,0.4,0.3
					c0.3,0.3,0.6,0.3,1.2-0.2l0.4,0.6c-1,0.9-1.6,0.9-2.1,0.4c-0.1-0.1-0.3-0.2-0.4-0.3c-0.4-0.3-0.7-0.3-1.1,0.2l-0.1,0.1l-0.6-0.5
					L41.7,43.6z"/>
				<path class="st0" d="M44.5,44.6c-0.3,0-0.5-0.1-0.8-0.3c0,0-0.1-0.1-0.2-0.2c-0.1-0.1-0.1-0.1-0.2-0.2c-0.2-0.2-0.4-0.2-0.5-0.2
					c-0.1,0-0.3,0.1-0.5,0.4l-0.1,0.2l-0.7-0.6l0.1-0.2c0.2-0.2,0.2-0.4,0.2-0.5c0-0.2-0.1-0.3-0.3-0.5c0,0-0.1-0.1-0.2-0.2
					c-0.1-0.1-0.1-0.1-0.2-0.1c-0.6-0.5-0.7-1.2-0.1-2.2l0,0l0.8,0.3l0,0c-0.3,0.7-0.2,0.9,0.1,1.2c0.1,0,0.1,0.1,0.2,0.1
					c0.1,0.1,0.2,0.1,0.2,0.2c0.4,0.3,0.5,0.6,0.3,1.1c0.4-0.2,0.8-0.2,1.2,0.1c0.1,0,0.1,0.1,0.2,0.2c0.1,0.1,0.1,0.1,0.2,0.2
					c0.3,0.2,0.5,0.3,1.2-0.2l0,0l0.5,0.7l0,0C45.4,44.4,44.9,44.6,44.5,44.6z M42.9,43.7c0.2,0,0.3,0.1,0.5,0.2
					c0,0,0.1,0.1,0.2,0.2c0.1,0.1,0.1,0.1,0.2,0.2c0.5,0.4,1,0.5,2.1-0.4l-0.4-0.5c-0.6,0.4-0.9,0.4-1.2,0.1c-0.1,0-0.1-0.1-0.2-0.2
					c-0.1-0.1-0.1-0.1-0.2-0.2c-0.4-0.3-0.7-0.3-1.2,0l-0.1,0.1l0-0.1c0.2-0.5,0.1-0.8-0.3-1.1c-0.1,0-0.1-0.1-0.2-0.2
					c-0.1-0.1-0.2-0.1-0.2-0.2c-0.3-0.3-0.4-0.5-0.2-1.2l-0.6-0.3c-0.6,1.2-0.4,1.7,0.1,2.1c0,0,0.1,0.1,0.2,0.1
					c0.1,0.1,0.2,0.1,0.2,0.2c0.2,0.2,0.3,0.4,0.4,0.5c0,0.2-0.1,0.4-0.3,0.6l-0.1,0.1l0.6,0.5l0.1-0.1
					C42.5,43.8,42.7,43.7,42.9,43.7C42.9,43.7,42.9,43.7,42.9,43.7z"/>
			</g>
		</g>
	</g>
	<g>
		<path class="st0" d="M41.8,32.7c0-1.6-1-3-2.5-3.6c0.1-0.3,0.1-0.6,0.1-1c0-3-2.5-5.5-5.5-5.5c-1.7,0-3.4,0.8-4.4,2.2
			c-0.5-0.4-1.1-0.6-1.7-0.6c-1.6,0-3,1.3-3,3c0,0.3,0.1,0.6,0.1,0.9c-1.5,0.6-2.5,2-2.5,3.6c0,1.6,1,3,2.5,3.6
			c-0.1,0.3-0.1,0.6-0.1,1c0,3,2.5,5.5,5.5,5.5c1.7,0,3.4-0.8,4.4-2.2c0.5,0.4,1.1,0.6,1.7,0.6c1.6,0,3-1.3,3-3
			c0-0.3-0.1-0.6-0.1-0.9C40.8,35.7,41.8,34.3,41.8,32.7z M28.5,28.6L25.8,28c-0.1-0.2-0.1-0.4-0.1-0.7c0-1.2,1-2.1,2.1-2.1
			c0.4,0,0.9,0.1,1.2,0.4L28.5,28.6z M29.2,31l-3.9,3.5c-1.1-0.5-1.9-1.6-1.9-2.8c0-1.3,0.8-2.5,2.1-2.9l3.1,0.7L29.2,31z
			 M35.8,35.8l2.7,0.6c0.1,0.2,0.1,0.4,0.1,0.7c0,1.2-1,2.1-2.1,2.1c-0.4,0-0.9-0.1-1.2-0.4L35.8,35.8z M40.8,32.6
			c0,1.3-0.8,2.5-2.1,2.9l-3.1-0.7l-0.8-1.5l4-3.5C40.1,30.3,40.8,31.4,40.8,32.6z M25.9,35.4l4-3.6l4.1,1.9l0.9,1.7l-0.7,3.6
			c-0.9,1.3-2.3,2-3.8,2c-2.5,0-4.6-2.1-4.6-4.6C25.8,36,25.8,35.7,25.9,35.4z M38.4,29l-4.1,3.6l-4.1-1.9l-0.8-1.7l0.7-3.6
			c0.9-1.2,2.3-2,3.8-2c2.5,0,4.6,2.1,4.6,4.6C38.5,28.5,38.4,28.7,38.4,29z"/>
	</g>
	<g>
		<circle class="st0" cx="6.8" cy="36.8" r="0.8"/>
	</g>
	<g>
		<circle class="st0" cx="57.5" cy="36.8" r="0.8"/>
	</g>
	<g>
		<path class="st0" d="M25.8,18.3l0.5-0.3c0.1,0.1,0.2,0.2,0.4,0.1c0.1-0.1,0.2-0.2,0.1-0.3c-0.1-0.3-0.9,0.3-1.2-0.5
			c-0.1-0.4,0-0.7,0.5-0.9c0.4-0.1,0.7,0,0.9,0.3L26.5,17c-0.1-0.1-0.2-0.2-0.3-0.1c-0.1,0-0.2,0.1-0.1,0.2c0.1,0.3,0.9-0.3,1.2,0.5
			c0.2,0.4,0,0.8-0.5,0.9C26.4,18.7,26,18.6,25.8,18.3z"/>
		<path class="st0" d="M28.3,17.3l0.2,0.7l-0.5,0.1l-0.5-2l0.8-0.2c0.4-0.1,0.8,0,0.9,0.5c0.1,0.4-0.2,0.8-0.5,0.9L28.3,17.3z
			 M28.2,16.3l-0.2,0l0.1,0.4l0.2-0.1c0.2,0,0.2-0.2,0.2-0.3C28.6,16.3,28.5,16.3,28.2,16.3z"/>
		<path class="st0" d="M31.2,15.9L30.3,16l0,0.3l0.7-0.1l0.1,0.5l-0.7,0.1l0,0.3l0.9-0.1l0.1,0.5l-1.4,0.1l-0.2-2.1l1.4-0.1
			L31.2,15.9z"/>
		<path class="st0" d="M32.8,15.3c0.5,0,0.8,0.3,0.9,0.7l-0.6,0.1c0-0.1-0.2-0.3-0.4-0.3c-0.3,0-0.5,0.2-0.5,0.6
			c0,0.3,0.2,0.6,0.5,0.6c0.2,0,0.4-0.1,0.4-0.2l0.5,0.1c-0.1,0.4-0.5,0.6-0.9,0.6c-0.6,0-1.1-0.5-1-1.1
			C31.7,15.7,32.1,15.3,32.8,15.3z"/>
		<path class="st0" d="M35.8,16.3l-0.6-0.1L35,17.8l-0.5-0.1l0.3-1.6L34.2,16l0.1-0.5l1.6,0.3L35.8,16.3z"/>
		<path class="st0" d="M37,18.3l0-0.4l-0.7-0.2L36.1,18l-0.5-0.2l1.3-1.8l0.6,0.2l0.1,2.2L37,18.3z M36.6,17.3l0.4,0.1l0-0.7l0,0
			L36.6,17.3z"/>
	</g>
	<g>
		<path class="st0" d="M27.1,48.4c-0.6-0.2-0.9-0.8-0.7-1.4c0.2-0.6,0.8-0.9,1.4-0.7c0.6,0.2,0.9,0.8,0.7,1.4
			C28.3,48.2,27.7,48.5,27.1,48.4z M27.6,46.7c-0.3-0.1-0.6,0.1-0.7,0.4c-0.1,0.3,0,0.6,0.3,0.7c0.3,0.1,0.6-0.1,0.7-0.4
			C28,47.1,27.9,46.8,27.6,46.7z"/>
		<path class="st0" d="M30.9,49.1l0.2-1.4l0,0L30.4,49L30,48.9l-0.3-1.5l0,0l-0.2,1.4L29,48.8l0.2-2.1l0.8,0.1l0.3,1.3l0,0l0.6-1.2
			l0.8,0.1l-0.2,2.1L30.9,49.1z"/>
		<path class="st0" d="M33.7,49l-0.9-1.1l0.1,1.2l-0.5,0L32.2,47l0.5,0l0.9,1.1l-0.1-1.2l0.5,0l0.1,2.1L33.7,49z"/>
		<path class="st0" d="M35.6,48.7L35,48.8l-0.4-2.1l0.5-0.1L35.6,48.7z"/>
		<path class="st0" d="M36.1,48.1l0.5-0.2c0.1,0.1,0.2,0.2,0.4,0.1c0.1,0,0.2-0.1,0.2-0.2c-0.1-0.3-1,0.2-1.2-0.5
			c-0.1-0.4,0.1-0.7,0.5-0.9c0.4-0.1,0.7,0,0.9,0.3l-0.5,0.2c-0.1-0.1-0.2-0.2-0.3-0.1c-0.1,0-0.2,0.1-0.1,0.2
			c0.1,0.3,1-0.2,1.2,0.5c0.1,0.4-0.1,0.8-0.6,0.9C36.6,48.5,36.2,48.4,36.1,48.1z"/>
	</g>
	<g>
		<path class="st0" d="M7.5,43.6c-0.4-0.8-0.1-1.7,0.8-2.1c0.8-0.4,1.7-0.1,2.1,0.8c0.4,0.8,0.1,1.7-0.8,2.1
			C8.8,44.8,7.9,44.5,7.5,43.6z M9.7,42.6C9.5,42.1,9,42,8.6,42.2s-0.6,0.7-0.4,1.1c0.2,0.4,0.7,0.6,1.1,0.3
			C9.7,43.4,9.9,43,9.7,42.6z"/>
		<path class="st0" d="M10.9,46.4c0.2,0.4,0.1,0.7-0.2,0.9c-0.5,0.3-1,0.2-1.4-0.5l-0.6-1l2.6-1.7l0.6,1c0.4,0.6,0.3,1.1-0.1,1.4
			C11.5,46.7,11.2,46.7,10.9,46.4z M10.3,46.1l-0.2-0.3l-0.5,0.3l0.2,0.3c0.1,0.2,0.3,0.3,0.4,0.2C10.5,46.5,10.5,46.3,10.3,46.1z
			 M10.7,45.5l0.2,0.3c0.1,0.2,0.2,0.2,0.4,0.1c0.1-0.1,0.2-0.2,0-0.4l-0.2-0.2L10.7,45.5z"/>
		<path class="st0" d="M11,47.9l0.6,0.5c-0.1,0.2-0.1,0.4,0,0.6c0.1,0.2,0.3,0.2,0.4,0.1c0.4-0.3-0.8-1.2,0.1-1.9
			c0.5-0.4,1.1-0.3,1.5,0.2c0.4,0.5,0.4,1,0.1,1.4l-0.6-0.5c0.1-0.2,0.1-0.3,0-0.5c-0.1-0.1-0.3-0.2-0.4-0.1
			c-0.4,0.3,0.9,1.2-0.1,1.9c-0.5,0.4-1.1,0.3-1.5-0.3C10.7,48.8,10.6,48.3,11,47.9z"/>
		<path class="st0" d="M15.6,50.6l-1-0.9L14.4,50l0.7,0.7l-0.5,0.5l-0.7-0.7l-0.3,0.3l1,0.9L14,52.3l-1.5-1.5l2.2-2.2l1.5,1.5
			L15.6,50.6z"/>
		<path class="st0" d="M16.1,52.5L16.1,52.5l-0.8,0.9l-0.6-0.5l1.9-2.5l0.9,0.7c0.4,0.3,0.8,0.9,0.3,1.5c-0.2,0.3-0.6,0.4-1,0.3
			l-0.2,1.5l-0.7-0.6L16.1,52.5z M17,51.7l-0.2-0.1L16.4,52l0.2,0.2c0.2,0.2,0.4,0.1,0.5,0C17.2,52.1,17.3,51.9,17,51.7z"/>
		<path class="st0" d="M17.9,55.2l0.6-3.2l0.7,0.4l-0.5,2.1l0,0l1.6-1.4l0.7,0.4l-2.5,2.1L17.9,55.2z"/>
		<path class="st0" d="M21.7,57.2l0.1-0.6l-0.9-0.4l-0.4,0.4l-0.8-0.3l2.3-2.4l0.8,0.4l-0.3,3.3L21.7,57.2z M21.3,55.6l0.5,0.2
			l0.1-1l0,0L21.3,55.6z"/>
		<path class="st0" d="M25.4,56.8c0.4,0.2,0.5,0.5,0.4,0.8c-0.2,0.6-0.6,0.8-1.4,0.5l-1.1-0.3l0.9-3l1.1,0.3
			c0.6,0.2,0.9,0.6,0.8,1.1C26,56.6,25.7,56.8,25.4,56.8z M24.7,56.9l-0.3-0.1l-0.2,0.5l0.3,0.1c0.2,0.1,0.4,0,0.5-0.2
			C25.1,57.1,25,57,24.7,56.9z M24.6,56.2l0.3,0.1c0.2,0.1,0.3,0,0.4-0.2c0-0.1,0-0.3-0.3-0.4l-0.3-0.1L24.6,56.2z"/>
		<path class="st0" d="M27.1,58.8l-0.8-0.2l0.6-3l0.8,0.2L27.1,58.8z"/>
		<path class="st0" d="M29.2,56l-0.3,2.3l1.2,0.1L30,59.2l-2-0.2l0.4-3.1L29.2,56z"/>
		<path class="st0" d="M31.5,59.3l-0.8,0l0.1-3.1l0.8,0L31.5,59.3z"/>
		<path class="st0" d="M34.7,56.8l-0.8,0l0.1,2.4l-0.8,0L33,56.9l-0.8,0l0-0.7l2.5-0.1L34.7,56.8z"/>
		<path class="st0" d="M36.4,58.9l-0.2-1.2l-1.4-1.6l0.9-0.2l0.7,1l0,0l0.4-1.2l0.8-0.1l-0.7,2l0.2,1.2L36.4,58.9z"/>
		<path class="st0" d="M41.3,55.2L40,55.6l0.1,0.4l1-0.3l0.2,0.7l-1,0.3l0.2,0.4l1.3-0.4l0.2,0.7l-2,0.7l-1-2.9l2-0.7L41.3,55.2z"/>
		<path class="st0" d="M44.8,56.2l-1.9-1.1l0.8,1.6L43,57.1l-1.4-2.8l0.7-0.4l1.9,1.1l-0.8-1.6l0.7-0.3l1.4,2.8L44.8,56.2z"/>
		<path class="st0" d="M46.9,52.5c-0.1-0.1-0.4-0.2-0.7,0c-0.4,0.3-0.4,0.8-0.1,1.1c0.3,0.4,0.7,0.6,1.2,0.3
			c0.3-0.2,0.4-0.5,0.3-0.7L47,53.6l-0.4-0.6l1.2-0.8l0.1,0.2c0.6,0.9,0.4,1.7-0.3,2.2c-0.7,0.5-1.7,0.3-2.2-0.5
			c-0.5-0.8-0.3-1.7,0.4-2.2c0.6-0.4,1.2-0.4,1.7-0.1L46.9,52.5z"/>
		<path class="st0" d="M50,52.7l-0.6,0.5l-2-2.4l0.6-0.5L50,52.7z"/>
		<path class="st0" d="M52.1,50.6L50,50.2l1.3,1.2L50.8,52l-2.2-2.2l0.6-0.6l2.1,0.4l-1.3-1.2l0.6-0.6l2.2,2.2L52.1,50.6z"/>
		<path class="st0" d="M52.8,46.1l-0.8,1.1l0.4,0.3l0.6-0.8l0.6,0.4l-0.6,0.8l0.4,0.3l0.8-1.1l0.6,0.4l-1.3,1.7l-2.5-1.9l1.3-1.7
			L52.8,46.1z"/>
		<path class="st0" d="M54.2,43.7l-0.7,1.2l0.4,0.2l0.5-0.9l0.6,0.4l-0.5,0.9l0.4,0.2l0.7-1.2l0.6,0.4l-1.1,1.8l-2.7-1.6l1.1-1.8
			L54.2,43.7z"/>
		<path class="st0" d="M55.9,42.8L55.9,42.8l1.1,0.6l-0.3,0.7l-2.8-1.3l0.5-1.1c0.2-0.5,0.7-1,1.3-0.7c0.4,0.2,0.5,0.5,0.5,0.9
			l1.5-0.2l-0.4,0.9L55.9,42.8z M54.9,42.2l-0.1,0.2l0.6,0.3l0.1-0.2c0.1-0.3,0-0.4-0.1-0.5C55.2,41.8,55.1,41.9,54.9,42.2z"/>
	</g>
	<g>
		<path class="st0" d="M5.8,29.1l-0.1,1.8l0.6,0l0.1-1.4l1,0.1L7.3,31L8,31l0.1-1.8l1,0.1l-0.2,2.9l-4.2-0.3L4.9,29L5.8,29.1z"/>
		<path class="st0" d="M5.6,25.4l3.1,0.8l0.4-1.5l0.9,0.2l-0.7,2.6l-4-1.1L5.6,25.4z"/>
		<path class="st0" d="M11.8,20.9l-0.8-0.1L10.4,22l0.6,0.5l-0.5,1l-3.1-3.2l0.5-1.1l4.4,0.6L11.8,20.9z M9.7,21.3l0.4-0.7l-1.3-0.2
			l0,0L9.7,21.3z"/>
		<path class="st0" d="M12.2,18.2l0.5-0.9c0.3,0.1,0.6,0.1,0.8-0.2c0.2-0.2,0.2-0.4,0-0.6c-0.5-0.4-1.3,1.5-2.6,0.4
			c-0.6-0.5-0.7-1.3-0.1-2c0.5-0.6,1.2-0.8,1.9-0.5l-0.5,0.9c-0.2-0.1-0.5-0.1-0.7,0.1c-0.2,0.2-0.2,0.4,0,0.5
			c0.5,0.4,1.3-1.5,2.6-0.4c0.7,0.5,0.7,1.4,0.1,2.1C13.6,18.3,12.8,18.5,12.2,18.2z"/>
		<path class="st0" d="M16.6,10.8l-0.9,0.7l2,2.5l-0.8,0.7l-2-2.5L14,12.9l-0.6-0.8l2.6-2.1L16.6,10.8z"/>
		<path class="st0" d="M21,11.8L20,12.4l-2.1-3.6l0.9-0.5L21,11.8z"/>
		<path class="st0" d="M23,6.2c0.9-0.3,1.8-0.1,2.2,0.6l-1,0.5c-0.1-0.2-0.5-0.4-0.9-0.2c-0.6,0.2-0.8,0.8-0.6,1.5
			c0.2,0.6,0.8,1,1.4,0.8c0.4-0.1,0.6-0.4,0.6-0.7l1.1-0.2c0,0.9-0.4,1.5-1.3,1.9c-1.2,0.4-2.3-0.1-2.7-1.3
			C21.3,7.8,21.9,6.7,23,6.2z"/>
		<path class="st0" d="M32.1,4.7c1,0,1.7,0.5,1.9,1.3l-1.1,0.2c-0.1-0.2-0.4-0.5-0.8-0.5c-0.6,0-1,0.5-1,1.2c0,0.7,0.4,1.2,1,1.2
			c0.4,0,0.7-0.2,0.8-0.5L34,7.7c-0.2,0.8-0.9,1.3-1.8,1.3c-1.2,0-2.1-0.8-2.2-2.2C30,5.6,30.9,4.7,32.1,4.7z"/>
		<path class="st0" d="M39.1,6.7l-1.8-0.4l-0.1,0.6l1.4,0.3l-0.2,1L37,7.8l-0.1,0.6l1.8,0.4l-0.2,1l-2.9-0.6l0.9-4.1l2.9,0.6
			L39.1,6.7z"/>
		<path class="st0" d="M41.9,9.3l-0.1,0l-0.7,1.5l-1-0.4l1.7-3.8l1.4,0.6C44,7.4,44.6,8,44.2,9C44,9.5,43.5,9.7,43,9.7l0.2,2
			l-1.2-0.5L41.9,9.3z M42.8,8l-0.3-0.1l-0.3,0.8l0.3,0.1c0.4,0.2,0.6,0.1,0.7-0.2C43.2,8.4,43.2,8.1,42.8,8z"/>
		<path class="st0" d="M48.9,11.7L47.9,11l-1.9,2.6L45.2,13l1.9-2.6l-0.9-0.7l0.6-0.8l2.7,1.9L48.9,11.7z"/>
		<path class="st0" d="M49,16.2l-0.8-0.8l3-3l0.8,0.8L49,16.2z"/>
		<path class="st0" d="M54.5,18.1l-1-1.4L52.9,17l0.8,1.1l-0.8,0.6l-0.8-1.1l-1.3,0.9l-0.6-0.9l3.4-2.4l1.6,2.3L54.5,18.1z"/>
		<path class="st0" d="M53.2,22.5l-0.5-1l3.8-1.8l0.5,1L53.2,22.5z"/>
		<path class="st0" d="M57.9,26.2l-0.5-1.8l-0.6,0.2l0.4,1.3l-0.9,0.3l-0.4-1.3L55.3,25l0.5,1.8l-0.9,0.3L54,24.3l4-1.2l0.8,2.8
			L57.9,26.2z"/>
		<path class="st0" d="M55.3,29.9l-0.1-1.1l4.2-0.3l0.1,1.3c0.1,1.5-0.6,2.4-1.9,2.5C56.1,32.4,55.4,31.5,55.3,29.9z M58.5,29.9
			l0-0.3l-2.2,0.2l0,0.3c0.1,0.8,0.5,1.2,1.2,1.1C58.1,31.2,58.5,30.7,58.5,29.9z"/>
	</g>
</g>
<rect x="0" y="0" class="st5" width="64" height="64"/>
</svg>
