<svg id="Layer_1" data-name="Layer 1" xmlns="http://www.w3.org/2000/svg" viewBox="0 0 34.44 34.44"><defs><style>.cls-1{fill:#eee;}.cls-2{fill:#9f9f9f;}</style></defs><title>icon-email-inactive</title><g id="Reddit"><circle id="back" class="cls-1" cx="17.22" cy="17.22" r="17.22"/></g><path class="cls-2" d="M26.09,22a2.15,2.15,0,0,1-.28,1l-5.39-6,5.33-4.66a2.11,2.11,0,0,1,.34,1.13Zm-8.54-3.91L25,11.56a2.07,2.07,0,0,0-1-.27H11.15a2.1,2.1,0,0,0-1,.27Zm2.07-.39-1.72,1.5a.51.51,0,0,1-.35.13.53.53,0,0,1-.35-.13l-1.72-1.5L10,23.76a2.08,2.08,0,0,0,1.13.33H24a2.08,2.08,0,0,0,1.13-.33ZM9.35,12.29A2.1,2.1,0,0,0,9,13.42V22a2.14,2.14,0,0,0,.27,1l5.39-6Zm0,0"/></svg>