<svg width="12" height="12" viewBox="0 0 12 12" fill="none" xmlns="http://www.w3.org/2000/svg">
<path d="M10.7989 8.13273L10.3487 7.75294C10.8004 6.63079 10.8004 5.3692 10.3487 4.24702L10.7988 3.86721C11.4004 5.22158 11.4004 6.77839 10.7989 8.13273ZM8.13291 10.7988C6.77854 11.4004 5.22165 11.4004 3.86721 10.7988L4.24699 10.3487C5.36924 10.8004 6.6309 10.8004 7.7531 10.3487L8.13291 10.7988ZM3.86715 1.20121C5.22161 0.599598 6.77854 0.599597 8.13294 1.20121L7.75315 1.65134C6.63093 1.19955 5.36923 1.19955 4.24697 1.65133L3.86715 1.20121ZM1.20116 3.86727L1.6513 4.24706C1.19957 5.36926 1.19956 6.63088 1.65129 7.75303L1.20115 8.13282C0.599614 6.77849 0.599617 5.22166 1.20116 3.86727Z" fill="white"/>
<path d="M7.17092 3.64984L7.04918 3.79412C6.95658 3.90381 6.93019 4.04856 6.96788 4.1781C6.36458 3.85729 5.63544 3.8573 5.03207 4.17811C5.06973 4.04851 5.04329 3.90368 4.95081 3.79399L4.82915 3.6498C5.5644 3.28339 6.43574 3.2834 7.17092 3.64984ZM8.3502 4.82937C8.71647 5.56451 8.71647 6.43567 8.3502 7.17081L8.20619 7.0493C8.09629 6.95664 7.95137 6.93035 7.82174 6.96817C8.1426 6.36476 8.14262 5.63556 7.82181 5.03213C7.95142 5.06994 8.09629 5.04365 8.20606 4.95099L8.3502 4.82937ZM3.64972 4.82934L3.79375 4.95086C3.90362 5.04351 4.0485 5.06988 4.17811 5.0321C3.8573 5.6355 3.85729 6.36466 4.17809 6.96805C4.04845 6.93029 3.90356 6.95667 3.79383 7.0493L3.64973 7.17088C3.28343 6.43571 3.28342 5.56452 3.64972 4.82934ZM4.82907 8.35034L4.9507 8.20618C5.04332 8.09646 5.06971 7.95158 5.03197 7.82201C5.63536 8.14289 6.36454 8.14291 6.96788 7.82209C6.93021 7.95164 6.95665 8.09648 7.04913 8.20618L7.17082 8.3504C6.43563 8.7168 5.56431 8.71678 4.82907 8.35034Z" fill="white"/>
<path d="M4.55433 6.87402L5.12568 7.44555C5.38175 7.70131 5.3991 8.11079 5.1657 8.38728L3.06856 10.8729L2.85966 10.734C2.54608 10.5256 2.25271 10.2858 1.98316 10.0165C1.71364 9.74675 1.47394 9.45347 1.26572 9.14005L1.12695 8.93117L3.61247 6.8341C3.88899 6.60071 4.29837 6.61805 4.55433 6.87402ZM4.73582 8.0245C4.78065 7.97139 4.77732 7.89263 4.72802 7.84339L4.15655 7.27173C4.10727 7.22245 4.02841 7.21911 3.97528 7.26396L1.87772 9.0337C2.02971 9.23988 2.19765 9.43533 2.38091 9.61872C2.56421 9.80189 2.75975 9.96988 2.96611 10.122L4.73582 8.0245Z" fill="white"/>
<path d="M10.0166 1.98354C10.286 2.25321 10.5257 2.54644 10.734 2.85977L10.8729 3.06866L10.6812 3.23042L8.38735 5.16595C8.1109 5.39931 7.70178 5.38188 7.44568 5.1261L6.87399 4.55441C6.61805 4.29847 6.60071 3.88926 6.83409 3.61279L8.93146 1.12695L9.14038 1.26592C9.45405 1.47457 9.74736 1.71435 10.0166 1.98354ZM9.03382 1.87792L7.26397 3.97558C7.21912 4.02871 7.22245 4.10737 7.27174 4.15666L7.84331 4.72823C7.89269 4.77755 7.97145 4.78091 8.02455 4.73608L10.122 2.96624C9.97 2.76009 9.80204 2.56466 9.61877 2.38125C9.43565 2.19813 9.2402 2.03015 9.03382 1.87792Z" fill="white"/>
<path d="M2.85972 1.26581L3.06861 1.12695L3.23037 1.31866L5.16602 3.61263C5.39915 3.88918 5.38191 4.29848 5.12601 4.55438L4.55435 5.12585C4.29843 5.38177 3.88931 5.3991 3.61255 5.16575L1.12695 3.06861L1.26582 2.85971C1.47449 2.54581 1.7143 2.25246 1.98341 1.98355C2.25246 1.7143 2.54582 1.47448 2.85972 1.26581ZM2.38116 2.38129C2.19803 2.56429 2.03004 2.75971 1.87781 2.96616L3.97522 4.73577C4.02855 4.78074 4.1073 4.7774 4.15664 4.72807L4.72829 4.1566C4.77751 4.10738 4.78084 4.02844 4.73603 3.97529L2.96618 1.8778C2.75972 2.03004 2.56426 2.19806 2.38116 2.38129Z" fill="white"/>
<path d="M7.44561 6.87439C7.70169 6.61862 8.11073 6.6012 8.38741 6.83449L10.873 8.93157L10.7342 9.14045C10.5259 9.45405 10.2861 9.74732 10.0165 10.0169C9.74733 10.2861 9.45397 10.5259 9.14025 10.7344L8.93136 10.8733L8.7696 10.6816L6.83395 8.3876C6.6008 8.11102 6.61804 7.70164 6.87392 7.44607L7.44561 6.87439ZM7.27155 7.84394C7.22247 7.89296 7.21915 7.97182 7.26394 8.02495L9.03379 10.1224C9.24019 9.97026 9.43565 9.80229 9.61874 9.6192C9.80215 9.43579 9.97014 9.24035 10.1222 9.03411L8.02475 7.26447C7.9715 7.21957 7.89269 7.22291 7.84328 7.27221L7.27155 7.84394Z" fill="white"/>
</svg>
